<svg xmlns="http://www.w3.org/2000/svg" width="808" height="630"><style><![CDATA[.B{font-family:MuseoSans-900, Museo Sans}.C{font-weight:900}.D{fill:#908f93}.E{font-size:16px}.F{fill:#efefef}]]></style><text fill="#2562a0" font-size="30" class="B C"><tspan y="28" x="0">Government Income 2000</tspan></text><text class="B C D E"><tspan x="4.504" y="324">Income Taxes – 48%</tspan><tspan y="111" x="636">Social Security &amp; </tspan><tspan y="130" x="636">Medicare Taxes – 34%</tspan></text><g fill="#aeb5b7"><path d="M409.923 574.432c-16.984-2.152-33.743-5.98-49.828-11.38a255.94 255.94 0 0 1-46.098-20.761 257.27 257.27 0 0 1-40.479-28.865 259.1 259.1 0 0 1-33.959-35.817c-10.135-12.973-19.064-26.974-26.538-41.615a257.25 257.25 0 0 1-18.215-46.26 255.94 255.94 0 0 1-8.992-49.751 259.15 259.15 0 0 1 1.131-52.094c1.96-15.97 5.387-31.768 10.184-46.955 4.694-14.86 10.767-29.353 18.05-43.07a256.19 256.19 0 0 1 25.088-38.456 256.3 256.3 0 0 1 31.297-33.109c11.368-10.057 23.707-19.15 36.677-27.028 13.072-7.94 26.943-14.74 41.228-20.214 14.504-5.557 29.627-9.82 44.95-12.667 15.334-2.85 31.09-4.324 46.847-4.383v117.086a141.13 141.13 0 0 0-27.245 2.844c-9 1.84-17.85 4.59-26.3 8.167-8.305 3.513-16.315 7.86-23.807 12.922-7.42 5.014-14.4 10.77-20.74 17.113s-12.1 13.32-17.114 20.74a140.18 140.18 0 0 0-12.922 23.807c-3.578 8.46-6.325 17.3-8.167 26.31a141.18 141.18 0 0 0-2.847 28.244c0 17.5 3.19 34.59 9.48 50.767a139.99 139.99 0 0 0 11.178 22.503 141.01 141.01 0 0 0 14.875 19.986 141.34 141.34 0 0 0 18.125 17.023 140.71 140.71 0 0 0 20.929 13.615c7.44 3.944 15.274 7.228 23.288 9.76 7.863 2.485 16 4.278 24.206 5.335l-14.267 116.205z"/><path d="M409.053 573.312l14.024-114.224c-7.93-1.08-15.8-2.84-23.394-5.243a140.71 140.71 0 0 1-23.455-9.831c-7.39-3.92-14.483-8.533-21.08-13.712a142.35 142.35 0 0 1-18.253-17.144 141.99 141.99 0 0 1-14.98-20.128c-4.42-7.19-8.207-14.816-11.258-22.664-6.334-16.292-9.546-33.494-9.546-51.13 0-9.576.965-19.146 2.868-28.445 1.855-9.064 4.622-17.98 8.226-26.498 3.538-8.364 7.917-16.43 13.015-23.977 5.05-7.474 10.848-14.502 17.235-20.89a142.16 142.16 0 0 1 20.889-17.235c7.546-5.098 15.613-9.477 23.978-13.015 8.52-3.603 17.435-6.37 26.5-8.226a142.09 142.09 0 0 1 26.445-2.854v-115.1c-15.363.117-30.714 1.583-45.664 4.36a256.41 256.41 0 0 0-44.775 12.617 255.2 255.2 0 0 0-41.066 20.135c-12.918 7.847-25.2 16.905-36.533 26.923s-21.812 21.114-31.174 32.98a255.19 255.19 0 0 0-24.99 38.306c-7.255 13.665-13.304 28.1-17.98 42.904a261.54 261.54 0 0 0-10.145 46.776 258.14 258.14 0 0 0-1.127 51.892c1.336 16.74 4.35 33.412 8.957 49.556 4.523 15.852 10.628 31.355 18.144 46.08a258.1 258.1 0 0 0 60.263 77.133c12.468 10.855 26.034 20.53 40.32 28.753 14.55 8.376 30 15.334 45.918 20.68 15.708 5.276 32.06 9.044 48.64 11.21m1.74 2.236c-141.558-17.38-242.222-146.226-224.84-287.783C201.943 157.533 311.053 61 442.264 61v119.084c-76.852 0-139.153 62.3-139.153 139.152 0 71.1 53.342 129.755 122.193 138.122l-14.51 118.2z" class="F"/></g><g class="D"><path d="M427.803 576.066c-5.12-.292-10.805-.79-15.895-1.39l14.268-116.207c2.605.298 5.205.525 7.755.676l-6.128 116.922z"/><path d="M427.048 459.57l-14.024 114.227c4.473.51 9.337.935 13.834 1.2l6.023-114.93a143.1 143.1 0 0 1-5.832-.509m-1.743-2.213a139.98 139.98 0 0 0 9.677.842l-6.232 118.92a272.39 272.39 0 0 1-17.956-1.571l14.51-118.2z" class="F"/></g><g fill="#fcfeff"><path d="M442.608 576.512c-4.034 0-8.128-.11-12.808-.34l6.128-116.925a142.98 142.98 0 0 0 6.336.142 141.85 141.85 0 0 0 8.778-.28l8.168 116.806c-6.074.407-11.374.597-16.602.597z"/><path d="M450.113 460.166l-7.85.224c-1.774 0-3.58-.035-5.4-.103L430.85 575.22a248.67 248.67 0 0 0 11.757.291c4.916 0 9.898-.17 15.534-.53l-8.03-114.817m1.857-2.12l8.307 118.798c-6.4.448-11.985.668-17.67.668-4.408 0-8.882-.132-13.86-.393l6.232-118.92c2.412.124 4.84.19 7.283.19 3.263 0 6.5-.122 9.706-.343z" class="F"/></g><g fill="#5f5b5b"><path d="M461.205 575.775l-8.167-116.804c8.286-.63 16.53-2 24.54-4.08l30.298 113.074c-7.958 2.103-15.54 3.747-23.148 5.02s-15.313 2.187-23.522 2.79z"/><path d="M476.867 456.105c-7.445 1.876-15.083 3.146-22.763 3.784l8.028 114.813c7.805-.6 15.162-1.487 22.43-2.703s14.512-2.772 22.087-4.746l-29.782-111.148m1.418-2.434L509.1 568.674c-16.53 4.43-31.75 6.976-48.823 8.17l-8.307-118.798a138.7 138.7 0 0 0 26.315-4.375z" class="F"/></g><g fill="#a7050e"><path d="M509.807 567.448L479.51 454.375a139.58 139.58 0 0 0 23.947-9.026c7.85-3.816 15.39-8.4 22.41-13.627 6.97-5.19 13.496-11.06 19.395-17.45 5.685-6.158 10.84-12.854 15.332-19.915l99.288 62.043c-4.346 6.904-8.94 13.582-13.66 19.86-4.923 6.546-10.13 12.852-15.48 18.742a246.02 246.02 0 0 1-16.802 16.804c-5.798 5.257-11.907 10.268-18.16 14.894a237.18 237.18 0 0 1-19.552 13.011 246.04 246.04 0 0 1-20.982 11.155c-7.197 3.393-14.75 6.53-22.45 9.324-7.386 2.68-15.115 5.12-22.988 7.258z"/><path d="M560.902 395.727c-4.397 6.805-9.405 13.263-14.905 19.222-5.94 6.436-12.513 12.35-19.532 17.575a141.46 141.46 0 0 1-22.571 13.724 140.6 140.6 0 0 1-23.162 8.824l29.78 111.146c7.512-2.066 14.884-4.407 21.94-6.968 7.67-2.783 15.195-5.91 22.364-9.29a245.09 245.09 0 0 0 20.897-11.109c6.694-4 13.244-8.35 19.47-12.956s12.31-9.597 18.082-14.83 11.4-10.863 16.734-16.736 10.517-12.15 15.42-18.67c4.512-6 8.906-12.365 13.078-18.945l-97.598-60.986m-.623-2.747l100.982 63.1c-36.277 58.055-86.036 94.875-152.16 112.593L478.285 453.67c34.406-9.196 63.555-31.244 81.994-60.69z" class="F"/></g><g class="D"><path d="M660.942 454.702l-99.287-62.042a139.52 139.52 0 0 0 15.174-34.132c3.708-12.7 5.588-25.93 5.588-39.292a141.18 141.18 0 0 0-2.847-28.244c-1.84-9-4.59-17.85-8.167-26.31-3.513-8.305-7.86-16.315-12.922-23.807-5.014-7.42-10.77-14.4-17.113-20.74a141.16 141.16 0 0 0-20.741-17.113c-7.493-5.062-15.502-9.4-23.807-12.922-8.458-3.578-17.3-6.325-26.31-8.167a141.12 141.12 0 0 0-27.245-2.844V62.002c17.12.066 34.22 1.823 50.843 5.224a255.93 255.93 0 0 1 48.285 14.988 257.25 257.25 0 0 1 43.695 23.717c13.62 9.202 26.43 19.77 38.07 31.41s22.21 24.45 31.41 38.07c9.29 13.752 17.27 28.453 23.717 43.695a255.94 255.94 0 0 1 14.988 48.284c3.468 16.947 5.226 34.39 5.226 51.843 0 25.817-3.068 49.065-9.378 71.073-6.23 21.722-15.778 42.796-29.18 64.394z"/><path d="M444.264 63.008v115.1c8.907.125 17.794 1.083 26.445 2.854 9.064 1.855 17.98 4.622 26.5 8.226a141.16 141.16 0 0 1 23.977 13.015c7.474 5.05 14.502 10.848 20.89 17.235s12.186 13.415 17.235 20.89c5.098 7.546 9.477 15.613 13.014 23.977a140.45 140.45 0 0 1 8.226 26.498c1.903 9.3 2.868 18.87 2.868 28.445 0 13.457-1.893 26.77-5.628 39.572a140.49 140.49 0 0 1-14.764 33.529l97.595 60.984c13.077-21.22 22.42-41.943 28.54-63.29 6.284-21.917 9.34-45.074 9.34-70.797 0-17.387-1.75-34.762-5.206-51.643-3.366-16.45-8.39-32.633-14.93-48.095a256.26 256.26 0 0 0-23.624-43.525c-9.167-13.57-19.694-26.328-31.3-37.924a258.08 258.08 0 0 0-37.924-31.29 256.25 256.25 0 0 0-43.524-23.624 254.93 254.93 0 0 0-48.095-14.93c-16.234-3.322-32.924-5.07-49.643-5.198m-2-2.008C584.884 61 700.5 176.616 700.5 319.236c0 51.344-12.032 93.303-39.24 136.845l-100.982-63.1c13.39-21.38 21.137-46.656 21.137-73.744 0-76.85-62.3-139.152-139.152-139.152V61z" class="F"/></g><text fill="#a71303" class="B C E"><tspan y="551" x="612">Corporate Taxes – 12%</tspan></text><text class="B C D E"><tspan y="593" x="484">Tariffs – 3%</tspan><tspan x="254.408" y="606">Interest from Federal </tspan><tspan x="263.736" y="625">Reserve Bonds – 1%</tspan><tspan y="615" x="448">Other – 2%</tspan></text></svg>