<svg xmlns="http://www.w3.org/2000/svg" width="808" height="630" viewBox="0 0 808 630">
  <g id="Group_516" data-name="Group 516" transform="translate(-522 -1810)">
    <text id="Government_Income_2000" data-name="Government Income 2000" transform="translate(522 1810)" fill="#2562a0" font-size="30" font-family="MuseoSans-900, Museo Sans" font-weight="900"><tspan x="0" y="28">Government Income 2000</tspan></text>
    <g id="Group_515" data-name="Group 515">
      <text id="Income_Taxes_48_" data-name="Income Taxes – 48%" transform="translate(522 2119)" fill="#908f93" font-size="16" font-family="MuseoSans-900, Museo Sans" font-weight="900"><tspan x="4.504" y="15">Income Taxes – 48%</tspan></text>
      <text id="Social_Security_Medicare_Taxes_34_" data-name="Social Security &amp; Medicare Taxes – 34%" transform="translate(1158 1906)" fill="#908f93" font-size="16" font-family="MuseoSans-900, Museo Sans" font-weight="900"><tspan x="0" y="15">Social Security &amp; </tspan><tspan x="0" y="34">Medicare Taxes – 34%</tspan></text>
      <g id="Group_514" data-name="Group 514" transform="translate(1244 11934)">
        <g id="Path_2719" data-name="Path 2719" transform="translate(-3834.775 -10676.178)" fill="#aeb5b7" stroke-miterlimit="10">
          <path d="M 3522.69775390625 1126.609619140625 C 3505.71337890625 1124.457885742188 3488.954345703125 1120.630126953125 3472.869873046875 1115.228149414062 C 3456.88916015625 1109.860961914062 3441.37939453125 1102.8759765625 3426.771484375 1094.467041015625 C 3412.4287109375 1086.210693359375 3398.8095703125 1076.4990234375 3386.29248046875 1065.601928710938 C 3373.894287109375 1054.807983398438 3362.46875 1042.757446289062 3352.33349609375 1029.784790039062 C 3342.197998046875 1016.812255859375 3333.26953125 1002.810791015625 3325.7958984375 988.1694946289062 C 3318.25048828125 973.3880615234375 3312.1220703125 957.8240356445312 3307.580810546875 941.9098510742188 C 3302.955810546875 925.70166015625 3299.93017578125 908.962890625 3298.588623046875 892.1585083007812 C 3297.2119140625 874.9154052734375 3297.592529296875 857.3885498046875 3299.719482421875 840.0648193359375 C 3301.6806640625 824.0943603515625 3305.10693359375 808.2963256835938 3309.903564453125 793.1094970703125 C 3314.59716796875 778.2481689453125 3320.670166015625 763.7568969726562 3327.95361328125 750.0382080078125 C 3335.126953125 736.5269775390625 3343.56787109375 723.5883178710938 3353.04150390625 711.5817260742188 C 3362.440673828125 699.6692504882812 3372.970458984375 688.5297241210938 3384.338134765625 678.472412109375 C 3395.705810546875 668.4152221679688 3408.04541015625 659.3215942382812 3421.0146484375 651.4440307617188 C 3434.08642578125 643.5042114257812 3447.957275390625 636.7032470703125 3462.2421875 631.22998046875 C 3476.74609375 625.672607421875 3491.86962890625 621.4109497070312 3507.192138671875 618.5633544921875 C 3522.526611328125 615.713623046875 3538.28125 614.2396240234375 3554.0390625 614.1798706054688 L 3554.0390625 731.2655639648438 C 3544.8642578125 731.330322265625 3535.7041015625 732.2862548828125 3526.79443359375 734.1094360351562 C 3517.79541015625 735.950927734375 3508.943603515625 738.6986083984375 3500.48486328125 742.2763671875 C 3492.179931640625 745.7889404296875 3484.170166015625 750.1366577148438 3476.677490234375 755.198486328125 C 3469.25634765625 760.2120971679688 3462.27783203125 765.9698486328125 3455.93603515625 772.311767578125 C 3449.593994140625 778.6536865234375 3443.836181640625 785.6321411132812 3438.822509765625 793.05322265625 C 3433.7607421875 800.5457763671875 3429.4130859375 808.5556030273438 3425.900390625 816.8604125976562 C 3422.32275390625 825.3189697265625 3419.574951171875 834.1707153320312 3417.7333984375 843.169677734375 C 3415.843994140625 852.40283203125 3414.885986328125 861.9056396484375 3414.885986328125 871.4140625 C 3414.885986328125 888.9244995117188 3418.074951171875 906.0049438476562 3424.364501953125 922.180908203125 C 3427.39404296875 929.97265625 3431.15478515625 937.5436401367188 3435.54248046875 944.6836547851562 C 3439.883056640625 951.746826171875 3444.8876953125 958.470947265625 3450.417236328125 964.6693115234375 C 3455.931884765625 970.8509521484375 3462.02978515625 976.5784301757812 3468.5419921875 981.692626953125 C 3475.0908203125 986.8355712890625 3482.132568359375 991.4164428710938 3489.471435546875 995.3079833984375 C 3496.91015625 999.2523803710938 3504.745361328125 1002.536437988281 3512.759521484375 1005.068969726562 C 3520.6220703125 1007.553649902344 3528.760009765625 1009.34716796875 3536.965087890625 1010.404357910156 L 3522.69775390625 1126.609619140625 Z" stroke="none"/>
          <path d="M 3521.82763671875 1125.489501953125 L 3535.851806640625 1011.265686035156 C 3527.92236328125 1010.186645507812 3520.06201171875 1008.425415039062 3512.458251953125 1006.022521972656 C 3504.386474609375 1003.471740722656 3496.4951171875 1000.164123535156 3489.0029296875 996.1914672851562 C 3481.611572265625 992.2721557617188 3474.519775390625 987.65869140625 3467.92431640625 982.4791259765625 C 3461.365966796875 977.32861328125 3455.224609375 971.5604858398438 3449.6708984375 965.3350219726562 C 3444.10205078125 959.0926513671875 3439.06201171875 952.3206787109375 3434.690673828125 945.2071533203125 C 3430.271484375 938.01611328125 3426.483642578125 930.390869140625 3423.432373046875 922.5432739257812 C 3417.097900390625 906.2513427734375 3413.885986328125 889.0489501953125 3413.885986328125 871.4140625 C 3413.885986328125 861.83837890625 3414.850830078125 852.2681884765625 3416.753662109375 842.96923828125 C 3418.6083984375 833.905517578125 3421.3759765625 824.990234375 3424.979248046875 816.4708862304688 C 3428.51708984375 808.1066284179688 3432.89599609375 800.0394897460938 3437.993896484375 792.493408203125 C 3443.043212890625 785.0195922851562 3448.841796875 777.9916381835938 3455.228759765625 771.6046752929688 C 3461.61572265625 765.2177734375 3468.643798828125 759.4191284179688 3476.11767578125 754.369873046875 C 3483.663818359375 749.2719116210938 3491.73095703125 744.8931884765625 3500.095458984375 741.3553466796875 C 3508.61474609375 737.751953125 3517.5302734375 734.9844360351562 3526.593994140625 733.1297607421875 C 3535.245361328125 731.3594360351562 3544.132080078125 730.4009399414062 3553.0390625 730.2760620117188 L 3553.0390625 615.1856079101562 C 3537.676025390625 615.3026123046875 3522.324951171875 616.7682495117188 3507.375 619.5465087890625 C 3492.112060546875 622.3831176757812 3477.04736328125 626.6281127929688 3462.599853515625 632.1637573242188 C 3448.37109375 637.6156005859375 3434.554443359375 644.3899536132812 3421.53369140625 652.2987060546875 C 3408.615478515625 660.1453857421875 3396.323974609375 669.2035522460938 3385.000732421875 679.2213745117188 C 3373.677490234375 689.2393188476562 3363.18896484375 700.3352661132812 3353.826416015625 712.2011108398438 C 3344.389892578125 724.1607666015625 3335.982177734375 737.0487670898438 3328.8369140625 750.5072021484375 C 3321.581787109375 764.1723022460938 3315.532470703125 778.6071166992188 3310.85693359375 793.4107055664062 C 3306.078857421875 808.5391845703125 3302.665771484375 824.2769165039062 3300.712158203125 840.1867065429688 C 3298.59326171875 857.4437255859375 3298.214111328125 874.90283203125 3299.58544921875 892.0789794921875 C 3300.921875 908.8175659179688 3303.935302734375 925.49072265625 3308.54248046875 941.6354370117188 C 3313.06591796875 957.487548828125 3319.17041015625 972.9909057617188 3326.6865234375 987.71484375 C 3334.13134765625 1002.299438476562 3343.025390625 1016.246704101562 3353.121337890625 1029.169189453125 C 3363.217529296875 1042.091552734375 3374.598876953125 1054.095581054688 3386.94921875 1064.84765625 C 3399.41748046875 1075.702392578125 3412.983642578125 1085.376220703125 3427.2705078125 1093.600341796875 C 3441.821044921875 1101.976440429688 3457.27001953125 1108.93408203125 3473.188232421875 1114.280151367188 C 3488.896240234375 1119.555786132812 3505.249267578125 1123.323852539062 3521.82763671875 1125.489501953125 M 3523.568115234375 1127.725952148438 C 3382.010009765625 1110.344970703125 3281.345947265625 981.5000610351562 3298.72705078125 839.9429931640625 C 3314.718017578125 709.7110595703125 3423.827880859375 613.177978515625 3555.0390625 613.177978515625 L 3555.0390625 732.2620239257812 C 3478.18701171875 732.2620239257812 3415.885986328125 794.56298828125 3415.885986328125 871.4140625 C 3415.885986328125 942.5239868164062 3469.22802734375 1001.169006347656 3538.0791015625 1009.536010742188 L 3523.568115234375 1127.725952148438 Z" stroke="none" fill="#efefef"/>
        </g>
        <g id="Path_2720" data-name="Path 2720" transform="translate(-3834.775 -10676.178)" fill="#908f93" stroke-miterlimit="10">
          <path d="M 3540.57763671875 1128.24365234375 C 3535.456298828125 1127.951782226562 3529.77294921875 1127.454467773438 3524.682861328125 1126.85302734375 L 3538.950439453125 1010.645751953125 C 3541.555419921875 1010.944152832031 3544.15576171875 1011.170654296875 3546.705322265625 1011.321350097656 L 3540.57763671875 1128.24365234375 Z" stroke="none"/>
          <path d="M 3539.822509765625 1011.748779296875 L 3525.798095703125 1125.9755859375 C 3530.271240234375 1126.484619140625 3535.135009765625 1126.91015625 3539.6318359375 1127.18603515625 L 3545.65478515625 1012.25732421875 C 3543.72900390625 1012.129516601562 3541.7783203125 1011.959350585938 3539.822509765625 1011.748779296875 M 3538.0791015625 1009.536010742188 C 3541.27294921875 1009.924072265625 3544.4990234375 1010.2099609375 3547.756103515625 1010.3779296875 L 3541.52392578125 1129.296997070312 C 3535.826904296875 1128.998046875 3529.22998046875 1128.421020507812 3523.568115234375 1127.725952148438 L 3538.0791015625 1009.536010742188 Z" stroke="none" fill="#efefef"/>
        </g>
        <g id="Path_2721" data-name="Path 2721" transform="translate(-3834.775 -10676.178)" fill="#fcfeff" stroke-miterlimit="10">
          <path d="M 3555.383056640625 1128.690185546875 C 3551.348876953125 1128.690185546875 3547.2548828125 1128.58154296875 3542.574951171875 1128.349365234375 L 3548.70263671875 1011.424560546875 C 3550.827880859375 1011.519165039062 3552.954833984375 1011.567016601562 3555.0390625 1011.567016601562 C 3557.88330078125 1011.567016601562 3560.83154296875 1011.472900390625 3563.81689453125 1011.287048339844 L 3571.984619140625 1128.0927734375 C 3565.910888671875 1128.499877929688 3560.61083984375 1128.690185546875 3555.383056640625 1128.690185546875 Z" stroke="none"/>
          <path d="M 3562.888427734375 1012.343505859375 C 3560.221435546875 1012.491943359375 3557.58935546875 1012.567016601562 3555.0390625 1012.567016601562 C 3553.264892578125 1012.567016601562 3551.459228515625 1012.532470703125 3549.6494140625 1012.464233398438 L 3543.626220703125 1127.398803710938 C 3547.876708984375 1127.597045898438 3551.656005859375 1127.690185546875 3555.383056640625 1127.690185546875 C 3560.29931640625 1127.690185546875 3565.28076171875 1127.52099609375 3570.9169921875 1127.160522460938 L 3562.888427734375 1012.343505859375 M 3564.7451171875 1010.223999023438 L 3573.052001953125 1129.02197265625 C 3566.641845703125 1129.47021484375 3561.066650390625 1129.690185546875 3555.383056640625 1129.690185546875 C 3550.974609375 1129.690185546875 3546.500732421875 1129.557861328125 3541.52392578125 1129.296997070312 L 3547.756103515625 1010.3779296875 C 3550.16796875 1010.501953125 3552.595947265625 1010.567016601562 3555.0390625 1010.567016601562 C 3558.302001953125 1010.567016601562 3561.5380859375 1010.445068359375 3564.7451171875 1010.223999023438 Z" stroke="none" fill="#efefef"/>
        </g>
        <g id="Path_2722" data-name="Path 2722" transform="translate(-3834.775 -10676.178)" fill="#5f5b5b" stroke-miterlimit="10">
          <path d="M 3573.979736328125 1127.953002929688 L 3565.812255859375 1011.149291992188 C 3574.097900390625 1010.519287109375 3582.343505859375 1009.1484375 3590.351806640625 1007.069702148438 L 3620.64990234375 1120.143310546875 C 3612.691650390625 1122.24658203125 3605.109130859375 1123.890747070312 3597.501708984375 1125.163818359375 C 3589.8935546875 1126.43701171875 3582.188720703125 1127.350830078125 3573.979736328125 1127.953002929688 Z" stroke="none"/>
          <path d="M 3589.641845703125 1008.283447265625 C 3582.197265625 1010.159301757812 3574.55908203125 1011.429077148438 3566.87890625 1012.067626953125 L 3574.9072265625 1126.880493164062 C 3582.712158203125 1126.28076171875 3590.069091796875 1125.393798828125 3597.336669921875 1124.177490234375 C 3604.603515625 1122.96142578125 3611.848388671875 1121.405029296875 3619.423828125 1119.43115234375 L 3589.641845703125 1008.283447265625 M 3591.06005859375 1005.848999023438 L 3621.875 1120.85205078125 C 3605.343994140625 1125.281005859375 3590.125 1127.828002929688 3573.052001953125 1129.02197265625 L 3564.7451171875 1010.223999023438 C 3573.781982421875 1009.60205078125 3582.580078125 1008.115966796875 3591.06005859375 1005.848999023438 Z" stroke="none" fill="#efefef"/>
        </g>
        <g id="Path_2723" data-name="Path 2723" transform="translate(-3834.775 -10676.178)" fill="#a7050e" stroke-miterlimit="10">
          <path d="M 3622.581787109375 1119.625732421875 L 3592.283935546875 1006.55322265625 C 3600.505126953125 1004.291748046875 3608.556884765625 1001.257141113281 3616.23095703125 997.52685546875 C 3624.08154296875 993.710693359375 3631.62158203125 989.1259155273438 3638.641845703125 983.8997802734375 C 3645.6123046875 978.710693359375 3652.137451171875 972.8394775390625 3658.03662109375 966.4490356445312 C 3663.72119140625 960.291015625 3668.87548828125 953.5951538085938 3673.3681640625 946.5336303710938 L 3772.656494140625 1008.576232910156 C 3768.310546875 1015.480407714844 3763.717529296875 1022.158020019531 3758.995361328125 1028.437377929688 C 3754.072265625 1034.9833984375 3748.864013671875 1041.289184570312 3743.514892578125 1047.1796875 C 3738.160400390625 1053.076171875 3732.507568359375 1058.72998046875 3726.712890625 1063.984008789062 C 3720.915283203125 1069.240600585938 3714.8056640625 1074.251708984375 3708.5537109375 1078.878051757812 C 3702.301513671875 1083.50439453125 3695.72314453125 1087.881958007812 3689.001220703125 1091.88916015625 C 3682.28271484375 1095.894409179688 3675.22314453125 1099.6474609375 3668.018798828125 1103.044067382812 C 3660.82177734375 1106.437255859375 3653.2685546875 1109.574340820312 3645.5693359375 1112.3681640625 C 3638.18359375 1115.048217773438 3630.454833984375 1117.48828125 3622.581787109375 1119.625732421875 Z" stroke="none"/>
          <path d="M 3673.676513671875 947.9053955078125 C 3669.279296875 954.710205078125 3664.271728515625 961.1688232421875 3658.771484375 967.1273193359375 C 3652.83056640625 973.5631103515625 3646.2587890625 979.47607421875 3639.239013671875 984.701904296875 C 3632.168701171875 989.96533203125 3624.57470703125 994.5828857421875 3616.66796875 998.42626953125 C 3609.23681640625 1002.038452148438 3601.4541015625 1005.003051757812 3593.506103515625 1007.25048828125 L 3623.28759765625 1118.396240234375 C 3630.79931640625 1116.329833984375 3638.17138671875 1113.989013671875 3645.22802734375 1111.42822265625 C 3652.898681640625 1108.644775390625 3660.423095703125 1105.51953125 3667.59228515625 1102.1396484375 C 3674.767578125 1098.756713867188 3681.798095703125 1095.01904296875 3688.4892578125 1091.0302734375 C 3695.182861328125 1087.039916992188 3701.7333984375 1082.680908203125 3707.958740234375 1078.07421875 C 3714.184326171875 1073.467529296875 3720.26806640625 1068.477661132812 3726.041015625 1063.2431640625 C 3731.811767578125 1058.010864257812 3737.44189453125 1052.380126953125 3742.774658203125 1046.507568359375 C 3748.10302734375 1040.6396484375 3753.29150390625 1034.357788085938 3758.196044921875 1027.836303710938 C 3762.7080078125 1021.836547851562 3767.10205078125 1015.47119140625 3771.2744140625 1008.891723632812 L 3673.676513671875 947.9053955078125 M 3673.053955078125 945.157958984375 L 3774.035888671875 1008.259033203125 C 3737.759033203125 1066.31396484375 3688 1103.134033203125 3621.875 1120.85205078125 L 3591.06005859375 1005.848999023438 C 3625.466064453125 996.653076171875 3654.614990234375 974.60498046875 3673.053955078125 945.157958984375 Z" stroke="none" fill="#efefef"/>
        </g>
        <g id="Path_2724" data-name="Path 2724" transform="translate(-3834.775 -10676.178)" fill="#908f93" stroke-miterlimit="10">
          <path d="M 3773.716552734375 1006.880187988281 L 3674.4296875 944.8385009765625 C 3681.0029296875 934.1734008789062 3686.10595703125 922.6951904296875 3689.603271484375 910.7061767578125 C 3693.31103515625 897.9961547851562 3695.19091796875 884.7763671875 3695.19091796875 871.4140014648438 C 3695.19091796875 861.9055786132812 3694.23291015625 852.40283203125 3692.343505859375 843.169677734375 C 3690.502197265625 834.1707153320312 3687.75439453125 825.3190307617188 3684.1767578125 816.8604736328125 C 3680.6640625 808.5556640625 3676.316650390625 800.5457763671875 3671.2548828125 793.05322265625 C 3666.2412109375 785.6321411132812 3660.483642578125 778.6536865234375 3654.1416015625 772.311767578125 C 3647.7998046875 765.9698486328125 3640.8212890625 760.2120971679688 3633.400390625 755.198486328125 C 3625.90771484375 750.1365966796875 3617.89794921875 745.7889404296875 3609.593017578125 742.2763061523438 C 3601.134521484375 738.6986694335938 3592.28271484375 735.950927734375 3583.28369140625 734.1094360351562 C 3574.3740234375 732.2861938476562 3565.2138671875 731.3302612304688 3556.0390625 731.2655639648438 L 3556.0390625 614.179931640625 C 3573.158935546875 614.2457885742188 3590.25927734375 616.0025634765625 3606.882080078125 619.4041748046875 C 3623.397705078125 622.78369140625 3639.64306640625 627.8264770507812 3655.166748046875 634.3924560546875 C 3670.40869140625 640.8392944335938 3685.10986328125 648.8187255859375 3698.861328125 658.1091918945312 C 3712.482666015625 667.3115844726562 3725.291748046875 677.8798828125 3736.932373046875 689.5206298828125 C 3748.572998046875 701.1613159179688 3759.141357421875 713.97021484375 3768.34375 727.5914916992188 C 3777.63427734375 741.3432006835938 3785.613525390625 756.0443115234375 3792.060546875 771.286376953125 C 3798.62646484375 786.81005859375 3803.669189453125 803.0552978515625 3807.048828125 819.5708618164062 C 3810.5166015625 836.5176391601562 3812.27490234375 853.960205078125 3812.27490234375 871.4140014648438 C 3812.27490234375 897.2310791015625 3809.207275390625 920.4791259765625 3802.896728515625 942.4866333007812 C 3796.66796875 964.2088012695312 3787.118896484375 985.2828979492188 3773.716552734375 1006.880187988281 Z" stroke="none"/>
          <path d="M 3557.0390625 615.1857299804688 L 3557.0390625 730.2760620117188 C 3565.946044921875 730.4009399414062 3574.832763671875 731.359375 3583.484130859375 733.1296997070312 C 3592.5478515625 734.9844360351562 3601.463134765625 737.751953125 3609.982666015625 741.3553466796875 C 3618.346923828125 744.8931274414062 3626.4140625 749.2718505859375 3633.9599609375 754.369873046875 C 3641.433837890625 759.4191284179688 3648.4619140625 765.2177124023438 3654.8486328125 771.6046752929688 C 3661.235595703125 777.9916381835938 3667.0341796875 785.0195922851562 3672.083251953125 792.493408203125 C 3677.181396484375 800.0394287109375 3681.56005859375 808.1066284179688 3685.09765625 816.4708862304688 C 3688.701171875 824.990234375 3691.468505859375 833.9055786132812 3693.3232421875 842.9691772460938 C 3695.22607421875 852.2681274414062 3696.19091796875 861.8383178710938 3696.19091796875 871.4140014648438 C 3696.19091796875 884.8711547851562 3694.297607421875 898.1851806640625 3690.563232421875 910.9862060546875 C 3687.133544921875 922.7442626953125 3682.170166015625 934.0142211914062 3675.799560546875 944.5152587890625 L 3773.394287109375 1005.499755859375 C 3786.470947265625 984.280029296875 3795.814697265625 963.5571899414062 3801.935546875 942.2109985351562 C 3808.219970703125 920.2943725585938 3811.27490234375 897.1365356445312 3811.27490234375 871.4140014648438 C 3811.27490234375 854.02734375 3809.5234375 836.6522216796875 3806.069091796875 819.7713012695312 C 3802.70263671875 803.3203735351562 3797.6796875 787.1387939453125 3791.139404296875 771.6759033203125 C 3784.7177734375 756.4932861328125 3776.769287109375 741.8494873046875 3767.51513671875 728.1513061523438 C 3758.348388671875 714.5827026367188 3747.82080078125 701.8234252929688 3736.22509765625 690.2277221679688 C 3724.62939453125 678.6319580078125 3711.8701171875 668.1045532226562 3698.301513671875 658.9378051757812 C 3684.603515625 649.6835327148438 3669.959716796875 641.735107421875 3654.777099609375 635.3134155273438 C 3639.314208984375 628.773193359375 3623.132568359375 623.7501220703125 3606.681640625 620.3838500976562 C 3590.44775390625 617.0618896484375 3573.757568359375 615.3147583007812 3557.0390625 615.1857299804688 M 3555.0390625 613.177978515625 C 3697.658935546875 613.177978515625 3813.27490234375 728.7940063476562 3813.27490234375 871.4140014648438 C 3813.27490234375 922.7579956054688 3801.242919921875 964.7169799804688 3774.035888671875 1008.258972167969 L 3673.053955078125 945.1580200195312 C 3686.443115234375 923.7769775390625 3694.19091796875 898.5020141601562 3694.19091796875 871.4140014648438 C 3694.19091796875 794.56298828125 3631.89111328125 732.2620239257812 3555.0390625 732.2620239257812 L 3555.0390625 613.177978515625 Z" stroke="none" fill="#efefef"/>
        </g>
      </g>
      <text id="Corporate_Taxes_12_" data-name="Corporate Taxes – 12%" transform="translate(1134 2346)" fill="#a71303" font-size="16" font-family="MuseoSans-900, Museo Sans" font-weight="900"><tspan x="0" y="15">Corporate Taxes – 12%</tspan></text>
      <text id="Tariffs_3_" data-name="Tariffs – 3%" transform="translate(1006 2388)" fill="#908f93" font-size="16" font-family="MuseoSans-900, Museo Sans" font-weight="900"><tspan x="0" y="15">Tariffs – 3%</tspan></text>
      <text id="Interest_from_Federal_Reserve_Bonds_1_" data-name="Interest from Federal Reserve Bonds – 1%" transform="translate(758 2401)" fill="#908f93" font-size="16" font-family="MuseoSans-900, Museo Sans" font-weight="900"><tspan x="18.408" y="15">Interest from Federal </tspan><tspan x="27.736" y="34">Reserve Bonds – 1%</tspan></text>
      <text id="Other_2_" data-name="Other – 2%" transform="translate(970 2410)" fill="#908f93" font-size="16" font-family="MuseoSans-900, Museo Sans" font-weight="900"><tspan x="0" y="15">Other – 2%</tspan></text>
    </g>
  </g>
</svg>
