<svg xmlns="http://www.w3.org/2000/svg" width="806.072" height="619.002" viewBox="0 0 806.072 619.002">
  <g id="Group_791" data-name="Group 791" transform="translate(294.92 -2731.19)">
    <path id="Path_3166" data-name="Path 3166" d="M1.08,17.23c0,7.02,5.04,11.13,10.53,11.13a8.888,8.888,0,0,0,5.64-1.86h.06s-.03.45-.03.9V28h4.38V15.88H13.98v4.47h3.03V22a7.342,7.342,0,0,1-4.35,1.56c-3.33,0-6.15-2.43-6.15-6.51,0-3.18,1.83-6.06,6.33-6.06a8.536,8.536,0,0,1,5.22,1.98l2.52-3.93s-2.76-2.85-8.25-2.85A10.859,10.859,0,0,0,1.08,17.23Zm22.8,3.09c0,4.83,3.9,8.04,8.76,8.04s8.76-3.21,8.76-8.04c0-4.86-3.9-8.13-8.79-8.13C27.78,12.19,23.88,15.46,23.88,20.32Zm5.25,0a3.522,3.522,0,1,1,7.02,0,3.516,3.516,0,1,1-7.02,0ZM47.46,28h6.33l5.25-15.45H53.55l-2.37,8.22c-.3,1.02-.57,2.67-.57,2.67h-.06a26.38,26.38,0,0,0-.57-2.67l-2.4-8.22H42.12Zm12.39-7.74c0,4.11,2.97,8.1,8.49,8.1a10.433,10.433,0,0,0,6.6-2.25l-1.92-3.63a8.1,8.1,0,0,1-4.26,1.56,3.45,3.45,0,0,1-3.6-2.76h9.75s.12-1.11.12-1.62c0-4.29-2.58-7.47-7.14-7.47A7.691,7.691,0,0,0,59.85,20.26Zm5.43-1.95a2.533,2.533,0,0,1,2.49-2.22,2.1,2.1,0,0,1,2.04,2.22ZM77.85,28h5.19V22.15a7,7,0,0,1,.27-2.1,3.9,3.9,0,0,1,3.99-2.7,5.523,5.523,0,0,1,1.05.09v-5.1a3.508,3.508,0,0,0-.6-.06,5.362,5.362,0,0,0-4.92,3.84h-.06a8.176,8.176,0,0,0,.06-.96V12.55H77.85Zm12.9,0h5.19V21.16a6.2,6.2,0,0,1,.3-2.04A3.04,3.04,0,0,1,99.3,16.9c1.14,0,1.71.6,1.71,2.04V28h5.19V17.98c0-4.35-2.43-5.79-5.55-5.79a5.451,5.451,0,0,0-4.92,2.67h-.06a8.175,8.175,0,0,0,.06-.96V12.55H90.75Zm19.08,0h5.19V21.61a9.776,9.776,0,0,1,.15-1.92c.36-1.65,1.2-2.79,2.82-2.79.99,0,1.2.81,1.2,1.95V28h5.19V21.61a8.643,8.643,0,0,1,.12-1.8c.33-1.71,1.2-2.91,2.85-2.91.99,0,1.2.81,1.2,1.95V28h5.19V17.98c0-4.26-2.19-5.79-5.01-5.79a5.969,5.969,0,0,0-4.95,2.61h-.06a4.474,4.474,0,0,0-4.32-2.61,5.5,5.5,0,0,0-4.59,2.67h-.06a8.175,8.175,0,0,0,.06-.96V12.55h-4.98Zm26.43-7.74c0,4.11,2.97,8.1,8.49,8.1a10.433,10.433,0,0,0,6.6-2.25l-1.92-3.63a8.1,8.1,0,0,1-4.26,1.56,3.45,3.45,0,0,1-3.6-2.76h9.75s.12-1.11.12-1.62c0-4.29-2.58-7.47-7.14-7.47A7.691,7.691,0,0,0,136.26,20.26Zm5.43-1.95a2.533,2.533,0,0,1,2.49-2.22,2.1,2.1,0,0,1,2.04,2.22ZM154.26,28h5.19V21.16a6.2,6.2,0,0,1,.3-2.04,3.04,3.04,0,0,1,3.06-2.22c1.14,0,1.71.6,1.71,2.04V28h5.19V17.98c0-4.35-2.43-5.79-5.55-5.79a5.451,5.451,0,0,0-4.92,2.67h-.06a8.176,8.176,0,0,0,.06-.96V12.55h-4.98Zm19.86-5.7c0,5.19,4.77,5.85,7.23,5.85a9.988,9.988,0,0,0,1.41-.09v-4.5s-.27.03-.69.03c-.99,0-2.76-.24-2.76-1.98V16.87h3.24V12.82h-3.24V8.38h-5.04v4.44h-2.13v4.05h1.98ZM193.26,28h5.25V6.55h-5.25Zm9.69,0h5.19V21.16a6.2,6.2,0,0,1,.3-2.04,3.04,3.04,0,0,1,3.06-2.22c1.14,0,1.71.6,1.71,2.04V28h5.19V17.98c0-4.35-2.43-5.79-5.55-5.79a5.451,5.451,0,0,0-4.92,2.67h-.06a8.176,8.176,0,0,0,.06-.96V12.55h-4.98Zm17.94-7.74c0,4.26,3.09,8.1,8.61,8.1a9.3,9.3,0,0,0,6.63-2.55l-1.89-3.63a7.543,7.543,0,0,1-4.23,1.86,3.733,3.733,0,0,1-3.87-3.84,3.553,3.553,0,0,1,3.69-3.69,5.629,5.629,0,0,1,3.63,1.5l2.19-3.48a8.143,8.143,0,0,0-6.15-2.34C223.95,12.19,220.89,16.12,220.89,20.26Zm16.53.06c0,4.83,3.9,8.04,8.76,8.04s8.76-3.21,8.76-8.04c0-4.86-3.9-8.13-8.79-8.13C241.32,12.19,237.42,15.46,237.42,20.32Zm5.25,0a3.522,3.522,0,1,1,7.02,0,3.516,3.516,0,1,1-7.02,0ZM257.64,28h5.19V21.61a9.776,9.776,0,0,1,.15-1.92c.36-1.65,1.2-2.79,2.82-2.79.99,0,1.2.81,1.2,1.95V28h5.19V21.61a8.643,8.643,0,0,1,.12-1.8c.33-1.71,1.2-2.91,2.85-2.91.99,0,1.2.81,1.2,1.95V28h5.19V17.98c0-4.26-2.19-5.79-5.01-5.79a5.969,5.969,0,0,0-4.95,2.61h-.06a4.474,4.474,0,0,0-4.32-2.61,5.5,5.5,0,0,0-4.59,2.67h-.06a8.176,8.176,0,0,0,.06-.96V12.55h-4.98Zm26.43-7.74c0,4.11,2.97,8.1,8.49,8.1a10.433,10.433,0,0,0,6.6-2.25l-1.92-3.63a8.1,8.1,0,0,1-4.26,1.56,3.45,3.45,0,0,1-3.6-2.76h9.75s.12-1.11.12-1.62c0-4.29-2.58-7.47-7.14-7.47A7.691,7.691,0,0,0,284.07,20.26Zm5.43-1.95a2.533,2.533,0,0,1,2.49-2.22,2.1,2.1,0,0,1,2.04,2.22ZM308.7,28h14.85V23.5h-9.12c.15-2.76,8.79-4.05,8.79-10.74,0-4.56-3.81-6.57-7.32-6.57a8.272,8.272,0,0,0-7.56,4.62l3.9,2.61s1.14-2.28,3.18-2.28a2.119,2.119,0,0,1,2.31,2.13c0,3.09-9.27,4.5-9.27,12.42A13.144,13.144,0,0,0,308.7,28Zm25.95.36c6.09,0,8.07-4.98,8.07-11.13s-1.98-11.04-8.07-11.04-8.07,4.89-8.07,11.04S328.56,28.36,334.65,28.36Zm0-4.8c-2.07,0-2.67-2.82-2.67-6.33,0-3.48.6-6.24,2.67-6.24s2.67,2.76,2.67,6.24C337.32,20.74,336.72,23.56,334.65,23.56Zm19.2,4.8c6.09,0,8.07-4.98,8.07-11.13s-1.98-11.04-8.07-11.04-8.07,4.89-8.07,11.04S347.76,28.36,353.85,28.36Zm0-4.8c-2.07,0-2.67-2.82-2.67-6.33,0-3.48.6-6.24,2.67-6.24s2.67,2.76,2.67,6.24C356.52,20.74,355.92,23.56,353.85,23.56Zm19.2,4.8c6.09,0,8.07-4.98,8.07-11.13s-1.98-11.04-8.07-11.04-8.07,4.89-8.07,11.04S366.96,28.36,373.05,28.36Zm0-4.8c-2.07,0-2.67-2.82-2.67-6.33,0-3.48.6-6.24,2.67-6.24s2.67,2.76,2.67,6.24C375.72,20.74,375.12,23.56,373.05,23.56Z" transform="translate(-296 2725)" fill="#2562a0"/>
    <path id="Path_3167" data-name="Path 3167" d="M5.848,15h2.8V3.56h-2.8Zm5.168,0h2.768V11.352a3.309,3.309,0,0,1,.16-1.088A1.622,1.622,0,0,1,15.576,9.08c.608,0,.912.32.912,1.088V15h2.768V9.656c0-2.32-1.3-3.088-2.96-3.088a2.907,2.907,0,0,0-2.624,1.424H13.64a4.36,4.36,0,0,0,.032-.512V6.76H11.016Zm9.568-4.128a4.285,4.285,0,0,0,4.592,4.32,4.957,4.957,0,0,0,3.536-1.36L27.7,11.9a4.023,4.023,0,0,1-2.256.992,1.991,1.991,0,0,1-2.064-2.048,1.9,1.9,0,0,1,1.968-1.968,3,3,0,0,1,1.936.8l1.168-1.856a4.343,4.343,0,0,0-3.28-1.248A4.3,4.3,0,0,0,20.584,10.872ZM29.4,10.9a4.356,4.356,0,0,0,4.672,4.288,4.326,4.326,0,1,0-.016-8.624A4.379,4.379,0,0,0,29.4,10.9Zm2.8,0a1.878,1.878,0,1,1,3.744,0,1.875,1.875,0,1,1-3.744,0ZM40.184,15h2.768V11.592a5.214,5.214,0,0,1,.08-1.024c.192-.88.64-1.488,1.5-1.488.528,0,.64.432.64,1.04V15h2.768V11.592a4.609,4.609,0,0,1,.064-.96c.176-.912.64-1.552,1.52-1.552.528,0,.64.432.64,1.04V15h2.768V9.656c0-2.272-1.168-3.088-2.672-3.088a3.183,3.183,0,0,0-2.64,1.392h-.032a2.386,2.386,0,0,0-2.3-1.392A2.932,2.932,0,0,0,42.84,7.992h-.032a4.36,4.36,0,0,0,.032-.512V6.76H40.184Zm14.1-4.128a4.273,4.273,0,0,0,4.528,4.32,5.564,5.564,0,0,0,3.52-1.2L61.3,12.056a4.32,4.32,0,0,1-2.272.832,1.84,1.84,0,0,1-1.92-1.472h5.2s.064-.592.064-.864a3.658,3.658,0,0,0-3.808-3.984A4.1,4.1,0,0,0,54.28,10.872Zm2.9-1.04A1.351,1.351,0,0,1,58.5,8.648a1.122,1.122,0,0,1,1.088,1.184ZM70.056,15h2.8V5.96h3.472V3.56H66.584v2.4h3.472Zm6.112-2.464a2.636,2.636,0,0,0,2.8,2.656,2.564,2.564,0,0,0,2.336-1.2h.032a4.361,4.361,0,0,0-.032.512V15h2.528V9.928c0-2.1-1.392-3.36-3.712-3.36A6.232,6.232,0,0,0,76.664,7.64l.96,1.952a4.918,4.918,0,0,1,2.224-.784c.688,0,1.216.224,1.216.912v.144h-.112C79.672,9.864,76.168,10.136,76.168,12.536Zm2.784-.144c0-.688,1.008-.944,1.888-.944H81.1v.176a1.528,1.528,0,0,1-1.36,1.456C79.192,13.08,78.952,12.776,78.952,12.392ZM84.968,15h3.04l.976-1.856c.08-.144.192-.416.192-.416h.032s.112.272.192.416L90.392,15h3.04L90.84,10.92l2.64-4.16H90.36l-.9,1.84c-.1.208-.256.544-.256.544h-.032s-.144-.336-.256-.544l-.9-1.84H84.9l2.656,4.16Zm9.008-4.128a4.273,4.273,0,0,0,4.528,4.32,5.564,5.564,0,0,0,3.52-1.2L101,12.056a4.32,4.32,0,0,1-2.272.832,1.84,1.84,0,0,1-1.92-1.472h5.2s.064-.592.064-.864a3.658,3.658,0,0,0-3.808-3.984A4.1,4.1,0,0,0,93.976,10.872Zm2.9-1.04A1.351,1.351,0,0,1,98.2,8.648a1.122,1.122,0,0,1,1.088,1.184Zm6.064,4.144a4.962,4.962,0,0,0,3.3,1.216c2.128,0,3.376-1.2,3.376-2.608,0-2.656-3.856-2.752-3.856-3.376,0-.288.4-.4.816-.4a3.291,3.291,0,0,1,1.952.672l.944-1.968a4.314,4.314,0,0,0-2.9-.944c-1.9,0-3.392.96-3.392,2.512,0,2.688,3.856,2.768,3.856,3.488,0,.272-.4.384-.816.384a3.467,3.467,0,0,1-2.1-.832Zm11.888-2.528h9.536V9.368h-9.536Zm14.688.784h5.072V15h2.768V12.232h1.36V9.912h-1.36V3.56h-3.424l-4.416,6.976Zm2.848-2.32V9.88l1.728-2.624a6.1,6.1,0,0,0,.56-1.184h.032a10.225,10.225,0,0,0-.1,1.28v2.56ZM140.1,11.64c0,1.824,1.456,3.552,4.24,3.552,2.832,0,4.24-1.744,4.24-3.488a2.792,2.792,0,0,0-1.344-2.416,4.837,4.837,0,0,0,1.12-2.608c0-2.128-1.744-3.312-3.872-3.312-2.672,0-3.84,1.632-3.84,3.3a2.781,2.781,0,0,0,1.04,2.192A3.828,3.828,0,0,0,140.1,11.64Zm5.616-.08c0,.752-.528,1.168-1.376,1.168a1.346,1.346,0,0,1-1.376-1.328,2.058,2.058,0,0,1,.608-1.392C144.7,10.52,145.72,10.9,145.72,11.56Zm-2.336-4.832c0-.5.32-.9,1.04-.9a1.052,1.052,0,0,1,1.2,1.056,2.884,2.884,0,0,1-.4,1.408C144.216,7.864,143.384,7.48,143.384,6.728Zm9.344,2.16a2.816,2.816,0,0,0,2.9-2.752,2.9,2.9,0,0,0-5.792,0A2.806,2.806,0,0,0,152.728,8.888ZM150.472,15H152.9l8.832-11.44H159.3Zm2.256-8.032a.841.841,0,1,1,.88-.848A.861.861,0,0,1,152.728,6.968Zm3.936,5.472a2.9,2.9,0,0,0,5.792,0,2.9,2.9,0,0,0-5.792,0Zm2.016-.016a.881.881,0,1,1,.88.848A.869.869,0,0,1,158.68,12.424Z" transform="translate(-296 3034)" fill="#908f93"/>
    <path id="Path_3172" data-name="Path 3172" d="M.5,13.56a5.906,5.906,0,0,0,4.176,1.632c2.576,0,4.032-1.648,4.032-3.552,0-3.616-5.152-3.36-5.152-4.8,0-.64.64-.9,1.216-.9A4.365,4.365,0,0,1,7.3,6.952L8.48,4.664a5.189,5.189,0,0,0-3.68-1.3C2.528,3.368.752,4.76.752,6.872c0,3.52,5.152,3.472,5.152,4.832,0,.688-.624.912-1.2.912a4.741,4.741,0,0,1-2.736-1.184ZM9.7,10.9a4.356,4.356,0,0,0,4.672,4.288,4.326,4.326,0,1,0-.016-8.624A4.379,4.379,0,0,0,9.7,10.9Zm2.8,0a1.878,1.878,0,1,1,3.744,0,1.875,1.875,0,1,1-3.744,0Zm7.376-.032a4.285,4.285,0,0,0,4.592,4.32A4.957,4.957,0,0,0,28,13.832L26.992,11.9a4.023,4.023,0,0,1-2.256.992,1.991,1.991,0,0,1-2.064-2.048A1.9,1.9,0,0,1,24.64,8.872a3,3,0,0,1,1.936.8l1.168-1.856a4.343,4.343,0,0,0-3.28-1.248A4.3,4.3,0,0,0,19.872,10.872ZM29.328,5.72h2.7V3.56h-2.7ZM29.3,15h2.768V6.76H29.3Zm4.192-2.464a2.636,2.636,0,0,0,2.8,2.656,2.564,2.564,0,0,0,2.336-1.2h.032a4.36,4.36,0,0,0-.032.512V15h2.528V9.928c0-2.1-1.392-3.36-3.712-3.36A6.232,6.232,0,0,0,33.984,7.64l.96,1.952a4.918,4.918,0,0,1,2.224-.784c.688,0,1.216.224,1.216.912v.144h-.112C36.992,9.864,33.488,10.136,33.488,12.536Zm2.784-.144c0-.688,1.008-.944,1.888-.944h.256v.176a1.528,1.528,0,0,1-1.36,1.456C36.512,13.08,36.272,12.776,36.272,12.392Zm6.688-.432c0,2.768,1.568,3.12,3.04,3.12a7.525,7.525,0,0,0,.832-.048v-2.4s-.16.016-.336.016c-.624,0-.768-.272-.768-1.056V3.56H42.96Zm8.416,1.6a5.906,5.906,0,0,0,4.176,1.632c2.576,0,4.032-1.648,4.032-3.552,0-3.616-5.152-3.36-5.152-4.8,0-.64.64-.9,1.216-.9a4.365,4.365,0,0,1,2.528,1.008L59.36,4.664a5.189,5.189,0,0,0-3.68-1.3c-2.272,0-4.048,1.392-4.048,3.5,0,3.52,5.152,3.472,5.152,4.832,0,.688-.624.912-1.2.912a4.741,4.741,0,0,1-2.736-1.184Zm9.216-2.688a4.273,4.273,0,0,0,4.528,4.32,5.564,5.564,0,0,0,3.52-1.2l-1.024-1.936a4.32,4.32,0,0,1-2.272.832,1.84,1.84,0,0,1-1.92-1.472h5.2s.064-.592.064-.864A3.658,3.658,0,0,0,64.88,6.568,4.1,4.1,0,0,0,60.592,10.872Zm2.9-1.04a1.351,1.351,0,0,1,1.328-1.184A1.122,1.122,0,0,1,65.9,9.832Zm6.1,1.04a4.285,4.285,0,0,0,4.592,4.32,4.957,4.957,0,0,0,3.536-1.36L76.7,11.9a4.023,4.023,0,0,1-2.256.992,1.991,1.991,0,0,1-2.064-2.048,1.9,1.9,0,0,1,1.968-1.968,3,3,0,0,1,1.936.8l1.168-1.856a4.343,4.343,0,0,0-3.28-1.248A4.3,4.3,0,0,0,69.584,10.872ZM78.9,12.1c0,2.32,1.3,3.088,2.928,3.088A2.856,2.856,0,0,0,84.4,13.768h.032a4.361,4.361,0,0,0-.032.512V15h2.656V6.76H84.288v3.648c0,1.232-.56,2.272-1.744,2.272-.576,0-.88-.32-.88-1.088V6.76H78.9ZM89.1,15h2.768V11.88a3.736,3.736,0,0,1,.144-1.12,2.08,2.08,0,0,1,2.128-1.44,2.945,2.945,0,0,1,.56.048V6.648a1.871,1.871,0,0,0-.32-.032A2.86,2.86,0,0,0,91.76,8.664h-.032a4.36,4.36,0,0,0,.032-.512V6.76H89.1Zm6.912-9.28h2.7V3.56h-2.7ZM95.984,15h2.768V6.76H95.984Zm5.232-3.04c0,2.768,2.544,3.12,3.856,3.12a5.327,5.327,0,0,0,.752-.048v-2.4s-.144.016-.368.016c-.528,0-1.472-.128-1.472-1.056V9.064h1.728V6.9h-1.728V4.536H101.3V6.9H100.16v2.16h1.056Zm5.216,5.824a3.712,3.712,0,0,0,1.92.576,3.549,3.549,0,0,0,3.44-2.48l3.376-9.12h-3.024L111.1,10.6c-.112.448-.272,1.232-.272,1.232H110.8s-.16-.832-.3-1.28L109.28,6.76h-3.136l3.5,8.08-.16.384a1.316,1.316,0,0,1-1.328.832,1.838,1.838,0,0,1-.848-.3Zm13.008-6.1c0,1.952,1.648,3.5,4.256,3.5,2.8,0,4.368-1.664,4.368-3.712v-1.1h1.424v-2.4h-1.424V6.568h-2.752V7.976H123.92a1.084,1.084,0,0,1-1.168-1.1,1.174,1.174,0,0,1,1.328-1.184,3.224,3.224,0,0,1,.624.064l.64-2.192a8.224,8.224,0,0,0-1.648-.192c-1.9,0-3.776.864-3.776,3.088a2.633,2.633,0,0,0,1.344,2.464v.032A2.99,2.99,0,0,0,119.44,11.688Zm2.864-.176c0-.864.7-1.136,1.44-1.136h1.568v.944c0,.752-.56,1.328-1.616,1.328A1.276,1.276,0,0,1,122.3,11.512ZM.992,34H3.808l.352-5.152a17.028,17.028,0,0,0,0-1.92h.032s.384,1.2.64,1.92l1.2,3.312h2.4l1.2-3.312c.256-.72.64-1.92.64-1.92H10.3a17.028,17.028,0,0,0,0,1.92L10.656,34h2.8l-.928-11.44H9.488L7.824,27.392c-.256.736-.576,1.888-.576,1.888H7.216s-.32-1.152-.576-1.888L4.976,22.56H1.936ZM14.88,29.872a4.273,4.273,0,0,0,4.528,4.32,5.564,5.564,0,0,0,3.52-1.2L21.9,31.056a4.32,4.32,0,0,1-2.272.832,1.84,1.84,0,0,1-1.92-1.472h5.2s.064-.592.064-.864a3.658,3.658,0,0,0-3.808-3.984A4.1,4.1,0,0,0,14.88,29.872Zm2.9-1.04A1.351,1.351,0,0,1,19.1,27.648a1.122,1.122,0,0,1,1.088,1.184Zm6.144,1.04c0,2.56,1.472,4.32,3.712,4.32a2.752,2.752,0,0,0,2.384-1.2h.032s-.016.208-.016.464V34h2.592V22.56H29.856v3.3c0,.208.016.368.016.368H29.84s-.5-.656-2.16-.656C25.488,25.568,23.92,27.264,23.92,29.872Zm2.784,0c0-1.264.752-1.968,1.616-1.968,1.088,0,1.616.976,1.616,1.968,0,1.424-.784,2.032-1.616,2.032C27.36,31.9,26.7,31.1,26.7,29.872Zm8-5.152h2.7V22.56H34.7ZM34.672,34H37.44V25.76H34.672Zm4.208-4.128a4.285,4.285,0,0,0,4.592,4.32,4.957,4.957,0,0,0,3.536-1.36L46,30.9a4.023,4.023,0,0,1-2.256.992A1.991,1.991,0,0,1,41.68,29.84a1.9,1.9,0,0,1,1.968-1.968,3,3,0,0,1,1.936.8l1.168-1.856a4.343,4.343,0,0,0-3.28-1.248A4.3,4.3,0,0,0,38.88,29.872Zm8.8,1.664a2.636,2.636,0,0,0,2.8,2.656,2.564,2.564,0,0,0,2.336-1.2h.032a4.36,4.36,0,0,0-.032.512V34h2.528V28.928c0-2.1-1.392-3.36-3.712-3.36a6.232,6.232,0,0,0-3.456,1.072l.96,1.952a4.918,4.918,0,0,1,2.224-.784c.688,0,1.216.224,1.216.912v.144h-.112C51.184,28.864,47.68,29.136,47.68,31.536Zm2.784-.144c0-.688,1.008-.944,1.888-.944h.256v.176a1.528,1.528,0,0,1-1.36,1.456C50.7,32.08,50.464,31.776,50.464,31.392ZM57.264,34h2.768V30.88a3.736,3.736,0,0,1,.144-1.12A2.08,2.08,0,0,1,62.3,28.32a2.945,2.945,0,0,1,.56.048v-2.72a1.871,1.871,0,0,0-.32-.032,2.86,2.86,0,0,0-2.624,2.048h-.032a4.36,4.36,0,0,0,.032-.512V25.76H57.264Zm6.288-4.128a4.273,4.273,0,0,0,4.528,4.32,5.564,5.564,0,0,0,3.52-1.2l-1.024-1.936a4.32,4.32,0,0,1-2.272.832,1.84,1.84,0,0,1-1.92-1.472h5.2s.064-.592.064-.864a3.658,3.658,0,0,0-3.808-3.984A4.1,4.1,0,0,0,63.552,29.872Zm2.9-1.04a1.351,1.351,0,0,1,1.328-1.184,1.122,1.122,0,0,1,1.088,1.184ZM79.328,34h2.8V24.96H85.6v-2.4H75.856v2.4h3.472Zm6.112-2.464a2.636,2.636,0,0,0,2.8,2.656,2.564,2.564,0,0,0,2.336-1.2h.032a4.36,4.36,0,0,0-.032.512V34H93.1V28.928c0-2.1-1.392-3.36-3.712-3.36a6.232,6.232,0,0,0-3.456,1.072l.96,1.952a4.918,4.918,0,0,1,2.224-.784c.688,0,1.216.224,1.216.912v.144h-.112C88.944,28.864,85.44,29.136,85.44,31.536Zm2.784-.144c0-.688,1.008-.944,1.888-.944h.256v.176a1.528,1.528,0,0,1-1.36,1.456C88.464,32.08,88.224,31.776,88.224,31.392ZM94.24,34h3.04l.976-1.856c.08-.144.192-.416.192-.416h.032s.112.272.192.416L99.664,34h3.04l-2.592-4.08,2.64-4.16h-3.12l-.9,1.84c-.1.208-.256.544-.256.544h-.032s-.144-.336-.256-.544l-.9-1.84h-3.12l2.656,4.16Zm9.008-4.128a4.273,4.273,0,0,0,4.528,4.32,5.564,5.564,0,0,0,3.52-1.2l-1.024-1.936a4.32,4.32,0,0,1-2.272.832,1.84,1.84,0,0,1-1.92-1.472h5.2s.064-.592.064-.864a3.658,3.658,0,0,0-3.808-3.984A4.1,4.1,0,0,0,103.248,29.872Zm2.9-1.04a1.351,1.351,0,0,1,1.328-1.184,1.122,1.122,0,0,1,1.088,1.184Zm6.064,4.144a4.962,4.962,0,0,0,3.3,1.216c2.128,0,3.376-1.2,3.376-2.608,0-2.656-3.856-2.752-3.856-3.376,0-.288.4-.4.816-.4a3.291,3.291,0,0,1,1.952.672l.944-1.968a4.314,4.314,0,0,0-2.9-.944c-1.9,0-3.392.96-3.392,2.512,0,2.688,3.856,2.768,3.856,3.488,0,.272-.4.384-.816.384a3.467,3.467,0,0,1-2.1-.832ZM124.1,30.448h9.536v-2.08H124.1Zm14.752,2.24a5.424,5.424,0,0,0,3.9,1.5,3.89,3.89,0,0,0,4.24-3.9,3.36,3.36,0,0,0-2.768-3.312l2.32-2.672V22.56h-7.216v2.4h2.736a5.7,5.7,0,0,0,1.088-.08v.032a12.445,12.445,0,0,0-.992,1.072l-1.5,1.808.592,1.36h.8c1.232,0,2.128.368,2.128,1.264,0,.624-.592,1.136-1.632,1.136a3.741,3.741,0,0,1-2.352-1.024Zm9.328-1.456h5.072V34h2.768V31.232h1.36v-2.32h-1.36V22.56h-3.424l-4.416,6.976Zm2.848-2.32V28.88l1.728-2.624a6.1,6.1,0,0,0,.56-1.184h.032a10.225,10.225,0,0,0-.1,1.28v2.56Zm10.4-1.024a2.816,2.816,0,0,0,2.9-2.752,2.9,2.9,0,0,0-5.792,0A2.806,2.806,0,0,0,161.424,27.888ZM159.168,34H161.6l8.832-11.44H168Zm2.256-8.032a.841.841,0,1,1,.88-.848A.861.861,0,0,1,161.424,25.968Zm3.936,5.472a2.9,2.9,0,0,0,5.792,0,2.9,2.9,0,0,0-5.792,0Zm2.016-.016a.881.881,0,1,1,.88.848A.869.869,0,0,1,167.376,31.424Z" transform="translate(340 2821)" fill="#908f93"/>
    <g id="Group_514" data-name="Group 514" transform="translate(426 12849)">
      <g id="Path_2719" data-name="Path 2719" transform="translate(-3834.775 -10676.178)" fill="#aeb5b7" stroke-miterlimit="10">
        <path d="M 3522.69775390625 1126.609619140625 C 3505.71337890625 1124.457885742188 3488.954345703125 1120.630126953125 3472.869873046875 1115.228149414062 C 3456.88916015625 1109.860961914062 3441.37939453125 1102.8759765625 3426.771484375 1094.467041015625 C 3412.4287109375 1086.210693359375 3398.8095703125 1076.4990234375 3386.29248046875 1065.601928710938 C 3373.894287109375 1054.807983398438 3362.46875 1042.757446289062 3352.33349609375 1029.784790039062 C 3342.197998046875 1016.812255859375 3333.26953125 1002.810791015625 3325.7958984375 988.1694946289062 C 3318.25048828125 973.3880615234375 3312.1220703125 957.8240356445312 3307.580810546875 941.9098510742188 C 3302.955810546875 925.70166015625 3299.93017578125 908.962890625 3298.588623046875 892.1585083007812 C 3297.2119140625 874.9154052734375 3297.592529296875 857.3885498046875 3299.719482421875 840.0648193359375 C 3301.6806640625 824.0943603515625 3305.10693359375 808.2963256835938 3309.903564453125 793.1094970703125 C 3314.59716796875 778.2481689453125 3320.670166015625 763.7568969726562 3327.95361328125 750.0382080078125 C 3335.126953125 736.5269775390625 3343.56787109375 723.5883178710938 3353.04150390625 711.5817260742188 C 3362.440673828125 699.6692504882812 3372.970458984375 688.5297241210938 3384.338134765625 678.472412109375 C 3395.705810546875 668.4152221679688 3408.04541015625 659.3215942382812 3421.0146484375 651.4440307617188 C 3434.08642578125 643.5042114257812 3447.957275390625 636.7032470703125 3462.2421875 631.22998046875 C 3476.74609375 625.672607421875 3491.86962890625 621.4109497070312 3507.192138671875 618.5633544921875 C 3522.526611328125 615.713623046875 3538.28125 614.2396240234375 3554.0390625 614.1798706054688 L 3554.0390625 731.2655639648438 C 3544.8642578125 731.330322265625 3535.7041015625 732.2862548828125 3526.79443359375 734.1094360351562 C 3517.79541015625 735.950927734375 3508.943603515625 738.6986083984375 3500.48486328125 742.2763671875 C 3492.179931640625 745.7889404296875 3484.170166015625 750.1366577148438 3476.677490234375 755.198486328125 C 3469.25634765625 760.2120971679688 3462.27783203125 765.9698486328125 3455.93603515625 772.311767578125 C 3449.593994140625 778.6536865234375 3443.836181640625 785.6321411132812 3438.822509765625 793.05322265625 C 3433.7607421875 800.5457763671875 3429.4130859375 808.5556030273438 3425.900390625 816.8604125976562 C 3422.32275390625 825.3189697265625 3419.574951171875 834.1707153320312 3417.7333984375 843.169677734375 C 3415.843994140625 852.40283203125 3414.885986328125 861.9056396484375 3414.885986328125 871.4140625 C 3414.885986328125 888.9244995117188 3418.074951171875 906.0049438476562 3424.364501953125 922.180908203125 C 3427.39404296875 929.97265625 3431.15478515625 937.5436401367188 3435.54248046875 944.6836547851562 C 3439.883056640625 951.746826171875 3444.8876953125 958.470947265625 3450.417236328125 964.6693115234375 C 3455.931884765625 970.8509521484375 3462.02978515625 976.5784301757812 3468.5419921875 981.692626953125 C 3475.0908203125 986.8355712890625 3482.132568359375 991.4164428710938 3489.471435546875 995.3079833984375 C 3496.91015625 999.2523803710938 3504.745361328125 1002.536437988281 3512.759521484375 1005.068969726562 C 3520.6220703125 1007.553649902344 3528.760009765625 1009.34716796875 3536.965087890625 1010.404357910156 L 3522.69775390625 1126.609619140625 Z" stroke="none"/>
        <path d="M 3521.82763671875 1125.489501953125 L 3535.851806640625 1011.265686035156 C 3527.92236328125 1010.186645507812 3520.06201171875 1008.425415039062 3512.458251953125 1006.022521972656 C 3504.386474609375 1003.471740722656 3496.4951171875 1000.164123535156 3489.0029296875 996.1914672851562 C 3481.611572265625 992.2721557617188 3474.519775390625 987.65869140625 3467.92431640625 982.4791259765625 C 3461.365966796875 977.32861328125 3455.224609375 971.5604858398438 3449.6708984375 965.3350219726562 C 3444.10205078125 959.0926513671875 3439.06201171875 952.3206787109375 3434.690673828125 945.2071533203125 C 3430.271484375 938.01611328125 3426.483642578125 930.390869140625 3423.432373046875 922.5432739257812 C 3417.097900390625 906.2513427734375 3413.885986328125 889.0489501953125 3413.885986328125 871.4140625 C 3413.885986328125 861.83837890625 3414.850830078125 852.2681884765625 3416.753662109375 842.96923828125 C 3418.6083984375 833.905517578125 3421.3759765625 824.990234375 3424.979248046875 816.4708862304688 C 3428.51708984375 808.1066284179688 3432.89599609375 800.0394897460938 3437.993896484375 792.493408203125 C 3443.043212890625 785.0195922851562 3448.841796875 777.9916381835938 3455.228759765625 771.6046752929688 C 3461.61572265625 765.2177734375 3468.643798828125 759.4191284179688 3476.11767578125 754.369873046875 C 3483.663818359375 749.2719116210938 3491.73095703125 744.8931884765625 3500.095458984375 741.3553466796875 C 3508.61474609375 737.751953125 3517.5302734375 734.9844360351562 3526.593994140625 733.1297607421875 C 3535.245361328125 731.3594360351562 3544.132080078125 730.4009399414062 3553.0390625 730.2760620117188 L 3553.0390625 615.1856079101562 C 3537.676025390625 615.3026123046875 3522.324951171875 616.7682495117188 3507.375 619.5465087890625 C 3492.112060546875 622.3831176757812 3477.04736328125 626.6281127929688 3462.599853515625 632.1637573242188 C 3448.37109375 637.6156005859375 3434.554443359375 644.3899536132812 3421.53369140625 652.2987060546875 C 3408.615478515625 660.1453857421875 3396.323974609375 669.2035522460938 3385.000732421875 679.2213745117188 C 3373.677490234375 689.2393188476562 3363.18896484375 700.3352661132812 3353.826416015625 712.2011108398438 C 3344.389892578125 724.1607666015625 3335.982177734375 737.0487670898438 3328.8369140625 750.5072021484375 C 3321.581787109375 764.1723022460938 3315.532470703125 778.6071166992188 3310.85693359375 793.4107055664062 C 3306.078857421875 808.5391845703125 3302.665771484375 824.2769165039062 3300.712158203125 840.1867065429688 C 3298.59326171875 857.4437255859375 3298.214111328125 874.90283203125 3299.58544921875 892.0789794921875 C 3300.921875 908.8175659179688 3303.935302734375 925.49072265625 3308.54248046875 941.6354370117188 C 3313.06591796875 957.487548828125 3319.17041015625 972.9909057617188 3326.6865234375 987.71484375 C 3334.13134765625 1002.299438476562 3343.025390625 1016.246704101562 3353.121337890625 1029.169189453125 C 3363.217529296875 1042.091552734375 3374.598876953125 1054.095581054688 3386.94921875 1064.84765625 C 3399.41748046875 1075.702392578125 3412.983642578125 1085.376220703125 3427.2705078125 1093.600341796875 C 3441.821044921875 1101.976440429688 3457.27001953125 1108.93408203125 3473.188232421875 1114.280151367188 C 3488.896240234375 1119.555786132812 3505.249267578125 1123.323852539062 3521.82763671875 1125.489501953125 M 3523.568115234375 1127.725952148438 C 3382.010009765625 1110.344970703125 3281.345947265625 981.5000610351562 3298.72705078125 839.9429931640625 C 3314.718017578125 709.7110595703125 3423.827880859375 613.177978515625 3555.0390625 613.177978515625 L 3555.0390625 732.2620239257812 C 3478.18701171875 732.2620239257812 3415.885986328125 794.56298828125 3415.885986328125 871.4140625 C 3415.885986328125 942.5239868164062 3469.22802734375 1001.169006347656 3538.0791015625 1009.536010742188 L 3523.568115234375 1127.725952148438 Z" stroke="none" fill="#efefef"/>
      </g>
      <g id="Path_2720" data-name="Path 2720" transform="translate(-3834.775 -10676.178)" fill="#908f93" stroke-miterlimit="10">
        <path d="M 3540.57763671875 1128.24365234375 C 3535.456298828125 1127.951782226562 3529.77294921875 1127.454467773438 3524.682861328125 1126.85302734375 L 3538.950439453125 1010.645751953125 C 3541.555419921875 1010.944152832031 3544.15576171875 1011.170654296875 3546.705322265625 1011.321350097656 L 3540.57763671875 1128.24365234375 Z" stroke="none"/>
        <path d="M 3539.822509765625 1011.748779296875 L 3525.798095703125 1125.9755859375 C 3530.271240234375 1126.484619140625 3535.135009765625 1126.91015625 3539.6318359375 1127.18603515625 L 3545.65478515625 1012.25732421875 C 3543.72900390625 1012.129516601562 3541.7783203125 1011.959350585938 3539.822509765625 1011.748779296875 M 3538.0791015625 1009.536010742188 C 3541.27294921875 1009.924072265625 3544.4990234375 1010.2099609375 3547.756103515625 1010.3779296875 L 3541.52392578125 1129.296997070312 C 3535.826904296875 1128.998046875 3529.22998046875 1128.421020507812 3523.568115234375 1127.725952148438 L 3538.0791015625 1009.536010742188 Z" stroke="none" fill="#efefef"/>
      </g>
      <g id="Path_2721" data-name="Path 2721" transform="translate(-3834.775 -10676.178)" fill="#fcfeff" stroke-miterlimit="10">
        <path d="M 3555.383056640625 1128.690185546875 C 3551.348876953125 1128.690185546875 3547.2548828125 1128.58154296875 3542.574951171875 1128.349365234375 L 3548.70263671875 1011.424560546875 C 3550.827880859375 1011.519165039062 3552.954833984375 1011.567016601562 3555.0390625 1011.567016601562 C 3557.88330078125 1011.567016601562 3560.83154296875 1011.472900390625 3563.81689453125 1011.287048339844 L 3571.984619140625 1128.0927734375 C 3565.910888671875 1128.499877929688 3560.61083984375 1128.690185546875 3555.383056640625 1128.690185546875 Z" stroke="none"/>
        <path d="M 3562.888427734375 1012.343505859375 C 3560.221435546875 1012.491943359375 3557.58935546875 1012.567016601562 3555.0390625 1012.567016601562 C 3553.264892578125 1012.567016601562 3551.459228515625 1012.532470703125 3549.6494140625 1012.464233398438 L 3543.626220703125 1127.398803710938 C 3547.876708984375 1127.597045898438 3551.656005859375 1127.690185546875 3555.383056640625 1127.690185546875 C 3560.29931640625 1127.690185546875 3565.28076171875 1127.52099609375 3570.9169921875 1127.160522460938 L 3562.888427734375 1012.343505859375 M 3564.7451171875 1010.223999023438 L 3573.052001953125 1129.02197265625 C 3566.641845703125 1129.47021484375 3561.066650390625 1129.690185546875 3555.383056640625 1129.690185546875 C 3550.974609375 1129.690185546875 3546.500732421875 1129.557861328125 3541.52392578125 1129.296997070312 L 3547.756103515625 1010.3779296875 C 3550.16796875 1010.501953125 3552.595947265625 1010.567016601562 3555.0390625 1010.567016601562 C 3558.302001953125 1010.567016601562 3561.5380859375 1010.445068359375 3564.7451171875 1010.223999023438 Z" stroke="none" fill="#efefef"/>
      </g>
      <g id="Path_2722" data-name="Path 2722" transform="translate(-3834.775 -10676.178)" fill="#5f5b5b" stroke-miterlimit="10">
        <path d="M 3573.979736328125 1127.953002929688 L 3565.812255859375 1011.149291992188 C 3574.097900390625 1010.519287109375 3582.343505859375 1009.1484375 3590.351806640625 1007.069702148438 L 3620.64990234375 1120.143310546875 C 3612.691650390625 1122.24658203125 3605.109130859375 1123.890747070312 3597.501708984375 1125.163818359375 C 3589.8935546875 1126.43701171875 3582.188720703125 1127.350830078125 3573.979736328125 1127.953002929688 Z" stroke="none"/>
        <path d="M 3589.641845703125 1008.283447265625 C 3582.197265625 1010.159301757812 3574.55908203125 1011.429077148438 3566.87890625 1012.067626953125 L 3574.9072265625 1126.880493164062 C 3582.712158203125 1126.28076171875 3590.069091796875 1125.393798828125 3597.336669921875 1124.177490234375 C 3604.603515625 1122.96142578125 3611.848388671875 1121.405029296875 3619.423828125 1119.43115234375 L 3589.641845703125 1008.283447265625 M 3591.06005859375 1005.848999023438 L 3621.875 1120.85205078125 C 3605.343994140625 1125.281005859375 3590.125 1127.828002929688 3573.052001953125 1129.02197265625 L 3564.7451171875 1010.223999023438 C 3573.781982421875 1009.60205078125 3582.580078125 1008.115966796875 3591.06005859375 1005.848999023438 Z" stroke="none" fill="#efefef"/>
      </g>
      <g id="Path_2723" data-name="Path 2723" transform="translate(-3834.775 -10676.178)" fill="#a7050e" stroke-miterlimit="10">
        <path d="M 3622.581787109375 1119.625732421875 L 3592.283935546875 1006.55322265625 C 3600.505126953125 1004.291748046875 3608.556884765625 1001.257141113281 3616.23095703125 997.52685546875 C 3624.08154296875 993.710693359375 3631.62158203125 989.1259155273438 3638.641845703125 983.8997802734375 C 3645.6123046875 978.710693359375 3652.137451171875 972.8394775390625 3658.03662109375 966.4490356445312 C 3663.72119140625 960.291015625 3668.87548828125 953.5951538085938 3673.3681640625 946.5336303710938 L 3772.656494140625 1008.576232910156 C 3768.310546875 1015.480407714844 3763.717529296875 1022.158020019531 3758.995361328125 1028.437377929688 C 3754.072265625 1034.9833984375 3748.864013671875 1041.289184570312 3743.514892578125 1047.1796875 C 3738.160400390625 1053.076171875 3732.507568359375 1058.72998046875 3726.712890625 1063.984008789062 C 3720.915283203125 1069.240600585938 3714.8056640625 1074.251708984375 3708.5537109375 1078.878051757812 C 3702.301513671875 1083.50439453125 3695.72314453125 1087.881958007812 3689.001220703125 1091.88916015625 C 3682.28271484375 1095.894409179688 3675.22314453125 1099.6474609375 3668.018798828125 1103.044067382812 C 3660.82177734375 1106.437255859375 3653.2685546875 1109.574340820312 3645.5693359375 1112.3681640625 C 3638.18359375 1115.048217773438 3630.454833984375 1117.48828125 3622.581787109375 1119.625732421875 Z" stroke="none"/>
        <path d="M 3673.676513671875 947.9053955078125 C 3669.279296875 954.710205078125 3664.271728515625 961.1688232421875 3658.771484375 967.1273193359375 C 3652.83056640625 973.5631103515625 3646.2587890625 979.47607421875 3639.239013671875 984.701904296875 C 3632.168701171875 989.96533203125 3624.57470703125 994.5828857421875 3616.66796875 998.42626953125 C 3609.23681640625 1002.038452148438 3601.4541015625 1005.003051757812 3593.506103515625 1007.25048828125 L 3623.28759765625 1118.396240234375 C 3630.79931640625 1116.329833984375 3638.17138671875 1113.989013671875 3645.22802734375 1111.42822265625 C 3652.898681640625 1108.644775390625 3660.423095703125 1105.51953125 3667.59228515625 1102.1396484375 C 3674.767578125 1098.756713867188 3681.798095703125 1095.01904296875 3688.4892578125 1091.0302734375 C 3695.182861328125 1087.039916992188 3701.7333984375 1082.680908203125 3707.958740234375 1078.07421875 C 3714.184326171875 1073.467529296875 3720.26806640625 1068.477661132812 3726.041015625 1063.2431640625 C 3731.811767578125 1058.010864257812 3737.44189453125 1052.380126953125 3742.774658203125 1046.507568359375 C 3748.10302734375 1040.6396484375 3753.29150390625 1034.357788085938 3758.196044921875 1027.836303710938 C 3762.7080078125 1021.836547851562 3767.10205078125 1015.47119140625 3771.2744140625 1008.891723632812 L 3673.676513671875 947.9053955078125 M 3673.053955078125 945.157958984375 L 3774.035888671875 1008.259033203125 C 3737.759033203125 1066.31396484375 3688 1103.134033203125 3621.875 1120.85205078125 L 3591.06005859375 1005.848999023438 C 3625.466064453125 996.653076171875 3654.614990234375 974.60498046875 3673.053955078125 945.157958984375 Z" stroke="none" fill="#efefef"/>
      </g>
      <g id="Path_2724" data-name="Path 2724" transform="translate(-3834.775 -10676.178)" fill="#908f93" stroke-miterlimit="10">
        <path d="M 3773.716552734375 1006.880187988281 L 3674.4296875 944.8385009765625 C 3681.0029296875 934.1734008789062 3686.10595703125 922.6951904296875 3689.603271484375 910.7061767578125 C 3693.31103515625 897.9961547851562 3695.19091796875 884.7763671875 3695.19091796875 871.4140014648438 C 3695.19091796875 861.9055786132812 3694.23291015625 852.40283203125 3692.343505859375 843.169677734375 C 3690.502197265625 834.1707153320312 3687.75439453125 825.3190307617188 3684.1767578125 816.8604736328125 C 3680.6640625 808.5556640625 3676.316650390625 800.5457763671875 3671.2548828125 793.05322265625 C 3666.2412109375 785.6321411132812 3660.483642578125 778.6536865234375 3654.1416015625 772.311767578125 C 3647.7998046875 765.9698486328125 3640.8212890625 760.2120971679688 3633.400390625 755.198486328125 C 3625.90771484375 750.1365966796875 3617.89794921875 745.7889404296875 3609.593017578125 742.2763061523438 C 3601.134521484375 738.6986694335938 3592.28271484375 735.950927734375 3583.28369140625 734.1094360351562 C 3574.3740234375 732.2861938476562 3565.2138671875 731.3302612304688 3556.0390625 731.2655639648438 L 3556.0390625 614.179931640625 C 3573.158935546875 614.2457885742188 3590.25927734375 616.0025634765625 3606.882080078125 619.4041748046875 C 3623.397705078125 622.78369140625 3639.64306640625 627.8264770507812 3655.166748046875 634.3924560546875 C 3670.40869140625 640.8392944335938 3685.10986328125 648.8187255859375 3698.861328125 658.1091918945312 C 3712.482666015625 667.3115844726562 3725.291748046875 677.8798828125 3736.932373046875 689.5206298828125 C 3748.572998046875 701.1613159179688 3759.141357421875 713.97021484375 3768.34375 727.5914916992188 C 3777.63427734375 741.3432006835938 3785.613525390625 756.0443115234375 3792.060546875 771.286376953125 C 3798.62646484375 786.81005859375 3803.669189453125 803.0552978515625 3807.048828125 819.5708618164062 C 3810.5166015625 836.5176391601562 3812.27490234375 853.960205078125 3812.27490234375 871.4140014648438 C 3812.27490234375 897.2310791015625 3809.207275390625 920.4791259765625 3802.896728515625 942.4866333007812 C 3796.66796875 964.2088012695312 3787.118896484375 985.2828979492188 3773.716552734375 1006.880187988281 Z" stroke="none"/>
        <path d="M 3557.0390625 615.1857299804688 L 3557.0390625 730.2760620117188 C 3565.946044921875 730.4009399414062 3574.832763671875 731.359375 3583.484130859375 733.1296997070312 C 3592.5478515625 734.9844360351562 3601.463134765625 737.751953125 3609.982666015625 741.3553466796875 C 3618.346923828125 744.8931274414062 3626.4140625 749.2718505859375 3633.9599609375 754.369873046875 C 3641.433837890625 759.4191284179688 3648.4619140625 765.2177124023438 3654.8486328125 771.6046752929688 C 3661.235595703125 777.9916381835938 3667.0341796875 785.0195922851562 3672.083251953125 792.493408203125 C 3677.181396484375 800.0394287109375 3681.56005859375 808.1066284179688 3685.09765625 816.4708862304688 C 3688.701171875 824.990234375 3691.468505859375 833.9055786132812 3693.3232421875 842.9691772460938 C 3695.22607421875 852.2681274414062 3696.19091796875 861.8383178710938 3696.19091796875 871.4140014648438 C 3696.19091796875 884.8711547851562 3694.297607421875 898.1851806640625 3690.563232421875 910.9862060546875 C 3687.133544921875 922.7442626953125 3682.170166015625 934.0142211914062 3675.799560546875 944.5152587890625 L 3773.394287109375 1005.499755859375 C 3786.470947265625 984.280029296875 3795.814697265625 963.5571899414062 3801.935546875 942.2109985351562 C 3808.219970703125 920.2943725585938 3811.27490234375 897.1365356445312 3811.27490234375 871.4140014648438 C 3811.27490234375 854.02734375 3809.5234375 836.6522216796875 3806.069091796875 819.7713012695312 C 3802.70263671875 803.3203735351562 3797.6796875 787.1387939453125 3791.139404296875 771.6759033203125 C 3784.7177734375 756.4932861328125 3776.769287109375 741.8494873046875 3767.51513671875 728.1513061523438 C 3758.348388671875 714.5827026367188 3747.82080078125 701.8234252929688 3736.22509765625 690.2277221679688 C 3724.62939453125 678.6319580078125 3711.8701171875 668.1045532226562 3698.301513671875 658.9378051757812 C 3684.603515625 649.6835327148438 3669.959716796875 641.735107421875 3654.777099609375 635.3134155273438 C 3639.314208984375 628.773193359375 3623.132568359375 623.7501220703125 3606.681640625 620.3838500976562 C 3590.44775390625 617.0618896484375 3573.757568359375 615.3147583007812 3557.0390625 615.1857299804688 M 3555.0390625 613.177978515625 C 3697.658935546875 613.177978515625 3813.27490234375 728.7940063476562 3813.27490234375 871.4140014648438 C 3813.27490234375 922.7579956054688 3801.242919921875 964.7169799804688 3774.035888671875 1008.258972167969 L 3673.053955078125 945.1580200195312 C 3686.443115234375 923.7769775390625 3694.19091796875 898.5020141601562 3694.19091796875 871.4140014648438 C 3694.19091796875 794.56298828125 3631.89111328125 732.2620239257812 3555.0390625 732.2620239257812 L 3555.0390625 613.177978515625 Z" stroke="none" fill="#efefef"/>
      </g>
    </g>
    <path id="Path_3171" data-name="Path 3171" d="M.56,9.256a5.739,5.739,0,0,0,6,5.936,6.277,6.277,0,0,0,4.608-1.92l-1.44-2.048a4.69,4.69,0,0,1-3.04,1.408,3.254,3.254,0,0,1-3.232-3.44A3.092,3.092,0,0,1,6.688,5.928,4.8,4.8,0,0,1,9.552,7.1l1.3-2.112A5.961,5.961,0,0,0,6.56,3.368,5.82,5.82,0,0,0,.56,9.256ZM11.936,10.9a4.356,4.356,0,0,0,4.672,4.288,4.326,4.326,0,1,0-.016-8.624A4.379,4.379,0,0,0,11.936,10.9Zm2.8,0a1.878,1.878,0,1,1,3.744,0,1.875,1.875,0,1,1-3.744,0ZM22.72,15h2.768V11.88a3.736,3.736,0,0,1,.144-1.12A2.08,2.08,0,0,1,27.76,9.32a2.945,2.945,0,0,1,.56.048V6.648A1.871,1.871,0,0,0,28,6.616a2.86,2.86,0,0,0-2.624,2.048h-.032a4.36,4.36,0,0,0,.032-.512V6.76H22.72Zm6.88,3.2h2.768V15.112c0-.416-.032-.7-.032-.7h.032a3.039,3.039,0,0,0,2.1.784c2.192,0,3.84-1.7,3.84-4.3,0-2.56-1.472-4.32-3.712-4.32A3.011,3.011,0,0,0,32.1,7.7h-.032a4.832,4.832,0,0,0,.032-.528V6.76H29.6Zm2.688-7.264c0-1.424.784-2.032,1.616-2.032.96,0,1.616.8,1.616,2.032,0,1.264-.752,1.968-1.616,1.968C32.816,12.9,32.288,11.928,32.288,10.936Zm6.9-.032a4.356,4.356,0,0,0,4.672,4.288,4.326,4.326,0,1,0-.016-8.624A4.379,4.379,0,0,0,39.184,10.9Zm2.8,0a1.878,1.878,0,1,1,3.744,0,1.875,1.875,0,1,1-3.744,0ZM49.968,15h2.768V11.88a3.736,3.736,0,0,1,.144-1.12,2.08,2.08,0,0,1,2.128-1.44,2.945,2.945,0,0,1,.56.048V6.648a1.871,1.871,0,0,0-.32-.032,2.86,2.86,0,0,0-2.624,2.048h-.032a4.36,4.36,0,0,0,.032-.512V6.76H49.968Zm6.256-2.464a2.636,2.636,0,0,0,2.8,2.656,2.564,2.564,0,0,0,2.336-1.2h.032a4.36,4.36,0,0,0-.032.512V15h2.528V9.928c0-2.1-1.392-3.36-3.712-3.36A6.232,6.232,0,0,0,56.72,7.64l.96,1.952A4.918,4.918,0,0,1,59.9,8.808c.688,0,1.216.224,1.216.912v.144h-.112C59.728,9.864,56.224,10.136,56.224,12.536Zm2.784-.144c0-.688,1.008-.944,1.888-.944h.256v.176a1.528,1.528,0,0,1-1.36,1.456C59.248,13.08,59.008,12.776,59.008,12.392Zm7.216-.432c0,2.768,2.544,3.12,3.856,3.12a5.327,5.327,0,0,0,.752-.048v-2.4s-.144.016-.368.016c-.528,0-1.472-.128-1.472-1.056V9.064H70.72V6.9H68.992V4.536H66.3V6.9H65.168v2.16h1.056Zm5.632-1.088a4.273,4.273,0,0,0,4.528,4.32,5.564,5.564,0,0,0,3.52-1.2L78.88,12.056a4.32,4.32,0,0,1-2.272.832,1.84,1.84,0,0,1-1.92-1.472h5.2s.064-.592.064-.864a3.658,3.658,0,0,0-3.808-3.984A4.1,4.1,0,0,0,71.856,10.872Zm2.9-1.04A1.351,1.351,0,0,1,76.08,8.648a1.122,1.122,0,0,1,1.088,1.184ZM87.632,15h2.8V5.96H93.9V3.56H84.16v2.4h3.472Zm6.112-2.464a2.636,2.636,0,0,0,2.8,2.656,2.564,2.564,0,0,0,2.336-1.2h.032a4.361,4.361,0,0,0-.032.512V15h2.528V9.928c0-2.1-1.392-3.36-3.712-3.36A6.232,6.232,0,0,0,94.24,7.64l.96,1.952a4.918,4.918,0,0,1,2.224-.784c.688,0,1.216.224,1.216.912v.144h-.112C97.248,9.864,93.744,10.136,93.744,12.536Zm2.784-.144c0-.688,1.008-.944,1.888-.944h.256v.176a1.528,1.528,0,0,1-1.36,1.456C96.768,13.08,96.528,12.776,96.528,12.392ZM102.544,15h3.04l.976-1.856c.08-.144.192-.416.192-.416h.032s.112.272.192.416L107.968,15h3.04l-2.592-4.08,2.64-4.16h-3.12l-.9,1.84c-.1.208-.256.544-.256.544h-.032s-.144-.336-.256-.544l-.9-1.84h-3.12l2.656,4.16Zm9.008-4.128a4.273,4.273,0,0,0,4.528,4.32,5.564,5.564,0,0,0,3.52-1.2l-1.024-1.936a4.32,4.32,0,0,1-2.272.832,1.84,1.84,0,0,1-1.92-1.472h5.2s.064-.592.064-.864a3.658,3.658,0,0,0-3.808-3.984A4.1,4.1,0,0,0,111.552,10.872Zm2.9-1.04a1.351,1.351,0,0,1,1.328-1.184,1.122,1.122,0,0,1,1.088,1.184Zm6.064,4.144a4.962,4.962,0,0,0,3.3,1.216c2.128,0,3.376-1.2,3.376-2.608,0-2.656-3.856-2.752-3.856-3.376,0-.288.4-.4.816-.4a3.291,3.291,0,0,1,1.952.672l.944-1.968a4.314,4.314,0,0,0-2.9-.944c-1.9,0-3.392.96-3.392,2.512,0,2.688,3.856,2.768,3.856,3.488,0,.272-.4.384-.816.384a3.467,3.467,0,0,1-2.1-.832ZM132.4,11.448h9.536V9.368H132.4ZM147.568,15h7.616V12.6h-2.448V3.56H150.32l-3.088,2.9,1.616,1.728.688-.624a2.161,2.161,0,0,0,.448-.608h.032S150,7.4,150,7.832V12.6h-2.432Zm8.88,0h7.92V12.6H159.5c.08-1.472,4.688-2.16,4.688-5.728,0-2.432-2.032-3.5-3.9-3.5a4.412,4.412,0,0,0-4.032,2.464l2.08,1.392s.608-1.216,1.7-1.216a1.13,1.13,0,0,1,1.232,1.136c0,1.648-4.944,2.4-4.944,6.624A7.01,7.01,0,0,0,156.448,15Zm12.08-6.112a2.816,2.816,0,0,0,2.9-2.752,2.9,2.9,0,0,0-5.792,0A2.806,2.806,0,0,0,168.528,8.888ZM166.272,15H168.7l8.832-11.44H175.1Zm2.256-8.032a.841.841,0,1,1,.88-.848A.861.861,0,0,1,168.528,6.968Zm3.936,5.472a2.9,2.9,0,0,0,5.792,0,2.9,2.9,0,0,0-5.792,0Zm2.016-.016a.881.881,0,1,1,.88.848A.869.869,0,0,1,174.48,12.424Z" transform="translate(316 3261)" fill="#a71303"/>
    <path id="Path_3170" data-name="Path 3170" d="M3.536,15h2.8V5.96H9.808V3.56H.064v2.4H3.536Zm6.112-2.464a2.636,2.636,0,0,0,2.8,2.656,2.564,2.564,0,0,0,2.336-1.2h.032a4.36,4.36,0,0,0-.032.512V15h2.528V9.928c0-2.1-1.392-3.36-3.712-3.36A6.232,6.232,0,0,0,10.144,7.64l.96,1.952a4.918,4.918,0,0,1,2.224-.784c.688,0,1.216.224,1.216.912v.144h-.112C13.152,9.864,9.648,10.136,9.648,12.536Zm2.784-.144c0-.688,1.008-.944,1.888-.944h.256v.176a1.528,1.528,0,0,1-1.36,1.456C12.672,13.08,12.432,12.776,12.432,12.392ZM19.232,15H22V11.88a3.736,3.736,0,0,1,.144-1.12,2.08,2.08,0,0,1,2.128-1.44,2.945,2.945,0,0,1,.56.048V6.648a1.871,1.871,0,0,0-.32-.032,2.86,2.86,0,0,0-2.624,2.048h-.032a4.36,4.36,0,0,0,.032-.512V6.76H19.232Zm6.912-9.28h2.7V3.56h-2.7ZM26.112,15H28.88V6.76H26.112Zm11.472,0h2.768V8.92h1.52V6.76h-1.52V6.648c0-.7.848-.8,1.392-.8a3.021,3.021,0,0,1,.448.032V3.544A6.5,6.5,0,0,0,41.36,3.5c-1.328,0-3.776.368-3.776,3.072V6.76H34.208V6.648c0-.7.848-.8,1.392-.8a3.021,3.021,0,0,1,.448.032V3.544a6.5,6.5,0,0,0-.832-.048c-1.328,0-3.776.368-3.776,3.072V6.76H30.432V8.92H31.44V15h2.768V8.92h3.376Zm4.992-1.024a4.962,4.962,0,0,0,3.3,1.216c2.128,0,3.376-1.2,3.376-2.608,0-2.656-3.856-2.752-3.856-3.376,0-.288.4-.4.816-.4a3.291,3.291,0,0,1,1.952.672L49.1,7.512a4.314,4.314,0,0,0-2.9-.944c-1.9,0-3.392.96-3.392,2.512,0,2.688,3.856,2.768,3.856,3.488,0,.272-.4.384-.816.384a3.467,3.467,0,0,1-2.1-.832Zm11.888-2.528H64V9.368H54.464Zm14.752,2.24a5.424,5.424,0,0,0,3.9,1.5,3.89,3.89,0,0,0,4.24-3.9,3.36,3.36,0,0,0-2.768-3.312L76.912,5.3V3.56H69.7v2.4h2.736a5.7,5.7,0,0,0,1.088-.08v.032a12.446,12.446,0,0,0-.992,1.072l-1.5,1.808.592,1.36h.8c1.232,0,2.128.368,2.128,1.264,0,.624-.592,1.136-1.632,1.136a3.741,3.741,0,0,1-2.352-1.024Zm12.272-4.8a2.816,2.816,0,0,0,2.9-2.752,2.9,2.9,0,0,0-5.792,0A2.806,2.806,0,0,0,81.488,8.888ZM79.232,15h2.432L90.5,3.56H88.064Zm2.256-8.032a.841.841,0,1,1,.88-.848A.861.861,0,0,1,81.488,6.968Zm3.936,5.472a2.9,2.9,0,0,0,5.792,0,2.9,2.9,0,0,0-5.792,0Zm2.016-.016a.881.881,0,1,1,.88.848A.869.869,0,0,1,87.44,12.424Z" transform="translate(188 3303)" fill="#908f93"/>
    <path id="Path_3168" data-name="Path 3168" d="M19.752,15h2.8V3.56h-2.8Zm5.168,0h2.768V11.352a3.309,3.309,0,0,1,.16-1.088A1.622,1.622,0,0,1,29.48,9.08c.608,0,.912.32.912,1.088V15H33.16V9.656c0-2.32-1.3-3.088-2.96-3.088a2.907,2.907,0,0,0-2.624,1.424h-.032a4.36,4.36,0,0,0,.032-.512V6.76H24.92Zm10.592-3.04c0,2.768,2.544,3.12,3.856,3.12a5.327,5.327,0,0,0,.752-.048v-2.4s-.144.016-.368.016c-.528,0-1.472-.128-1.472-1.056V9.064h1.728V6.9H38.28V4.536H35.592V6.9H34.456v2.16h1.056Zm5.632-1.088a4.273,4.273,0,0,0,4.528,4.32,5.564,5.564,0,0,0,3.52-1.2l-1.024-1.936a4.32,4.32,0,0,1-2.272.832,1.84,1.84,0,0,1-1.92-1.472h5.2s.064-.592.064-.864a3.658,3.658,0,0,0-3.808-3.984A4.1,4.1,0,0,0,41.144,10.872Zm2.9-1.04a1.351,1.351,0,0,1,1.328-1.184,1.122,1.122,0,0,1,1.088,1.184ZM50.744,15h2.768V11.88a3.736,3.736,0,0,1,.144-1.12,2.08,2.08,0,0,1,2.128-1.44,2.945,2.945,0,0,1,.56.048V6.648a1.871,1.871,0,0,0-.32-.032A2.86,2.86,0,0,0,53.4,8.664h-.032a4.36,4.36,0,0,0,.032-.512V6.76H50.744Zm6.288-4.128a4.273,4.273,0,0,0,4.528,4.32,5.564,5.564,0,0,0,3.52-1.2l-1.024-1.936a4.32,4.32,0,0,1-2.272.832,1.84,1.84,0,0,1-1.92-1.472h5.2s.064-.592.064-.864A3.658,3.658,0,0,0,61.32,6.568,4.1,4.1,0,0,0,57.032,10.872Zm2.9-1.04a1.351,1.351,0,0,1,1.328-1.184,1.122,1.122,0,0,1,1.088,1.184Zm6.064,4.144a4.962,4.962,0,0,0,3.3,1.216c2.128,0,3.376-1.2,3.376-2.608,0-2.656-3.856-2.752-3.856-3.376,0-.288.4-.4.816-.4a3.291,3.291,0,0,1,1.952.672l.944-1.968a4.314,4.314,0,0,0-2.9-.944c-1.9,0-3.392.96-3.392,2.512,0,2.688,3.856,2.768,3.856,3.488,0,.272-.4.384-.816.384a3.467,3.467,0,0,1-2.1-.832Zm8.592-2.016c0,2.768,2.544,3.12,3.856,3.12a5.327,5.327,0,0,0,.752-.048v-2.4s-.144.016-.368.016c-.528,0-1.472-.128-1.472-1.056V9.064H79.08V6.9H77.352V4.536H74.664V6.9H73.528v2.16h1.056ZM84.984,15h2.768V9.064h1.52V6.9h-1.52V6.648c0-.7.848-.8,1.392-.8a3.021,3.021,0,0,1,.448.032V3.544A6.5,6.5,0,0,0,88.76,3.5c-1.328,0-3.776.368-3.776,3.072V6.9H83.976v2.16h1.008Zm5.632,0h2.768V11.88a3.736,3.736,0,0,1,.144-1.12,2.08,2.08,0,0,1,2.128-1.44,2.945,2.945,0,0,1,.56.048V6.648a1.871,1.871,0,0,0-.32-.032,2.86,2.86,0,0,0-2.624,2.048H93.24a4.36,4.36,0,0,0,.032-.512V6.76H90.616Zm6.272-4.1a4.685,4.685,0,1,0,4.656-4.336A4.356,4.356,0,0,0,96.888,10.9Zm2.8,0a1.878,1.878,0,1,1,3.744,0,1.875,1.875,0,1,1-3.744,0Zm7.984,4.1h2.768V11.592a5.214,5.214,0,0,1,.08-1.024c.192-.88.64-1.488,1.5-1.488.528,0,.64.432.64,1.04V15h2.768V11.592a4.61,4.61,0,0,1,.064-.96c.176-.912.64-1.552,1.52-1.552.528,0,.64.432.64,1.04V15h2.768V9.656c0-2.272-1.168-3.088-2.672-3.088a3.183,3.183,0,0,0-2.64,1.392h-.032a2.386,2.386,0,0,0-2.3-1.392,2.932,2.932,0,0,0-2.448,1.424H110.3a4.361,4.361,0,0,0,.032-.512V6.76h-2.656Zm18.672,0h2.8V10.76h3.488V8.36h-3.488V5.96h4.208V3.56h-7.008Zm7.872-4.128a4.273,4.273,0,0,0,4.528,4.32,5.564,5.564,0,0,0,3.52-1.2l-1.024-1.936a4.32,4.32,0,0,1-2.272.832,1.84,1.84,0,0,1-1.92-1.472h5.2s.064-.592.064-.864A3.658,3.658,0,0,0,138.5,6.568,4.1,4.1,0,0,0,134.216,10.872Zm2.9-1.04a1.351,1.351,0,0,1,1.328-1.184,1.122,1.122,0,0,1,1.088,1.184Zm6.144,1.04c0,2.56,1.472,4.32,3.712,4.32a2.752,2.752,0,0,0,2.384-1.2h.032s-.016.208-.016.464V15h2.592V3.56h-2.768v3.3c0,.208.016.368.016.368h-.032s-.5-.656-2.16-.656C144.824,6.568,143.256,8.264,143.256,10.872Zm2.784,0c0-1.264.752-1.968,1.616-1.968,1.088,0,1.616.976,1.616,1.968,0,1.424-.784,2.032-1.616,2.032C146.7,12.9,146.04,12.1,146.04,10.872Zm7.376,0a4.273,4.273,0,0,0,4.528,4.32,5.564,5.564,0,0,0,3.52-1.2l-1.024-1.936a4.32,4.32,0,0,1-2.272.832,1.84,1.84,0,0,1-1.92-1.472h5.2s.064-.592.064-.864A3.658,3.658,0,0,0,157.7,6.568,4.1,4.1,0,0,0,153.416,10.872Zm2.9-1.04a1.351,1.351,0,0,1,1.328-1.184,1.122,1.122,0,0,1,1.088,1.184Zm6.7,5.168h2.768V11.88a3.735,3.735,0,0,1,.144-1.12,2.08,2.08,0,0,1,2.128-1.44,2.945,2.945,0,0,1,.56.048V6.648a1.871,1.871,0,0,0-.32-.032,2.86,2.86,0,0,0-2.624,2.048h-.032a4.36,4.36,0,0,0,.032-.512V6.76h-2.656Zm6.256-2.464a2.636,2.636,0,0,0,2.8,2.656,2.564,2.564,0,0,0,2.336-1.2h.032a4.361,4.361,0,0,0-.032.512V15h2.528V9.928c0-2.1-1.392-3.36-3.712-3.36a6.232,6.232,0,0,0-3.456,1.072l.96,1.952a4.918,4.918,0,0,1,2.224-.784c.688,0,1.216.224,1.216.912v.144h-.112C172.776,9.864,169.272,10.136,169.272,12.536Zm2.784-.144c0-.688,1.008-.944,1.888-.944h.256v.176a1.528,1.528,0,0,1-1.36,1.456C172.3,13.08,172.056,12.776,172.056,12.392Zm6.688-.432c0,2.768,1.568,3.12,3.04,3.12a7.525,7.525,0,0,0,.832-.048v-2.4s-.16.016-.336.016c-.624,0-.768-.272-.768-1.056V3.56h-2.768ZM29.08,34h2.8V30.144h1.312L35.224,34h3.12L36.12,30a6.557,6.557,0,0,0-.432-.688V29.28A3.483,3.483,0,0,0,37.4,26.16a3.326,3.326,0,0,0-2.112-3.328,5.919,5.919,0,0,0-2.224-.272H29.08Zm2.8-6.256V24.96h.944c1.408,0,1.728.512,1.728,1.376A1.309,1.309,0,0,1,33.1,27.744Zm7.168,2.128a4.273,4.273,0,0,0,4.528,4.32,5.564,5.564,0,0,0,3.52-1.2l-1.024-1.936a4.32,4.32,0,0,1-2.272.832,1.84,1.84,0,0,1-1.92-1.472h5.2s.064-.592.064-.864a3.658,3.658,0,0,0-3.808-3.984A4.1,4.1,0,0,0,39.048,29.872Zm2.9-1.04a1.351,1.351,0,0,1,1.328-1.184,1.122,1.122,0,0,1,1.088,1.184Zm6.064,4.144a4.962,4.962,0,0,0,3.3,1.216c2.128,0,3.376-1.2,3.376-2.608,0-2.656-3.856-2.752-3.856-3.376,0-.288.4-.4.816-.4a3.291,3.291,0,0,1,1.952.672l.944-1.968a4.314,4.314,0,0,0-2.9-.944c-1.9,0-3.392.96-3.392,2.512,0,2.688,3.856,2.768,3.856,3.488,0,.272-.4.384-.816.384a3.467,3.467,0,0,1-2.1-.832Zm7.584-3.1a4.273,4.273,0,0,0,4.528,4.32,5.564,5.564,0,0,0,3.52-1.2l-1.024-1.936a4.32,4.32,0,0,1-2.272.832,1.84,1.84,0,0,1-1.92-1.472h5.2s.064-.592.064-.864a3.658,3.658,0,0,0-3.808-3.984A4.1,4.1,0,0,0,55.592,29.872Zm2.9-1.04a1.351,1.351,0,0,1,1.328-1.184A1.122,1.122,0,0,1,60.9,28.832ZM65.192,34H67.96V30.88a3.736,3.736,0,0,1,.144-1.12,2.08,2.08,0,0,1,2.128-1.44,2.945,2.945,0,0,1,.56.048v-2.72a1.871,1.871,0,0,0-.32-.032,2.86,2.86,0,0,0-2.624,2.048h-.032a4.36,4.36,0,0,0,.032-.512V25.76H65.192Zm8.816,0h3.376l2.8-8.24H77.256l-1.264,4.384c-.16.544-.3,1.424-.3,1.424h-.032a14.068,14.068,0,0,0-.3-1.424l-1.28-4.384H71.16Zm6.608-4.128a4.273,4.273,0,0,0,4.528,4.32,5.564,5.564,0,0,0,3.52-1.2L87.64,31.056a4.32,4.32,0,0,1-2.272.832,1.84,1.84,0,0,1-1.92-1.472h5.2s.064-.592.064-.864A3.658,3.658,0,0,0,84.9,25.568,4.1,4.1,0,0,0,80.616,29.872Zm2.9-1.04a1.351,1.351,0,0,1,1.328-1.184,1.122,1.122,0,0,1,1.088,1.184ZM94.2,34h4.208c2.272,0,4.352-.912,4.352-3.408a2.565,2.565,0,0,0-1.792-2.576v-.032a2.794,2.794,0,0,0,1.328-2.432c0-1.968-1.6-2.992-3.888-2.992H94.2ZM97,26.992V24.96h1.392a.931.931,0,0,1,1.056.976.968.968,0,0,1-1.008,1.056ZM97,31.6V29.232h1.7A1.1,1.1,0,0,1,99.9,30.4a1.137,1.137,0,0,1-1.216,1.2Zm6.816-1.7a4.685,4.685,0,1,0,4.656-4.336A4.356,4.356,0,0,0,103.816,29.9Zm2.8,0a1.878,1.878,0,1,1,3.744,0,1.875,1.875,0,1,1-3.744,0ZM114.6,34h2.768V30.352a3.309,3.309,0,0,1,.16-1.088,1.622,1.622,0,0,1,1.632-1.184c.608,0,.912.32.912,1.088V34h2.768V28.656c0-2.32-1.3-3.088-2.96-3.088a2.907,2.907,0,0,0-2.624,1.424h-.032a4.361,4.361,0,0,0,.032-.512v-.72H114.6Zm9.616-4.128c0,2.56,1.472,4.32,3.712,4.32a2.752,2.752,0,0,0,2.384-1.2h.032s-.016.208-.016.464V34h2.592V22.56h-2.768v3.3c0,.208.016.368.016.368h-.032s-.5-.656-2.16-.656C125.784,25.568,124.216,27.264,124.216,29.872Zm2.784,0c0-1.264.752-1.968,1.616-1.968,1.088,0,1.616.976,1.616,1.968,0,1.424-.784,2.032-1.616,2.032C127.656,31.9,127,31.1,127,29.872Zm7.328,3.1a4.962,4.962,0,0,0,3.3,1.216c2.128,0,3.376-1.2,3.376-2.608,0-2.656-3.856-2.752-3.856-3.376,0-.288.4-.4.816-.4a3.291,3.291,0,0,1,1.952.672l.944-1.968a4.314,4.314,0,0,0-2.9-.944c-1.9,0-3.392.96-3.392,2.512,0,2.688,3.856,2.768,3.856,3.488,0,.272-.4.384-.816.384a3.467,3.467,0,0,1-2.1-.832Zm11.888-2.528h9.536v-2.08h-9.536ZM161.384,34H169V31.6h-2.448V22.56h-2.416l-3.088,2.9,1.616,1.728.688-.624a2.161,2.161,0,0,0,.448-.608h.032s-.016.448-.016.88V31.6h-2.432Zm11.344-6.112a2.816,2.816,0,0,0,2.9-2.752,2.9,2.9,0,0,0-5.792,0A2.806,2.806,0,0,0,172.728,27.888ZM170.472,34H172.9l8.832-11.44H179.3Zm2.256-8.032a.841.841,0,1,1,.88-.848A.861.861,0,0,1,172.728,25.968Zm3.936,5.472a2.9,2.9,0,0,0,5.792,0,2.9,2.9,0,0,0-5.792,0Zm2.016-.016a.881.881,0,1,1,.88.848A.869.869,0,0,1,178.68,31.424Z" transform="translate(-60 3316)" fill="#908f93"/>
    <path id="Path_3169" data-name="Path 3169" d="M.56,9.208a5.857,5.857,0,0,0,5.984,5.984,5.857,5.857,0,0,0,5.984-5.984,5.787,5.787,0,0,0-5.984-5.84A5.787,5.787,0,0,0,.56,9.208Zm2.9,0a3.147,3.147,0,0,1,3.088-3.28,3.147,3.147,0,0,1,3.088,3.28,3.227,3.227,0,0,1-3.088,3.424A3.227,3.227,0,0,1,3.456,9.208ZM14.528,11.96c0,2.768,2.544,3.12,3.856,3.12a5.327,5.327,0,0,0,.752-.048v-2.4s-.144.016-.368.016c-.528,0-1.472-.128-1.472-1.056V9.064h1.728V6.9H17.3V4.536H14.608V6.9H13.472v2.16h1.056ZM20.752,15H23.52V11.352a3.184,3.184,0,0,1,.144-1.056A1.663,1.663,0,0,1,25.312,9.08c.608,0,.912.32.912,1.088V15h2.768V9.656c0-2.32-1.3-3.088-2.96-3.088A2.83,2.83,0,0,0,23.52,7.88h-.032s.032-.288.032-.7V3.56H20.752Zm9.584-4.128a4.273,4.273,0,0,0,4.528,4.32,5.564,5.564,0,0,0,3.52-1.2L37.36,12.056a4.32,4.32,0,0,1-2.272.832,1.84,1.84,0,0,1-1.92-1.472h5.2s.064-.592.064-.864a3.658,3.658,0,0,0-3.808-3.984A4.1,4.1,0,0,0,30.336,10.872Zm2.9-1.04A1.351,1.351,0,0,1,34.56,8.648a1.122,1.122,0,0,1,1.088,1.184ZM39.936,15H42.7V11.88a3.736,3.736,0,0,1,.144-1.12,2.08,2.08,0,0,1,2.128-1.44,2.945,2.945,0,0,1,.56.048V6.648a1.871,1.871,0,0,0-.32-.032,2.86,2.86,0,0,0-2.624,2.048H42.56a4.36,4.36,0,0,0,.032-.512V6.76H39.936Zm10.592-3.552h9.536V9.368H50.528ZM65.7,15h7.92V12.6H68.752c.08-1.472,4.688-2.16,4.688-5.728,0-2.432-2.032-3.5-3.9-3.5A4.412,4.412,0,0,0,65.5,5.832l2.08,1.392s.608-1.216,1.7-1.216a1.13,1.13,0,0,1,1.232,1.136c0,1.648-4.944,2.4-4.944,6.624A7.01,7.01,0,0,0,65.7,15Zm12.08-6.112a2.816,2.816,0,0,0,2.9-2.752,2.9,2.9,0,0,0-5.792,0A2.806,2.806,0,0,0,77.776,8.888ZM75.52,15h2.432L86.784,3.56H84.352Zm2.256-8.032a.841.841,0,1,1,.88-.848A.861.861,0,0,1,77.776,6.968Zm3.936,5.472a2.9,2.9,0,0,0,5.792,0,2.9,2.9,0,0,0-5.792,0Zm2.016-.016a.881.881,0,1,1,.88.848A.869.869,0,0,1,83.728,12.424Z" transform="translate(152 3325)" fill="#908f93"/>
  </g>
</svg>
