<svg xmlns="http://www.w3.org/2000/svg" width="877" height="622"><style><![CDATA[.B{fill:#908f93}.C{font-family:MuseoSans-900, Museo Sans}.D{font-weight:900}.E{fill:#efefef}.F{font-size:16px}]]></style><g transform="matrix(-1 0 0 -1 1087.394 5206.612)" class="B"><path d="M623.843 4752.45l-16.578-117.955a272.37 272.37 0 0 1 34.02-2.38v119.12a141.43 141.43 0 0 0-17.443 1.215z"/><path d="M624.696 4751.33a142.4 142.4 0 0 1 15.59-1.086V4633.12c-10.287.093-21.69.9-31.9 2.23l16.3 115.98m-1.704 2.243l-16.856-119.933c11.364-1.598 24.673-2.53 36.15-2.53v121.12a139.77 139.77 0 0 0-19.294 1.343z" class="E"/></g><g transform="matrix(-1 0 0 -1 1082.048 5207.047)" fill="#fcfeff"><path d="M601.762 4756.146l-30.825-115.04c10.225-2.708 18.527-4.397 29.002-5.9l16.577 117.954a139.51 139.51 0 0 0-14.755 2.985z"/><path d="M602.472 4754.932c4.243-1.068 8.572-1.944 12.917-2.613l-16.3-115.98c-9.643 1.413-17.502 3.012-26.926 5.478l30.31 113.114m-1.418 2.435l-31.342-116.97c11.085-2.97 19.713-4.725 31.078-6.322l16.856 119.934c-5.648.787-11.185 1.912-16.592 3.357z" class="E"/></g><g transform="matrix(-1 0 0 -1 1071.951 5208.134)" fill="#5f5b5b"><path d="M560.017 4769.764l-57.743-104.172c19.31-10.633 35.358-17.116 56.634-22.88l30.825 115.04a138.93 138.93 0 0 0-29.716 12.015z"/><path d="M560.412 4768.413a139.92 139.92 0 0 1 28.099-11.361l-30.31-113.112c-20.393 5.59-36.012 11.9-54.566 22.046l56.776 102.427m-.786 2.708l-58.712-105.92c20.075-11.126 36.53-17.775 58.7-23.716l31.342 116.97c-11.05 2.953-21.552 7.235-31.33 12.667z" class="E"/></g><g transform="matrix(-1 0 0 -1 1057.466 5212.214)" fill="#a70505"><path d="M499.986 4813.584l-96.37-70.018c11.7-15.986 23.817-29.46 37.05-41.167s28.084-22.103 45.375-31.758l57.744 104.173c-8.546 4.828-16.607 10.58-23.97 17.103-7.338 6.5-14.005 13.787-19.827 21.667z"/><path d="M499.774 4812.194a141.63 141.63 0 0 1 19.376-21.025c7.17-6.35 14.993-11.974 23.28-16.734l-56.777-102.43c-16.855 9.482-31.37 19.682-44.325 31.144s-24.848 24.626-36.312 40.2l94.76 68.846m.43 2.784l-97.987-71.19c23.6-32.497 49.08-55.032 84.213-74.506l58.712 105.92a139.28 139.28 0 0 0-44.937 39.778z" class="E"/></g><g transform="matrix(-1 0 0 -1 1048.933 5225.029)" class="B"><path d="M602.825 5168.028c-17.223-.066-34.425-1.833-51.148-5.255-16.613-3.4-32.954-8.472-48.57-15.077-15.332-6.485-30.12-14.51-43.952-23.856a260.62 260.62 0 0 1-69.891-69.892 258.8 258.8 0 0 1-23.856-43.952c-6.605-15.615-11.677-31.956-15.076-48.57-3.488-17.047-5.257-34.592-5.257-52.148 0-14.265 1.008-28.19 2.997-41.386 1.998-13.26 5.063-26.298 9.1-38.752s9.23-24.804 15.408-36.706c6.004-11.57 13.173-23.15 21.316-34.434l96.37 70.016a139.08 139.08 0 0 0-19.036 37.362c-4.675 14.12-7.046 28.9-7.046 43.9 0 9.473.954 18.94 2.837 28.14 1.835 8.966 4.572 17.785 8.136 26.212 3.5 8.274 7.83 16.254 12.874 23.72 4.995 7.394 10.73 14.346 17.05 20.664a140.64 140.64 0 0 0 20.664 17.05c7.465 5.043 15.445 9.375 23.72 12.874 8.427 3.564 17.246 6.302 26.212 8.136a140.6 140.6 0 0 0 27.14 2.833v119.12z"/><path d="M394.13 4759.4c-7.872 10.988-14.816 22.248-20.654 33.495-6.152 11.854-11.315 24.152-15.345 36.554s-7.082 25.387-9.072 38.592c-1.98 13.147-2.986 27.022-2.986 41.237 0 17.49 1.762 34.967 5.237 51.948 3.386 16.548 8.44 32.826 15.018 48.38a257.77 257.77 0 0 0 23.764 43.782c9.22 13.65 19.8 26.483 31.475 38.148s24.5 22.254 38.148 31.475c13.78 9.31 28.51 17.304 43.782 23.764 15.554 6.58 31.83 11.632 48.38 15.018a259.55 259.55 0 0 0 49.948 5.229v-117.126c-8.872-.125-17.723-1.08-26.34-2.843a139.98 139.98 0 0 1-26.401-8.195c-8.333-3.525-16.37-7.887-23.89-12.966-7.446-5.03-14.448-10.808-20.812-17.17s-12.14-13.365-17.17-20.812c-5.08-7.518-9.442-15.556-12.966-23.89-3.6-8.488-6.347-17.37-8.195-26.4a141.67 141.67 0 0 1-2.857-28.34c0-15.117 2.388-29.993 7.097-44.214 4.344-13.12 10.596-25.497 18.597-36.82L394.13 4759.4m-.448-2.797l97.987 71.19c-16.648 22.874-26.477 51.03-26.477 81.485 0 76.564 62.067 138.63 138.63 138.63v121.12c-143.456 0-259.75-116.295-259.75-259.75 0-57.382 15.88-106.253 49.608-152.676z" class="E"/></g><g transform="matrix(-1 0 0 -1 1093.612 5206.612)" fill="#aeb5b7"><path d="M649.504 5149.6V5030.5a140.6 140.6 0 0 0 27.139-2.833c8.966-1.834 17.784-4.572 26.21-8.136a139.65 139.65 0 0 0 23.719-12.875 140.61 140.61 0 0 0 20.664-17.049 140.63 140.63 0 0 0 17.05-20.665 139.66 139.66 0 0 0 12.874-23.719 138.94 138.94 0 0 0 8.137-26.212 140.66 140.66 0 0 0 2.837-28.14c0-9.473-.954-18.94-2.837-28.14a138.95 138.95 0 0 0-8.137-26.211c-3.5-8.274-7.83-16.254-12.874-23.718a140.63 140.63 0 0 0-17.05-20.665c-6.318-6.318-13.27-12.055-20.664-17.05a139.65 139.65 0 0 0-23.719-12.874 138.92 138.92 0 0 0-26.211-8.137c-8.875-1.816-18-2.77-27.14-2.833v-119.12c17.223.066 34.425 1.833 51.148 5.255 16.613 3.4 32.954 8.472 48.57 15.077a258.77 258.77 0 0 1 43.952 23.856c13.7 9.256 26.586 19.887 38.295 31.596a260.64 260.64 0 0 1 31.596 38.295 258.76 258.76 0 0 1 23.856 43.952c6.605 15.615 11.677 31.956 15.076 48.568 3.488 17.046 5.257 34.59 5.257 52.148s-1.77 35.102-5.257 52.148a257.45 257.45 0 0 1-15.076 48.569c-6.485 15.332-14.51 30.12-23.856 43.952a260.64 260.64 0 0 1-31.596 38.295c-11.71 11.71-24.593 22.34-38.295 31.597-13.833 9.345-28.62 17.372-43.952 23.856-15.615 6.604-31.956 11.677-48.57 15.077-16.723 3.422-33.926 5.19-51.148 5.255z"/><path d="M650.504 4633.12v117.125c8.872.125 17.723 1.08 26.34 2.843a139.98 139.98 0 0 1 26.401 8.195c8.333 3.525 16.37 7.888 23.89 12.967a141.65 141.65 0 0 1 20.812 17.171c6.363 6.363 12.14 13.365 17.17 20.812 5.08 7.518 9.442 15.556 12.966 23.89 3.6 8.488 6.347 17.37 8.195 26.4 1.896 9.264 2.857 18.8 2.857 28.34s-.96 19.075-2.857 28.34c-1.848 9.03-4.605 17.913-8.195 26.4-3.525 8.333-7.887 16.37-12.966 23.89a141.63 141.63 0 0 1-17.171 20.812c-6.363 6.363-13.365 12.14-20.812 17.17-7.518 5.08-15.556 9.442-23.89 12.967a139.98 139.98 0 0 1-26.401 8.195c-8.617 1.763-17.468 2.718-26.34 2.843v117.125c16.82-.13 33.615-1.887 49.948-5.23a256.46 256.46 0 0 0 48.38-15.018c15.272-6.46 30.003-14.455 43.782-23.764a259.64 259.64 0 0 0 38.148-31.475c11.664-11.664 22.254-24.5 31.475-38.148 9.31-13.78 17.304-28.5 23.764-43.782a256.45 256.45 0 0 0 15.018-48.38 259.67 259.67 0 0 0 5.237-51.948c0-17.49-1.762-34.967-5.237-51.947a256.43 256.43 0 0 0-15.018-48.379 257.75 257.75 0 0 0-23.764-43.782c-9.22-13.65-19.8-26.483-31.475-38.148s-24.5-22.254-38.148-31.475c-13.78-9.31-28.51-17.304-43.782-23.764a256.46 256.46 0 0 0-48.38-15.018c-16.333-3.342-33.127-5.1-49.948-5.23m-2-2.008c143.456 0 259.75 116.294 259.75 259.75s-116.293 259.75-259.75 259.75v-121.12c76.563 0 138.63-62.067 138.63-138.632s-62.068-138.63-138.63-138.63v-121.12z" class="E"/></g><text fill="#2562a0" font-size="30" class="C D"><tspan y="28" x="426">Government Income 2020</tspan></text><text class="B C D F"><tspan x="5.192" y="320">Income Taxes – 50%</tspan><tspan y="197" x="705">Social Security &amp; </tspan><tspan y="216" x="705">Medicare Taxes – 36%</tspan></text><text fill="#a71303" class="C D F"><tspan y="515" x="632">Corporate Taxes – 7%</tspan></text><text class="B C D F"><tspan y="573" x="546">Tariffs – 4%</tspan><tspan x="304.408" y="598">Interest from Federal </tspan><tspan x="313" y="617">Reserve Bonds – 2%</tspan><tspan y="596" x="494">Other – 2%</tspan></text></svg>