<svg xmlns="http://www.w3.org/2000/svg" width="869.216" height="611.002" viewBox="0 0 869.216 611.002">
  <g id="Group_790" data-name="Group 790" transform="translate(306.464 -3493.19)">
    <g id="Path_1321" data-name="Path 1321" transform="translate(774.394 8693.611) rotate(180)" fill="#908f93" stroke-miterlimit="10">
      <path d="M 623.8433837890625 4752.44921875 L 607.2657470703125 4634.494140625 C 618.0875244140625 4633.02294921875 630.365966796875 4632.1640625 641.285888671875 4632.1142578125 L 641.285888671875 4751.23388671875 C 635.4912109375 4751.2763671875 629.633544921875 4751.68408203125 623.8433837890625 4752.44921875 Z" stroke="none"/>
      <path d="M 624.6961059570312 4751.3310546875 C 629.8756713867188 4750.68359375 635.1026000976562 4750.3193359375 640.285888671875 4750.2451171875 L 640.285888671875 4633.12109375 C 629.9993286132812 4633.2138671875 618.5964965820312 4634.01123046875 608.3961181640625 4635.3515625 L 624.6961059570312 4751.3310546875 M 622.9916381835938 4753.57373046875 L 606.135986328125 4633.640625 C 617.500244140625 4632.04296875 630.8089599609375 4631.11181640625 642.285888671875 4631.11181640625 L 642.285888671875 4752.23046875 C 635.7372436523438 4752.23046875 629.2979125976562 4752.6953125 622.9916381835938 4753.57373046875 Z" stroke="none" fill="#efefef"/>
    </g>
    <g id="Path_1322" data-name="Path 1322" transform="translate(769.048 8694.047) rotate(180)" fill="#fcfeff" stroke-miterlimit="10">
      <path d="M 601.7621459960938 4756.1455078125 L 570.9370727539062 4641.10595703125 C 581.1621704101562 4638.3974609375 589.4642333984375 4636.70849609375 599.9393920898438 4635.2060546875 L 616.516845703125 4753.16015625 C 611.5499877929688 4753.888671875 606.5958251953125 4754.89111328125 601.7621459960938 4756.1455078125 Z" stroke="none"/>
      <path d="M 602.4722290039062 4754.931640625 C 606.71533203125 4753.86328125 611.04443359375 4752.9873046875 615.3887329101562 4752.318359375 L 599.0888671875 4636.33984375 C 589.4463500976562 4637.7529296875 581.5869750976562 4639.3515625 572.1629638671875 4641.8173828125 L 602.4722290039062 4754.931640625 M 601.053955078125 4757.3662109375 L 569.7119750976562 4640.3974609375 C 580.7972412109375 4637.42724609375 589.4251708984375 4635.67236328125 600.790283203125 4634.0751953125 L 617.6459350585938 4754.0087890625 C 611.9983520507812 4754.79541015625 606.4608764648438 4755.92041015625 601.053955078125 4757.3662109375 Z" stroke="none" fill="#efefef"/>
    </g>
    <g id="Path_1323" data-name="Path 1323" transform="translate(758.951 8695.135) rotate(180)" fill="#5f5b5b" stroke-miterlimit="10">
      <path d="M 560.01708984375 4769.76416015625 L 502.274169921875 4665.59228515625 C 521.5853271484375 4654.95947265625 537.6323852539062 4648.47607421875 558.9081420898438 4642.7109375 L 589.73291015625 4757.74951171875 C 579.4132080078125 4760.587890625 569.4254760742188 4764.62646484375 560.01708984375 4769.76416015625 Z" stroke="none"/>
      <path d="M 560.4116821289062 4768.4130859375 C 569.3399047851562 4763.61962890625 578.7737426757812 4759.80517578125 588.5107421875 4757.05224609375 L 558.2020874023438 4643.93994140625 C 537.8086547851562 4649.529296875 522.1898803710938 4655.83935546875 503.6356506347656 4665.98583984375 L 560.4116821289062 4768.4130859375 M 559.6259765625 4771.12109375 L 500.9140319824219 4665.201171875 C 520.9889526367188 4654.07470703125 537.4435424804688 4647.42626953125 559.6148681640625 4641.48486328125 L 590.9568481445312 4758.45361328125 C 579.9082641601562 4761.40673828125 569.4049072265625 4765.68896484375 559.6259765625 4771.12109375 Z" stroke="none" fill="#efefef"/>
    </g>
    <g id="Path_1324" data-name="Path 1324" transform="translate(744.466 8699.214) rotate(180)" fill="#a70505" stroke-miterlimit="10">
      <path d="M 499.985595703125 4813.58447265625 L 403.6141052246094 4743.56689453125 C 415.3040771484375 4727.5810546875 427.4313354492188 4714.10693359375 440.6641845703125 4702.3994140625 C 453.8968200683594 4690.69189453125 468.748291015625 4680.296875 486.0396423339844 4670.6416015625 L 543.7833862304688 4774.81494140625 C 535.2371826171875 4779.64306640625 527.176513671875 4785.3935546875 519.8123168945312 4791.91748046875 C 512.4742431640625 4798.41796875 505.8075866699219 4805.7041015625 499.985595703125 4813.58447265625 Z" stroke="none"/>
      <path d="M 499.7736206054688 4812.1943359375 C 505.4954833984375 4804.5625 512.006591796875 4797.49609375 519.149169921875 4791.1689453125 C 526.31787109375 4784.818359375 534.1420288085938 4779.19482421875 542.4295654296875 4774.43505859375 L 485.652099609375 4672.0048828125 C 468.7966918945312 4681.48681640625 454.2818908691406 4691.6865234375 441.3268127441406 4703.1484375 C 428.3714904785156 4714.6103515625 416.4791564941406 4727.7744140625 405.0146484375 4743.34814453125 L 499.7736206054688 4812.1943359375 M 500.2032775878906 4814.978515625 L 402.2160339355469 4743.787109375 C 425.8258972167969 4711.2900390625 451.2966918945312 4688.75537109375 486.4286804199219 4669.28076171875 L 545.140625 4775.20068359375 C 527.4129638671875 4785.0478515625 512.073486328125 4798.66796875 500.2032775878906 4814.978515625 Z" stroke="none" fill="#efefef"/>
    </g>
    <g id="Path_1325" data-name="Path 1325" transform="translate(735.933 8712.029) rotate(180)" fill="#908f93" stroke-miterlimit="10">
      <path d="M 602.82470703125 5168.0283203125 C 585.60205078125 5167.96240234375 568.3994140625 5166.1953125 551.6764526367188 5162.7734375 C 535.0636596679688 5159.3740234375 518.7227783203125 5154.30126953125 503.1077575683594 5147.69677734375 C 487.7760314941406 5141.2119140625 472.9884338378906 5133.185546875 459.1557922363281 5123.84033203125 C 445.454345703125 5114.58349609375 432.570068359375 5103.953125 420.8609008789062 5092.24365234375 C 409.1517028808594 5080.53466796875 398.521240234375 5067.64990234375 389.2647094726562 5053.94873046875 C 379.9195861816406 5040.11572265625 371.8931884765625 5025.328125 365.4083862304688 5009.99658203125 C 358.8038024902344 4994.38134765625 353.7313232421875 4978.04052734375 350.3319091796875 4961.427734375 C 346.8436889648438 4944.380859375 345.0750122070312 4926.8359375 345.0750122070312 4909.279296875 C 345.0750122070312 4895.01416015625 346.0833435058594 4881.08984375 348.0718994140625 4867.89306640625 C 350.0700073242188 4854.63330078125 353.1349182128906 4841.59521484375 357.1816101074219 4829.140625 C 361.2282409667969 4816.6865234375 366.4123229980469 4804.3369140625 372.5897521972656 4792.43505859375 C 378.59423828125 4780.8662109375 385.7630310058594 4769.2861328125 393.905517578125 4758.0009765625 L 490.2756042480469 4828.01708984375 C 482.0582275390625 4839.47802734375 475.6553344726562 4852.04345703125 471.2394409179688 4865.37939453125 C 466.5640563964844 4879.4990234375 464.1934814453125 4894.26904296875 464.1934814453125 4909.279296875 C 464.1934814453125 4918.75244140625 465.1479187011719 4928.22021484375 467.0302734375 4937.4189453125 C 468.8648986816406 4946.384765625 471.6023864746094 4955.20361328125 475.166748046875 4963.630859375 C 478.6663208007812 4971.90478515625 482.997802734375 4979.884765625 488.0408020019531 4987.349609375 C 493.0357666015625 4994.7431640625 498.7720642089844 5001.6953125 505.0903930664062 5008.013671875 C 511.4087524414062 5014.33203125 518.3612060546875 5020.068359375 525.7546997070312 5025.0634765625 C 533.2193603515625 5030.1064453125 541.1995239257812 5034.43798828125 549.4735107421875 5037.9375 C 557.900634765625 5041.501953125 566.719482421875 5044.2392578125 575.6851196289062 5046.07373046875 C 584.5599975585938 5047.89013671875 593.685791015625 5048.84228515625 602.82470703125 5048.9072265625 L 602.82470703125 5168.0283203125 Z" stroke="none"/>
      <path d="M 394.1307983398438 4759.400390625 C 386.25830078125 4770.388671875 379.3151245117188 4781.64794921875 373.477294921875 4792.8955078125 C 367.3250732421875 4804.7490234375 362.1624145507812 4817.04736328125 358.1326293945312 4829.44970703125 C 354.1029052734375 4841.85205078125 351.0507202148438 4854.83642578125 349.0607299804688 4868.0419921875 C 347.07958984375 4881.189453125 346.0750122070312 4895.06396484375 346.0750122070312 4909.279296875 C 346.0750122070312 4926.7685546875 347.8368530273438 4944.24658203125 351.3115844726562 4961.22705078125 C 354.6978149414062 4977.775390625 359.7505493164062 4994.052734375 366.3294067382812 5009.60693359375 C 372.7890014648438 5024.87939453125 380.7843627929688 5039.609375 390.0933227539062 5053.388671875 C 399.314208984375 5067.03759765625 409.90380859375 5079.8720703125 421.5679931640625 5091.53662109375 C 433.232177734375 5103.20068359375 446.0669250488281 5113.79052734375 459.715576171875 5123.01171875 C 473.4947509765625 5132.32080078125 488.2250366210938 5140.31591796875 503.497314453125 5146.775390625 C 519.0515747070312 5153.3544921875 535.3287963867188 5158.4072265625 551.876953125 5161.79345703125 C 568.2098388671875 5165.1357421875 585.0040283203125 5166.8935546875 601.82470703125 5167.0224609375 L 601.82470703125 5049.896484375 C 592.9529418945312 5049.771484375 584.101806640625 5048.81689453125 575.484619140625 5047.0537109375 C 566.454345703125 5045.20556640625 557.5718994140625 5042.4482421875 549.0839233398438 5038.8583984375 C 540.75048828125 5035.33349609375 532.7130737304688 5030.97119140625 525.1949462890625 5025.89208984375 C 517.7486572265625 5020.861328125 510.7466430664062 5015.083984375 504.38330078125 5008.720703125 C 498.0199584960938 5002.357421875 492.2427368164062 4995.35546875 487.2121887207031 4987.9091796875 C 482.1330261230469 4980.39111328125 477.7705383300781 4972.353515625 474.2458190917969 4964.02001953125 C 470.6557006835938 4955.5322265625 467.8984680175781 4946.64990234375 466.0505676269531 4937.61962890625 C 464.1548156738281 4928.3544921875 463.1935119628906 4918.81982421875 463.1935119628906 4909.279296875 C 463.1935119628906 4894.162109375 465.5812072753906 4879.2861328125 470.2901306152344 4865.06494140625 C 474.6342163085938 4851.9462890625 480.8866271972656 4839.568359375 488.8866882324219 4828.244140625 L 394.1307983398438 4759.400390625 M 393.6829833984375 4756.60302734375 L 491.6702575683594 4827.79443359375 C 475.0219116210938 4850.66796875 465.1935119628906 4878.82421875 465.1935119628906 4909.279296875 C 465.1935119628906 4985.84375 527.2603759765625 5047.91064453125 603.82470703125 5047.91064453125 L 603.82470703125 5169.0302734375 C 460.3684692382812 5169.0302734375 344.0750122070312 5052.7353515625 344.0750122070312 4909.279296875 C 344.0750122070312 4851.8974609375 359.9536743164062 4803.0263671875 393.6829833984375 4756.60302734375 Z" stroke="none" fill="#efefef"/>
    </g>
    <g id="Path_1326" data-name="Path 1326" transform="translate(780.612 8693.611) rotate(180)" fill="#aeb5b7" stroke-miterlimit="10">
      <path d="M 649.5040283203125 5149.6103515625 L 649.5040283203125 5030.48974609375 C 658.642822265625 5030.4248046875 667.7685546875 5029.47265625 676.6433715820312 5027.65625 C 685.60888671875 5025.82177734375 694.4277954101562 5023.08447265625 702.8548583984375 5019.52001953125 C 711.1287841796875 5016.02001953125 719.10888671875 5011.68896484375 726.5736083984375 5006.6455078125 C 733.9671020507812 5001.65087890625 740.9195556640625 4995.91455078125 747.2379760742188 4989.59619140625 C 753.5563354492188 4983.27783203125 759.2926635742188 4976.3251953125 764.2876586914062 4968.931640625 C 769.3306884765625 4961.466796875 773.6621704101562 4953.48681640625 777.1618041992188 4945.212890625 C 780.7261962890625 4936.78564453125 783.4636840820312 4927.966796875 785.2984008789062 4919.0009765625 C 787.1807250976562 4909.80224609375 788.1351928710938 4900.33447265625 788.1351928710938 4890.861328125 C 788.1351928710938 4881.38818359375 787.1807250976562 4871.9208984375 785.2984008789062 4862.72216796875 C 783.4636840820312 4853.7568359375 780.7261962890625 4844.93798828125 777.1618041992188 4836.5107421875 C 773.6621704101562 4828.23681640625 769.3306884765625 4820.2568359375 764.2876586914062 4812.79248046875 C 759.2926635742188 4805.39892578125 753.5563354492188 4798.4462890625 747.2379760742188 4792.1279296875 C 740.9195556640625 4785.8095703125 733.9671020507812 4780.0732421875 726.5736083984375 4775.078125 C 719.10888671875 4770.03515625 711.1287841796875 4765.70361328125 702.8548583984375 4762.2041015625 C 694.427734375 4758.6396484375 685.60888671875 4755.90185546875 676.6433715820312 4754.0673828125 C 667.7685546875 4752.25146484375 658.642822265625 4751.298828125 649.5040283203125 4751.23388671875 L 649.5040283203125 4632.11376953125 C 666.7267456054688 4632.1796875 683.9293823242188 4633.94677734375 700.6522827148438 4637.36865234375 C 717.2650756835938 4640.76806640625 733.6058959960938 4645.8408203125 749.2208862304688 4652.4453125 C 764.552734375 4658.93017578125 779.3402709960938 4666.95654296875 793.1729125976562 4676.3017578125 C 806.8743286132812 4685.55810546875 819.7586059570312 4696.18896484375 831.4677734375 4707.89794921875 C 843.177001953125 4719.607421875 853.8074340820312 4732.49169921875 863.06396484375 4746.19287109375 C 872.4091186523438 4760.025390625 880.4354858398438 4774.81298828125 886.9202880859375 4790.14501953125 C 893.5248413085938 4805.759765625 898.5972900390625 4822.1005859375 901.9967651367188 4838.71337890625 C 905.4849853515625 4855.759765625 907.253662109375 4873.3046875 907.253662109375 4890.861328125 C 907.253662109375 4908.41796875 905.4849853515625 4925.962890625 901.9967651367188 4943.009765625 C 898.5972900390625 4959.62255859375 893.5248413085938 4975.96337890625 886.9202880859375 4991.57861328125 C 880.4354858398438 5006.91015625 872.4091186523438 5021.69775390625 863.06396484375 5035.53076171875 C 853.8074340820312 5049.23193359375 843.177001953125 5062.1162109375 831.4677734375 5073.82568359375 C 819.7586059570312 5085.53515625 806.8743286132812 5096.16552734375 793.1728515625 5105.42236328125 C 779.3402709960938 5114.767578125 764.552734375 5122.7939453125 749.2208862304688 5129.27880859375 C 733.6058959960938 5135.88330078125 717.2650756835938 5140.9560546875 700.6522827148438 5144.35546875 C 683.9293823242188 5147.77734375 666.7267456054688 5149.54443359375 649.5040283203125 5149.6103515625 Z" stroke="none"/>
      <path d="M 650.5040893554688 4633.11962890625 L 650.5040893554688 4750.24462890625 C 659.375732421875 4750.369140625 668.2266845703125 4751.32421875 676.8438720703125 4753.08740234375 C 685.8740844726562 4754.935546875 694.7564697265625 4757.69287109375 703.2444458007812 4761.28271484375 C 711.5777587890625 4764.8076171875 719.6151733398438 4769.17041015625 727.1334228515625 4774.24951171875 C 734.5796508789062 4779.2802734375 741.5817260742188 4785.0576171875 747.945068359375 4791.4208984375 C 754.3084106445312 4797.7841796875 760.085693359375 4804.7861328125 765.1162719726562 4812.232421875 C 770.1954956054688 4819.75048828125 774.5580444335938 4827.7880859375 778.082763671875 4836.12109375 C 781.6729125976562 4844.609375 784.43017578125 4853.49169921875 786.278076171875 4862.52197265625 C 788.1738891601562 4871.7861328125 789.1351928710938 4881.3212890625 789.1351928710938 4890.861328125 C 789.1351928710938 4900.40185546875 788.1738891601562 4909.9365234375 786.278076171875 4919.20166015625 C 784.43017578125 4928.23193359375 781.6729125976562 4937.1142578125 778.082763671875 4945.6025390625 C 774.5580444335938 4953.935546875 770.1954956054688 4961.97314453125 765.1162719726562 4969.4912109375 C 760.085693359375 4976.9375 754.3084106445312 4983.93994140625 747.945068359375 4990.30322265625 C 741.5817260742188 4996.66650390625 734.5796508789062 5002.44384765625 727.1334228515625 5007.47412109375 C 719.6151733398438 5012.5537109375 711.5778198242188 5016.916015625 703.2444458007812 5020.44091796875 C 694.7564697265625 5024.03076171875 685.8740844726562 5026.7880859375 676.8438720703125 5028.63623046875 C 668.2266845703125 5030.3994140625 659.375732421875 5031.35400390625 650.5040893554688 5031.47900390625 L 650.5040893554688 5148.6044921875 C 667.32470703125 5148.4755859375 684.118896484375 5146.7177734375 700.4518432617188 5143.37548828125 C 716.9999389648438 5139.9892578125 733.2771606445312 5134.9365234375 748.8314208984375 5128.35791015625 C 764.1036987304688 5121.89794921875 778.833984375 5113.90283203125 792.613037109375 5104.59375 C 806.2617797851562 5095.37255859375 819.0964965820312 5084.78271484375 830.7606811523438 5073.11865234375 C 842.4248657226562 5061.45458984375 853.0144653320312 5048.61962890625 862.2353515625 5034.970703125 C 871.5443725585938 5021.19140625 879.5396118164062 5006.4609375 885.999267578125 4991.18896484375 C 892.578125 4975.63427734375 897.630859375 4959.357421875 901.01708984375 4942.80908203125 C 904.4917602539062 4925.82861328125 906.2536010742188 4908.3505859375 906.2536010742188 4890.861328125 C 906.2536010742188 4873.3720703125 904.4917602539062 4855.89453125 901.01708984375 4838.9140625 C 897.630859375 4822.36572265625 892.578125 4806.0888671875 885.999267578125 4790.53466796875 C 879.5396118164062 4775.26220703125 871.5443725585938 4760.53173828125 862.2353515625 4746.7529296875 C 853.0144653320312 4733.10400390625 842.4248657226562 4720.26953125 830.7606811523438 4708.60498046875 C 819.0964965820312 4696.94091796875 806.2617797851562 4686.35107421875 792.613037109375 4677.13037109375 C 778.833984375 4667.8212890625 764.1036987304688 4659.826171875 748.8314208984375 4653.3662109375 C 733.2771606445312 4646.78759765625 716.9999389648438 4641.73486328125 700.4518432617188 4638.3486328125 C 684.118896484375 4635.00634765625 667.32470703125 4633.24853515625 650.5040893554688 4633.11962890625 M 648.5040893554688 4631.11181640625 C 791.960205078125 4631.11181640625 908.2536010742188 4747.40625 908.2536010742188 4890.861328125 C 908.2536010742188 5034.3173828125 791.960205078125 5150.6123046875 648.5040893554688 5150.6123046875 L 648.5040893554688 5029.4931640625 C 725.0673217773438 5029.4931640625 787.1351928710938 4967.42578125 787.1351928710938 4890.861328125 C 787.1351928710938 4814.298828125 725.0673217773438 4752.23046875 648.5040893554688 4752.23046875 L 648.5040893554688 4631.11181640625 Z" stroke="none" fill="#efefef"/>
    </g>
    <path id="Path_3173" data-name="Path 3173" d="M1.08,17.23c0,7.02,5.04,11.13,10.53,11.13a8.888,8.888,0,0,0,5.64-1.86h.06s-.03.45-.03.9V28h4.38V15.88H13.98v4.47h3.03V22a7.342,7.342,0,0,1-4.35,1.56c-3.33,0-6.15-2.43-6.15-6.51,0-3.18,1.83-6.06,6.33-6.06a8.536,8.536,0,0,1,5.22,1.98l2.52-3.93s-2.76-2.85-8.25-2.85A10.859,10.859,0,0,0,1.08,17.23Zm22.8,3.09c0,4.83,3.9,8.04,8.76,8.04s8.76-3.21,8.76-8.04c0-4.86-3.9-8.13-8.79-8.13C27.78,12.19,23.88,15.46,23.88,20.32Zm5.25,0a3.522,3.522,0,1,1,7.02,0,3.516,3.516,0,1,1-7.02,0ZM47.46,28h6.33l5.25-15.45H53.55l-2.37,8.22c-.3,1.02-.57,2.67-.57,2.67h-.06a26.38,26.38,0,0,0-.57-2.67l-2.4-8.22H42.12Zm12.39-7.74c0,4.11,2.97,8.1,8.49,8.1a10.433,10.433,0,0,0,6.6-2.25l-1.92-3.63a8.1,8.1,0,0,1-4.26,1.56,3.45,3.45,0,0,1-3.6-2.76h9.75s.12-1.11.12-1.62c0-4.29-2.58-7.47-7.14-7.47A7.691,7.691,0,0,0,59.85,20.26Zm5.43-1.95a2.533,2.533,0,0,1,2.49-2.22,2.1,2.1,0,0,1,2.04,2.22ZM77.85,28h5.19V22.15a7,7,0,0,1,.27-2.1,3.9,3.9,0,0,1,3.99-2.7,5.523,5.523,0,0,1,1.05.09v-5.1a3.508,3.508,0,0,0-.6-.06,5.362,5.362,0,0,0-4.92,3.84h-.06a8.176,8.176,0,0,0,.06-.96V12.55H77.85Zm12.9,0h5.19V21.16a6.2,6.2,0,0,1,.3-2.04A3.04,3.04,0,0,1,99.3,16.9c1.14,0,1.71.6,1.71,2.04V28h5.19V17.98c0-4.35-2.43-5.79-5.55-5.79a5.451,5.451,0,0,0-4.92,2.67h-.06a8.175,8.175,0,0,0,.06-.96V12.55H90.75Zm19.08,0h5.19V21.61a9.776,9.776,0,0,1,.15-1.92c.36-1.65,1.2-2.79,2.82-2.79.99,0,1.2.81,1.2,1.95V28h5.19V21.61a8.643,8.643,0,0,1,.12-1.8c.33-1.71,1.2-2.91,2.85-2.91.99,0,1.2.81,1.2,1.95V28h5.19V17.98c0-4.26-2.19-5.79-5.01-5.79a5.969,5.969,0,0,0-4.95,2.61h-.06a4.474,4.474,0,0,0-4.32-2.61,5.5,5.5,0,0,0-4.59,2.67h-.06a8.175,8.175,0,0,0,.06-.96V12.55h-4.98Zm26.43-7.74c0,4.11,2.97,8.1,8.49,8.1a10.433,10.433,0,0,0,6.6-2.25l-1.92-3.63a8.1,8.1,0,0,1-4.26,1.56,3.45,3.45,0,0,1-3.6-2.76h9.75s.12-1.11.12-1.62c0-4.29-2.58-7.47-7.14-7.47A7.691,7.691,0,0,0,136.26,20.26Zm5.43-1.95a2.533,2.533,0,0,1,2.49-2.22,2.1,2.1,0,0,1,2.04,2.22ZM154.26,28h5.19V21.16a6.2,6.2,0,0,1,.3-2.04,3.04,3.04,0,0,1,3.06-2.22c1.14,0,1.71.6,1.71,2.04V28h5.19V17.98c0-4.35-2.43-5.79-5.55-5.79a5.451,5.451,0,0,0-4.92,2.67h-.06a8.176,8.176,0,0,0,.06-.96V12.55h-4.98Zm19.86-5.7c0,5.19,4.77,5.85,7.23,5.85a9.988,9.988,0,0,0,1.41-.09v-4.5s-.27.03-.69.03c-.99,0-2.76-.24-2.76-1.98V16.87h3.24V12.82h-3.24V8.38h-5.04v4.44h-2.13v4.05h1.98ZM193.26,28h5.25V6.55h-5.25Zm9.69,0h5.19V21.16a6.2,6.2,0,0,1,.3-2.04,3.04,3.04,0,0,1,3.06-2.22c1.14,0,1.71.6,1.71,2.04V28h5.19V17.98c0-4.35-2.43-5.79-5.55-5.79a5.451,5.451,0,0,0-4.92,2.67h-.06a8.176,8.176,0,0,0,.06-.96V12.55h-4.98Zm17.94-7.74c0,4.26,3.09,8.1,8.61,8.1a9.3,9.3,0,0,0,6.63-2.55l-1.89-3.63a7.543,7.543,0,0,1-4.23,1.86,3.733,3.733,0,0,1-3.87-3.84,3.553,3.553,0,0,1,3.69-3.69,5.629,5.629,0,0,1,3.63,1.5l2.19-3.48a8.143,8.143,0,0,0-6.15-2.34C223.95,12.19,220.89,16.12,220.89,20.26Zm16.53.06c0,4.83,3.9,8.04,8.76,8.04s8.76-3.21,8.76-8.04c0-4.86-3.9-8.13-8.79-8.13C241.32,12.19,237.42,15.46,237.42,20.32Zm5.25,0a3.522,3.522,0,1,1,7.02,0,3.516,3.516,0,1,1-7.02,0ZM257.64,28h5.19V21.61a9.776,9.776,0,0,1,.15-1.92c.36-1.65,1.2-2.79,2.82-2.79.99,0,1.2.81,1.2,1.95V28h5.19V21.61a8.643,8.643,0,0,1,.12-1.8c.33-1.71,1.2-2.91,2.85-2.91.99,0,1.2.81,1.2,1.95V28h5.19V17.98c0-4.26-2.19-5.79-5.01-5.79a5.969,5.969,0,0,0-4.95,2.61h-.06a4.474,4.474,0,0,0-4.32-2.61,5.5,5.5,0,0,0-4.59,2.67h-.06a8.176,8.176,0,0,0,.06-.96V12.55h-4.98Zm26.43-7.74c0,4.11,2.97,8.1,8.49,8.1a10.433,10.433,0,0,0,6.6-2.25l-1.92-3.63a8.1,8.1,0,0,1-4.26,1.56,3.45,3.45,0,0,1-3.6-2.76h9.75s.12-1.11.12-1.62c0-4.29-2.58-7.47-7.14-7.47A7.691,7.691,0,0,0,284.07,20.26Zm5.43-1.95a2.533,2.533,0,0,1,2.49-2.22,2.1,2.1,0,0,1,2.04,2.22ZM308.7,28h14.85V23.5h-9.12c.15-2.76,8.79-4.05,8.79-10.74,0-4.56-3.81-6.57-7.32-6.57a8.272,8.272,0,0,0-7.56,4.62l3.9,2.61s1.14-2.28,3.18-2.28a2.119,2.119,0,0,1,2.31,2.13c0,3.09-9.27,4.5-9.27,12.42A13.144,13.144,0,0,0,308.7,28Zm25.95.36c6.09,0,8.07-4.98,8.07-11.13s-1.98-11.04-8.07-11.04-8.07,4.89-8.07,11.04S328.56,28.36,334.65,28.36Zm0-4.8c-2.07,0-2.67-2.82-2.67-6.33,0-3.48.6-6.24,2.67-6.24s2.67,2.76,2.67,6.24C337.32,20.74,336.72,23.56,334.65,23.56ZM345.93,28h14.85V23.5h-9.12c.15-2.76,8.79-4.05,8.79-10.74,0-4.56-3.81-6.57-7.32-6.57a8.272,8.272,0,0,0-7.56,4.62l3.9,2.61s1.14-2.28,3.18-2.28a2.119,2.119,0,0,1,2.31,2.13c0,3.09-9.27,4.5-9.27,12.42A13.144,13.144,0,0,0,345.93,28Zm25.95.36c6.09,0,8.07-4.98,8.07-11.13s-1.98-11.04-8.07-11.04-8.07,4.89-8.07,11.04S365.79,28.36,371.88,28.36Zm0-4.8c-2.07,0-2.67-2.82-2.67-6.33,0-3.48.6-6.24,2.67-6.24s2.67,2.76,2.67,6.24C374.55,20.74,373.95,23.56,371.88,23.56Z" transform="translate(113 3487)" fill="#2562a0"/>
    <path id="Path_3179" data-name="Path 3179" d="M6.536,15h2.8V3.56h-2.8ZM11.7,15h2.768V11.352a3.309,3.309,0,0,1,.16-1.088A1.622,1.622,0,0,1,16.264,9.08c.608,0,.912.32.912,1.088V15h2.768V9.656c0-2.32-1.3-3.088-2.96-3.088A2.907,2.907,0,0,0,14.36,7.992h-.032a4.36,4.36,0,0,0,.032-.512V6.76H11.7Zm9.568-4.128a4.285,4.285,0,0,0,4.592,4.32,4.957,4.957,0,0,0,3.536-1.36L28.392,11.9a4.023,4.023,0,0,1-2.256.992,1.991,1.991,0,0,1-2.064-2.048A1.9,1.9,0,0,1,26.04,8.872a3,3,0,0,1,1.936.8l1.168-1.856a4.343,4.343,0,0,0-3.28-1.248A4.3,4.3,0,0,0,21.272,10.872Zm8.816.032a4.356,4.356,0,0,0,4.672,4.288,4.326,4.326,0,1,0-.016-8.624A4.379,4.379,0,0,0,30.088,10.9Zm2.8,0a1.878,1.878,0,1,1,3.744,0,1.875,1.875,0,1,1-3.744,0ZM40.872,15H43.64V11.592a5.214,5.214,0,0,1,.08-1.024c.192-.88.64-1.488,1.5-1.488.528,0,.64.432.64,1.04V15h2.768V11.592a4.609,4.609,0,0,1,.064-.96c.176-.912.64-1.552,1.52-1.552.528,0,.64.432.64,1.04V15h2.768V9.656c0-2.272-1.168-3.088-2.672-3.088a3.183,3.183,0,0,0-2.64,1.392H48.28a2.386,2.386,0,0,0-2.3-1.392,2.932,2.932,0,0,0-2.448,1.424H43.5a4.36,4.36,0,0,0,.032-.512V6.76H40.872Zm14.1-4.128a4.273,4.273,0,0,0,4.528,4.32,5.564,5.564,0,0,0,3.52-1.2l-1.024-1.936a4.32,4.32,0,0,1-2.272.832,1.84,1.84,0,0,1-1.92-1.472H63s.064-.592.064-.864a3.658,3.658,0,0,0-3.808-3.984A4.1,4.1,0,0,0,54.968,10.872Zm2.9-1.04a1.351,1.351,0,0,1,1.328-1.184A1.122,1.122,0,0,1,60.28,9.832ZM70.744,15h2.8V5.96h3.472V3.56H67.272v2.4h3.472Zm6.112-2.464a2.636,2.636,0,0,0,2.8,2.656,2.564,2.564,0,0,0,2.336-1.2h.032a4.361,4.361,0,0,0-.032.512V15H84.52V9.928c0-2.1-1.392-3.36-3.712-3.36A6.232,6.232,0,0,0,77.352,7.64l.96,1.952a4.918,4.918,0,0,1,2.224-.784c.688,0,1.216.224,1.216.912v.144H81.64C80.36,9.864,76.856,10.136,76.856,12.536Zm2.784-.144c0-.688,1.008-.944,1.888-.944h.256v.176a1.528,1.528,0,0,1-1.36,1.456C79.88,13.08,79.64,12.776,79.64,12.392ZM85.656,15H88.7l.976-1.856c.08-.144.192-.416.192-.416H89.9s.112.272.192.416L91.08,15h3.04l-2.592-4.08,2.64-4.16h-3.12l-.9,1.84c-.1.208-.256.544-.256.544h-.032s-.144-.336-.256-.544l-.9-1.84h-3.12l2.656,4.16Zm9.008-4.128a4.273,4.273,0,0,0,4.528,4.32,5.564,5.564,0,0,0,3.52-1.2l-1.024-1.936a4.32,4.32,0,0,1-2.272.832,1.84,1.84,0,0,1-1.92-1.472h5.2s.064-.592.064-.864a3.658,3.658,0,0,0-3.808-3.984A4.1,4.1,0,0,0,94.664,10.872Zm2.9-1.04a1.351,1.351,0,0,1,1.328-1.184,1.122,1.122,0,0,1,1.088,1.184Zm6.064,4.144a4.962,4.962,0,0,0,3.3,1.216c2.128,0,3.376-1.2,3.376-2.608,0-2.656-3.856-2.752-3.856-3.376,0-.288.4-.4.816-.4a3.291,3.291,0,0,1,1.952.672l.944-1.968a4.314,4.314,0,0,0-2.9-.944c-1.9,0-3.392.96-3.392,2.512,0,2.688,3.856,2.768,3.856,3.488,0,.272-.4.384-.816.384a3.467,3.467,0,0,1-2.1-.832Zm11.888-2.528h9.536V9.368h-9.536Zm14.88,2.24a5.514,5.514,0,0,0,3.9,1.5,4,4,0,0,0,4.24-4.08c0-2.064-1.376-3.76-4.1-3.76a3.494,3.494,0,0,0-.832.112h-.032a1.872,1.872,0,0,0,.064-.448L133.7,5.96h3.968V3.56h-6.4l-.464,5.984,1.488.56a3.33,3.33,0,0,1,1.536-.384c1.04,0,1.824.528,1.824,1.424a1.482,1.482,0,0,1-1.6,1.408,3.773,3.773,0,0,1-2.32-1.024Zm13.856,1.5c3.248,0,4.3-2.656,4.3-5.936s-1.056-5.888-4.3-5.888-4.3,2.608-4.3,5.888S141,15.192,144.248,15.192Zm0-2.56c-1.1,0-1.424-1.5-1.424-3.376,0-1.856.32-3.328,1.424-3.328s1.424,1.472,1.424,3.328C145.672,11.128,145.352,12.632,144.248,12.632Zm8.48-3.744a2.816,2.816,0,0,0,2.9-2.752,2.9,2.9,0,0,0-5.792,0A2.806,2.806,0,0,0,152.728,8.888ZM150.472,15H152.9l8.832-11.44H159.3Zm2.256-8.032a.841.841,0,1,1,.88-.848A.861.861,0,0,1,152.728,6.968Zm3.936,5.472a2.9,2.9,0,0,0,5.792,0,2.9,2.9,0,0,0-5.792,0Zm2.016-.016a.881.881,0,1,1,.88.848A.869.869,0,0,1,158.68,12.424Z" transform="translate(-313 3792)" fill="#908f93"/>
    <path id="Path_3174" data-name="Path 3174" d="M.5,13.56a5.906,5.906,0,0,0,4.176,1.632c2.576,0,4.032-1.648,4.032-3.552,0-3.616-5.152-3.36-5.152-4.8,0-.64.64-.9,1.216-.9A4.365,4.365,0,0,1,7.3,6.952L8.48,4.664a5.189,5.189,0,0,0-3.68-1.3C2.528,3.368.752,4.76.752,6.872c0,3.52,5.152,3.472,5.152,4.832,0,.688-.624.912-1.2.912a4.741,4.741,0,0,1-2.736-1.184ZM9.7,10.9a4.356,4.356,0,0,0,4.672,4.288,4.326,4.326,0,1,0-.016-8.624A4.379,4.379,0,0,0,9.7,10.9Zm2.8,0a1.878,1.878,0,1,1,3.744,0,1.875,1.875,0,1,1-3.744,0Zm7.376-.032a4.285,4.285,0,0,0,4.592,4.32A4.957,4.957,0,0,0,28,13.832L26.992,11.9a4.023,4.023,0,0,1-2.256.992,1.991,1.991,0,0,1-2.064-2.048A1.9,1.9,0,0,1,24.64,8.872a3,3,0,0,1,1.936.8l1.168-1.856a4.343,4.343,0,0,0-3.28-1.248A4.3,4.3,0,0,0,19.872,10.872ZM29.328,5.72h2.7V3.56h-2.7ZM29.3,15h2.768V6.76H29.3Zm4.192-2.464a2.636,2.636,0,0,0,2.8,2.656,2.564,2.564,0,0,0,2.336-1.2h.032a4.36,4.36,0,0,0-.032.512V15h2.528V9.928c0-2.1-1.392-3.36-3.712-3.36A6.232,6.232,0,0,0,33.984,7.64l.96,1.952a4.918,4.918,0,0,1,2.224-.784c.688,0,1.216.224,1.216.912v.144h-.112C36.992,9.864,33.488,10.136,33.488,12.536Zm2.784-.144c0-.688,1.008-.944,1.888-.944h.256v.176a1.528,1.528,0,0,1-1.36,1.456C36.512,13.08,36.272,12.776,36.272,12.392Zm6.688-.432c0,2.768,1.568,3.12,3.04,3.12a7.525,7.525,0,0,0,.832-.048v-2.4s-.16.016-.336.016c-.624,0-.768-.272-.768-1.056V3.56H42.96Zm8.416,1.6a5.906,5.906,0,0,0,4.176,1.632c2.576,0,4.032-1.648,4.032-3.552,0-3.616-5.152-3.36-5.152-4.8,0-.64.64-.9,1.216-.9a4.365,4.365,0,0,1,2.528,1.008L59.36,4.664a5.189,5.189,0,0,0-3.68-1.3c-2.272,0-4.048,1.392-4.048,3.5,0,3.52,5.152,3.472,5.152,4.832,0,.688-.624.912-1.2.912a4.741,4.741,0,0,1-2.736-1.184Zm9.216-2.688a4.273,4.273,0,0,0,4.528,4.32,5.564,5.564,0,0,0,3.52-1.2l-1.024-1.936a4.32,4.32,0,0,1-2.272.832,1.84,1.84,0,0,1-1.92-1.472h5.2s.064-.592.064-.864A3.658,3.658,0,0,0,64.88,6.568,4.1,4.1,0,0,0,60.592,10.872Zm2.9-1.04a1.351,1.351,0,0,1,1.328-1.184A1.122,1.122,0,0,1,65.9,9.832Zm6.1,1.04a4.285,4.285,0,0,0,4.592,4.32,4.957,4.957,0,0,0,3.536-1.36L76.7,11.9a4.023,4.023,0,0,1-2.256.992,1.991,1.991,0,0,1-2.064-2.048,1.9,1.9,0,0,1,1.968-1.968,3,3,0,0,1,1.936.8l1.168-1.856a4.343,4.343,0,0,0-3.28-1.248A4.3,4.3,0,0,0,69.584,10.872ZM78.9,12.1c0,2.32,1.3,3.088,2.928,3.088A2.856,2.856,0,0,0,84.4,13.768h.032a4.361,4.361,0,0,0-.032.512V15h2.656V6.76H84.288v3.648c0,1.232-.56,2.272-1.744,2.272-.576,0-.88-.32-.88-1.088V6.76H78.9ZM89.1,15h2.768V11.88a3.736,3.736,0,0,1,.144-1.12,2.08,2.08,0,0,1,2.128-1.44,2.945,2.945,0,0,1,.56.048V6.648a1.871,1.871,0,0,0-.32-.032A2.86,2.86,0,0,0,91.76,8.664h-.032a4.36,4.36,0,0,0,.032-.512V6.76H89.1Zm6.912-9.28h2.7V3.56h-2.7ZM95.984,15h2.768V6.76H95.984Zm5.232-3.04c0,2.768,2.544,3.12,3.856,3.12a5.327,5.327,0,0,0,.752-.048v-2.4s-.144.016-.368.016c-.528,0-1.472-.128-1.472-1.056V9.064h1.728V6.9h-1.728V4.536H101.3V6.9H100.16v2.16h1.056Zm5.216,5.824a3.712,3.712,0,0,0,1.92.576,3.549,3.549,0,0,0,3.44-2.48l3.376-9.12h-3.024L111.1,10.6c-.112.448-.272,1.232-.272,1.232H110.8s-.16-.832-.3-1.28L109.28,6.76h-3.136l3.5,8.08-.16.384a1.316,1.316,0,0,1-1.328.832,1.838,1.838,0,0,1-.848-.3Zm13.008-6.1c0,1.952,1.648,3.5,4.256,3.5,2.8,0,4.368-1.664,4.368-3.712v-1.1h1.424v-2.4h-1.424V6.568h-2.752V7.976H123.92a1.084,1.084,0,0,1-1.168-1.1,1.174,1.174,0,0,1,1.328-1.184,3.224,3.224,0,0,1,.624.064l.64-2.192a8.224,8.224,0,0,0-1.648-.192c-1.9,0-3.776.864-3.776,3.088a2.633,2.633,0,0,0,1.344,2.464v.032A2.99,2.99,0,0,0,119.44,11.688Zm2.864-.176c0-.864.7-1.136,1.44-1.136h1.568v.944c0,.752-.56,1.328-1.616,1.328A1.276,1.276,0,0,1,122.3,11.512ZM.992,34H3.808l.352-5.152a17.028,17.028,0,0,0,0-1.92h.032s.384,1.2.64,1.92l1.2,3.312h2.4l1.2-3.312c.256-.72.64-1.92.64-1.92H10.3a17.028,17.028,0,0,0,0,1.92L10.656,34h2.8l-.928-11.44H9.488L7.824,27.392c-.256.736-.576,1.888-.576,1.888H7.216s-.32-1.152-.576-1.888L4.976,22.56H1.936ZM14.88,29.872a4.273,4.273,0,0,0,4.528,4.32,5.564,5.564,0,0,0,3.52-1.2L21.9,31.056a4.32,4.32,0,0,1-2.272.832,1.84,1.84,0,0,1-1.92-1.472h5.2s.064-.592.064-.864a3.658,3.658,0,0,0-3.808-3.984A4.1,4.1,0,0,0,14.88,29.872Zm2.9-1.04A1.351,1.351,0,0,1,19.1,27.648a1.122,1.122,0,0,1,1.088,1.184Zm6.144,1.04c0,2.56,1.472,4.32,3.712,4.32a2.752,2.752,0,0,0,2.384-1.2h.032s-.016.208-.016.464V34h2.592V22.56H29.856v3.3c0,.208.016.368.016.368H29.84s-.5-.656-2.16-.656C25.488,25.568,23.92,27.264,23.92,29.872Zm2.784,0c0-1.264.752-1.968,1.616-1.968,1.088,0,1.616.976,1.616,1.968,0,1.424-.784,2.032-1.616,2.032C27.36,31.9,26.7,31.1,26.7,29.872Zm8-5.152h2.7V22.56H34.7ZM34.672,34H37.44V25.76H34.672Zm4.208-4.128a4.285,4.285,0,0,0,4.592,4.32,4.957,4.957,0,0,0,3.536-1.36L46,30.9a4.023,4.023,0,0,1-2.256.992A1.991,1.991,0,0,1,41.68,29.84a1.9,1.9,0,0,1,1.968-1.968,3,3,0,0,1,1.936.8l1.168-1.856a4.343,4.343,0,0,0-3.28-1.248A4.3,4.3,0,0,0,38.88,29.872Zm8.8,1.664a2.636,2.636,0,0,0,2.8,2.656,2.564,2.564,0,0,0,2.336-1.2h.032a4.36,4.36,0,0,0-.032.512V34h2.528V28.928c0-2.1-1.392-3.36-3.712-3.36a6.232,6.232,0,0,0-3.456,1.072l.96,1.952a4.918,4.918,0,0,1,2.224-.784c.688,0,1.216.224,1.216.912v.144h-.112C51.184,28.864,47.68,29.136,47.68,31.536Zm2.784-.144c0-.688,1.008-.944,1.888-.944h.256v.176a1.528,1.528,0,0,1-1.36,1.456C50.7,32.08,50.464,31.776,50.464,31.392ZM57.264,34h2.768V30.88a3.736,3.736,0,0,1,.144-1.12A2.08,2.08,0,0,1,62.3,28.32a2.945,2.945,0,0,1,.56.048v-2.72a1.871,1.871,0,0,0-.32-.032,2.86,2.86,0,0,0-2.624,2.048h-.032a4.36,4.36,0,0,0,.032-.512V25.76H57.264Zm6.288-4.128a4.273,4.273,0,0,0,4.528,4.32,5.564,5.564,0,0,0,3.52-1.2l-1.024-1.936a4.32,4.32,0,0,1-2.272.832,1.84,1.84,0,0,1-1.92-1.472h5.2s.064-.592.064-.864a3.658,3.658,0,0,0-3.808-3.984A4.1,4.1,0,0,0,63.552,29.872Zm2.9-1.04a1.351,1.351,0,0,1,1.328-1.184,1.122,1.122,0,0,1,1.088,1.184ZM79.328,34h2.8V24.96H85.6v-2.4H75.856v2.4h3.472Zm6.112-2.464a2.636,2.636,0,0,0,2.8,2.656,2.564,2.564,0,0,0,2.336-1.2h.032a4.36,4.36,0,0,0-.032.512V34H93.1V28.928c0-2.1-1.392-3.36-3.712-3.36a6.232,6.232,0,0,0-3.456,1.072l.96,1.952a4.918,4.918,0,0,1,2.224-.784c.688,0,1.216.224,1.216.912v.144h-.112C88.944,28.864,85.44,29.136,85.44,31.536Zm2.784-.144c0-.688,1.008-.944,1.888-.944h.256v.176a1.528,1.528,0,0,1-1.36,1.456C88.464,32.08,88.224,31.776,88.224,31.392ZM94.24,34h3.04l.976-1.856c.08-.144.192-.416.192-.416h.032s.112.272.192.416L99.664,34h3.04l-2.592-4.08,2.64-4.16h-3.12l-.9,1.84c-.1.208-.256.544-.256.544h-.032s-.144-.336-.256-.544l-.9-1.84h-3.12l2.656,4.16Zm9.008-4.128a4.273,4.273,0,0,0,4.528,4.32,5.564,5.564,0,0,0,3.52-1.2l-1.024-1.936a4.32,4.32,0,0,1-2.272.832,1.84,1.84,0,0,1-1.92-1.472h5.2s.064-.592.064-.864a3.658,3.658,0,0,0-3.808-3.984A4.1,4.1,0,0,0,103.248,29.872Zm2.9-1.04a1.351,1.351,0,0,1,1.328-1.184,1.122,1.122,0,0,1,1.088,1.184Zm6.064,4.144a4.962,4.962,0,0,0,3.3,1.216c2.128,0,3.376-1.2,3.376-2.608,0-2.656-3.856-2.752-3.856-3.376,0-.288.4-.4.816-.4a3.291,3.291,0,0,1,1.952.672l.944-1.968a4.314,4.314,0,0,0-2.9-.944c-1.9,0-3.392.96-3.392,2.512,0,2.688,3.856,2.768,3.856,3.488,0,.272-.4.384-.816.384a3.467,3.467,0,0,1-2.1-.832ZM124.1,30.448h9.536v-2.08H124.1Zm14.752,2.24a5.424,5.424,0,0,0,3.9,1.5,3.89,3.89,0,0,0,4.24-3.9,3.36,3.36,0,0,0-2.768-3.312l2.32-2.672V22.56h-7.216v2.4h2.736a5.7,5.7,0,0,0,1.088-.08v.032a12.445,12.445,0,0,0-.992,1.072l-1.5,1.808.592,1.36h.8c1.232,0,2.128.368,2.128,1.264,0,.624-.592,1.136-1.632,1.136a3.741,3.741,0,0,1-2.352-1.024Zm14.288,1.5a3.8,3.8,0,0,0,3.9-3.856,3.753,3.753,0,0,0-3.744-3.92,3.46,3.46,0,0,0-1.568.4H151.7a2.5,2.5,0,0,1,2.464-1.888,4.358,4.358,0,0,1,1.568.336l.752-2.4a5.769,5.769,0,0,0-2.528-.5c-3.552,0-5.456,3.248-5.456,6.352C148.5,32.448,150.832,34.192,153.136,34.192Zm0-2.56a2.121,2.121,0,0,1-1.76-2.272c0-.528.544-.688,1.184-.688a1.6,1.6,0,0,1,1.728,1.68A1.2,1.2,0,0,1,153.136,31.632Zm7.888-3.744a2.816,2.816,0,0,0,2.9-2.752,2.9,2.9,0,0,0-5.792,0A2.806,2.806,0,0,0,161.024,27.888ZM158.768,34H161.2l8.832-11.44H167.6Zm2.256-8.032a.841.841,0,1,1,.88-.848A.861.861,0,0,1,161.024,25.968Zm3.936,5.472a2.9,2.9,0,0,0,5.792,0,2.9,2.9,0,0,0-5.792,0Zm2.016-.016a.881.881,0,1,1,.88.848A.869.869,0,0,1,166.976,31.424Z" transform="translate(392 3669)" fill="#908f93"/>
    <path id="Path_3175" data-name="Path 3175" d="M.56,9.256a5.739,5.739,0,0,0,6,5.936,6.277,6.277,0,0,0,4.608-1.92l-1.44-2.048a4.69,4.69,0,0,1-3.04,1.408,3.254,3.254,0,0,1-3.232-3.44A3.092,3.092,0,0,1,6.688,5.928,4.8,4.8,0,0,1,9.552,7.1l1.3-2.112A5.961,5.961,0,0,0,6.56,3.368,5.82,5.82,0,0,0,.56,9.256ZM11.936,10.9a4.356,4.356,0,0,0,4.672,4.288,4.326,4.326,0,1,0-.016-8.624A4.379,4.379,0,0,0,11.936,10.9Zm2.8,0a1.878,1.878,0,1,1,3.744,0,1.875,1.875,0,1,1-3.744,0ZM22.72,15h2.768V11.88a3.736,3.736,0,0,1,.144-1.12A2.08,2.08,0,0,1,27.76,9.32a2.945,2.945,0,0,1,.56.048V6.648A1.871,1.871,0,0,0,28,6.616a2.86,2.86,0,0,0-2.624,2.048h-.032a4.36,4.36,0,0,0,.032-.512V6.76H22.72Zm6.88,3.2h2.768V15.112c0-.416-.032-.7-.032-.7h.032a3.039,3.039,0,0,0,2.1.784c2.192,0,3.84-1.7,3.84-4.3,0-2.56-1.472-4.32-3.712-4.32A3.011,3.011,0,0,0,32.1,7.7h-.032a4.832,4.832,0,0,0,.032-.528V6.76H29.6Zm2.688-7.264c0-1.424.784-2.032,1.616-2.032.96,0,1.616.8,1.616,2.032,0,1.264-.752,1.968-1.616,1.968C32.816,12.9,32.288,11.928,32.288,10.936Zm6.9-.032a4.356,4.356,0,0,0,4.672,4.288,4.326,4.326,0,1,0-.016-8.624A4.379,4.379,0,0,0,39.184,10.9Zm2.8,0a1.878,1.878,0,1,1,3.744,0,1.875,1.875,0,1,1-3.744,0ZM49.968,15h2.768V11.88a3.736,3.736,0,0,1,.144-1.12,2.08,2.08,0,0,1,2.128-1.44,2.945,2.945,0,0,1,.56.048V6.648a1.871,1.871,0,0,0-.32-.032,2.86,2.86,0,0,0-2.624,2.048h-.032a4.36,4.36,0,0,0,.032-.512V6.76H49.968Zm6.256-2.464a2.636,2.636,0,0,0,2.8,2.656,2.564,2.564,0,0,0,2.336-1.2h.032a4.36,4.36,0,0,0-.032.512V15h2.528V9.928c0-2.1-1.392-3.36-3.712-3.36A6.232,6.232,0,0,0,56.72,7.64l.96,1.952A4.918,4.918,0,0,1,59.9,8.808c.688,0,1.216.224,1.216.912v.144h-.112C59.728,9.864,56.224,10.136,56.224,12.536Zm2.784-.144c0-.688,1.008-.944,1.888-.944h.256v.176a1.528,1.528,0,0,1-1.36,1.456C59.248,13.08,59.008,12.776,59.008,12.392Zm7.216-.432c0,2.768,2.544,3.12,3.856,3.12a5.327,5.327,0,0,0,.752-.048v-2.4s-.144.016-.368.016c-.528,0-1.472-.128-1.472-1.056V9.064H70.72V6.9H68.992V4.536H66.3V6.9H65.168v2.16h1.056Zm5.632-1.088a4.273,4.273,0,0,0,4.528,4.32,5.564,5.564,0,0,0,3.52-1.2L78.88,12.056a4.32,4.32,0,0,1-2.272.832,1.84,1.84,0,0,1-1.92-1.472h5.2s.064-.592.064-.864a3.658,3.658,0,0,0-3.808-3.984A4.1,4.1,0,0,0,71.856,10.872Zm2.9-1.04A1.351,1.351,0,0,1,76.08,8.648a1.122,1.122,0,0,1,1.088,1.184ZM87.632,15h2.8V5.96H93.9V3.56H84.16v2.4h3.472Zm6.112-2.464a2.636,2.636,0,0,0,2.8,2.656,2.564,2.564,0,0,0,2.336-1.2h.032a4.361,4.361,0,0,0-.032.512V15h2.528V9.928c0-2.1-1.392-3.36-3.712-3.36A6.232,6.232,0,0,0,94.24,7.64l.96,1.952a4.918,4.918,0,0,1,2.224-.784c.688,0,1.216.224,1.216.912v.144h-.112C97.248,9.864,93.744,10.136,93.744,12.536Zm2.784-.144c0-.688,1.008-.944,1.888-.944h.256v.176a1.528,1.528,0,0,1-1.36,1.456C96.768,13.08,96.528,12.776,96.528,12.392ZM102.544,15h3.04l.976-1.856c.08-.144.192-.416.192-.416h.032s.112.272.192.416L107.968,15h3.04l-2.592-4.08,2.64-4.16h-3.12l-.9,1.84c-.1.208-.256.544-.256.544h-.032s-.144-.336-.256-.544l-.9-1.84h-3.12l2.656,4.16Zm9.008-4.128a4.273,4.273,0,0,0,4.528,4.32,5.564,5.564,0,0,0,3.52-1.2l-1.024-1.936a4.32,4.32,0,0,1-2.272.832,1.84,1.84,0,0,1-1.92-1.472h5.2s.064-.592.064-.864a3.658,3.658,0,0,0-3.808-3.984A4.1,4.1,0,0,0,111.552,10.872Zm2.9-1.04a1.351,1.351,0,0,1,1.328-1.184,1.122,1.122,0,0,1,1.088,1.184Zm6.064,4.144a4.962,4.962,0,0,0,3.3,1.216c2.128,0,3.376-1.2,3.376-2.608,0-2.656-3.856-2.752-3.856-3.376,0-.288.4-.4.816-.4a3.291,3.291,0,0,1,1.952.672l.944-1.968a4.314,4.314,0,0,0-2.9-.944c-1.9,0-3.392.96-3.392,2.512,0,2.688,3.856,2.768,3.856,3.488,0,.272-.4.384-.816.384a3.467,3.467,0,0,1-2.1-.832ZM132.4,11.448h9.536V9.368H132.4ZM147.712,15h2.912l4.8-9.488V3.56h-8.208v2.4h4.512a3.2,3.2,0,0,0,.736-.048v.032a3.2,3.2,0,0,0-.736,1.04ZM159.1,8.888A2.816,2.816,0,0,0,162,6.136a2.9,2.9,0,0,0-5.792,0A2.806,2.806,0,0,0,159.1,8.888ZM156.848,15h2.432l8.832-11.44H165.68ZM159.1,6.968a.841.841,0,1,1,.88-.848A.861.861,0,0,1,159.1,6.968Zm3.936,5.472a2.9,2.9,0,0,0,5.792,0,2.9,2.9,0,0,0-5.792,0Zm2.016-.016a.881.881,0,1,1,.88.848A.869.869,0,0,1,165.056,12.424Z" transform="translate(319 3987)" fill="#a71303"/>
    <path id="Path_3177" data-name="Path 3177" d="M3.536,15h2.8V5.96H9.808V3.56H.064v2.4H3.536Zm6.112-2.464a2.636,2.636,0,0,0,2.8,2.656,2.564,2.564,0,0,0,2.336-1.2h.032a4.36,4.36,0,0,0-.032.512V15h2.528V9.928c0-2.1-1.392-3.36-3.712-3.36A6.232,6.232,0,0,0,10.144,7.64l.96,1.952a4.918,4.918,0,0,1,2.224-.784c.688,0,1.216.224,1.216.912v.144h-.112C13.152,9.864,9.648,10.136,9.648,12.536Zm2.784-.144c0-.688,1.008-.944,1.888-.944h.256v.176a1.528,1.528,0,0,1-1.36,1.456C12.672,13.08,12.432,12.776,12.432,12.392ZM19.232,15H22V11.88a3.736,3.736,0,0,1,.144-1.12,2.08,2.08,0,0,1,2.128-1.44,2.945,2.945,0,0,1,.56.048V6.648a1.871,1.871,0,0,0-.32-.032,2.86,2.86,0,0,0-2.624,2.048h-.032a4.36,4.36,0,0,0,.032-.512V6.76H19.232Zm6.912-9.28h2.7V3.56h-2.7ZM26.112,15H28.88V6.76H26.112Zm11.472,0h2.768V8.92h1.52V6.76h-1.52V6.648c0-.7.848-.8,1.392-.8a3.021,3.021,0,0,1,.448.032V3.544A6.5,6.5,0,0,0,41.36,3.5c-1.328,0-3.776.368-3.776,3.072V6.76H34.208V6.648c0-.7.848-.8,1.392-.8a3.021,3.021,0,0,1,.448.032V3.544a6.5,6.5,0,0,0-.832-.048c-1.328,0-3.776.368-3.776,3.072V6.76H30.432V8.92H31.44V15h2.768V8.92h3.376Zm4.992-1.024a4.962,4.962,0,0,0,3.3,1.216c2.128,0,3.376-1.2,3.376-2.608,0-2.656-3.856-2.752-3.856-3.376,0-.288.4-.4.816-.4a3.291,3.291,0,0,1,1.952.672L49.1,7.512a4.314,4.314,0,0,0-2.9-.944c-1.9,0-3.392.96-3.392,2.512,0,2.688,3.856,2.768,3.856,3.488,0,.272-.4.384-.816.384a3.467,3.467,0,0,1-2.1-.832Zm11.888-2.528H64V9.368H54.464Zm14.688.784h5.072V15h2.768V12.232h1.36V9.912h-1.36V3.56H73.568l-4.416,6.976ZM72,9.912V9.88l1.728-2.624a6.1,6.1,0,0,0,.56-1.184h.032a10.224,10.224,0,0,0-.1,1.28v2.56ZM82.4,8.888a2.816,2.816,0,0,0,2.9-2.752,2.9,2.9,0,0,0-5.792,0A2.806,2.806,0,0,0,82.4,8.888ZM80.144,15h2.432L91.408,3.56H88.976ZM82.4,6.968a.841.841,0,1,1,.88-.848A.861.861,0,0,1,82.4,6.968Zm3.936,5.472a2.9,2.9,0,0,0,5.792,0,2.9,2.9,0,0,0-5.792,0Zm2.016-.016a.881.881,0,1,1,.88.848A.869.869,0,0,1,88.352,12.424Z" transform="translate(233 4045)" fill="#908f93"/>
    <path id="Path_3178" data-name="Path 3178" d="M19.752,15h2.8V3.56h-2.8Zm5.168,0h2.768V11.352a3.309,3.309,0,0,1,.16-1.088A1.622,1.622,0,0,1,29.48,9.08c.608,0,.912.32.912,1.088V15H33.16V9.656c0-2.32-1.3-3.088-2.96-3.088a2.907,2.907,0,0,0-2.624,1.424h-.032a4.36,4.36,0,0,0,.032-.512V6.76H24.92Zm10.592-3.04c0,2.768,2.544,3.12,3.856,3.12a5.327,5.327,0,0,0,.752-.048v-2.4s-.144.016-.368.016c-.528,0-1.472-.128-1.472-1.056V9.064h1.728V6.9H38.28V4.536H35.592V6.9H34.456v2.16h1.056Zm5.632-1.088a4.273,4.273,0,0,0,4.528,4.32,5.564,5.564,0,0,0,3.52-1.2l-1.024-1.936a4.32,4.32,0,0,1-2.272.832,1.84,1.84,0,0,1-1.92-1.472h5.2s.064-.592.064-.864a3.658,3.658,0,0,0-3.808-3.984A4.1,4.1,0,0,0,41.144,10.872Zm2.9-1.04a1.351,1.351,0,0,1,1.328-1.184,1.122,1.122,0,0,1,1.088,1.184ZM50.744,15h2.768V11.88a3.736,3.736,0,0,1,.144-1.12,2.08,2.08,0,0,1,2.128-1.44,2.945,2.945,0,0,1,.56.048V6.648a1.871,1.871,0,0,0-.32-.032A2.86,2.86,0,0,0,53.4,8.664h-.032a4.36,4.36,0,0,0,.032-.512V6.76H50.744Zm6.288-4.128a4.273,4.273,0,0,0,4.528,4.32,5.564,5.564,0,0,0,3.52-1.2l-1.024-1.936a4.32,4.32,0,0,1-2.272.832,1.84,1.84,0,0,1-1.92-1.472h5.2s.064-.592.064-.864A3.658,3.658,0,0,0,61.32,6.568,4.1,4.1,0,0,0,57.032,10.872Zm2.9-1.04a1.351,1.351,0,0,1,1.328-1.184,1.122,1.122,0,0,1,1.088,1.184Zm6.064,4.144a4.962,4.962,0,0,0,3.3,1.216c2.128,0,3.376-1.2,3.376-2.608,0-2.656-3.856-2.752-3.856-3.376,0-.288.4-.4.816-.4a3.291,3.291,0,0,1,1.952.672l.944-1.968a4.314,4.314,0,0,0-2.9-.944c-1.9,0-3.392.96-3.392,2.512,0,2.688,3.856,2.768,3.856,3.488,0,.272-.4.384-.816.384a3.467,3.467,0,0,1-2.1-.832Zm8.592-2.016c0,2.768,2.544,3.12,3.856,3.12a5.327,5.327,0,0,0,.752-.048v-2.4s-.144.016-.368.016c-.528,0-1.472-.128-1.472-1.056V9.064H79.08V6.9H77.352V4.536H74.664V6.9H73.528v2.16h1.056ZM84.984,15h2.768V9.064h1.52V6.9h-1.52V6.648c0-.7.848-.8,1.392-.8a3.021,3.021,0,0,1,.448.032V3.544A6.5,6.5,0,0,0,88.76,3.5c-1.328,0-3.776.368-3.776,3.072V6.9H83.976v2.16h1.008Zm5.632,0h2.768V11.88a3.736,3.736,0,0,1,.144-1.12,2.08,2.08,0,0,1,2.128-1.44,2.945,2.945,0,0,1,.56.048V6.648a1.871,1.871,0,0,0-.32-.032,2.86,2.86,0,0,0-2.624,2.048H93.24a4.36,4.36,0,0,0,.032-.512V6.76H90.616Zm6.272-4.1a4.685,4.685,0,1,0,4.656-4.336A4.356,4.356,0,0,0,96.888,10.9Zm2.8,0a1.878,1.878,0,1,1,3.744,0,1.875,1.875,0,1,1-3.744,0Zm7.984,4.1h2.768V11.592a5.214,5.214,0,0,1,.08-1.024c.192-.88.64-1.488,1.5-1.488.528,0,.64.432.64,1.04V15h2.768V11.592a4.61,4.61,0,0,1,.064-.96c.176-.912.64-1.552,1.52-1.552.528,0,.64.432.64,1.04V15h2.768V9.656c0-2.272-1.168-3.088-2.672-3.088a3.183,3.183,0,0,0-2.64,1.392h-.032a2.386,2.386,0,0,0-2.3-1.392,2.932,2.932,0,0,0-2.448,1.424H110.3a4.361,4.361,0,0,0,.032-.512V6.76h-2.656Zm18.672,0h2.8V10.76h3.488V8.36h-3.488V5.96h4.208V3.56h-7.008Zm7.872-4.128a4.273,4.273,0,0,0,4.528,4.32,5.564,5.564,0,0,0,3.52-1.2l-1.024-1.936a4.32,4.32,0,0,1-2.272.832,1.84,1.84,0,0,1-1.92-1.472h5.2s.064-.592.064-.864A3.658,3.658,0,0,0,138.5,6.568,4.1,4.1,0,0,0,134.216,10.872Zm2.9-1.04a1.351,1.351,0,0,1,1.328-1.184,1.122,1.122,0,0,1,1.088,1.184Zm6.144,1.04c0,2.56,1.472,4.32,3.712,4.32a2.752,2.752,0,0,0,2.384-1.2h.032s-.016.208-.016.464V15h2.592V3.56h-2.768v3.3c0,.208.016.368.016.368h-.032s-.5-.656-2.16-.656C144.824,6.568,143.256,8.264,143.256,10.872Zm2.784,0c0-1.264.752-1.968,1.616-1.968,1.088,0,1.616.976,1.616,1.968,0,1.424-.784,2.032-1.616,2.032C146.7,12.9,146.04,12.1,146.04,10.872Zm7.376,0a4.273,4.273,0,0,0,4.528,4.32,5.564,5.564,0,0,0,3.52-1.2l-1.024-1.936a4.32,4.32,0,0,1-2.272.832,1.84,1.84,0,0,1-1.92-1.472h5.2s.064-.592.064-.864A3.658,3.658,0,0,0,157.7,6.568,4.1,4.1,0,0,0,153.416,10.872Zm2.9-1.04a1.351,1.351,0,0,1,1.328-1.184,1.122,1.122,0,0,1,1.088,1.184Zm6.7,5.168h2.768V11.88a3.735,3.735,0,0,1,.144-1.12,2.08,2.08,0,0,1,2.128-1.44,2.945,2.945,0,0,1,.56.048V6.648a1.871,1.871,0,0,0-.32-.032,2.86,2.86,0,0,0-2.624,2.048h-.032a4.36,4.36,0,0,0,.032-.512V6.76h-2.656Zm6.256-2.464a2.636,2.636,0,0,0,2.8,2.656,2.564,2.564,0,0,0,2.336-1.2h.032a4.361,4.361,0,0,0-.032.512V15h2.528V9.928c0-2.1-1.392-3.36-3.712-3.36a6.232,6.232,0,0,0-3.456,1.072l.96,1.952a4.918,4.918,0,0,1,2.224-.784c.688,0,1.216.224,1.216.912v.144h-.112C172.776,9.864,169.272,10.136,169.272,12.536Zm2.784-.144c0-.688,1.008-.944,1.888-.944h.256v.176a1.528,1.528,0,0,1-1.36,1.456C172.3,13.08,172.056,12.776,172.056,12.392Zm6.688-.432c0,2.768,1.568,3.12,3.04,3.12a7.525,7.525,0,0,0,.832-.048v-2.4s-.16.016-.336.016c-.624,0-.768-.272-.768-1.056V3.56h-2.768ZM28.344,34h2.8V30.144h1.312L34.488,34h3.12l-2.224-4a6.557,6.557,0,0,0-.432-.688V29.28a3.483,3.483,0,0,0,1.712-3.12,3.326,3.326,0,0,0-2.112-3.328,5.919,5.919,0,0,0-2.224-.272H28.344Zm2.8-6.256V24.96h.944c1.408,0,1.728.512,1.728,1.376a1.309,1.309,0,0,1-1.456,1.408Zm7.168,2.128a4.273,4.273,0,0,0,4.528,4.32,5.564,5.564,0,0,0,3.52-1.2l-1.024-1.936a4.32,4.32,0,0,1-2.272.832,1.84,1.84,0,0,1-1.92-1.472h5.2s.064-.592.064-.864A3.658,3.658,0,0,0,42.6,25.568,4.1,4.1,0,0,0,38.312,29.872Zm2.9-1.04a1.351,1.351,0,0,1,1.328-1.184,1.122,1.122,0,0,1,1.088,1.184Zm6.064,4.144a4.962,4.962,0,0,0,3.3,1.216c2.128,0,3.376-1.2,3.376-2.608,0-2.656-3.856-2.752-3.856-3.376,0-.288.4-.4.816-.4a3.291,3.291,0,0,1,1.952.672l.944-1.968a4.314,4.314,0,0,0-2.9-.944c-1.9,0-3.392.96-3.392,2.512,0,2.688,3.856,2.768,3.856,3.488,0,.272-.4.384-.816.384a3.467,3.467,0,0,1-2.1-.832Zm7.584-3.1a4.273,4.273,0,0,0,4.528,4.32,5.564,5.564,0,0,0,3.52-1.2L61.88,31.056a4.32,4.32,0,0,1-2.272.832,1.84,1.84,0,0,1-1.92-1.472h5.2s.064-.592.064-.864a3.658,3.658,0,0,0-3.808-3.984A4.1,4.1,0,0,0,54.856,29.872Zm2.9-1.04a1.351,1.351,0,0,1,1.328-1.184,1.122,1.122,0,0,1,1.088,1.184ZM64.456,34h2.768V30.88a3.736,3.736,0,0,1,.144-1.12A2.08,2.08,0,0,1,69.5,28.32a2.945,2.945,0,0,1,.56.048v-2.72a1.871,1.871,0,0,0-.32-.032,2.86,2.86,0,0,0-2.624,2.048H67.08a4.36,4.36,0,0,0,.032-.512V25.76H64.456Zm8.816,0h3.376l2.8-8.24H76.52l-1.264,4.384c-.16.544-.3,1.424-.3,1.424H74.92a14.068,14.068,0,0,0-.3-1.424l-1.28-4.384H70.424Zm6.608-4.128a4.273,4.273,0,0,0,4.528,4.32,5.564,5.564,0,0,0,3.52-1.2L86.9,31.056a4.32,4.32,0,0,1-2.272.832,1.84,1.84,0,0,1-1.92-1.472h5.2s.064-.592.064-.864a3.658,3.658,0,0,0-3.808-3.984A4.1,4.1,0,0,0,79.88,29.872Zm2.9-1.04A1.351,1.351,0,0,1,84.1,27.648a1.122,1.122,0,0,1,1.088,1.184ZM93.464,34h4.208c2.272,0,4.352-.912,4.352-3.408a2.565,2.565,0,0,0-1.792-2.576v-.032a2.794,2.794,0,0,0,1.328-2.432c0-1.968-1.6-2.992-3.888-2.992H93.464Zm2.8-7.008V24.96h1.392a.931.931,0,0,1,1.056.976A.968.968,0,0,1,97.7,26.992Zm0,4.608V29.232h1.7a1.1,1.1,0,0,1,1.2,1.168,1.137,1.137,0,0,1-1.216,1.2Zm6.816-1.7a4.685,4.685,0,1,0,4.656-4.336A4.356,4.356,0,0,0,103.08,29.9Zm2.8,0a1.878,1.878,0,1,1,3.744,0,1.875,1.875,0,1,1-3.744,0Zm7.984,4.1h2.768V30.352a3.309,3.309,0,0,1,.16-1.088,1.622,1.622,0,0,1,1.632-1.184c.608,0,.912.32.912,1.088V34H122.1V28.656c0-2.32-1.3-3.088-2.96-3.088a2.907,2.907,0,0,0-2.624,1.424h-.032a4.361,4.361,0,0,0,.032-.512v-.72h-2.656Zm9.616-4.128c0,2.56,1.472,4.32,3.712,4.32a2.752,2.752,0,0,0,2.384-1.2h.032s-.016.208-.016.464V34h2.592V22.56h-2.768v3.3c0,.208.016.368.016.368H129.4s-.5-.656-2.16-.656C125.048,25.568,123.48,27.264,123.48,29.872Zm2.784,0c0-1.264.752-1.968,1.616-1.968,1.088,0,1.616.976,1.616,1.968,0,1.424-.784,2.032-1.616,2.032C126.92,31.9,126.264,31.1,126.264,29.872Zm7.328,3.1a4.962,4.962,0,0,0,3.3,1.216c2.128,0,3.376-1.2,3.376-2.608,0-2.656-3.856-2.752-3.856-3.376,0-.288.4-.4.816-.4a3.291,3.291,0,0,1,1.952.672l.944-1.968a4.314,4.314,0,0,0-2.9-.944c-1.9,0-3.392.96-3.392,2.512,0,2.688,3.856,2.768,3.856,3.488,0,.272-.4.384-.816.384a3.467,3.467,0,0,1-2.1-.832Zm11.888-2.528h9.536v-2.08H145.48ZM160.648,34h7.92V31.6H163.7c.08-1.472,4.688-2.16,4.688-5.728,0-2.432-2.032-3.5-3.9-3.5a4.412,4.412,0,0,0-4.032,2.464l2.08,1.392s.608-1.216,1.7-1.216a1.13,1.13,0,0,1,1.232,1.136c0,1.648-4.944,2.4-4.944,6.624A7.01,7.01,0,0,0,160.648,34Zm12.08-6.112a2.816,2.816,0,0,0,2.9-2.752,2.9,2.9,0,0,0-5.792,0A2.806,2.806,0,0,0,172.728,27.888ZM170.472,34H172.9l8.832-11.44H179.3Zm2.256-8.032a.841.841,0,1,1,.88-.848A.861.861,0,0,1,172.728,25.968Zm3.936,5.472a2.9,2.9,0,0,0,5.792,0,2.9,2.9,0,0,0-5.792,0Zm2.016-.016a.881.881,0,1,1,.88.848A.869.869,0,0,1,178.68,31.424Z" transform="translate(-27 4070)" fill="#908f93"/>
    <path id="Path_3176" data-name="Path 3176" d="M.56,9.208a5.857,5.857,0,0,0,5.984,5.984,5.857,5.857,0,0,0,5.984-5.984,5.787,5.787,0,0,0-5.984-5.84A5.787,5.787,0,0,0,.56,9.208Zm2.9,0a3.147,3.147,0,0,1,3.088-3.28,3.147,3.147,0,0,1,3.088,3.28,3.227,3.227,0,0,1-3.088,3.424A3.227,3.227,0,0,1,3.456,9.208ZM14.528,11.96c0,2.768,2.544,3.12,3.856,3.12a5.327,5.327,0,0,0,.752-.048v-2.4s-.144.016-.368.016c-.528,0-1.472-.128-1.472-1.056V9.064h1.728V6.9H17.3V4.536H14.608V6.9H13.472v2.16h1.056ZM20.752,15H23.52V11.352a3.184,3.184,0,0,1,.144-1.056A1.663,1.663,0,0,1,25.312,9.08c.608,0,.912.32.912,1.088V15h2.768V9.656c0-2.32-1.3-3.088-2.96-3.088A2.83,2.83,0,0,0,23.52,7.88h-.032s.032-.288.032-.7V3.56H20.752Zm9.584-4.128a4.273,4.273,0,0,0,4.528,4.32,5.564,5.564,0,0,0,3.52-1.2L37.36,12.056a4.32,4.32,0,0,1-2.272.832,1.84,1.84,0,0,1-1.92-1.472h5.2s.064-.592.064-.864a3.658,3.658,0,0,0-3.808-3.984A4.1,4.1,0,0,0,30.336,10.872Zm2.9-1.04A1.351,1.351,0,0,1,34.56,8.648a1.122,1.122,0,0,1,1.088,1.184ZM39.936,15H42.7V11.88a3.736,3.736,0,0,1,.144-1.12,2.08,2.08,0,0,1,2.128-1.44,2.945,2.945,0,0,1,.56.048V6.648a1.871,1.871,0,0,0-.32-.032,2.86,2.86,0,0,0-2.624,2.048H42.56a4.36,4.36,0,0,0,.032-.512V6.76H39.936Zm10.592-3.552h9.536V9.368H50.528ZM65.7,15h7.92V12.6H68.752c.08-1.472,4.688-2.16,4.688-5.728,0-2.432-2.032-3.5-3.9-3.5A4.412,4.412,0,0,0,65.5,5.832l2.08,1.392s.608-1.216,1.7-1.216a1.13,1.13,0,0,1,1.232,1.136c0,1.648-4.944,2.4-4.944,6.624A7.01,7.01,0,0,0,65.7,15Zm12.08-6.112a2.816,2.816,0,0,0,2.9-2.752,2.9,2.9,0,0,0-5.792,0A2.806,2.806,0,0,0,77.776,8.888ZM75.52,15h2.432L86.784,3.56H84.352Zm2.256-8.032a.841.841,0,1,1,.88-.848A.861.861,0,0,1,77.776,6.968Zm3.936,5.472a2.9,2.9,0,0,0,5.792,0,2.9,2.9,0,0,0-5.792,0Zm2.016-.016a.881.881,0,1,1,.88.848A.869.869,0,0,1,83.728,12.424Z" transform="translate(181 4068)" fill="#908f93"/>
  </g>
</svg>
