<svg xmlns="http://www.w3.org/2000/svg" width="877" height="622" viewBox="0 0 877 622">
  <g id="Group_535" data-name="Group 535" transform="translate(-58 -1125)">
    <g id="Path_1321" data-name="Path 1321" transform="translate(1145.394 6331.612) rotate(180)" fill="#908f93" stroke-miterlimit="10">
      <path d="M 623.8433837890625 4752.44921875 L 607.2657470703125 4634.494140625 C 618.0875244140625 4633.02294921875 630.365966796875 4632.1640625 641.285888671875 4632.1142578125 L 641.285888671875 4751.23388671875 C 635.4912109375 4751.2763671875 629.633544921875 4751.68408203125 623.8433837890625 4752.44921875 Z" stroke="none"/>
      <path d="M 624.6961059570312 4751.3310546875 C 629.8756713867188 4750.68359375 635.1026000976562 4750.3193359375 640.285888671875 4750.2451171875 L 640.285888671875 4633.12109375 C 629.9993286132812 4633.2138671875 618.5964965820312 4634.01123046875 608.3961181640625 4635.3515625 L 624.6961059570312 4751.3310546875 M 622.9916381835938 4753.57373046875 L 606.135986328125 4633.640625 C 617.500244140625 4632.04296875 630.8089599609375 4631.11181640625 642.285888671875 4631.11181640625 L 642.285888671875 4752.23046875 C 635.7372436523438 4752.23046875 629.2979125976562 4752.6953125 622.9916381835938 4753.57373046875 Z" stroke="none" fill="#efefef"/>
    </g>
    <g id="Path_1322" data-name="Path 1322" transform="translate(1140.048 6332.047) rotate(180)" fill="#fcfeff" stroke-miterlimit="10">
      <path d="M 601.7621459960938 4756.1455078125 L 570.9370727539062 4641.10595703125 C 581.1621704101562 4638.3974609375 589.4642333984375 4636.70849609375 599.9393920898438 4635.2060546875 L 616.516845703125 4753.16015625 C 611.5499877929688 4753.888671875 606.5958251953125 4754.89111328125 601.7621459960938 4756.1455078125 Z" stroke="none"/>
      <path d="M 602.4722290039062 4754.931640625 C 606.71533203125 4753.86328125 611.04443359375 4752.9873046875 615.3887329101562 4752.318359375 L 599.0888671875 4636.33984375 C 589.4463500976562 4637.7529296875 581.5869750976562 4639.3515625 572.1629638671875 4641.8173828125 L 602.4722290039062 4754.931640625 M 601.053955078125 4757.3662109375 L 569.7119750976562 4640.3974609375 C 580.7972412109375 4637.42724609375 589.4251708984375 4635.67236328125 600.790283203125 4634.0751953125 L 617.6459350585938 4754.0087890625 C 611.9983520507812 4754.79541015625 606.4608764648438 4755.92041015625 601.053955078125 4757.3662109375 Z" stroke="none" fill="#efefef"/>
    </g>
    <g id="Path_1323" data-name="Path 1323" transform="translate(1129.951 6333.134) rotate(180)" fill="#5f5b5b" stroke-miterlimit="10">
      <path d="M 560.01708984375 4769.76416015625 L 502.274169921875 4665.59228515625 C 521.5853271484375 4654.95947265625 537.6323852539062 4648.47607421875 558.9081420898438 4642.7109375 L 589.73291015625 4757.74951171875 C 579.4132080078125 4760.587890625 569.4254760742188 4764.62646484375 560.01708984375 4769.76416015625 Z" stroke="none"/>
      <path d="M 560.4116821289062 4768.4130859375 C 569.3399047851562 4763.61962890625 578.7737426757812 4759.80517578125 588.5107421875 4757.05224609375 L 558.2020874023438 4643.93994140625 C 537.8086547851562 4649.529296875 522.1898803710938 4655.83935546875 503.6356506347656 4665.98583984375 L 560.4116821289062 4768.4130859375 M 559.6259765625 4771.12109375 L 500.9140319824219 4665.201171875 C 520.9889526367188 4654.07470703125 537.4435424804688 4647.42626953125 559.6148681640625 4641.48486328125 L 590.9568481445312 4758.45361328125 C 579.9082641601562 4761.40673828125 569.4049072265625 4765.68896484375 559.6259765625 4771.12109375 Z" stroke="none" fill="#efefef"/>
    </g>
    <g id="Path_1324" data-name="Path 1324" transform="translate(1115.466 6337.214) rotate(180)" fill="#a70505" stroke-miterlimit="10">
      <path d="M 499.985595703125 4813.58447265625 L 403.6141052246094 4743.56689453125 C 415.3040771484375 4727.5810546875 427.4313354492188 4714.10693359375 440.6641845703125 4702.3994140625 C 453.8968200683594 4690.69189453125 468.748291015625 4680.296875 486.0396423339844 4670.6416015625 L 543.7833862304688 4774.81494140625 C 535.2371826171875 4779.64306640625 527.176513671875 4785.3935546875 519.8123168945312 4791.91748046875 C 512.4742431640625 4798.41796875 505.8075866699219 4805.7041015625 499.985595703125 4813.58447265625 Z" stroke="none"/>
      <path d="M 499.7736206054688 4812.1943359375 C 505.4954833984375 4804.5625 512.006591796875 4797.49609375 519.149169921875 4791.1689453125 C 526.31787109375 4784.818359375 534.1420288085938 4779.19482421875 542.4295654296875 4774.43505859375 L 485.652099609375 4672.0048828125 C 468.7966918945312 4681.48681640625 454.2818908691406 4691.6865234375 441.3268127441406 4703.1484375 C 428.3714904785156 4714.6103515625 416.4791564941406 4727.7744140625 405.0146484375 4743.34814453125 L 499.7736206054688 4812.1943359375 M 500.2032775878906 4814.978515625 L 402.2160339355469 4743.787109375 C 425.8258972167969 4711.2900390625 451.2966918945312 4688.75537109375 486.4286804199219 4669.28076171875 L 545.140625 4775.20068359375 C 527.4129638671875 4785.0478515625 512.073486328125 4798.66796875 500.2032775878906 4814.978515625 Z" stroke="none" fill="#efefef"/>
    </g>
    <g id="Path_1325" data-name="Path 1325" transform="translate(1106.933 6350.029) rotate(180)" fill="#908f93" stroke-miterlimit="10">
      <path d="M 602.82470703125 5168.0283203125 C 585.60205078125 5167.96240234375 568.3994140625 5166.1953125 551.6764526367188 5162.7734375 C 535.0636596679688 5159.3740234375 518.7227783203125 5154.30126953125 503.1077575683594 5147.69677734375 C 487.7760314941406 5141.2119140625 472.9884338378906 5133.185546875 459.1557922363281 5123.84033203125 C 445.454345703125 5114.58349609375 432.570068359375 5103.953125 420.8609008789062 5092.24365234375 C 409.1517028808594 5080.53466796875 398.521240234375 5067.64990234375 389.2647094726562 5053.94873046875 C 379.9195861816406 5040.11572265625 371.8931884765625 5025.328125 365.4083862304688 5009.99658203125 C 358.8038024902344 4994.38134765625 353.7313232421875 4978.04052734375 350.3319091796875 4961.427734375 C 346.8436889648438 4944.380859375 345.0750122070312 4926.8359375 345.0750122070312 4909.279296875 C 345.0750122070312 4895.01416015625 346.0833435058594 4881.08984375 348.0718994140625 4867.89306640625 C 350.0700073242188 4854.63330078125 353.1349182128906 4841.59521484375 357.1816101074219 4829.140625 C 361.2282409667969 4816.6865234375 366.4123229980469 4804.3369140625 372.5897521972656 4792.43505859375 C 378.59423828125 4780.8662109375 385.7630310058594 4769.2861328125 393.905517578125 4758.0009765625 L 490.2756042480469 4828.01708984375 C 482.0582275390625 4839.47802734375 475.6553344726562 4852.04345703125 471.2394409179688 4865.37939453125 C 466.5640563964844 4879.4990234375 464.1934814453125 4894.26904296875 464.1934814453125 4909.279296875 C 464.1934814453125 4918.75244140625 465.1479187011719 4928.22021484375 467.0302734375 4937.4189453125 C 468.8648986816406 4946.384765625 471.6023864746094 4955.20361328125 475.166748046875 4963.630859375 C 478.6663208007812 4971.90478515625 482.997802734375 4979.884765625 488.0408020019531 4987.349609375 C 493.0357666015625 4994.7431640625 498.7720642089844 5001.6953125 505.0903930664062 5008.013671875 C 511.4087524414062 5014.33203125 518.3612060546875 5020.068359375 525.7546997070312 5025.0634765625 C 533.2193603515625 5030.1064453125 541.1995239257812 5034.43798828125 549.4735107421875 5037.9375 C 557.900634765625 5041.501953125 566.719482421875 5044.2392578125 575.6851196289062 5046.07373046875 C 584.5599975585938 5047.89013671875 593.685791015625 5048.84228515625 602.82470703125 5048.9072265625 L 602.82470703125 5168.0283203125 Z" stroke="none"/>
      <path d="M 394.1307983398438 4759.400390625 C 386.25830078125 4770.388671875 379.3151245117188 4781.64794921875 373.477294921875 4792.8955078125 C 367.3250732421875 4804.7490234375 362.1624145507812 4817.04736328125 358.1326293945312 4829.44970703125 C 354.1029052734375 4841.85205078125 351.0507202148438 4854.83642578125 349.0607299804688 4868.0419921875 C 347.07958984375 4881.189453125 346.0750122070312 4895.06396484375 346.0750122070312 4909.279296875 C 346.0750122070312 4926.7685546875 347.8368530273438 4944.24658203125 351.3115844726562 4961.22705078125 C 354.6978149414062 4977.775390625 359.7505493164062 4994.052734375 366.3294067382812 5009.60693359375 C 372.7890014648438 5024.87939453125 380.7843627929688 5039.609375 390.0933227539062 5053.388671875 C 399.314208984375 5067.03759765625 409.90380859375 5079.8720703125 421.5679931640625 5091.53662109375 C 433.232177734375 5103.20068359375 446.0669250488281 5113.79052734375 459.715576171875 5123.01171875 C 473.4947509765625 5132.32080078125 488.2250366210938 5140.31591796875 503.497314453125 5146.775390625 C 519.0515747070312 5153.3544921875 535.3287963867188 5158.4072265625 551.876953125 5161.79345703125 C 568.2098388671875 5165.1357421875 585.0040283203125 5166.8935546875 601.82470703125 5167.0224609375 L 601.82470703125 5049.896484375 C 592.9529418945312 5049.771484375 584.101806640625 5048.81689453125 575.484619140625 5047.0537109375 C 566.454345703125 5045.20556640625 557.5718994140625 5042.4482421875 549.0839233398438 5038.8583984375 C 540.75048828125 5035.33349609375 532.7130737304688 5030.97119140625 525.1949462890625 5025.89208984375 C 517.7486572265625 5020.861328125 510.7466430664062 5015.083984375 504.38330078125 5008.720703125 C 498.0199584960938 5002.357421875 492.2427368164062 4995.35546875 487.2121887207031 4987.9091796875 C 482.1330261230469 4980.39111328125 477.7705383300781 4972.353515625 474.2458190917969 4964.02001953125 C 470.6557006835938 4955.5322265625 467.8984680175781 4946.64990234375 466.0505676269531 4937.61962890625 C 464.1548156738281 4928.3544921875 463.1935119628906 4918.81982421875 463.1935119628906 4909.279296875 C 463.1935119628906 4894.162109375 465.5812072753906 4879.2861328125 470.2901306152344 4865.06494140625 C 474.6342163085938 4851.9462890625 480.8866271972656 4839.568359375 488.8866882324219 4828.244140625 L 394.1307983398438 4759.400390625 M 393.6829833984375 4756.60302734375 L 491.6702575683594 4827.79443359375 C 475.0219116210938 4850.66796875 465.1935119628906 4878.82421875 465.1935119628906 4909.279296875 C 465.1935119628906 4985.84375 527.2603759765625 5047.91064453125 603.82470703125 5047.91064453125 L 603.82470703125 5169.0302734375 C 460.3684692382812 5169.0302734375 344.0750122070312 5052.7353515625 344.0750122070312 4909.279296875 C 344.0750122070312 4851.8974609375 359.9536743164062 4803.0263671875 393.6829833984375 4756.60302734375 Z" stroke="none" fill="#efefef"/>
    </g>
    <g id="Path_1326" data-name="Path 1326" transform="translate(1151.612 6331.612) rotate(180)" fill="#aeb5b7" stroke-miterlimit="10">
      <path d="M 649.5040283203125 5149.6103515625 L 649.5040283203125 5030.48974609375 C 658.642822265625 5030.4248046875 667.7685546875 5029.47265625 676.6433715820312 5027.65625 C 685.60888671875 5025.82177734375 694.4277954101562 5023.08447265625 702.8548583984375 5019.52001953125 C 711.1287841796875 5016.02001953125 719.10888671875 5011.68896484375 726.5736083984375 5006.6455078125 C 733.9671020507812 5001.65087890625 740.9195556640625 4995.91455078125 747.2379760742188 4989.59619140625 C 753.5563354492188 4983.27783203125 759.2926635742188 4976.3251953125 764.2876586914062 4968.931640625 C 769.3306884765625 4961.466796875 773.6621704101562 4953.48681640625 777.1618041992188 4945.212890625 C 780.7261962890625 4936.78564453125 783.4636840820312 4927.966796875 785.2984008789062 4919.0009765625 C 787.1807250976562 4909.80224609375 788.1351928710938 4900.33447265625 788.1351928710938 4890.861328125 C 788.1351928710938 4881.38818359375 787.1807250976562 4871.9208984375 785.2984008789062 4862.72216796875 C 783.4636840820312 4853.7568359375 780.7261962890625 4844.93798828125 777.1618041992188 4836.5107421875 C 773.6621704101562 4828.23681640625 769.3306884765625 4820.2568359375 764.2876586914062 4812.79248046875 C 759.2926635742188 4805.39892578125 753.5563354492188 4798.4462890625 747.2379760742188 4792.1279296875 C 740.9195556640625 4785.8095703125 733.9671020507812 4780.0732421875 726.5736083984375 4775.078125 C 719.10888671875 4770.03515625 711.1287841796875 4765.70361328125 702.8548583984375 4762.2041015625 C 694.427734375 4758.6396484375 685.60888671875 4755.90185546875 676.6433715820312 4754.0673828125 C 667.7685546875 4752.25146484375 658.642822265625 4751.298828125 649.5040283203125 4751.23388671875 L 649.5040283203125 4632.11376953125 C 666.7267456054688 4632.1796875 683.9293823242188 4633.94677734375 700.6522827148438 4637.36865234375 C 717.2650756835938 4640.76806640625 733.6058959960938 4645.8408203125 749.2208862304688 4652.4453125 C 764.552734375 4658.93017578125 779.3402709960938 4666.95654296875 793.1729125976562 4676.3017578125 C 806.8743286132812 4685.55810546875 819.7586059570312 4696.18896484375 831.4677734375 4707.89794921875 C 843.177001953125 4719.607421875 853.8074340820312 4732.49169921875 863.06396484375 4746.19287109375 C 872.4091186523438 4760.025390625 880.4354858398438 4774.81298828125 886.9202880859375 4790.14501953125 C 893.5248413085938 4805.759765625 898.5972900390625 4822.1005859375 901.9967651367188 4838.71337890625 C 905.4849853515625 4855.759765625 907.253662109375 4873.3046875 907.253662109375 4890.861328125 C 907.253662109375 4908.41796875 905.4849853515625 4925.962890625 901.9967651367188 4943.009765625 C 898.5972900390625 4959.62255859375 893.5248413085938 4975.96337890625 886.9202880859375 4991.57861328125 C 880.4354858398438 5006.91015625 872.4091186523438 5021.69775390625 863.06396484375 5035.53076171875 C 853.8074340820312 5049.23193359375 843.177001953125 5062.1162109375 831.4677734375 5073.82568359375 C 819.7586059570312 5085.53515625 806.8743286132812 5096.16552734375 793.1728515625 5105.42236328125 C 779.3402709960938 5114.767578125 764.552734375 5122.7939453125 749.2208862304688 5129.27880859375 C 733.6058959960938 5135.88330078125 717.2650756835938 5140.9560546875 700.6522827148438 5144.35546875 C 683.9293823242188 5147.77734375 666.7267456054688 5149.54443359375 649.5040283203125 5149.6103515625 Z" stroke="none"/>
      <path d="M 650.5040893554688 4633.11962890625 L 650.5040893554688 4750.24462890625 C 659.375732421875 4750.369140625 668.2266845703125 4751.32421875 676.8438720703125 4753.08740234375 C 685.8740844726562 4754.935546875 694.7564697265625 4757.69287109375 703.2444458007812 4761.28271484375 C 711.5777587890625 4764.8076171875 719.6151733398438 4769.17041015625 727.1334228515625 4774.24951171875 C 734.5796508789062 4779.2802734375 741.5817260742188 4785.0576171875 747.945068359375 4791.4208984375 C 754.3084106445312 4797.7841796875 760.085693359375 4804.7861328125 765.1162719726562 4812.232421875 C 770.1954956054688 4819.75048828125 774.5580444335938 4827.7880859375 778.082763671875 4836.12109375 C 781.6729125976562 4844.609375 784.43017578125 4853.49169921875 786.278076171875 4862.52197265625 C 788.1738891601562 4871.7861328125 789.1351928710938 4881.3212890625 789.1351928710938 4890.861328125 C 789.1351928710938 4900.40185546875 788.1738891601562 4909.9365234375 786.278076171875 4919.20166015625 C 784.43017578125 4928.23193359375 781.6729125976562 4937.1142578125 778.082763671875 4945.6025390625 C 774.5580444335938 4953.935546875 770.1954956054688 4961.97314453125 765.1162719726562 4969.4912109375 C 760.085693359375 4976.9375 754.3084106445312 4983.93994140625 747.945068359375 4990.30322265625 C 741.5817260742188 4996.66650390625 734.5796508789062 5002.44384765625 727.1334228515625 5007.47412109375 C 719.6151733398438 5012.5537109375 711.5778198242188 5016.916015625 703.2444458007812 5020.44091796875 C 694.7564697265625 5024.03076171875 685.8740844726562 5026.7880859375 676.8438720703125 5028.63623046875 C 668.2266845703125 5030.3994140625 659.375732421875 5031.35400390625 650.5040893554688 5031.47900390625 L 650.5040893554688 5148.6044921875 C 667.32470703125 5148.4755859375 684.118896484375 5146.7177734375 700.4518432617188 5143.37548828125 C 716.9999389648438 5139.9892578125 733.2771606445312 5134.9365234375 748.8314208984375 5128.35791015625 C 764.1036987304688 5121.89794921875 778.833984375 5113.90283203125 792.613037109375 5104.59375 C 806.2617797851562 5095.37255859375 819.0964965820312 5084.78271484375 830.7606811523438 5073.11865234375 C 842.4248657226562 5061.45458984375 853.0144653320312 5048.61962890625 862.2353515625 5034.970703125 C 871.5443725585938 5021.19140625 879.5396118164062 5006.4609375 885.999267578125 4991.18896484375 C 892.578125 4975.63427734375 897.630859375 4959.357421875 901.01708984375 4942.80908203125 C 904.4917602539062 4925.82861328125 906.2536010742188 4908.3505859375 906.2536010742188 4890.861328125 C 906.2536010742188 4873.3720703125 904.4917602539062 4855.89453125 901.01708984375 4838.9140625 C 897.630859375 4822.36572265625 892.578125 4806.0888671875 885.999267578125 4790.53466796875 C 879.5396118164062 4775.26220703125 871.5443725585938 4760.53173828125 862.2353515625 4746.7529296875 C 853.0144653320312 4733.10400390625 842.4248657226562 4720.26953125 830.7606811523438 4708.60498046875 C 819.0964965820312 4696.94091796875 806.2617797851562 4686.35107421875 792.613037109375 4677.13037109375 C 778.833984375 4667.8212890625 764.1036987304688 4659.826171875 748.8314208984375 4653.3662109375 C 733.2771606445312 4646.78759765625 716.9999389648438 4641.73486328125 700.4518432617188 4638.3486328125 C 684.118896484375 4635.00634765625 667.32470703125 4633.24853515625 650.5040893554688 4633.11962890625 M 648.5040893554688 4631.11181640625 C 791.960205078125 4631.11181640625 908.2536010742188 4747.40625 908.2536010742188 4890.861328125 C 908.2536010742188 5034.3173828125 791.960205078125 5150.6123046875 648.5040893554688 5150.6123046875 L 648.5040893554688 5029.4931640625 C 725.0673217773438 5029.4931640625 787.1351928710938 4967.42578125 787.1351928710938 4890.861328125 C 787.1351928710938 4814.298828125 725.0673217773438 4752.23046875 648.5040893554688 4752.23046875 L 648.5040893554688 4631.11181640625 Z" stroke="none" fill="#efefef"/>
    </g>
    <text id="Government_Income_2020" data-name="Government Income 2020" transform="translate(484 1125)" fill="#2562a0" font-size="30" font-family="MuseoSans-900, Museo Sans" font-weight="900"><tspan x="0" y="28">Government Income 2020</tspan></text>
    <text id="Income_Taxes_50_" data-name="Income Taxes – 50%" transform="translate(58 1430)" fill="#908f93" font-size="16" font-family="MuseoSans-900, Museo Sans" font-weight="900"><tspan x="5.192" y="15">Income Taxes – 50%</tspan></text>
    <text id="Social_Security_Medicare_Taxes_36_" data-name="Social Security &amp; Medicare Taxes – 36%" transform="translate(763 1307)" fill="#908f93" font-size="16" font-family="MuseoSans-900, Museo Sans" font-weight="900"><tspan x="0" y="15">Social Security &amp; </tspan><tspan x="0" y="34">Medicare Taxes – 36%</tspan></text>
    <text id="Corporate_Taxes_7_" data-name="Corporate Taxes – 7%" transform="translate(690 1625)" fill="#a71303" font-size="16" font-family="MuseoSans-900, Museo Sans" font-weight="900"><tspan x="0" y="15">Corporate Taxes – 7%</tspan></text>
    <text id="Tariffs_4_" data-name="Tariffs – 4%" transform="translate(604 1683)" fill="#908f93" font-size="16" font-family="MuseoSans-900, Museo Sans" font-weight="900"><tspan x="0" y="15">Tariffs – 4%</tspan></text>
    <text id="Interest_from_Federal_Reserve_Bonds_2_" data-name="Interest from Federal Reserve Bonds – 2%" transform="translate(344 1708)" fill="#908f93" font-size="16" font-family="MuseoSans-900, Museo Sans" font-weight="900"><tspan x="18.408" y="15">Interest from Federal </tspan><tspan x="27" y="34">Reserve Bonds – 2%</tspan></text>
    <text id="Other_2_" data-name="Other – 2%" transform="translate(552 1706)" fill="#908f93" font-size="16" font-family="MuseoSans-900, Museo Sans" font-weight="900"><tspan x="0" y="15">Other – 2%</tspan></text>
  </g>
</svg>
