<svg xmlns="http://www.w3.org/2000/svg" width="973.043" height="723.318" viewBox="0 0 973.043 723.318">
  <g id="Group_90" data-name="Group 90" transform="translate(-9.348)">
    <path id="Path_1206" data-name="Path 1206" d="M271.386,458.055v7.862l-4.256.844c1.128,2.323,3.1,4.509,3.123,6.714q.344,33.182.026,66.369c-.016,2.013-1.63,4.013-3.227,5.971,1.252,1.886,6.861-1.249,6.784,5.144-.093,7.807.145,8.2-7.8,8.2q-124.862.015-249.724-.051c-1.394,0-2.787-.173-4.8-.306-.124-2.3-.337-4.446-.339-6.589-.022-28.822.174-57.646-.165-86.463-.073-6.174,1.6-7.841,7.758-7.827q118.163.3,236.329.131ZM179.012,523.02c0,7.317.02,13.932,0,20.547-.032,9.151,1.328,10.409,10.259,8.775,1.18-.216,2.991-1.766,3.017-2.74.235-8.758.138-17.524.138-26.581ZM57.634,552.171V523.085H45.269v29.086Zm173.042-29.086H218.424v29.081h12.253Zm-146.721-.127v28.986H96.294V522.958Zm57.8,8.783h.041c0-5.226-.016-10.451.006-15.677.011-2.823-.37-5.953-3.966-5.105-1.7.4-3.9,3.345-3.968,5.2-.359,10.59-.3,21.205.062,31.8.052,1.545,2.269,3.85,3.915,4.331,3.169.925,4.009-1.4,3.944-4.29C141.674,542.582,141.76,537.16,141.76,531.742Zm37.664-47.375c-1.947,6.569,1.786,7.011,7.355,7.3,8.325.434,5.488-5.266,5.975-9.21.82-6.664-4.211-4.553-7.6-5.016C179.764,476.7,178.3,479.285,179.424,484.366ZM58.27,489.976c-3.421-4.424,4.161-11.678-4.742-13.245-9.108-1.6-9.455-.729-9.4,7.69C44.169,491.242,44.275,491.29,58.27,489.976Zm159.049,1.663c6.016-1.3,11.174-1.025,13.759-3.467,1.758-1.66,1.294-8.551-.711-10.5s-9.2-2.187-10.481-.467C217.658,480.2,218.23,485.271,217.318,491.639ZM97.127,478.586l-1.864-1.781c-4.046.841-9.17.52-11.767,2.924-1.782,1.651-1.442,8.409.5,10.458,1.875,1.975,9.065,2.374,10.308.732C96.629,487.854,96.334,482.808,97.127,478.586Zm45.774,75.09c4.925-6.026,4-36.332,0-39.63Zm-10.358-40.54c-3.728,5.488-4.029,35.38,0,40.106Zm11.891-28.066.052-2.506c-2.193-1.6-4.539-4.618-6.535-4.4-2.051.223-4.909,3.441-5.227,5.661-.229,1.6,3.056,5.12,4.914,5.222C139.824,489.165,142.161,486.518,144.434,485.07Z" transform="translate(0.364 100.691)" fill="#2562a0"/>
    <path id="Path_1207" data-name="Path 1207" d="M851.756,558.8H589.912V547l5.859-.844c-.975-2.229-2.771-4.445-2.791-6.679q-.318-32.871-.027-65.746c.016-2.179,1.447-4.346,2.277-6.676-3.941-.294-4.332-3.725-2.943-8.7H851.756ZM733.295,552.01c0-7.4.006-14.453,0-21.5-.006-4.446.9-9.191-.381-13.238-.862-2.726-4.735-4.616-7.539-6.458-.334-.22-3.489,2.187-3.516,3.417-.273,12.466-.167,24.939-.167,37.782ZM670.834,522.8c0,6.342-.065,12.486.013,18.628.149,11.707.182,11.712,11.94,10.647.342-.032.651-.4,1.075-.683V522.8Zm147.279,28.843V522.978H805.14c0,6.567-.1,12.781.021,18.992.207,11.064.261,11.067,11.356,10.26A8.137,8.137,0,0,0,818.113,551.643Zm-172.579-28.5h-13.4c0,7.146.265,13.777-.065,20.378-.451,9.069-1.824,9.115,9.754,8.658,1.277-.05,3.5-2.124,3.541-3.324C645.68,540.443,645.534,532.013,645.534,523.143Zm120.637-.527c0,9.394-.2,17.814.221,26.2.062,1.244,3.088,3.328,4.7,3.291,2.909-.066,7.961,2.551,8.394-2.551.742-8.715.2-17.539.2-26.6-2.741-.139-4.708-.278-6.676-.328S769.072,522.615,766.171,522.615ZM644.1,490.247c2.313-14.909,2.017-15.089-11.89-12.975v12.975ZM768.015,476.7l-1.874,1.768c.782,4.233.554,9.154,2.775,12.405,1.094,1.6,8.6,1.463,9.847-.283,1.936-2.718,2.675-9,.865-10.984C777.391,477.154,772.029,477.544,768.015,476.7Zm-84.537,14.419v-13.4H671.092v13.4Zm136.056-.953c-.588-4.872.068-9.92-2.077-13.047-1.167-1.7-9.247-1.525-10.4.262-2.043,3.162-1.179,8.2-1.559,12.784ZM721.21,513.88l-1.718-.327c-.7,1.089-1.988,2.164-2.013,3.269q-.373,16.569-.288,33.148c0,.7,1.454,1.386,2.231,2.077.6-.925,1.7-1.843,1.71-2.773C721.25,537.477,721.21,525.679,721.21,513.88Zm5.508-37.024-2.551-.011c-1.5,2.253-4.19,4.534-4.139,6.753.044,1.94,3.172,3.81,4.937,5.71,1.97-1.858,5.222-3.522,5.544-5.632C730.82,481.643,728.1,479.148,726.717,476.856Z" transform="translate(127.658 100.787)" fill="#2562a0"/>
    <path id="Path_1208" data-name="Path 1208" d="M10.514,603.755v-60.2H375.865v14.269c-9.252,3.059-9.253,3.059-9.255,13.512,0,6.9.2,13.8-.066,20.692-.207,5.276.462,9.68,6.49,11.729Zm324.459-23.336c0,4.871.017,9.742-.006,14.613-.02,4.4,2.048,6.983,6.53,7.04,4.731.061,11.046,1.407,11.513-5.541a229.4,229.4,0,0,0-.1-32.205c-.473-6.419-6.475-5.547-11.1-5.388-4.284.148-6.8,2.367-6.828,6.868C334.96,570.677,334.98,575.548,334.973,580.419Zm-12.666,0c0-4.87.028-9.74-.009-14.609s-2.907-6.83-7.412-6.93c-4.755-.1-10.314-.505-10.634,6.035a292.877,292.877,0,0,0,.05,31.612c.4,6.676,6.3,5.555,10.884,5.585,4.317.028,7.012-1.909,7.095-6.474C322.373,590.571,322.3,585.5,322.307,580.424Zm-49.613-.059c0,4.861.061,9.723-.015,14.583-.1,6.159,3.685,7.288,8.793,7.244,4.869-.042,9.16-.509,9.175-6.837.022-9.924.078-19.849-.037-29.771-.073-6.271-4.527-6.758-9.341-6.744-4.792.013-8.536,1.158-8.559,6.945C272.693,570.644,272.708,575.505,272.694,580.365ZM57.661,589.784c0-9.039.166-17.7-.2-26.346-.048-1.146-2.863-3.142-4.3-3.057-3.009.18-8.446,1.291-8.528,2.355-.69,8.931-.393,17.937-.393,27.047Zm160.532-.02h13.548c0-9.028.093-17.685-.037-26.338-.071-4.717-3.961-3.341-6.378-3.179-2.534.17-6.9-2.08-7.059,3.035C217.995,571.946,218.193,580.625,218.193,589.764Zm-72.9-.573c0-7.806.133-15.268-.123-22.717-.045-1.316-1.486-3.424-2.658-3.731-9.067-2.37-11.927-.077-11.916,9.086,0,2.214.013,4.428-.007,6.642-.113,12.505-.115,12.512,12.461,11.549A11.155,11.155,0,0,0,145.293,589.191Zm-48.808,1.38c0-7.939-.573-15.214.171-22.353.667-6.41-2.018-8.007-7.391-7.037-2.164.392-5.875,1.7-5.934,2.759-.482,8.755-.272,17.549-.272,26.631Zm96.353-.07c0-9.019.193-17.683-.238-26.317-.055-1.108-3.395-2.947-5.141-2.868-2.751.123-7.6-2.464-7.959,2.562-.634,8.788-.177,17.655-.177,26.623Z" transform="translate(0.256 119.52)" fill="#2562a0"/>
    <path id="Path_1209" data-name="Path 1209" d="M508.809,543.526H870.543V603.8H511.609c5.96-12.705,2.184-25.914,3.044-38.761.073-1.094-.431-2.815-1.232-3.29C505.784,557.227,509.4,550.226,508.809,543.526Zm99.861,37.193c0-4.848.039-9.694-.011-14.541-.056-5.461-3.3-7.274-8.289-7.344-5.03-.071-9.854.444-10.073,6.774-.34,9.885-.309,19.794-.035,29.682.154,5.566,2.885,6.964,10.437,6.9,5.193-.044,8.015-2.152,7.984-7.538C608.657,590.01,608.678,585.364,608.67,580.719Zm-80.846-.477q0,7.273,0,14.546c.01,5.895,3.511,7.427,8.742,7.424,5.131,0,9.63-.61,9.741-7.034.168-9.694.211-19.4-.018-29.091-.129-5.464-2.919-7.229-9.624-7.249-5.165-.015-8.758,1.624-8.831,7.462C527.779,570.948,527.825,575.6,527.825,580.242Zm49.334.056c0-4.845.068-9.693-.018-14.537-.087-4.806-2.966-6.77-7.449-6.874-4.743-.11-10.319-.465-10.683,5.938a288.984,288.984,0,0,0-.035,31.466c.344,6.539,5.987,5.849,10.67,5.863,4.562.013,7.4-1.887,7.495-6.712C577.238,590.4,577.161,585.346,577.158,580.3Zm72.414,9.791c3.817,0,7.04.3,10.158-.146,1.238-.177,3.169-1.965,3.206-3.073.262-7.867.452-15.769-.018-23.619-.315-5.259-4.971-2.664-7.712-3-2.3-.284-5.654-1.084-5.641,3.274C649.591,572.17,649.572,580.817,649.572,590.089Zm86.827.02a68.4,68.4,0,0,1,8.343.059c4.926.645,6.524-1.392,5.968-6.109a69.408,69.408,0,0,1-.262-9.6c.271-12.565.3-12.572-12.17-11.719a7.247,7.247,0,0,0-1.879.788Zm100.621-.278c0-9.142.224-17.98-.092-26.8-.166-4.639-4.3-2.8-6.672-2.761-2.348.035-6.458-1.877-6.595,2.851-.253,8.833-.072,17.677-.072,26.707Zm-38.83.85c0-6.647-.029-12.631.006-18.613.07-11.711.084-11.716-11.922-10.689-.339.028-.648.41-1.072.7v28.605Zm-96.832-29.169H689.03v29.094h12.327Z" transform="translate(109.748 119.514)" fill="#2562a0"/>
    <path id="Path_1210" data-name="Path 1210" d="M306.133,255.021H555.692v50.27H306.133Zm189.241,29.031c0-3.242.05-6.486-.013-9.726-.063-3.213-.643-6.858-4.659-6.168-1.768.3-4.038,3.746-4.242,5.935-.577,6.229-.156,12.545-.235,18.825-.039,3.133.847,4.872,4.472,4.869,3.421,0,4.811-1.278,4.7-4.617C495.29,290.133,495.372,287.091,495.374,284.052Zm-91.428,15.2c3.893-1.844,8.232-2.824,8.329-4.123a171.285,171.285,0,0,0-.063-23.578c-.082-1.314-2.927-3.19-4.657-3.389-1.041-.118-3.386,2.467-3.445,3.906C403.773,280.3,403.946,288.556,403.946,299.255ZM391.031,283.4c0-3.037.01-6.076,0-9.114-.013-3.3-.8-6.783-4.715-6.121-1.719.29-3.9,3.765-4.107,5.958-.566,6.024-.134,12.135-.224,18.211-.048,3.147.223,5.465,4.417,5.461,3.985,0,4.819-1.918,4.667-5.281C390.93,289.482,391.038,286.439,391.031,283.4Zm42.751,13.587c0-7.99.271-15.663-.183-23.292-.12-2.008-2.48-3.883-3.811-5.818-1.629,1.884-4.421,3.63-4.662,5.677-.657,5.592-.257,11.311-.243,16.98C424.9,298.179,425.047,298.289,433.782,296.987Zm20.71-.034c0-7.979.32-15.66-.214-23.28-.141-2.029-2.894-3.874-4.448-5.8-1.411,1.892-3.84,3.682-4.043,5.7-.565,5.614-.224,11.321-.21,16.991C445.6,298.185,445.772,298.317,454.492,296.953Zm20.559-13.547c0-3.038.018-6.075,0-9.113-.024-3.289-.793-6.781-4.715-6.129-1.7.283-3.859,3.766-4.062,5.958-.561,6.024-.135,12.134-.224,18.208-.045,3.12.143,5.482,4.377,5.465,3.983-.015,4.82-1.91,4.664-5.277C474.946,289.488,475.056,286.444,475.051,283.406Zm-111.121-.3c0,3.645-.389,7.354.193,10.9.232,1.411,2.579,3.379,4.029,3.438,1.5.06,4.357-1.818,4.422-2.97a179.245,179.245,0,0,0,0-21.843c-.111-1.681-2.79-3.192-4.287-4.782-1.448,1.642-3.767,3.1-4.152,4.967C363.451,276.116,363.942,279.66,363.93,283.1Zm146.435.5h-.083c0-3.834.331-7.712-.166-11.48-.2-1.485-2.239-2.725-3.441-4.077-.933,1.392-2.618,2.753-2.675,4.179-.293,7.255-.3,14.531-.046,21.788.044,1.228,1.865,2.395,2.865,3.59,1.182-1.236,3.179-2.351,3.384-3.73C510.7,290.517,510.365,287.037,510.365,283.605Zm-155.778-.581a101.905,101.905,0,0,0-.127-10.875c-.156-1.447-1.729-2.741-2.656-4.1-1.135,1.2-3.195,2.356-3.252,3.6-.346,7.645-.376,15.314-.122,22.962.034,1.037,2.134,2.407,3.511,2.8.564.161,2.44-1.805,2.533-2.9C354.8,290.7,354.6,286.855,354.587,283.025Zm-28.5-14.925-2.174.215c-2,9.145-1.108,18.465-.549,27.746.03.5,2.1,1.424,2.218,1.282.826-.947,1.915-2.116,1.941-3.235q.242-10.891,0-21.79C327.486,270.9,326.583,269.5,326.083,268.1Zm199.038.04-3.36.194c0,9.061-.054,18.125.112,27.184.012.651,1.622,1.274,2.49,1.91.626-1.122,1.758-2.229,1.792-3.368q.282-9.367.065-18.746A54,54,0,0,0,525.121,268.14Zm-209.08-.017c-.749.376-1.391.538-1.4.725-.354,8.967-.692,17.936-.864,26.908-.011.54,1.664,1.719,2,1.542.875-.458,2.029-1.5,2.04-2.318q.167-12.068-.106-24.138C317.691,269.915,316.612,269.011,316.041,268.122Zm231.476-1.5c-2.2,2.047-2.975,2.425-2.986,2.826-.256,8.618-.483,17.239-.507,25.86,0,.7,1.494,1.4,2.295,2.1.647-1.064,1.812-2.108,1.852-3.194.2-5.43.187-10.87.088-16.3C548.2,274.676,547.845,271.437,547.517,266.627Zm-209.22.726c-1.191,1.359-2.126,1.927-2.141,2.518-.209,8.483-.35,16.97-.3,25.453,0,.682,1.513,1.355,2.321,2.034.594-1.114,1.679-2.217,1.7-3.343q.227-10.929,0-21.865C339.853,270.77,339,269.4,338.3,267.353Zm200.167.788-1.692.14c-.421,1.238-1.187,2.47-1.208,3.715-.123,7.284-.173,14.573.021,21.853.032,1.2,1.386,2.369,2.13,3.552.713-1.248,2.007-2.48,2.041-3.746.194-7.078.157-14.165.015-21.246C539.741,270.978,538.92,269.563,538.464,268.141Z" transform="translate(65.259 56.076)" fill="#2562a0"/>
    <path id="Path_1211" data-name="Path 1211" d="M595.854,393.456c1.666,11.629,1.621,11.7-8.293,11.7-38.563,0-77.128-.279-115.687.183-10.7.128-19.585-4.409-29.146-7.533a12.735,12.735,0,0,0-8.35.1,86.446,86.446,0,0,1-37.1,7.462c-36.727-.6-73.469-.206-110.206-.21-10.256,0-10.469-.282-8.5-10.794,8.842-2.014,8.842-2.014,10.5-13.333H585.653C585.926,387.573,583.762,396.563,595.854,393.456Z" transform="translate(58.985 83.782)" fill="#2562a0"/>
    <path id="Path_1212" data-name="Path 1212" d="M402.977,428.207l-19.562,6.5c-5.548-7.389-13.433-2.613-20.228-3.6-.666-.1-2.1,1.331-2.262,2.22-.5,2.726-.494,5.481,3.53,5.442a38.484,38.484,0,0,0,4.26.021c4.845-.594,8.51.537,9.576,6.664H268.3l-.02,1.876H382.233l-.024,2.1H9.813c3.711-10.947,3.711-10.95,14.107-10.974,3.624-.009,7.249,0,11.471,0,.273-3.583.512-6.7.778-10.186H42.1c.307.432.7.732.74,1.077,1.193,9.069,1.187,9.075,10.808,9.1,4.819.011,9.636,0,14.715,0,.259-3.765.464-6.734.784-11.389,2.783,1.256,5.813,1.675,6.833,3.332,1.22,1.98.72,5.019.967,7.636h24.242l.78-9.388c4.932-1.821,7.646-.837,7.192,4.826-.279,3.482.914,5.216,4.827,5.028,5.851-.282,11.727-.073,17.694-.073.838-3.608.687-7.667,2.639-9.8,1.444-1.575,5.63-.637,9.053-.847.337,3.722.62,6.847.964,10.651,6.64,0,13.081.165,19.5-.154,1.134-.056,2.725-1.968,3.114-3.31.537-1.855.134-3.982.134-6.54h7.04c.243,3.058.479,6.029.79,9.94,7.494,0,14.931.116,22.356-.143.95-.034,2.328-1.9,2.634-3.134.516-2.08.333-4.333.461-6.847h6.663c.246,3.155.477,6.123.789,10.121,7.424,0,14.833.118,22.228-.14.992-.034,2.448-1.832,2.756-3.05.527-2.082.316-4.351.431-6.9h6.723c.235,3.044.466,6.006.777,10.02,6.776,0,13.566.176,20.323-.216.877-.05,2-2.957,2.27-4.658.387-2.467.026-4.836,3.732-4.915,3.854-.081,4.4,2.147,4.211,5.062-.255,3.906,1.383,5.466,5.35,5.305,5.613-.229,11.242-.059,17.128-.059.346-3.628.61-6.388.936-9.8,1.925-.11,3.778-.217,5.979-.344.3,3.357.55,6.137.9,10.01,6.584,0,13.2.2,19.771-.2,1.061-.065,2.345-2.659,2.846-4.293.7-2.27-.745-6.119,3.536-5.307,1.271.242,2.126,3.372,2.895,5.289.429,1.072.288,2.373.459,4.135H353.5v-7.017l-16.861-.742v-25.7H459.056l.243.789c-13.518,5.238-27.062,10.409-40.539,15.749-5.391,2.136-10.635,4.643-15.946,6.98Z" transform="translate(0.102 89.022)" fill="#2562a0"/>
    <path id="Path_1213" data-name="Path 1213" d="M497.528,428.547c-9.633-4.049-19.224-8.2-28.911-12.118-9.175-3.712-18.45-7.179-27.54-11.578H560.8c0,7.741.171,15.392-.194,23.017-.051,1.08-2.642,2.769-4.173,2.908-4.371.4-8.8.139-13.475.139V438.6h21.291c.627-3.108,1.009-6.432,2.143-9.476.242-.649,3.217-.281,4.845-.376,1.829,10.126,1.829,10.129,12.026,10.157,3.622.01,7.245,0,11.4,0,.3-3.454.547-6.389.85-9.942l6.249-.326c.239,3.5.441,6.467.678,9.927h21.77c.234-3.238.438-6.037.635-8.768,6.718-2.31,7.487-2,8.129,4.521.306,3.107,1.5,4.34,4.543,4.168,2.428-.138,4.867-.055,7.3-.059,10.3-.015,10.3-.013,11.718-10.162l6.348-.472c.26,3.484.494,6.611.793,10.623,7.356,0,14.6.149,21.821-.152,1.133-.048,2.741-1.973,3.135-3.319.542-1.852.135-3.982.135-6.526h7.1c.243,3.06.478,6.032.79,9.965,7.468,0,14.9.167,22.311-.21.93-.046,2.484-2.98,2.429-4.529-.2-5.543,2.193-6.783,7.327-5.088.253,2.973.5,5.942.8,9.413h22.72c.216-3.14.421-6.107.661-9.592h9.464c.216.282.623.57.667.906,1.2,9.221,1.2,9.22,10.712,9.209,4.024,0,8.049,0,12.507,0,.343-3.662.636-6.779.96-10.241h7.13c.224,3.16.437,6.127.688,9.668h24.318c.282-3.133.549-6.09.873-9.686l7.139-.4c.232,3.488.44,6.626.677,10.207H852.1c.266-3.124.517-6.077.817-9.6h7.244c.253,3.03.5,6,.836,10.026,5,0,9.985.106,14.957-.034,4.034-.115,7.857-.5,7.9,5.421.01,1.385,1.765,2.756,3.61,5.424H517.71l-.039-1.6h110.49l-.013-2.1h-107.9c2.87-3,4.292-5.608,6.389-6.376,2.47-.9,5.526-.211,8.584-.211v-9.049c-7.6,1.1-14.675,2.258-21.8,3.068-1.652.188-3.456-.749-5.161-1.263-3.662-1.1-7.307-2.269-10.951-3.4Z" transform="translate(94.931 89.021)" fill="#2562a0"/>
    <path id="Path_1214" data-name="Path 1214" d="M336.6,430.312c8.145-2.768,16.384-5.288,24.416-8.35,21.752-8.294,43.363-16.956,65.174-25.091a15.942,15.942,0,0,1,10.32.04c28.027,10.58,55.909,21.544,83.858,32.329a36.677,36.677,0,0,0,5.787,1.254l-.226-.207c5.059,2.321,10.107,4.69,15.2,6.962,3.075,1.372,6.219,2.592,9.668,4.02-3.844,2.907-233.3,3.343-239.847.25,5.876-2.336,10.857-4.181,15.721-6.295,3.439-1.5,6.719-3.356,10.082-5.065Z" transform="translate(66.318 87.082)" fill="#2562a0"/>
    <path id="Path_1215" data-name="Path 1215" d="M383.8,443.126c.162,2.487.32,3.88.32,5.272,0,.964-.216,1.929-.475,4.016H268.053l-.027,2.171h6.818q50.853,0,101.707,0a18.98,18.98,0,0,1,4.844.138c1.034.281,1.8,1.532,2.692,2.349-.842.631-1.61,1.627-2.54,1.812a25.439,25.439,0,0,1-4.856.11c-35.119.01-70.3,1.381-105.348-.245-85.308-3.959-170.623-.548-255.924-1.692-5.71-.077-5.955-2.6-6.065-7.014-.117-4.739,1.3-6.284,6.2-6.274q118.454.209,236.91.063c40.989-.058,81.978-.461,122.966-.706C378.034,443.111,380.638,443.126,383.8,443.126Z" transform="translate(0 97.436)" fill="#2562a0"/>
    <path id="Path_1216" data-name="Path 1216" d="M502.331,456.321c1.923-.577,3.841-1.646,5.768-1.655,23.148-.116,46.3-.076,69.448-.076h37.263q0-1.034,0-2.065h-111.7V443.5c2.785-.13,5.363-.355,7.94-.357,33.709-.024,67.418-.087,101.127,0q126.988.309,253.978.733c6.343.018,9.653,5.533,6.623,11.245a4.182,4.182,0,0,1-2.833,1.664,44.245,44.245,0,0,1-6.08.148c-78.586,0-157.208-1.376-235.745.584-39.244.981-78.469.5-117.689,1.479-2.4.06-4.806.007-7.209.007Z" transform="translate(108.4 97.431)" fill="#2562a0"/>
    <path id="Path_1217" data-name="Path 1217" d="M583.631,314.843V326.3c-2.01.144-3.957.4-5.9.406q-142.535.029-285.069.11c-4.809.006-6.209-1.48-6.306-6.21-.107-5.22,2.221-5.838,6.6-5.834q117.561.15,235.121.073Z" transform="translate(60.909 69.214)" fill="#2562a0"/>
    <path id="Path_1218" data-name="Path 1218" d="M578.25,300.678c1.37,3.867,2.633,7.432,4.072,11.491H288.438c.228-9.658,2.038-11.49,11.336-11.49H578.25Z" transform="translate(61.368 66.115)" fill="#2562a0"/>
    <path id="Path_1219" data-name="Path 1219" d="M546.035,232.267c1.468,7.646,1.232,8.044-6.04,8.045q-110.529.026-221.056,0c-5.9,0-7.589-1.792-6.362-6.454.151-.573.265-1.444.653-1.625,4.018-1.868,8.082-5.161,12.145-5.18,69.421-.32,138.845-.245,208.266-.132,1.592,0,3.153,1.527,4.776,2.231C540.88,230.216,543.383,231.187,546.035,232.267Z" transform="translate(66.593 49.875)" fill="#2562a0"/>
    <path id="Path_1220" data-name="Path 1220" d="M554.054,252.894H307.337c1.723-11.382,1.723-11.385,12.171-11.385q111.094,0,222.189,0C551.923,241.509,551.923,241.513,554.054,252.894Z" transform="translate(65.524 53.104)" fill="#2562a0"/>
    <path id="Path_1221" data-name="Path 1221" d="M789.548,425.069H638.658a35.5,35.5,0,0,1,3.96-3.453c17.225-10.4,35.106-18.186,56.013-17.076,14.156.751,28.411-.417,42.573.284C759.519,405.729,775.077,414.294,789.548,425.069Z" transform="translate(138.377 88.929)" fill="#2562a0"/>
    <path id="Path_1222" data-name="Path 1222" d="M203.488,424.851H53.634c-.029-.287-.218-.865-.078-.96,15.579-10.674,32.181-18.813,51.53-19.136,16.825-.282,33.693-.738,50.478.127C173.572,405.81,189.067,414.1,203.488,424.851Z" transform="translate(9.71 88.918)" fill="#2562a0"/>
    <path id="Path_1223" data-name="Path 1223" d="M429.74,441.583q52.99,0,105.98.01c2.768,0,6.3-.671,5.648,3.9-.191,1.338-1.663,2.854-2.948,3.564-1.1.609-2.774.206-4.194.206q-104.459.005-208.916-.1c-2.406,0-6.225-.947-6.928-2.536-1.63-3.693.826-5.145,4.77-5.108,17.255.168,34.514.106,51.771.113q27.409.013,54.818,0Z" transform="translate(67.84 97.084)" fill="#2562a0"/>
    <path id="Path_1224" data-name="Path 1224" d="M478.919,598.774c0-10.531-.122-21.009.179-31.475.032-1.092,2.539-2.986,3.939-3.027,9.522-.268,19.061-.3,28.58.031,1.405.048,3.874,2.33,3.917,3.642.329,10.094.182,20.2.182,30.829Z" transform="translate(103.247 124.03)" fill="#2562a0"/>
    <path id="Path_1225" data-name="Path 1225" d="M310.53,598.8V564.369H345.3V598.8Z" transform="translate(66.226 124.097)" fill="#2562a0"/>
    <path id="Path_1226" data-name="Path 1226" d="M420.284,144.321c1.616,1.676,3.917,3.073,4.737,5.075,5.038,12.3,11.2,24.4,14.2,37.222,4.077,17.418,5.652,35.421,8.518,54.636-5.777,0-9.792.477-13.57-.261-1.3-.255-2.735-3.475-2.886-5.436-1.055-13.722-.931-27.59-2.856-41.175-2.2-15.555-6.14-30.864-9.314-46.282-.157-.764-.235-1.544-.35-2.317Zm21.322,80.926,1.147-1.091c-1.865-2.254-3.657-6.318-5.609-6.4-4.515-.182-3.577,4.3-3.689,7.355a11.711,11.711,0,0,0,.63,5.292,5.062,5.062,0,0,0,3.585,2.367c.978.09,2.586-1.2,3.047-2.249C441.411,228.94,441.348,227.023,441.607,225.247Z" transform="translate(90.025 31.734)" fill="#2562a0"/>
    <path id="Path_1227" data-name="Path 1227" d="M403.137,145.676C392.365,176.3,391.2,208.285,389.776,241.3c-3.872,0-7.644.278-11.328-.174-1.067-.132-2.718-2.38-2.683-3.617.842-29.391,4.7-58.169,18.675-84.647,1.7-3.214,4.442-5.875,6.7-8.793Zm-22.889,79.352.174.01c0,1.2-.449,2.694.1,3.551a30.487,30.487,0,0,0,4.028,4.349c1.221-1.552,3.1-2.952,3.5-4.693a18.371,18.371,0,0,0-.145-7.751c-.257-1.211-2.118-3-3.123-2.916a6.044,6.044,0,0,0-3.977,2.75C380.063,221.558,380.392,223.437,380.248,225.029Z" transform="translate(80.57 31.679)" fill="#2562a0"/>
    <path id="Path_1228" data-name="Path 1228" d="M438.583,132.2h-50.65c0-4.072.184-7.691-.046-11.285-.287-4.468,2.856-8.606,7.292-8.654q17.594-.188,35.191-.035c5.219.051,7.766,3.919,7.31,9.413C437.417,124.807,438.189,128.064,438.583,132.2Z" transform="translate(83.232 24.66)" fill="#2562a0"/>
    <path id="Path_1229" data-name="Path 1229" d="M415.694,240.852H402.942c0-11.472-.411-22.574.093-33.635.811-17.8,2.217-35.58,3.4-53.366a18.225,18.225,0,0,1,.786-5.386c.545-1.391,1.932-2.452,2.947-3.66.675,1.275,1.842,2.508,1.949,3.828,1.283,15.744,2.833,31.483,3.452,47.258C416.149,210.621,415.694,225.392,415.694,240.852Zm-1.959-16.128c-.074-1.4.345-3.151-.34-4.12-1-1.414-2.794-2.268-4.249-3.361-1.127,2.473-3.163,4.955-3.136,7.416.029,2.7,1.96,5.381,3.062,8.07,1.464-1.067,3.358-1.863,4.255-3.286C414.075,228.255,413.653,226.33,413.735,224.724Z" transform="translate(86.511 31.841)" fill="#2562a0"/>
    <path id="Path_1230" data-name="Path 1230" d="M514.414,564H473.146V541.624h41.267Z" transform="translate(101.983 119.096)" fill="#2562a0"/>
    <path id="Path_1231" data-name="Path 1231" d="M397.415,144.233c-4.756,12.187-10.7,23.234-13.291,35.018-3.982,18.114-5.794,36.716-8.239,55.149-.8,6.054-7.66,9.886-12.812,6.486a3.974,3.974,0,0,1-1.317-3.047c1.7-32.114,7.923-62.758,29.421-88.262C392.835,147.608,395.121,146.17,397.415,144.233Zm-30.173,81.548-1.171.871,4.545,6.319a52.927,52.927,0,0,0,4.451-6.595,6.464,6.464,0,0,0,.209-4.7c-.625-1.593-2.153-3.855-3.382-3.915-1.337-.065-3.172,1.832-4.057,3.312C367.094,222.317,367.4,224.188,367.243,225.781Z" transform="translate(77.489 31.715)" fill="#2562a0"/>
    <path id="Path_1232" data-name="Path 1232" d="M447.2,224.753c-1.971-12.584-2.945-25.431-6.174-37.684-3.78-14.348-9.525-28.178-14.289-41.86a29.729,29.729,0,0,1,4.528,3.566c14.012,15.023,21.116,33.507,25.349,53.1,2.711,12.547,3.974,25.407,5.99,38.812H447.081q0-8.048,0-16.115c.873,2.4,1.354,5.088,2.811,7.045.56.753,3.344-.148,5.115-.3l-1.561-13.5c-1.852.553-4.21.605-5.4,1.812C447.056,220.637,447.429,222.994,447.2,224.753Z" transform="translate(91.778 31.929)" fill="#2562a0"/>
    <path id="Path_1233" data-name="Path 1233" d="M312.035,564.422V541.173c5.3,0,10.458,0,15.613,0,6.68,0,13.365.155,20.039-.05,3.708-.113,4.811,1.322,4.947,4.939.683,18.345.772,18.343-17.554,18.358C327.624,564.426,320.168,564.422,312.035,564.422Z" transform="translate(66.557 118.984)" fill="#2562a0"/>
    <path id="Path_1234" data-name="Path 1234" d="M419.091,70.06H400.284c.777-2.537,1.507-4.59,2.02-6.695.429-1.755,1.51-4.36.748-5.232-4.872-5.574.751-9.339,1.643-13.969a23.191,23.191,0,0,0-1.186-12.712c-2.1-5-3.172-9.165-.346-14.241,2.545-4.573,4-9.744,6.3-14.472C410.071,1.486,412.044.9,413.39,0c.118,1.48.218,2.961.36,4.438a15.787,15.787,0,0,0,.526,4.222c2.018,5.105,7.078,9.691,2.167,15.844-.5.629.367,2.3.49,3.494.344,3.347,2.489,6.835-2.225,9.5-1.005.568.223,5.448.773,8.274.365,1.881,1.768,3.6,1.984,5.466C418.175,57.381,418.557,63.562,419.091,70.06Z" transform="translate(85.961)" fill="#2562a0"/>
    <path id="Path_1235" data-name="Path 1235" d="M377.841,143.008c.681-3.029,1.017-5.807,2-8.332a4.582,4.582,0,0,1,3.34-2.459c22.223-.144,44.445-.106,66.432-.106,1.047,3.827,1.919,7.019,2.98,10.9Z" transform="translate(81.027 29.048)" fill="#2562a0"/>
    <path id="Path_1236" data-name="Path 1236" d="M405.979,144.577c-1.481,32.365-2.93,64.007-4.4,96.194H390.837c0-8.567-.887-17.1.176-25.39,2.618-20.416,6.08-40.725,9.349-61.054a26.5,26.5,0,0,1,2.668-7.39C403.551,145.887,405.02,145.309,405.979,144.577ZM401.8,225.121l1.2-1.1c-1.88-2.258-3.672-6.317-5.655-6.412-4.542-.217-3.6,4.283-3.758,7.357a10.79,10.79,0,0,0,.4,4.761c.564,1.259,2.189,2.972,3.2,2.88a6.131,6.131,0,0,0,3.981-2.778C401.925,228.593,401.632,226.717,401.8,225.121Z" transform="translate(83.808 31.79)" fill="#2562a0"/>
    <path id="Path_1237" data-name="Path 1237" d="M414.715,144.52c1.072,1.907,2.728,3.7,3.127,5.74,3.451,17.646,7.078,35.274,9.807,53.037,1.439,9.37,1.343,18.992,1.672,28.51.362,10.452-.007,10.646-11.1,8.876q-2.355-47.694-4.71-95.438Zm2.922,80.215c.614,2.442.72,5.022,1.958,6.828.575.839,3.347.173,5.124.19.013-4.4.065-8.8-.185-13.187-.006-.111-4.155-.755-4.922.12C418.338,220.136,418.245,222.621,417.637,224.735Z" transform="translate(88.871 31.778)" fill="#2562a0"/>
    <path id="Path_1238" data-name="Path 1238" d="M542.749,453.021H317.6C321.985,449.676,536.8,449.463,542.749,453.021Z" transform="translate(67.779 99.044)" fill="#2562a0"/>
    <path id="Path_1239" data-name="Path 1239" d="M463.326,232.418c4.753,1.063,6.639-.737,6.256-5.269-.71-8.425-1.694-9.788-7.911-9.7-4.194-26.208-11.358-51.243-30.271-72.192,27.8,16.916,43.64,65.266,42.2,95.34h-9.874C463.6,238.014,463.476,235.487,463.326,232.418Z" transform="translate(92.803 31.941)" fill="#2562a0"/>
    <path id="Path_1240" data-name="Path 1240" d="M350,240.076c2.718-36.209,11.665-69.247,39.469-93.369-5.521,10.612-12.389,21.54-17.016,33.346-4.689,11.967-7.163,24.8-10.531,36.978-1.566.654-4.762,1.093-5.075,2.286a44.149,44.149,0,0,0-.986,11.751c0,.411,3.174.775,5.236,1.242C362.068,241.094,361.133,241.915,350,240.076Z" transform="translate(74.904 32.259)" fill="#2562a0"/>
    <path id="Path_1241" data-name="Path 1241" d="M447.112,149.385c26.595,13.629,52.376,61.579,48.762,89.851-8.925,2.451-9.374,1.954-10.2-11.593l3.272,4.248c3.03-3.541,1.659-14.542-1.813-14.664-4.643-.163-4-3.258-4.551-5.549-4.449-18.4-12.151-35.212-24.16-49.913C455.031,157.609,451.189,153.82,447.112,149.385Z" transform="translate(96.258 32.848)" fill="#2562a0"/>
    <path id="Path_1242" data-name="Path 1242" d="M378.167,149.531C358.081,168.164,347.1,191.6,341.706,217.2c-1.824.317-4.331.255-4.506.865a87.168,87.168,0,0,0-2.424,12.268,39.513,39.513,0,0,0,4.693,1.216c-.144,2.262-.32,5.019-.523,8.2H329.8C328,212.188,346.211,168.769,378.167,149.531Z" transform="translate(70.436 32.88)" fill="#2562a0"/>
    <path id="Path_1243" data-name="Path 1243" d="M441.264,148.4c18.43,13.921,30.044,32.409,36.6,53.99,3.094,10.187,4.414,20.927,6.287,31.462.537,3.018,1.4,6.557-4.061,6.7-4.806.127-5.317-2.478-5.228-6.07.015-.606,0-1.214,0-1.814,4.464-1.724,4.792-10.833.794-15.227-1.605-1.763-3.285-3.922-3.783-6.156-5.154-23.127-14.008-44.348-30.758-61.674C440.979,149.472,441.181,149,441.264,148.4Z" transform="translate(94.93 32.631)" fill="#2562a0"/>
    <path id="Path_1244" data-name="Path 1244" d="M339.711,239.947c2.764-36.054,14.032-67.212,42.335-90.917.212.864.481,1.371.351,1.51-15.887,17.153-24.3,37.9-29.635,60.286-1.133,4.753-4.316,8.987-6.21,13.6-1.2,2.93-2.5,6.1,2.053,8.079.882.382.969,3.754.54,5.533-.237.977-2.24,1.866-3.582,2.151C344.054,240.509,342.391,240.1,339.711,239.947Z" transform="translate(72.642 32.77)" fill="#2562a0"/>
    <path id="Path_1245" data-name="Path 1245" d="M269.178,467.182c3.824-1.413,5.538-.562,5.524,3.527q-.122,34.02,0,68.039c.016,4.234-1.9,4.722-5.527,3.453Z" transform="translate(57.133 102.587)" fill="#2562a0"/>
    <path id="Path_1246" data-name="Path 1246" d="M548.124,541.966c-3.985,1.625-5.836.909-5.826-3.235.052-22.722-.016-45.443.134-68.165.009-1.336,1.566-2.661,2.4-3.99,1.1,1.061,3.141,2.115,3.15,3.184C548.167,493.861,548.124,517.965,548.124,541.966Z" transform="translate(117.188 102.594)" fill="#2562a0"/>
    <path id="Path_1247" data-name="Path 1247" d="M574.042,467.283v74.695c-4.171,1.823-6.024.72-6.012-3.871q.091-33.462.007-66.925C568.03,467.1,569.568,465.544,574.042,467.283Z" transform="translate(122.846 102.595)" fill="#2562a0"/>
    <path id="Path_1248" data-name="Path 1248" d="M243.036,542.011c0-4.821,0-9.836,0-14.85,0-18.609.066-37.219-.05-55.828-.024-3.949,1.052-5.725,5.888-4.1v7.7c0,20.834-.03,41.669.022,62.5C248.906,541.1,248.676,544.151,243.036,542.011Z" transform="translate(51.374 102.606)" fill="#2562a0"/>
    <path id="Path_1249" data-name="Path 1249" d="M294.507,504.034c0-10.944-.123-21.89.142-32.827.038-1.573,1.952-3.1,3-4.647.9,1.486,2.579,2.966,2.59,4.459q.251,33.74-.006,67.482c-.011,1.436-1.755,2.857-2.694,4.285-1.01-1.569-2.859-3.119-2.895-4.71C294.389,526.733,294.507,515.382,294.507,504.034Z" transform="translate(62.696 102.59)" fill="#2562a0"/>
    <path id="Path_1250" data-name="Path 1250" d="M518.648,466c1.259,1.441,3.6,2.872,3.618,4.324.228,23.871.161,47.744.161,71.92-3.2.886-5.82,1.881-5.813-2.93q.05-35.81.015-71.622Z" transform="translate(111.541 102.467)" fill="#2562a0"/>
    <path id="Path_1251" data-name="Path 1251" d="M322.607,540.172c-1.17-1.153-3.351-2.3-3.361-3.46q-.307-34.4-.049-68.8c.006-1.087,1.638-2.165,2.513-3.246.861,1.084,2.467,2.165,2.474,3.256.144,23.707.11,47.415.11,71.122Z" transform="translate(68.108 102.173)" fill="#2562a0"/>
    <path id="Path_1252" data-name="Path 1252" d="M495.829,501.983c0-10.923-.1-21.847.112-32.766.029-1.531,1.561-3.033,2.4-4.548.914,1.432,2.613,2.857,2.624,4.3q.254,33.07.011,66.141c-.011,1.51-1.553,3.01-2.382,4.514-.921-1.624-2.6-3.229-2.639-4.871C495.714,523.831,495.829,512.906,495.829,501.983Z" transform="translate(106.965 102.174)" fill="#2562a0"/>
    <path id="Path_1253" data-name="Path 1253" d="M438.253,75.78c-4.139,5.188-45.976,5.328-50.8,0,1.16-.411,2.847-.564,3-1.134,1.864-6.8,7.336-4.545,11.673-4.65,8.082-.2,16.171-.1,24.256-.035,3.394.027,7.46-1.275,8.455,4.127C434.975,74.822,437.029,75.205,438.253,75.78Z" transform="translate(83.14 15.33)" fill="#2562a0"/>
    <path id="Path_1254" data-name="Path 1254" d="M337.957,327.919h6.471c0,7.593,0,15.041,0,22.489,0,11.355.1,22.712-.149,34.06-.031,1.391-1.958,2.739-3.007,4.106-1.105-1.072-3.162-2.134-3.173-3.217C337.9,366.336,337.957,347.312,337.957,327.919Z" transform="translate(72.255 72.105)" fill="#2562a0"/>
    <path id="Path_1255" data-name="Path 1255" d="M679.931,386.267c7.284,0,14.3,0,21.32,0,8.5,0,16.991.08,25.483-.02,3.323-.039,4.739,1.061,4.475,4.618-.312,4.212-.073,8.466-.073,13.332h-51.2Zm10.563,2.806-1.822,1.729a119.654,119.654,0,0,0,2.67,12.345c.113.371,5.681-.066,5.808-.7.729-3.679,1.192-7.668.388-11.247C697.273,390.021,692.957,389.755,690.494,389.073Zm9.123-.471c1.243,6.231,1.968,10.506,3.177,14.639.093.317,5.2-.11,5.283-.628a37.291,37.291,0,0,0,.412-11.726C708.343,389.97,704.144,389.7,699.617,388.6Zm11.093.152c1.174,6,1.849,10.285,3.081,14.408.118.4,5.293.066,5.383-.427.705-3.852,1.25-7.91.631-11.7C719.647,390.06,715.148,389.8,710.71,388.755ZM686.7,389.772c-2.259,0-4.812-.078-4.819.011-.289,4.415-.728,8.893-.127,13.224.112.811,4.744,1.367,4.915-2.5C686.82,397.128,686.7,393.738,686.7,389.772Zm44.655,6.9c-.7-2.464-1-4.865-2.163-6.726-.342-.547-4.562.343-4.589.739a68.158,68.158,0,0,0,.268,11.793c.039.373,3.806,1.087,4.14.561C730.189,401.194,730.623,398.872,731.357,396.677Z" transform="translate(147.452 84.931)" fill="#2562a0"/>
    <path id="Path_1256" data-name="Path 1256" d="M510.454,328.4c0,7.088,0,14.343,0,21.6,0,11.561.094,23.125-.156,34.681-.029,1.319-2.013,2.6-3.091,3.894-.876-1.3-2.5-2.587-2.515-3.893-.171-17.644-.062-35.291-.159-52.937C504.508,327.568,506.338,326.889,510.454,328.4Z" transform="translate(108.884 72.049)" fill="#2562a0"/>
    <path id="Path_1257" data-name="Path 1257" d="M375.813,328.422c4.133-1.581,5.9-.765,5.876,3.342-.084,17.629.017,35.257-.155,52.884-.012,1.311-1.636,2.607-2.509,3.91-1.071-1.1-3.063-2.2-3.074-3.308C375.76,366.253,375.813,347.253,375.813,328.422Z" transform="translate(80.579 72.05)" fill="#2562a0"/>
    <path id="Path_1258" data-name="Path 1258" d="M530.183,358.019c0,8.5.149,17.01-.124,25.5-.056,1.712-1.716,3.371-2.637,5.054-1.069-1.557-3.046-3.1-3.067-4.673q-.335-25.808-.006-51.618c.02-1.563,1.959-3.1,3.007-4.651.942,1.626,2.646,3.228,2.7,4.883C530.332,341.009,530.183,349.516,530.183,358.019Z" transform="translate(113.206 72.042)" fill="#2562a0"/>
    <path id="Path_1259" data-name="Path 1259" d="M514.6,328.391c4-1.472,5.91-.908,5.89,3.306-.088,17.646.016,35.294-.154,52.939-.012,1.318-1.62,2.62-2.485,3.929-1.085-1.078-3.1-2.147-3.112-3.235C514.543,366.312,514.6,347.289,514.6,328.391Z" transform="translate(111.096 72.047)" fill="#2562a0"/>
    <path id="Path_1260" data-name="Path 1260" d="M287.859,328.365c4.188-1.5,5.949-.676,5.926,3.434-.094,17.446.027,34.891-.157,52.336-.016,1.49-1.7,2.961-2.606,4.439-1.055-1.317-3.013-2.626-3.028-3.955C287.794,365.975,287.859,347.329,287.859,328.365Z" transform="translate(61.239 72.05)" fill="#2562a0"/>
    <path id="Path_1261" data-name="Path 1261" d="M491.775,328.45c4.067-1.608,5.924-.832,5.91,3.274-.057,17.622.028,35.246-.144,52.869-.013,1.326-1.636,2.636-2.51,3.954-1.086-1.086-3.106-2.162-3.117-3.258C491.722,366.293,491.775,347.3,491.775,328.45Z" transform="translate(106.078 72.05)" fill="#2562a0"/>
    <path id="Path_1262" data-name="Path 1262" d="M475.582,328.07c3.638-1.248,5.293-.052,5.277,3.893-.071,17.446.035,34.892-.167,52.337-.017,1.44-1.869,2.858-2.868,4.287-1.015-1.169-2.907-2.33-2.916-3.5-.127-18.658-.016-37.318.073-55.977C474.983,328.759,475.371,328.417,475.582,328.07Z" transform="translate(102.358 72.034)" fill="#2562a0"/>
    <path id="Path_1263" data-name="Path 1263" d="M304.466,328.311q0,15.7,0,31.441c0,8.1.132,16.2-.128,24.293-.049,1.529-1.664,3.007-2.556,4.51-1.09-1.527-3.111-3.042-3.13-4.583-.222-17.41-.1-34.824-.161-52.237C298.478,327.583,300.455,327,304.466,328.311Z" transform="translate(63.579 72.054)" fill="#2562a0"/>
    <path id="Path_1264" data-name="Path 1264" d="M463.363,328.836c0,18.636.065,37.272-.138,55.906-.015,1.325-2,2.628-3.075,3.94-.921-1.282-2.633-2.557-2.645-3.849-.176-17.842-.21-35.688.057-53.529.022-1.419,2.523-2.8,3.872-4.2Z" transform="translate(98.513 71.926)" fill="#2562a0"/>
    <path id="Path_1265" data-name="Path 1265" d="M442.591,328.714c0,18.817.054,37.635-.129,56.45-.011,1.193-1.874,2.368-2.874,3.551-.948-1.239-2.709-2.47-2.722-3.719-.181-17.829-.212-35.661.034-53.488.021-1.5,2.3-2.959,3.532-4.438Z" transform="translate(93.974 71.918)" fill="#2562a0"/>
    <path id="Path_1266" data-name="Path 1266" d="M421.511,328.395c0,9.765,0,19.665,0,29.564,0,8.723.122,17.452-.126,26.169-.044,1.507-1.663,2.968-2.554,4.45-1.078-1.518-3.075-3.023-3.095-4.554-.22-17.446-.093-34.895-.168-52.343C415.549,327.463,417.512,326.93,421.511,328.395Z" transform="translate(89.322 72.047)" fill="#2562a0"/>
    <path id="Path_1267" data-name="Path 1267" d="M314.488,328.483c0,9.115,0,18.39,0,27.663,0,9.316.116,18.635-.128,27.944-.04,1.513-1.683,2.984-2.585,4.473-1.072-1.538-3.058-3.066-3.078-4.617-.218-17.413-.109-34.83-.151-52.245C308.535,327.593,310.416,326.838,314.488,328.483Z" transform="translate(65.789 72.051)" fill="#2562a0"/>
    <path id="Path_1268" data-name="Path 1268" d="M326.626,328.41v16.672c0,12.97.1,25.943-.149,38.908-.029,1.542-1.991,3.046-3.056,4.567-.894-1.49-2.551-2.97-2.565-4.469-.182-17.427-.063-34.857-.155-52.286C320.68,327.718,322.394,326.837,326.626,328.41Z" transform="translate(68.462 72.052)" fill="#2562a0"/>
    <path id="Path_1269" data-name="Path 1269" d="M361.573,328.754c0,18.84.054,37.68-.132,56.517-.012,1.154-1.919,2.29-2.944,3.434-.931-1.252-2.661-2.5-2.674-3.758-.177-17.846-.21-35.7.045-53.541.021-1.463,2.391-2.894,3.669-4.339Z" transform="translate(76.155 71.917)" fill="#2562a0"/>
    <path id="Path_1270" data-name="Path 1270" d="M402.47,328.617c0,18.831.055,37.664-.124,56.494-.012,1.215-1.825,2.412-2.8,3.617-1-1.2-2.863-2.391-2.876-3.6-.19-17.848-.227-35.7.022-53.547.022-1.533,2.325-3.034,3.569-4.549Z" transform="translate(85.133 71.91)" fill="#2562a0"/>
    <path id="Path_1271" data-name="Path 1271" d="M142.7,404.523H95.078c3.757-.723,6.778-1.394,6.368-6.57-.39-4.927,1.089-10.537-8.107-8.31,4.265-4.4,48.211-4.466,52.436-.534-9.044-1.158-8.448,4.7-7.515,9.819C138.665,401.155,141.392,402.96,142.7,404.523Zm-40.215-15.578c1.282,5.9,2.053,10.173,3.363,14.275.121.382,5.277-.059,5.365-.577a35.364,35.364,0,0,0,.444-11.768C111.5,389.956,106.908,389.811,102.486,388.945Zm21.736,1.719-1.935-1.632c-2.451.7-6.713.955-7.009,2.176-.855,3.521-.422,7.49.282,11.133.131.673,5.616,1.189,5.724.854C122.579,399.118,123.329,394.867,124.222,390.664ZM135.6,388.8c-4.4,1-8.915,1.243-9.072,2.2-.627,3.8-.1,7.854.6,11.706.091.505,5.255.856,5.37.473C133.731,399.053,134.421,394.766,135.6,388.8Z" transform="translate(18.468 84.931)" fill="#2562a0"/>
    <path id="Path_1272" data-name="Path 1272" d="M420.443,502.175c0-10.946-.1-21.895.107-32.836.029-1.56,1.519-3.094,2.332-4.639.8,1.519,2.273,3.031,2.284,4.555q.225,32.836,0,65.674c-.01,1.546-1.435,3.081-2.2,4.622-.842-1.513-2.385-3.012-2.414-4.542C420.346,524.068,420.443,513.12,420.443,502.175Z" transform="translate(90.389 102.181)" fill="#2562a0"/>
    <path id="Path_1273" data-name="Path 1273" d="M471.69,502.015c0-10.751-.11-21.5.113-32.25.035-1.7,1.571-3.377,2.414-5.064.817,1.563,2.335,3.119,2.346,4.687q.232,32.86-.012,65.721c-.012,1.487-1.675,2.961-2.57,4.44-.764-1.558-2.16-3.1-2.188-4.675C471.6,523.925,471.691,512.969,471.69,502.015Z" transform="translate(101.657 102.181)" fill="#2562a0"/>
    <path id="Path_1274" data-name="Path 1274" d="M445.754,502.012c0-10.756-.109-21.515.112-32.266.034-1.7,1.557-3.367,2.392-5.049.828,1.559,2.367,3.112,2.378,4.677q.234,32.877-.013,65.754c-.011,1.482-1.7,2.952-2.6,4.428-.755-1.555-2.136-3.1-2.163-4.669C445.665,523.932,445.754,512.971,445.754,502.012Z" transform="translate(95.954 102.18)" fill="#2562a0"/>
    <path id="Path_1275" data-name="Path 1275" d="M348.4,502.005c0,10.956.09,21.913-.1,32.865-.028,1.572-1.414,3.122-2.17,4.682-.9-1.476-2.561-2.946-2.573-4.428q-.253-32.864-.013-65.73c.011-1.57,1.519-3.13,2.331-4.694.842,1.682,2.379,3.351,2.414,5.05C348.511,480.5,348.4,491.253,348.4,502.005Z" transform="translate(73.46 102.181)" fill="#2562a0"/>
    <path id="Path_1276" data-name="Path 1276" d="M374.328,502.621c0,10.755.092,21.511-.1,32.264-.028,1.57-1.407,3.116-2.16,4.672-.9-1.477-2.584-2.947-2.6-4.431q-.254-32.873-.013-65.748c.011-1.565,1.543-3.121,2.368-4.681.834,1.683,2.358,3.352,2.392,5.052C374.435,480.7,374.328,491.663,374.328,502.621Z" transform="translate(79.158 102.18)" fill="#2562a0"/>
    <path id="Path_1277" data-name="Path 1277" d="M394.792,538.664c0-23.495-.033-46.99.094-70.484.007-1.164,1.4-2.32,2.141-3.48.861,1.293,2.442,2.57,2.47,3.88.218,9.929.137,19.865.138,29.8,0,12.163.1,24.328-.122,36.488-.031,1.724-1.59,3.419-2.441,5.127Z" transform="translate(84.753 102.181)" fill="#2562a0"/>
    <path id="Path_1278" data-name="Path 1278" d="M394.043,69.263c1.914-9.176,2.44-9.629,10.957-9.646q6.7-.013,13.4,0c8.373.02,8.809.409,10.735,9.646Z" transform="translate(84.589 13.107)" fill="#2562a0"/>
    <path id="Path_1279" data-name="Path 1279" d="M358.66,159.787a127.334,127.334,0,0,0-27.135,50.386c-.966,3.406-3.346,6.45-4.066,9.873-.7,3.346-.12,6.962-.1,10.459a15.757,15.757,0,0,1-.057,4.213c-.311,1.1-1.4,1.988-2.137,2.97-.853-1.071-2.524-2.228-2.423-3.2a144.083,144.083,0,0,1,2.639-17.987A108.659,108.659,0,0,1,358.66,159.787Z" transform="translate(68.91 35.135)" fill="#2562a0"/>
    <path id="Path_1280" data-name="Path 1280" d="M468.135,163.766c15.273,14.694,24.666,32.714,29.392,53.209a136.172,136.172,0,0,1,2.434,16.159c.123,1.155-1.176,2.463-1.82,3.7-1.05-1.167-2.917-2.276-3.007-3.513-.373-5.167,1.261-10.948-.5-15.463C487.32,199.162,482.009,179.363,468.135,163.766Z" transform="translate(100.881 36.01)" fill="#2562a0"/>
    <path id="Path_1281" data-name="Path 1281" d="M279.481,544.31c-5.651-1.206-10.215-.984-12.7-3.149-1.55-1.353-1.2-7.893.534-9.248,2.263-1.77,8.434-2.177,9.858-.528C279.273,533.813,278.659,538.577,279.481,544.31Z" transform="translate(56.39 116.615)" fill="#2562a0"/>
    <path id="Path_1282" data-name="Path 1282" d="M253.9,543.942c-5.755-.859-10.508-.277-12.931-2.38-1.641-1.424-1.224-7.588.553-9.816,1.377-1.729,7.9-2.051,9.25-.494C252.938,533.738,252.709,538.3,253.9,543.942Z" transform="translate(50.705 116.594)" fill="#2562a0"/>
    <path id="Path_1283" data-name="Path 1283" d="M526.343,530.119v13.459c-4.13-.484-8.666.142-11.427-1.78-1.616-1.125-1.755-8.012-.154-9.287C517.358,530.445,521.93,530.863,526.343,530.119Z" transform="translate(110.885 116.566)" fill="#2562a0"/>
    <path id="Path_1284" data-name="Path 1284" d="M292.046,542.689V530.937h11.362v11.752Z" transform="translate(62.161 116.746)" fill="#2562a0"/>
    <path id="Path_1285" data-name="Path 1285" d="M551.748,542.855H540.019V530.562c3.494.271,8.525-.769,10.388,1.2C552.4,533.857,551.407,538.79,551.748,542.855Z" transform="translate(116.687 116.655)" fill="#2562a0"/>
    <path id="Path_1286" data-name="Path 1286" d="M565.787,531.5c11.526-2.6,13.3-.767,10.927,11.36-1.659.11-3.426.311-5.193.321s-3.566-.166-5.734-.281Z" transform="translate(122.353 116.643)" fill="#2562a0"/>
    <path id="Path_1287" data-name="Path 1287" d="M405.9,100.263c0,4.234.163,8.477-.1,12.694-.077,1.225-1.376,2.371-2.114,3.554-.623-1.053-1.769-2.1-1.786-3.162q-.221-13-.007-26c.018-1.1,1.113-2.182,1.708-3.272.766,1.163,2.114,2.289,2.192,3.495C406.064,91.785,405.9,96.03,405.9,100.263Z" transform="translate(86.292 18.487)" fill="#2562a0"/>
    <path id="Path_1288" data-name="Path 1288" d="M393.839,100.006c0-4.234-.126-8.476.085-12.7.055-1.1,1.154-2.153,1.772-3.228.741.977,2.1,1.942,2.123,2.933q.253,13.3,0,26.612c-.018.976-1.392,1.927-2.137,2.89-.615-1.066-1.712-2.112-1.762-3.2C393.719,108.883,393.837,104.441,393.839,100.006Z" transform="translate(84.536 18.488)" fill="#2562a0"/>
    <path id="Path_1289" data-name="Path 1289" d="M410.743,100.325c0-4.432-.124-8.871.094-13.292.051-1.025,1.272-1.993,1.954-2.988.725.984,2.06,1.957,2.079,2.953q.249,13.292,0,26.589c-.018,1-1.332,1.974-2.046,2.959-.7-.975-1.941-1.924-1.991-2.931C410.618,109.2,410.743,104.757,410.743,100.325Z" transform="translate(88.254 18.481)" fill="#2562a0"/>
    <path id="Path_1290" data-name="Path 1290" d="M420.018,83.833c3.926,2.064,5.278,14.615,3.7,29.17-.15,1.382-1.425,2.641-2.177,3.957l-1.519-.661Z" transform="translate(90.301 18.434)" fill="#2562a0"/>
    <ellipse id="Ellipse_66" data-name="Ellipse 66" cx="30.408" cy="1.295" rx="30.408" ry="1.295" transform="translate(465.912 98.033)" fill="#2562a0"/>
    <path id="Path_1291" data-name="Path 1291" d="M366.884,539.847v-9.9c10.573-3.366,12.732-1.38,10.523,9.9Z" transform="translate(78.617 116.201)" fill="#2562a0"/>
    <path id="Path_1292" data-name="Path 1292" d="M352.306,539.873H341.245V528.7c3.3.3,7.772-.57,9.833,1.267C352.884,531.579,351.981,536.225,352.306,539.873Z" transform="translate(72.98 116.254)" fill="#2562a0"/>
    <path id="Path_1293" data-name="Path 1293" d="M403.133,539.946H393.117c-2.858-10.737-1.25-12.464,10.016-10.5Z" transform="translate(84.114 116.262)" fill="#2562a0"/>
    <path id="Path_1294" data-name="Path 1294" d="M417.918,539.8V529.716c10.877-2.708,12.509-1.171,10.5,10.081Z" transform="translate(89.839 116.223)" fill="#2562a0"/>
    <path id="Path_1295" data-name="Path 1295" d="M454.165,539.9H443.987c-2.595-10.846-.933-12.557,10.179-10.356Z" transform="translate(95.336 116.254)" fill="#2562a0"/>
    <path id="Path_1296" data-name="Path 1296" d="M480.241,529.487v10.251H469.963C467.177,529.18,468.788,527.457,480.241,529.487Z" transform="translate(101.022 116.263)" fill="#2562a0"/>
    <path id="Path_1297" data-name="Path 1297" d="M327.285,529.133v10.589h-10.22V529.133Z" transform="translate(67.663 116.349)" fill="#2562a0"/>
    <path id="Path_1298" data-name="Path 1298" d="M493.08,539.792c.637-3.849.4-7.707,2.087-10.341.816-1.279,6.825-1.331,7.669-.065,1.731,2.6,1.566,6.463,2.293,10.406Z" transform="translate(106.366 116.202)" fill="#2562a0"/>
    <path id="Path_1299" data-name="Path 1299" d="M572.269,457.434c1.064,1.616,3.119,3.366,2.924,4.813-.215,1.6-2.254,3.662-3.924,4.2-2.76.884-4.876-.723-4.262-3.86.353-1.8,1.773-3.393,2.711-5.078Z" transform="translate(122.598 100.583)" fill="#2562a0"/>
    <path id="Path_1300" data-name="Path 1300" d="M242.238,466.73V458.2c2.446.234,5.307-.238,7.025.947,1.072.737,1.305,5.07.342,5.852C247.949,466.346,245.064,466.176,242.238,466.73Z" transform="translate(51.209 100.753)" fill="#2562a0"/>
    <path id="Path_1301" data-name="Path 1301" d="M276.826,466.118h-9.182c.614-2.873.654-5.5,1.831-7.434.5-.826,4.379-.926,4.969-.1C275.751,460.41,275.95,463.029,276.826,466.118Z" transform="translate(56.796 100.711)" fill="#2562a0"/>
    <path id="Path_1302" data-name="Path 1302" d="M301.744,457.775v9.014c-2.857-.507-5.631-.384-7.547-1.607-.923-.588-1.012-4.817-.111-5.45C295.936,458.431,298.709,458.443,301.744,457.775Z" transform="translate(62.471 100.658)" fill="#2562a0"/>
    <path id="Path_1303" data-name="Path 1303" d="M524.39,466.04h-8.908c.461-2.707.3-5.426,1.5-7.258.6-.923,4.7-1.027,5.4-.111C523.7,460.386,523.7,463.112,524.39,466.04Z" transform="translate(111.292 100.715)" fill="#2562a0"/>
    <path id="Path_1304" data-name="Path 1304" d="M550.452,463.288c-1.6,1.045-3.329,3.07-4.764,2.879-1.654-.222-3.046-2.4-4.551-3.727,1.383-1.46,2.562-3.7,4.212-4.134,1.358-.353,3.277,1.452,4.945,2.3Z" transform="translate(116.933 100.765)" fill="#2562a0"/>
    <path id="Path_1305" data-name="Path 1305" d="M376.372,463.417H367.84c.544-2.622.572-5.17,1.7-7.053.472-.784,4.249-.844,4.858-.015C375.606,457.993,375.652,460.485,376.372,463.417Z" transform="translate(78.827 100.213)" fill="#2562a0"/>
    <path id="Path_1306" data-name="Path 1306" d="M444.437,463.2c.623-2.676.64-5.171,1.827-6.83.6-.837,4.236-.859,4.88-.015,1.226,1.609,1.292,4.1,2,6.845Z" transform="translate(95.67 100.21)" fill="#2562a0"/>
    <path id="Path_1307" data-name="Path 1307" d="M495.142,457.018c7.242-1.472,7.547-1.214,6.751,6.168l-6.751.316Z" transform="translate(106.819 100.335)" fill="#2562a0"/>
    <path id="Path_1308" data-name="Path 1308" d="M325.533,457.042v6.049h-6.612C317.242,456.169,317.913,455.509,325.533,457.042Z" transform="translate(67.904 100.347)" fill="#2562a0"/>
    <path id="Path_1309" data-name="Path 1309" d="M349.879,463.141h-6.523c-1.439-6.885-1.238-7.108,6.06-6.41C349.548,458.569,349.689,460.5,349.879,463.141Z" transform="translate(73.289 100.37)" fill="#2562a0"/>
    <path id="Path_1310" data-name="Path 1310" d="M393.993,462.57c.37-2.407-2.145-6.334,3.163-6.148,1.4.05,2.731,2.265,4.094,3.488l-5.35,4.6Z" transform="translate(84.517 100.36)" fill="#2562a0"/>
    <path id="Path_1311" data-name="Path 1311" d="M426.522,455.831v7.954c-2.5-.472-4.818-.508-6.653-1.47-.667-.35-.788-3.793-.081-4.29C421.431,456.87,423.731,456.652,426.522,455.831Z" transform="translate(90.145 100.231)" fill="#2562a0"/>
    <path id="Path_1312" data-name="Path 1312" d="M470.739,462.535c.016-2.622-1.913-6.43,3.3-6.162,1.4.073,2.685,2.359,4.022,3.629l-5.553,4.531Z" transform="translate(101.38 100.347)" fill="#2562a0"/>
  </g>
</svg>
