<svg xmlns="http://www.w3.org/2000/svg" width="584.335" height="642.157" viewBox="0 0 584.335 642.157">
  <g id="Group_171" data-name="Group 171" transform="translate(-540 -7650.128)">
    <path id="Path_2295" data-name="Path 2295" d="M6546.531,6203.187c-2.993,3.172-10.229,4.627-16.969,2.139-3.482,7.118-11.425,10.412-19.681,9.424-2.576,1.454-3.9,2.494-5.615,3.118a12.018,12.018,0,0,0-6.323,17.232c.527.9,1.057,1.8,1.846,3.149-13.457-1.794-26.344-1.918-29.615-13.584-1.836-6.548-10.985-12.617-18.277-18.175-7.371-5.619-15-4.729-22.091,1.176-1.092.909-4.811,1.586-6.355,1.127-6.732-2-13.646-3.484-14.435-9.749-.905-7.19-22.394-17.313-34.247-17.38a15.116,15.116,0,0,0-2.9.041c-28.154,5.707-40.09.334-60.569-7.4-6.986-2.639-12.56-6.919-19.859-8.972-6.069-1.707-13.752-1.116-20.644-1.83-2.034-.21-5.221-1.242-5.479-2.158-2.818-10-15.833-14.3-27.266-19.6a12.631,12.631,0,0,1-5.154-4.78,44.6,44.6,0,0,1-3.838-8.27c-2.093-5.473-4-10.973-5.98-16.463a77.474,77.474,0,0,1-2.734-7.764c-1.759-7.247-3.3-14.515-4.9-21.777-.085-.388-.185-.994.158-1.168,8.6-4.367,5.858-10.935,8.746-16.367,4.6-8.652,12.066-16.729,18.562-24.978,1.819-2.31,4.486-4.363,6.2-6V6014.82c6.1,1.839,12.106,2.583,14.915,4.85,2.047,1.653-.12,5.315-.386,7.877,3.492-.84,7.8-8.016,6.986-14.993,12.209,2.042,23.8,4.321,35.64,5.892,24.455,3.247,49.007,6.227,73.584,9.1,17.761,2.079,35.617,3.853,53.452,5.683,6.28.645,12.6,1.358,18.939,1.517q32.8.823,65.636,1.168c2.552.026,5.142-1.367,8.314-2.273,1.63,5.521,7.832,6.379,16.611,5.178,2.452-.336,5.581,2.079,8.664,2.521,7.455,1.069,15.067,1.72,21.606,2.43l-20.043,11.154c7.642,0,14.918,1.03,20.884-.266,7.146-1.552,13.171-5.09,21.212-6.846l-7.545,1.807c9.685,4.507,16.65,7.076,26.452,3.474,5.707-2.1,16.794.857,18.847,4.35-17.771.1-32.858,2.818-37.4,16.654l5.907-4.486c0,7.142-.473,14.637.314,22.08.211,1.993,4.271,3.83,6.563,5.738,2.6-1.584,6.822-2.958,7.443-4.8,1.043-3.09-.4-6.477-.441-9.741-.05-4.611.229-9.224.368-13.835,9.893.079,5.512-6.079,10.215-8.845,5.068,2.082,15.071-.478,15.67,6.127.348,3.848-.968,7.754-1.582,11.955l8.991-4.617c12.5,7.391,1.677,13.836-1.255,21.34,6.291,0,13.293,1.318,17.369-.266,9.408-3.655,22.662-7.961,24.687-13.392,2.8-7.508,8.179-6.536,16.089-7.01,4.042-.243,7.783-2.433,11.6-3.723-3.1-6.765,2.022-13.081,12.472-15.232,5.081-1.047,10.363-1.737,15.589-2.495,13.186-1.913,19.022-6.44,19.271-14.825.068-2.354.95-4.7,1.047-7.051.216-5.27,9.152-3.066,12.379-5.7a80.715,80.715,0,0,1,7.271,5.428c3.862,3.623,6.14,8.349,11.3,10.865,5.541,2.7,1.875,5.428.223,5.466-4.053.094-2.633,6.377-8.9,2.789-.34-.194-3.1.543-3.293,1.053-2.566,6.921-16.154,11.567-10.845,20.124.349.563-.78,1.579-.316,2,6.014,5.472,4.827,6.485-6.272,9.962a54.8,54.8,0,0,0-16.133,8.32c-2.1,1.573-.634,4.879-1.241,7.357-.9,3.659.379,8.6-11.671,7.032,5.92,5.184,8.991,9.891,2.627,14.246l-7.035-5.042-2.081,1.058c1.188,3.938,2.376,7.877,3.651,12.1,1.44.447,5.247.886,6.421,2.22.97,1.1-1.172,3.258-2.171,5.466l6.237,1.188c.7,3.494-11.42,4.083-4.061,8.546.251.152-.461,1.412-1.062,1.54-18.216,3.854-22.992,15.562-35.135,22.863-8.7,5.229-14.564,10.582-12.876,18.039.894,3.952,3.5,7.834,6.1,11.542,5.806,8.3,12.714,16.314,17.966,24.734,3.639,5.835-.5,10.418-8.379,12.387-1.624-1.775-2.5-4.271-4.871-5.072-13.408-4.531-21.339-11.581-22.021-20.7-.581-7.759-11.022-9.417-17.843-12.988-2.1-1.1-9.86,1.968-15.837,3.311-6.561-4.8-15.858-6.374-27.1-3.881-2.023.448-4.8-.409-7.225-.663q.109-.8.219-1.6c-1.908.762-3.787,2.139-5.728,2.174-7.062.127-12.6.342-14.463,6.062-1.312,4.021-15.618,5.361-21.48,3.112-3.053-1.171-5.969-3.862-11.259-.773C6559.077,6206.641,6551.922,6204.171,6546.531,6203.187Z" transform="translate(-5675.359 2054.034)" fill="#10416b"/>
    <path id="Path_2296" data-name="Path 2296" d="M485.008-3714.625l18.954,25.807-14.927,19.1,6.59,20.619-10.617,24.134" transform="translate(155.592 11782.847)" fill="none" stroke="#efefef" stroke-linecap="round" stroke-width="4"/>
    <path id="Path_2297" data-name="Path 2297" d="M693.942-3584.417l-30.074-28.946,12.282-25.344-7.575-32.283,3.877-32.366" transform="translate(90.781 11779.913)" fill="none" stroke="#efefef" stroke-linecap="round" stroke-width="4"/>
    <path id="Path_2298" data-name="Path 2298" d="M889.275-3672.83l-14.066,18.022-3.569,25.959,9.674,34.284-9.674,18.283" transform="translate(25.263 11771.966)" fill="none" stroke="#efefef" stroke-linecap="round" stroke-width="4"/>
    <path id="Path_2299" data-name="Path 2299" d="M748.969-3703.357,776.6-3665.8l-10.6,15.04,10.6,43.114-2.824,48.367" transform="translate(63.788 11779.913)" fill="none" stroke="#efefef" stroke-linecap="round" stroke-width="4"/>
    <path id="Path_2300" data-name="Path 2300" d="M1000.5-3613.689l6.231,13.478L1000.5-3570.6l-22.153,42.551L985-3517.526" transform="translate(-9.214 11756.569)" fill="none" stroke="#efefef" stroke-linecap="round" stroke-width="4"/>
    <path id="Path_2301" data-name="Path 2301" d="M1086.53-3672.83l7.584,23.8-21.482,21.974,3.464,22.284-26.946,29.434" transform="translate(-38.394 11771.966)" fill="none" stroke="#efefef" stroke-linecap="round" stroke-width="4"/>
    <path id="Path_2302" data-name="Path 2302" d="M431.207-3724.166l12.8,32.312-12.8,15.8-8.862,30.483,11.763,35.438" transform="translate(171.906 11785.33)" fill="none" stroke="#efefef" stroke-linecap="round" stroke-width="4"/>
    <path id="Path_2303" data-name="Path 2303" d="M415.788-3617.6l-11.026,12.635v12.144l-7.6,8.162" transform="translate(178.462 11757.588)" fill="none" stroke="#efefef" stroke-width="3"/>
    <path id="Path_2304" data-name="Path 2304" d="M486.471-3654.02l-11.942,11.175,1.883,9.265" transform="translate(158.32 11767.068)" fill="none" stroke="#efefef" stroke-width="3"/>
    <path id="Path_2305" data-name="Path 2305" d="M510.633-3679.529l8.163,13.845,10.6,5.478-1.711,19.51" transform="translate(139.727 11773.709)" fill="none" stroke="#efefef" stroke-width="3"/>
    <path id="Path_2306" data-name="Path 2306" d="M666.314-3660.008l-10.932,13,5.24,16.424" transform="translate(94.029 11768.627)" fill="none" stroke="#efefef" stroke-width="3"/>
    <path id="Path_2307" data-name="Path 2307" d="M675.973-3566.293l-7.709,14.183,4.149,16.464" transform="translate(90.045 11744.23)" fill="none" stroke="#efefef" stroke-width="3"/>
    <path id="Path_2308" data-name="Path 2308" d="M781.027-3598.1l19.19,10.664,7.36,16.292,13.266,5.561" transform="translate(53.078 11752.512)" fill="none" stroke="#efefef" stroke-width="3"/>
    <path id="Path_2309" data-name="Path 2309" d="M776.433-3532.088,758-3524.81l5.627,14.486" transform="translate(61.27 11735.325)" fill="none" stroke="#efefef" stroke-width="3"/>
    <path id="Path_2310" data-name="Path 2310" d="M584.274-3703.357l16.286,26.169-2.913,6.894" transform="translate(116.42 11779.913)" fill="none" stroke="#efefef" stroke-width="3"/>
    <path id="Path_2311" data-name="Path 2311" d="M874.261-3628.347l15.047,14.541,1.835,12.006" transform="translate(24.468 11760.385)" fill="none" stroke="#efefef" stroke-width="3"/>
    <path id="Path_2312" data-name="Path 2312" d="M874.261-3547.453l7.879,11.76-2.037,10.28" transform="translate(24.898 11739.325)" fill="none" stroke="#efefef" stroke-width="3"/>
    <path id="Path_2313" data-name="Path 2313" d="M999.217-3539.274l-4.147,19.471,8.239,15,2.892,14.188" transform="translate(-13.494 11737.196)" fill="none" stroke="#efefef" stroke-width="3"/>
    <path id="Path_2314" data-name="Path 2314" d="M1082.183-3602.575l12.374,8.4-1.177,14.721" transform="translate(-46.994 11753.676)" fill="none" stroke="#efefef" stroke-width="3"/>
    <path id="Path_2315" data-name="Path 2315" d="M1061.427-3556.666l5.89,21.7-15.462,15.517" transform="translate(-39.098 11741.724)" fill="none" stroke="#efefef" stroke-width="3"/>
    <g id="Group_167" data-name="Group 167" transform="translate(616.976 7650.128)">
      <g id="Group_165" data-name="Group 165">
        <path id="Path_2293" data-name="Path 2293" d="M5229.627,4945.731c4.259-5.679,8.466-11.4,12.84-16.987.588-.751,2.353-1.477,3.016-1.134,5.507,2.84,14.629,11.786,14.335,20.594-.2,5.971-3.465,10.05-6.938,14.1-10.913,12.734-21.988,25.331-32.947,38.026-1.479,1.713-2.788,2.209-4.994,1.151a26.456,26.456,0,0,0-6.987-2.073c-2.7-.456-2.741-1.73-1.851-3.809q2.946-6.876,5.732-13.82c.54-1.34.865-2.765,1.288-4.15l-.915-.444c-3.389,4.887-6.968,9.655-10.1,14.7-2.441,3.924-4.946,5.772-10.16,5.372-7.25-.559-14.639.626-21.962,1.144a9.016,9.016,0,0,0-2.933.926c-5.639,2.539-5.594,2.521-9.651-2.263q-16.77-19.768-33.6-39.485c-4.684-5.486-3.954-12.31,2.015-19.426,4.572-5.452,10.517-8.952,16.8-11.917,2.593-1.225,4.392-.178,5.731,2.617a298.848,298.848,0,0,0,14.435,26.928c-.686-2.46-1.342-4.928-2.062-7.377-3.481-11.848-7.049-23.671-10.367-35.564a4.945,4.945,0,0,1,1.379-4.069c5.538-5.011,12.606-7.075,19.628-8.3,11.627-2.034,23.417-2.968,35.265-1.593,10.775,1.249,21.5,2.561,31.425,7.467,5.747,2.841,5.73,2.728,3.287,8.507-4.269,10.091-8.374,20.25-12.547,30.381Z" transform="translate(-4975.59 -4898.224)" fill="#7d0404"/>
        <path id="Path_2294" data-name="Path 2294" d="M5380.492,5349.863c-7.5-22.092-18.393-42.785-31.741-62.56a438.593,438.593,0,0,0-78.418-87.383c-17.561-15.076-36.082-29.224-58.266-39.224-4.694-2.115-9.349-5.306-15.889-3.665,3.241,12.8,6.427,25.387,9.614,37.973a274.484,274.484,0,0,1-20.6-34.557c-2.671-5.431-6.035-7.553-12.567-6.781-5.36.633-11.121-.563-14.955,4.5-4.3,5.676-9.3,10.96-14,16.411q-7.11,8.24-14.236,16.471l-1.228-.7,22.3-34.229c-3.511.8-5.777.872-7.44,1.768-12.385,6.677-25.594,12.535-36.789,20.48q-67.79,48.116-111.6,113.893c-17.935,26.91-31.979,55.012-35.864,86.225-2.978,23.927,1.051,46.652,16.955,66.985,7.748,9.906,15.982,20.158,29.4,24.519,14.228,4.625,29.07,8.639,44.055,10.583,23.133,3,46.573,4.829,69.957,5.717,63.188,2.4,126.354,2.469,188.9-7.375,10.886-1.713,22.276-3.619,31.965-7.9,26.22-11.571,39.785-32.008,45.624-55.875C5391.015,5393.23,5387.817,5371.433,5380.492,5349.863Z" transform="translate(-4957.898 -5044.751)" fill="#7d0404"/>
      </g>
      <path id="Path_2711" data-name="Path 2711" d="M36.66,30.429h5.178V20.577c0-1.331-.237-3.61-.237-3.61h.059a37.85,37.85,0,0,0,1.775,3.61l5.888,9.852H54.53V9.275H49.353v9.882c0,1.331.237,3.61.237,3.61H49.53a37.849,37.849,0,0,0-1.775-3.61L41.9,9.275H36.66Zm37.693,0h5.326L72.489,9.275H67.045l-7.19,21.154h5.326l1.272-4.438h6.6ZM69.8,14.1s.473,2.308.858,3.639l1.183,4.113H67.667l1.213-4.113c.385-1.331.858-3.639.858-3.639ZM87.934,30.429h5.178V13.713h6.42V9.275H81.513v4.438h6.42Zm17.16,0h5.178V9.275h-5.178Zm11.657-10.71a11.065,11.065,0,0,0,22.131,0,11.069,11.069,0,0,0-22.131,0Zm5.355,0a5.721,5.721,0,1,1,11.42,0c0,3.61-2.544,6.332-5.71,6.332S122.106,23.329,122.106,19.719Zm23.255,10.71h5.178V20.577c0-1.331-.237-3.61-.237-3.61h.059a37.848,37.848,0,0,0,1.775,3.61l5.888,9.852h5.207V9.275h-5.178v9.882c0,1.331.237,3.61.237,3.61h-.059a37.848,37.848,0,0,0-1.775-3.61L150.6,9.275h-5.237Zm37.693,0h5.326L181.19,9.275h-5.444l-7.19,21.154h5.326l1.272-4.438h6.6ZM178.5,14.1s.473,2.308.858,3.639l1.183,4.113h-4.172l1.213-4.113c.385-1.331.858-3.639.858-3.639Zm15.208,16.332h13.817V25.991h-8.639V9.275h-5.178Zm29.35,0h7.515c6.657,0,10.917-3.965,10.917-10.622S237.227,9.275,230.57,9.275h-7.515Zm5.178-4.438V13.713h2.13c3.491,0,5.769,2.071,5.769,6.095,0,4.053-2.189,6.184-5.769,6.184Zm19.853,4.438h13.669V25.991h-8.491V22h6.45V17.559h-6.45V13.713h8.077V9.275H248.086Zm20.356,0h7.781c4.2,0,8.048-1.686,8.048-6.3a4.743,4.743,0,0,0-3.314-4.763V19.3a5.166,5.166,0,0,0,2.456-4.5c0-3.639-2.959-5.533-7.19-5.533h-7.781Zm5.178-12.959V13.713h2.574a1.721,1.721,0,0,1,1.953,1.8,1.789,1.789,0,0,1-1.864,1.953Zm0,8.521V21.613h3.136a2.034,2.034,0,0,1,2.219,2.16,2.1,2.1,0,0,1-2.249,2.219Zm21.332,4.438h5.178V13.713h6.42V9.275H288.531v4.438h6.42Z" transform="translate(44.89 267.561)" fill="#efefef"/>
      <path id="Path_2712" data-name="Path 2712" d="M28.66,26.85a10.692,10.692,0,0,0,6.036,2.9v2.692h3.225V29.75c3.787-.592,5.917-3.314,5.917-6.45,0-6.539-9.616-6.361-9.616-8.876,0-1.183,1.183-1.657,2.249-1.657a8.072,8.072,0,0,1,4.675,1.864L43.335,10.4a9.252,9.252,0,0,0-5.414-2.308V5.4H34.7V8.181c-3.284.621-5.651,2.988-5.651,6.3,0,6.361,9.616,6.568,9.616,8.935,0,1.272-1.154,1.686-2.219,1.686a8.766,8.766,0,0,1-5.059-2.189Zm20.977,2.663H64.282V25.075H55.288c.148-2.722,8.669-3.994,8.669-10.592C63.957,9.986,60.2,8,56.738,8a8.158,8.158,0,0,0-7.456,4.556l3.846,2.574s1.124-2.249,3.136-2.249a2.09,2.09,0,0,1,2.278,2.1c0,3.047-9.142,4.438-9.142,12.249A12.963,12.963,0,0,0,49.637,29.513Zm19.971-2.426a10.03,10.03,0,0,0,7.219,2.781c5.3,0,7.84-3.61,7.84-7.219a6.214,6.214,0,0,0-5.118-6.124l4.29-4.941V8.359H70.5V12.8h5.059a10.538,10.538,0,0,0,2.012-.148v.059a23.013,23.013,0,0,0-1.834,1.982l-2.781,3.343,1.095,2.515h1.479c2.278,0,3.935.68,3.935,2.337,0,1.154-1.095,2.1-3.018,2.1a6.917,6.917,0,0,1-4.349-1.894ZM89.076,32.8h3.757l3.343-8.2H91.295Zm12.959-3.284H116.68V25.075h-8.994c.148-2.722,8.669-3.994,8.669-10.592,0-4.5-3.757-6.479-7.219-6.479a8.158,8.158,0,0,0-7.456,4.556l3.846,2.574s1.124-2.249,3.136-2.249a2.09,2.09,0,0,1,2.278,2.1c0,3.047-9.142,4.438-9.142,12.249A12.963,12.963,0,0,0,102.035,29.513Zm28.551.355c6.006,0,7.959-4.911,7.959-10.977S136.592,8,130.586,8s-7.959,4.823-7.959,10.888S124.58,29.868,130.586,29.868Zm0-4.734c-2.041,0-2.633-2.781-2.633-6.243,0-3.432.592-6.154,2.633-6.154s2.633,2.722,2.633,6.154C133.219,22.353,132.627,25.134,130.586,25.134Zm21.894,4.734c6.006,0,7.959-4.911,7.959-10.977S158.486,8,152.48,8s-7.959,4.823-7.959,10.888S146.474,29.868,152.48,29.868Zm0-4.734c-2.041,0-2.633-2.781-2.633-6.243,0-3.432.592-6.154,2.633-6.154s2.633,2.722,2.633,6.154C155.113,22.353,154.521,25.134,152.48,25.134ZM164.788,32.8h3.757l3.343-8.2h-4.882Zm20.592-2.929c6.006,0,7.959-4.911,7.959-10.977S191.386,8,185.38,8s-7.959,4.823-7.959,10.888S179.374,29.868,185.38,29.868Zm0-4.734c-2.041,0-2.633-2.781-2.633-6.243,0-3.432.592-6.154,2.633-6.154s2.633,2.722,2.633,6.154C188.013,22.353,187.422,25.134,185.38,25.134Zm21.894,4.734c6.006,0,7.959-4.911,7.959-10.977S213.28,8,207.274,8s-7.959,4.823-7.959,10.888S201.268,29.868,207.274,29.868Zm0-4.734c-2.041,0-2.633-2.781-2.633-6.243,0-3.432.592-6.154,2.633-6.154s2.633,2.722,2.633,6.154C209.907,22.353,209.316,25.134,207.274,25.134Zm21.894,4.734c6.006,0,7.959-4.911,7.959-10.977S235.174,8,229.168,8s-7.959,4.823-7.959,10.888S223.162,29.868,229.168,29.868Zm0-4.734c-2.041,0-2.633-2.781-2.633-6.243,0-3.432.592-6.154,2.633-6.154s2.633,2.722,2.633,6.154C231.8,22.353,231.21,25.134,229.168,25.134ZM241.476,32.8h3.758l3.343-8.2H243.7Zm20.592-2.929c6.006,0,7.959-4.911,7.959-10.977S268.075,8,262.069,8s-7.959,4.823-7.959,10.888S256.062,29.868,262.069,29.868Zm0-4.734c-2.041,0-2.633-2.781-2.633-6.243,0-3.432.592-6.154,2.633-6.154s2.633,2.722,2.633,6.154C264.7,22.353,264.11,25.134,262.069,25.134Zm21.894,4.734c6.006,0,7.959-4.911,7.959-10.977S289.969,8,283.963,8,276,12.826,276,18.891,277.957,29.868,283.963,29.868Zm0-4.734c-2.041,0-2.633-2.781-2.633-6.243,0-3.432.592-6.154,2.633-6.154s2.633,2.722,2.633,6.154C286.6,22.353,286,25.134,283.963,25.134Zm21.894,4.734c6.006,0,7.959-4.911,7.959-10.977S311.863,8,305.857,8,297.9,12.826,297.9,18.891,299.851,29.868,305.857,29.868Zm0-4.734c-2.041,0-2.633-2.781-2.633-6.243,0-3.432.592-6.154,2.633-6.154s2.633,2.722,2.633,6.154C308.49,22.353,307.9,25.134,305.857,25.134ZM318.165,32.8h3.758l3.343-8.2h-4.882Zm20.592-2.929c6.006,0,7.959-4.911,7.959-10.977S344.763,8,338.757,8,330.8,12.826,330.8,18.891,332.751,29.868,338.757,29.868Zm0-4.734c-2.041,0-2.633-2.781-2.633-6.243,0-3.432.592-6.154,2.633-6.154s2.633,2.722,2.633,6.154C341.39,22.353,340.8,25.134,338.757,25.134Zm21.894,4.734c6.006,0,7.959-4.911,7.959-10.977S366.657,8,360.651,8s-7.959,4.823-7.959,10.888S354.645,29.868,360.651,29.868Zm0-4.734c-2.041,0-2.633-2.781-2.633-6.243,0-3.432.592-6.154,2.633-6.154s2.633,2.722,2.633,6.154C363.284,22.353,362.693,25.134,360.651,25.134Zm21.894,4.734c6.006,0,7.959-4.911,7.959-10.977S388.551,8,382.545,8s-7.959,4.823-7.959,10.888S376.539,29.868,382.545,29.868Zm0-4.734c-2.041,0-2.633-2.781-2.633-6.243,0-3.432.592-6.154,2.633-6.154s2.633,2.722,2.633,6.154C385.178,22.353,384.587,25.134,382.545,25.134Z" transform="translate(6.291 315.816)" fill="#efefef"/>
    </g>
  </g>
</svg>
