<svg xmlns="http://www.w3.org/2000/svg" width="782.5" height="592.5" viewBox="0 0 782.5 592.5">
  <g id="Group_797" data-name="Group 797" transform="translate(31 -7153)">
    <g id="Group_796" data-name="Group 796">
      <rect id="Rectangle_605" data-name="Rectangle 605" width="20" height="462" transform="translate(151.5 7256)" fill="#f5f5f5"/>
      <rect id="Rectangle_636" data-name="Rectangle 636" width="20" height="462" transform="translate(471.5 7256)" fill="#f5f5f5"/>
      <rect id="Rectangle_620" data-name="Rectangle 620" width="20" height="462" transform="translate(311.5 7256)" fill="#f5f5f5"/>
      <rect id="Rectangle_628" data-name="Rectangle 628" width="20" height="462" transform="translate(631.5 7256)" fill="#f5f5f5"/>
      <rect id="Rectangle_612" data-name="Rectangle 612" width="20" height="462" transform="translate(231.5 7256)" fill="#f5f5f5"/>
      <rect id="Rectangle_632" data-name="Rectangle 632" width="20" height="462" transform="translate(551.5 7256)" fill="#f5f5f5"/>
      <rect id="Rectangle_616" data-name="Rectangle 616" width="20" height="462" transform="translate(391.5 7256)" fill="#f5f5f5"/>
      <rect id="Rectangle_623" data-name="Rectangle 623" width="20" height="462" transform="translate(711.5 7256)" fill="#f5f5f5"/>
      <rect id="Rectangle_608" data-name="Rectangle 608" width="20" height="462" transform="translate(191.5 7256)" fill="#f5f5f5"/>
      <rect id="Rectangle_634" data-name="Rectangle 634" width="20" height="462" transform="translate(511.5 7256)" fill="#f5f5f5"/>
      <rect id="Rectangle_618" data-name="Rectangle 618" width="20" height="462" transform="translate(351.5 7256)" fill="#f5f5f5"/>
      <rect id="Rectangle_626" data-name="Rectangle 626" width="20" height="462" transform="translate(671.5 7256)" fill="#f5f5f5"/>
      <rect id="Rectangle_610" data-name="Rectangle 610" width="20" height="462" transform="translate(271.5 7256)" fill="#f5f5f5"/>
      <rect id="Rectangle_630" data-name="Rectangle 630" width="20" height="462" transform="translate(591.5 7256)" fill="#f5f5f5"/>
      <rect id="Rectangle_614" data-name="Rectangle 614" width="20" height="462" transform="translate(431.5 7256)" fill="#f5f5f5"/>
      <rect id="Rectangle_606" data-name="Rectangle 606" width="20" height="462" transform="translate(171.5 7256)" fill="#efefef"/>
      <rect id="Rectangle_635" data-name="Rectangle 635" width="20" height="462" transform="translate(491.5 7256)" fill="#efefef"/>
      <rect id="Rectangle_619" data-name="Rectangle 619" width="20" height="462" transform="translate(331.5 7256)" fill="#efefef"/>
      <rect id="Rectangle_627" data-name="Rectangle 627" width="20" height="462" transform="translate(651.5 7256)" fill="#efefef"/>
      <rect id="Rectangle_611" data-name="Rectangle 611" width="20" height="462" transform="translate(251.5 7256)" fill="#efefef"/>
      <rect id="Rectangle_631" data-name="Rectangle 631" width="20" height="462" transform="translate(571.5 7256)" fill="#efefef"/>
      <rect id="Rectangle_615" data-name="Rectangle 615" width="20" height="462" transform="translate(411.5 7256)" fill="#efefef"/>
      <rect id="Rectangle_624" data-name="Rectangle 624" width="20" height="462" transform="translate(731.5 7256)" fill="#efefef"/>
      <rect id="Rectangle_607" data-name="Rectangle 607" width="20" height="462" transform="translate(211.5 7256)" fill="#efefef"/>
      <rect id="Rectangle_633" data-name="Rectangle 633" width="20" height="462" transform="translate(531.5 7256)" fill="#efefef"/>
      <rect id="Rectangle_617" data-name="Rectangle 617" width="20" height="462" transform="translate(371.5 7256)" fill="#efefef"/>
      <rect id="Rectangle_625" data-name="Rectangle 625" width="20" height="462" transform="translate(691.5 7256)" fill="#efefef"/>
      <rect id="Rectangle_609" data-name="Rectangle 609" width="20" height="462" transform="translate(291.5 7256)" fill="#efefef"/>
      <rect id="Rectangle_629" data-name="Rectangle 629" width="20" height="462" transform="translate(611.5 7256)" fill="#efefef"/>
      <rect id="Rectangle_613" data-name="Rectangle 613" width="20" height="462" transform="translate(451.5 7256)" fill="#efefef"/>
      <line id="Line_311" data-name="Line 311" x2="599" transform="translate(152 7660.5)" fill="none" stroke="#707070" stroke-width="2"/>
      <line id="Line_312" data-name="Line 312" x2="599" transform="translate(152 7555.5)" fill="none" stroke="#707070" stroke-width="2"/>
      <line id="Line_313" data-name="Line 313" x2="599" transform="translate(152 7454.5)" fill="none" stroke="#707070" stroke-width="2"/>
      <line id="Line_314" data-name="Line 314" x2="599" transform="translate(152 7353.5)" fill="none" stroke="#707070" stroke-width="2"/>
      <path id="Path_3218" data-name="Path 3218" d="M6.736,15h7.92V12.6H9.792c.08-1.472,4.688-2.16,4.688-5.728,0-2.432-2.032-3.5-3.9-3.5A4.412,4.412,0,0,0,6.544,5.832l2.08,1.392s.608-1.216,1.7-1.216a1.13,1.13,0,0,1,1.232,1.136c0,1.648-4.944,2.4-4.944,6.624A7.01,7.01,0,0,0,6.736,15Zm13.84.192c3.248,0,4.3-2.656,4.3-5.936s-1.056-5.888-4.3-5.888-4.3,2.608-4.3,5.888S17.328,15.192,20.576,15.192Zm0-2.56c-1.1,0-1.424-1.5-1.424-3.376,0-1.856.32-3.328,1.424-3.328S22,7.4,22,9.256C22,11.128,21.68,12.632,20.576,12.632ZM32.9,15h2.8V5.96h3.472V3.56H29.424v2.4H32.9Zm6.928,0h2.768V11.88a3.736,3.736,0,0,1,.144-1.12,2.08,2.08,0,0,1,2.128-1.44,2.945,2.945,0,0,1,.56.048V6.648a1.871,1.871,0,0,0-.32-.032A2.86,2.86,0,0,0,42.48,8.664h-.032a4.36,4.36,0,0,0,.032-.512V6.76H39.824Zm6.912-9.28h2.7V3.56h-2.7ZM46.7,15h2.768V6.76H46.7Zm4.7-3.04c0,2.768,1.568,3.12,3.04,3.12a7.525,7.525,0,0,0,.832-.048v-2.4s-.16.016-.336.016c-.624,0-.768-.272-.768-1.056V3.56H51.408Zm5.168,0c0,2.768,1.568,3.12,3.04,3.12a7.525,7.525,0,0,0,.832-.048v-2.4s-.16.016-.336.016c-.624,0-.768-.272-.768-1.056V3.56H56.576Zm5.312-6.24h2.7V3.56h-2.7ZM61.856,15h2.768V6.76H61.856Zm4.208-4.1A4.685,4.685,0,1,0,70.72,6.568,4.356,4.356,0,0,0,66.064,10.9Zm2.8,0a1.878,1.878,0,1,1,3.744,0,1.875,1.875,0,1,1-3.744,0ZM76.848,15h2.768V11.352a3.309,3.309,0,0,1,.16-1.088A1.622,1.622,0,0,1,81.408,9.08c.608,0,.912.32.912,1.088V15h2.768V9.656c0-2.32-1.3-3.088-2.96-3.088A2.907,2.907,0,0,0,79.5,7.992h-.032A4.361,4.361,0,0,0,79.5,7.48V6.76H76.848Z" transform="translate(52.5 7344)" fill="#908f93"/>
      <path id="Path_3220" data-name="Path 3220" d="M7.632,15h7.92V12.6H10.688c.08-1.472,4.688-2.16,4.688-5.728,0-2.432-2.032-3.5-3.9-3.5A4.412,4.412,0,0,0,7.44,5.832L9.52,7.224s.608-1.216,1.7-1.216a1.13,1.13,0,0,1,1.232,1.136c0,1.648-4.944,2.4-4.944,6.624A7.01,7.01,0,0,0,7.632,15Zm9.328-1.312a5.514,5.514,0,0,0,3.9,1.5,4,4,0,0,0,4.24-4.08c0-2.064-1.376-3.76-4.1-3.76a3.494,3.494,0,0,0-.832.112h-.032a1.872,1.872,0,0,0,.064-.448l.064-1.056H24.24V3.56h-6.4l-.464,5.984,1.488.56A3.33,3.33,0,0,1,20.4,9.72c1.04,0,1.824.528,1.824,1.424a1.482,1.482,0,0,1-1.6,1.408,3.773,3.773,0,0,1-2.32-1.024ZM32.9,15h2.8V5.96h3.472V3.56H29.424v2.4H32.9Zm6.928,0h2.768V11.88a3.736,3.736,0,0,1,.144-1.12,2.08,2.08,0,0,1,2.128-1.44,2.945,2.945,0,0,1,.56.048V6.648a1.871,1.871,0,0,0-.32-.032A2.86,2.86,0,0,0,42.48,8.664h-.032a4.36,4.36,0,0,0,.032-.512V6.76H39.824Zm6.912-9.28h2.7V3.56h-2.7ZM46.7,15h2.768V6.76H46.7Zm4.7-3.04c0,2.768,1.568,3.12,3.04,3.12a7.525,7.525,0,0,0,.832-.048v-2.4s-.16.016-.336.016c-.624,0-.768-.272-.768-1.056V3.56H51.408Zm5.168,0c0,2.768,1.568,3.12,3.04,3.12a7.525,7.525,0,0,0,.832-.048v-2.4s-.16.016-.336.016c-.624,0-.768-.272-.768-1.056V3.56H56.576Zm5.312-6.24h2.7V3.56h-2.7ZM61.856,15h2.768V6.76H61.856Zm4.208-4.1A4.685,4.685,0,1,0,70.72,6.568,4.356,4.356,0,0,0,66.064,10.9Zm2.8,0a1.878,1.878,0,1,1,3.744,0,1.875,1.875,0,1,1-3.744,0ZM76.848,15h2.768V11.352a3.309,3.309,0,0,1,.16-1.088A1.622,1.622,0,0,1,81.408,9.08c.608,0,.912.32.912,1.088V15h2.768V9.656c0-2.32-1.3-3.088-2.96-3.088A2.907,2.907,0,0,0,79.5,7.992h-.032A4.361,4.361,0,0,0,79.5,7.48V6.76H76.848Z" transform="translate(52.5 7245)" fill="#908f93"/>
      <g id="Group_108" data-name="Group 108" transform="translate(-528.5 2808)">
        <path id="Path_1923" data-name="Path 1923" d="M-968.71-7346.313l-9.832,17.64-9.493-17.64" transform="translate(2128 11930)" fill="none" stroke="#1762a0" stroke-width="5"/>
        <path id="Path_1924" data-name="Path 1924" d="M-978.372-7328.673v-71.481" transform="translate(2128 11930)" fill="none" stroke="#1762a0" stroke-width="5"/>
      </g>
      <path id="Path_3253" data-name="Path 3253" d="M102.342,13h2.45V8.338c0-.63-.112-1.708-.112-1.708h.028a17.909,17.909,0,0,0,.84,1.708L108.334,13H110.8V2.99h-2.45V7.666c0,.63.112,1.708.112,1.708h-.028a17.91,17.91,0,0,0-.84-1.708L104.82,2.99h-2.478Zm9.982-2.156a2.306,2.306,0,0,0,2.45,2.324,2.244,2.244,0,0,0,2.044-1.05h.028a3.815,3.815,0,0,0-.028.448V13h2.212V8.562c0-1.834-1.218-2.94-3.248-2.94a5.453,5.453,0,0,0-3.024.938l.84,1.708a4.3,4.3,0,0,1,1.946-.686c.6,0,1.064.2,1.064.8v.126h-.1C115.39,8.506,112.324,8.744,112.324,10.844Zm2.436-.126c0-.6.882-.826,1.652-.826h.224v.154a1.337,1.337,0,0,1-1.19,1.274C114.97,11.32,114.76,11.054,114.76,10.718Zm6.314-.378c0,2.422,2.226,2.73,3.374,2.73a4.661,4.661,0,0,0,.658-.042v-2.1s-.126.014-.322.014c-.462,0-1.288-.112-1.288-.924V7.806h1.512V5.916H123.5V3.844h-2.352V5.916h-.994v1.89h.924Zm5.474-5.46h2.366V2.99h-2.366ZM126.52,13h2.422V5.79H126.52ZM130.2,9.416a4.1,4.1,0,1,0,4.074-3.794A3.811,3.811,0,0,0,130.2,9.416Zm2.45,0a1.644,1.644,0,1,1,3.276,0,1.641,1.641,0,1,1-3.276,0ZM139.638,13h2.422V9.808a2.9,2.9,0,0,1,.14-.952,1.419,1.419,0,0,1,1.428-1.036c.532,0,.8.28.8.952V13h2.422V8.324c0-2.03-1.134-2.7-2.59-2.7a2.544,2.544,0,0,0-2.3,1.246h-.028a3.815,3.815,0,0,0,.028-.448V5.79h-2.324ZM148,10.844a2.306,2.306,0,0,0,2.45,2.324,2.244,2.244,0,0,0,2.044-1.05h.028a3.815,3.815,0,0,0-.028.448V13H154.7V8.562c0-1.834-1.218-2.94-3.248-2.94a5.453,5.453,0,0,0-3.024.938l.84,1.708a4.3,4.3,0,0,1,1.946-.686c.6,0,1.064.2,1.064.8v.126h-.1C151.062,8.506,148,8.744,148,10.844Zm2.436-.126c0-.6.882-.826,1.652-.826h.224v.154a1.337,1.337,0,0,1-1.19,1.274C150.642,11.32,150.432,11.054,150.432,10.718Zm5.852-.378c0,2.422,1.372,2.73,2.66,2.73a6.585,6.585,0,0,0,.728-.042v-2.1s-.14.014-.294.014c-.546,0-.672-.238-.672-.924V2.99h-2.422ZM164.39,13h3.556c3.15,0,5.166-1.876,5.166-5.026S171.1,2.99,167.946,2.99H164.39Zm2.45-2.1V5.09h1.008a2.563,2.563,0,0,1,2.73,2.884c0,1.918-1.036,2.926-2.73,2.926Zm7.2-1.512A3.739,3.739,0,0,0,178,13.168a4.869,4.869,0,0,0,3.08-1.05l-.9-1.694a3.78,3.78,0,0,1-1.988.728,1.61,1.61,0,0,1-1.68-1.288h4.55s.056-.518.056-.756a3.2,3.2,0,0,0-3.332-3.486A3.589,3.589,0,0,0,174.036,9.388Zm2.534-.91a1.182,1.182,0,0,1,1.162-1.036.982.982,0,0,1,.952,1.036ZM182.436,13H184.7v-.238c0-.224-.014-.406-.014-.406h.028a2.577,2.577,0,0,0,1.974.812c1.918,0,3.36-1.484,3.36-3.766,0-2.24-1.288-3.78-3.248-3.78a2.678,2.678,0,0,0-1.946.77h-.028s.028-.252.028-.616V2.99h-2.422Zm2.352-3.556c0-1.246.686-1.778,1.414-1.778.84,0,1.414.7,1.414,1.778,0,1.106-.658,1.722-1.414,1.722C185.25,11.166,184.788,10.312,184.788,9.444Zm6.93.9c0,2.422,2.226,2.73,3.374,2.73a4.661,4.661,0,0,0,.658-.042v-2.1s-.126.014-.322.014c-.462,0-1.288-.112-1.288-.924V7.806h1.512V5.916H194.14V3.844h-2.352V5.916h-.994v1.89h.924Zm8.19,1.4a5.168,5.168,0,0,0,3.654,1.428c2.254,0,3.528-1.442,3.528-3.108,0-3.164-4.508-2.94-4.508-4.2,0-.56.56-.784,1.064-.784a3.82,3.82,0,0,1,2.212.882l1.036-2a4.54,4.54,0,0,0-3.22-1.134c-1.988,0-3.542,1.218-3.542,3.066,0,3.08,4.508,3.038,4.508,4.228,0,.6-.546.8-1.05.8A4.148,4.148,0,0,1,201.2,9.878Zm8.484-1.274c0,2.03,1.134,2.7,2.562,2.7a2.5,2.5,0,0,0,2.254-1.246h.028a3.815,3.815,0,0,0-.028.448V13h2.324V5.79H213.11V8.982c0,1.078-.49,1.988-1.526,1.988-.5,0-.77-.28-.77-.952V5.79h-2.422ZM217.324,13h2.422V10.27a3.269,3.269,0,0,1,.126-.98,1.82,1.82,0,0,1,1.862-1.26,2.577,2.577,0,0,1,.49.042V5.692a1.637,1.637,0,0,0-.28-.028,2.5,2.5,0,0,0-2.3,1.792h-.028a3.815,3.815,0,0,0,.028-.448V5.79h-2.324Zm6.02,2.8h2.422V13.1c0-.364-.028-.616-.028-.616h.028a2.659,2.659,0,0,0,1.834.686c1.918,0,3.36-1.484,3.36-3.766,0-2.24-1.288-3.78-3.248-3.78a2.635,2.635,0,0,0-2.184.994H225.5a4.228,4.228,0,0,0,.028-.462V5.79h-2.184ZM225.7,9.444c0-1.246.686-1.778,1.414-1.778.84,0,1.414.7,1.414,1.778,0,1.106-.658,1.722-1.414,1.722C226.158,11.166,225.7,10.312,225.7,9.444Zm6.02,1.4a2.306,2.306,0,0,0,2.45,2.324,2.244,2.244,0,0,0,2.044-1.05h.028a3.815,3.815,0,0,0-.028.448V13h2.212V8.562c0-1.834-1.218-2.94-3.248-2.94a5.453,5.453,0,0,0-3.024.938l.84,1.708a4.3,4.3,0,0,1,1.946-.686c.6,0,1.064.2,1.064.8v.126h-.1C234.782,8.506,231.716,8.744,231.716,10.844Zm2.436-.126c0-.6.882-.826,1.652-.826h.224v.154a1.337,1.337,0,0,1-1.19,1.274C234.362,11.32,234.152,11.054,234.152,10.718Zm5.39,1.386a4.342,4.342,0,0,0,2.884,1.064c1.862,0,2.954-1.05,2.954-2.282,0-2.324-3.374-2.408-3.374-2.954,0-.252.35-.35.714-.35a2.88,2.88,0,0,1,1.708.588l.826-1.722a3.774,3.774,0,0,0-2.534-.826c-1.666,0-2.968.84-2.968,2.2,0,2.352,3.374,2.422,3.374,3.052,0,.238-.35.336-.714.336a3.034,3.034,0,0,1-1.834-.728Zm6.594,0a4.342,4.342,0,0,0,2.884,1.064c1.862,0,2.954-1.05,2.954-2.282,0-2.324-3.374-2.408-3.374-2.954,0-.252.35-.35.714-.35a2.88,2.88,0,0,1,1.708.588l.826-1.722a3.774,3.774,0,0,0-2.534-.826c-1.666,0-2.968.84-2.968,2.2,0,2.352,3.374,2.422,3.374,3.052,0,.238-.35.336-.714.336a3.034,3.034,0,0,1-1.834-.728Zm6.636-2.716a3.739,3.739,0,0,0,3.962,3.78,4.869,4.869,0,0,0,3.08-1.05l-.9-1.694a3.78,3.78,0,0,1-1.988.728,1.61,1.61,0,0,1-1.68-1.288h4.55s.056-.518.056-.756a3.2,3.2,0,0,0-3.332-3.486A3.589,3.589,0,0,0,252.772,9.388Zm2.534-.91a1.182,1.182,0,0,1,1.162-1.036.982.982,0,0,1,.952,1.036Zm5.306,3.626a4.342,4.342,0,0,0,2.884,1.064c1.862,0,2.954-1.05,2.954-2.282,0-2.324-3.374-2.408-3.374-2.954,0-.252.35-.35.714-.35a2.879,2.879,0,0,1,1.708.588l.826-1.722a3.774,3.774,0,0,0-2.534-.826c-1.666,0-2.968.84-2.968,2.2,0,2.352,3.374,2.422,3.374,3.052,0,.238-.35.336-.714.336a3.034,3.034,0,0,1-1.834-.728Zm10.248.9h6.664V10.9h-2.142V2.99h-2.114l-2.7,2.534,1.414,1.512.6-.546a1.891,1.891,0,0,0,.392-.532H273s-.014.392-.014.77V10.9H270.86Zm11.466.168c2.842,0,3.766-2.324,3.766-5.194s-.924-5.152-3.766-5.152S278.56,5.1,278.56,7.974,279.484,13.168,282.326,13.168Zm0-2.24c-.966,0-1.246-1.316-1.246-2.954s.28-2.912,1.246-2.912,1.246,1.288,1.246,2.912S283.292,10.928,282.326,10.928Zm8.96,2.24c2.842,0,3.766-2.324,3.766-5.194s-.924-5.152-3.766-5.152S287.52,5.1,287.52,7.974,288.444,13.168,291.286,13.168Zm0-2.24c-.966,0-1.246-1.316-1.246-2.954s.28-2.912,1.246-2.912,1.246,1.288,1.246,2.912S292.252,10.928,291.286,10.928Zm7.42-3.276a2.464,2.464,0,0,0,2.534-2.408,2.537,2.537,0,0,0-5.068,0A2.455,2.455,0,0,0,298.706,7.652ZM296.732,13h2.128l7.728-10.01H304.46Zm1.974-7.028a.736.736,0,1,1,.77-.742A.753.753,0,0,1,298.706,5.972Zm3.444,4.788a2.537,2.537,0,0,0,5.068,0,2.537,2.537,0,0,0-5.068,0Zm1.764-.014a.771.771,0,1,1,.77.742A.76.76,0,0,1,303.914,10.746Zm7.49-2.772a4.9,4.9,0,0,0,4.914,5.194,4.148,4.148,0,0,0,2.632-.868h.028s-.014.21-.014.42V13h2.044V7.344h-3.584V9.43h1.414v.77a3.426,3.426,0,0,1-2.03.728,2.841,2.841,0,0,1-2.87-3.038,2.67,2.67,0,0,1,2.954-2.828,3.983,3.983,0,0,1,2.436.924L320.5,4.152a5.529,5.529,0,0,0-3.85-1.33A5.068,5.068,0,0,0,311.4,7.974ZM322.856,13h3.556c3.15,0,5.166-1.876,5.166-5.026s-2.016-4.984-5.166-4.984h-3.556Zm2.45-2.1V5.09h1.008a2.563,2.563,0,0,1,2.73,2.884c0,1.918-1.036,2.926-2.73,2.926ZM333.3,13h2.45V9.906h1.708a3.227,3.227,0,0,0,3.262-3.472,3.2,3.2,0,0,0-3.262-3.444H333.3Zm2.45-5.194V5.09H337a1.187,1.187,0,0,1,1.232,1.344,1.219,1.219,0,0,1-1.274,1.372Z" transform="translate(289.5 7317)" fill="#1762a0"/>
      <path id="Path_3215" data-name="Path 3215" d="M16.96,13.688a5.514,5.514,0,0,0,3.9,1.5,4,4,0,0,0,4.24-4.08c0-2.064-1.376-3.76-4.1-3.76a3.494,3.494,0,0,0-.832.112h-.032a1.872,1.872,0,0,0,.064-.448l.064-1.056H24.24V3.56h-6.4l-.464,5.984,1.488.56A3.33,3.33,0,0,1,20.4,9.72c1.04,0,1.824.528,1.824,1.424a1.482,1.482,0,0,1-1.6,1.408,3.773,3.773,0,0,1-2.32-1.024ZM32.9,15h2.8V5.96h3.472V3.56H29.424v2.4H32.9Zm6.928,0h2.768V11.88a3.736,3.736,0,0,1,.144-1.12,2.08,2.08,0,0,1,2.128-1.44,2.945,2.945,0,0,1,.56.048V6.648a1.871,1.871,0,0,0-.32-.032A2.86,2.86,0,0,0,42.48,8.664h-.032a4.36,4.36,0,0,0,.032-.512V6.76H39.824Zm6.912-9.28h2.7V3.56h-2.7ZM46.7,15h2.768V6.76H46.7Zm4.7-3.04c0,2.768,1.568,3.12,3.04,3.12a7.525,7.525,0,0,0,.832-.048v-2.4s-.16.016-.336.016c-.624,0-.768-.272-.768-1.056V3.56H51.408Zm5.168,0c0,2.768,1.568,3.12,3.04,3.12a7.525,7.525,0,0,0,.832-.048v-2.4s-.16.016-.336.016c-.624,0-.768-.272-.768-1.056V3.56H56.576Zm5.312-6.24h2.7V3.56h-2.7ZM61.856,15h2.768V6.76H61.856Zm4.208-4.1A4.685,4.685,0,1,0,70.72,6.568,4.356,4.356,0,0,0,66.064,10.9Zm2.8,0a1.878,1.878,0,1,1,3.744,0,1.875,1.875,0,1,1-3.744,0ZM76.848,15h2.768V11.352a3.309,3.309,0,0,1,.16-1.088A1.622,1.622,0,0,1,81.408,9.08c.608,0,.912.32.912,1.088V15h2.768V9.656c0-2.32-1.3-3.088-2.96-3.088A2.907,2.907,0,0,0,79.5,7.992h-.032A4.361,4.361,0,0,0,79.5,7.48V6.76H76.848Z" transform="translate(49.5 7649)" fill="#908f93"/>
      <path id="Path_3219" data-name="Path 3219" d="M155.5,15h2.912L162.44,3.56h-2.992L157.4,10.072c-.224.72-.432,1.84-.432,1.84h-.032s-.208-1.12-.432-1.84L154.488,3.56h-3.04Zm14.224,0h2.88L168.712,3.56h-2.944L161.88,15h2.88l.688-2.4h3.568Zm-2.464-8.832s.256,1.248.464,1.968l.64,2.224H166.1l.656-2.224c.208-.72.464-1.968.464-1.968ZM173.88,15h7.472V12.6H176.68V3.56h-2.8Zm8.752-4.208c0,2.576,1.888,4.4,4.8,4.4,2.88,0,4.768-1.824,4.768-4.4V3.56h-2.8v7.232a1.99,1.99,0,0,1-3.968,0V3.56h-2.8ZM194.728,15h7.392V12.6h-4.592V10.44h3.488V8.04h-3.488V5.96H201.9V3.56h-7.168ZM207.8,15h2.8V3.56h-2.8Zm5.488,0h2.8V9.672c0-.72-.128-1.952-.128-1.952h.032a20.468,20.468,0,0,0,.96,1.952L220.136,15h2.816V3.56h-2.8V8.9c0,.72.128,1.952.128,1.952h-.032a20.47,20.47,0,0,0-.96-1.952L216.12,3.56h-2.832ZM231.5,15h2.8V5.96h3.472V3.56h-9.744v2.4H231.5Zm7.68,0h2.8V11.144h1.312L245.32,15h3.12l-2.224-4a6.557,6.557,0,0,0-.432-.688V10.28A3.483,3.483,0,0,0,247.5,7.16a3.326,3.326,0,0,0-2.112-3.328,5.919,5.919,0,0,0-2.224-.272h-3.984Zm2.8-6.256V5.96h.944c1.408,0,1.728.512,1.728,1.376a1.309,1.309,0,0,1-1.456,1.408ZM250.088,15h2.8V3.56h-2.8Zm5.488,0h7.472V12.6h-4.672V3.56h-2.8Zm9.008,0h7.472V12.6h-4.672V3.56h-2.8Zm9.008,0h2.8V3.56h-2.8Zm4.7-5.792a5.984,5.984,0,0,0,11.968,0,5.986,5.986,0,0,0-11.968,0Zm2.9,0a3.094,3.094,0,1,1,6.176,0,3.1,3.1,0,1,1-6.176,0ZM292.168,15h2.8V9.672c0-.72-.128-1.952-.128-1.952h.032a20.468,20.468,0,0,0,.96,1.952L299.016,15h2.816V3.56h-2.8V8.9c0,.72.128,1.952.128,1.952h-.032a20.468,20.468,0,0,0-.96-1.952L295,3.56h-2.832Zm11.5-1.44a5.906,5.906,0,0,0,4.176,1.632c2.576,0,4.032-1.648,4.032-3.552,0-3.616-5.152-3.36-5.152-4.8,0-.64.64-.9,1.216-.9a4.365,4.365,0,0,1,2.528,1.008l1.184-2.288a5.189,5.189,0,0,0-3.68-1.3c-2.272,0-4.048,1.392-4.048,3.5,0,3.52,5.152,3.472,5.152,4.832,0,.688-.624.912-1.2.912a4.741,4.741,0,0,1-2.736-1.184Z" transform="translate(5.5 7718) rotate(-90)" fill="#908f93"/>
      <path id="Path_3222" data-name="Path 3222" d="M283.12,15h2.8V10.312L289.7,3.56h-3.184l-1.28,2.752c-.368.784-.688,1.648-.688,1.648h-.032s-.32-.864-.688-1.648l-1.3-2.752h-3.184l3.776,6.752Zm7.856,0h7.392V12.6h-4.592V10.44h3.488V8.04h-3.488V5.96h4.368V3.56h-7.168Zm15.84,0h2.88L305.808,3.56h-2.944L298.976,15h2.88l.688-2.4h3.568Zm-2.464-8.832s.256,1.248.464,1.968l.64,2.224H303.2l.656-2.224c.208-.72.464-1.968.464-1.968ZM310.976,15h2.8V11.144h1.312L317.12,15h3.12l-2.224-4a6.557,6.557,0,0,0-.432-.688V10.28A3.482,3.482,0,0,0,319.3,7.16a3.326,3.326,0,0,0-2.112-3.328,5.919,5.919,0,0,0-2.224-.272h-3.984Zm2.8-6.256V5.96h.944c1.408,0,1.728.512,1.728,1.376a1.309,1.309,0,0,1-1.456,1.408Z" transform="translate(152 7730.5)" fill="#908f93"/>
      <path id="Path_3216" data-name="Path 3216" d="M7.472,15h7.616V12.6H12.64V3.56H10.224l-3.088,2.9L8.752,8.184,9.44,7.56a2.161,2.161,0,0,0,.448-.608H9.92S9.9,7.4,9.9,7.832V12.6H7.472Zm13.1.192c3.248,0,4.3-2.656,4.3-5.936s-1.056-5.888-4.3-5.888-4.3,2.608-4.3,5.888S17.328,15.192,20.576,15.192Zm0-2.56c-1.1,0-1.424-1.5-1.424-3.376,0-1.856.32-3.328,1.424-3.328S22,7.4,22,9.256C22,11.128,21.68,12.632,20.576,12.632ZM32.9,15h2.8V5.96h3.472V3.56H29.424v2.4H32.9Zm6.928,0h2.768V11.88a3.736,3.736,0,0,1,.144-1.12,2.08,2.08,0,0,1,2.128-1.44,2.945,2.945,0,0,1,.56.048V6.648a1.871,1.871,0,0,0-.32-.032A2.86,2.86,0,0,0,42.48,8.664h-.032a4.36,4.36,0,0,0,.032-.512V6.76H39.824Zm6.912-9.28h2.7V3.56h-2.7ZM46.7,15h2.768V6.76H46.7Zm4.7-3.04c0,2.768,1.568,3.12,3.04,3.12a7.525,7.525,0,0,0,.832-.048v-2.4s-.16.016-.336.016c-.624,0-.768-.272-.768-1.056V3.56H51.408Zm5.168,0c0,2.768,1.568,3.12,3.04,3.12a7.525,7.525,0,0,0,.832-.048v-2.4s-.16.016-.336.016c-.624,0-.768-.272-.768-1.056V3.56H56.576Zm5.312-6.24h2.7V3.56h-2.7ZM61.856,15h2.768V6.76H61.856Zm4.208-4.1A4.685,4.685,0,1,0,70.72,6.568,4.356,4.356,0,0,0,66.064,10.9Zm2.8,0a1.878,1.878,0,1,1,3.744,0,1.875,1.875,0,1,1-3.744,0ZM76.848,15h2.768V11.352a3.309,3.309,0,0,1,.16-1.088A1.622,1.622,0,0,1,81.408,9.08c.608,0,.912.32.912,1.088V15h2.768V9.656c0-2.32-1.3-3.088-2.96-3.088A2.907,2.907,0,0,0,79.5,7.992h-.032A4.361,4.361,0,0,0,79.5,7.48V6.76H76.848Z" transform="translate(52.5 7548)" fill="#908f93"/>
      <path id="Path_3217" data-name="Path 3217" d="M8.368,15h7.616V12.6H13.536V3.56H11.12l-3.088,2.9L9.648,8.184l.688-.624a2.161,2.161,0,0,0,.448-.608h.032s-.016.448-.016.88V12.6H8.368Zm8.592-1.312a5.514,5.514,0,0,0,3.9,1.5,4,4,0,0,0,4.24-4.08c0-2.064-1.376-3.76-4.1-3.76a3.494,3.494,0,0,0-.832.112h-.032a1.872,1.872,0,0,0,.064-.448l.064-1.056H24.24V3.56h-6.4l-.464,5.984,1.488.56A3.33,3.33,0,0,1,20.4,9.72c1.04,0,1.824.528,1.824,1.424a1.482,1.482,0,0,1-1.6,1.408,3.773,3.773,0,0,1-2.32-1.024ZM32.9,15h2.8V5.96h3.472V3.56H29.424v2.4H32.9Zm6.928,0h2.768V11.88a3.736,3.736,0,0,1,.144-1.12,2.08,2.08,0,0,1,2.128-1.44,2.945,2.945,0,0,1,.56.048V6.648a1.871,1.871,0,0,0-.32-.032A2.86,2.86,0,0,0,42.48,8.664h-.032a4.36,4.36,0,0,0,.032-.512V6.76H39.824Zm6.912-9.28h2.7V3.56h-2.7ZM46.7,15h2.768V6.76H46.7Zm4.7-3.04c0,2.768,1.568,3.12,3.04,3.12a7.525,7.525,0,0,0,.832-.048v-2.4s-.16.016-.336.016c-.624,0-.768-.272-.768-1.056V3.56H51.408Zm5.168,0c0,2.768,1.568,3.12,3.04,3.12a7.525,7.525,0,0,0,.832-.048v-2.4s-.16.016-.336.016c-.624,0-.768-.272-.768-1.056V3.56H56.576Zm5.312-6.24h2.7V3.56h-2.7ZM61.856,15h2.768V6.76H61.856Zm4.208-4.1A4.685,4.685,0,1,0,70.72,6.568,4.356,4.356,0,0,0,66.064,10.9Zm2.8,0a1.878,1.878,0,1,1,3.744,0,1.875,1.875,0,1,1-3.744,0ZM76.848,15h2.768V11.352a3.309,3.309,0,0,1,.16-1.088A1.622,1.622,0,0,1,81.408,9.08c.608,0,.912.32.912,1.088V15h2.768V9.656c0-2.32-1.3-3.088-2.96-3.088A2.907,2.907,0,0,0,79.5,7.992h-.032A4.361,4.361,0,0,0,79.5,7.48V6.76H76.848Z" transform="translate(52.5 7443)" fill="#908f93"/>
      <g id="Group_502" data-name="Group 502" transform="translate(161.468 7300.686)">
        <g id="Group_501" data-name="Group 501">
          <line id="Line_254" data-name="Line 254" x1="19.967" y2="2.759" transform="translate(0 390.859)" fill="none" stroke="#7d0404" stroke-linecap="round" stroke-miterlimit="10" stroke-width="3"/>
          <line id="Line_255" data-name="Line 255" x1="19.967" y2="14.096" transform="translate(19.967 376.763)" fill="none" stroke="#7d0404" stroke-linecap="round" stroke-miterlimit="10" stroke-width="3"/>
          <line id="Line_256" data-name="Line 256" x1="19.967" y2="6.847" transform="translate(39.934 369.917)" fill="none" stroke="#7d0404" stroke-linecap="round" stroke-miterlimit="10" stroke-width="3"/>
          <line id="Line_257" data-name="Line 257" x1="19.967" y2="5.638" transform="translate(59.902 364.278)" fill="none" stroke="#7d0404" stroke-linecap="round" stroke-miterlimit="10" stroke-width="3"/>
          <line id="Line_258" data-name="Line 258" x1="19.967" y2="5.638" transform="translate(79.869 358.64)" fill="none" stroke="#7d0404" stroke-linecap="round" stroke-miterlimit="10" stroke-width="3"/>
          <line id="Line_259" data-name="Line 259" x1="19.967" y2="5.236" transform="translate(99.836 353.404)" fill="none" stroke="#7d0404" stroke-linecap="round" stroke-miterlimit="10" stroke-width="3"/>
          <line id="Line_260" data-name="Line 260" x1="19.967" y2="3.625" transform="translate(119.803 349.78)" fill="none" stroke="#7d0404" stroke-linecap="round" stroke-miterlimit="10" stroke-width="3"/>
          <line id="Line_261" data-name="Line 261" x1="19.967" y2="2.416" transform="translate(139.77 347.363)" fill="none" stroke="#7d0404" stroke-linecap="round" stroke-miterlimit="10" stroke-width="3"/>
          <line id="Line_262" data-name="Line 262" x1="19.967" y2="2.618" transform="translate(159.738 344.746)" fill="none" stroke="#7d0404" stroke-linecap="round" stroke-miterlimit="10" stroke-width="3"/>
          <line id="Line_263" data-name="Line 263" x1="19.967" y2="0.201" transform="translate(179.705 344.544)" fill="none" stroke="#7d0404" stroke-linecap="round" stroke-miterlimit="10" stroke-width="3"/>
          <line id="Line_264" data-name="Line 264" x1="19.967" y2="2.618" transform="translate(199.672 341.926)" fill="none" stroke="#7d0404" stroke-linecap="round" stroke-miterlimit="10" stroke-width="3"/>
          <line id="Line_265" data-name="Line 265" x1="19.967" y2="8.458" transform="translate(219.639 333.469)" fill="none" stroke="#7d0404" stroke-linecap="round" stroke-miterlimit="10" stroke-width="3"/>
          <line id="Line_266" data-name="Line 266" x1="19.967" y2="11.277" transform="translate(239.606 322.192)" fill="none" stroke="#7d0404" stroke-linecap="round" stroke-miterlimit="10" stroke-width="3"/>
          <line id="Line_267" data-name="Line 267" x1="19.967" y2="12.082" transform="translate(259.573 310.11)" fill="none" stroke="#7d0404" stroke-linecap="round" stroke-miterlimit="10" stroke-width="3"/>
          <line id="Line_268" data-name="Line 268" x1="19.967" y2="11.075" transform="translate(279.541 299.035)" fill="none" stroke="#7d0404" stroke-linecap="round" stroke-miterlimit="10" stroke-width="3"/>
          <line id="Line_269" data-name="Line 269" x1="19.967" y2="11.478" transform="translate(299.508 287.556)" fill="none" stroke="#7d0404" stroke-linecap="round" stroke-miterlimit="10" stroke-width="3"/>
          <line id="Line_270" data-name="Line 270" x1="19.967" y2="10.069" transform="translate(319.475 277.488)" fill="none" stroke="#7d0404" stroke-linecap="round" stroke-miterlimit="10" stroke-width="3"/>
          <line id="Line_271" data-name="Line 271" x1="19.967" y2="20.54" transform="translate(339.442 256.948)" fill="none" stroke="#7d0404" stroke-linecap="round" stroke-miterlimit="10" stroke-width="3"/>
          <line id="Line_272" data-name="Line 272" x1="19.967" y2="38.059" transform="translate(359.409 218.889)" fill="none" stroke="#7d0404" stroke-linecap="round" stroke-miterlimit="10" stroke-width="3"/>
          <line id="Line_273" data-name="Line 273" x1="19.967" y2="33.226" transform="translate(379.377 185.663)" fill="none" stroke="#7d0404" stroke-linecap="round" stroke-miterlimit="10" stroke-width="3"/>
          <line id="Line_274" data-name="Line 274" x1="19.967" y2="24.769" transform="translate(399.344 160.895)" fill="none" stroke="#7d0404" stroke-linecap="round" stroke-miterlimit="10" stroke-width="3"/>
          <line id="Line_275" data-name="Line 275" x1="19.967" y2="25.574" transform="translate(419.311 135.321)" fill="none" stroke="#7d0404" stroke-linecap="round" stroke-miterlimit="10" stroke-width="3"/>
          <line id="Line_276" data-name="Line 276" x1="19.967" y2="13.693" transform="translate(439.278 121.628)" fill="none" stroke="#7d0404" stroke-linecap="round" stroke-miterlimit="10" stroke-width="3"/>
          <line id="Line_277" data-name="Line 277" x1="19.967" y2="21.748" transform="translate(459.245 99.88)" fill="none" stroke="#7d0404" stroke-linecap="round" stroke-miterlimit="10" stroke-width="3"/>
          <line id="Line_278" data-name="Line 278" x1="19.967" y2="6.645" transform="translate(479.213 93.234)" fill="none" stroke="#7d0404" stroke-linecap="round" stroke-miterlimit="10" stroke-width="3"/>
          <line id="Line_279" data-name="Line 279" x1="19.967" y2="28.595" transform="translate(499.18 64.64)" fill="none" stroke="#7d0404" stroke-linecap="round" stroke-miterlimit="10" stroke-width="3"/>
          <line id="Line_280" data-name="Line 280" x1="19.967" y2="13.693" transform="translate(519.147 50.947)" fill="none" stroke="#7d0404" stroke-linecap="round" stroke-miterlimit="10" stroke-width="3"/>
          <line id="Line_281" data-name="Line 281" x1="19.967" y2="25.574" transform="translate(539.114 25.373)" fill="none" stroke="#7d0404" stroke-linecap="round" stroke-miterlimit="10" stroke-width="3"/>
          <line id="Line_282" data-name="Line 282" x1="19.967" y2="25.373" transform="translate(559.081)" fill="none" stroke="#7d0404" stroke-linecap="round" stroke-miterlimit="10" stroke-width="3"/>
        </g>
      </g>
      <g id="Group_504" data-name="Group 504" transform="translate(161.468 7344.987)">
        <g id="Group_503" data-name="Group 503">
          <line id="Line_283" data-name="Line 283" x1="19.967" y2="3.927" transform="translate(0 290.416)" fill="none" stroke="#1762a0" stroke-linecap="round" stroke-miterlimit="10" stroke-width="3"/>
          <line id="Line_284" data-name="Line 284" x1="19.967" y2="7.29" transform="translate(19.967 283.126)" fill="none" stroke="#1762a0" stroke-linecap="round" stroke-miterlimit="10" stroke-width="3"/>
          <line id="Line_285" data-name="Line 285" x1="19.967" y2="6.826" transform="translate(39.934 276.3)" fill="none" stroke="#1762a0" stroke-linecap="round" stroke-miterlimit="10" stroke-width="3"/>
          <line id="Line_286" data-name="Line 286" x1="19.967" y2="8.619" transform="translate(59.902 267.681)" fill="none" stroke="#1762a0" stroke-linecap="round" stroke-miterlimit="10" stroke-width="3"/>
          <line id="Line_287" data-name="Line 287" x1="19.967" y2="7.108" transform="translate(79.869 260.573)" fill="none" stroke="#1762a0" stroke-linecap="round" stroke-miterlimit="10" stroke-width="3"/>
          <line id="Line_288" data-name="Line 288" x1="19.967" y2="8.719" transform="translate(99.836 251.854)" fill="none" stroke="#1762a0" stroke-linecap="round" stroke-miterlimit="10" stroke-width="3"/>
          <line id="Line_289" data-name="Line 289" x1="19.967" y2="10.169" transform="translate(119.803 241.684)" fill="none" stroke="#1762a0" stroke-linecap="round" stroke-miterlimit="10" stroke-width="3"/>
          <line id="Line_290" data-name="Line 290" x1="19.967" y2="9.766" transform="translate(139.77 231.918)" fill="none" stroke="#1762a0" stroke-linecap="round" stroke-miterlimit="10" stroke-width="3"/>
          <line id="Line_291" data-name="Line 291" x1="19.967" y2="11.438" transform="translate(159.738 220.48)" fill="none" stroke="#1762a0" stroke-linecap="round" stroke-miterlimit="10" stroke-width="3"/>
          <line id="Line_292" data-name="Line 292" x1="19.967" y2="12.505" transform="translate(179.705 207.975)" fill="none" stroke="#1762a0" stroke-linecap="round" stroke-miterlimit="10" stroke-width="3"/>
          <line id="Line_293" data-name="Line 293" x1="19.967" y2="6.645" transform="translate(199.672 201.33)" fill="none" stroke="#1762a0" stroke-linecap="round" stroke-miterlimit="10" stroke-width="3"/>
          <line id="Line_294" data-name="Line 294" x1="19.967" y2="7.129" transform="translate(219.639 194.201)" fill="none" stroke="#1762a0" stroke-linecap="round" stroke-miterlimit="10" stroke-width="3"/>
          <line id="Line_295" data-name="Line 295" x1="19.967" y2="10.512" transform="translate(239.606 183.69)" fill="none" stroke="#1762a0" stroke-linecap="round" stroke-miterlimit="10" stroke-width="3"/>
          <line id="Line_296" data-name="Line 296" x1="19.967" y2="15.224" transform="translate(259.573 168.466)" fill="none" stroke="#1762a0" stroke-linecap="round" stroke-miterlimit="10" stroke-width="3"/>
          <line id="Line_297" data-name="Line 297" x1="19.967" y2="16.573" transform="translate(279.541 151.893)" fill="none" stroke="#1762a0" stroke-linecap="round" stroke-miterlimit="10" stroke-width="3"/>
          <line id="Line_298" data-name="Line 298" x1="19.967" y2="15.667" transform="translate(299.508 136.227)" fill="none" stroke="#1762a0" stroke-linecap="round" stroke-miterlimit="10" stroke-width="3"/>
          <line id="Line_299" data-name="Line 299" x1="19.967" y2="12.827" transform="translate(319.475 123.4)" fill="none" stroke="#1762a0" stroke-linecap="round" stroke-miterlimit="10" stroke-width="3"/>
          <line id="Line_300" data-name="Line 300" x1="19.967" y2="5.256" transform="translate(339.442 118.144)" fill="none" stroke="#1762a0" stroke-linecap="round" stroke-miterlimit="10" stroke-width="3"/>
          <line id="Line_301" data-name="Line 301" x1="19.967" y1="5.316" transform="translate(359.409 118.144)" fill="none" stroke="#1762a0" stroke-linecap="round" stroke-miterlimit="10" stroke-width="3"/>
          <line id="Line_302" data-name="Line 302" x1="19.967" y2="10.934" transform="translate(379.377 112.526)" fill="none" stroke="#1762a0" stroke-linecap="round" stroke-miterlimit="10" stroke-width="3"/>
          <line id="Line_303" data-name="Line 303" x1="19.967" y2="11.095" transform="translate(399.344 101.43)" fill="none" stroke="#1762a0" stroke-linecap="round" stroke-miterlimit="10" stroke-width="3"/>
          <line id="Line_304" data-name="Line 304" x1="19.967" y2="13.17" transform="translate(419.311 88.26)" fill="none" stroke="#1762a0" stroke-linecap="round" stroke-miterlimit="10" stroke-width="3"/>
          <line id="Line_305" data-name="Line 305" x1="19.967" y2="11.841" transform="translate(439.278 76.42)" fill="none" stroke="#1762a0" stroke-linecap="round" stroke-miterlimit="10" stroke-width="3"/>
          <line id="Line_306" data-name="Line 306" x1="19.967" y2="14.942" transform="translate(459.245 61.478)" fill="none" stroke="#1762a0" stroke-linecap="round" stroke-miterlimit="10" stroke-width="3"/>
          <line id="Line_307" data-name="Line 307" x1="19.967" y2="14.056" transform="translate(479.213 47.423)" fill="none" stroke="#1762a0" stroke-linecap="round" stroke-miterlimit="10" stroke-width="3"/>
          <line id="Line_308" data-name="Line 308" x1="19.967" y2="9.867" transform="translate(499.18 37.556)" fill="none" stroke="#1762a0" stroke-linecap="round" stroke-miterlimit="10" stroke-width="3"/>
          <line id="Line_309" data-name="Line 309" x1="19.967" y2="16.19" transform="translate(519.147 21.365)" fill="none" stroke="#1762a0" stroke-linecap="round" stroke-miterlimit="10" stroke-width="3"/>
          <line id="Line_310" data-name="Line 310" x1="19.967" y2="21.365" transform="translate(539.114)" fill="none" stroke="#1762a0" stroke-linecap="round" stroke-miterlimit="10" stroke-width="3"/>
        </g>
      </g>
      <g id="Group_507" data-name="Group 507" transform="translate(160.246 7299.464)">
        <g id="Group_506" data-name="Group 506">
          <rect id="Rectangle_488" data-name="Rectangle 488" width="6.443" height="6.443" rx="3" transform="translate(-2 391.618)" fill="#7d0407"/>
          <rect id="Rectangle_489" data-name="Rectangle 489" width="2.443" height="2.443" transform="translate(19.967 390.859)" fill="#7d0407"/>
          <rect id="Rectangle_490" data-name="Rectangle 490" width="2.443" height="2.443" transform="translate(39.934 376.763)" fill="#7d0407"/>
          <rect id="Rectangle_491" data-name="Rectangle 491" width="2.443" height="2.443" transform="translate(59.902 369.917)" fill="#7d0407"/>
          <rect id="Rectangle_492" data-name="Rectangle 492" width="2.443" height="2.443" transform="translate(79.869 364.278)" fill="#7d0407"/>
          <rect id="Rectangle_493" data-name="Rectangle 493" width="2.443" height="2.443" transform="translate(99.836 358.64)" fill="#7d0407"/>
          <rect id="Rectangle_494" data-name="Rectangle 494" width="2.443" height="2.443" transform="translate(119.803 353.404)" fill="#7d0407"/>
          <rect id="Rectangle_495" data-name="Rectangle 495" width="2.443" height="2.443" transform="translate(139.77 349.78)" fill="#7d0407"/>
          <rect id="Rectangle_496" data-name="Rectangle 496" width="2.443" height="2.443" transform="translate(159.738 347.363)" fill="#7d0407"/>
          <rect id="Rectangle_497" data-name="Rectangle 497" width="2.443" height="2.443" transform="translate(179.705 344.746)" fill="#7d0407"/>
          <rect id="Rectangle_498" data-name="Rectangle 498" width="2.443" height="2.443" transform="translate(199.672 344.544)" fill="#7d0407"/>
          <rect id="Rectangle_499" data-name="Rectangle 499" width="2.443" height="2.443" transform="translate(219.639 341.926)" fill="#7d0407"/>
          <rect id="Rectangle_500" data-name="Rectangle 500" width="2.443" height="2.443" transform="translate(239.606 333.469)" fill="#7d0407"/>
          <rect id="Rectangle_501" data-name="Rectangle 501" width="2.443" height="2.443" transform="translate(259.573 322.192)" fill="#7d0407"/>
          <rect id="Rectangle_502" data-name="Rectangle 502" width="2.443" height="2.443" transform="translate(279.541 310.11)" fill="#7d0407"/>
          <rect id="Rectangle_503" data-name="Rectangle 503" width="2.443" height="2.443" transform="translate(299.508 299.035)" fill="#7d0407"/>
          <rect id="Rectangle_504" data-name="Rectangle 504" width="2.443" height="2.443" transform="translate(319.475 287.556)" fill="#7d0407"/>
          <rect id="Rectangle_505" data-name="Rectangle 505" width="2.443" height="2.443" transform="translate(339.442 277.488)" fill="#7d0407"/>
          <rect id="Rectangle_506" data-name="Rectangle 506" width="2.443" height="2.443" transform="translate(359.409 256.948)" fill="#7d0407"/>
          <rect id="Rectangle_507" data-name="Rectangle 507" width="2.443" height="2.443" transform="translate(379.377 218.889)" fill="#7d0407"/>
          <rect id="Rectangle_508" data-name="Rectangle 508" width="2.443" height="2.443" transform="translate(399.344 185.663)" fill="#7d0407"/>
          <rect id="Rectangle_509" data-name="Rectangle 509" width="2.443" height="2.443" transform="translate(419.311 160.895)" fill="#7d0407"/>
          <rect id="Rectangle_510" data-name="Rectangle 510" width="2.443" height="2.443" transform="translate(439.278 135.321)" fill="#7d0407"/>
          <rect id="Rectangle_511" data-name="Rectangle 511" width="2.443" height="2.443" transform="translate(459.245 121.628)" fill="#7d0407"/>
          <rect id="Rectangle_512" data-name="Rectangle 512" width="2.443" height="2.443" transform="translate(479.213 99.88)" fill="#7d0407"/>
          <rect id="Rectangle_513" data-name="Rectangle 513" width="2.443" height="2.443" transform="translate(499.18 93.234)" fill="#7d0407"/>
          <rect id="Rectangle_514" data-name="Rectangle 514" width="2.443" height="2.443" transform="translate(519.147 64.64)" fill="#7d0407"/>
          <rect id="Rectangle_515" data-name="Rectangle 515" width="2.443" height="2.443" transform="translate(539.114 50.947)" fill="#7d0407"/>
          <rect id="Rectangle_516" data-name="Rectangle 516" width="2.443" height="2.443" transform="translate(559.081 25.373)" fill="#7d0407"/>
          <rect id="Rectangle_517" data-name="Rectangle 517" width="2.443" height="2.443" transform="translate(579.048)" fill="#7d0407"/>
          <rect id="Rectangle_547" data-name="Rectangle 547" width="6.443" height="6.443" rx="3" transform="translate(18 388.618)" fill="#7d0407"/>
          <rect id="Rectangle_548" data-name="Rectangle 548" width="6.443" height="6.443" rx="3" transform="translate(38 374.618)" fill="#7d0407"/>
          <rect id="Rectangle_549" data-name="Rectangle 549" width="6.443" height="6.443" rx="3" transform="translate(58 367.618)" fill="#7d0407"/>
          <rect id="Rectangle_550" data-name="Rectangle 550" width="6.443" height="6.443" rx="3" transform="translate(78 362.618)" fill="#7d0407"/>
          <rect id="Rectangle_551" data-name="Rectangle 551" width="6.443" height="6.443" rx="3" transform="translate(97 356.618)" fill="#7d0407"/>
          <rect id="Rectangle_552" data-name="Rectangle 552" width="6.443" height="6.443" rx="3" transform="translate(117 351.618)" fill="#7d0407"/>
          <rect id="Rectangle_553" data-name="Rectangle 553" width="6.443" height="6.443" rx="3" transform="translate(137 347.618)" fill="#7d0407"/>
          <rect id="Rectangle_554" data-name="Rectangle 554" width="6.443" height="6.443" rx="3" transform="translate(157 344.618)" fill="#7d0407"/>
          <rect id="Rectangle_555" data-name="Rectangle 555" width="6.443" height="6.443" rx="3" transform="translate(178 342.618)" fill="#7d0407"/>
          <rect id="Rectangle_556" data-name="Rectangle 556" width="6.443" height="6.443" rx="3" transform="translate(198 342.618)" fill="#7d0407"/>
          <rect id="Rectangle_557" data-name="Rectangle 557" width="6.443" height="6.443" rx="3" transform="translate(218 339.618)" fill="#7d0407"/>
          <rect id="Rectangle_558" data-name="Rectangle 558" width="6.443" height="6.443" rx="3" transform="translate(238 331.618)" fill="#7d0407"/>
          <rect id="Rectangle_559" data-name="Rectangle 559" width="6.443" height="6.443" rx="3" transform="translate(257 319.618)" fill="#7d0407"/>
          <rect id="Rectangle_560" data-name="Rectangle 560" width="6.443" height="6.443" rx="3" transform="translate(278 307.618)" fill="#7d0407"/>
          <rect id="Rectangle_561" data-name="Rectangle 561" width="6.443" height="6.443" rx="3" transform="translate(298 295.618)" fill="#7d0407"/>
          <rect id="Rectangle_562" data-name="Rectangle 562" width="6.443" height="6.443" rx="3" transform="translate(317 285.618)" fill="#7d0407"/>
          <rect id="Rectangle_563" data-name="Rectangle 563" width="6.443" height="6.443" rx="3" transform="translate(337 275.618)" fill="#7d0407"/>
          <rect id="Rectangle_564" data-name="Rectangle 564" width="6.443" height="6.443" rx="3" transform="translate(357 254.618)" fill="#7d0407"/>
          <rect id="Rectangle_565" data-name="Rectangle 565" width="6.443" height="6.443" rx="3" transform="translate(377 216.618)" fill="#7d0407"/>
          <rect id="Rectangle_566" data-name="Rectangle 566" width="6.443" height="6.443" rx="3" transform="translate(397 183.618)" fill="#7d0407"/>
          <rect id="Rectangle_567" data-name="Rectangle 567" width="6.443" height="6.443" rx="3" transform="translate(417 159.618)" fill="#7d0407"/>
          <rect id="Rectangle_568" data-name="Rectangle 568" width="6.443" height="6.443" rx="3" transform="translate(437 134.618)" fill="#7d0407"/>
          <rect id="Rectangle_569" data-name="Rectangle 569" width="6.443" height="6.443" rx="3" transform="translate(457 120.618)" fill="#7d0407"/>
          <rect id="Rectangle_570" data-name="Rectangle 570" width="6.443" height="6.443" rx="3" transform="translate(477 97.618)" fill="#7d0407"/>
          <rect id="Rectangle_571" data-name="Rectangle 571" width="6.443" height="6.443" rx="3" transform="translate(497 91.618)" fill="#7d0407"/>
          <rect id="Rectangle_572" data-name="Rectangle 572" width="6.443" height="6.443" rx="3" transform="translate(517 62.618)" fill="#7d0407"/>
          <rect id="Rectangle_573" data-name="Rectangle 573" width="6.443" height="6.443" rx="3" transform="translate(537 48.618)" fill="#7d0407"/>
          <rect id="Rectangle_574" data-name="Rectangle 574" width="6.443" height="6.443" rx="3" transform="translate(557 23.618)" fill="#7d0407"/>
          <rect id="Rectangle_575" data-name="Rectangle 575" width="6.443" height="6.443" rx="3" transform="translate(577 -2.382)" fill="#7d0407"/>
        </g>
      </g>
      <g id="Group_509" data-name="Group 509" transform="translate(160.246 7343.765)">
        <g id="Group_508" data-name="Group 508">
          <rect id="Rectangle_518" data-name="Rectangle 518" width="2.443" height="2.443" transform="translate(0 294.343)" fill="#1762a0"/>
          <rect id="Rectangle_519" data-name="Rectangle 519" width="2.443" height="2.443" transform="translate(19.967 290.416)" fill="#1762a0"/>
          <rect id="Rectangle_520" data-name="Rectangle 520" width="2.443" height="2.443" transform="translate(39.934 283.126)" fill="#1762a0"/>
          <rect id="Rectangle_521" data-name="Rectangle 521" width="2.443" height="2.443" transform="translate(59.902 276.3)" fill="#1762a0"/>
          <rect id="Rectangle_522" data-name="Rectangle 522" width="2.443" height="2.443" transform="translate(79.869 267.681)" fill="#1762a0"/>
          <rect id="Rectangle_523" data-name="Rectangle 523" width="2.443" height="2.443" transform="translate(99.836 260.573)" fill="#1762a0"/>
          <rect id="Rectangle_524" data-name="Rectangle 524" width="2.443" height="2.443" transform="translate(119.803 251.854)" fill="#1762a0"/>
          <rect id="Rectangle_525" data-name="Rectangle 525" width="2.443" height="2.443" transform="translate(139.77 241.684)" fill="#1762a0"/>
          <rect id="Rectangle_526" data-name="Rectangle 526" width="2.443" height="2.443" transform="translate(159.738 231.918)" fill="#1762a0"/>
          <rect id="Rectangle_527" data-name="Rectangle 527" width="2.443" height="2.443" transform="translate(179.705 220.48)" fill="#1762a0"/>
          <rect id="Rectangle_528" data-name="Rectangle 528" width="2.443" height="2.443" transform="translate(199.672 207.975)" fill="#1762a0"/>
          <rect id="Rectangle_529" data-name="Rectangle 529" width="2.443" height="2.443" transform="translate(219.639 201.33)" fill="#1762a0"/>
          <rect id="Rectangle_530" data-name="Rectangle 530" width="2.443" height="2.443" transform="translate(239.606 194.201)" fill="#1762a0"/>
          <rect id="Rectangle_531" data-name="Rectangle 531" width="2.443" height="2.443" transform="translate(259.573 183.69)" fill="#1762a0"/>
          <rect id="Rectangle_532" data-name="Rectangle 532" width="2.443" height="2.443" transform="translate(279.541 168.466)" fill="#1762a0"/>
          <rect id="Rectangle_533" data-name="Rectangle 533" width="2.443" height="2.443" transform="translate(299.508 151.893)" fill="#1762a0"/>
          <rect id="Rectangle_534" data-name="Rectangle 534" width="2.443" height="2.443" transform="translate(319.475 136.227)" fill="#1762a0"/>
          <rect id="Rectangle_535" data-name="Rectangle 535" width="2.443" height="2.443" transform="translate(339.442 123.4)" fill="#1762a0"/>
          <rect id="Rectangle_536" data-name="Rectangle 536" width="2.443" height="2.443" transform="translate(359.409 118.144)" fill="#1762a0"/>
          <rect id="Rectangle_537" data-name="Rectangle 537" width="2.443" height="2.443" transform="translate(379.377 123.46)" fill="#1762a0"/>
          <rect id="Rectangle_538" data-name="Rectangle 538" width="2.443" height="2.443" transform="translate(399.344 112.526)" fill="#1762a0"/>
          <rect id="Rectangle_539" data-name="Rectangle 539" width="2.443" height="2.443" transform="translate(419.311 101.43)" fill="#1762a0"/>
          <rect id="Rectangle_540" data-name="Rectangle 540" width="2.443" height="2.443" transform="translate(439.278 88.26)" fill="#1762a0"/>
          <rect id="Rectangle_541" data-name="Rectangle 541" width="2.443" height="2.443" transform="translate(459.245 76.42)" fill="#1762a0"/>
          <rect id="Rectangle_542" data-name="Rectangle 542" width="2.443" height="2.443" transform="translate(479.213 61.478)" fill="#1762a0"/>
          <rect id="Rectangle_543" data-name="Rectangle 543" width="2.443" height="2.443" transform="translate(499.18 47.423)" fill="#1762a0"/>
          <rect id="Rectangle_544" data-name="Rectangle 544" width="2.443" height="2.443" transform="translate(519.147 37.556)" fill="#1762a0"/>
          <rect id="Rectangle_545" data-name="Rectangle 545" width="2.443" height="2.443" transform="translate(539.114 21.365)" fill="#1762a0"/>
          <rect id="Rectangle_546" data-name="Rectangle 546" width="2.443" height="2.443" transform="translate(559.081)" fill="#1762a0"/>
        </g>
        <rect id="Rectangle_576" data-name="Rectangle 576" width="6.443" height="6.443" rx="3" transform="translate(557 -1.683)" fill="#1762a0"/>
        <rect id="Rectangle_577" data-name="Rectangle 577" width="6.443" height="6.443" rx="3" transform="translate(537 19.317)" fill="#1762a0"/>
        <rect id="Rectangle_578" data-name="Rectangle 578" width="6.443" height="6.443" rx="3" transform="translate(517 35.317)" fill="#1762a0"/>
        <rect id="Rectangle_579" data-name="Rectangle 579" width="6.443" height="6.443" rx="3" transform="translate(497 47.317)" fill="#1762a0"/>
        <rect id="Rectangle_580" data-name="Rectangle 580" width="6.443" height="6.443" rx="3" transform="translate(477 59.317)" fill="#1762a0"/>
        <rect id="Rectangle_581" data-name="Rectangle 581" width="6.443" height="6.443" rx="3" transform="translate(457 76.317)" fill="#1762a0"/>
        <rect id="Rectangle_582" data-name="Rectangle 582" width="6.443" height="6.443" rx="3" transform="translate(437 86.317)" fill="#1762a0"/>
        <rect id="Rectangle_583" data-name="Rectangle 583" width="6.443" height="6.443" rx="3" transform="translate(418 99.317)" fill="#1762a0"/>
        <rect id="Rectangle_584" data-name="Rectangle 584" width="6.443" height="6.443" rx="3" transform="translate(397 110.317)" fill="#1762a0"/>
        <rect id="Rectangle_585" data-name="Rectangle 585" width="6.443" height="6.443" rx="3" transform="translate(377 121.317)" fill="#1762a0"/>
        <rect id="Rectangle_586" data-name="Rectangle 586" width="6.443" height="6.443" rx="3" transform="translate(357 116.317)" fill="#1762a0"/>
        <rect id="Rectangle_587" data-name="Rectangle 587" width="6.443" height="6.443" rx="3" transform="translate(338 121.317)" fill="#1762a0"/>
        <rect id="Rectangle_588" data-name="Rectangle 588" width="6.443" height="6.443" rx="3" transform="translate(317 134.317)" fill="#1762a0"/>
        <rect id="Rectangle_589" data-name="Rectangle 589" width="6.443" height="6.443" rx="3" transform="translate(297 150.317)" fill="#1762a0"/>
        <rect id="Rectangle_590" data-name="Rectangle 590" width="6.443" height="6.443" rx="3" transform="translate(277 166.317)" fill="#1762a0"/>
        <rect id="Rectangle_591" data-name="Rectangle 591" width="6.443" height="6.443" rx="3" transform="translate(257 182.317)" fill="#1762a0"/>
        <rect id="Rectangle_592" data-name="Rectangle 592" width="6.443" height="6.443" rx="3" transform="translate(237 192.317)" fill="#1762a0"/>
        <rect id="Rectangle_593" data-name="Rectangle 593" width="6.443" height="6.443" rx="3" transform="translate(218 199.317)" fill="#1762a0"/>
        <rect id="Rectangle_594" data-name="Rectangle 594" width="6.443" height="6.443" rx="3" transform="translate(197 205.317)" fill="#1762a0"/>
        <rect id="Rectangle_595" data-name="Rectangle 595" width="6.443" height="6.443" rx="3" transform="translate(177 218.317)" fill="#1762a0"/>
        <rect id="Rectangle_596" data-name="Rectangle 596" width="6.443" height="6.443" rx="3" transform="translate(158 229.317)" fill="#1762a0"/>
        <rect id="Rectangle_597" data-name="Rectangle 597" width="6.443" height="6.443" rx="3" transform="translate(138 239.317)" fill="#1762a0"/>
        <rect id="Rectangle_598" data-name="Rectangle 598" width="6.443" height="6.443" rx="3" transform="translate(117 249.317)" fill="#1762a0"/>
        <rect id="Rectangle_599" data-name="Rectangle 599" width="6.443" height="6.443" rx="3" transform="translate(97 258.317)" fill="#1762a0"/>
        <rect id="Rectangle_600" data-name="Rectangle 600" width="6.443" height="6.443" rx="3" transform="translate(77 265.317)" fill="#1762a0"/>
        <rect id="Rectangle_601" data-name="Rectangle 601" width="6.443" height="6.443" rx="3" transform="translate(57 274.317)" fill="#1762a0"/>
        <rect id="Rectangle_602" data-name="Rectangle 602" width="6.443" height="6.443" rx="3" transform="translate(37 281.317)" fill="#1762a0"/>
        <rect id="Rectangle_603" data-name="Rectangle 603" width="6.443" height="6.443" rx="3" transform="translate(-2 292.317)" fill="#1762a0"/>
        <rect id="Rectangle_604" data-name="Rectangle 604" width="6.443" height="6.443" rx="3" transform="translate(18 288.317)" fill="#1762a0"/>
      </g>
      <line id="Line_315" data-name="Line 315" x2="599" transform="translate(152 7256.5)" fill="none" stroke="#707070" stroke-width="2"/>
      <path id="Path_3223" data-name="Path 3223" d="M2.71,4.25H4.23L4.77,1.7H3.6ZM7.32,9.12c2.22,0,3.41-2.03,3.41-3.97,0-2.33-1.46-3.42-2.9-3.42A2.372,2.372,0,0,0,5.39,4.14,2.345,2.345,0,0,0,7.73,6.59a2.011,2.011,0,0,0,.98-.25h.02A1.56,1.56,0,0,1,7.19,7.52a2.724,2.724,0,0,1-.98-.21l-.47,1.5A3.606,3.606,0,0,0,7.32,9.12Zm.87-3.94A1,1,0,0,1,7.11,4.13a.749.749,0,0,1,.72-.8,1.326,1.326,0,0,1,1.1,1.42C8.93,5.08,8.59,5.18,8.19,5.18Zm6.2,3.94c2.03,0,2.69-1.66,2.69-3.71s-.66-3.68-2.69-3.68S11.7,3.36,11.7,5.41,12.36,9.12,14.39,9.12Zm0-1.6c-.69,0-.89-.94-.89-2.11s.2-2.08.89-2.08.89.92.89,2.08S15.08,7.52,14.39,7.52Z" transform="translate(151.5 7706)" fill="#908f93"/>
      <path id="Path_3224" data-name="Path 3224" d="M2.99,4.25H4.51L5.05,1.7H3.88ZM7.6,9.12c2.22,0,3.41-2.03,3.41-3.97,0-2.33-1.46-3.42-2.9-3.42A2.372,2.372,0,0,0,5.67,4.14,2.345,2.345,0,0,0,8.01,6.59a2.011,2.011,0,0,0,.98-.25h.02A1.56,1.56,0,0,1,7.47,7.52a2.724,2.724,0,0,1-.98-.21l-.47,1.5A3.606,3.606,0,0,0,7.6,9.12Zm.87-3.94A1,1,0,0,1,7.39,4.13a.749.749,0,0,1,.72-.8,1.326,1.326,0,0,1,1.1,1.42C9.21,5.08,8.87,5.18,8.47,5.18Zm3.38,3a3.446,3.446,0,0,0,2.44.94,2.5,2.5,0,0,0,2.65-2.55,2.3,2.3,0,0,0-2.56-2.35,2.184,2.184,0,0,0-.52.07h-.02a1.17,1.17,0,0,0,.04-.28l.04-.66H16.4V1.85h-4l-.29,3.74.93.35A2.081,2.081,0,0,1,14,5.7c.65,0,1.14.33,1.14.89a.926.926,0,0,1-1,.88,2.358,2.358,0,0,1-1.45-.64Z" transform="translate(251.5 7706)" fill="#908f93"/>
      <path id="Path_3225" data-name="Path 3225" d="M2.605,4.25h1.52l.54-2.55H3.5ZM8.1,9.12c2.03,0,2.69-1.66,2.69-3.71s-.66-3.68-2.69-3.68-2.69,1.63-2.69,3.68S6.065,9.12,8.1,9.12Zm0-1.6c-.69,0-.89-.94-.89-2.11s.2-2.08.89-2.08.89.92.89,2.08S8.785,7.52,8.1,7.52Zm6.4,1.6c2.03,0,2.69-1.66,2.69-3.71s-.66-3.68-2.69-3.68-2.69,1.63-2.69,3.68S12.465,9.12,14.495,9.12Zm0-1.6c-.69,0-.89-.94-.89-2.11s.2-2.08.89-2.08.89.92.89,2.08S15.185,7.52,14.495,7.52Z" transform="translate(351.5 7706)" fill="#908f93"/>
      <path id="Path_3226" data-name="Path 3226" d="M2.885,4.25H4.4l.54-2.55H3.775Zm5.49,4.87c2.03,0,2.69-1.66,2.69-3.71s-.66-3.68-2.69-3.68-2.69,1.63-2.69,3.68S6.345,9.12,8.375,9.12Zm0-1.6c-.69,0-.89-.94-.89-2.11s.2-2.08.89-2.08.89.92.89,2.08S9.065,7.52,8.375,7.52Zm3.58.66a3.446,3.446,0,0,0,2.44.94,2.5,2.5,0,0,0,2.65-2.55,2.3,2.3,0,0,0-2.56-2.35,2.184,2.184,0,0,0-.52.07h-.02a1.17,1.17,0,0,0,.04-.28l.04-.66H16.5V1.85h-4l-.29,3.74.93.35a2.081,2.081,0,0,1,.96-.24c.65,0,1.14.33,1.14.89a.926.926,0,0,1-1,.88,2.358,2.358,0,0,1-1.45-.64Z" transform="translate(451.5 7706)" fill="#908f93"/>
      <path id="Path_3227" data-name="Path 3227" d="M3.03,4.25H4.55L5.09,1.7H3.92ZM5.88,9h4.76V7.5H9.11V1.85H7.6L5.67,3.66,6.68,4.74l.43-.39a1.351,1.351,0,0,0,.28-.38h.02s-.01.28-.01.55V7.5H5.88Zm8.19.12c2.03,0,2.69-1.66,2.69-3.71s-.66-3.68-2.69-3.68-2.69,1.63-2.69,3.68S12.04,9.12,14.07,9.12Zm0-1.6c-.69,0-.89-.94-.89-2.11s.2-2.08.89-2.08.89.92.89,2.08S14.76,7.52,14.07,7.52Z" transform="translate(551.5 7706)" fill="#908f93"/>
      <path id="Path_3228" data-name="Path 3228" d="M3.31,4.25H4.83L5.37,1.7H4.2ZM6.16,9h4.76V7.5H9.39V1.85H7.88L5.95,3.66,6.96,4.74l.43-.39a1.351,1.351,0,0,0,.28-.38h.02s-.01.28-.01.55V7.5H6.16Zm5.37-.82a3.446,3.446,0,0,0,2.44.94,2.5,2.5,0,0,0,2.65-2.55,2.3,2.3,0,0,0-2.56-2.35,2.184,2.184,0,0,0-.52.07h-.02a1.17,1.17,0,0,0,.04-.28l.04-.66h2.48V1.85h-4l-.29,3.74.93.35a2.081,2.081,0,0,1,.96-.24c.65,0,1.14.33,1.14.89a.926.926,0,0,1-1,.88,2.358,2.358,0,0,1-1.45-.64Z" transform="translate(651.5 7706)" fill="#908f93"/>
      <path id="Path_3229" data-name="Path 3229" d="M3.135,4.25h1.52L5.2,1.7H4.025Zm4.61,4.87c2.22,0,3.41-2.03,3.41-3.97,0-2.33-1.46-3.42-2.9-3.42a2.372,2.372,0,0,0-2.44,2.41,2.345,2.345,0,0,0,2.34,2.45,2.011,2.011,0,0,0,.98-.25h.02a1.56,1.56,0,0,1-1.54,1.18,2.724,2.724,0,0,1-.98-.21l-.47,1.5A3.606,3.606,0,0,0,7.745,9.12Zm.87-3.94a1,1,0,0,1-1.08-1.05.749.749,0,0,1,.72-.8,1.326,1.326,0,0,1,1.1,1.42C9.355,5.08,9.015,5.18,8.615,5.18ZM12.175,9h4.76V7.5H15.4V1.85h-1.51l-1.93,1.81,1.01,1.08.43-.39a1.351,1.351,0,0,0,.28-.38h.02s-.01.28-.01.55V7.5h-1.52Z" transform="translate(171.5 7706)" fill="#908f93"/>
      <path id="Path_3230" data-name="Path 3230" d="M2.815,4.25h1.52l.54-2.55H3.705Zm4.61,4.87c2.22,0,3.41-2.03,3.41-3.97,0-2.33-1.46-3.42-2.9-3.42A2.372,2.372,0,0,0,5.5,4.14a2.345,2.345,0,0,0,2.34,2.45,2.011,2.011,0,0,0,.98-.25h.02A1.56,1.56,0,0,1,7.3,7.52a2.724,2.724,0,0,1-.98-.21l-.47,1.5A3.606,3.606,0,0,0,7.425,9.12ZM8.3,5.18a1,1,0,0,1-1.08-1.05.749.749,0,0,1,.72-.8,1.326,1.326,0,0,1,1.1,1.42C9.035,5.08,8.7,5.18,8.3,5.18Zm6.36,3.94a2.372,2.372,0,0,0,2.44-2.41,2.345,2.345,0,0,0-2.34-2.45,2.163,2.163,0,0,0-.98.25h-.02A1.56,1.56,0,0,1,15.3,3.33a2.724,2.724,0,0,1,.98.21l.47-1.5a3.606,3.606,0,0,0-1.58-.31c-2.22,0-3.41,2.03-3.41,3.97C11.755,8.03,13.215,9.12,14.655,9.12Zm0-1.6a1.326,1.326,0,0,1-1.1-1.42c0-.33.34-.43.74-.43a1,1,0,0,1,1.08,1.05A.749.749,0,0,1,14.655,7.52Z" transform="translate(271.5 7706)" fill="#908f93"/>
      <path id="Path_3231" data-name="Path 3231" d="M3.03,4.25H4.55L5.09,1.7H3.92ZM8.52,9.12c2.03,0,2.69-1.66,2.69-3.71s-.66-3.68-2.69-3.68S5.83,3.36,5.83,5.41,6.49,9.12,8.52,9.12Zm0-1.6c-.69,0-.89-.94-.89-2.11s.2-2.08.89-2.08.89.92.89,2.08S9.21,7.52,8.52,7.52ZM12.28,9h4.76V7.5H15.51V1.85H14L12.07,3.66l1.01,1.08.43-.39a1.351,1.351,0,0,0,.28-.38h.02s-.01.28-.01.55V7.5H12.28Z" transform="translate(371.5 7706)" fill="#908f93"/>
      <path id="Path_3232" data-name="Path 3232" d="M2.71,4.25H4.23L4.77,1.7H3.6ZM8.2,9.12c2.03,0,2.69-1.66,2.69-3.71S10.23,1.73,8.2,1.73,5.51,3.36,5.51,5.41,6.17,9.12,8.2,9.12Zm0-1.6c-.69,0-.89-.94-.89-2.11s.2-2.08.89-2.08.89.92.89,2.08S8.89,7.52,8.2,7.52Zm6.56,1.6A2.372,2.372,0,0,0,17.2,6.71a2.345,2.345,0,0,0-2.34-2.45,2.163,2.163,0,0,0-.98.25h-.02A1.56,1.56,0,0,1,15.4,3.33a2.724,2.724,0,0,1,.98.21l.47-1.5a3.606,3.606,0,0,0-1.58-.31c-2.22,0-3.41,2.03-3.41,3.97C11.86,8.03,13.32,9.12,14.76,9.12Zm0-1.6a1.326,1.326,0,0,1-1.1-1.42c0-.33.34-.43.74-.43a1,1,0,0,1,1.08,1.05A.749.749,0,0,1,14.76,7.52Z" transform="translate(471.5 7706)" fill="#908f93"/>
      <path id="Path_3233" data-name="Path 3233" d="M3.455,4.25h1.52l.54-2.55H4.345ZM6.3,9h4.76V7.5H9.535V1.85H8.025L6.095,3.66l1.01,1.08.43-.39a1.351,1.351,0,0,0,.28-.38h.02s-.01.28-.01.55V7.5H6.3Zm5.55,0h4.76V7.5h-1.53V1.85h-1.51l-1.93,1.81,1.01,1.08.43-.39a1.351,1.351,0,0,0,.28-.38h.02s-.01.28-.01.55V7.5h-1.52Z" transform="translate(571.5 7706)" fill="#908f93"/>
      <path id="Path_3234" data-name="Path 3234" d="M3.135,4.25h1.52L5.2,1.7H4.025ZM5.985,9h4.76V7.5H9.215V1.85H7.7L5.775,3.66l1.01,1.08.43-.39a1.351,1.351,0,0,0,.28-.38h.02s-.01.28-.01.55V7.5H5.985Zm8.35.12a2.372,2.372,0,0,0,2.44-2.41,2.345,2.345,0,0,0-2.34-2.45,2.163,2.163,0,0,0-.98.25h-.02a1.56,1.56,0,0,1,1.54-1.18,2.724,2.724,0,0,1,.98.21l.47-1.5a3.606,3.606,0,0,0-1.58-.31c-2.22,0-3.41,2.03-3.41,3.97C11.435,8.03,12.9,9.12,14.335,9.12Zm0-1.6a1.326,1.326,0,0,1-1.1-1.42c0-.33.34-.43.74-.43a1,1,0,0,1,1.08,1.05A.749.749,0,0,1,14.335,7.52Z" transform="translate(671.5 7706)" fill="#908f93"/>
      <path id="Path_3235" data-name="Path 3235" d="M2.9,4.25h1.52l.54-2.55H3.8Zm4.61,4.87c2.22,0,3.41-2.03,3.41-3.97,0-2.33-1.46-3.42-2.9-3.42a2.372,2.372,0,0,0-2.44,2.41,2.345,2.345,0,0,0,2.34,2.45,2.011,2.011,0,0,0,.98-.25h.02a1.56,1.56,0,0,1-1.54,1.18,2.724,2.724,0,0,1-.98-.21l-.47,1.5A3.606,3.606,0,0,0,7.515,9.12Zm.87-3.94A1,1,0,0,1,7.3,4.13a.749.749,0,0,1,.72-.8,1.326,1.326,0,0,1,1.1,1.42C9.125,5.08,8.785,5.18,8.385,5.18ZM11.945,9H16.9V7.5h-3.04c.05-.92,2.93-1.35,2.93-3.58a2.231,2.231,0,0,0-2.44-2.19,2.757,2.757,0,0,0-2.52,1.54l1.3.87s.38-.76,1.06-.76a.706.706,0,0,1,.77.71c0,1.03-3.09,1.5-3.09,4.14A4.381,4.381,0,0,0,11.945,9Z" transform="translate(191.5 7706)" fill="#908f93"/>
      <path id="Path_3236" data-name="Path 3236" d="M3.075,4.25H4.6l.54-2.55H3.965Zm4.61,4.87c2.22,0,3.41-2.03,3.41-3.97,0-2.33-1.46-3.42-2.9-3.42a2.372,2.372,0,0,0-2.44,2.41,2.345,2.345,0,0,0,2.34,2.45,2.011,2.011,0,0,0,.98-.25h.02a1.56,1.56,0,0,1-1.54,1.18,2.724,2.724,0,0,1-.98-.21L6.1,8.81A3.606,3.606,0,0,0,7.685,9.12Zm.87-3.94a1,1,0,0,1-1.08-1.05.749.749,0,0,1,.72-.8A1.326,1.326,0,0,1,9.3,4.75C9.3,5.08,8.955,5.18,8.555,5.18ZM12.2,9h1.82l3-5.93V1.85H11.9v1.5h2.82a2,2,0,0,0,.46-.03v.02a2,2,0,0,0-.46.65Z" transform="translate(291.5 7706)" fill="#908f93"/>
      <path id="Path_3237" data-name="Path 3237" d="M2.8,4.25H4.32L4.86,1.7H3.69ZM8.29,9.12c2.03,0,2.69-1.66,2.69-3.71s-.66-3.68-2.69-3.68S5.6,3.36,5.6,5.41,6.26,9.12,8.29,9.12Zm0-1.6c-.69,0-.89-.94-.89-2.11s.2-2.08.89-2.08.89.92.89,2.08S8.98,7.52,8.29,7.52ZM12.05,9H17V7.5H13.96c.05-.92,2.93-1.35,2.93-3.58a2.231,2.231,0,0,0-2.44-2.19,2.757,2.757,0,0,0-2.52,1.54l1.3.87s.38-.76,1.06-.76a.706.706,0,0,1,.77.71c0,1.03-3.09,1.5-3.09,4.14A4.381,4.381,0,0,0,12.05,9Z" transform="translate(391.5 7706)" fill="#908f93"/>
      <path id="Path_3238" data-name="Path 3238" d="M2.97,4.25H4.49L5.03,1.7H3.86ZM8.46,9.12c2.03,0,2.69-1.66,2.69-3.71s-.66-3.68-2.69-3.68S5.77,3.36,5.77,5.41,6.43,9.12,8.46,9.12Zm0-1.6c-.69,0-.89-.94-.89-2.11s.2-2.08.89-2.08.89.92.89,2.08S9.15,7.52,8.46,7.52ZM12.31,9h1.82l3-5.93V1.85H12v1.5h2.82a2,2,0,0,0,.46-.03v.02a2,2,0,0,0-.46.65Z" transform="translate(491.5 7706)" fill="#908f93"/>
      <path id="Path_3239" data-name="Path 3239" d="M3.225,4.25h1.52l.54-2.55H4.115ZM6.075,9h4.76V7.5H9.3V1.85H7.795L5.865,3.66l1.01,1.08.43-.39a1.351,1.351,0,0,0,.28-.38H7.6s-.01.28-.01.55V7.5H6.075Zm5.55,0h4.95V7.5h-3.04c.05-.92,2.93-1.35,2.93-3.58a2.231,2.231,0,0,0-2.44-2.19,2.757,2.757,0,0,0-2.52,1.54l1.3.87s.38-.76,1.06-.76a.706.706,0,0,1,.77.71c0,1.03-3.09,1.5-3.09,4.14A4.381,4.381,0,0,0,11.625,9Z" transform="translate(591.5 7706)" fill="#908f93"/>
      <path id="Path_3240" data-name="Path 3240" d="M3.395,4.25h1.52l.54-2.55H4.285ZM6.245,9H11V7.5H9.475V1.85H7.965L6.035,3.66l1.01,1.08.43-.39a1.351,1.351,0,0,0,.28-.38h.02s-.01.28-.01.55V7.5H6.245Zm5.64,0h1.82l3-5.93V1.85h-5.13v1.5H14.4a2,2,0,0,0,.46-.03v.02a2,2,0,0,0-.46.65Z" transform="translate(691.5 7706)" fill="#908f93"/>
      <path id="Path_3241" data-name="Path 3241" d="M2.975,4.25h1.52l.54-2.55H3.865Zm4.61,4.87C9.805,9.12,11,7.09,11,5.15c0-2.33-1.46-3.42-2.9-3.42a2.372,2.372,0,0,0-2.44,2.41A2.345,2.345,0,0,0,8,6.59a2.011,2.011,0,0,0,.98-.25H9a1.56,1.56,0,0,1-1.54,1.18,2.724,2.724,0,0,1-.98-.21l-.47,1.5A3.606,3.606,0,0,0,7.585,9.12Zm.87-3.94a1,1,0,0,1-1.08-1.05.749.749,0,0,1,.72-.8A1.326,1.326,0,0,1,9.2,4.75C9.2,5.08,8.855,5.18,8.455,5.18Zm3.3,3a3.39,3.39,0,0,0,2.44.94,2.431,2.431,0,0,0,2.65-2.44,2.1,2.1,0,0,0-1.73-2.07l1.45-1.67V1.85h-4.51v1.5h1.71a3.562,3.562,0,0,0,.68-.05v.02a7.779,7.779,0,0,0-.62.67l-.94,1.13.37.85h.5c.77,0,1.33.23,1.33.79,0,.39-.37.71-1.02.71a2.338,2.338,0,0,1-1.47-.64Z" transform="translate(211.5 7706)" fill="#908f93"/>
      <path id="Path_3242" data-name="Path 3242" d="M2.8,4.25h1.52l.54-2.55H3.685ZM7.4,9.12c2.22,0,3.41-2.03,3.41-3.97,0-2.33-1.46-3.42-2.9-3.42a2.372,2.372,0,0,0-2.44,2.41,2.345,2.345,0,0,0,2.34,2.45,2.011,2.011,0,0,0,.98-.25h.02a1.56,1.56,0,0,1-1.54,1.18,2.724,2.724,0,0,1-.98-.21l-.47,1.5A3.606,3.606,0,0,0,7.4,9.12Zm.87-3.94a1,1,0,0,1-1.08-1.05.749.749,0,0,1,.72-.8,1.326,1.326,0,0,1,1.1,1.42C9.015,5.08,8.675,5.18,8.275,5.18Zm3.44,1.72a2.351,2.351,0,0,0,2.65,2.22c1.77,0,2.65-1.09,2.65-2.18a1.745,1.745,0,0,0-.84-1.51,3.023,3.023,0,0,0,.7-1.63,2.153,2.153,0,0,0-2.42-2.07,2.105,2.105,0,0,0-2.4,2.06,1.738,1.738,0,0,0,.65,1.37A2.392,2.392,0,0,0,11.715,6.9Zm3.51-.05c0,.47-.33.73-.86.73a.841.841,0,0,1-.86-.83,1.286,1.286,0,0,1,.38-.87C14.585,6.2,15.225,6.44,15.225,6.85Zm-1.46-3.02c0-.31.2-.56.65-.56a.658.658,0,0,1,.75.66,1.8,1.8,0,0,1-.25.88C14.285,4.54,13.765,4.3,13.765,3.83Z" transform="translate(311.5 7706)" fill="#908f93"/>
      <path id="Path_3243" data-name="Path 3243" d="M2.87,4.25H4.39L4.93,1.7H3.76ZM8.36,9.12c2.03,0,2.69-1.66,2.69-3.71s-.66-3.68-2.69-3.68S5.67,3.36,5.67,5.41,6.33,9.12,8.36,9.12Zm0-1.6c-.69,0-.89-.94-.89-2.11s.2-2.08.89-2.08.89.92.89,2.08S9.05,7.52,8.36,7.52Zm3.5.66a3.39,3.39,0,0,0,2.44.94,2.431,2.431,0,0,0,2.65-2.44,2.1,2.1,0,0,0-1.73-2.07l1.45-1.67V1.85H12.16v1.5h1.71a3.562,3.562,0,0,0,.68-.05v.02a7.779,7.779,0,0,0-.62.67l-.94,1.13.37.85h.5c.77,0,1.33.23,1.33.79,0,.39-.37.71-1.02.71a2.338,2.338,0,0,1-1.47-.64Z" transform="translate(411.5 7706)" fill="#908f93"/>
      <path id="Path_3244" data-name="Path 3244" d="M2.69,4.25H4.21L4.75,1.7H3.58ZM8.18,9.12c2.03,0,2.69-1.66,2.69-3.71s-.66-3.68-2.69-3.68S5.49,3.36,5.49,5.41,6.15,9.12,8.18,9.12Zm0-1.6c-.69,0-.89-.94-.89-2.11s.2-2.08.89-2.08.89.92.89,2.08S8.87,7.52,8.18,7.52Zm3.64-.62a2.351,2.351,0,0,0,2.65,2.22c1.77,0,2.65-1.09,2.65-2.18a1.745,1.745,0,0,0-.84-1.51,3.023,3.023,0,0,0,.7-1.63,2.153,2.153,0,0,0-2.42-2.07,2.105,2.105,0,0,0-2.4,2.06,1.738,1.738,0,0,0,.65,1.37A2.392,2.392,0,0,0,11.82,6.9Zm3.51-.05c0,.47-.33.73-.86.73a.841.841,0,0,1-.86-.83,1.286,1.286,0,0,1,.38-.87C14.69,6.2,15.33,6.44,15.33,6.85ZM13.87,3.83c0-.31.2-.56.65-.56a.658.658,0,0,1,.75.66,1.8,1.8,0,0,1-.25.88C14.39,4.54,13.87,4.3,13.87,3.83Z" transform="translate(511.5 7706)" fill="#908f93"/>
      <path id="Path_3245" data-name="Path 3245" d="M3.295,4.25h1.52l.54-2.55H4.185ZM6.145,9h4.76V7.5H9.375V1.85H7.865L5.935,3.66l1.01,1.08.43-.39a1.351,1.351,0,0,0,.28-.38h.02s-.01.28-.01.55V7.5H6.145Zm5.29-.82a3.39,3.39,0,0,0,2.44.94,2.431,2.431,0,0,0,2.65-2.44A2.1,2.1,0,0,0,14.8,4.61l1.45-1.67V1.85h-4.51v1.5h1.71a3.562,3.562,0,0,0,.68-.05v.02a7.779,7.779,0,0,0-.62.67l-.94,1.13.37.85h.5c.77,0,1.33.23,1.33.79,0,.39-.37.71-1.02.71a2.338,2.338,0,0,1-1.47-.64Z" transform="translate(611.5 7706)" fill="#908f93"/>
      <path id="Path_3246" data-name="Path 3246" d="M3.115,4.25h1.52l.54-2.55H4.005ZM5.965,9h4.76V7.5H9.195V1.85H7.685L5.755,3.66l1.01,1.08.43-.39a1.351,1.351,0,0,0,.28-.38h.02s-.01.28-.01.55V7.5H5.965Zm5.43-2.1a2.351,2.351,0,0,0,2.65,2.22c1.77,0,2.65-1.09,2.65-2.18a1.745,1.745,0,0,0-.84-1.51,3.023,3.023,0,0,0,.7-1.63,2.153,2.153,0,0,0-2.42-2.07,2.105,2.105,0,0,0-2.4,2.06,1.738,1.738,0,0,0,.65,1.37A2.392,2.392,0,0,0,11.395,6.9Zm3.51-.05c0,.47-.33.73-.86.73a.841.841,0,0,1-.86-.83,1.286,1.286,0,0,1,.38-.87C14.265,6.2,14.9,6.44,14.9,6.85Zm-1.46-3.02c0-.31.2-.56.65-.56a.658.658,0,0,1,.75.66,1.8,1.8,0,0,1-.25.88C13.965,4.54,13.445,4.3,13.445,3.83Z" transform="translate(711.5 7706)" fill="#908f93"/>
      <path id="Path_3247" data-name="Path 3247" d="M2.69,4.25H4.21L4.75,1.7H3.58ZM7.3,9.12c2.22,0,3.41-2.03,3.41-3.97,0-2.33-1.46-3.42-2.9-3.42A2.372,2.372,0,0,0,5.37,4.14,2.345,2.345,0,0,0,7.71,6.59a2.011,2.011,0,0,0,.98-.25h.02A1.56,1.56,0,0,1,7.17,7.52a2.724,2.724,0,0,1-.98-.21l-.47,1.5A3.606,3.606,0,0,0,7.3,9.12Zm.87-3.94A1,1,0,0,1,7.09,4.13a.749.749,0,0,1,.72-.8,1.326,1.326,0,0,1,1.1,1.42C8.91,5.08,8.57,5.18,8.17,5.18Zm3.26,2.09H14.6V9h1.73V7.27h.85V5.82h-.85V1.85H14.19L11.43,6.21Zm1.78-1.45V5.8l1.08-1.64a3.81,3.81,0,0,0,.35-.74h.02a6.39,6.39,0,0,0-.06.8v1.6Z" transform="translate(231.5 7706)" fill="#908f93"/>
      <path id="Path_3248" data-name="Path 3248" d="M2.815,4.25h1.52l.54-2.55H3.705Zm4.61,4.87c2.22,0,3.41-2.03,3.41-3.97,0-2.33-1.46-3.42-2.9-3.42A2.372,2.372,0,0,0,5.5,4.14a2.345,2.345,0,0,0,2.34,2.45,2.011,2.011,0,0,0,.98-.25h.02A1.56,1.56,0,0,1,7.3,7.52a2.724,2.724,0,0,1-.98-.21l-.47,1.5A3.606,3.606,0,0,0,7.425,9.12ZM8.3,5.18a1,1,0,0,1-1.08-1.05.749.749,0,0,1,.72-.8,1.326,1.326,0,0,1,1.1,1.42C9.035,5.08,8.7,5.18,8.3,5.18Zm5.32,3.94c2.22,0,3.41-2.03,3.41-3.97,0-2.33-1.46-3.42-2.9-3.42a2.372,2.372,0,0,0-2.44,2.41,2.345,2.345,0,0,0,2.34,2.45,2.011,2.011,0,0,0,.98-.25h.02a1.56,1.56,0,0,1-1.54,1.18,2.724,2.724,0,0,1-.98-.21l-.47,1.5A3.606,3.606,0,0,0,13.615,9.12Zm.87-3.94A1,1,0,0,1,13.4,4.13a.749.749,0,0,1,.72-.8,1.326,1.326,0,0,1,1.1,1.42C15.225,5.08,14.885,5.18,14.485,5.18Z" transform="translate(331.5 7706)" fill="#908f93"/>
      <path id="Path_3249" data-name="Path 3249" d="M2.585,4.25h1.52l.54-2.55H3.475Zm5.49,4.87c2.03,0,2.69-1.66,2.69-3.71s-.66-3.68-2.69-3.68-2.69,1.63-2.69,3.68S6.045,9.12,8.075,9.12Zm0-1.6c-.69,0-.89-.94-.89-2.11s.2-2.08.89-2.08.89.92.89,2.08S8.765,7.52,8.075,7.52Zm3.46-.25H14.7V9h1.73V7.27h.85V5.82h-.85V1.85H14.3l-2.76,4.36Zm1.78-1.45V5.8l1.08-1.64a3.81,3.81,0,0,0,.35-.74h.02a6.39,6.39,0,0,0-.06.8v1.6Z" transform="translate(431.5 7706)" fill="#908f93"/>
      <path id="Path_3250" data-name="Path 3250" d="M2.71,4.25H4.23L4.77,1.7H3.6ZM8.2,9.12c2.03,0,2.69-1.66,2.69-3.71S10.23,1.73,8.2,1.73,5.51,3.36,5.51,5.41,6.17,9.12,8.2,9.12Zm0-1.6c-.69,0-.89-.94-.89-2.11s.2-2.08.89-2.08.89.92.89,2.08S8.89,7.52,8.2,7.52Zm5.52,1.6c2.22,0,3.41-2.03,3.41-3.97,0-2.33-1.46-3.42-2.9-3.42a2.372,2.372,0,0,0-2.44,2.41,2.345,2.345,0,0,0,2.34,2.45,2.011,2.011,0,0,0,.98-.25h.02a1.56,1.56,0,0,1-1.54,1.18,2.724,2.724,0,0,1-.98-.21l-.47,1.5A3.606,3.606,0,0,0,13.72,9.12Zm.87-3.94a1,1,0,0,1-1.08-1.05.749.749,0,0,1,.72-.8,1.326,1.326,0,0,1,1.1,1.42C15.33,5.08,14.99,5.18,14.59,5.18Z" transform="translate(531.5 7706)" fill="#908f93"/>
      <path id="Path_3251" data-name="Path 3251" d="M3.01,4.25H4.53L5.07,1.7H3.9ZM5.86,9h4.76V7.5H9.09V1.85H7.58L5.65,3.66,6.66,4.74l.43-.39a1.351,1.351,0,0,0,.28-.38h.02s-.01.28-.01.55V7.5H5.86Zm5.25-1.73h3.17V9h1.73V7.27h.85V5.82h-.85V1.85H13.87L11.11,6.21Zm1.78-1.45V5.8l1.08-1.64a3.81,3.81,0,0,0,.35-.74h.02a6.39,6.39,0,0,0-.06.8v1.6Z" transform="translate(631.5 7706)" fill="#908f93"/>
      <path id="Path_3252" data-name="Path 3252" d="M3.135,4.25h1.52L5.2,1.7H4.025ZM5.985,9h4.76V7.5H9.215V1.85H7.7L5.775,3.66l1.01,1.08.43-.39a1.351,1.351,0,0,0,.28-.38h.02s-.01.28-.01.55V7.5H5.985Zm7.31.12c2.22,0,3.41-2.03,3.41-3.97,0-2.33-1.46-3.42-2.9-3.42a2.372,2.372,0,0,0-2.44,2.41A2.345,2.345,0,0,0,13.7,6.59a2.011,2.011,0,0,0,.98-.25h.02a1.56,1.56,0,0,1-1.54,1.18,2.724,2.724,0,0,1-.98-.21l-.47,1.5A3.606,3.606,0,0,0,13.3,9.12Zm.87-3.94a1,1,0,0,1-1.08-1.05.749.749,0,0,1,.72-.8,1.326,1.326,0,0,1,1.1,1.42C14.905,5.08,14.565,5.18,14.165,5.18Z" transform="translate(731.5 7706)" fill="#908f93"/>
      <path id="Path_3221" data-name="Path 3221" d="M1.628,15.214c0,3.542,2.6,6.05,6.6,6.05,3.96,0,6.556-2.508,6.556-6.05V5.27h-3.85v9.944a2.416,2.416,0,0,1-2.728,2.53,2.416,2.416,0,0,1-2.728-2.53V5.27H1.628ZM17.754,21H21.56V15.984a4.55,4.55,0,0,1,.22-1.5,2.23,2.23,0,0,1,2.244-1.628c.836,0,1.254.44,1.254,1.5V21h3.806V13.652c0-3.19-1.782-4.246-4.07-4.246a4,4,0,0,0-3.608,1.958h-.044a6,6,0,0,0,.044-.7V9.67H17.754ZM31.79,8.24h3.718V5.27H31.79ZM31.746,21h3.806V9.67H31.746Zm7.194-4.18c0,3.806,3.5,4.29,5.3,4.29a7.325,7.325,0,0,0,1.034-.066v-3.3s-.2.022-.506.022c-.726,0-2.024-.176-2.024-1.452V12.838h2.376V9.868H42.746V6.612h-3.7V9.868H37.488v2.97H38.94Zm7.744-1.5a5.876,5.876,0,0,0,6.226,5.94,7.651,7.651,0,0,0,4.84-1.65l-1.408-2.662A5.94,5.94,0,0,1,53.218,18.1a2.53,2.53,0,0,1-2.64-2.024h7.15s.088-.814.088-1.188c0-3.146-1.892-5.478-5.236-5.478A5.64,5.64,0,0,0,46.684,15.324Zm3.982-1.43a1.857,1.857,0,0,1,1.826-1.628,1.542,1.542,0,0,1,1.5,1.628Zm8.448,1.43c0,3.52,2.024,5.94,5.1,5.94a3.784,3.784,0,0,0,3.278-1.65h.044s-.022.286-.022.638V21h3.564V5.27H67.276V9.8c0,.286.022.506.022.506h-.044s-.682-.9-2.97-.9C61.27,9.406,59.114,11.738,59.114,15.324Zm3.828,0c0-1.738,1.034-2.706,2.222-2.706,1.5,0,2.222,1.342,2.222,2.706,0,1.958-1.078,2.794-2.222,2.794C63.844,18.118,62.942,17.018,62.942,15.324Zm15.268,3.7a8.121,8.121,0,0,0,5.742,2.244c3.542,0,5.544-2.266,5.544-4.884,0-4.972-7.084-4.62-7.084-6.6,0-.88.88-1.232,1.672-1.232A6,6,0,0,1,87.56,9.934l1.628-3.146a7.135,7.135,0,0,0-5.06-1.782c-3.124,0-5.566,1.914-5.566,4.818,0,4.84,7.084,4.774,7.084,6.644,0,.946-.858,1.254-1.65,1.254a6.518,6.518,0,0,1-3.762-1.628Zm14.058-2.2c0,3.806,3.5,4.29,5.3,4.29a7.325,7.325,0,0,0,1.034-.066v-3.3s-.2.022-.506.022c-.726,0-2.024-.176-2.024-1.452V12.838H98.45V9.868H96.074V6.612h-3.7V9.868H90.816v2.97h1.452Zm7.7.792a3.624,3.624,0,0,0,3.85,3.652,3.526,3.526,0,0,0,3.212-1.65h.044a6,6,0,0,0-.044.7V21h3.476V14.026c0-2.882-1.914-4.62-5.1-4.62a8.569,8.569,0,0,0-4.752,1.474l1.32,2.684a6.762,6.762,0,0,1,3.058-1.078c.946,0,1.672.308,1.672,1.254v.2h-.154C104.786,13.938,99.968,14.312,99.968,17.612Zm3.828-.2c0-.946,1.386-1.3,2.6-1.3h.352v.242a2.1,2.1,0,0,1-1.87,2C104.126,18.36,103.8,17.942,103.8,17.414Zm9.922-.594c0,3.806,3.5,4.29,5.3,4.29a7.325,7.325,0,0,0,1.034-.066v-3.3s-.2.022-.506.022c-.726,0-2.024-.176-2.024-1.452V12.838H119.9V9.868h-2.376V6.612h-3.7V9.868h-1.562v2.97h1.452Zm7.744-1.5a5.876,5.876,0,0,0,6.226,5.94,7.651,7.651,0,0,0,4.84-1.65l-1.408-2.662A5.94,5.94,0,0,1,128,18.1a2.53,2.53,0,0,1-2.64-2.024h7.15s.088-.814.088-1.188c0-3.146-1.892-5.478-5.236-5.478A5.64,5.64,0,0,0,121.462,15.324Zm3.982-1.43a1.857,1.857,0,0,1,1.826-1.628,1.542,1.542,0,0,1,1.5,1.628Zm8.338,5.7a6.823,6.823,0,0,0,4.532,1.672c2.926,0,4.642-1.65,4.642-3.586,0-3.652-5.3-3.784-5.3-4.642,0-.4.55-.55,1.122-.55a4.525,4.525,0,0,1,2.684.924l1.3-2.706a5.931,5.931,0,0,0-3.982-1.3c-2.618,0-4.664,1.32-4.664,3.454,0,3.7,5.3,3.806,5.3,4.8,0,.374-.55.528-1.122.528a4.768,4.768,0,0,1-2.882-1.144Zm15.664-6.49c0,5.148,3.7,8.162,7.722,8.162A6.518,6.518,0,0,0,161.3,19.9h.044s-.022.33-.022.66V21h3.212V12.112h-5.632V15.39h2.222V16.6a5.384,5.384,0,0,1-3.19,1.144,4.464,4.464,0,0,1-4.51-4.774c0-2.332,1.342-4.444,4.642-4.444A6.26,6.26,0,0,1,161.9,9.978L163.746,7.1a8.688,8.688,0,0,0-6.05-2.09A7.963,7.963,0,0,0,149.446,13.1Zm18,7.9h5.588c4.95,0,8.118-2.948,8.118-7.9S177.98,5.27,173.03,5.27h-5.588Zm3.85-3.3V8.57h1.584c2.6,0,4.29,1.54,4.29,4.532,0,3.014-1.628,4.6-4.29,4.6ZM183.854,21h3.85V16.138h2.684c3.058,0,5.126-2.288,5.126-5.456s-2.068-5.412-5.126-5.412h-6.534Zm3.85-8.162V8.57h1.958a1.865,1.865,0,0,1,1.936,2.112,1.915,1.915,0,0,1-2,2.156ZM204.864,21h4.642l3.85-11.33H209.33L207.592,15.7c-.22.748-.418,1.958-.418,1.958h-.044a19.344,19.344,0,0,0-.418-1.958l-1.76-6.028h-4Zm9.02-1.408a6.823,6.823,0,0,0,4.532,1.672c2.926,0,4.642-1.65,4.642-3.586,0-3.652-5.3-3.784-5.3-4.642,0-.4.55-.55,1.122-.55a4.525,4.525,0,0,1,2.684.924l1.3-2.706a5.931,5.931,0,0,0-3.982-1.3c-2.618,0-4.664,1.32-4.664,3.454,0,3.7,5.3,3.806,5.3,4.8,0,.374-.55.528-1.122.528a4.768,4.768,0,0,1-2.882-1.144ZM230.6,21h3.85V13.674c0-.99-.176-2.684-.176-2.684h.044a28.146,28.146,0,0,0,1.32,2.684L240.02,21h3.872V5.27h-3.85v7.348c0,.99.176,2.684.176,2.684h-.044a28.144,28.144,0,0,0-1.32-2.684L234.5,5.27H230.6Zm15.686-3.388a3.624,3.624,0,0,0,3.85,3.652,3.526,3.526,0,0,0,3.212-1.65h.044a5.994,5.994,0,0,0-.044.7V21h3.476V14.026c0-2.882-1.914-4.62-5.1-4.62a8.569,8.569,0,0,0-4.752,1.474l1.32,2.684a6.762,6.762,0,0,1,3.058-1.078c.946,0,1.672.308,1.672,1.254v.2h-.154C251.108,13.938,246.29,14.312,246.29,17.612Zm3.828-.2c0-.946,1.386-1.3,2.6-1.3h.352v.242a2.1,2.1,0,0,1-1.87,2C250.448,18.36,250.118,17.942,250.118,17.414Zm9.922-.594c0,3.806,3.5,4.29,5.3,4.29a7.324,7.324,0,0,0,1.034-.066v-3.3s-.2.022-.506.022c-.726,0-2.024-.176-2.024-1.452V12.838h2.376V9.868h-2.376V6.612h-3.7V9.868h-1.562v2.97h1.452Zm8.6-8.58h3.718V5.27h-3.718ZM268.6,21H272.4V9.67H268.6Zm5.786-5.632c0,3.542,2.86,5.9,6.424,5.9s6.424-2.354,6.424-5.9c0-3.564-2.86-5.962-6.446-5.962C277.244,9.406,274.384,11.8,274.384,15.368Zm3.85,0a2.583,2.583,0,1,1,5.148,0,2.578,2.578,0,1,1-5.148,0ZM289.212,21h3.806V15.984a4.55,4.55,0,0,1,.22-1.5,2.23,2.23,0,0,1,2.244-1.628c.836,0,1.254.44,1.254,1.5V21h3.806V13.652c0-3.19-1.782-4.246-4.07-4.246a4,4,0,0,0-3.608,1.958h-.044a5.994,5.994,0,0,0,.044-.7V9.67h-3.652Zm13.134-3.388a3.624,3.624,0,0,0,3.85,3.652,3.526,3.526,0,0,0,3.212-1.65h.044a5.994,5.994,0,0,0-.044.7V21h3.476V14.026c0-2.882-1.914-4.62-5.1-4.62a8.569,8.569,0,0,0-4.752,1.474l1.32,2.684a6.762,6.762,0,0,1,3.058-1.078c.946,0,1.672.308,1.672,1.254v.2h-.154C307.164,13.938,302.346,14.312,302.346,17.612Zm3.828-.2c0-.946,1.386-1.3,2.6-1.3h.352v.242a2.1,2.1,0,0,1-1.87,2C306.5,18.36,306.174,17.942,306.174,17.414Zm9.2-.594c0,3.806,2.156,4.29,4.18,4.29a10.348,10.348,0,0,0,1.144-.066v-3.3s-.22.022-.462.022c-.858,0-1.056-.374-1.056-1.452V5.27H315.37ZM328.108,21H333.7c4.95,0,8.118-2.948,8.118-7.9S338.646,5.27,333.7,5.27h-5.588Zm3.85-3.3V8.57h1.584c2.6,0,4.29,1.54,4.29,4.532,0,3.014-1.628,4.6-4.29,4.6Zm11.308-2.376a5.876,5.876,0,0,0,6.226,5.94,7.651,7.651,0,0,0,4.84-1.65l-1.408-2.662A5.94,5.94,0,0,1,349.8,18.1a2.53,2.53,0,0,1-2.64-2.024h7.15s.088-.814.088-1.188c0-3.146-1.892-5.478-5.236-5.478A5.64,5.64,0,0,0,343.266,15.324Zm3.982-1.43a1.857,1.857,0,0,1,1.826-1.628,1.542,1.542,0,0,1,1.5,1.628ZM356.466,21h3.564v-.374c0-.352-.022-.638-.022-.638h.044a4.05,4.05,0,0,0,3.1,1.276c3.014,0,5.28-2.332,5.28-5.918,0-3.52-2.024-5.94-5.1-5.94a4.209,4.209,0,0,0-3.058,1.21h-.044s.044-.4.044-.968V5.27h-3.806Zm3.7-5.588c0-1.958,1.078-2.794,2.222-2.794,1.32,0,2.222,1.1,2.222,2.794,0,1.738-1.034,2.706-2.222,2.706C360.888,18.118,360.162,16.776,360.162,15.412Zm10.89,1.408c0,3.806,3.5,4.29,5.3,4.29a7.324,7.324,0,0,0,1.034-.066v-3.3s-.2.022-.506.022c-.726,0-2.024-.176-2.024-1.452V12.838h2.376V9.868h-2.376V6.612h-3.7V9.868H369.6v2.97h1.452Zm16.192,6.27h3.124a20.947,20.947,0,0,1-2.486-9.724A17.31,17.31,0,0,1,390.368,4.5h-3.124a16.242,16.242,0,0,0-2.728,8.866A18.185,18.185,0,0,0,387.244,23.09Zm4.62-2.09h10.472V17.7H398.97V5.27h-3.322L391.4,9.252l2.222,2.376.946-.858a2.972,2.972,0,0,0,.616-.836h.044s-.022.616-.022,1.21V17.7h-3.344Zm16.082.264c4.884,0,7.5-4.466,7.5-8.734,0-5.126-3.212-7.524-6.38-7.524a5.218,5.218,0,0,0-5.368,5.3,5.16,5.16,0,0,0,5.148,5.39,4.423,4.423,0,0,0,2.156-.55h.044a3.432,3.432,0,0,1-3.388,2.6,5.992,5.992,0,0,1-2.156-.462l-1.034,3.3A7.932,7.932,0,0,0,407.946,21.264ZM409.86,12.6a2.2,2.2,0,0,1-2.376-2.31,1.648,1.648,0,0,1,1.584-1.76c1.1,0,2.42,1.254,2.42,3.124C411.488,12.376,410.74,12.6,409.86,12.6Zm11.7,8.668c4.884,0,7.5-4.466,7.5-8.734,0-5.126-3.212-7.524-6.38-7.524a5.218,5.218,0,0,0-5.368,5.3,5.16,5.16,0,0,0,5.148,5.39,4.423,4.423,0,0,0,2.156-.55h.044a3.432,3.432,0,0,1-3.388,2.6,5.992,5.992,0,0,1-2.156-.462l-1.034,3.3A7.932,7.932,0,0,0,421.564,21.264Zm1.914-8.668a2.2,2.2,0,0,1-2.376-2.31,1.648,1.648,0,0,1,1.584-1.76c1.1,0,2.42,1.254,2.42,3.124C425.106,12.376,424.358,12.6,423.478,12.6Zm13.64,8.668c4.466,0,5.918-3.652,5.918-8.162s-1.452-8.1-5.918-8.1S431.2,8.592,431.2,13.1,432.652,21.264,437.118,21.264Zm0-3.52c-1.518,0-1.958-2.068-1.958-4.642,0-2.552.44-4.576,1.958-4.576s1.958,2.024,1.958,4.576C439.076,15.676,438.636,17.744,437.118,17.744Zm8.514-1.628h13.112v-2.86H445.632ZM461.45,21h10.89V17.7h-6.688c.11-2.024,6.446-2.97,6.446-7.876,0-3.344-2.794-4.818-5.368-4.818a6.066,6.066,0,0,0-5.544,3.388l2.86,1.914s.836-1.672,2.332-1.672a1.554,1.554,0,0,1,1.694,1.562c0,2.266-6.8,3.3-6.8,9.108A9.64,9.64,0,0,0,461.45,21Zm19.03.264c4.466,0,5.918-3.652,5.918-8.162s-1.452-8.1-5.918-8.1-5.918,3.586-5.918,8.1S476.014,21.264,480.48,21.264Zm0-3.52c-1.518,0-1.958-2.068-1.958-4.642,0-2.552.44-4.576,1.958-4.576s1.958,2.024,1.958,4.576C482.438,15.676,482,17.744,480.48,17.744ZM488.752,21h10.472V17.7h-3.366V5.27h-3.322L488.29,9.252l2.222,2.376.946-.858a2.972,2.972,0,0,0,.616-.836h.044s-.022.616-.022,1.21V17.7h-3.344Zm16.082.264c4.884,0,7.5-4.466,7.5-8.734,0-5.126-3.212-7.524-6.38-7.524a5.218,5.218,0,0,0-5.368,5.3,5.16,5.16,0,0,0,5.148,5.39,4.423,4.423,0,0,0,2.156-.55h.044a3.432,3.432,0,0,1-3.388,2.6,5.992,5.992,0,0,1-2.156-.462l-1.034,3.3A7.932,7.932,0,0,0,504.834,21.264Zm1.914-8.668a2.2,2.2,0,0,1-2.376-2.31,1.648,1.648,0,0,1,1.584-1.76c1.1,0,2.42,1.254,2.42,3.124C508.376,12.376,507.628,12.6,506.748,12.6Zm9.988,10.494a18.185,18.185,0,0,0,2.728-9.724A16.242,16.242,0,0,0,516.736,4.5h-3.124a17.309,17.309,0,0,1,2.486,8.866,20.947,20.947,0,0,1-2.486,9.724Z" transform="translate(152 7188)" fill="#908f93"/>
    </g>
    <g id="Group_795" data-name="Group 795">
      <rect id="Rectangle_364" data-name="Rectangle 364" width="12" height="12" transform="translate(-31 7175)" fill="#7d0407"/>
      <path id="Path_3214" data-name="Path 3214" d="M1.152,11H2.34V5.5c0-.48-.084-1.236-.084-1.236H2.28s.4.768.708,1.236L6.768,11H7.932V2.528H6.744V8.036c0,.468.084,1.224.084,1.224H6.8s-.4-.768-.708-1.224L2.328,2.528H1.152ZM9.5,9.3a1.9,1.9,0,0,0,2.064,1.848,2.1,2.1,0,0,0,1.944-1.2h.024a4.556,4.556,0,0,0-.024.48V11h1.08V7.16a2.157,2.157,0,0,0-2.4-2.376,3.809,3.809,0,0,0-2.268.72l.48.852A3.079,3.079,0,0,1,12.1,5.768,1.18,1.18,0,0,1,13.428,7.1v.108h-.264C12.144,7.208,9.5,7.292,9.5,9.3Zm1.176-.06c0-1.092,1.584-1.152,2.46-1.152h.3v.192a1.84,1.84,0,0,1-1.62,1.932A1.017,1.017,0,0,1,10.68,9.236Zm5.868-.456a2.094,2.094,0,0,0,2.328,2.268,3.191,3.191,0,0,0,.408-.024V9.992a1.4,1.4,0,0,1-.276.024,1.207,1.207,0,0,1-1.3-1.368v-2.7h1.464V5.012H17.712V3.26H16.584V5.012h-.828v.936h.792ZM20.58,3.716h1.176V2.528H20.58ZM20.592,11h1.164V4.928H20.592Zm2.544-3.048a3.278,3.278,0,1,0,3.276-3.168A3.18,3.18,0,0,0,23.136,7.952Zm1.188,0a2.089,2.089,0,1,1,4.176,0,2.09,2.09,0,1,1-4.176,0ZM31.068,11h1.164V8.156a2.874,2.874,0,0,1,.1-.816,1.988,1.988,0,0,1,1.92-1.488c.972,0,1.152.672,1.152,1.524V11h1.164V7.112c0-1.548-.66-2.328-2.088-2.328A2.472,2.472,0,0,0,32.2,6.176h-.024a4.26,4.26,0,0,0,.024-.444v-.8H31.068Zm6.744-1.7a1.9,1.9,0,0,0,2.064,1.848,2.1,2.1,0,0,0,1.944-1.2h.024a4.556,4.556,0,0,0-.024.48V11H42.9V7.16a2.157,2.157,0,0,0-2.4-2.376,3.809,3.809,0,0,0-2.268.72l.48.852A3.079,3.079,0,0,1,40.4,5.768,1.18,1.18,0,0,1,41.736,7.1v.108h-.264C40.452,7.208,37.812,7.292,37.812,9.3Zm1.176-.06c0-1.092,1.584-1.152,2.46-1.152h.3v.192a1.84,1.84,0,0,1-1.62,1.932A1.017,1.017,0,0,1,38.988,9.236Zm5.58.108c0,1.524.972,1.7,1.632,1.7a3.27,3.27,0,0,0,.384-.024V9.992a1.853,1.853,0,0,1-.2.012c-.36,0-.648-.132-.648-.864V2.528H44.568ZM51.144,11h2.808a3.959,3.959,0,0,0,4.3-4.248,3.946,3.946,0,0,0-4.3-4.224H51.144Zm1.188-1.032V3.56h1.536a2.918,2.918,0,0,1,3.156,3.192,2.925,2.925,0,0,1-3.156,3.216Zm7.032-2a3.092,3.092,0,0,0,3.216,3.18,3.614,3.614,0,0,0,2.352-.864l-.48-.852a2.9,2.9,0,0,1-1.8.708,1.984,1.984,0,0,1-2.088-2h4.428s.036-.348.036-.5A2.584,2.584,0,0,0,62.4,4.784,2.976,2.976,0,0,0,59.364,7.964ZM60.6,7.256a1.74,1.74,0,0,1,1.776-1.548A1.433,1.433,0,0,1,63.84,7.256ZM66.444,11h1.1v-.444a4.073,4.073,0,0,0-.024-.456h.024a2.183,2.183,0,0,0,1.908,1.044c1.6,0,2.76-1.248,2.76-3.18,0-1.884-1.032-3.18-2.664-3.18a2.144,2.144,0,0,0-1.944,1.032h-.024s.024-.216.024-.516V2.528H66.444Zm1.128-3.012c0-1.548.84-2.184,1.752-2.184,1.008,0,1.716.852,1.716,2.172,0,1.38-.792,2.172-1.752,2.172C68.136,10.148,67.572,9.068,67.572,7.988ZM73.9,8.78a2.094,2.094,0,0,0,2.328,2.268,3.191,3.191,0,0,0,.408-.024V9.992a1.4,1.4,0,0,1-.276.024,1.207,1.207,0,0,1-1.3-1.368v-2.7h1.464V5.012H75.06V3.26H73.932V5.012H73.1v.936H73.9Z" transform="translate(-16 7174)" fill="#908f93"/>
      <rect id="Rectangle_365" data-name="Rectangle 365" width="12" height="12" transform="translate(-31 7153)" fill="#1762a0"/>
      <path id="Path_3213" data-name="Path 3213" d="M1.152,11H2.34V5.5c0-.48-.084-1.236-.084-1.236H2.28s.4.768.708,1.236L6.768,11H7.932V2.528H6.744V8.036c0,.468.084,1.224.084,1.224H6.8s-.4-.768-.708-1.224L2.328,2.528H1.152Zm8.4-3.048a3.18,3.18,0,0,0,3.276,3.192,3.181,3.181,0,1,0,0-6.36A3.167,3.167,0,0,0,9.552,7.952Zm1.188,0a2.089,2.089,0,1,1,4.176,0,2.09,2.09,0,1,1-4.176,0ZM17.484,11h1.164V8.228a3.355,3.355,0,0,1,.072-.792,1.918,1.918,0,0,1,1.74-1.6c.936,0,1.056.732,1.056,1.524V11H22.68V8.228a3.621,3.621,0,0,1,.084-.84,1.892,1.892,0,0,1,1.7-1.548c.912,0,1.08.672,1.08,1.524V11h1.164V7.112c0-1.548-.636-2.328-2-2.328a2.445,2.445,0,0,0-2.16,1.38h-.024A1.657,1.657,0,0,0,20.7,4.784a2.373,2.373,0,0,0-2.088,1.392h-.024a4.26,4.26,0,0,0,.024-.444v-.8H17.484ZM28.44,3.716h1.176V2.528H28.44ZM28.452,11h1.164V4.928H28.452Zm2.988,0H32.6V8.156a2.874,2.874,0,0,1,.1-.816,1.988,1.988,0,0,1,1.92-1.488c.972,0,1.152.672,1.152,1.524V11h1.164V7.112c0-1.548-.66-2.328-2.088-2.328a2.472,2.472,0,0,0-2.28,1.392h-.024a4.259,4.259,0,0,0,.024-.444v-.8H31.44Zm6.744-1.7a1.9,1.9,0,0,0,2.064,1.848,2.1,2.1,0,0,0,1.944-1.2h.024a4.556,4.556,0,0,0-.024.48V11h1.08V7.16a2.157,2.157,0,0,0-2.4-2.376A3.809,3.809,0,0,0,38.6,5.5l.48.852a3.079,3.079,0,0,1,1.692-.588A1.18,1.18,0,0,1,42.108,7.1v.108h-.264C40.824,7.208,38.184,7.292,38.184,9.3Zm1.176-.06c0-1.092,1.584-1.152,2.46-1.152h.3v.192a1.84,1.84,0,0,1-1.62,1.932A1.017,1.017,0,0,1,39.36,9.236Zm5.58.108c0,1.524.972,1.7,1.632,1.7a3.27,3.27,0,0,0,.384-.024V9.992a1.853,1.853,0,0,1-.2.012c-.36,0-.648-.132-.648-.864V2.528H44.94Zm6.012-2.592a4.192,4.192,0,0,0,4.164,4.392,3.65,3.65,0,0,0,2.6-1.032h.024s-.012.18-.012.36V11h1.044V6.74h-2.46V7.772H57.7V9a3.463,3.463,0,0,1-2.4,1.056,3.115,3.115,0,0,1-3.12-3.324,3.086,3.086,0,0,1,3.192-3.264,3.9,3.9,0,0,1,2.388.828l.6-.888a4.608,4.608,0,0,0-3.084-1.02A4.268,4.268,0,0,0,50.952,6.752ZM60.636,11h2.808a3.959,3.959,0,0,0,4.3-4.248,3.946,3.946,0,0,0-4.3-4.224H60.636Zm1.188-1.032V3.56H63.36a2.918,2.918,0,0,1,3.156,3.192A2.925,2.925,0,0,1,63.36,9.968ZM69.516,11H70.7V7.868h1.908A2.558,2.558,0,0,0,75.276,5.18a2.529,2.529,0,0,0-2.664-2.652h-3.1ZM70.7,6.836V3.56h1.728a1.5,1.5,0,0,1,1.632,1.62A1.529,1.529,0,0,1,72.42,6.836Z" transform="translate(-16 7152)" fill="#908f93"/>
    </g>
  </g>
</svg>
