<svg id="Group_716" data-name="Group 716" xmlns="http://www.w3.org/2000/svg" width="149.445" height="149.445" viewBox="0 0 149.445 149.445">
  <g id="Ellipse_67" data-name="Ellipse 67" fill="none" stroke="#efefef" stroke-linecap="square" stroke-linejoin="bevel" stroke-width="2" opacity="0.99" style="isolation: isolate">
    <ellipse cx="74.723" cy="74.723" rx="74.723" ry="74.723" stroke="none"/>
    <ellipse cx="74.723" cy="74.723" rx="73.723" ry="73.723" fill="none"/>
  </g>
  <path id="Path_1829" data-name="Path 1829" d="M4999.381,3509.284v48.645h4.4v-48.645Zm-46.542.156-1.459,4.468h-5.042l4.05,3.1-1.6,5.007,4.051-3.095,4.086,2.988-1.494-4.9,4.015-3.1h-5.08l-1.528-4.468Zm27.578.262v48.491h4.4V3509.7Zm-6.238,5.2v43.029h4.361V3514.9Zm31.665,0v43.029h4.4V3514.9Zm6.273,4.971v35.763h4.4v-35.763Zm-44.283.048v35.75h4.4v-35.75Zm19.035,1.9v36.037h4.409v-36.037Zm6.2,0v36.037h4.312v-36.037Z" transform="translate(-4916.671 -3441.461)" fill="#efefef"/>
  <path id="Path_1830" data-name="Path 1830" d="M4952.566,3360.923l-5.771.765,1.135,8.268,5.89-.764-.106-.92-4.863.609-.3-2.832,4.434-.574-.155-.956-4.469.609-.346-2.676,4.659-.61-.107-.92Zm4.05.036-.105,8.341h1.1l.082-6.572,4.087,6.692h1.266l.12-8.341h-1.075l-.119,6.728-4.017-6.847Zm9.022.191-.145.884,2.713.453-1.11,7.385,1.11.192,1.184-7.337,2.568.382.146-.92-6.466-1.04Zm-22.525,1.111-1.563.466-.227,7.384-4.206-6.046-1.6.418,2.366,7.993,1.146-.311-1.911-6.272,4.05,5.628,1.028-.311.275-6.989,1.911,6.381,1.11-.382-2.377-7.958Zm35.383,2.1-.646.083-.394.108-.527.275-.464.3-.454.347-.5.574-.311.454-.263.621-.228.956-.036.49-.036.883.108.885.191.573.382.609.229.335.31.239.31.263.383.191.646.227.538.155.646.084h.728l.609-.12.957-.418.766-.573.5-.693.348-.538.19-.334.069-.227.086-.239.142-1.063.048-.5-.048-.729-.069-.382-.228-.61-.274-.537-.491-.5-.431-.371-.452-.274-.8-.383-.92-.155Zm-45.395.729-5.977,2.761.431.836,2.559-1.183,3.177,6.728,1.028-.5-3.179-6.729,2.377-1.11-.416-.8Zm45.274.311h.812l.525.072.431.191.262.119.347.264.455.537.312.61.106.263.084.657-.084.992-.19.5-.228.61-.348.537-.382.454-.646.5-.416.227-.312.072-.61.083h-.311l-.571-.156-.156-.083-.49-.263-.419-.3-.274-.239-.228-.383-.191-.334-.034-.312-.119-.418v-1.075l.119-.574.154-.418.19-.346.3-.538.347-.419.5-.382.263-.191.419-.191.383-.072Zm7.73,2.055-3.945,7.349.957.466,1.768-3.3,3.514,1.913.453-.873-3.512-1.876,1.291-2.377,3.943,2.15.454-.8-4.923-2.653Zm-61.657,2.031-.561.119-.467.263-3.562,2.223,4.48,7.038.907-.538-1.981-3.059,2.366-1.458.62-.191h.264l.263.035.275.156.346.311,1.183,1.6.191.191.12.119,1.147-.764-.191-.228h-.228l-.155-.083-.382-.264-.5-.8-.419-.657-.5-.454-.574-.191-.5-.035.238-.43.036-.454v-.263l-.036-.467-.047-.227-.3-.538-.346-.334-.765-.466-.492-.156h-.428Zm.155,1.147.312.035.262.12.192.191.154.155.228.335.07.239v.573l-.142.454-.191.191-.155.191-.119.037-2.4,1.541-1.493-2.342,2.173-1.411.431-.191.385-.083.3-.036Zm70.68,1.912-4.937,6.738.921.646,2.14-3.023,3.44,2.486-2.211,3.022.909.646,4.9-6.727-.886-.646-2.1,2.82-3.357-2.474,2.02-2.832-.837-.656Zm-80.848,3.751-1.04.836,2.916,8.376.991-.837-.92-2.413,2.45-1.948,2.294,1.3.956-.8-7.647-4.517Zm.419,1.494,3.142,1.948-2,1.613-1.146-3.561Zm36.146,2.259-4.4,3.286v33.648h4.4v-36.936Zm14.567.417v36.6H4970v-33.315l-4.431-3.286Zm37.9.263-.573.083-.536.156-.694.3-.107.083-.19.143-.5.431-.536.562-.3.347-.538.956-.19.382-.12.466-.073.347v.574l.036.417.085.347.227.574.189.382.3.335.275.311.416.383.383.3.8.383.8.274.621.036.611-.071.609-.12.19-.12.729-.334.645-.467.349-.382.537-.646.3-.417.31-.658.119-.418.144-.573v-.454l-.071-.574-.12-.347-.191-.538-.153-.346-.3-.419-.453-.49-.693-.622-.61-.262-.536-.191-.609-.12h-.575Zm-94.087.465-.608.157-.3.191-.419.417-2.462,2.94,6.464,5.353.658-.837-2.761-2.257,1.84-2.259.263-.312.121-.418.07-.381-.036-.349-.106-.345-.276-.609-.382-.526-.263-.227-.467-.31-.608-.191-.419-.037h-.31Zm94.124.611h.609l.729.155.573.3.311.275.107.071.384.454.274.538.107.382.081.539v.417l-.152.574-.073.347-.311.538-.263.3-.727.657-.5.418-.729.263-.682.155h-.5l-.609-.071-.575-.228-.31-.311-.229-.227-.118-.072-.334-.5-.191-.454-.155-.466v-.92l.155-.346.3-.8.574-.765.657-.538.682-.418.5-.143.416-.12Zm-93.847.49.334.083.31.156.191.036.264.3.238.418.07.275v.347l-.034.454v.036l-1.8,2.187-2.093-1.8,1.638-2.02.154-.156.073-.071.191-.12.467-.12Zm34.877,2.294-4.325,3.3v34.533h4.325Zm27.376.048v37.819h4.361v-34.533l-4.361-3.286Zm-69.03,2.9-2.748,5.09,7.3,3.931,2.868-5.2-.885-.382-2.283,4.206-2.5-1.338,2.187-3.9-.883-.5-2.139,3.932-2.331-1.291,2.26-4.1Zm108.807.227-4.9,3.37-.261.227-.348.538-.3.539-.119.525v.622l.072.562.346.776.5.764.646.574.693.454.524.155.574.072.5-.072.273-.072.574-.311,4.853-3.37-.61-.919-4.9,3.334-.607.263-.54.036-.19-.036-.5-.156-.335-.263-.274-.226-.333-.467-.193-.347-.119-.334-.036-.622.107-.49.12-.227.334-.419.239-.155,4.889-3.333-.683-.992Zm-73.58,1.338-4.327,3.286v35.38h4.327v-38.667Zm40.232.311v38.546h4.363v-35.3l-4.363-3.25Zm-78.588,6.847-.574.107-.538.155-.418.192-.429.274-.455.454-.3.5-.238.37-1.221,3.107,7.875,2.975,1.183-3.1.191-.884v-.573l-.106-.574-.119-.334-.311-.466-.383-.419-.873-.764-1.337-.681-.694-.191-.646-.155Zm57.9.19-.5.037-.383.035-.5.192-.419.227-.454.346-.538.5-.227.383-.237.417-.146.454-.117.417-.036.575h2.485l-3.441,3.835V3429h9.978v-26.456l-2.594-4.17-.19-.346-.275-.418-.347-.418-.383-.275-.453-.19-.275-.156-.456-.072-.488-.037Zm57.75.347-.538.144-.574.311-.238.156-.263.382-.192.418-.119.681.036.5.538,2.222.12.419-.072.609-.12.31-.228.3-.238.155-.191.083-.335.036h-.273l-.525-.226-.383-.311-.432-.455-.227-.466-.107-.418-.082-.537v-.383l.155-.573.261-.311.432-.454.227-.119-.5-.956-.335.191-.275.19-.453.466-.19.228-.239.573-.145.609v.311l.073.575.19.609.228.622.347.525.383.466.5.418.49.3.537.19.537.12.3-.083.574-.144.309-.156.419-.311.228-.381.239-.419.071-.681-.038-.884-.537-2.45v-.538l.073-.3.191-.312.191-.035.346-.156h.312l.31.084.454.263.263.227.311.382.226.539.193.681-.072.5-.083.31-.071.107-.192.24-.262.226-.155.071.525,1,.347-.239.311-.227.262-.311.155-.3.156-.381.037-.765-.037-.431-.118-.453-.3-.8-.189-.311-.539-.682-.311-.31-.419-.263-.346-.155-.645-.072h-.264Zm-115.656.765h.538l.609.109,1.075.381.489.263.455.347.538.573.189.382.155.418v.239l-.071.418-.919,2.294-5.892-2.187.765-2.055.261-.466.386-.334.38-.239.467-.107.574-.037Zm121.235,7.755-8.041,2.341.275.992,8.029-2.342-.264-.991Zm-120.7,3.25-.272,1.23,1.182.335.347-1.255-1.256-.311Zm-5.593.657-.489.107-.466.191-.454.418-.5.729-.348.885-.035.155-.07.574-.036.453.036.658.07.382.313.525.345.383.575.347.143.071.622.156h.571l.419-.156.346-.263.384-.311.3-.371.777-1.578.194-.489.368-.538.467-.311.335-.156h.152l.467.084.3.155.229.228.189.31.122.3.034.573-.034.347v.418l-.229.574-.191.311-.225.3-.5.347-.311.155-.419.072h-.383l-.227-.072-.228,1.029.646.154h.383l.536-.154.31-.109.528-.345.464-.419.155-.239.419-.836.264-.921.048-.609-.048-.645-.107-.573-.275-.5-.335-.454-.431-.394-.3-.192-.574-.179h-.538l-.227.108-.609.227-.226.12-.467.454-.264.382-.849,1.685-.454.728-.347.419-.154.048-.312.144-.143.047-.156-.047-.311-.144-.3-.19-.157-.275-.19-.263-.084-.383.084-.693.071-.538.155-.347.228-.263.228-.263.238-.191.3-.156.313-.083.3.047.2.037.226-1.028-.275-.083-.574-.072Zm127.631.944-8.221,1.577.226,1.076,6.536-1.267-5.735,5.388.191,1.23,8.256-1.528-.227-1.075-6.607,1.266,5.842-5.317-.262-1.351Zm-124.1,8.389-.12,1.218,1.3.12.072-1.231-1.254-.107Zm98.7.681-1.444,4.517h-5.044l4.088,3.059-1.65,5.007,4.051-3.1,4.1,2.94-1.494-4.852,4.052-3.059h-5.163l-1.494-4.517Zm-105.664.383-.036,1.183,5.928.346.608.191.312.191.3.227.192.275.119.382.155.382v.347l-.036.609-.155.346-.156.346-.227.263-.227.263-.347.19-.383.156-6.345-.383-.036,1.184,5.878.346.694-.036.574-.226.3-.191.467-.383.49-.693.082-.263.264-.849.037-.836-.037-.573-.106-.312-.19-.538-.122-.227-.381-.5-.155-.191-.382-.3-.264-.156-.538-.155-.335-.036-5.938-.382Zm128.727.035-1.6.24-.957.418-.536.335-.611.621-.382.491-.227.5-.156.849-.071.574.107.525.12.622.227.573.611.752.465.466-.955.264.07.8,4.434-.418-.335-3.513-.968.036.239,2.64-.43.036-.682-.036-.275-.155-.524-.263-.191-.191-.418-.5-.084-.191-.264-.681-.082-.466v-.8l.082-.311.192-.454.261-.539.193-.19.383-.311.919-.383,1.11-.191h.8l.347.035.919.312.539.382.335.311.227.347.191.524.155.431.084.383v.381l-.12.61-.119.311-.3.49-.383.419-.455.274h-.083l.083,1.063.419-.106.262-.084.454-.3.239-.155.335-.5.275-.382.227-.526.155-.884v-.646l-.084-.466-.263-.883-.191-.383-.347-.491-.491-.573-.417-.311-.656-.347-.886-.263-.92-.12Zm-4.434,14.077-1.338,6.393.886.191.572-2.725,7.337,1.542.239-1.195-7.35-1.494.538-2.557-.885-.156Zm-123.374.538.31,1.23,2.522.192.729,3.059-2.066,1.446.3,1.231,7.383-4.983-.345-1.291-8.831-.884Zm3.858,1.458,3.753.417-3.129,2.02-.624-2.437Zm5.126,5.2-7.837,2.868.418,1.027,6.2-2.246-4.708,6.226.418,1.2,7.8-2.952-.349-.956-6.343,2.366,4.9-6.309-.5-1.218Zm112.551.609-.335,1.04,6.38,2.1-7.646,1.876-.42,1.218,7.958,2.605.335-1.041-6.345-2.067,7.612-1.947.418-1.183-7.958-2.6ZM4904.028,3449l-7.146,4.17,1.639,2.916.274.418.381.455.528.346.312.156.571.108.574.047.764-.047.692-.228.537-.191.193-.036.142-.119.538-.262.574-.418.609-.539.275-.311.191-.382.3-.645.154-.813v-.335l-.07-.621-.119-.263-.229-.573-1.685-2.833Zm106.443.884-2.64,5.091,7.454,3.823,2.676-5.317-.883-.382-2.21,4.241-2.449-1.218,2.066-4.015-.969-.431-2.019,4.015-2.378-1.254,2.114-4.134-.764-.419Zm-106.707.574,1.064,1.828.083.274.072.263.118.466-.034.228-.156.454-.238.466-.527.646-.956.693-1.026.5-.813.227h-.452l-.467-.084-.419-.143-.31-.275-.145-.227-1.231-2.187,5.438-3.131ZM5006.3,3456.8l-1.038,1.183,3.859,6.309-6.848-2.712-1.028,1.231,6.394,5.354.765-.886-5.054-4.157,6.465,2.473.693-.872-3.67-5.974,5.115,4.254.764-.849-6.417-5.354Zm-95.077,3.37-4.518,3.859-.418.574-.155.263-.191.574-.072.311v.573l.072.227.155.622.312.491.3.5.431.418.682.538.5.263.538.119.525.037h.311l.489-.12.275-.107.49-.347,4.519-3.907-.729-.873-4.553,3.86-.526.383-.382.083h-.347l-.383-.036-.156-.119-.49-.227-.153-.155-.384-.382-.31-.5-.071-.228-.085-.537v-.346l.085-.384.19-.3.3-.346,4.516-3.9-.764-.883Zm89.106,4.625-.383.155-.18.072-.433.275-.033.036-2.9,2.521,5.509,6.309.8-.681-2.328-2.725,2.137-1.864.383-.418.19-.43.072-.346.035-.3-.035-.382-.154-.467-.265-.49-.311-.465-.571-.455-.384-.155-.608-.191h-.537Zm.189,1.183h.311l.312.083.454.263.264.382.155.419v.656l-.155.419v.083l-2.091,1.828-1.807-2.1,1.878-1.72.189-.156.492-.155Zm-82.949.848-5.509,6.237.776.753,2.364-2.676,2.1,1.84.264.43.155.49-.072.453-.19.431-1.146,1.375-.241.49.958.884.19-.155-.036-.347.119-.418.156-.227.873-.92.273-.453.155-.276.072-.574-.072-.646.263.12h.454l.417-.083.347-.144.347-.31.383-.347.227-.418.156-.43.12-.418v-.382l-.12-.383-.156-.418-.19-.347-.3-.311-3.141-2.82Zm.155,1.494,1.947,1.756.465.646.143.31v.454l-.035.275-.07.107-.311.466-.3.191-.239.072-.418.084-.335-.048-.238-.108-.228-.155-.07-.036-2.15-1.96,1.84-2.055Zm75.8,2.247-.919.191-.119.083-.192.036-.155.12-.609.263-.538.454-.345.312-.372.5-.19.382-.239.538-.143.371-.049.537.049.957.07.347.156.5.155.334.143.311.312.418.608.73.348.345.645.5.538.263.812.227.766.036.382-.036.574-.144.646-.274.154-.119.609-.455.346-.345.3-.348.276-.382.334-.729.083-.382.074-.646v-.347l-.074-.8-.153-.418-.54-1.148-.728-.883-.383-.3-.524-.431-.574-.3-.383-.119-.382-.037-.766-.119Zm-.119,1.111h.573l.42.084.621.3.3.275.417.3.275.347.383.657.417,1.028.072.345.036.574v.3l-.227.8-.228.395-.155.263-.347.262-.489.348-.347.191-.539.119-.454.036-.765-.155-.383-.155-.381-.191-.609-.526-.5-.5-.036-.12-.345-.537-.229-.609-.081-.346-.072-.49.072-.538v-.264l.155-.418.189-.382.383-.538.538-.418.538-.312.155-.036.645-.083Zm-68.612.848-4.359,7.11,3.405,2.067.154.108.419.12h.276l.07.035.728-.035.036-.036.266-.036.237-.119.371-.227.31-.275.155-.227.226-.382.193-.382.118-.347-.034-.645-.084-.311-.419-.561.226.036.348-.083.419-.145.121-.047.381-.264.072-.155.382-.574.119-.346.037-.646-.156-.656-.347-.574-.454-.49-3.214-1.912Zm.455,1.291,1.687.991.346.239.228.263.191.311.048.263.07.275v.227l-.07.263-.193.346-.381.347-.191.12-.2.036h-.263l-.264-.036-.227-.084-.12-.155-1.983-1.183,1.326-2.222Zm59.745,1.768-1.026.526,3.7,7.433,4.661-2.271-.455-.909-3.6,1.793-3.287-6.573Zm-61.646,1.374,2.366,1.458.312.334.106.275.072.227.048.227v.228l-.12.43-.191.263-.152.191-.421.226-.453.037-.227-.037-.275-.035-2.484-1.529,1.42-2.295Zm10.206.191-6.048,6.536,1.2.466,1.721-1.84,2.868,1.183-.12,2.557,1.111.538.54-8.9-1.268-.538Zm47.5.12-5.282,2.21,3.177,7.731,5.51-2.259-.417-.956-4.469,1.864-1.077-2.593,4.171-1.685-.381-.92-4.136,1.721-1.028-2.486,4.278-1.756-.346-.873Zm-47.413,1.53-.311,3.668-2.295-1,2.605-2.665Zm4.349.143-2.245,8.03,1.027.31,1.792-6.428,2.308,7.576,1.171.31,2.271-8.042-1.076-.3-1.794,6.5-2.149-7.612-1.3-.347Zm35.381,1.147-1.146.274-.837,7.337-3.823-6.381-1.112.263,4.663,7.54,1.146-.275,1.109-8.759Zm-8.256,1.614-5.785.454.694,8.3,5.964-.454-.107-.967-4.829.395-.262-2.8,4.516-.346-.083-.992-4.47.334-.274-2.712,4.708-.346-.071-.872Zm-14.648.19-.312,8.341,3.321.107h.465l.838-.228.465-.228.311-.226.42-.383.19-.31.263-.537.189-.491.229-.968.083-.92-.035-.908-.084-.466-.193-.526-.3-.657-.346-.453-.5-.418-.691-.43-.574-.144-.419-.084-3.321-.071Zm1.025.992,2.175.083.5.072.419.227.381.346.275.383.227.538.12.49.106.609v.538l-.071.92-.119.539-.227.5-.226.455-.275.31-.382.262-.386.156-2.782-.156.263-6.273Z" transform="translate(-4882.856 -3350.932)" fill="#efefef"/>
</svg>
