<svg id="Group_713" data-name="Group 713" xmlns="http://www.w3.org/2000/svg" width="154.22" height="154.263" viewBox="0 0 154.22 154.263">
  <path id="Path_1461" data-name="Path 1461" d="M3420.323,3323.117a77.322,77.322,0,0,1,77.04,78.5c-.5,41.739-35.333,75.921-77.4,75.766a77.131,77.131,0,0,1,.358-154.262Zm-.154,153.557c41.915.005,76.211-34.126,76.475-75.663a76.393,76.393,0,1,0-76.475,75.663Z" transform="translate(-3343.148 -3323.117)" fill="#efefef"/>
  <path id="Path_1462" data-name="Path 1462" d="M3423.329,3478.424a74.958,74.958,0,1,1,75-74.843A74.944,74.944,0,0,1,3423.329,3478.424Zm-58.437-45.651.033.038c-.447-1.162-.895-2.323-1.241-3.225-1.175.809-2.038,1.51-2.994,2.04-1.976,1.094-2.323,1.8-1.506,3.495.865,1.794,1.8,2.031,3.787,1.122.993-.454,2.07-.725,3.4-1.176Zm63.824,38.028c1.714-.428.544-1.56.714-2.3-.876-.06-1.613-.168-2.345-.147-1.312.039-2.628.28-2.813,1.88-.165,1.449.93,1.893,2.123,2.16.682.152,1.339.4,2.226.67-1.91,2.025-2.741-.272-4.172-.571.067.93.123,1.692.171,2.338a11.191,11.191,0,0,1,1.971.019,2.792,2.792,0,0,0,3.278-1.141c.849-1.389-.394-2.1-1.119-2.949Zm55.857-67.168a61.3,61.3,0,0,0-61.076-61.3c-33.91-.111-61.185,27.293-61.286,61.579-.1,33.011,27.54,60.692,60.677,60.774A61.332,61.332,0,0,0,3484.573,3403.632ZM3386.73,3351.5c1.166-.853,2.142-1.526,3.064-2.268a3.548,3.548,0,0,0,.608-.965,10.227,10.227,0,0,1-1.019-.273,2.641,2.641,0,0,1-1.11-.534c-.869-1.057-1.678-2.167-2.448-3.3a2.209,2.209,0,0,1-.208-1.081,10.021,10.021,0,0,1,.063-1.17,5.427,5.427,0,0,0-1.065.355c-.462.264-.839.686-1.312.923-1.431.719-1.786,1.678-1.02,3.148a22.227,22.227,0,0,1,1.044,3.1l-4.262-3.09-3.976,3c3.529,1.046,5.1,3.393,5.276,6.9l2.9-2.206-3.828-3.683.425-.461c1.516,1.1,3.033,2.2,4.453,3.237,1.476-.5,1.632-1.31,1.1-2.547-.6-1.387-.991-2.864-1.473-4.3a7.21,7.21,0,0,1,2.046,2.336A14.768,14.768,0,0,1,3386.73,3351.5Zm-26.334,16.147.189.562,1.892-.525c1.445,1.568,4.428,1.7,4.627,4.681,0,.053.3.085.512.14.811-1.2,1.622-2.379,2.393-3.581a.93.93,0,0,0,.108-.789c-.112-.184-.648-.354-.731-.27-1.36,1.4-1.846-.309-2.755-.6.581-1.983,1.529-1.621,2.833-.843a2.471,2.471,0,0,0,2.244,0,3.164,3.164,0,0,0,1.012-2.268c0-.552-.822-1.1-1.277-1.657l-.486.387.668,1.5-2.89-1c-.87-.936-1.471-2.138-2.2-2.222a3.583,3.583,0,0,0-2.623,1.315A61.267,61.267,0,0,0,3360.4,3367.646Zm128.41,20.662-.375-.414c.824-.677,1.6-1.42,2.48-2.018,1.948-1.327,2.2-3.03,1.254-5.038a9.3,9.3,0,0,0-.716-1.109,10.368,10.368,0,0,1-.7.953,2.375,2.375,0,0,1-.876.732c-1.307.411-2.633.761-3.966,1.076a1.708,1.708,0,0,1-.978-.164,7.354,7.354,0,0,1-1.021-.646,6.859,6.859,0,0,0-.155,1.458,5.594,5.594,0,0,0,.44,1.541,8.331,8.331,0,0,0,.667,1.117c.207-.368.39-.755.629-1.1a1.383,1.383,0,0,1,.6-.563c1.125-.333,2.27-.6,3.406-.9l.38.491c-1.1.979-2.141,2.051-3.328,2.916-1.71,1.246-1.372,2.619-.555,4.2,2.013-.53,3.957-1.079,5.925-1.527a3,3,0,0,1,1.33.313,9,9,0,0,1,.836.345c.089-.316.305-.66.243-.944-.236-1.072-.562-2.125-.854-3.186l-.415-.385C3492.454,3387.991,3490.561,3388.016,3488.805,3388.308Zm-80.888-50.365-.544.53c-.594-.791-1.238-1.548-1.771-2.377-1.4-2.18-3.269-2.219-5.371-1.229a6.037,6.037,0,0,0-.907.652,5.927,5.927,0,0,1,.943.606,2.76,2.76,0,0,1,.79,1.011,27.273,27.273,0,0,1,.984,3.605c.083.447-.257.971-.4,1.461-.087.291-.168.584-.251.877.292.076.6.263.871.209a13.051,13.051,0,0,0,2.565-.71c.228-.1.216-.754.314-1.155-1.214.139-1.465-.649-1.64-1.608-.147-.811-.423-1.6-.643-2.4l.5-.287c1,1.088,1.985,2.2,3.018,3.26,1.607,1.649,2.044,1.673,4.078.349-.5-1.878-1.047-3.76-1.475-5.668-.1-.439.212-.971.335-1.458a2.486,2.486,0,0,0,.192-.9c-.019-.112-.522-.264-.754-.2-1.117.294-2.218.654-3.324.991l-.359.479C3407.633,3334.406,3407.577,3336.283,3407.918,3337.942Zm53.472,3.785a11.486,11.486,0,0,0-.271,1.308c-.042.538.172,1.2-.065,1.6a25.981,25.981,0,0,1-2.3,3.184c-.223.273-.725.326-1.107.461-.33.118-.669.21-1.005.313.158.286.244.669.481.845,1.39,1.023,2.766,2.084,4.243,2.972,2.339,1.407,4.329,1.009,5.814-1,1.513-2.05,1.341-4.021-.723-5.838C3464.99,3344.278,3463.342,3343.192,3461.389,3341.728Zm-100.939,71.579c-.352-2.751-.519-5.123-1-7.431a3.274,3.274,0,0,0-3.252-2.612c-1.671-.105-3.387.057-4.217,1.719-1.434,2.87-.536,5.812-.3,8.847C3354.536,3411.5,3357.172,3411.4,3360.45,3413.306Zm-4.866-21.229-3.639-.4c-.323,2.778-.646,5.432-.918,8.089a1.016,1.016,0,0,0,.411.826c.164.088.542-.21.817-.35.449-.23.891-.665,1.34-.668a16.65,16.65,0,0,1,3.016.321c.8.139,1.912-.128,1.94,1.265,0,.12.449.375.527.324.26-.172.605-.437.636-.7.3-2.7.553-5.4.829-8.221-1.07-.108-1.956-.24-2.842-.259-.261-.005-.72.283-.746.482a.95.95,0,0,0,.454.8c2.147.65,1.486,2.206,1.321,3.782-.875-.058-1.65-.11-2.426-.161l-.164-.483a13.276,13.276,0,0,0,1.221-.862,1.1,1.1,0,0,0,.342-.692c.008-.134-.273-.39-.447-.413-1.123-.143-2.252-.235-3.879-.393l1.8,2.472h-2.195C3351.625,3394.25,3354.42,3393.7,3355.585,3392.077Zm79.724-60.045c-3.011-.039-4.756,1.578-4.819,4.463-.062,2.866,2.056,4.75,5.424,4.827a4.373,4.373,0,0,0,4.74-4.624C3440.707,3333.907,3438.607,3332.074,3435.309,3332.032Zm42.757,24.08c-1.847-1.933-3.688-3.881-5.567-5.793-.191-.193-.6-.168-.914-.245-.065.291-.126.583-.2.874-.115.482-.093,1.086-.382,1.421a22.268,22.268,0,0,1-2.681,2.627c-.335.275-.954.207-1.441.3-.3.055-.59.116-.885.174.07.3.042.7.229.887,1.926,1.918,3.887,3.8,5.764,5.62l2.65-2.478c-.6-.174-1.132-.5-1.341-.36-2.027,1.381-2.8-.255-4-1.419l1.924-1.689c.26.271.4.351.414.444.073.677.118,1.356.171,2.034q1.028-.76,2.055-1.522a.788.788,0,0,0,.257-.245c.161-.344.3-.7.441-1.052-.352-.056-.7-.119-1.056-.167-.4-.055-.809-.1-1.561-.186l1.6-1.682c2.784.736,1.535,3.158,1.913,5.113Zm-79.951-15.421c-.421.617-.91,1.028-.837,1.277.675,2.334-1.1,2.591-2.542,3.341-.432-.9-.779-1.618-1.322-2.744.833.236,1.244.358,1.657.468.347.092.7.168,1.043.253a3.032,3.032,0,0,0-.015-1.076c-.375-.91-.843-1.78-1.5-3.122l-1.363,3.012-1.062-2.126c1.573-2.364,3.5-.373,5.509-.23l-1.623-3.329c-2.441,1.156-4.708,2.21-6.952,3.309a5.18,5.18,0,0,0-1,.853,6.906,6.906,0,0,1,1.2.485,2.437,2.437,0,0,1,.806.823,18.08,18.08,0,0,1,1.261,2.562c.305.828,1.387,1.7.056,2.613-.089.062-.047.54.077.634a.9.9,0,0,0,.756.144c2.514-1.17,5.012-2.376,7.566-3.6Zm89.05,62.391c-.208,2.949-.414,5.878-.623,8.853,1.083.125,1.966.273,2.853.3a.977.977,0,0,0,.79-.473.91.91,0,0,0-.412-.8c-2.258-.635-1.867-2.2-1.51-3.933l2.787.311c-.468.555-.665.818-.893,1.05-.291.3-.606.569-.91.852a4.716,4.716,0,0,0,1.3.562c.862.091,1.74.026,3.013.026-.7-.917-1.181-1.546-1.924-2.521l2.353.141c1.328,2.6-1.164,3.264-2.5,4.833,1.5.144,2.532.244,3.718.358.194-2.638.393-5.062.533-7.491a6.565,6.565,0,0,0-.256-1.492c-.353.284-.7.581-1.064.847-.177.129-.443.333-.588.281-1.941-.687-4.552.941-5.942-1.693C3487.85,3403.018,3487.552,3403.081,3487.166,3403.081Zm-.414-34.664-.5-.075c-.139.357-.265.721-.419,1.071-.145.329-.235.8-.495.941q-2.049,1.079-4.187,1.982c-.234.1-.637-.222-.968-.327-.282-.089-.573-.147-.86-.217-.059.292-.255.648-.155.87,1.13,2.479,2.305,4.938,3.5,7.478.93-.42,1.755-.749,2.53-1.169.251-.136.369-.513.549-.781-.313-.186-.669-.579-.932-.524-2.221.458-2.488-1.164-3.115-2.659l2.7-1.214-.936,3.258c1.48-.691,2.452-1.117,3.391-1.6a.817.817,0,0,0,.385-.656c-.04-.2-.362-.386-.6-.494-.441-.2-.909-.335-1.862-.675l2.169-1.053c2.42,1.617.562,3.427.227,5.486l3.366-1.644C3489.235,3373.649,3487.994,3371.033,3486.752,3368.417Zm8.862,32.042c-.079-1.776-.037-3.457-.26-5.1a2.641,2.641,0,0,0-2.734-2.562c-1.594.014-2.262,1.139-2.529,2.545-.167.877-.218,1.78-.435,2.643-.083.332-.561.861-.723.816-.383-.108-1-.564-.965-.776a16.691,16.691,0,0,1,.9-3.068,5.918,5.918,0,0,1,.953-1.276l-.335-.4-3.021.24c0,1.287-.008,2.29,0,3.293a10.547,10.547,0,0,0,.076,1.786c.329,1.777,1.527,2.931,2.918,2.893,1.433-.039,2.46-1.195,2.718-3.058a19.425,19.425,0,0,1,.358-2.29c.085-.325.467-.571.715-.853.274.268.815.58.779.8a16.918,16.918,0,0,1-.764,2.894,10.107,10.107,0,0,1-1.039,1.64Zm-130.409-22.689c.521-1.185,1.09-2.42,1.6-3.682.1-.26-.034-.615-.061-.926-.3.044-.608.071-.905.137a6.692,6.692,0,0,1-1.613.37c-1.783-.08-3.573-.187-5.34-.436-1.135-.16-1.407.537-1.807,1.288-.432.813-.2,1.3.4,1.981,1.656,1.889,4.339,2.909,4.929,5.724.024.115.4.156.7.263.349-.751.722-1.427.976-2.145a9.594,9.594,0,0,0,.287-1.617l-1.693.409c-1.389-.88-.4-2.127.184-2.639C3364.6,3374.96,3363.765,3378.024,3365.205,3377.769Zm-6.8,8.139c.246-1.033.542-1.992.691-2.971a2.289,2.289,0,0,0-1.549-2.7,1.963,1.963,0,0,0-2.735.976c-.83,2.15-1.432,4.39-2.086,6.6a.8.8,0,0,0,.313.707c.157.084.483-.121.726-.22.425-.173.956-.628,1.246-.5,1.842.78,4.418.2,5.333,2.767.02.054.221.043.534.1l1.439-5.009-.418-.392-1.575,1.268Zm93.735-48.872c-2.509-.937-4.841-1.823-7.189-2.66a1.245,1.245,0,0,0-.917.174.87.87,0,0,0,.052.716c1.171.49.51,1.284.315,1.935a24.288,24.288,0,0,1-1.009,2.673c-.3.693-.28,1.8-1.593,1.4-.1-.032-.442.286-.446.447,0,.235.136.619.313.69,1.459.581,2.941,1.1,5,1.856-.854-1.735-1.745-3.026-.159-4.189.34.709.659,1.374.978,2.038l.454-.125c.432-1.2.864-2.4,1.474-4.086l-2.924,1.127.985-2.346c2.19.76,2.167.763,2.444,2.66.048.325.394.606.6.908.245-.213.6-.378.716-.646C3451.56,3338.848,3451.791,3338.048,3452.139,3337.036Zm33.009,28.717-3.734-5.423a5.6,5.6,0,0,0-.625-.87,4.378,4.378,0,0,0-.818-.511c-.138.272-.28.545-.413.822-.248.515-.36,1.2-.76,1.52-1.156.933-2.429,1.724-3.492,2.457l-1.926-.418a17.514,17.514,0,0,0,2.412,4.126,1.116,1.116,0,0,0,.859.236c.1-.008.3-.479.239-.675-.559-1.885,1.031-1.517,1.869-1.959-.014.492-.361.824-.364,1.157s.343.667.535,1l2.869-2.247c-.628-.214-1.257-.422-1.88-.652-.073-.027-.1-.186-.2-.4l1.763-1.182c.97,1.2,1.926,2.224.476,3.617-.185.177-.027.711-.028,1.078a2.563,2.563,0,0,0,.956-.128C3483.6,3366.877,3484.264,3366.368,3485.148,3365.753Zm-115.6-5.865.628-.017q-.135-1.671-.271-3.341a20.387,20.387,0,0,1,4.25,3.362c.229.23.135.791.174,1.2.029.307.031.617.047.925.353-.094.821-.075,1.041-.3,1.03-1.056,1.992-2.176,2.978-3.274l.2-.525c-3.536,1-4.309-2.253-6.466-3.375l.108-.614h3.387l.026-.54-2.371-2.194-6.013,6.524Zm50.417-20.014.064-.508c-.551-.428-1.487-.782-1.584-1.3a50.188,50.188,0,0,1-.494-5.268l.448-.281q1.182,1.081,2.366,2.163l.479-.334c-.13-1.067-.261-2.134-.4-3.257l-8.692.832a23.4,23.4,0,0,0,.145,2.457c.052.315.4.583.61.872a7.951,7.951,0,0,0,.742-.743c.421-.538.805-1.1,1.2-1.658l.548.318c-.38,2.32,1.706,4.854-.763,7.236Zm39.112,118.037-2.776,2.05a5.248,5.248,0,0,1,3.538,5.007l2.1-1.48c-.9-.909-1.646-1.668-2.394-2.426l.316-.332c.724.58,1.416,1.212,2.19,1.716a1.335,1.335,0,0,0,1.182.141,1.41,1.41,0,0,0,.258-1.179c-.18-.884-.5-1.74-.762-2.608l.492-.168c.411,1.013.822,2.028,1.3,3.192l2.738-1.92a5.255,5.255,0,0,1-3.585-4.807c-2.884.558-2.929,2.417-2.189,4.73Zm14.584-7.635c1.032-1.612,1.572-.566,2.292-.348a2.44,2.44,0,0,0,2.083-.4c.763-.791.226-1.515-.833-2.324.054.722.075,1.014.112,1.531-.9-.872-2.276-.85-2.438-2.349a2.345,2.345,0,0,0-1.872-.4,50.668,50.668,0,0,0-3.872,3.892,5.184,5.184,0,0,1,4.717,4.1l2.5-2.726Zm-106.764-8.021-.416-.291c.534-1,1.416-1.981,1.5-3.022.083-1-.665-2.061-1.047-3.1l-.482.21c-.288,1.671-2.883,3.279-5.054,2.989l1.584,2.338c.921-.939,1.615-1.644,2.572-2.618.187,2.315-2.9,3.708-.576,5.65l5.513-2.855-1.286-1.811Zm23.229,24.342a9.578,9.578,0,0,0,2.03,1.177c1.016.265,2.3.717,3.074.315.65-.338.728-1.775,1.031-2.648l1.38-1.945c-1.038-.6-1.858-1.141-2.732-1.569-1.057-.519-2.125-.562-2.839.565-.667,1.052-.19,1.911.636,2.667.576.529,1.112,1.1,1.823,1.814-2.473.709-2.481-1.083-3.087-2.724C3390.879,3465.253,3390.506,3465.917,3390.125,3466.6Zm80.033-14.474-1.513-1.823-4.94,4.451c2.233-.124,4.349,2.3,4.289,4.531l4.87-4.324-1.92-1.815c-.058,1.454.356,2.788-1.525,3.32-.284-.411-.583-.849-.961-1.4h2.123l-2.423-2.659c-.059.95-.088,1.409-.136,2.175l-1.758-1.642ZM3383.439,3455a5.092,5.092,0,0,1-3.586,5.182c1.324.876,2.415,1.7,3.6,2.36a2.78,2.78,0,0,0,4.031-.9,2.7,2.7,0,0,0-.511-4.073C3385.953,3456.695,3384.8,3455.979,3383.439,3455Zm54.576,11.854c-2.145.022-3.726,1.39-3.744,3.241a3.352,3.352,0,0,0,3.253,3.518,3.427,3.427,0,0,0,3.768-3.377A3.117,3.117,0,0,0,3438.015,3466.859Zm-55.133-12.374-5.008-4.2a4.841,4.841,0,0,1-3.866,4.8l4.8,4.221,1.473-2.1-3.465-.414-.026-.594,1.345-1.506c.11.919.169,1.42.282,2.365l2.262-2.767h-1.862l-.152-.347,1.2-.732,1.51,2.9Zm36.758,15.062.533-.446,2.725,2.038v-2.531h-6.017a5.009,5.009,0,0,1-.428,6.1h6.22V3472.4c-1.013.646-1.92,1.223-3.153,2.006V3471.9l1.565,1.224v-3.157l-1.445,1.346Zm33.563-1.185,2.158-1.163c-.52-.6-.833-.96-1.146-1.321l1.336-.759c.163.548.327,1.1.543,1.823l2.749-1.527c-1.425-1.314-2.647-2.525-3.973-3.613-.4-.327-1.283-.6-1.585-.381a2.169,2.169,0,0,0-.736,1.653C3452.655,3464.784,3452.955,3466.481,3453.2,3468.362Zm35.611-36.328c-1.98-.235-3.679-.5-5.387-.6a1.907,1.907,0,0,0-1.523.7,1.806,1.806,0,0,0,.338,1.6c1.157,1.342,2.44,2.576,3.79,3.967.292-.591.678-1.369,1.2-2.415l-2.229.283,1.25-2.183,1.14,1.656C3487.965,3433.831,3488.433,3432.84,3488.815,3432.034Zm-80.121,41.377c-.164-1.972-.223-3.649-.482-5.3a2.2,2.2,0,0,0-1.069-1.485c-.334-.145-1.153.33-1.477.744-1.09,1.4-2.055,2.887-3.14,4.443l2.278.586.248-1.84,1.342.344-.546,1.753Zm37.827-2.457-1.757-1.97.326-.345,1.658.952-1.127-3.448-.947,1.391-.383-.147c.069-.429.138-.859.208-1.289l2.872.6-.674-2.358c-1.964.692-3.737,1.317-5.64,1.99a5.132,5.132,0,0,1,2.017,5.8c.859-.257,1.583-.459,2.3-.7C3445.752,3471.308,3446.113,3471.126,3446.522,3470.955Zm35.534-34.363-1.733-1.253a7.96,7.96,0,0,0-1.228,1.726c-.379,1.119-1.056,2.474-.714,3.4a4.821,4.821,0,0,0,2.743,2.192c1.325.505,3.076-.815,3.5-2.37.336-1.229.17-2.3-1.293-2.827-.235,3.327-.3,3.531-1.113,3.494-1.159-.05-3.089-1.64-2.694-2.379C3479.929,3437.824,3480.965,3437.4,3482.055,3436.592Zm-70.473,31.662.87.595c-.408,1.558-.817,3.116-1.3,4.971l3.353.552a5.227,5.227,0,0,1,.027-5.423c.217.323.42.583.574.868.166.309.285.643.425.966l.45-.032c.134-.752.267-1.5.432-2.432l-6.077-.892c-.046.977-.082,1.716-.118,2.455l.554.252Q3411.175,3469.193,3411.582,3468.253Zm-7.421-2.457-5.744-2.048c-.32.858-.579,1.551-.838,2.245l.408.231,1.748-1.039.425.381c-.737,1.451-1.476,2.9-2.327,4.575l3.444,1.276c-1.417-2.418.069-3.734.954-5.258.208.6.414,1.2.8,2.333Zm-28.13-16.486-.39,2.74c.958-.842,1.534-1.347,2.219-1.949l-4.2-4.465c-.628.661-1.161,1.221-2.038,2.145l2.557-.229.23.558-4.163,3.036,2.513,2.654C3372.793,3451.7,3373.751,3450.529,3376.031,3449.311Zm-2.718-4.18-2.527-3.15c-.031,2.219-2.4,4.122-4.751,3.979l2.553,3.238A5.148,5.148,0,0,1,3373.313,3445.13Zm106.058,2.567,2.457-3.244c-2.305.349-4.19-1.046-5.224-3.482-.785,1.078-1.488,2.046-2.191,3.014C3476.255,3443.734,3479.036,3445.851,3479.37,3447.7Zm6.206-22.851c1.6-.276,2.759-.42,3.885-.687a14.54,14.54,0,0,0,1.99-.784l-.128-.613c-1.42.261-2.037-.363-2.272-1.64-.1-.522-.608-.969-.787-1.236Zm-130.79-2.235c1.45,2.838,4.559.131,5.473,2.844.187-.184.372-.368.558-.553l-2.545-5.12C3356.671,3420.115,3358.048,3423.714,3354.786,3422.611Z" transform="translate(-3346.285 -3326.34)" fill="#efefef"/>
  <path id="Path_1463" data-name="Path 1463" d="M3445.82,3485.937a59.761,59.761,0,1,1,59.847-59.693A59.862,59.862,0,0,1,3445.82,3485.937Zm.169-118.822a59.047,59.047,0,1,0,59.037,59.165A59.161,59.161,0,0,0,3445.989,3367.115Z" transform="translate(-3368.822 -3349.002)" fill="#efefef"/>
  <path id="Path_1464" data-name="Path 1464" d="M3387.8,3418.756c-.934-.621-1.465-.974-2.333-1.552a17.23,17.23,0,0,1,2.04-1.506c.167-.091.936.406.917.575A17.965,17.965,0,0,1,3387.8,3418.756Z" transform="translate(-3368.446 -3378.458)" fill="#efefef"/>
  <path id="Path_1465" data-name="Path 1465" d="M3630.432,3370.134c2.132,1.411,2.258,2.444.7,4.477-1.466,1.919-2.419,2.013-4.229.385Z" transform="translate(-3512.784 -3351.225)" fill="#efefef"/>
  <path id="Path_1466" data-name="Path 1466" d="M3564.231,3343.137a10.927,10.927,0,0,1-.858,2.836,2.409,2.409,0,0,1-1.915,1.078,2.69,2.69,0,0,1-1.632-1.7,6.266,6.266,0,0,1,.286-2.779c.273-1.168.847-2.127,2.3-1.939C3563.885,3340.821,3564.154,3341.85,3564.231,3343.137Z" transform="translate(-3472.637 -3333.573)" fill="#efefef"/>
  <path id="Path_1467" data-name="Path 1467" d="M3433.938,3652.628c.808-1.173,1.6-2.323,2.4-3.492,1.72.858,1.309,1.919.553,2.984S3435.294,3653.969,3433.938,3652.628Z" transform="translate(-3397.424 -3518.018)" fill="#efefef"/>
  <path id="Path_1468" data-name="Path 1468" d="M3570.741,3678.083c-.9.771-1.492,1.667-1.969,1.611-1.619-.19-1.6-1.741-1.641-2.891-.02-.547.819-1.126,1.268-1.692Z" transform="translate(-3477.05 -3533.546)" fill="#efefef"/>
  <path id="Path_1469" data-name="Path 1469" d="M3543.665,3680.178l-3.046-.383c1.5-1.473,2.227-1.267,3.01.422Z" transform="translate(-3461.2 -3535.756)" fill="#efefef"/>
  <path id="Path_1470" data-name="Path 1470" d="M3382.667,3587.219c-.187,2.033-2.024,2.171-3.358,2.835a1.235,1.235,0,0,1-1.119-.485c-.143-.384-.036-1.188.232-1.341,1.305-.742,2.549-2.024,4.276-.972Z" transform="translate(-3364.058 -3480.787)" fill="#efefef"/>
  <path id="Path_1471" data-name="Path 1471" d="M3436.024,3516.607c-.146.674-.228,1.047-.32,1.469h9.421c-1.03-3.371-4.388-2.425-6.538-4.034-.077.7-.123,1.119-.2,1.811l-6.887-4.833h8.428c-.256.475-.455.84-.743,1.375l4.817,1.638c.073-1.319.141-2.538.212-3.844l-1.662-.367c1.4-2.209,2.748-4.352,4.173-6.607-.126-.089-.374-.411-.561-.378-2.9.5-5.259-1.036-7.758-2.017a2.006,2.006,0,0,1-.825-.9c-1.042-1.861-1.725-4.056-3.155-5.531-1.535-1.583-2.982-3.311-5.828-3.618-2.651-.288-5.775-.314-8.054-2.5-.535-.516-1.684-.393-2.217-.909-1.771-1.714-4.081-2.411-6.112-3.615a34.219,34.219,0,0,1-5.229-4.133,9.519,9.519,0,0,1-1.43-2.285c5.228,0,10.064-.074,14.9.03,2.534.056,5.107.836,7.58.555,3.6-.411,7.188.2,10.752-.273,3.373-.445,5.781,1.317,7.984,3.444,1.957,1.887,1.83,4.186-.182,7.258,2.574,1.053,5.358-.817,5.876-3.912.116-.694.415-1.357.541-2.052.118-.639.358-1.73.119-1.864a5.447,5.447,0,0,0-2.227-.347c-.195-.013-.4.189-.658.319a3.643,3.643,0,0,1-.394-3.9c.466-1.321,1.7-.964,2.748-1.093a23.278,23.278,0,0,1,4.949-.562c4.051.313,3.753,1.882,4.3,4.666.358,1.827.573,3.694,1.107,5.467a16.9,16.9,0,0,0,1.888,3.25l4.067.38c-2.016-2.422-2.812-4.787-.957-6.979,1.811-2.141,3.875-4.211,7.125-4.047,1.728.087,3.463.036,5.2.059a8.511,8.511,0,0,0,1.427.072c3.292-.538,6.571.717,9.822.17,3.525-.595,7.045-.053,10.557-.32,2.357-.179,4.714-.361,7.173-.549.358,1.38-.593,2.126-1.493,2.867a38.587,38.587,0,0,1-4.387,3.47c-2.609,1.572-5.373,2.887-8.064,4.326-.359.191-.661.483-1.008.7a7.317,7.317,0,0,1-1.993,1.152c-2.312.523-4.661.882-6.992,1.321-.452.086-1.046.107-1.312.4-1.675,1.833-3.982,2.963-4.938,5.629-1.081,3.015-3.2,5.306-6.864,5.464a25.41,25.41,0,0,0-3.939.774l4.166,6.608c-3.467.084-.309,3.024-2.168,4.258,1.927-.375,3.473-.52,4.123-2.364a1.793,1.793,0,0,1,.974-.955c2.45-.88,4.928-1.683,7.911-2.685-1.3,2.325-.965,3.934,1.773,4.958-3.136,1.092-5.693,2.008-8.275,2.851a1.941,1.941,0,0,1-1.159-.274,4.111,4.111,0,0,0-5.684,2.443c.112.033.291.124.325.086,2.167-2.42,5.042-1.437,7.673-1.595.928-.055,1.862-.008,3.4-.008-2.162,1.833-2.3,3.408-.067,5.252-3.3,0-6,.015-8.709-.02a1.443,1.443,0,0,1-.92-.436c-2.252-2.379-4.908-.883-7.379-1.12q-.056.264-.112.528,3.869,1.266,7.736,2.53c.107.034.265.07.341.02,2.7-1.788,4.988.277,7.429.823.92.207,1.8.6,3.162,1.075-2.323,1.072-3.033,2.6-1.573,5.046-3.083-1.035-5.6-1.874-8.115-2.739-.256-.088-.6-.312-.653-.533-.491-2.04-2.289-2.2-3.831-2.716-3.215-1.08-6.424-2.178-9.663-3.188a3.874,3.874,0,0,0-2.215-.089c-5.089,1.67-10.149,3.432-15.354,5.211l.722,1.444H3433.8c2.325-1.682,4.406-3.187,6.675-4.831.11.592.185.994.293,1.575l11.391-3.891-.067-.268h-16.423l.351,1.534-7.718-2.345.011-.411Zm25.591-4.635c-.3-.923-.6-1.849-.943-2.924l-1.536,1.062,1.753,2.7c.346-.4.537-.616.728-.837l1.168-4.213c-.208-.047-.414-.095-.623-.141C3460.9,3508.873,3461.629,3510.49,3461.615,3511.973Zm8.473-4.23q-1.039-1.964-2.08-3.927l-.519.3a4.031,4.031,0,0,0,2.534,3.7c-.292.091-.692.348-.852.243a13.334,13.334,0,0,1-1.482-1.311c-.18,1.91.8,2.621,3.626,2.573C3470.844,3508.714,3470.467,3508.228,3470.088,3507.742Zm-16.635,4.161c-.231-1.48.886-3.266-.808-4.414l-.594.162q.706,2.113,1.413,4.225l.676,1.011,1.7-2.91-1.567-.971C3453.957,3510.125,3453.7,3511.022,3453.453,3511.9Zm2.292-33.528-.036-.035q.3.7.592,1.407l-2.377.886c.179.478.383,1.025.583,1.573-1.493.429-1.381,1.673-1.457,2.835a2.12,2.12,0,0,1-.217.948c-.453.747-.974,1.454-1.573,2.327h12.665c-.376-.843-.665-1.486-1.085-2.425l-1.106,1.658h-2.71c-.031-.186-.063-.372-.095-.558l2.938-.612c.054-.32.2-1.163.286-1.658a21.384,21.384,0,0,0-2.171-.556,5.182,5.182,0,0,0-1.228.117c.06.362.139.724.174,1.087.041.419.043.842.061,1.264l-.826-.026c.133-1.2.267-2.4.43-3.874l2.889,1.267c.075-1.042.144-1.99.25-3.45l-1.529,1.4-.466-.82c1.455-.62,1.735-3.562.537-4.785-.843-.859-4.71-1.211-5.879-.484Zm29.052-.035c-2.525,0-4.853-.011-7.18,0-2.772.015-5.336-.107-7.69,2.29-2.446,2.49-3.095,4.09-1.027,6.98.216.3.021,1.09-.239,1.481-.212.319-.808.382-1.235.56.091.914.17,1.722.265,2.7.468-.156.945-.225.953-.332.11-1.313.97-1.7,2.091-1.86.155-.023.343-.317.388-.515.337-1.477.642-2.961.931-4.323,1.071-1.7,2.142-3.4,3.2-5.088A8.232,8.232,0,0,0,3484.8,3478.34Zm-39.328,10.013c1.672-1.565,2.624-3.235,1.768-5.246-.938-2.207-2.893-4.066-4.982-4.361-3.851-.544-7.834-.155-11.789-.155,1.764,2.027,6.277,3.274,8.539,2.063,1.383-.742,1.822.1,1.822.875,0,1.928,1.889,2.3,2.29,3.707.226,1.5.151,3.33,1,4.466.678.906,2.164,1.359,2.88,2.526a2,2,0,0,0,.39-.138l.247-2.312Zm-20.718-5.181.09-.835a5.369,5.369,0,0,0-1.693-.31c-3.99.605-7.381-1.757-11.157-2.191a1.371,1.371,0,0,1-.929-.484c-1.081-1.79-2.793-1.288-4.625-1.374a6.276,6.276,0,0,0,4.451,2.9c2.188.27,4.434.251,5.974,2.23a.9.9,0,0,0,.644.228C3419.921,3483.295,3422.337,3483.23,3424.751,3483.172Zm84-5.108c-2.034-.116-3.554-.3-4.763,1.257-.447.576-1.6.626-2.449.86-.966.266-1.959.433-2.92.713a20.072,20.072,0,0,1-2.578.875c-1.35.194-2.732.139-4.1.244a13.545,13.545,0,0,0-1.7.347l.047.805c2.5.055,4.994.118,7.492.149a.882.882,0,0,0,.6-.326c1.422-1.8,3.479-1.9,5.5-2.066C3505.84,3480.757,3507.243,3479.726,3508.755,3478.063Zm-49,30.435.653.28a6.421,6.421,0,0,0,.949-2.149c.1-3.7.071-7.407.01-11.111-.006-.442-.48-.878-.738-1.317-.292.408-.831.813-.836,1.225C3459.733,3499.783,3459.756,3504.141,3459.756,3508.5Zm-4.469-14.155c-1.161-.382-1.554.024-1.546,1.144.03,3.759-.042,7.52.058,11.276.019.7.653,1.386,1,2.078l.483-.237Zm1.521,7.86c0,2.207-.042,4.415.032,6.618.017.469.454.924.7,1.385.258-.452.734-.9.74-1.358q.084-6.71,0-13.419c-.006-.411-.512-.816-.786-1.224-.228.4-.64.794-.651,1.2C3456.777,3497.669,3456.811,3499.937,3456.809,3502.2Zm-45.729-23.833c4.054,1.365,8.012,3.525,12.653,3.015-1.287-1.016-2.43-1.956-3.62-2.831a1.853,1.853,0,0,0-1.015-.177C3416.425,3478.365,3413.751,3478.371,3411.079,3478.371Zm80.5,2.874c2.408.8,11.222-1.3,12.379-2.875-2.613,0-5.4-.005-8.178.009a1.461,1.461,0,0,0-.824.209C3493.807,3479.453,3492.691,3480.36,3491.576,3481.244Zm-74.587,3.98c2.028,3.114,11.021,2.681,14.151-.915-1.813.22-3.231.331-4.625.575-2.748.48-5.419,2.266-8.289.364C3417.96,3485.072,3417.478,3485.224,3416.988,3485.224Zm67.362-.795c3.33,3.525,11.794,3.868,13.909.544-1.021.315-1.7.52-2.373.733-.479.151-.993.519-1.425.438-2.1-.4-4.166-.973-6.267-1.363C3486.935,3484.546,3485.634,3484.539,3484.35,3484.429Zm19.595-2.808c-2.056-.077-3.726.282-5.047,1.746a1.744,1.744,0,0,1-1.2.581c-2.715-.183-5.425-.46-8.139-.683-.6-.05-1.215-.007-2.3-.007C3491.916,3486.549,3501.409,3485.488,3503.945,3481.621Zm-92.811.068a5.832,5.832,0,0,0,4.825,2.784,12.385,12.385,0,0,1,3.311.529c1.907.714,6.491-.033,8.411-1.831-.868,0-1.4-.042-1.924.007-2.7.253-5.4.581-8.1.754a2.6,2.6,0,0,1-1.61-.793A5.853,5.853,0,0,0,3411.134,3481.689Zm34.373,31.356c.965,1.193,1.743,2.35,3.425,1.6.953-.424,1.842,1.827,3.137.424.867,1.785,1.226,1.936,3.432,1-3.9-.472-2.58-3.661-3.5-5.924l-2.606,3.726Zm24.006.031-3.911.768-2.494-3.469-.488.03c-.027,2.39.232,4.918-3.116,5.821,2.087.9,2.964.233,3.357-1.042.437.141.812.4,1.062.316.672-.238,1.478-1.058,1.9-.878C3467.561,3515.374,3468.5,3514.321,3469.513,3513.077Zm-8.687,7.1c1.2,1.61,17.538,7,19.2,6.392Zm-29.683-34.437a23.468,23.468,0,0,1-9.679,2.459c4.015,2.7,7.277.006,11-.915ZM3482.9,3487c3.873,2.118,8.6,3.58,10.589,1.112-3.406.157-6.491-1.105-9.565-2.327Zm-20.053,18.511.544.214a8.755,8.755,0,0,0,.9-2.469c.119-2.606.079-5.222.008-7.832-.012-.415-.5-.817-.767-1.225-.229.392-.652.781-.659,1.175C3462.823,3498.756,3462.845,3502.137,3462.845,3505.516Zm-11.33.2.785-.116c0-3.369.027-6.741-.035-10.108-.008-.435-.491-.86-.753-1.289-.259.429-.729.851-.742,1.289-.075,2.378-.113,4.764,0,7.14A16.219,16.219,0,0,0,3451.515,3505.718Zm4.953,4.65c-1.546,2.454-1.255,3.623,1.232,5.643,2.7-3.124,2.791-4.1.235-5.514v3.777C3457.125,3513.057,3458.111,3511.391,3456.468,3510.368Zm37.4-31.7c-2.239,0-4.589-.086-6.927.042a10.025,10.025,0,0,0-2.628.91C3487.855,3481.186,3492.709,3480.366,3493.871,3478.67Zm-72.646-.025c1.18,1.722,5.953,2.541,9.826,1.356-.847-.542-1.467-1.265-2.125-1.3C3426.33,3478.565,3423.722,3478.645,3421.225,3478.645Zm56.212,20.4a18.389,18.389,0,0,1-3.456-2.245,1.9,1.9,0,0,0-2.729-.352c1.111,2.514,3.038,4.406,4.361,4.055C3476.3,3500.316,3476.833,3499.547,3477.438,3499.042Zm-33.39-2.3-.276-.582c-.663,0-1.474-.246-1.96.047a47.042,47.042,0,0,0-3.825,2.805c.662,1.744,1.749,2.152,3.256.867A29.187,29.187,0,0,0,3444.047,3496.745Zm21.538,5.6a11.07,11.07,0,0,0-.537,2.949,11.358,11.358,0,0,0,1.023,2.673l-.3.151q-.759-1.328-1.516-2.656c-.938,1.523.2,3.214,2.7,3.811C3466.493,3507.105,3467.655,3504.763,3465.585,3502.348Zm-24.33-8.468-4.815,2.038c.27,1.655.893,2.162,2.255,1.78C3440.686,3497.14,3441.811,3495.47,3441.255,3493.879Zm-.946,31.2.219.806,13.466-4.619-.261-.761Zm-7.5-43.748c1.655,2,3.675,1.925,5.676,2.012,1.757.078,1.975-.771,1.64-2.012Zm16.261,21.372c-1.7,2.077-.7,4.39-.938,6.664,2.64-1.047,3.469-2.39,2.625-3.979l-1.569,2.682C3450.44,3505.188,3450.49,3504.435,3449.071,3502.708Zm24.763-8.844a3.277,3.277,0,0,0,2.817,3.875c1.5.263,2.027-.56,2.03-1.8Zm1.061-12.51c0,1.056-.083,2.182,1.743,1.978a21.245,21.245,0,0,0,3.342-.393,9.3,9.3,0,0,0,2.18-1.312l-.219-.273Zm-20.843,32.768a14.393,14.393,0,0,1,1.652,3.015c.318,1.243,1.137.974,1.927,1.027.833.056,1.66.012,1.589-1.106a1.975,1.975,0,0,1,1.793-2.246c.132-.032.22-.242.357-.4l-1.029-.692-2.776,3.721-2.87-4.052C3454.326,3513.809,3454.028,3514.15,3454.052,3514.123Zm34.258-24.073c-2.467-1.061-4.484-2.008-6.57-2.761-.423-.152-1.109.426-1.674.667l.134.648C3482.784,3488.993,3484.989,3491.148,3488.31,3490.05Zm-16.527,30.124c.5,1.258,5.222,1.764,7.886.846C3478.813,3519.921,3476.909,3519.716,3471.782,3520.173Zm-36.855-31.584.149-.742c-.577-.2-1.269-.723-1.712-.561-2.089.762-4.108,1.709-6.472,2.728C3430.113,3491.176,3432.349,3489,3434.927,3488.589Zm-10.2-7.566c.953,1.55,3.413,2.128,6.081,1.38a7.215,7.215,0,0,0,1.655-1l-.3-.383Zm65.822.558-.191-.466c-1.05,0-2.1.028-3.15-.008-1.124-.041-2.244-.178-3.367-.2a2.989,2.989,0,0,0-1.012.387c.267.318.5.86.81.917a15.342,15.342,0,0,0,3.852.377A13,13,0,0,0,3490.55,3481.58Zm-57.7,10.339c1.29,1.665,4.063,1.4,7.236-1.019-.841-.2-1.493-.561-2.038-.439C3436.281,3490.856,3434.549,3491.43,3432.854,3491.919Zm42.48-1.263.063.6c3.326,2.116,5.472,2.3,6.917.629-1.553-.406-3.12-.874-4.716-1.2A11.407,11.407,0,0,0,3475.334,3490.656Zm-40.3,28.155,0,.659h14.324l.007-.572C3444.583,3518.745,3439.81,3518.6,3435.03,3518.811Zm36-16.756c-.726-1.623-1.407-3.145-2.089-4.671l-1.662.615C3468.206,3501.5,3469.265,3502.612,3471.027,3502.055Zm-.336,12.652.239.784,10.879-3.715-.265-.78Zm-26.619-12.669c1.813.611,3.38-1.145,3.618-4.1l-1.5-.523C3445.479,3498.965,3444.8,3500.451,3444.072,3502.038Zm35.8,27.264c.041-1.386-4.033-3.261-7.706-3.492C3474.487,3528.174,3477.489,3528.012,3479.875,3529.3Zm-41.467-40.343c-2.69-.965-4.629.992-7.37,1.473C3433.711,3491.444,3437.237,3490.624,3438.408,3488.959Zm2.521,12.338c-.012-.015.11.238.216.231.762-.053,1.869.123,2.21-.3a17.157,17.157,0,0,0,1.852-3.517c.029-.06-.31-.421-.456-.408a1.171,1.171,0,0,0-.694.376C3443.009,3498.858,3441.989,3500.064,3440.929,3501.3Zm37.645,18.118-.012-.639a128.747,128.747,0,0,0-12.952.2l.012.435Zm-3.141-4.625c2.947.656,5.316-1.136,7.9-2.017C3480.375,3512.064,3478.048,3514.039,3475.433,3514.791Zm-1.265-13.044-.056-.554c-1-1.149-1.961-2.33-3.018-3.421-.216-.223-.778-.111-1.181-.154a19.375,19.375,0,0,0,1.9,3.651C3472.2,3501.749,3473.36,3501.607,3474.167,3501.747Zm-26.872,5.108c-.677.509-1.363,1.021-2.05,1.536,1.888-2.227,2.245-2.893,1.953-4.827-1.272,2.1-2.346,3.871-3.5,5.777C3446.583,3509.317,3447.513,3508.621,3447.3,3506.855Zm7.213-28.732c-.246-.606-.4-1.646-.742-1.71-1-.188-2.323-.34-3.05.166-.6.419-.544,1.792-.779,2.744l.534.36C3451.038,3477.069,3452.887,3478.865,3454.508,3478.123Zm22.283,10.821c1.143,1.729,4.964,2.563,6.774,1.59C3480.721,3488.979,3479.157,3488.6,3476.791,3488.944Zm-1.561,3.226c-.531,1.341-.448,1.5,1.13,2.224,2.041.931,2.895.786,3.627-.616Zm-35.371.014-4.844,1.633c1.055,1.389,2.372,1.444,4.357.279C3440.227,3493.593,3440.684,3493.052,3439.86,3492.183Zm38.548-8.087c-3.775-.836-4.583-.645-4.864,1.153C3476.519,3486.064,3477.892,3485.738,3478.408,3484.1Zm-41.591-.206c.444,1.849,2.588,2.25,4.957,1.141C3440.586,3482.325,3438.358,3484.707,3436.817,3483.89Zm39.181,4.83c-2.9-.71-3.19-.614-4.03,1.318C3474.238,3491.174,3475.6,3490.729,3476,3488.72Zm-36.9-.3c.428,2.371,2.059,2.851,4.052,1.467C3442.437,3487.392,3440.564,3488.827,3439.1,3488.423Zm5.645,3.085-.317-.766a16.422,16.422,0,0,0-2.51.547c-.464.174-.8.7-1.193,1.063.61.332,1.376,1.07,1.8.909A9.067,9.067,0,0,0,3444.742,3491.509Zm25.944-.774-.345.785a13.479,13.479,0,0,0,2.4,1.78c.329.153,1.09-.415,1.523-.8a1.235,1.235,0,0,0-.2-1.045C3472.962,3491.141,3471.818,3490.958,3470.686,3490.734Zm-25.233,1.04-3.642,3.045c.894.217,1.6.628,2.16.477C3445.33,3494.928,3445.9,3493.357,3445.453,3491.774Zm-3.1-5.86-4.167.515c1.027,1.727,2.088,1.923,4.455.886C3442.558,3486.89,3442.467,3486.446,3442.357,3485.915Zm27.3,5.854c-.477,1.582.26,3.378,1.651,3.611.533.089,1.169-.445,1.8-.712Zm7.43-5.291c-1.556-.206-2.9-.386-4.369-.582-.061.568-.114,1.065-.169,1.587C3474.236,3488.041,3475.746,3488.4,3477.092,3486.478Zm-11.311,13.607.493.022c.3-1.61.632-3.215.851-4.834.043-.324-.366-.708-.565-1.064-.261.362-.724.711-.744,1.084C3465.732,3496.887,3465.781,3498.487,3465.781,3500.084Zm-2.363,7.359c-.542,2.774,1.6,3.6,2.442,5.157.251-1.044,1.38-2.147-.3-2.953-.089.466-.164.849-.244,1.274C3464.721,3509.837,3464.167,3508.819,3463.418,3507.443Zm-12.112.449-1.711,3.248-.1-1.511c-1.207.933-1.221,1.232-.135,3.184C3449.916,3510.968,3452.177,3510.209,3451.306,3507.892ZM3449.2,3493.7c-.664.656-1.285,1.007-1.251,1.279.213,1.748.57,3.478.88,5.215l.371-.081Zm-3.206,17.673-.213-.184c.438-.514.878-1.028,1.4-1.642-2.515.395-2.571.468-2.288,2.784,2.646-.366,2.86-.5,2.783-1.929Zm-1.293-15.356.07.643c.645-.309,1.5-.459,1.886-.964.608-.791,1.283-1.806.2-3.016C3446.064,3493.9,3445.381,3494.958,3444.7,3496.017Zm-.623,19.481c.083-.244.166-.487.249-.73q-2.985-1.017-5.971-2.031l-.256.751Zm25.969-5.425-2.522-.853,2.072,2.418-2.247-1.2c-.177,1.382.5,1.78,2.86,1.757C3470.153,3511.485,3470.1,3510.783,3470.044,3510.073Zm.561-13.77-2.244-3.5c-1.491.671-.512,1.7-.194,2.417C3468.576,3496.134,3469.238,3497.078,3470.6,3496.3Zm-33.655-9.731c.022-.3.044-.6.065-.907h-4.756l-.053.611Zm45.926-.258c-.022-.288-.043-.577-.066-.865-1.509.675-3.245-.809-4.687.5l.041.6Zm-48.892,25.194c2.991,1.608,3.4,1.62,4.6,0Zm-3.52,7.328.116.442c1.406-.528,3.479,1.006,4.4-1.75Zm5.577,7.781c1.366-.618,3.886.2,3.882-2.74Zm-7.6-43.241.038.564,5.177-.4-.083-.874Zm53.212-.718c-.015.322-.028.644-.042.965l4.976.322c.016-.184.03-.368.046-.552Q3484.147,3483.026,3481.657,3482.657Zm-13.432,20.037.255-.517-1.56-2.51c-.313.856-.551,1.507-.9,2.453Zm15.377-18.212-4.343-.829-.12.775A4.688,4.688,0,0,0,3483.6,3484.482Zm-47.609.223-.153-1.1-3.886.825.068.572Zm12.176,14.975c-.612,1.008-1.063,1.75-1.514,2.491l.23.478,2.154-.5Zm11.014,20.91.34-.624q-1.644-.646-3.29-1.289l-.272.665Z" transform="translate(-3380.458 -3413.858)" fill="#efefef"/>
  <path id="Path_1472" data-name="Path 1472" d="M3501.889,3517.677c-1.238-3.442.058-6.776.739-10.307l1.893,3.839c-.651-3.952-1.568-7.917.716-11.743,2.883,4.447,2.827,8.854-.232,13.3l.648.109c.424-.9.874-1.779,1.266-2.688.422-.976.789-1.974,1.287-3.232,1.266,4.369.8,8.177-1.778,11.509.226.47.635.908.584,1.284-.161,1.185.111,2.7-1.444,3.179-1.325.407-1.67,1.284-2.139,2.491a21.46,21.46,0,0,1-2.868,4.427,9.5,9.5,0,0,0-1.445,2.074l2.44-.822c.274,1.612-.51,3.456-1.845,3.462-2.765.016-3.6,2.092-4.684,4.057.964-.693,1.928-1.384,3.071-2.208-.38,2.791-1.387,5.236-3.586,6.6-1.968,1.219-4.408,1.676-6.583,2.815l2.223.275c-.616,2.023-1.9,2.843-3.855,2.319a2.77,2.77,0,0,0-3.376,1.151,14.014,14.014,0,0,1-2.534,2.236c-.568.471-1.82.438-1.232,1.728-1.147.277-2.384.971-3.424.747-2.225-.481-2.352-.661-4.875.548.985.258,1.844.482,2.7.708l.2.553c-2.091.972-4.115,2.5-6.292,2.762-2.229.269-4.609-.7-7.092-1.152l1.524,1.828c-.944-.1-1.745.047-2.254-.273a6.05,6.05,0,0,0-6.879-.117c-1.2.709-2.107-.112-2.448-1.413-6.086,2.178-7.614,1.738-12.377-2.131l3.126-.8a3.4,3.4,0,0,0-4.1.584c-.957.993-1.523,1.252-2.241-.083-.1-.179-.3-.422-.456-.431-1.573-.067-1.4-1.105-1.164-2.018-1.1-.721-2.131-1.324-3.081-2.033s-1.824-1.531-2.753-2.322a3.625,3.625,0,0,1-3.846-.148c-1.125-1.1-1.254-2.127-.252-3.609-5.828.3-8.332-3.15-9.7-8.454l3.153,2.329.255-.225a42.863,42.863,0,0,0-2.756-3.99c-.292-.343-1.25-.146-1.9-.147-.426,0-1.083.288-1.235.107a14.72,14.72,0,0,1-1.674-2.533.976.976,0,0,1,.311-.914,2.1,2.1,0,0,1,1.33-.11,12.377,12.377,0,0,0,1.473.6c-2.455-2.564-5.053-4.992-4.581-9.081-.245.288-.437.676-.748.838-.375.2-1.182.364-1.231.264a12.466,12.466,0,0,1-1.178-3.063c-.077-.4.59-.946.975-1.508-2.9-3.25-3.438-7.234-2.164-11.8.941,2.182,1.78,4.124,2.619,6.065l.207-.069c-.675-2.242-1.837-4.472-1.892-6.73s.99-4.563,1.779-6.823c2.6,3.716,1.6,7.67,1.04,11.617l1.86-3.745.51.109q.438,4.778.874,9.556l-.373,0a32.017,32.017,0,0,1,2.3,2.969c.6.968-.295,1.559-1.963,1.412l2.51,5.589c1.76-.3,2.085-.036,1.818,1.705l.722-.711c.3.683.868,1.388.813,2.039-.047.535-.838,1.006-1.591,1.825.2,3.171,2.247,5.73,4.914,7.935l-.059-.066c1.211,2.577,3.619,3.924,5.526,5.789l.648-.427c-.5-.952-1.047-1.884-1.478-2.867a2.321,2.321,0,0,1-.141-1.446,1.12,1.12,0,0,1,1.031-.358,1.865,1.865,0,0,1,.839,1.151c.167,1.2.165,2.415.254,4.085a12.622,12.622,0,0,1,1.26-1.161,4.771,4.771,0,0,1,1.52-.75c.131-.029.688.99.612,1.063a5.821,5.821,0,0,1-1.479.916,2.057,2.057,0,0,0-1.05.68,19.874,19.874,0,0,0,2.131.8c2.555.663,4.818,1.656,6.183,4.155.33.6,1.25.886,1.9,1.316l.377-.4a17.253,17.253,0,0,1-1.51-1.979,1.944,1.944,0,0,1-.13-1.41,1.118,1.118,0,0,1,1.03-.37,1.749,1.749,0,0,1,.819,1.156c.052,2.219.93,3.5,3.013,4.1a6.385,6.385,0,0,0,2.649.306l-4-3.215.491-.585c3.623,1.178,7.729.851,10.837,3.663a2.007,2.007,0,0,0,1.144.4c2.132.154,4.267.3,6.4.363a4.643,4.643,0,0,0,2.927-1c1.843-1.264,4.194-1.817,6.376-2.54a14.033,14.033,0,0,1,4.132-.592l-3.715,3.914c2.33-1.091,4.324-2.055,5.021-4.556q.721-2.587,3.734-2.256c-.625,1.457-.8,3.167-2.868,3.521-.393.067-.651.919-1.229,1.8,1.927-.523,3.2-.877,4.027-2.4,1.173-2.165,3.416-2.908,5.667-3.356a1.785,1.785,0,0,0,1.579-2.322c-.755-2.328,1.039-2.976,2.148-4.28.889,2.017.578,3.243-.858,4.413a3.7,3.7,0,0,0-.647,1.166,4.565,4.565,0,0,0,1.232-.305c1.953-1.119,2.158-3.26,2.439-5.08a8.86,8.86,0,0,1,3.84-6.349c.772-.535,1.442-1.216,2.442-2.071a13.321,13.321,0,0,1-2.965,7.737l.377.239c1.284-1.717,2.857-3.3,3.736-5.2.479-1.038-.074-2.656-.416-3.946a3.244,3.244,0,0,1,1.531-4.13c.562,1.647,1.343,3.2-.351,4.729-.35.317-.171,1.219-.287,2.344,1.83-1.85,2-3.887,2.565-5.743.547-1.809,1.072-3.624,1.549-5.452.122-.466.243-1.21,0-1.447-1.685-1.627-.7-3.157,0-4.785.525.311,1,.592,1.475.877,0,1.068,0,2.131,0,3.2l.378.08c.351-1.068.7-2.137,1.062-3.228Zm-95.562-6.428c1.523-5.437,1.511-8.015-.171-10.611C3406.333,3504.287,3405.079,3507.516,3406.327,3511.249Zm33.275,44.716c3.022.621,5.89,2.452,9.617,1.673C3445.932,3556.067,3443.04,3554.673,3439.6,3555.965Zm-30.667-34.593c.962,2.939,1.12,6.192,3.607,9.106C3412.193,3526.728,3411.833,3523.553,3408.935,3521.372Zm53.509,36.3c3.808.63,6.693-.965,9.72-1.731C3468.773,3554.622,3465.859,3556.047,3462.443,3557.676Zm40.64-36.526c-2.517,1.6-3.789,4.747-3.588,8.995C3501.7,3527.47,3501.856,3524.267,3503.083,3521.15Zm2.263-20.067c-1.833,3.259-.759,6.516.033,9.773C3506.621,3507.6,3505.489,3504.341,3505.346,3501.083Zm-62.36,50.189-.172.606a10.431,10.431,0,0,0,6.877,2.248l.216-.689Zm18.833,2.209.269.795a11.418,11.418,0,0,0,6.88-2.5l-.17-.507Zm-40.792-9.27c-.163-2.211-2.51-4.288-5.241-5.278l-.312.353Zm-14.571-26,.618-.2q-1.223-3.714-2.446-7.429l-.52.167C3404.335,3513.417,3404.772,3516.014,3406.457,3518.215Zm83.5,25.1.38.475c2.5-.79,4.777-2.832,5.238-5.182Zm17.915-32.257-.455-.136c-1.637,2.269-2.551,5.348-1.7,7.345Q3506.8,3514.658,3507.876,3511.054Zm-98.634,5.717.641-.033q-.169-3.261-.342-6.522l-.541.028A9.241,9.241,0,0,0,3409.242,3516.771Zm93.579-6.774c-1.187,2.327-1.29,4.883,0,6.757Zm-67.782,42.147c-1.316-2.805-3.324-4.135-5.976-4.015Zm54.054-11.061c1.474-2.24,2.668-4.056,3.863-5.87A6.058,6.058,0,0,0,3489.093,3541.083Zm-12.069,10.844,5.462-3.691C3479.86,3548.3,3477.936,3549.386,3477.024,3551.927Zm27.633-33.661-.854-.126-.274,4.763.659.04Q3504.423,3520.6,3504.657,3518.266Zm-8.922,12.78.566.095c1.121-1.132,1.143-1.477-.122-3.569C3495.99,3529.043,3495.862,3530.045,3495.735,3531.046Zm4.927-10.192.657-.035-.16-2.984-.566.029C3500.093,3518.885,3499.475,3519.91,3500.662,3520.854Zm-15.932,23.677.53.245q.653-1.4,1.308-2.811C3484.474,3542.779,3484.357,3543,3484.73,3544.53Zm16.591-12.15-.465-.466c-1.08.388-2.2.739-2.256,2.08l.528.526ZM3486.3,3547.2l.427,1.066,2.751-1.237c-.1-.255-.207-.511-.309-.766Zm18.186-25.062.5.281c1.49-.6,1.622-.885,1.107-3.277Zm-30.933,27.852.521.5c1.414-.1,1.78-1.067,1.506-2.6Z" transform="translate(-3378.841 -3428.542)" fill="#efefef"/>
  <path id="Path_1473" data-name="Path 1473" d="M3550.64,3413.316q4.01-14.364,8.02-28.725l.762.207q-4,14.357-8,28.714C3551.16,3413.446,3550.9,3413.38,3550.64,3413.316Z" transform="translate(-3467.191 -3359.867)" fill="#efefef"/>
  <path id="Path_1474" data-name="Path 1474" d="M3588.873,3408.869c-2.858,3.727-5.729,7.444-8.569,11.185-2.2,2.893-4.352,5.818-6.537,8.721-.3.4-.66.744-.993,1.114l-.527-.417q8.619-11.544,17.234-23.087l.518.334q-.57,1.087-1.142,2.175Z" transform="translate(-3480.108 -3372.895)" fill="#efefef"/>
  <path id="Path_1475" data-name="Path 1475" d="M3561.635,3419.694l12.983-26.378.721.358q-6.5,13.208-12.994,26.417Z" transform="translate(-3473.764 -3365.083)" fill="#efefef"/>
  <path id="Path_1476" data-name="Path 1476" d="M3497.774,3387.538q-.3-1.408-.6-2.814l.641-.15q4.017,14.369,8.034,28.736l-.72.208q-3.7-13-7.409-26.009Z" transform="translate(-3435.231 -3359.857)" fill="#efefef"/>
  <path id="Path_1477" data-name="Path 1477" d="M3522.109,3380.214q1.315,14.954,2.629,29.909l-.766.069-2.66-29.912Z" transform="translate(-3449.658 -3357.251)" fill="#efefef"/>
  <path id="Path_1478" data-name="Path 1478" d="M3542.97,3380.332l-2.645,29.9-.773-.069q1.313-14.958,2.625-29.914Z" transform="translate(-3460.563 -3357.27)" fill="#efefef"/>
  <path id="Path_1479" data-name="Path 1479" d="M3486.59,3419.963l-12.932-26.324.716-.353q6.472,13.151,12.942,26.3Z" transform="translate(-3421.17 -3365.066)" fill="#efefef"/>
  <path id="Path_1480" data-name="Path 1480" d="M3454.043,3408.847l-1.185-1.954.45-.393a64.055,64.055,0,0,1,4.22,5.433c1.547,1.967,3,4.009,4.492,6.016q2.191,2.937,4.385,5.872,2.123,2.856,4.232,5.724l-.581.419c-.426-.526-.87-1.039-1.275-1.58q-6.857-9.158-13.706-18.32c-.321-.427-.687-.819-1.032-1.228Z" transform="translate(-3408.736 -3372.965)" fill="#efefef"/>
  <path id="Path_1481" data-name="Path 1481" d="M3437.015,3424.9l16.052,14.98,2.431,2.269-.484.52c-6.989-6.147-13.718-12.581-20.587-18.859l.386-.5,2.254,1.635Z" transform="translate(-3397.717 -3383.016)" fill="#efefef"/>
  <path id="Path_1482" data-name="Path 1482" d="M3582.316,3442.052l20.624-19.013c.183.2.366.4.549.593l-20.627,19.039Z" transform="translate(-3486.127 -3382.852)" fill="#efefef"/>
  <path id="Path_1483" data-name="Path 1483" d="M3441.235,3588.5l.059.067c-1.979-3.207-2.554-4.9-2.075-7.49,1.765,2.134,3.676,4.168,5.219,6.45.6.9.38,2.349.534,3.547l-.5.277Zm2.962,1.176a6.114,6.114,0,0,0-3.984-5.943Z" transform="translate(-3400.486 -3477.33)" fill="#efefef"/>
  <path id="Path_1484" data-name="Path 1484" d="M3599.243,3455.256l19.933-12.514.432.684-19.933,12.512Z" transform="translate(-3496.247 -3394.632)" fill="#efefef"/>
  <path id="Path_1485" data-name="Path 1485" d="M3420.012,3442.783l19.841,12.441-.424.684-19.817-12.409Z" transform="translate(-3388.86 -3394.655)" fill="#efefef"/>
  <path id="Path_1486" data-name="Path 1486" d="M3446.875,3412.313c.045.233.183.5.119.7-.6,1.864-.425,3.377,1.776,4.313l-2.627.472c-.222.789-.471,1.672-.719,2.556-.786-2.442-2.474-2.673-4.557-2.024,0,0,.052.046.051.045.063-.16.085-.379.2-.469,1.583-1.191,2.327-2.572.8-4.73,2.317,1.92,3.758,1.031,4.961-.842A.052.052,0,0,1,3446.875,3412.313Zm-4.011,4.96,2.169,1.211,1.873-1.63c-.328-.76-.717-1.657-1-2.32l-2.46.3C3443.246,3415.661,3443.027,3416.583,3442.864,3417.273Z" transform="translate(-3401.566 -3376.44)" fill="#efefef"/>
  <path id="Path_1487" data-name="Path 1487" d="M3590.421,3404.6c2.021-1.333,2.46-2.795,1.15-4.869,1.865,1.215,3.49,1.777,4.988-.594-.543,2.227-.733,4.044,2.1,4.733-2.508-.031-3.732.911-3.918,3.333C3594.037,3405.087,3593.018,3403.722,3590.421,3404.6Zm2.01-.855,2.106,1.3c.632-.527,1.35-1.127,1.914-1.6l-.932-2.312-2.474.187C3592.852,3402.079,3592.624,3402.98,3592.431,3403.742Z" transform="translate(-3490.972 -3368.562)" fill="#efefef"/>
  <path id="Path_1488" data-name="Path 1488" d="M3574.854,3396.556c-.687-.91-1.2-1.593-1.794-2.378l-3.249.651c1.867-1.757,2.655-3.3.472-5.1,2.083.845,3.776,1.1,4.939-1.346-.182,2.253.313,3.816,2.568,4.354-.8.279-1.872.337-2.334.9C3574.975,3394.216,3575.08,3395.283,3574.854,3396.556Zm-3.117-3.12,2.575.981,1.6-1.877c-.493-.713-1.023-1.48-1.4-2.025l-2.617.587.6,1.241Z" transform="translate(-3478.652 -3362.132)" fill="#efefef"/>
  <path id="Path_1489" data-name="Path 1489" d="M3465.543,3399.536c-.514,2.441-.514,2.441,1.1,4.9-2.5.188-2.5.188-4.193,2.717-.091-2.386-1.263-3.45-3.666-3.135,2.153-2.01,2.153-2.01,1.983-5.027C3462.266,3400.85,3463.8,3401.38,3465.543,3399.536Zm-2.506,5.71c-.139-1.51,1.127-1.3,1.88-1.367-.23-1.011-.442-1.941-.6-2.64l-2.511-.226c-.3.767-.644,1.645-.909,2.326C3461.469,3403.852,3462.176,3404.481,3463.037,3405.247Z" transform="translate(-3412.28 -3368.473)" fill="#efefef"/>
  <path id="Path_1490" data-name="Path 1490" d="M3552.661,3382.181l.553,2.657,2.984.707c-2.043.908-3.663,1.921-2.662,4.339-.7-.584-1.335-1.485-2.127-1.657-.722-.158-1.616.475-2.739.864.454-1.035,1.132-1.853,1.041-2.572-.1-.755-.929-1.416-1.755-2.554C3550.254,3384.71,3551.829,3384.336,3552.661,3382.181Zm1.284,3.7-1.765-1.854-2.166,1.129.2,2.439,2.537.466C3553.139,3387.355,3553.6,3386.517,3553.945,3385.877Z" transform="translate(-3465.587 -3358.427)" fill="#efefef"/>
  <path id="Path_1491" data-name="Path 1491" d="M3630.98,3431.258c-.464.742-.927,1.482-1.408,2.249l1.482,2.187c-1.985-.563-3.566-.421-4.544,1.919.131-2.338-.518-3.84-3.229-3.906,2.317-.583,3.446-1.639,2.871-4.125,1.306,1.825,2.712,2.675,4.739,1.168C3630.921,3430.919,3630.95,3431.09,3630.98,3431.258Zm-5.715,2.6c1.55-.268,1.476,1.033,1.775,2.3.48-1.9,1.71-1.294,2.354-1.169v-2.774l-2.372-.589Z" transform="translate(-3510.618 -3386.763)" fill="#efefef"/>
  <path id="Path_1492" data-name="Path 1492" d="M3486.856,3389.463c-1.59,1.531-2.036,3.1-.206,4.909l-2.632-.517-1.933,2.637c.174-2.518-.326-4.159-3.085-4.064,2.172-.706,3.345-1.832,2.472-4.585a8,8,0,0,1,1.1,1,1.929,1.929,0,0,0,2.951.828,3.892,3.892,0,0,1,1.374-.179Zm-4.324.625-1.316,2.048c.5.652,1.077,1.414,1.711,2.245.258-1.47,1.451-1.063,2.2-.921-.076-1.012-.149-1.976-.205-2.705Z" transform="translate(-3424.364 -3361.811)" fill="#efefef"/>
  <path id="Path_1493" data-name="Path 1493" d="M3503.663,3389.525c.785-2.4-.093-3.653-2.4-4.382,2.248-.24,3.8-.925,3.062-3.729l.6.248c.472.754.946,1.508,1.437,2.294l3.014-.384c-.767.973-1.623,1.589-1.72,2.308-.1.755.52,1.609.988,2.855C3506.657,3387.451,3505.025,3387.459,3503.663,3389.525Zm3.431-2.362.262-2.469-2.2-1.1-1.75,1.828,1.195,2.136Z" transform="translate(-3437.673 -3357.968)" fill="#efefef"/>
  <path id="Path_1494" data-name="Path 1494" d="M3431.036,3437.4c-1.084-2.132-2.525-2.687-4.617-1.969l1.455-2.18-1.738-2.738c2.17.887,3.976,1.395,4.943-1.348-.19,2.426.411,3.935,3.044,4.126C3431.933,3433.889,3430.438,3434.732,3431.036,3437.4Zm-2.527-4.149c-.306.519-.584.991-.862,1.462,1.454-.961,2.1.27,2.619.789.655-.841,1.259-1.614,1.846-2.367l-1.291-.561-.138-1.3-2.893.728Z" transform="translate(-3392.76 -3386.518)" fill="#efefef"/>
  <path id="Path_1495" data-name="Path 1495" d="M3610.405,3412.594c1.265,1.74,2.7,2.656,4.9.709-1.067,2.014-1.259,3.648,1.083,4.947-2.316-.46-3.908-.07-4.062,2.7l-.418-.371c-.25-.863-.5-1.725-.759-2.625l-2.859-.479a5.6,5.6,0,0,1,1.021-.806c1.321-.521,1.561-1.42,1.125-2.691a4.538,4.538,0,0,1-.019-1.4Zm3.491,2.44-2.471-.422-1.067,2.338c.667.612,1.35,1.241,2.036,1.874-.02-1.458,1.354-1.045,2.074-1.134C3614.252,3416.684,3614.051,3415.755,3613.9,3415.034Z" transform="translate(-3501.656 -3376.596)" fill="#efefef"/>
  <path id="Path_1496" data-name="Path 1496" d="M3642.368,3452.365l1.021,2.436c-1.932-1.118-3.436-.984-4.763,1.085.193-2.021.339-3.887-2.113-4.6l2.628-.688c.2-.872.387-1.724.728-3.25.753,2.592,1.96,3.683,4.3,2.966Zm-2.215-2.424-1.775,1.726c.37.749.791,1.6,1.234,2.5l1.065-.877,1.243.518c.173-1.042.328-1.98.456-2.753Z" transform="translate(-3518.527 -3397.387)" fill="#efefef"/>
  <path id="Path_1497" data-name="Path 1497" d="M3419.219,3456.813c-1.408-1.975-2.914-2.117-4.869-.7,1.307-2.006,1.162-3.587-.873-5.021,2.411.857,3.713-.021,4.571-2.057.194.828.389,1.657.608,2.593l3.283.785C3419.319,3453.143,3418.536,3454.52,3419.219,3456.813Zm-1.566-5.915-2.213,1.154.416,2.495,2.348.335,1.248-2.1Z" transform="translate(-3385.193 -3398.395)" fill="#efefef"/>
  <path id="Path_1498" data-name="Path 1498" d="M3531.335,3386.768c-2.737-1.146-2.737-1.146-5.42.152,1.094-2.083,1.081-3.727-1.454-4.674,2.311.095,3.93-.336,4.08-3.084.568,2.336,1.632,3.466,4.073,2.911C3531.055,3383.37,3529.453,3384.524,3531.335,3386.768Zm-3.967-1.582h2.489c.231-.712.534-1.654.792-2.458l-2.248-1.481c.269,1.582-1.371.975-1.894,1.26C3526.859,3383.6,3527.147,3384.5,3527.368,3385.186Z" transform="translate(-3451.541 -3356.621)" fill="#efefef"/>
  <path id="Path_1499" data-name="Path 1499" d="M3634.372,3469.065l10.318-4.068q.147.37.3.738l-10.32,4.059Z" transform="translate(-3517.247 -3407.936)" fill="#efefef"/>
  <path id="Path_1500" data-name="Path 1500" d="M3418.58,3469.653l-10-3.954.287-.733,10,3.953Z" transform="translate(-3382.263 -3407.916)" fill="#efefef"/>
  <path id="Path_1501" data-name="Path 1501" d="M3530.034,3480.38q-.105-1.028-.21-2.059c2.221-.258,3.268.247,4.082,1.966a5.766,5.766,0,0,0-2.034-.852c-.623,0-1.25.583-1.874.91Z" transform="translate(-3454.747 -3415.863)" fill="#efefef"/>
</svg>
