<svg id="Group_715" data-name="Group 715" xmlns="http://www.w3.org/2000/svg" width="148.985" height="149.297" viewBox="0 0 148.985 149.297">
  <path id="Path_1780" data-name="Path 1780" d="M3891.086,3421.185c.878-4.625,1.527-9.311,2.677-13.867a70.816,70.816,0,0,1,19.713-33.971c14.782-14.353,32.636-21.606,53.221-21.329,20.288.275,37.836,7.746,52.045,22.265,14.833,15.155,22.186,33.619,21.249,54.779-1.148,25.936-12.653,46.69-34.859,60.28-26.7,16.339-54.1,15.857-80.461-.907-18.442-11.727-29.116-29.148-32.558-50.846-.321-2.02-.684-4.034-1.027-6.052Zm74.379,78.175c39.852.264,72.976-32.456,73.078-72.66a72.866,72.866,0,1,0-145.731-.4C3892.716,3466.741,3925.069,3498.934,3965.466,3499.359Z" transform="translate(-3891.086 -3352.011)" fill="#efefef"/>
  <path id="Path_1781" data-name="Path 1781" d="M4046.157,3449.478c.25,30.65-24.945,56.253-55.338,56.777a56.865,56.865,0,0,1-57.782-56.189c-.275-31.182,25.05-56.632,56.544-56.868C4020.484,3392.964,4045.9,3418.249,4046.157,3449.478Zm-57.5,46.092c.481,2.253,1.149,4.38,3.784,4.978a5.421,5.421,0,0,0,5.262-1.195c-2.374-.063-5.243,1.706-6.794-.962-1.184-2.036-1.306-4.691-1.9-7.071l-.317-.05c0,1.446,0,2.893-.017,4.32-2.72-1.9-5.481-3.633-9-2.157A16,16,0,0,0,3988.656,3495.57Zm-35.2-69.414c-.586.377-1.176.755-1.763,1.131.519.5,1.1,1.486,1.545,1.425,3.26-.448,6.5-1.062,9.724-1.737.543-.114.967-.788,1.448-1.2l-.236-.692c-3.172.531-6.34,1.089-9.521,1.561-.385.056-.84-.351-1.276-.557l8.526-2.358c-.917-.846-1.594-1.9-2.5-2.17a2.8,2.8,0,0,0-2.543.858C3956.029,3424.018,3952.66,3423.24,3953.454,3426.156Zm24.5,1.247a6.752,6.752,0,0,0,2.068-.975c1.308-1.321,2.228-3.621,3.718-4.035,2.843-.791,1.664-2.51,2-4.141a10.163,10.163,0,0,0-1.538.086c-3.391.8-5.606,4.082-6.178,9.128-.332-.542-.942-1.089-.934-1.627a18.247,18.247,0,0,1,.729-3.392c-2.536,2.321-2.6,5.1-.219,7.479Zm27.589,54.048-1.6-1.673c2.533-.665,2.55-.8.455-5.058l-2.148,3.059,1.791,2.1-3.785-2.694c2.69-.443,3.521-2.719,4.5-4.739a57.52,57.52,0,0,0,2.68-6.609,2.128,2.128,0,0,0-.619-1.96c-.632-.319-2.112-.295-2.3.066-1.259,2.426-3.514,4.5-2.752,7.739.2.864-.515,1.937-.778,2.922-.237.885-.429,1.782-.638,2.673a54.141,54.141,0,0,0-4.114,6.6c-.229.492,1.373,2,2.325,2.821.87.746,2.053,1.111,3.007,1.774,2.441,1.7,4.815,3.493,7.261,5.182a4.876,4.876,0,0,0,1.694.356c-.086-1.558-.161-2.894-.235-4.229.878.232,1.822.8,2.624.643,5.3-1.037,10.579-2.224,15.858-3.381.572-.125,1.336-.2,1.638-.592,2.382-3.069,4.671-6.208,6.989-9.325-.785-.428-1.127-.446-1.411-.328-8.158,3.4-16.292,6.861-24.477,10.193-1.606.654-1.4,1.656-1.164,2.851q-1.663-3.26-3.329-6.52l9.971-6.26-3.6-2.422a4.629,4.629,0,0,0-.488.573c-1.4,2.292-2.374,5.079-6,4.557C4006.531,3479.708,4006,3480.859,4005.541,3481.451Zm-26.783-3.951c.888-.739,1.777-1.478,2.738-2.279l-1.5-2.821c-.116,1.858-3.057,2.992-1.211,5.087q-2.665,2.006-5.331,4.01l.048-1.965a5.827,5.827,0,0,0-1.515.354c-1.851,1-3.012.584-3.615-1.419a20.126,20.126,0,0,1-.363-1.98l-3.957.816c2.613,1.8,4.62,3.069,6.5,4.505a1.834,1.834,0,0,0,2.981-.41q-1.665,3.119-3.335,6.237l-27.688-10.26c2.823,4.637,4.621,9.935,11.1,10.609,4.923.513,9.759,1.849,14.4,2.77.865-1.233,1.528-2.18,2.191-3.127l-1.9,7.513c5.147-1.033,8.432-3.289,9.906-7.932.433-1.365,1.719-2.475,2.669-3.659,2.117-2.629,4.269-5.23,6.4-7.844l-.723-.994C3983.953,3475.65,3981.346,3476.584,3978.759,3477.5Zm-31.717-12.3,5.267,4.307c-.166-2.278-.271-3.735-.35-4.824l-4.976.582c-.651-1.366-1.723-2.708-.046-4.133a1.265,1.265,0,0,0,.146-1.082c-.552-1.815-1.169-3.61-1.638-5.025l-3.156-.3c.234-1.57.468-3.14.75-5.033l-8.087-7.179c0,5.039-.017,9.392.023,13.745a1.845,1.845,0,0,0,.55,1.349C3939.34,3460.179,3943.2,3462.679,3947.042,3465.2Zm-10.885-4.336-.658.525c1.4,3.858,2.687,7.767,4.278,11.546a5.547,5.547,0,0,0,2.76,2.668c8.512,3.492,17.087,6.828,25.648,10.2a17.572,17.572,0,0,0,1.873.517l1.363-2.552a14.146,14.146,0,0,0-2.117-1.521c-2.334-1.1-3.818-4.383-7.285-2.783-.447.206-1.52-.668-2.144-1.221-.461-.409-.57-1.51-1-1.611-2.378-.567-3.533-2.56-5.243-3.9C3948.1,3468.406,3942.024,3464.768,3936.157,3460.865Zm106.942,1.765-.7-.381c-3.849,2.423-7.742,4.777-11.533,7.287-3.737,2.474-7.288,5.238-11.075,7.63-3.807,2.4-7.8,4.5-11.791,6.779l1.653,3.145c9.588-4.493,18.992-8.891,28.381-13.316a2.665,2.665,0,0,0,1.347-1.092C4040.681,3469.354,4041.874,3465.984,4043.1,3462.629Zm-76.684-45.953c1.91-2.57,1.543-6.143,4.693-7.691.538-.264.817-1.708.7-2.532-.38-2.626-1-5.217-1.571-8.016-1.309.531-2.436.918-3.5,1.436a49.026,49.026,0,0,0-5.253,2.754c-7.136,4.618-5.865,2.309-3.39,9.984C3961.174,3411.368,3965.569,3413.382,3966.415,3416.677Zm24.925-13.156c2.859-.536,3.657.891,2.89,4.375,2.633-1.269,4.9-1.875,6.492-3.254,1.909-1.651,2.69-1.874,4.128.333.279.429.565.854,1.021,1.541.437-2.583.9-4.77,1.124-6.978.066-.653-.4-1.884-.824-1.982-4.792-1.111-9.622-2.053-14.83-3.12Zm-2.918-8.823-14.3,2.058c.6,5.107,1.14,9.743,1.772,15.155.973-.9,1.567-1.2,1.743-1.666.694-1.828.943-3.9,1.94-5.524,1.689-2.753,2.968-2.9,4.407-.181a10.431,10.431,0,0,0,1.621,1.738c1.024-1.188,2.522-2.137,2.694-3.286A57.828,57.828,0,0,0,3988.422,3394.7Zm-34.226,27.07c-.183-1.108-.389-2.348-.583-3.517l2.847-1.215-4.5-7.838c-3.2,4-6.092,7.574-8.906,11.212a1.841,1.841,0,0,0-.068,1.651c1.416,2.521,2.944,4.979,4.434,7.458l.654.2c.393-2.724,2.2-3.993,4.306-4.985.237-.111.273-.6.452-.89C3953.257,3423.16,3953.716,3422.5,3954.2,3421.768Zm72.6,48.408c5.5-3.838,10.721-7.469,15.922-11.122.4-.283.94-.678,1.005-1.087a39.2,39.2,0,0,0-.131-14.4,44.183,44.183,0,0,0-5.41,6.138,58.076,58.076,0,0,0-3.07,5.4c2.042,2.207.406,5.076-.011,7.846-.052.354-1.516.5-2.326.737-1.037,1.4-2.423,3.3-3.792,3.283C4026.4,3466.952,4026.313,3467.908,4026.794,3470.176Zm-86.686-45.158c-1.48,4.594-2.916,8.958-4.257,13.35a1.92,1.92,0,0,0,.491,1.556q3.807,3.867,7.757,7.589c.337.316,1.084.193,1.642.273a22.116,22.116,0,0,0-3.613-4.2,2.355,2.355,0,0,1,.972-4.072c1.422-.453,2.88-.8,3.827-1.055C3946.208,3433.2,3944.7,3428.626,3940.109,3425.018Zm99.072.323-.943,0c-1.663,2.292-3.412,4.526-4.93,6.91-.4.628-.376,2.328-.037,2.494,2.387,1.167,2.1,3.214,2.094,5.245a25.323,25.323,0,0,0,.211,4.036c.1.619.632,1.544,1.106,1.64a2.874,2.874,0,0,0,2.128-.676,27.811,27.811,0,0,0,3.587-3.706,3.382,3.382,0,0,0,.813-2.473C4041.976,3434.292,4040.546,3429.825,4039.181,3425.341Zm-17.875-10.517,3.335-7.579-13.986-8.576c-.648,3.06-1.23,5.461-1.645,7.889-.261,1.526.487,1.651,1.838,1.221,2.344-.747,4.385.809,3.856,2.816a10.07,10.07,0,0,1-1.013,1.965l2.622,1.371C4018.834,3411.742,4019.423,3411.822,4021.306,3414.824Zm4.75,8.122,3.979,1.06a17.266,17.266,0,0,0-.853,3.405,10.179,10.179,0,0,0,.652,2.822c.678-.262,1.626-.327,1.983-.821,1.51-2.085,2.873-4.282,4.214-6.481.272-.445.505-1.291.276-1.6-2.8-3.844-5.687-7.625-8.553-11.42l-.9.386c-.365,2.572-3.934,4.676-.767,7.8.273.27.147.989.133,1.5C4026.181,3420.82,4026.1,3422.048,4026.055,3422.946Zm-57.974,68.852-16.472-2.893-.308.776c3.015,2.225,5.913,4.635,9.075,6.626C3964.031,3498.608,3968.125,3496.285,3968.081,3491.8Zm32.5-76.694c-.178.151-.545.332-.531.47.326,2.919-4.176,5.367-.856,8.58.079.076.039.345-.025.488-1.2,2.655,1.108,3.236,2.526,4.685v-10.083a26.088,26.088,0,0,1,1.635,6.638c.217,2.205.047,4.447.047,6.505C4007.356,3427.389,4006.011,3418.3,4000.576,3415.1Zm21.051,55.481c.749-.67,1.184-1.3,1.418-1.233,2.112.6,2.549-.72,2.678-2.283.132-1.593.121-3.2.139-4.8.035-2.939-1.351-5.273-3.229-7.4q.543,5.995,1.085,11.988l-.812.115-2.072-10.945-.716-.252c-.405.821-1.372,2.035-1.12,2.4,1.061,1.517.459,2.818.106,4.277a4.371,4.371,0,0,0,.453,2.112c.236.711.629,1.371.87,2.082C4020.823,3467.808,4021.15,3469,4021.628,3470.585Zm-19.98-23.577c-.543-.345-1.08-.974-1.63-.984-1.911-.039-3.551-.482-5.7.872-3.488,2.2-5.1,4.4-3.064,8.7,2.392-1.063,4.777-2.153,7.188-3.183,1.794-.766,3.621-1.456,5.874-2.356-5.511-2.936-9.187-.709-12.746,3.814C3993.1,3448.712,3996.522,3446.713,4001.647,3447.008Zm25.9,42.61-.338-.717-15.889,2.648c-.487,2.114.18,3.081,2.02,3.372,1.9.3,4.218,1.623,5.566.942C4022.042,3494.281,4024.7,3491.76,4027.55,3489.618Zm-52.45-44.264,5.269-4.919c.083-.423.563-.3.929-.447.962-.4,1.874-.912,2.806-1.382-.816-.744-1.524-1.89-2.474-2.147-1.9-.515-4.038-2.545-5.869.235-.062.1-.517-.134-.7-.04a4.284,4.284,0,0,0-3.1,4.083,15.439,15.439,0,0,0,.587,3.483c1.52-5.4,2.983-6.978,6.9-6.674C3975.477,3438.652,3974.879,3441.688,3975.1,3445.354Zm9-4.575-.922.816,3.484,3.282-.664.656c-5.272-3.211-5.924-3.171-8.6.7,1.01.152,1.931.251,2.832.441a5.9,5.9,0,0,1,2.238.681c1.042.759,5.486,1.173,6.442.392a1.581,1.581,0,0,0,.461-.577c.928-2.267-.046-4.126-2.46-4.932A22.708,22.708,0,0,1,3984.1,3440.78Zm-11.538-15.535c.319-.4.495-.523.515-.667.648-4.633,1.323-9.263,1.869-13.909a2.844,2.844,0,0,0-.842-1.967,1.7,1.7,0,0,0-1.6.149,12.091,12.091,0,0,0-4.257,7.882c-.1.722.5,1.538.779,2.31,1.185-3.493,1.554-6.984,4.354-9.447C3971.431,3414.671,3969.1,3419.666,3972.558,3425.245Zm12.789,49.143c-.376-2.37-.759-4.559-1.067-6.758-.532-3.8-1.39-4.575-5.943-4.805,1.3,4.251,2.541,8.334,3.8,12.465C3983.411,3474.934,3984.227,3474.7,3985.347,3474.388Zm20.816-54.811c5.083-.282,4.487-4.771,6.585-7.015a2.833,2.833,0,0,0,.555-1.57,3.522,3.522,0,0,0-.154-2.048c-.2-.322-1.167-.267-1.773-.212-.563.051-1.1.387-1.661.49-1.034.19-2.747-.008-2.989.509-.54,1.155-.346,2.652-.493,4.538l5.572-4.861a60.447,60.447,0,0,1-4.993,7.234C4006.291,3417.372,4006.374,3418.536,4006.164,3419.578Zm18.45-1.567c-2.179.641-3.763.537-5.335,2.639-1.377,1.842-2.071,2.88-1.322,4.851l4.683-6.239.652.512c-1.116,1.791-2.286,3.551-3.333,5.38-2.136,3.731-2.124,3.838-.952,6.065.423-.292,1.2-.586,1.191-.855-.085-2.506,3.728-3.112,2.85-5.942C4026.072,3423,4024.552,3420.517,4024.614,3418.01Zm-38.99,6.125,4.392.476c-5.055.154-7.567,2.351-8,7.363,1.255-.9,2.915-1.541,3.671-2.75,1.227-1.961,3.151-1.336,4.722-1.891a14.286,14.286,0,0,1,3.31-.371l.3-1.166a31.658,31.658,0,0,1-3.645-2.372C3987.872,3421.285,3987.92,3421.229,3985.623,3424.135Zm-16.269,4.677c-1.261-.758-2.089-1.572-3-1.684a2.31,2.31,0,0,0-1.757,1.486,5.24,5.24,0,0,0,1.055,2.835c2.511,3.655,6.107,1.658,9.4,1.693a7.147,7.147,0,0,0-2-1.859c-.445-.3-1.293-.514-1.333-.841C3971.47,3428.393,3970.3,3428.369,3969.354,3428.812Zm59.287,19.246c2.069.537,3.3-.675,4.142-2.35a11.519,11.519,0,0,0,1.089-3.414,10.831,10.831,0,0,0-.054-3.809c-.084-.39-1.785-.921-1.956-.72a44.193,44.193,0,0,0-4.021,5.453,18.553,18.553,0,0,0-1.321,3.684l.616.322,4.974-5.53.525.383Zm-54.712,13.178-.652-.337c-3.489,4.427-6.357,9.152-7.353,15.632,1.871-1.964,2.993-3.751,4.61-4.667a2.945,2.945,0,0,0,1.676-3.229,13.837,13.837,0,0,1,.239-3.7A26.131,26.131,0,0,1,3973.928,3461.236Zm31.441-11.944c.5-1.112.811-1.973,1.245-2.768,1.313-2.4.247-5.438,2.332-7.762.829-.922-.441-2.329-1.731-1.775a5.388,5.388,0,0,0-2.91,2.753A11.509,11.509,0,0,0,4005.37,3449.292Zm-62.578-7.794,12.645,4.415C3954.74,3440.983,3950.222,3438.19,3942.792,3441.5Zm44.73-22.839c.227-.292.408-.419.426-.564.489-4.325,2.442-8,4.932-11.477a1.78,1.78,0,0,0,.023-1.66c-.235-.319-1.078-.374-1.591-.264a33.226,33.226,0,0,0-3.369,1.01c-1.678.548-2.922,2.86-2.386,3.963l5.387-4.136.388.522C3986.6,3411.118,3985.578,3414.36,3987.523,3418.659Zm38.51,19.234.792.186q-1.569,4.449-3.137,8.9a63.63,63.63,0,0,0,5-7.559.867.867,0,0,0-.022-.747c-.555-.9-1.4-2.588-1.718-2.5-1.865.519-4.427,1.018-5.169,2.384-.716,1.32.487,3.68.846,5.583l.707-.016Q4024.684,3441.008,4026.032,3437.894Zm-3.882-5.182c2.769-.087,5.752-1.227,8.007,1.269-3.644-.67-7.193-.768-10.665.97,1.324.491,3.1,1.187,3.925.583,2.227-1.627,3.932-.317,5.857.262a18.106,18.106,0,0,0,2.787.374c-.855-3.779-3.018-6.53-5.092-6.162C4025.294,3430.3,4022.6,3429.377,4022.15,3432.711Zm-63.737,16.585c-5.258.327-7.187,4.868-10.679,7.415l1.376-2.542-.639-.42a8.585,8.585,0,0,0-1.4,2.381c-.094.416.918,1.576,1.2,1.5,1.921-.5,4.193-.78,5.561-2.011C3955.719,3453.919,3956.917,3451.443,3958.413,3449.3Zm68.3,2.735c2.507,2.072,4.744,3.048,7,1.086a30.421,30.421,0,0,0,4.072-4.934c.076-.1-.619-1.043-1.1-1.258-3.584-1.581-4.451,3.094-7.521,2.776l.311.871,6.351-1.634C4033.529,3451.664,4030.451,3451.982,4026.712,3452.032Zm-41.47,7.381.692-.382a64.835,64.835,0,0,0-3.6-8.016c-.616-1.02-2.424-1.425-3.771-1.847a2.463,2.463,0,0,0-2.18.377,2.259,2.259,0,0,0,.129,2.213c1.582,1.519,3.382,2.812,5.032,4.134v-2.221C3982.823,3455.662,3984.032,3457.538,3985.242,3459.414Zm-24.042,17.768c1.69.375,3.241-1.277,3.035-3.181-.074-.684-.278-1.822.024-2,1.862-1.108,1.2-2.518.82-4.032-.362-1.453-.5-2.962-.729-4.448l-1.32-.018Q3962.112,3470.347,3961.2,3477.181Zm57.549-43.8c-5.3-2.061-12.482-.606-15.15,3.133C4008.669,3435.08,4013.935,3436.532,4018.75,3433.376Zm-57.875-17.184.262-.139c1.973,2.531,3.949,5.06,6.116,7.836.379-.765.468-.862.446-.914-1.075-2.626-1.9-5.411-3.366-7.8-.637-1.037-2.589-1.287-3.973-1.822-.148-.058-.6.32-.716.583-1.017,2.19.735,5.687,3.465,6.573C3962.31,3418.968,3961.592,3417.581,3960.875,3416.193Zm53.632,9.357c3.132-3.027,3.2-8.456.326-10.837a30.8,30.8,0,0,0-3.76,3.812c-.4.563-.068,1.936.351,2.71.361.664,1.324,1,2.232,1.624.418-1.969.785-3.691,1.151-5.414l.808.159C4015.255,3420.188,4014.9,3422.771,4014.507,3425.55Zm-66.37,4.868c2.75,3.749,5.3,7.227,7.851,10.705l.664-.407a13.336,13.336,0,0,0-.271-1.437c-.481-1.6-.9-3.229-1.519-4.78-.906-2.283-2.833-3.659-4.854-4.844C3949.731,3429.492,3949.044,3430.03,3948.137,3430.418Zm72.166,43.026c.581-1.706-.814-6.561-2.279-7.594a12.094,12.094,0,0,0-1.4-.6c-.481-.251-1.118-.468-1.35-.887-1.02-1.846-2.6-1.852-4.192-1.706Zm-1.014,2,.468-.674-7.118-8.382-.526.207c.279,2.17.558,4.342.789,6.134a6.727,6.727,0,0,0,6.387,2.715Zm-22.2-45.042c-1.947.734-4.083-.687-6.182,1.246-1.822,1.679-4.17,2.5-2.2,5.475a.5.5,0,0,1-.06.465c-2.042,2.4.513,3.087,1.758,5.081C3989.064,3436.316,3990.7,3433.676,3997.085,3430.4Zm-37.537,10.786c2.652-2.548,3.529-9.091,1.672-12.545C3958.057,3432.528,3958.9,3436.717,3959.548,3441.188Zm34.15-18.518c.831-1.111,1.579-1.7,1.766-2.438.517-2.036,1.1-3.91,2.9-5.283.344-.261-.1-1.544-.174-2.356a13.977,13.977,0,0,0,1.628-4.213c.028-.124-.867-.464-.9-.481C3996.4,3412.463,3993.344,3416.646,3993.7,3422.669Zm10.658,28.575c-3.437,2.633-8.517,1.94-10.841,6.239l2.84,1.724c.6-.712,1.02-1.616,1.717-1.967C4000.7,3455.918,4003.569,3454.954,4004.357,3451.244Zm-28.4,11.292-.834-.181c-1.673,1.557-1.947,3.542-1.881,5.77.041,1.376.026,3.133-.748,4.081-1.992,2.438-2.246,3.53.331,6.705C3973.953,3473.037,3974.956,3467.788,3975.961,3462.537Zm34.464-34.6c2.272-.94,1.539-3.12,1.062-4.362-.5-1.311-2.2-2.179-3.448-3.15a2.306,2.306,0,0,0-1.125,1.046,9.7,9.7,0,0,0-.4,3.422,27.108,27.108,0,0,0,1.135,4.128l1.047-.168c.12-2.151.241-4.3.4-7.144C4009.619,3424.166,4010.017,3426.024,4010.426,3427.936Zm16.127,27.494c1.568,2.759,4.329,4.68,3.611,8.5l-3.414-6.485-.648.261a40.112,40.112,0,0,0,1.434,5.823c.312.789,1.606,1.189,2.455,1.768a9.021,9.021,0,0,0,1.29-2.31,12.692,12.692,0,0,0,.1-3.335C4031.309,3458.126,4028.8,3455.762,4026.553,3455.429Zm-47.094-38.74c3.884.049,2.283-3.653,3.913-5.2-4.9,2.573-7.919,6.641-8.14,11.129C3977.218,3420.947,3979.928,3420.32,3979.459,3416.689Zm-18.95,35.868-.485-.366-7.254,7.972v-2.7l-1.96.814c.625,1.822.625,1.822,6.615,1.123ZM3992,3418.792l4.143-9.787c-2.029-1.28-2.231-1.219-3.259,1.244a4.106,4.106,0,0,1-.539.873C3990.121,3414.068,3990.082,3415.848,3992,3418.792Zm10.683-11.847.835-.116a34.822,34.822,0,0,1,.228,5.034c-.324,3.477-.421,3.467.919,4.22a19.745,19.745,0,0,0,.528-4.041,33.438,33.438,0,0,0-1.049-6.049c-.109-.427-1.446-1.021-1.67-.845a3.612,3.612,0,0,0-1.245,2.019,38.03,38.03,0,0,0-.362,4.517c-.036.6-.006,1.2-.006,1.8l.975.109Q4002.26,3410.272,4002.684,3406.945Zm6.525,70.9c2.972-4.415,2.917-10.029,0-12.827Zm-43.076-40.445c-2.881,1.059-4.654,3.393-6.129,5.986a1.641,1.641,0,0,0,.4,1.533c.252.211,1.056-.042,1.5-.293a11.291,11.291,0,0,0,2.491-1.754,5.106,5.106,0,0,0,1.151-2.107A29.227,29.227,0,0,0,3966.134,3437.4Zm-12.84,11.353c-4.149-.631-6.394,3.25-9.911,4.149-.111.028-.014.866-.014,1.035C3948.291,3455.107,3949.964,3450.434,3953.294,3448.754Zm21.69,27.29c5.107-3.09,2.695-7.65,3.063-11.605l-.7-.151C3976.572,3468.151,3975.794,3472.018,3974.984,3476.043Zm27.407,17.809a9.143,9.143,0,0,0-11.617,2.063Zm11.222-41.007a7.245,7.245,0,0,0-1.535-7.539c-.35-.412-1.306-.418-1.968-.378a1.869,1.869,0,0,0-.335,1.466C4010.982,3448.584,4012.319,3450.7,4013.613,3452.845Zm-47.672-.2c.281,4.047,5.137,5.435,9.025,3.648Zm51.772-6.895,1.208-.392c-1-3.182-2.008-6.365-3.136-9.937C4013.354,3440.047,4016.063,3442.743,4017.713,3445.746Zm-25.867-5.246.343.708c4.267.736,6.284-1.153,5.773-5.649l-3.749.534.108.63,3.611.241Zm22.022.53-.962.365c-.427,2.131,2.508,8.792,4.926,9.366Zm-51.956,20.809,1.093.235c.72-.964,2.02-1.917,2.037-2.893.035-1.834-.672-3.683-1.07-5.523l-1.014-.029Zm10.365-15.354c-2.485-2.881-1.391-6.054-1.19-9.267-1.7,1.605-2.135,3.821-2.344,5.877C3968.53,3445.2,3970.466,3445.874,3972.278,3446.485Zm45.905-9.68c.844,3.831,1.606,7.3,2.338,10.623,1.283-1.475,1.161-4.829-.684-9.582C4019.63,3437.308,4018.637,3437.076,4018.183,3436.805Zm-11.816-4.729,10.193-.869c-2.151.718-3-3.674-5.267-1.51C4009.8,3431.127,4006.455,3428.827,4006.367,3432.076Zm-50.681,38.832c.172-.465.535-.956.481-1.394-.265-2.119-.6-4.23-1.024-6.321-.07-.347-.707-.578-1.083-.863-.271.56-.768,1.124-.758,1.678.011.687.859,1.723.628,1.99C3952.107,3468.115,3954.426,3468.973,3955.686,3470.908ZM3952.314,3439l-4.734-7.05c-.652,2.184.109,5.084,1.683,6.315C3949.833,3438.713,3950.792,3438.661,3952.314,3439Zm55.725,28.532c-2.349,7.021-2.338,8.4,0,10.209Zm-54.518-20.72-9.975-3.652C3946.434,3445.253,3948.586,3449.271,3953.522,3446.814Zm33.3,27.234c2.343-3.365,1.626-6.3-1.427-7.958C3985.886,3468.806,3986.356,3471.427,3986.826,3474.048Zm39.961-48.588-3.695,3.886c4.279-.375,6.135-2.2,5.2-4.948l-3.73.858.164.637Zm-24.646,20.164c.154-2.131.35-4.058.389-5.989.009-.411-.55-.833-.848-1.25-.279.367-.742.708-.8,1.107-.14,1.008.228,2.209-.194,3.031C3999.731,3444.384,4000.8,3444.9,4002.141,3445.624Zm28.065,9.624c.843,1.911,1.6,3.7,2.428,5.456a8.983,8.983,0,0,0,1.11,1.476c.238-.637.818-1.382.656-1.892C4033.691,3458.055,4032.521,3456.108,4030.207,3455.248Zm-45.753-48.126c-.81-1.1-1.565-2.125-2.5-3.395-.983,1.977-1.832,3.687-2.7,5.424,2.867.4,1.476-2.566,2.667-3.5.336,1.018.662,2,1.1,3.333C3983.707,3408.092,3984.108,3407.571,3984.453,3407.122Zm22.921,49.185c3.048,1.994,4.018,1.862,5.546-.865a3.587,3.587,0,0,0,.212-1.084c-.442-.035-.949-.229-1.314-.078C4010.3,3454.9,4008.827,3455.633,4007.375,3456.306Zm-16.1,36.786,8.785-1.668C3998,3489.332,3992.181,3490.189,3991.274,3493.092Zm-34.675-55.544.294-.118c.7-3.069,1.395-6.139,2.272-10.008-1.21,1.421-2.622,2.329-2.767,3.407A37.722,37.722,0,0,0,3956.6,3437.548Zm-.276,28.256,1.188.093c1.847-1.652,1.188-3.411.247-5.181l-1.021-.075Q3956.529,3463.222,3956.322,3465.8Zm2.32,1.839c-1.185,2-2.026,3.419-3.08,5.2.359.377,1.059,1.108,2.31,2.417C3958.164,3472.376,3958.373,3470.306,3958.642,3467.643Zm-4.706-48.152c1.182.806,1.857,1.6,2.6,1.68.77.079,1.611-.548,2.549-.917C3958.3,3418.134,3956.813,3417.967,3953.936,3419.491Zm7.073,47.078-1.136-.021c.465,3.044-1.005,6.082-.5,9.125l.7-.01Q3960.542,3471.116,3961.009,3466.569Zm30.165,19,.667-.834c-.789-.6-1.558-1.648-2.373-1.687-.777-.035-1.6.98-2.4,1.533.136.271.27.544.406.815Zm-8.842-75.168c-2.992,0-6.173,2.622-5.973,4.687Zm-14.585,28.127-.324-.161c-.578,1.918-1.156,3.837-1.833,6.09l1.808.922C3967.518,3443,3967.632,3440.764,3967.746,3438.532Zm.194,27.117c1.321-1.8,2.481-3.377,3.733-5.083C3969.339,3460.545,3966.938,3463.847,3967.94,3465.649Zm-7.111-2.579v-5.7C3959.163,3459.286,3957.741,3460.919,3960.829,3463.07Zm58.36-43.668a31.462,31.462,0,0,0,.258-4.092c-.032-.469-.665-.9-1.023-1.344-.339.546-1.047,1.182-.941,1.623A23.6,23.6,0,0,0,4019.189,3419.4Zm-71.454,44.2.28.679,4.423-1.928C3950.254,3461.178,3950.254,3461.178,3947.735,3463.6Zm42.459,25.359a3.578,3.578,0,0,0-.929-.381c-.1-.008-.376.451-.33.509a1.5,1.5,0,0,0,.682.491C3989.7,3489.6,3989.9,3489.28,3990.194,3488.958Z" transform="translate(-3914.905 -3375.396)" fill="#efefef"/>
  <path id="Path_1782" data-name="Path 1782" d="M3966.956,3401.762l-2,1.612c-1.693-2.026-3.3-3.949-4.905-5.873l-.465.25q1.1,3.045,2.21,6.09l-.5.416-5.734-3.539c1.506,2.2,2.266,5.049,5.4,6.062l-1.716,1.305c-2.19-3.032-4.232-5.862-6.627-9.181.916-.223,2.185-.917,3.26-.692,1.229.257,2.288,1.333,3.588,2.16.242-2.611-3.656-5.417.517-7.033Z" transform="translate(-3926.026 -3375.478)" fill="#efefef"/>
  <path id="Path_1783" data-name="Path 1783" d="M3935.668,3437.688c-1.233,4.417-4.614.924-7.377,2.368l4.649,2.562-1.518,2.421-9.382-5.943a40.531,40.531,0,0,1,2.713-4.151c1.862-2.288,4.167-1.733,5.324.969a3.525,3.525,0,0,0,2.151,1.482A17.255,17.255,0,0,0,3935.668,3437.688Zm-8.048,2.043c1.456-1.355,1.247-2.4-.066-3.31-1.333-.923-2.524-1-3.463,1.092.212.112.533.252.825.439C3925.776,3438.506,3926.625,3439.076,3927.62,3439.731Z" transform="translate(-3908.662 -3398.289)" fill="#efefef"/>
  <path id="Path_1784" data-name="Path 1784" d="M3913.136,3530.871h-10.869c-.65-2.471-1.238-5.451,1.125-7.915a5.408,5.408,0,0,1,6.216-1.117C3913.77,3523.584,3912.557,3527.522,3913.136,3530.871Zm-.989-3.055c-.31-3.161-1.925-4.131-5.655-3.757-2.869.288-3.814,1.381-3.439,4.29Z" transform="translate(-3897.108 -3448.151)" fill="#efefef"/>
  <path id="Path_1785" data-name="Path 1785" d="M4132.544,3394.19c2.077-3.059,4.028-5.93,6.119-9.007,1.935,1.421,5.278,2.172,5.545,5.942a5.576,5.576,0,0,1-3.275,5.667C4137.246,3398.566,4134.914,3395.6,4132.544,3394.19Zm7.628-7.057-5.047,7.7c2.592,1.718,3.851,1.435,5.683-1.183C4142.425,3391.338,4143.485,3388.909,4140.172,3387.133Z" transform="translate(-4028.188 -3370.845)" fill="#efefef"/>
  <path id="Path_1786" data-name="Path 1786" d="M4063.61,3373.851c-3-.044-4.973-2.311-4.923-5.662.047-3.032,2.527-5.771,5.165-5.7,2.547.069,4.972,2.794,4.985,5.6C4068.851,3371.377,4066.567,3373.9,4063.61,3373.851Zm-2.4-5.8c.067,1.22-.106,2.021.189,2.565a20.113,20.113,0,0,0,2.029,2.672c.829-.837,2.123-1.552,2.381-2.538a12.3,12.3,0,0,0,.094-5.062c-.15-.868-1.217-1.581-1.871-2.363-.774.659-1.806,1.178-2.254,2.012A8.179,8.179,0,0,0,4061.208,3368.048Z" transform="translate(-3986.25 -3357.959)" fill="#efefef"/>
  <path id="Path_1787" data-name="Path 1787" d="M3907.4,3502.954l-1.845-2.591,3.994.6-2.293,2.632,6.11.522c-1.046-2.31-1.787-3.947-2.475-5.469,2.469-.3,3.18.349,2.8,2.939-.141.935-.239,1.876-.388,2.809s-.334,1.855-.456,2.518l-10.8-1.334.73-7.322,3.166-.464-3.69,4.845c2,.437,3.292.719,4.586,1Z" transform="translate(-3897.307 -3434.787)" fill="#efefef"/>
  <path id="Path_1788" data-name="Path 1788" d="M3983.271,3392.539l-5.342-9.65,6.315-3.662,2.013,2.256-6.229.287,2.515,4.405c.7-1.023,1.21-1.764,1.806-2.632.458.839,1,1.828,1.534,2.806h-3.188c.907,1.679,1.584,2.934,2.7,5,1.35-2.125,2.367-3.724,3.295-5.185,1.536,2.052,1.45,2.618-.946,3.942C3986.106,3391.01,3984.457,3391.894,3983.271,3392.539Z" transform="translate(-3940.396 -3367.465)" fill="#efefef"/>
  <path id="Path_1789" data-name="Path 1789" d="M4205.8,3507.057c-3.186-.005-5.69-2.258-5.647-5.082.04-2.749,2.968-5.261,6.016-5.16a5.448,5.448,0,0,1,5.325,5.219C4211.468,3504.9,4209.021,3507.061,4205.8,3507.057Zm-.582-2.5a22.443,22.443,0,0,0,4.113-.965,2.761,2.761,0,0,0,1.5-2.075,2.55,2.55,0,0,0-1.75-1.806,35.172,35.172,0,0,0-6.791.7,2.331,2.331,0,0,0-1.4,1.812,3.53,3.53,0,0,0,1.657,2.021C4203.127,3504.6,4204.036,3504.444,4205.215,3504.553Z" transform="translate(-4066.575 -3434.23)" fill="#efefef"/>
  <path id="Path_1790" data-name="Path 1790" d="M4010.274,3376.388l-3.026-6.536,1.368-.441c.967,3,1.914,5.792,2.736,8.618a6.012,6.012,0,0,1-.141,2.034,6.832,6.832,0,0,1-1.743-.7,41.76,41.76,0,0,0-6.665-4.564l3.131,7.035-1.807.728a15.748,15.748,0,0,0-3.6-10.3c1.913-1.7,3.415-.639,4.963.84,1.349,1.288,2.848,2.418,4.28,3.618Z" transform="translate(-3953.23 -3361.891)" fill="#efefef"/>
  <path id="Path_1791" data-name="Path 1791" d="M3905.584,3480.465c.377-1.322.743-2.9,1.28-4.423.636-1.8,1.868-3.017,3.9-2.385,1.923.6,2.151,2.213,1.788,3.98-.116.57-.187,1.15-.319,1.967l4.641,1.128c-.174.777-.424,1.9-.6,2.673Zm1.458-2.239,4.293,1.029c.711-1.665.124-2.561-1.288-3.082C3908.411,3475.568,3907.458,3476.173,3907.042,3478.226Z" transform="translate(-3899.318 -3420.987)" fill="#efefef"/>
  <path id="Path_1792" data-name="Path 1792" d="M4093.051,3365.956v2.9c-1.369-.839-2.8-1.718-4.234-2.6l-1.421,3.619.51.528,2.764-1.063c-.2,1.134-.408,2.3-.638,3.6l-2.405-2.625c-.43,2.272-.741,3.913-1.093,5.758l-2.633-.556c.734-3.619,1.443-7.115,2.188-10.792Z" transform="translate(-4000.567 -3359.227)" fill="#efefef"/>
  <path id="Path_1793" data-name="Path 1793" d="M3914.134,3461.769c.164-1.635,1.007-2.083,2.779-1.806,3.019.472,6.091.6,9.324.885l-1.146,2.925-3.476-1.256a23.09,23.09,0,0,0-.449,4.012c.01.236,1.4.409,2.422.684l-.877,2.234Zm2.662.448-.236.488,3.122,2.843,1.309-2.658Z" transform="translate(-3904.173 -3413.263)" fill="#efefef"/>
  <path id="Path_1794" data-name="Path 1794" d="M4189.787,3443.2c1.028,1,.745,1.978-.344,3.124-2.172,2.292-4.208,4.716-6.459,7.265l-1.667-2.9,2.931-1.9-2.047-3.531-2.665,2.141-1.02-2Zm-1.63,1.057-4.813,1.029c.542,1.005.915,1.7,1.438,2.665C4185.876,3446.756,4186.751,3445.8,4188.157,3444.26Z" transform="translate(-4054.293 -3403.791)" fill="#efefef"/>
  <path id="Path_1795" data-name="Path 1795" d="M4115.231,3385.023l-2.91-1.66c1.488-3.368,2.917-6.6,4.4-9.958l6.707,2.877c-.217,1.013-.429,1.991-.642,2.974-1.17-1.46-2.289-2.855-3.786-4.717-.918,1.839-1.468,2.939-2.3,4.614l3.556-.4c-.517,1.1-1.05,2.231-1.614,3.436-.539-1-.964-1.792-1.391-2.582l-.9.05-1.132,5.4Z" transform="translate(-4016.706 -3364.159)" fill="#efefef"/>
  <path id="Path_1796" data-name="Path 1796" d="M4192.379,3467.169c-.27-.708-.658-1.729-.918-2.414l10.181-3.9c-1.808-.736-2.887-1.176-4.271-1.738l3.368-1.022,2.842,7.56c-.8.474-1.512.9-2.527,1.5.391-1.259.687-2.2,1.207-3.878Z" transform="translate(-4061.642 -3412.247)" fill="#efefef"/>
  <path id="Path_1797" data-name="Path 1797" d="M4204.068,3531.68h7.257v1.551c-3.6-.346-7.113-.68-11.2-1.072,2.322-3.268,6.094-3.689,8.584-5.943-.375-.172-.73-.337-1.123-.518l4.121-.913c.667,2-.487,3.057-2.294,3.908C4207.807,3529.453,4206.294,3530.424,4204.068,3531.68Z" transform="translate(-4066.562 -3450.113)" fill="#efefef"/>
  <path id="Path_1798" data-name="Path 1798" d="M4025.376,3369v-3.42l7.561-1.507c.421,1.131.787,2.116,1.271,3.418l-3.162-2.332-.574.431c.632,3.166,1.264,6.33,1.949,9.765-.685.126-1.882.349-2.714.5-.528-3.438-1.017-6.624-1.506-9.809l-.675-.17C4026.9,3366.788,4026.274,3367.7,4025.376,3369Z" transform="translate(-3967.338 -3358.86)" fill="#efefef"/>
  <path id="Path_1799" data-name="Path 1799" d="M3937.073,3417.5c.089,1.095.178,2.187.314,3.854l-2.333-2.667,5.2-6.089,2.74,1.725-4.386.423,8.3,7.075-1.687,1.894-7.473-6.411Z" transform="translate(-3916.052 -3386.412)" fill="#efefef"/>
  <path id="Path_1800" data-name="Path 1800" d="M4181.978,3426.316l-2.349,1.77c-.024-.044-.184-.206-.151-.3.5-1.488,1.236-3.359-.511-4.1-.92-.388-2.52.831-3.811,1.339a1.594,1.594,0,0,0-.407.315c-3.549,3.083-3.328,4.732.841,6.326-2.942.41-4.474-.446-5.156-2.878-.635-2.278.884-4.859,3.62-6.148C4177.272,3421.126,4179.058,3421.917,4181.978,3426.316Z" transform="translate(-4049.62 -3391.715)" fill="#efefef"/>
  <path id="Path_1801" data-name="Path 1801" d="M4160.354,3399.918l2.149,2.006c-2.1,2.377-4.124,4.555-5.971,6.873a2.073,2.073,0,0,0,.409,1.991,14.224,14.224,0,0,0,3.27.955c-.977,1.342-2.361.84-3.685-.173-1.686-1.291-2.938-2.9-1.512-5.026a49.856,49.856,0,0,1,3.554-4.042C4159.175,3401.781,4159.651,3400.946,4160.354,3399.918Z" transform="translate(-4040.593 -3379.213)" fill="#efefef"/>
  <path id="Path_1802" data-name="Path 1802" d="M4197.18,3487.364c-.2-.726-.515-1.861-.826-2.99a21,21,0,0,0,10.623-2.826c.293,1.106.631,2.379.823,3.1Z" transform="translate(-4064.419 -3425.563)" fill="#efefef"/>
  <path id="Path_1803" data-name="Path 1803" d="M4173.265,3623.155c-.574.6-.574.6-3.963-.026l-.687.688,2.6,1.553-1.017,1.383-5.309-4.825c.605-.665,1.34-1.553,2.161-2.353a1.732,1.732,0,0,1,2.868.118C4170.972,3620.893,4172.135,3622,4173.265,3623.155Z" transform="translate(-4046.553 -3503.536)" fill="#efefef"/>
  <path id="Path_1804" data-name="Path 1804" d="M3975.791,3648.947c-.685-.277-1.369-.555-2.064-.837l4.109-6.182c3.654,2,4.729,3.886,3.173,6.136-1.023,1.479-2.332,2.96-4.344,1.125,2.3-.068,2.9-1.96,3.551-3.58.245-.613-.352-1.562-.564-2.357l-.87-.092Z" transform="translate(-3938.01 -3516.628)" fill="#efefef"/>
  <path id="Path_1805" data-name="Path 1805" d="M4060.163,3668.417l-3.081-1.236c-.137,2.152-.336,3.964-.276,5.765.009.282,1.264.823,1.829.705.638-.132,1.149-.875,1.835-1.454-.535,2.478-.535,2.478-5.353,1.914,0-2.355,0-4.711,0-7.32C4056.954,3667.279,4059.152,3665.657,4060.163,3668.417Z" transform="translate(-3984.223 -3530.723)" fill="#efefef"/>
  <path id="Path_1806" data-name="Path 1806" d="M4028.226,3672.01c-.423-.556-.815-1.136-1.277-1.657-.518-.583-1.1-1.111-1.65-1.663l-1.753,1.78-.619-.225c1.11-1.879,2.154-3.708,3.274-5.491.225-.356.738-.535,1.117-.794.257.377.685.731.741,1.136.292,2.12.489,4.251.72,6.379Z" transform="translate(-3965.946 -3529.138)" fill="#efefef"/>
  <path id="Path_1807" data-name="Path 1807" d="M4111.472,3660.533c.22.518.454,1.062.776,1.82l-2.219-.143,1.369,3.151-1.692.781c-.828-2.371-1.623-4.645-2.465-7.056,1.657.087,3.391-2.5,5.984.1l-4.254-.561c.408,1.337.66,2.16,1.007,3.295Z" transform="translate(-4013.821 -3525.767)" fill="#efefef"/>
  <path id="Path_1808" data-name="Path 1808" d="M4130.018,3655.911l-.778-5.128.665-.5,5.926,5.211-.205.626-3.558-1.021Z" transform="translate(-4026.313 -3521.369)" fill="#efefef"/>
  <path id="Path_1809" data-name="Path 1809" d="M4043.191,3666.707c-.257,2.661-.455,4.706-.663,6.884h-1.9c.3-2.206.586-4.292.91-6.652l-1.779.373-.1-.454a41.416,41.416,0,0,1,4.685-.2c.413.023.774.928.779,1.746C4044.638,3667.971,4044.146,3667.541,4043.191,3666.707Z" transform="translate(-3975.45 -3530.656)" fill="#efefef"/>
  <path id="Path_1810" data-name="Path 1810" d="M4017.129,3660.344c-.787,2.379-1.468,4.438-2.176,6.573l-1.624-.562c.726-2.117,1.412-4.118,2.242-6.533l-2.2.655-.211-.681c.635-.182,1.438-.7,1.873-.483,1.317.66,3.783-.153,3.819,3.026C4018.144,3661.523,4017.75,3661.065,4017.129,3660.344Z" transform="translate(-3960.398 -3526.469)" fill="#efefef"/>
  <path id="Path_1811" data-name="Path 1811" d="M4197.717,3592.035c-.694.271-1.38.572-2.09.8-.306.1-.839-.088-.967.082-1.858,2.469-2.92-.153-4.261-.692-.326-.131-.442-.79-.653-1.206.485-.208,1-.646,1.449-.584,2.091.28,4.165.7,6.244,1.067Z" transform="translate(-4060.667 -3487.386)" fill="#efefef"/>
  <path id="Path_1812" data-name="Path 1812" d="M3956.021,3623.845l-2.05-.4-.05-.4c.551-.059,1.443-.357,1.6-.137.9,1.295,3.145,1.731,2.409,4.048l-.6-1.382-5.407,4.346c-.023-.027-.489-.583-.946-1.125Z" transform="translate(-3925.088 -3505.781)" fill="#efefef"/>
  <path id="Path_1813" data-name="Path 1813" d="M3930.316,3589.168l.934,1.49a24.96,24.96,0,0,0-3.846,2.1c-.7.547-1.536,1.781-1.345,2.421.413,1.391,1.646,1.114,2.709.437a5.385,5.385,0,0,1,.881-.309c-2.272,1.687-3.284,1.687-4.309.116-1.177-1.8-.472-3.014,1.235-3.958C3927.766,3590.8,3928.9,3590.042,3930.316,3589.168Z" transform="translate(-3910.206 -3486.67)" fill="#efefef"/>
  <path id="Path_1814" data-name="Path 1814" d="M3919.582,3567.051h-3.037l-.693-2.935,2.248-1.582,2.332,1.733C3920.191,3565.051,3919.864,3566.125,3919.582,3567.051Z" transform="translate(-3905.148 -3471.547)" fill="#efefef"/>
  <path id="Path_1815" data-name="Path 1815" d="M4206.893,3564.08c-.279,1.071-.546,2.089-.791,3.023l-2.975-.35c-.142-.513-.428-1.551-.729-2.646l2.127-1.713Z" transform="translate(-4067.85 -3471.468)" fill="#efefef"/>
  <path id="Path_1816" data-name="Path 1816" d="M4157.619,3639.971l-5.07-5.476,1.5-1.153c1.614,1.853,3.143,3.611,4.913,5.643Z" transform="translate(-4039.547 -3511.752)" fill="#efefef"/>
  <path id="Path_1817" data-name="Path 1817" d="M3965.006,3632.1l1.246,1.048L3961.79,3639l-1.372-1.192Z" transform="translate(-3930.454 -3511.05)" fill="#efefef"/>
  <path id="Path_1818" data-name="Path 1818" d="M3941.555,3603.138c-.127.874.03,1.953-.43,2.583-1.23,1.686.083,4.936-3.656,5.479,1.1-2.97,2.1-5.639,3.088-8.307Z" transform="translate(-3917.424 -3494.463)" fill="#efefef"/>
  <path id="Path_1819" data-name="Path 1819" d="M3948.123,3616.171l1.159,1.352-5.491,4.616-1.1-1.322Z" transform="translate(-3920.388 -3502.003)" fill="#efefef"/>
  <path id="Path_1820" data-name="Path 1820" d="M4189.367,3606.451c-.517,2.446-1.893,3.011-3.719,2.7-2.173-.369-3.446-2.186-3.348-4.608C4184.165,3606.919,4186.869,3608.843,4189.367,3606.451Z" transform="translate(-4056.437 -3495.401)" fill="#efefef"/>
  <path id="Path_1821" data-name="Path 1821" d="M4075.37,3674.288a11.773,11.773,0,0,0-2.653-1.961c-1.97-.7-2.647-1.707-1.7-3.4a18.142,18.142,0,0,0,2.795,1.824C4076.167,3671.729,4076.448,3672.449,4075.37,3674.288Z" transform="translate(-3993.011 -3531.956)" fill="#efefef"/>
  <path id="Path_1822" data-name="Path 1822" d="M4174.92,3612.583c.408-.569.751-1.048.979-1.368,1.927,1.528,3.8,3.017,5.773,4.583-.356.476-.755,1-.963,1.275Z" transform="translate(-4052.249 -3499.189)" fill="#efefef"/>
  <path id="Path_1823" data-name="Path 1823" d="M4148.1,3641.867c-1.005-1.706-1.005-1.706.473-2.865l4.037,5.69c-.235.2-.687.6-1.085.94-1.121-1.4-2.158-2.689-3.2-3.977-.022-.026-.166,0-.209.047s-.043.149-.062.226Z" transform="translate(-4036.62 -3514.967)" fill="#efefef"/>
  <path id="Path_1824" data-name="Path 1824" d="M4003.108,3661.572c-.624-1.242-1.2-2.212-1.6-3.25-.331-.866-.81-1.94-.549-2.687.228-.648,1.4-.97,2.34-1.21-2.023.875-1.636,1.849-.324,3.032C4004.63,3658.95,4004.828,3660.41,4003.108,3661.572Z" transform="translate(-3953.429 -3523.725)" fill="#efefef"/>
  <path id="Path_1825" data-name="Path 1825" d="M4142.479,3645.357c.33,1.2.661,2.4,1.089,3.966l-5.983-3.05c2.052-2.837,3.09.085,4.6.249.114-.417.223-.813.339-1.218Z" transform="translate(-4031.05 -3518.395)" fill="#efefef"/>
  <path id="Path_1826" data-name="Path 1826" d="M4096.6,3664.009c.64-.236,1.365-.8,1.9-.651,2.757.739,3.374,3.953,1.22,6.385-.255-1.508-.411-2.977-.773-4.394-.292-1.137-.872-2.148-2.372-1.381Z" transform="translate(-4007.766 -3528.783)" fill="#efefef"/>
  <path id="Path_1827" data-name="Path 1827" d="M4093.565,3664.8c-2.22,2.392.228,4.167.525,6.165a3.061,3.061,0,0,1-2.812-3.341c.083-1.339.1-3.055,2.3-2.79C4093.591,3664.842,4093.565,3664.8,4093.565,3664.8Z" transform="translate(-4004.753 -3529.615)" fill="#efefef"/>
  <path id="Path_1828" data-name="Path 1828" d="M4119.016,3398.66l5.913-1.3c-.783,1.02-1.424,1.855-2.065,2.691-1.316-.5-2.563-.975-3.822-1.437A.262.262,0,0,0,4119.016,3398.66Z" transform="translate(-4020.506 -3377.759)" fill="#efefef"/>
</svg>
