<svg id="Group_717" data-name="Group 717" xmlns="http://www.w3.org/2000/svg" width="146.256" height="149.297" viewBox="0 0 146.256 149.297">
  <path id="Path_1831" data-name="Path 1831" d="M4414.4,3419.534c1-.133,1.516-.2,2.029-.269.441-.058.884-.112,1.8-.226-3.135-3.406-2.347-6.507.652-9.6l-4.7-.43c1.553-2.366,2.794-4.41,4.2-6.334a3.115,3.115,0,0,0,.481-3.341c-.9-2.26-1.554-4.613-2.44-6.877a1.654,1.654,0,0,1,.755-2.354c2.047-1.318,3.988-2.8,6.061-4.078a3.127,3.127,0,0,0,1.569-3c.019-2.345.248-4.687.415-7.43l3.408,1.845c-.162-4.192,1.642-6.8,6.466-7.239l-3.82-3.151a41.9,41.9,0,0,1,5.365-1.99c2.891-.638,4.231-2.381,4.812-5.174.435-2.094.73-4.871,2.146-5.923,1.392-1.036,4.146-.52,6.246-.256,3,.377,5.174-.415,6.74-3.1a37.916,37.916,0,0,1,3.369-4.23c.61,1.394,1.049,2.394,1.645,3.756,2.349-3.243,5.1-4.885,9.2-2.395-.4-1.744-.658-2.859-1.031-4.478a64.9,64.9,0,0,1,6.329,1.692,4.4,4.4,0,0,0,5.125-.958c1.525-1.422,3.363-2.5,4.974-3.843a1.636,1.636,0,0,1,2.461.021c1.942,1.58,3.9,3.158,5.97,4.549a3.974,3.974,0,0,0,2.711.521c2.423-.475,4.794-1.207,7.6-1.946-.291,1.458-.5,2.531-.74,3.73,1.721-.251,3.543-1.022,5.013-.591s2.585,2.063,3.987,3.284c.469-1.037.89-1.974,1.5-3.323,1.655,2.029,3.163,3.729,4.489,5.563a3.715,3.715,0,0,0,3.732,1.776c2.149-.211,4.331-.054,6.491-.207a2.084,2.084,0,0,1,2.556,1.854,58.1,58.1,0,0,0,2.043,6.794,3.972,3.972,0,0,0,1.905,2.009c2.252,1.019,4.611,1.793,7.387,2.836-1.229,1.063-2.1,1.818-3.356,2.907,4.249.775,6.605,3.005,6.111,7.574l3.423-1.863a64.594,64.594,0,0,1,.328,6.692,4.177,4.177,0,0,0,2.345,4.255c1.86,1.094,3.537,2.5,5.379,3.632a1.62,1.62,0,0,1,.737,2.339c-.891,2.336-1.771,4.687-2.444,7.089a3.944,3.944,0,0,0,.3,2.741c1.218,2.156,2.674,4.178,4.283,6.63l-4.411.481c3.3,3.1,3.745,6.31.248,9.76l4.191.364c-1.4,2.15-2.479,4.063-3.806,5.791a4.135,4.135,0,0,0-.563,4.649c.812,1.852,1.268,3.857,2.057,5.721.576,1.359.433,2.164-.907,2.966a48.91,48.91,0,0,0-5.825,4.055,4.375,4.375,0,0,0-1.413,2.59,52.044,52.044,0,0,0-.157,5.473c-.017.568-.126,1.133-.241,2.093l-3.424-2.037c-.329,1.91-.155,3.99-1.069,5.328-.885,1.295-2.889,1.828-4.534,2.771l2.895,2.481c-2.29.891-4.163,1.766-6.12,2.338a4.55,4.55,0,0,0-3.61,3.785c-.522,2.5-1.455,4.913-2.181,7.271-3.046,0-5.949.076-8.847-.034a3.083,3.083,0,0,0-2.914,1.361c-1.429,1.946-2.96,3.813-4.725,6.067-.665-1.519-1.153-2.634-1.72-3.926-1.334,1.4-2.354,3.242-3.866,3.832-1.438.563-3.389-.178-5.319-.366.237,1.131.447,2.129.772,3.677a42.351,42.351,0,0,1-5.292-1.449,5.677,5.677,0,0,0-6.941,1.3,24.227,24.227,0,0,1-4.356,3.3,2.278,2.278,0,0,1-2.034-.007,49.4,49.4,0,0,1-5.326-4.052,4.093,4.093,0,0,0-4.6-.942c-2,.737-4.111,1.173-6.606,1.859.277-1.423.474-2.419.764-3.9-4.1,1.692-6.979.229-8.98-3.78-.662,1.655-1.116,2.791-1.788,4.478a56.6,56.6,0,0,1-4.018-5.012,4.744,4.744,0,0,0-5.244-2.393c-1.933.271-3.922.089-5.88.216a1.7,1.7,0,0,1-2-1.5c-.637-2.348-1.422-4.657-2.011-7.016a3.035,3.035,0,0,0-2.173-2.365c-2.286-.78-4.536-1.668-7.237-2.676l2.732-2.479a17.938,17.938,0,0,1-5.282-8.135c-.525.338-1.008.662-1.5.961s-1,.57-1.916,1.09c-.164-2.858-.372-5.316-.412-7.776a2.819,2.819,0,0,0-1.437-2.645c-2.114-1.333-4.135-2.817-6.229-4.185a1.551,1.551,0,0,1-.713-2.187c.949-2.456,1.838-4.944,2.565-7.473a3.632,3.632,0,0,0-.324-2.541C4417.448,3424.044,4416.01,3422.006,4414.4,3419.534Zm22.97,34.466c.611.607,1.251,1.188,1.828,1.827,16.783,18.584,37.629,25.884,62.031,20.663,36.55-7.822,57.736-45.058,46.77-80.963-9.562-31.307-42.858-50.407-74.732-42.874a63.492,63.492,0,0,0-41.291,92.7c1.645,3,3.634,5.811,5.46,8.708l-1.812-1.277-4.225,2.968c3.72,2.776,4.158,2.775,6.825.172Zm114.233-44.472v10.07c1.482-.567,3.3.79,4.038-1.293.627-1.783,3.066-3.161,1.182-5.567C4555.47,3411.014,4554.844,3408.347,4551.6,3409.529Zm-64.931-59.093v-9.011a50.265,50.265,0,0,0-6.218,4.868c-.654.684-.327,2.48-.1,3.708.06.335,1.358.6,2.1.622C4483.784,3350.67,4485.127,3350.516,4486.671,3350.436Zm-42.055,16.4,4.781-3.91c-1.793-2.48-3.453-4.774-5.358-7.408a33.829,33.829,0,0,1-1.586,5.133C4441.079,3363.382,4442.011,3365.205,4444.616,3366.835Zm-26.938,25.394c.832,2.347,1.488,4.184,2.129,6.026.785,2.253,1.815,3.016,4.1,2.866a1.35,1.35,0,0,0,1-.709c.508-1.724.9-3.481,1.368-5.353Zm32.766-30.042c1.3-.825,2.532-1.516,3.655-2.351.58-.43,1.484-1.316,1.354-1.651-.442-1.141-1.164-2.9-1.99-3.029a55.884,55.884,0,0,0-8.177-.143Zm79.07-7.275c-1.98,0-3.566-.016-5.152,0-3.9.049-3.9.055-5.3,3.852l5.263,3.312Zm1.127.7c-1.889,2.587-3.544,4.848-5.275,7.218,1.689,1.375,3.289,2.675,5.354,4.351.813-1.588,2.135-2.967,2.026-4.224C4532.548,3360.657,4531.507,3358.432,4530.641,3355.608Zm-42.493-5.174c1.541.073,2.881.2,4.216.178.72-.011,1.983-.126,2.061-.429.295-1.182.763-2.983.172-3.6a57.932,57.932,0,0,0-6.448-5.187Zm-61.387,43.407c.808-2.1,1.521-3.949,2.4-6.233-1.589-.422-3.284-1.477-4.331-1.025-2.277.986-4.224,2.736-6.675,4.429Zm17.087,67.8c-.875,1.3-2.374,2.519-2.25,3.543.3,2.532,1.353,4.975,2.214,7.826,1.864-2.55,3.475-4.756,5.162-7.062Zm-19.338-34.659c-1.526.59-3.415.728-3.912,1.63-1.233,2.236-1.831,4.822-2.823,7.664,1.966-.626,3.538-1.127,5.107-1.63,3.225-1.036,3.223-1.036,2.431-4.23C4425.075,3429.443,4424.859,3428.469,4424.51,3426.977Zm30.75,43.112-5.241-3.391c-1.7,2.333-3.32,4.56-5.006,6.873a3.654,3.654,0,0,0,.714.238c1.616-.023,3.229-.042,4.843-.092C4453.989,3473.609,4453.989,3473.6,4455.26,3470.089Zm101.3-78.953c-1.866-1.3-3.387-2.366-4.908-3.422-2.643-1.833-3.02-1.806-5.728.444.729,1.833,1.466,3.69,2.27,5.707Zm-7.952,3.954c.426,1.615.74,3.047,1.2,4.432.2.609.782,1.631,1.036,1.587,1.18-.209,2.908-.4,3.329-1.194a55.893,55.893,0,0,0,2.783-7.54Zm-19,78.546c-1.733-2.375-3.307-4.528-4.95-6.783l-5.734,3.684c1.057,1.146,1.842,2.785,2.881,2.965C4524.216,3473.922,4526.747,3473.636,4529.612,3473.636Zm-111.422-36.1c1.9,1.3,3.335,2.279,4.768,3.263,2.864,1.964,2.863,1.964,5.831-.236-.735-1.879-1.481-3.786-2.26-5.773Zm127.732,3.59c1.37.423,2.91,1.459,3.757,1.052,2.319-1.11,4.348-2.828,6.873-4.566l-8.255-2.69C4547.484,3437.045,4546.771,3438.911,4545.923,3441.123Zm-15.114,31.925c.674-2.215,1.2-3.939,1.728-5.662.931-3.037.83-3.3-2.031-5.254-1.553,1.294-3.126,2.606-4.774,3.982C4527.417,3468.418,4528.985,3470.56,4530.809,3473.048Zm17.963-39.332,8.219,2.67a61.508,61.508,0,0,0-2.756-7.477c-.4-.768-1.99-.982-3.084-1.275-.281-.076-.969.447-1.076.812C4549.579,3430.106,4549.229,3431.807,4548.771,3433.717Zm-62.236,45.067c-1.606-.131-3.08-.326-4.556-.338-.631,0-1.761.294-1.808.588-.172,1.112-.454,2.733.144,3.337a61.791,61.791,0,0,0,6.22,4.953Zm7.7-.384c-1.815.1-3.679.176-5.536.322-.246.02-.664.383-.67.592-.046,2.557-.029,5.116-.029,8.058,1.793-1.367,3.174-2.434,4.57-3.48C4495.137,3481.967,4495.142,3481.972,4494.233,3478.4Zm-77.853-70.438c2.43,0,4.373.051,6.308-.041a1.48,1.48,0,0,0,1.071-.9c.3-1.421.427-2.88.634-4.46-1.724-.063-3.286-1.536-4.618.29C4418.67,3404.368,4417.689,3405.978,4416.381,3407.962Zm9.943-30.365c-.1,1.745-.169,2.947-.227,4.147-.173,3.64-.121,3.705,3.655,4.741l2.444-4.572Zm45.12-32.651c.755,2.336,1.333,4.25,2.018,6.125a1.286,1.286,0,0,0,1.051.623c1.5-.181,3-.5,4.891-.833-.621-1.628-.752-3.482-1.65-4C4476.014,3345.861,4473.844,3345.616,4471.444,3344.946Zm31.9.081c-1.709.444-2.992.763-4.268,1.111-3.111.847-3.337,1.2-3.051,4.837a28.885,28.885,0,0,0,3.9.67,2,2,0,0,0,1.543-1C4502.15,3348.977,4502.629,3347.222,4503.341,3345.026Zm-43.715,3.758c-1.035,1.273-1.837,2.232-2.613,3.213-2.239,2.831-2.236,2.945.218,5.97l4.625-2.3C4461.106,3353.35,4460.431,3351.268,4459.626,3348.784Zm-25.883,18.691,5.957,4.248,3.918-4.154c-.718-.578-1.266-1.087-1.879-1.494-.571-.376-1.325-1.028-1.8-.889C4437.969,3365.758,4436.077,3366.584,4433.743,3367.476Zm79.086-11.793,5.146,2.433c.517-1.509,1.617-3.06,1.219-3.894-.913-1.911-2.558-3.47-4.151-5.483C4514.223,3351.307,4513.556,3353.4,4512.829,3355.682Zm28.1,11.76c-1.729-.634-2.976-1.1-4.226-1.549-3.013-1.094-3.407-.937-5.04,1.856,1.2,1.3,2.362,2.562,3.561,3.858ZM4438.9,3457.2c-1.553,1.154-3.287,2.445-5.252,3.908,1.488.574,2.605,1.018,3.733,1.44,3.268,1.222,3.27,1.219,5.627-1.8C4441.724,3459.642,4440.415,3458.513,4438.9,3457.2Zm103.741-75.329c.9,1.666,1.743,3.217,2.753,5.075,1.227-.937,2.908-1.564,3.124-2.521.451-2.013.138-4.2.138-6.312l-.629-.168C4546.266,3379.233,4544.506,3380.514,4542.641,3381.876Zm7.884,20.892c.2,1.475.325,2.879.618,4.247a1.483,1.483,0,0,0,1,.975c1.909.1,3.823.046,6.108.046-.93-1.436-1.616-2.493-2.3-3.55C4554.168,3401.753,4554.168,3401.753,4550.524,3402.768Zm-91.136,77.067c.707-2.156,1.322-3.866,1.8-5.612a1.48,1.48,0,0,0-.436-1.314c-1.317-.754-2.721-1.356-4.557-2.235-.345,1.612-1.2,3.161-.762,4.1C4456.269,3476.534,4457.848,3477.944,4459.389,3479.835Zm-33.07-28.905c2.2-1.592,3.962-2.866,5.7-4.122-.943-1.739-1.739-3.2-2.611-4.809-1.225,1-3.358.608-3.361,2.789C4426.046,3446.665,4426.205,3448.541,4426.318,3450.93Zm74.792,26.3-5.592,1.017c.417,1.369.441,3.184,1.193,3.567,1.9.966,4.123,1.288,6.582,1.969C4502.475,3481.32,4501.817,3479.352,4501.11,3477.229Zm49.4-50.8c1.48,0,3.2.509,3.82-.1,1.518-1.5,2.526-3.511,3.894-5.547h-6.911C4551.063,3422.559,4550.82,3424.264,4550.512,3426.432Zm-133.977-5.886,2.444,3.675c1.865,2.8,1.939,2.827,5.314,1.486-.171-1.354-.278-2.759-.56-4.13a1.49,1.49,0,0,0-.991-.984C4420.82,3420.494,4418.89,3420.546,4416.535,3420.546Zm54.836,63.188c1.731-.465,3.129-.831,4.522-1.217,2.873-.794,3.007-1.011,2.7-4.4l-5.1-.948C4472.788,3479.35,4472.139,3481.36,4471.371,3483.735Zm59.99-22.441c1.384.856,2.545,2.175,3.494,2.037,2-.291,3.883-1.345,6.182-2.226l-5.461-3.945C4534.252,3458.46,4533.023,3459.662,4531.361,3461.293Zm17.29-10.336c0-1.854-.024-3.126,0-4.4.077-3.228.087-3.227-3.369-4.219-.785,1.5-1.584,3.017-2.43,4.624C4544.728,3448.252,4546.431,3449.426,4548.651,3450.957Zm-30.7,20.078c-1.632.8-3.178,1.549-4.818,2.348.743,2.182,1.417,4.166,2.226,6.537,1.072-1.413,1.829-2.432,2.609-3.435C4519.915,3473.986,4519.92,3473.989,4517.954,3471.034Zm-6.43-115.915c1.63-4,1.149-5.2-2.77-7.161-.5,1.875-.987,3.708-1.5,5.612Zm32.663,18.583-4.768,3.316,2.423,3.559C4545.407,3378.781,4545.458,3378.639,4544.188,3373.7Zm-120.809,45.312a20.328,20.328,0,0,0-.045-2.921,1.428,1.428,0,0,0-.938-.972c-1.511-.108-3.033-.047-4.6-.047C4418.893,3419.283,4419.689,3419.841,4423.379,3419.014Zm43.757-65.261-1.624-5.312c-4.275,3.061-4.07,3.037-2.162,6.735C4464.558,3354.723,4465.777,3354.265,4467.136,3353.753Zm41.065-5.983c-4.5.392-5.366,1.124-5.521,4.522l3.944,1.065C4507.175,3351.408,4507.674,3349.644,4508.2,3347.77Zm-72.937,29.613c-1.616-1.223-3.038-2.3-4.512-3.417-1.551,4.926-1.685,4.478,2.318,6.594C4433.745,3379.584,4434.426,3378.6,4435.265,3377.383Zm3.5-4.553c-2.626-2.268-4.354-2.192-7.137.169,1.436,1.092,2.854,2.167,4.382,3.326Zm-20.89,40.783c5.652.606,6.23.148,5.416-4.158C4420.09,3408.917,4419.522,3409.341,4417.875,3413.613Zm118.593,42.4c2.773,2.5,4.164,2.4,6.844-.489-.686-.444-1.352-.882-2.026-1.311-.727-.462-1.458-.915-2.233-1.4-.452.511-.818.9-1.149,1.31C4537.407,3454.74,4536.939,3455.385,4536.468,3456.009Zm6.735-83.218c-4.218-2.534-4.449-2.532-7.107.005l2.532,3.1c.557-.341,1.024-.6,1.461-.9C4541.072,3374.32,4542.036,3373.619,4543.2,3372.791Zm-70.986-20.478c-.4-3.5-1.371-4.252-5.447-4.186.531,1.75,1.045,3.443,1.58,5.212Zm30.485,124.745c.245,3.3,1.07,3.883,5.246,3.709C4507.445,3475.765,4506.851,3475.344,4502.7,3477.058Zm-34.475-1.3c-.6,1.8-1.13,3.367-1.7,5.06,4.7-.161,5.127-.487,5.421-3.967Zm-5.322-1.857c-1.407,2.584-.767,4.2,2.491,6.266.53-1.585,1.049-3.136,1.594-4.768-1.066-.414-1.931-.759-2.8-1.085C4463.763,3474.151,4463.323,3474.031,4462.905,3473.9Zm-30.191-25.79c-3.023,1.747-3.23,2.444-1.895,6.477,1.438-1.005,2.826-1.977,4.258-2.976-.7-1.077-1.243-1.919-1.8-2.755C4433.135,3448.632,4432.961,3448.43,4432.714,3448.107Zm76.737,32.243c3.778-3.765,3.839-3.952,2.187-6.372l-3.888,1.467C4508.33,3477.119,4508.844,3478.6,4509.451,3480.35Zm30.32-28.635c1.564.984,2.957,1.859,4.416,2.775,1.013-4.434.789-5.048-2.18-6.182C4541.331,3449.343,4540.638,3450.4,4539.771,3451.715Z" transform="translate(-4414.18 -3339.6)" fill="#efefef"/>
  <path id="Path_1832" data-name="Path 1832" d="M4504.989,3495.838c-34.4-.348-61.486-27.787-61.1-61.883a61.135,61.135,0,0,1,62.283-60.5c33.5.369,60.492,28.261,60.09,62.094C4565.866,3468.957,4538.2,3496.174,4504.989,3495.838Zm.169-120.982a59.813,59.813,0,0,0-59.937,59.418c-.133,33,26.447,60.026,59.171,60.174,33.395.149,60.442-26.38,60.567-59.408A59.852,59.852,0,0,0,4505.158,3374.855Z" transform="translate(-4431.795 -3359.675)" fill="#efefef"/>
  <path id="Path_1833" data-name="Path 1833" d="M4571.709,3450.525c.494,26.74-21.772,49.508-48.879,49.98-27.5.478-50.412-21.242-50.931-48.271-.542-28.243,21.064-50.989,48.921-51.5C4548.788,3400.221,4571.184,3422.134,4571.709,3450.525Zm-.918.173a49.014,49.014,0,1,0-48.741,48.921A48.922,48.922,0,0,0,4570.791,3450.7Z" transform="translate(-4448.4 -3375.845)" fill="#efefef"/>
  <path id="Path_1834" data-name="Path 1834" d="M4536.844,3396.333c-.794-1.887-1.467-3.491-2.2-5.244,1.432-1.588,2.794-.286,4.27.987.688-1.588.26-4.006,2.578-3.647.716,1.788,1.38,3.448,2.108,5.273l-2.051.759-.421-2.95-.521-.018-.939,3.752-2.647-2.132-.347.3,1.574,2.231C4537.732,3395.9,4537.111,3396.2,4536.844,3396.333Z" transform="translate(-4485.609 -3368.532)" fill="#efefef"/>
  <path id="Path_1835" data-name="Path 1835" d="M4489.6,3615.162c1.631-1.612,2.814-2.778,4.336-4.281.622.906,2.144,2.158,2.132,3.4-.01,1.1-1.732,3.068-2.684,3.058C4492.028,3617.322,4490.691,3615.851,4489.6,3615.162Z" transform="translate(-4458.901 -3500.459)" fill="#efefef"/>
  <path id="Path_1836" data-name="Path 1836" d="M4521.481,3638.554c-3.174-.06-.345-3.008-2.438-3.638-.172.646-.345,1.292-.59,2.223l-1.95-1.174c1.012-1.648,1.929-3.145,2.983-4.866a14.286,14.286,0,0,1,2.822,1.918c.373.377.255,2.021-.061,2.163C4520.569,3635.94,4520.976,3637.132,4521.481,3638.554Z" transform="translate(-4474.853 -3512.447)" fill="#efefef"/>
  <path id="Path_1837" data-name="Path 1837" d="M4464.415,3564.931c.241.609.69,1.58,1.011,2.59.525,1.651-.106,2.212-1.813,2.406-.881.1-1.675.977-2.828,1.7a5.4,5.4,0,0,1,.214-1.7,9.553,9.553,0,0,1,1.287-1.733l-.5-.5c-.556.405-1.11.812-1.846,1.347l-.827-2.134Z" transform="translate(-4440.826 -3473.212)" fill="#efefef"/>
  <path id="Path_1838" data-name="Path 1838" d="M4639.642,3640.857c1.244-1.691,2.791.395,4.893.618-.771-.826-1.174-1.256-1.782-1.9.746-.354,1.411-.667,1.933-.916.537,1.954,1.03,3.748,1.61,5.847l-3.989-1.762-.366.329c.472.683.941,1.366,1.568,2.277l-1.534.709C4641.2,3644.328,4640.469,3642.706,4639.642,3640.857Z" transform="translate(-4547.869 -3516.928)" fill="#efefef"/>
  <path id="Path_1839" data-name="Path 1839" d="M4512.25,3412.293c-1.293,2.8-2.885-.781-4.282.793.566.426,1.127.85,1.885,1.421-.736.591-1.463,1.172-1.82,1.457-1.149-1.577-2.15-2.951-3.381-4.636a13.3,13.3,0,0,1,2.723-1.848c.512-.215,2,.434,2.031.782C4509.563,3412.006,4510.688,3412.217,4512.25,3412.293Z" transform="translate(-4467.826 -3381.011)" fill="#efefef"/>
  <path id="Path_1840" data-name="Path 1840" d="M4580.083,3382.292l2.083-.1c-.1,1.976-.195,3.826-.329,6.457l-2.8-3.917-.822.586c.219.871.435,1.741.712,2.844l-2.056.157v-5.7c1.625-1.046,2.417,1.157,4.276,2.158C4580.7,3383.729,4580.457,3383.168,4580.083,3382.292Z" transform="translate(-4510.646 -3364.855)" fill="#efefef"/>
  <path id="Path_1841" data-name="Path 1841" d="M4727.465,3503.93c.051.686.1,1.337.124,1.7l-5.69.469c-1.145-1.515,1.311-2.4,1.918-4.264l-2.211,1.134c-.084-.841-.158-1.577-.211-2.121h6.077c-1.133,1.314-2.015,2.339-2.9,3.364l.162.437Z" transform="translate(-4596.346 -3435.213)" fill="#efefef"/>
  <path id="Path_1842" data-name="Path 1842" d="M4467.958,3468.444c-1.287-1.978-2.723-2.892-4.792-2.378.154-2.313,1.468-4.686,2.939-4.663a4.2,4.2,0,0,1,3.08,1.345C4470.548,3464.827,4468.673,3466.414,4467.958,3468.444Zm.126-2.63c.793-1.573.279-2.432-.871-2.9s-2.1-.233-2.5,1.361Z" transform="translate(-4443.227 -3411.824)" fill="#efefef"/>
  <path id="Path_1843" data-name="Path 1843" d="M4457.6,3533.149c-.06,1.515,1.371,3.686-.788,5.154a3.641,3.641,0,0,1-3.156.178c-2.088-1.133-1.37-3.369-1.615-4.718C4453.933,3533.553,4455.628,3533.367,4457.6,3533.149Zm-.736,1.876a10.885,10.885,0,0,0-2.13.131,6.983,6.983,0,0,0-1.534.851c.542.484,1.046,1.314,1.637,1.384C4456.227,3537.554,4457.1,3536.839,4456.864,3535.025Z" transform="translate(-4436.63 -3454.366)" fill="#efefef"/>
  <path id="Path_1844" data-name="Path 1844" d="M4728.622,3521.347a2.971,2.971,0,1,1-5.925.213,2.975,2.975,0,1,1,5.925-.213Zm-2.866,2.4c.823-1.068,1.822-1.842,1.7-2.328a2.45,2.45,0,0,0-1.866-1.476,2.362,2.362,0,0,0-1.726,1.583C4723.8,3522.071,4724.838,3522.731,4725.756,3523.744Z" transform="translate(-4597.117 -3445.523)" fill="#efefef"/>
  <path id="Path_1845" data-name="Path 1845" d="M4480.964,3435.19c1.025-.726,1.29-3.472,3.751-2.645,2.328.782.511,2.521.233,4l1.985.135-1.646,2.155Z" transform="translate(-4453.78 -3394.622)" fill="#efefef"/>
  <path id="Path_1846" data-name="Path 1846" d="M4592.076,3651.761a2.975,2.975,0,0,1,2.858,3.26,3.044,3.044,0,0,1-3.459,2.661,2.874,2.874,0,0,1-2.821-3.25A2.994,2.994,0,0,1,4592.076,3651.761Zm-2.648,3.1c1.148.815,1.988,1.8,2.438,1.642a2.612,2.612,0,0,0,1.44-1.96c.017-.561-1.025-1.637-1.557-1.612C4591.1,3652.962,4590.5,3653.907,4589.427,3654.861Z" transform="translate(-4517.627 -3524.692)" fill="#efefef"/>
  <path id="Path_1847" data-name="Path 1847" d="M4621.469,3385.667a3.269,3.269,0,0,1,3.5,2.934,2.92,2.92,0,0,1-2.852,3.05,3.185,3.185,0,0,1-3.464-2.914A2.9,2.9,0,0,1,4621.469,3385.667Zm2.73,2.723c-1.129-.766-2.071-1.7-2.348-1.536a3.724,3.724,0,0,0-1.645,2.119c-.092.4,1.2,1.634,1.538,1.52C4622.532,3390.227,4623.124,3389.375,4624.2,3388.39Z" transform="translate(-4535.42 -3366.915)" fill="#efefef"/>
  <path id="Path_1848" data-name="Path 1848" d="M4709.209,3577.621l1.126.661a14.05,14.05,0,0,0-1.715,3.122c-.069.265,1.35,1.271,2.117,1.312.574.028,1.2-.95,1.8-1.479l-.35-.505c-.451.036-.9.07-1.714.133.533-.969.9-1.642,1.28-2.327,1.856,1.186,2.147,2.527,1.032,4.25a2.9,2.9,0,0,1-4.034,1.087C4706.851,3582.793,4706.931,3581.515,4709.209,3577.621Z" transform="translate(-4588.053 -3480.736)" fill="#efefef"/>
  <path id="Path_1849" data-name="Path 1849" d="M4534.726,3639.44c.779.312,1.892.762,3.013,1.2,1.406.554,1.072,1.223.075,2.1a4.516,4.516,0,0,0-.855-1.319c-.291-.21-.825-.084-1.254-.106.116.354.208.718.355,1.058.1.236.4.439.4.657,0,.17-.416.52-.483.483-.9-.481-1.494-.277-1.354.754.025.192,1.269.217,1.948.327.124.019.243.074.6.186-.178.513-.351,1.016-.581,1.68l-4.155-1.808C4533.2,3642.917,4533.9,3641.322,4534.726,3639.44Z" transform="translate(-4484.301 -3517.392)" fill="#efefef"/>
  <path id="Path_1850" data-name="Path 1850" d="M4673.6,3628.875l-3.368-4.364c1.682-2.4,3.311-3.082,4.114-1.681-.737.472-1.461.931-2.186,1.392l1.8.486q.144,1.078.286,2.161c.585-.551,1.172-1.1,1.926-1.816.154.172.512.567.979,1.084C4675.78,3627.19,4674.576,3628.119,4673.6,3628.875Z" transform="translate(-4566.007 -3507.116)" fill="#efefef"/>
  <path id="Path_1851" data-name="Path 1851" d="M4551.19,3644.583c.422,2.562.791,4.795,1.2,7.269l-2.585-.709c.441-.593.72-.968,1.121-1.508l-2.342-.718c-.07.677-.117,1.145-.18,1.757-.794-.245-1.467-.453-2.215-.685Z" transform="translate(-4492.457 -3520.442)" fill="#efefef"/>
  <path id="Path_1852" data-name="Path 1852" d="M4475.178,3446.1a4.125,4.125,0,0,0-1.344.625c-.258.265-.216.815-.3,1.239.375-.054.756-.085,1.126-.172.27-.064.523-.274.784-.272.1,0,.21.4.3.627.186.468.359.94.539,1.41a17.352,17.352,0,0,0,.805-1.562c.082-.2-.045-.482-.122-1.072l1.8.894-2.378,3.883c-1.608-1.024-3.085-1.961-4.814-3.062a33.385,33.385,0,0,1,2.027-3.255c.177-.232,1.058.068,1.615.124Z" transform="translate(-4448.207 -3402.275)" fill="#efefef"/>
  <path id="Path_1853" data-name="Path 1853" d="M4716.969,3569.337l1.771.172-.877,2.221-5.051-5.372,7.315-.625c-.228.7-.478,1.471-.806,2.481l-1.476-1.234C4717.531,3567.822,4717.285,3568.486,4716.969,3569.337Z" transform="translate(-4591.256 -3473.688)" fill="#efefef"/>
  <path id="Path_1854" data-name="Path 1854" d="M4560.44,3390.818c-.423-1.909-.79-3.561-1.191-5.367,2.326-1.446,4.229-1.382,4.411.531H4561.1l-.028.645,1.556.414c-.261.833-.493,1.573-.724,2.315l2.489-.851c.357.582.82,1.281-.721,1.619C4562.5,3390.383,4561.323,3390.628,4560.44,3390.818Z" transform="translate(-4500.201 -3366.193)" fill="#efefef"/>
  <path id="Path_1855" data-name="Path 1855" d="M4715.427,3464.612l1.711,4.008-1.338.571-.928-2.6c-.288.587-.575,1.174-.8,1.641l-2.128-.354c.345.727.69,1.452,1.075,2.258-1.312,1.043-1.6.707-2.829-3.5Z" transform="translate(-4589.701 -3413.728)" fill="#efefef"/>
  <path id="Path_1856" data-name="Path 1856" d="M4472.416,3584c-1.534,2.14-2.844,3.965-4.3,6.006-.379-.617-.8-1.3-1.35-2.2l1.851-.376-1.153-2.166c-.518.448-.842.726-1.3,1.12-.394-.635-.763-1.236-1.219-1.972Z" transform="translate(-4444.279 -3484.52)" fill="#efefef"/>
  <path id="Path_1857" data-name="Path 1857" d="M4460.3,3549.737c.287,1.122.664,2.6,1.075,4.216l-1.859.446c.187-.532.377-.807.348-1.059a16.525,16.525,0,0,0-.373-1.726,5.148,5.148,0,0,1-.7,1.125,2.851,2.851,0,0,1-1,.394c-.2-.919-.71-1.393-1.453-.587-.155.168.505,1.092.792,1.665.058.115.134.218.2.329-1.292,1.049-1.37,1.057-1.775-.267-.35-1.151-.583-2.337-.817-3.287Z" transform="translate(-4438.23 -3464.203)" fill="#efefef"/>
  <path id="Path_1858" data-name="Path 1858" d="M4495.25,3426.317l1.748.967-1.828,1.441c-.75-2.114-1.512-4.265-2.408-6.791l6.995,2.4c-.6.559-1.208,1.121-1.963,1.821l-.581-1.565Z" transform="translate(-4460.775 -3388.421)" fill="#efefef"/>
  <path id="Path_1859" data-name="Path 1859" d="M4509.457,3623.431l1.4,1.12-1.167-.848a31.727,31.727,0,0,1-1.437,3.177c-.664,1.137-1.621,1.6-2.858.677-1.214-.905-1.351-1.849-.372-3.067a30.569,30.569,0,0,0,1.879-3.013l1.639,1.226c-.942,1.09-1.8,2.008-2.552,3-.176.23-.018.713-.014,1.081.418-.05,1.024.059,1.217-.176C4507.983,3625.656,4508.646,3624.6,4509.457,3623.431Z" transform="translate(-4467.664 -3506.741)" fill="#efefef"/>
  <path id="Path_1860" data-name="Path 1860" d="M4706.614,3454.787c-.221.031-.973.325-1.131.131a8.512,8.512,0,0,1-2.062-3.175c-.288-1.381.834-2.332,2.221-2.687a2.689,2.689,0,0,1,3.221,1.479c.39.685.673,1.429,1.107,2.37-.453.263-.968.56-1.482.857l.34-.569-2.012-2.779-2.257,1.68C4705.163,3452.884,4705.766,3453.674,4706.614,3454.787Z" transform="translate(-4585.662 -3404.439)" fill="#efefef"/>
  <path id="Path_1861" data-name="Path 1861" d="M4456,3521.3v-2.608l-1.566,1.24-1.466-1.326-.138,2.593c-1.466.255-1.775-.831-1.042-4.343h5.255C4457.944,3519.636,4457.421,3521.464,4456,3521.3Z" transform="translate(-4436.251 -3444.706)" fill="#efefef"/>
  <path id="Path_1862" data-name="Path 1862" d="M4566.024,3649.357l2.027.268a24.778,24.778,0,0,0-.728,3.2,4.6,4.6,0,0,0,.515,1.657c.362-.482.917-.92,1.042-1.458a21.44,21.44,0,0,0,.285-3.177l1.652.347a23.133,23.133,0,0,0-.928,2.949c-.246,1.4-.639,2.576-2.382,2.282-1.785-.3-1.939-1.533-1.649-3.054A23.644,23.644,0,0,0,4566.024,3649.357Z" transform="translate(-4504.05 -3523.273)" fill="#efefef"/>
  <path id="Path_1863" data-name="Path 1863" d="M4669.837,3406.306a28.536,28.536,0,0,0-2.218,2.658c-.26.4-.138,1.052-.19,1.589.485-.2,1.129-.271,1.421-.629a28.076,28.076,0,0,0,1.817-2.851l1.39.825c-.949,1.058-1.838,1.968-2.628,2.957a1.718,1.718,0,0,1-2.628.426c-1.008-.7-1.439-1.56-.682-2.747.655-1.023,1.234-2.094,1.974-3.361Z" transform="translate(-4563.341 -3378.482)" fill="#efefef"/>
  <path id="Path_1864" data-name="Path 1864" d="M4694.009,3428.313l-2.143,1.676.53-2.074-.493-.364c-.987,1.073-1.97,2.145-3.138,3.419l-1.553-1.625,3.8-2.817c-.106-.177-.21-.354-.315-.53l-1.543.309-.308-.449,1.618-1.473Z" transform="translate(-4576.077 -3389.875)" fill="#efefef"/>
  <path id="Path_1865" data-name="Path 1865" d="M4696.173,3605.213l-1.4,1.628-3.246-3.279-.447.311c.134.51.269,1.02.554,2.109l-2.207-1.59,3.337-4,1.65,1.438-.177.347-1.57-.186c-.106.157-.211.315-.316.472Z" transform="translate(-4577.389 -3494.24)" fill="#efefef"/>
  <path id="Path_1866" data-name="Path 1866" d="M4606.657,3650.794c4.066-1.15,4.728-1.037,4.691.625l-2.582.131c.484.486.971.974,1.456,1.457-1.6,1.325-1.6,1.444.515,2.716l-3.255.595a19.646,19.646,0,0,0-.027-2.786A21.254,21.254,0,0,0,4606.657,3650.794Z" transform="translate(-4528.311 -3523.675)" fill="#efefef"/>
  <path id="Path_1867" data-name="Path 1867" d="M4595.208,3383.2l-1.13,1.55v-2.491c1.161,0,2.3.03,3.425-.006,1.966-.063,1.893.917,1.191,2.511l-.994-1.476-.538.106c.085,1.417.172,2.834.268,4.408h-2.3l.725-4.463Z" transform="translate(-4520.852 -3364.891)" fill="#efefef"/>
  <path id="Path_1868" data-name="Path 1868" d="M4723.593,3552.769l-4.307-1.5c-.084.161-.168.321-.256.481l1.444,1.606-2.717-.391c.436-1.757.829-3.344,1.271-5.127l2.061.588-.038.453-1.355.425c-.028.209-.052.418-.08.628,1.452.247,2.9.5,4.574.779C4724.022,3551.292,4723.749,3552.228,4723.593,3552.769Z" transform="translate(-4594.19 -3463.076)" fill="#efefef"/>
  <path id="Path_1869" data-name="Path 1869" d="M4638.858,3393.619l-1.621.154c.112.637.227,1.274.392,2.2l-2.686-.951c.709-1.758,1.367-3.375,2.169-5.354,1.022.461,2.492,1.106,3.92,1.834a6.812,6.812,0,0,1-.378,1.091l-2.4-1.211Z" transform="translate(-4545.084 -3369.288)" fill="#efefef"/>
  <path id="Path_1870" data-name="Path 1870" d="M4522.393,3404.555l-1.916-4.241-.544.132-.185,2.027c-.638-.833-1.027-1.34-1.562-2.04l4.519-2.671c.419.693.768,1.274,1.119,1.854l-.284.315-1.487-.694-.454.394c.843,1.188,1.686,2.378,2.675,3.771C4523.779,3403.706,4522.934,3404.222,4522.393,3404.555Z" transform="translate(-4475.852 -3374.088)" fill="#efefef"/>
  <path id="Path_1871" data-name="Path 1871" d="M4660.94,3636.84l-5.757-3.881,1.934-1.343c.64.864,1.222,1.651,1.8,2.438q.308-.16.611-.319c-.35-.871-.7-1.742-1.14-2.819l1.58-.923C4660.3,3632.322,4660.6,3634.467,4660.94,3636.84Z" transform="translate(-4557.084 -3511.79)" fill="#efefef"/>
  <path id="Path_1872" data-name="Path 1872" d="M4452.978,3500.9l5.511.68c.331,3.087-.245,4.456-2.053,4a5.546,5.546,0,0,0,.93-1.4c.092-.321-.252-.767-.4-1.155a5.283,5.283,0,0,1-.8.61,7.19,7.19,0,0,1-1.074.355c.015-3.074-1.336-.486-2.372-.5Z" transform="translate(-4437.03 -3435.245)" fill="#efefef"/>
  <path id="Path_1873" data-name="Path 1873" d="M4477.725,3599.735l1.9-.646.317.49c-.622.538-1.247,1.077-2.054,1.776-1.06-1.492-2-2.809-2.676-3.764l4.688-3.212c.2.271.76,1.021,1.17,1.571-1.356.85-2.6,1.578-3.758,2.427C4477.191,3598.47,4477.573,3599.255,4477.725,3599.735Z" transform="translate(-4450.373 -3490.674)" fill="#efefef"/>
  <path id="Path_1874" data-name="Path 1874" d="M4684.806,3618.252l2.591-1.284c-.067-.207-.132-.414-.2-.621a10.025,10.025,0,0,1-2.293.493,10.567,10.567,0,0,1-2.325-.54,11.49,11.49,0,0,1,.682-2.235c.258-.487.846-.8,1.429-1.312.261.324.6.737.948,1.167l-2.466,1.233.331.729a7.387,7.387,0,0,1,1.941-.636,14.586,14.586,0,0,1,2.591.313c-.143.729-.064,1.646-.484,2.144C4686.931,3618.441,4686.053,3619.407,4684.806,3618.252Z" transform="translate(-4573.331 -3501.569)" fill="#efefef"/>
  <path id="Path_1875" data-name="Path 1875" d="M4679.664,3421.251a7.459,7.459,0,0,1-.665-2.105,11.011,11.011,0,0,1,.531-2.5,12.433,12.433,0,0,1,2.1.619,7.915,7.915,0,0,1,1.454,1.232c-.333.4-.656.78-1.09,1.3l-1.308-2.543-.651.222a10.86,10.86,0,0,1,.556,2.039,19.364,19.364,0,0,1-.117,2.6c-.734-.093-1.621.038-2.17-.333-.805-.544-1.891-1.292-.732-2.744.494.9.932,1.7,1.373,2.5Z" transform="translate(-4570.058 -3385.286)" fill="#efefef"/>
  <path id="Path_1876" data-name="Path 1876" d="M4652.8,3402.657l1.04,1.479,2.228-4.8c.454.259,1.279.725,1.923,1.09a31.278,31.278,0,0,1-2.447,3.363,2.9,2.9,0,0,1-2.1.965c-.511-.079-.878-1.121-1.309-1.736Z" transform="translate(-4555.279 -3375.02)" fill="#efefef"/>
  <path id="Path_1877" data-name="Path 1877" d="M4632.429,3651.26l-1.972.6-1.342-5.075-.67-.149c.916-.308,1.83-.616,2.3-.773C4631.327,3647.729,4631.842,3649.383,4632.429,3651.26Z" transform="translate(-4541.231 -3521.204)" fill="#efefef"/>
  <path id="Path_1878" data-name="Path 1878" d="M4699.337,3436.822c.8,1.087,1.371,1.869,1.676,2.283-1.586,1.1-3.013,2.081-4.679,3.235-.231-.3-.814-1.046-1.542-1.979C4697.028,3440.075,4698.626,3439.324,4699.337,3436.822Z" transform="translate(-4580.572 -3397.248)" fill="#efefef"/>
  <path id="Path_1879" data-name="Path 1879" d="M4706.213,3594.65l-1.51,2.273-4.661-3.25,1.475-2.182A4.3,4.3,0,0,0,4706.213,3594.65Z" transform="translate(-4583.684 -3488.962)" fill="#efefef"/>
  <path id="Path_1880" data-name="Path 1880" d="M4727.282,3540.4l-5.638-.7c.077-.505.223-1.451.3-1.926l5.623.7C4727.494,3538.955,4727.35,3539.931,4727.282,3540.4Z" transform="translate(-4596.494 -3457.107)" fill="#efefef"/>
  <path id="Path_1881" data-name="Path 1881" d="M4587.055,3458.2c-2.9,1.155-3.18,3.583-3.142,6.325.092,6.689.034,13.382.017,20.073a11.181,11.181,0,0,1-.208,2.618,2.493,2.493,0,0,1-2.725,2.169c-2.025-.065-4.061.114-6.081.021-1.981-.09-3.673.176-4.483,2.859-1.16-2.809-3.1-3.023-5.3-2.866-1.75.127-3.517-.053-5.271.032a2.444,2.444,0,0,1-2.849-2.447,37.254,37.254,0,0,1-.142-4.046c-.021-6.152-.078-12.3-.008-18.456.03-2.723-.26-5.164-3.229-6.273,1.967-2.716,4.181-4.352,7.6-3.785a15.431,15.431,0,0,0,4.85-.016,5.689,5.689,0,0,0,2.976-1.519c.933-.942,1.236-.656,2.027.125a4.966,4.966,0,0,0,2.787,1.409,32.144,32.144,0,0,0,6.883,0C4583.9,3454.028,4585.691,3455.495,4587.055,3458.2Zm-19.534,9.344h-5.151V3488.7h5.151Zm5.625-.031c0,5.833,0,11.373,0,16.914,0,4.8,0,4.8,4.885,4.326.117-.012.221-.129.429-.256v-20.984Zm8.024-8.211a9.58,9.58,0,0,1-2.607.383,26.2,26.2,0,0,1-2.795-.979c-1.34-.377-2.71-.65-4.065-.967l.471-.552c-.619-.759-1.173-2.087-1.869-2.167-1.86-.212-1.694,1.406-1.662,2.8-1.013.217-2,.422-2.978.64s-1.97.458-2.956.681-1.954.428-3.224.705c.05.193.229.893.365,1.429-.185,1.269-2.965,1.376-1.2,3.234a3.355,3.355,0,0,0,5.046.127c1.9-1.9-1-2.122-1.179-3.677,2.649-1,5.241-.469,7.84.6,1.871-1.292,6.412-1.42,7.517-.2-2.173,2.238-2.174,2.243-1.1,3.272a3.319,3.319,0,0,0,4.886.016c1.875-1.9-.88-2.149-1.165-3.263Z" transform="translate(-4496.873 -3406.427)" fill="#efefef"/>
  <path id="Path_1882" data-name="Path 1882" d="M4575.307,3489.439c-.537,1.545-1.075,3.091-1.776,5.1,1.281-.946,2.088-1.54,2.894-2.133l.5.429c-.272.773-.541,1.547-.808,2.312.063-.585.121-1.161.18-1.737l-.743-.148q-.744,2.1-1.492,4.2l.553.271.983-1.161c.225.421.452.841.688,1.28-2.489.529-3.376,2.2-2.7,4.972q-1.156,1.831-2.31,3.664l.43.457,1.466-.562c-2.142,3.448-1.827,3.229,2.416,4.583,1.38-2.151.954-7.024,6.043-4.271-.858,1.088-1.473,2.284-.463,3.615-1.992,2.885-3.861,5.875-6.1,8.554-.394.469-2.425-.192-3.575-.646-2.442-.963-4.787-2.169-7.2-3.193a14.525,14.525,0,0,0-2.632-.538,40.218,40.218,0,0,0,.395,4.228c.426,2.093-.486,3.1-2.386,3.727a28.484,28.484,0,0,1-13.61.722c-6.5-1.033-6.5-1.038-5.8-7.494.043-.386.049-.775.1-1.684-2.392.957-4.488,1.758-6.556,2.634-1.611.684-3.154,1.541-4.784,2.171a2.823,2.823,0,0,1-3.8-1.319c-1.013-1.672-2.177-3.253-3.3-4.856-.716-1.021-1.266-1.927-.639-3.334.263-.585-.487-1.622-.778-2.466,2.83-1.512,3.957-1.114,5.009,1.83.271.754.563,1.5.918,2.452l3.232-1.26c-.65-1.166-1.181-2.114-1.712-3.062h1.336a4.312,4.312,0,0,0-3.085-4.3c.2.628.316.994.433,1.359-.593-.637-1.409-1.141-.482-2.225.229-.268-.3-1.183-.483-1.8.556.833,1.115,1.668,1.792,2.681.469-1.918.02-3.263-1.351-4.166-.886-.582-1.138-.213-.665.692q-.281-1.04-.564-2.08l.472-.2,1.141,1.069.373-.192q-.937-3.044-1.878-6.085.851,1.381,1.7,2.763l.53-.236c-.46-1.272-.919-2.546-1.412-3.806,0-.013-.479.156-.731.24-.193-.327-.578-.923-.552-.941,1.24-.881.182-1.883.175-2.813q.855,1.707,1.708,3.414l.636-.224c-.338-1.281-.681-2.563-1.02-3.844a3.544,3.544,0,0,0,.649.278c.595-.888-.349-3.813-1.322-4.068-.069-.018-.284.528-.431.811-.189-.393-.379-.787-.571-1.193l1.81-.527c.176.349.483.967.922,1.845a3.323,3.323,0,0,0-2.037-4.37l.4-.42,3.669,2.353a13.56,13.56,0,0,0-.784,2.853c-.026.423.7.9,1.088,1.347a25.206,25.206,0,0,0-1.32,3.75c-.084.421.717,1.021,1.114,1.538a3.446,3.446,0,0,0,.869,4.919c-.29-.07-.709-.3-.847-.186a2.957,2.957,0,0,0,.17,4.555,30.411,30.411,0,0,0,.283,4.1c.077.4,1,.639,1.536.95a19.983,19.983,0,0,0,.253,2.873,1.2,1.2,0,0,0,2.287.25,1.981,1.981,0,0,0-.476-1.564,14.018,14.018,0,0,0-2.081-1.556c.938.21,1.557-.071,1.123-1.09-.517-1.216-1.242-2.343-1.879-3.508,1.466.205,1.172-.963,1-1.576a24.442,24.442,0,0,0-1.43-3.3c1.761-1.1,1.562-3.935-.4-5.687,2.1-1.188.579-2.695.357-4.087.318-.493.956-1.031.894-1.469a22.859,22.859,0,0,0-.991-3.412q1.651-1.048,3.3-2.1l.327.305-1.221,2.665,1.4-.23c-.613,2.35-1.237,4.745-1.961,7.521l1.461-.589c.966,1.462-2.7,3.241.8,4.262-1.546,1.4-2.474,2.729-1.438,4.625l1.433-.676c-.943,1.838-2.295,3.294-.883,5.119.424-.354.9-.746,1.37-1.138l.442.188q-.577,1.951-1.155,3.9l.387.127c.415-.388.832-.774,1.566-1.457-.334,1.687-.563,2.829-.784,3.935,2.63-.314,4.884-.706,7.15-.813,1.7-.08,2.733.9,2.977,2.682.285,2.067.67,4.121,1.083,6.61h9.729c.435-2.441.862-4.479,1.147-6.537a2.847,2.847,0,0,1,3.142-2.761c1.85.028,3.7.291,5.629.458,0-.5.226-1.229-.038-1.541-1.17-1.382-.579-1.716,1.051-1.64-.2-.993-.383-1.89-.66-3.252l1.818,1.255.553-.11c-.272-1.169-.537-2.341-.822-3.506-.073-.3-.386-.743-.282-.868,1.054-1.278.231-2.911.649-4.049.613-1.662-.28-2.771-.418-4.124-.143-1.4-.259-2.8-.4-4.374,2.97-.62.484-1.883-.409-3.142h1.773c-.4-.894-.757-1.7-1.178-2.646,1.138-.111,2.388,1.6,2.9-.45q.158,1.395.32,2.789a13.315,13.315,0,0,0,.612,8.865c-1.307-.257-1.172,1.243-1.261,2.045a11.5,11.5,0,0,0,.489,3.1c.238-.12.477-.24.709-.355a37.973,37.973,0,0,0-1.668,4.033c-.186.622-.295,1.834,1.164,1.3a33.354,33.354,0,0,0-2.018,3.568c-.415.98.132,1.45,1.193,1.163a6.382,6.382,0,0,0-.641.457c-.7.646-1.393,1.307-2.087,1.962.363.338.93,1.031,1.061.958a17.029,17.029,0,0,0,2.126-1.606c.05-.039.079-.106-.012.022-.172-.69-.307-1.235-.442-1.782.643-.68,1.557-1.258,1.856-2.064.369-.984.722-2.3-.744-2.97,2.256-1.076,2.33-3.368.161-4.992l.987-.619a32.855,32.855,0,0,0,.811-5.462c-.059-2.631-.5-5.252-.778-7.879q.243-1.131.486-2.262c.2.4.4.807.619,1.25l2.4-1.187c-1.881,1.122-2.135,2.813-1.793,4.8l1.226-2.444c-.483,1.55.674.877,1.666.735-.479,1.058-.816,1.809-1.155,2.558.107-.561.217-1.12.431-2.217-2.152,2.375-2.438,3.567-1.526,4.981-.193,1.127-.387,2.252-.658,3.845C4574.622,3490.06,4574.962,3489.749,4575.307,3489.439Zm-52.427,23.448c.579.851,1.358,2.009,2.15,3.16,1.905,2.776,2.508,2.9,5.608,1.49,2.819-1.283,5.65-2.545,8.527-3.688a2.7,2.7,0,0,0,1.719-3.762c-.187-.451-.446-.872-.671-1.306l.405-.206,1.492,3c1.076-.994,2.756-1.65,2.073-3.5-.624-1.687-2.351-1.562-3.671-1.3a47.487,47.487,0,0,0-6.55,1.934C4530.314,3510.011,4526.708,3511.437,4522.88,3512.887Zm56.26.005c-1.285-.382-2.46-.639-3.562-1.078-3.385-1.346-6.686-2.921-10.128-4.086a20.966,20.966,0,0,0-5.923-.788c-.574-.021-1.4.764-1.7,1.379a1.877,1.877,0,0,0,.462,1.783c2.476,1.47,3.862,4.322,7.227,4.814,2.428.354,4.613,2.151,7.014,3.011.964.345,2.634.336,3.242-.263A29.8,29.8,0,0,0,4579.14,3512.892Zm-37.96,1.465a45.937,45.937,0,0,0-.88,5.1,2.2,2.2,0,0,0,1.054,1.767,24.38,24.38,0,0,0,4.854,1.359c4.644.8,9.275.9,13.724-.986.6-.253,1.437-.92,1.443-1.4.018-1.9-.253-3.806-.43-5.868C4554.252,3516.675,4547.862,3517.349,4541.18,3514.358Z" transform="translate(-4477.224 -3421.76)" fill="#efefef"/>
  <path id="Path_1883" data-name="Path 1883" d="M4544.158,3425.734c-2.7-.822-4.284.088-5.113,2.98-.161-2.844-1.255-4.418-4.355-4.176,2.435-1.158,4.037-2.514,2.548-5.549,1.88,2.173,3.706,3.054,6.107,1.11-.43,1.009-1.3,2.085-1.163,3.009C4542.328,3424.06,4543.457,3424.865,4544.158,3425.734Z" transform="translate(-4485.638 -3386.673)" fill="#efefef"/>
  <path id="Path_1884" data-name="Path 1884" d="M4505.792,3460.341c-1.118-2.981-2.992-3.313-5.465-2.242.6-.92,1.211-1.842,1.85-2.812-.626-.936-1.239-1.859-1.857-2.784,2.464,1.035,4.32.634,5.65-2.154-.453,2.952.624,4.5,3.76,4.605C4506.569,3456.75,4506.569,3456.75,4505.792,3460.341Z" transform="translate(-4465.258 -3405.27)" fill="#efefef"/>
  <path id="Path_1885" data-name="Path 1885" d="M4624.925,3614.884c-2.692.527-3.737,2.034-3.315,4.956-1.386-2.383-2.947-3.646-5.743-1.895,2.025-2.15,2.36-4.08.018-6.2,2.526,1.269,4.482,1.222,5.881-1.4.091,1.088-.162,2.406.371,3.2C4622.632,3614.283,4623.962,3614.461,4624.925,3614.884Z" transform="translate(-4533.773 -3500.143)" fill="#efefef"/>
  <path id="Path_1886" data-name="Path 1886" d="M4479.6,3498.89c1.2-.351,2.537-.376,3.246-1.054.637-.606.588-1.93,1.054-3.2.772,2.818,2.478,3.623,5.3,2.608-2.43,1.753-2.763,3.614-.892,6.007-2.323-1.4-4.243-1.753-5.969.729.077-1.048.552-2.314.127-3.085C4481.986,3500.026,4480.7,3499.608,4479.6,3498.89Z" transform="translate(-4452.972 -3431.528)" fill="#efefef"/>
  <path id="Path_1887" data-name="Path 1887" d="M4634.883,3428.645c-1.042-2.64-2.5-3.922-5.523-2.645,2.477-1.841,2.84-3.689.915-6.048,2.328,1.362,4.338,1.987,5.983-1.08-.64,2.777-.28,4.715,2.845,5.417C4636.4,3424.588,4634.531,3425.4,4634.883,3428.645Z" transform="translate(-4541.773 -3386.605)" fill="#efefef"/>
  <path id="Path_1888" data-name="Path 1888" d="M4665.166,3455.155c2.936-.565,4.167-1.928,3.783-4.758.71.8,1.294,2.031,2.162,2.284.928.27,2.126-.38,3.446-.686-.689,1.14-1.709,2.084-1.71,3.032,0,.93,1.027,1.863,1.674,2.908-3.24-.539-3.24-.539-5.889,2.041C4669.105,3457.189,4668.439,3455.321,4665.166,3455.155Z" transform="translate(-4563.004 -3405.299)" fill="#efefef"/>
  <path id="Path_1889" data-name="Path 1889" d="M4664.085,3592.156c-2.453-1.832-4.3-1.381-6.058.972.96-2.806.125-4.441-2.708-5.259,2.712-.27,4.393-1.265,4.072-4.424,1.1,2.682,2.672,3.816,5.558,2.6C4662.662,3587.831,4662.085,3589.7,4664.085,3592.156Z" transform="translate(-4557.165 -3484.191)" fill="#efefef"/>
  <path id="Path_1890" data-name="Path 1890" d="M4516.949,3593.415c-1.869-2.011-3.607-3.186-6.067-.687,1.735-2.492,1.6-4.427-.921-6.188,2.854.954,4.534.1,5.412-2.807-.035,3.009,1.248,4.307,4.21,4.21C4517.135,3589.032,4515.705,3590.487,4516.949,3593.415Z" transform="translate(-4470.974 -3484.362)" fill="#efefef"/>
  <path id="Path_1891" data-name="Path 1891" d="M4592.057,3410.584c-2.884,1.36-3.617,3.055-2.087,5.646-2.123-1.83-4.058-2.232-6,.384.413-3.667.413-3.667-2.062-6.269,2.938.7,4.5-.364,4.98-3.059.46.99.678,2.292,1.446,2.874C4589.024,3410.689,4590.317,3410.433,4592.057,3410.584Z" transform="translate(-4513.632 -3379.735)" fill="#efefef"/>
  <path id="Path_1892" data-name="Path 1892" d="M4692.362,3503.981c-1.739-2.511-3.566-2.524-5.876-.771,1.519-2.373,1.613-4.357-1.067-6.069,2.86.967,4.532.1,5.419-2.746.13,2.787,1.1,4.395,4.235,4.132C4692.432,3499.6,4691.447,3501.231,4692.362,3503.981Z" transform="translate(-4575.013 -3431.388)" fill="#efefef"/>
  <path id="Path_1893" data-name="Path 1893" d="M4690.109,3550.106c-2.891-.414-4.307.747-4.713,3.633-.682-2.692-1.847-4.327-5.033-3.316,2.352-1.541,3.634-3.156,2.045-5.832.919.55,1.832,1.516,2.762,1.534.911.016,1.839-.935,3.334-1.789C4687.112,3546.955,4687.34,3548.864,4690.109,3550.106Z" transform="translate(-4572.017 -3460.999)" fill="#efefef"/>
  <path id="Path_1894" data-name="Path 1894" d="M4550.752,3613.466c2.508-.683,3.6-2.148,2.984-5.081,1.453,2.451,3.233,3.134,5.785,1.338-1.522,3.523-1.522,3.523.385,6.51-2.612-1.247-4.54-1.005-5.786,1.494-.144-1.025.037-2.311-.52-3C4553.023,3614.006,4551.732,3613.862,4550.752,3613.466Z" transform="translate(-4495.163 -3498.979)" fill="#efefef"/>
  <path id="Path_1895" data-name="Path 1895" d="M4491.6,3544.624c-1.022,2.562-1.118,4.593,2.068,5.729-2.919-.357-4.593.558-4.955,3.613-.62-2.824-2.012-4.141-5.015-3.417,2.4-1.43,3.553-3.039,1.767-5.827C4487.641,3546.716,4489.569,3546.978,4491.6,3544.624Z" transform="translate(-4455.401 -3461.17)" fill="#efefef"/>
  <path id="Path_1896" data-name="Path 1896" d="M4615.664,3477h-4.221C4613.012,3474.544,4613.531,3474.525,4615.664,3477Z" transform="translate(-4531.149 -3419.976)" fill="#efefef"/>
  <path id="Path_1897" data-name="Path 1897" d="M4571.423,3476.964h-4C4568.827,3474.485,4569.773,3474.474,4571.423,3476.964Z" transform="translate(-4505.05 -3419.946)" fill="#efefef"/>
  <path id="Path_1898" data-name="Path 1898" d="M4570.9,3574.694l.85-3.58.66-.1c.282,1.331.563,2.663.98,4.611Z" transform="translate(-4507.11 -3476.817)" fill="#efefef"/>
  <path id="Path_1899" data-name="Path 1899" d="M4578.955,3576.427c-.209.38-.382.691-.555,1l-.295-.1.473-3.5c3.579.209-.037,2.876,1.236,3.857C4579.554,3577.3,4579.295,3576.925,4578.955,3576.427Z" transform="translate(-4511.379 -3478.487)" fill="#efefef"/>
  <path id="Path_1900" data-name="Path 1900" d="M4608.9,3577.82l-1.2-.842-.217,1.267-.411.011-.374-3.542.514-.227,1.886,3.146Z" transform="translate(-4528.331 -3478.878)" fill="#efefef"/>
</svg>
