<svg xmlns="http://www.w3.org/2000/svg" width="778" height="478.557" viewBox="0 0 778 478.557">
  <g id="Group_724" data-name="Group 724" transform="translate(-536 -898.443)">
    <text id="Switzerland_-_237.5_billion" data-name="Switzerland - 237.5 billion" transform="translate(706 1354)" fill="#efefef" font-size="14" font-family="MuseoSans-900, Museo Sans" font-weight="900"><tspan x="0.424" y="13">Switzerland - 237.5 billion</tspan></text>
    <text id="Luxembourg_-_254.6_billion" data-name="Luxembourg - 254.6 billion" transform="translate(940 1360)" fill="#efefef" font-size="14" font-family="MuseoSans-900, Museo Sans" font-weight="900"><tspan x="0" y="13">Luxembourg - 254.6 billion</tspan></text>
    <text id="Ireland_-_281.8_billion" data-name="Ireland - 281.8 billion" transform="translate(1002 1336)" fill="#efefef" font-size="14" font-family="MuseoSans-900, Museo Sans" font-weight="900"><tspan x="0" y="13">Ireland - 281.8 billion</tspan></text>
    <text id="Brazil_-_281.9_billion" data-name="Brazil - 281.9 billion" transform="translate(1053 1306)" fill="#efefef" font-size="14" font-family="MuseoSans-900, Museo Sans" font-weight="900"><tspan x="0" y="13">Brazil - 281.9 billion</tspan></text>
    <text id="Other_-_3.08_trillion" data-name="Other - 3.08 trillion" transform="translate(536 1114)" fill="#efefef" font-size="14" font-family="MuseoSans-900, Museo Sans" font-weight="900"><tspan x="1.21" y="13">Other - 3.08 trillion</tspan></text>
    <text id="United_Kingdom_-_332.6_billion" data-name="United Kingdom - 332.6 billion" transform="translate(1100 1259)" fill="#efefef" font-size="14" font-family="MuseoSans-900, Museo Sans" font-weight="900"><tspan x="0" y="13">United Kingdom - 332.6 billion</tspan></text>
    <text id="China_-_1.07_trillion" data-name="China - 1.07 trillion" transform="translate(1151 1122)" fill="#efefef" font-size="14" font-family="MuseoSans-900, Museo Sans" font-weight="900"><tspan x="0" y="13">China - 1.07 trillion</tspan></text>
    <text id="Japan_-_1.15_trillion" data-name="Japan - 1.15 trillion" transform="translate(1033 905)" fill="#efefef" font-size="14" font-family="MuseoSans-900, Museo Sans" font-weight="900"><tspan x="0" y="13">Japan - 1.15 trillion</tspan></text>
    <g id="Group_152" data-name="Group 152" transform="translate(-2111 9015)">
      <text id="Foreign_Debt_6.5_Trillion" data-name="Foreign Debt
$6.5 Trillion" transform="translate(2927 -7920)" fill="#efefef" font-size="14" font-family="MuseoSans-500, Museo Sans" font-weight="500"><tspan x="56.311" y="13">Foreign Debt</tspan><tspan font-size="30" font-family="MuseoSans-900, Museo Sans" font-weight="900"><tspan x="10.84" y="45">$6.5 Trillion</tspan></tspan></text>
      <g id="Group_125" data-name="Group 125" transform="translate(6540 -630.557)">
        <g id="Path_1939" data-name="Path 1939" transform="translate(-4327.957 -7684.593)" fill="#bf1d1d" stroke-miterlimit="10">
          <path d="M 807.7463989257812 644.7835083007812 C 791.1610717773438 644.4262084960938 775.8526000976562 642.4109497070312 759.7447509765625 638.4641723632812 L 784.7874755859375 538.0230712890625 C 792.872314453125 539.905029296875 801.1939697265625 540.9620971679688 809.5547485351562 541.1690063476562 L 807.7463989257812 644.7835083007812 Z" stroke="none"/>
          <path d="M 785.5205688476562 539.2163696289062 L 760.9584350585938 637.7298583984375 C 776.3121948242188 641.4243774414062 790.9727783203125 643.3543701171875 806.7640991210938 643.760009765625 L 808.53759765625 542.14013671875 C 800.7735595703125 541.8859252929688 793.048828125 540.9047241210938 785.5205688476562 539.2163696289062 M 784.0563354492188 536.8219604492188 C 792.5797119140625 538.8802490234375 801.4534301757812 540.0382080078125 810.5719604492188 540.1898193359375 L 808.728759765625 645.8028564453125 C 791.317138671875 645.4984741210938 775.428955078125 643.4074096679688 758.5320434570312 639.1945190429688 L 784.0563354492188 536.8219604492188 Z" stroke="none" fill="#efefef"/>
        </g>
        <g id="Path_1940" data-name="Path 1940" transform="translate(-4331.387 -7684.625)" fill="#1c77c3" stroke-miterlimit="10">
          <path d="M 816.3529663085938 644.8716430664062 C 815.3048706054688 644.8716430664062 814.2405395507812 644.864501953125 813.1771850585938 644.850341796875 L 814.9854736328125 541.2384033203125 C 815.342041015625 541.2438354492188 815.7028198242188 541.247802734375 816.0623168945312 541.247802734375 C 824.7465209960938 541.247802734375 833.4260864257812 540.3272705078125 841.8783569335938 538.5105590820312 L 865.1669311523438 639.3856811523438 C 857.068115234375 641.2210693359375 849.2662963867188 642.5571899414062 841.3492431640625 643.465576171875 C 833.1035766601562 644.4116821289062 824.9271850585938 644.8716430664062 816.3529663085938 644.8716430664062 Z" stroke="none"/>
          <path d="M 841.1246337890625 539.6913452148438 C 832.9083862304688 541.38818359375 824.4869995117188 542.247802734375 816.0623168945312 542.247802734375 C 816.0308837890625 542.247802734375 815.9993896484375 542.2477416992188 815.968017578125 542.2476806640625 L 814.194580078125 643.8616943359375 C 814.9179077148438 643.8682861328125 815.6392822265625 643.87158203125 816.3529663085938 643.87158203125 C 824.8887329101562 643.87158203125 833.02783203125 643.413818359375 841.2352294921875 642.4721069335938 C 848.79638671875 641.6044921875 856.25244140625 640.3449096679688 863.9662475585938 638.6303100585938 L 841.1246337890625 539.6913452148438 M 842.6302490234375 537.322021484375 L 866.36669921875 640.1370849609375 C 849.5645141601562 644.0162963867188 833.430908203125 645.8716430664062 816.35302734375 645.8716430664062 C 814.9619750976562 645.8716430664062 813.5642700195312 645.8593139648438 812.1598510742188 645.8347778320312 L 814.0030517578125 540.2216796875 C 814.6893920898438 540.2330932617188 815.3744506835938 540.247802734375 816.0623168945312 540.247802734375 C 825.1895751953125 540.247802734375 834.0790405273438 539.2333374023438 842.6302490234375 537.322021484375 Z" stroke="none" fill="#efefef"/>
        </g>
        <g id="Path_1941" data-name="Path 1941" transform="translate(-4333.471 -7683.903)" fill="#e50a17" stroke-miterlimit="10">
          <path d="M 869.1983642578125 638.216064453125 L 845.9130249023438 537.3541870117188 C 855.4091186523438 535.1495361328125 864.6159057617188 531.8069458007812 873.3106689453125 527.4071655273438 L 921.7762451171875 618.55859375 C 912.8970336914062 623.2384033203125 904.5053100585938 627.0375366210938 896.15087890625 630.1611328125 C 887.7952270507812 633.28515625 878.9691772460938 635.9232788085938 869.1983642578125 638.216064453125 Z" stroke="none"/>
          <path d="M 872.8859252929688 528.7384033203125 C 864.676513671875 532.810302734375 856.0238037109375 535.952392578125 847.1111450195312 538.0984497070312 L 869.946533203125 637.0114135742188 C 879.2882080078125 634.7826538085938 887.7644653320312 632.22900390625 895.8006591796875 629.2244873046875 C 903.8356323242188 626.2203369140625 911.9080200195312 622.5867919921875 920.4212646484375 618.1402587890625 L 872.8859252929688 528.7384033203125 M 873.731689453125 526.0689086914062 L 923.1295166015625 618.9736938476562 C 904.81005859375 628.7137451171875 888.6664428710938 634.7501220703125 868.4493408203125 639.4171142578125 L 844.7130737304688 536.6019287109375 C 854.9315185546875 534.3187255859375 864.6651000976562 530.75 873.731689453125 526.0689086914062 Z" stroke="none" fill="#efefef"/>
        </g>
        <g id="Path_1942" data-name="Path 1942" transform="translate(-4335.454 -7682.7)" fill="#1762a0" stroke-miterlimit="10">
          <path d="M 925.526123046875 616.416015625 L 877.0711059570312 525.2857666015625 C 885.7080078125 520.7341918945312 893.7942504882812 515.1445922851562 901.131591796875 508.6541442871094 L 971.2241821289062 583.8195190429688 C 963.858642578125 590.6378784179688 956.7360229492188 596.4796142578125 949.4746704101562 601.6592407226562 C 942.212646484375 606.8392333984375 934.3704223632812 611.6719970703125 925.526123046875 616.416015625 Z" stroke="none"/>
          <path d="M 901.0619506835938 510.0457763671875 C 894.1134643554688 516.0956420898438 886.5130004882812 521.3507690429688 878.42333984375 525.6989135742188 L 925.93701171875 615.0587158203125 C 934.3833618164062 610.4876708984375 941.9096069335938 605.8270874023438 948.8939208984375 600.8450927734375 C 955.877685546875 595.863525390625 962.7346801757812 590.2644653320312 969.8070678710938 583.7660522460938 L 901.0619506835938 510.0457763671875 M 901.1959838867188 507.2568969726562 L 972.6387939453125 583.8701782226562 C 957.4638671875 598.02001953125 943.4329833984375 608.0287475585938 925.113525390625 617.77001953125 L 875.7149658203125 524.8653564453125 C 884.9664916992188 520.0878295898438 893.5228271484375 514.154541015625 901.1959838867188 507.2568969726562 Z" stroke="none" fill="#efefef"/>
        </g>
        <g id="Path_1943" data-name="Path 1943" transform="translate(-4337.196 -7680.725)" fill="#a7050e" stroke-miterlimit="10">
          <path d="M 974.4285888671875 580.4794311523438 L 904.361083984375 505.3407897949219 C 913.2013549804688 497.2625427246094 920.7832641601562 487.9780883789062 926.9177856445312 477.7186889648438 L 1016.094116210938 527.1497192382812 C 1004.557434082031 547.7777099609375 991.6536254882812 564.2938842773438 974.4285888671875 580.4794311523438 Z" stroke="none"/>
          <path d="M 927.2760620117188 479.0606689453125 C 921.3560180664062 488.7880249023438 914.13623046875 497.6321411132812 905.7786254882812 505.3945922851562 L 974.4740600585938 579.0618286132812 C 991.0121459960938 563.400146484375 1003.535034179688 547.3714599609375 1014.729675292969 527.5367431640625 L 927.2760620117188 479.0606689453125 M 926.5527954101562 476.373046875 L 1017.455200195312 526.7608032226562 C 1005.599731445312 548.1486206054688 992.2650146484375 565.2161254882812 974.3805541992188 581.8941650390625 L 902.93798828125 505.281005859375 C 912.2158203125 496.9420166015625 920.1983642578125 487.194091796875 926.5527954101562 476.373046875 Z" stroke="none" fill="#efefef"/>
        </g>
        <g id="Path_1944" data-name="Path 1944" transform="translate(-4338.81 -7669.348)" fill="#10416b" stroke-miterlimit="10">
          <path d="M 1018.677917480469 514.0235595703125 L 929.5446166992188 464.6165161132812 C 934.6897583007812 455.6857299804688 938.6820068359375 446.1412658691406 941.415771484375 436.2323303222656 C 944.3298950195312 425.6697082519531 945.8074340820312 414.7069396972656 945.8074340820312 403.6485290527344 C 945.8074340820312 393.6067199707031 944.5857543945312 383.6190795898438 942.1763305664062 373.9630432128906 C 939.916015625 364.9049072265625 936.6031494140625 356.1022338867188 932.3241577148438 347.7824096679688 L 1018.677917480469 299.9164428710938 C 1027.8876953125 316.6936950683594 1034.944091796875 334.2556762695312 1039.657958984375 352.1336364746094 C 1044.403686523438 370.1328430175781 1046.81005859375 388.5824584960938 1046.81005859375 406.9700317382812 C 1046.81005859375 425.3576049804688 1044.403686523438 443.8072204589844 1039.657958984375 461.8064270019531 C 1034.944091796875 479.6843872070312 1027.8876953125 497.246337890625 1018.677917480469 514.0235595703125 Z" stroke="none"/>
          <path d="M 1018.282653808594 301.2788696289062 L 933.6534423828125 348.1889343261719 C 937.755126953125 356.3214721679688 940.9459228515625 364.9014587402344 943.1466064453125 373.7209777832031 C 945.5758056640625 383.4561157226562 946.8074951171875 393.5252075195312 946.8074951171875 403.6485290527344 C 946.8074951171875 414.7967529296875 945.3177490234375 425.8489990234375 942.3797607421875 436.498291015625 C 939.71337890625 446.1630249023438 935.8597412109375 455.4833984375 930.9149169921875 464.2326965332031 L 1018.282653808594 512.6611328125 C 1027.218017578125 496.2219848632812 1034.080322265625 479.0379028320312 1038.69091796875 461.5514831542969 C 1043.414794921875 443.6354370117188 1045.81005859375 425.2716064453125 1045.81005859375 406.9700317382812 C 1045.81005859375 388.66845703125 1043.414794921875 370.3046264648438 1038.69091796875 352.3885803222656 C 1034.080322265625 334.902099609375 1027.218017578125 317.7179870605469 1018.282653808594 301.2788696289062 M 1019.069519042969 298.5560302734375 C 1057.39013671875 367.6876525878906 1057.39013671875 446.2524108886719 1019.069519042969 515.3839721679688 L 928.1668701171875 464.9961547851562 C 938.7391357421875 446.9963684082031 944.8074951171875 426.0324096679688 944.8074951171875 403.6485290527344 C 944.8074951171875 383.3388061523438 939.8101806640625 364.1989135742188 930.9881591796875 347.379638671875 L 1019.069519042969 298.5560302734375 Z" stroke="none" fill="#efefef"/>
        </g>
        <g id="Path_1945" data-name="Path 1945" transform="translate(-4331.655 -7661.473)" fill="#7d0407" stroke-miterlimit="10">
          <path d="M 924.239013671875 338.1361389160156 C 914.0367431640625 319.0728149414062 898.9357299804688 303.0064697265625 880.5113525390625 291.6257019042969 C 871.0672607421875 285.7920532226562 860.8860473632812 281.2804870605469 850.2506103515625 278.2163696289062 C 839.591552734375 275.1454772949219 828.5204467773438 273.5445861816406 817.3287963867188 273.4545288085938 L 817.3287963867188 176.4749603271484 C 827.47412109375 176.5142822265625 837.5458984375 177.1519622802734 847.2818603515625 178.3719024658203 C 857.2744750976562 179.6239929199219 867.1539916992188 181.5195922851562 876.64599609375 184.0060424804688 C 886.0974731445312 186.4819030761719 895.3917846679688 189.6029968261719 904.2706909179688 193.2826690673828 C 913.1304321289062 196.954345703125 921.7890625 201.2702484130859 930.006103515625 206.1104431152344 C 938.22314453125 210.9506530761719 946.1957397460938 216.4312744140625 953.7023315429688 222.4000396728516 C 961.2252197265625 228.3817901611328 968.4609375 234.9976043701172 975.20849609375 242.0636901855469 C 981.9849853515625 249.1600952148438 988.4326171875 256.8818969726562 994.3721923828125 265.0145568847656 C 1000.159240722656 272.9382934570312 1005.599853515625 281.4380493164062 1010.552734375 290.292236328125 L 924.239013671875 338.1361389160156 Z" stroke="none"/>
          <path d="M 924.63818359375 336.7715454101562 L 1009.188232421875 289.9052429199219 C 1004.387512207031 281.4013977050781 999.136962890625 273.2340393066406 993.564697265625 265.6043395996094 C 987.65087890625 257.5069885253906 981.2316284179688 249.819091796875 974.4852905273438 242.7543029785156 C 967.7691040039062 235.7210693359375 960.5673217773438 229.1362457275391 953.0799560546875 223.1827697753906 C 945.609619140625 217.2428283691406 937.6757202148438 211.7887725830078 929.4985961914062 206.9720764160156 C 921.3214721679688 202.1553955078125 912.7047729492188 197.8604278564453 903.8878784179688 194.2064514160156 C 895.0509033203125 190.544189453125 885.8001708984375 187.437744140625 876.3926391601562 184.9734191894531 C 866.94287109375 182.498046875 857.1067504882812 180.6108093261719 847.1575317382812 179.3641204833984 C 837.7828979492188 178.1894683837891 828.0939331054688 177.5568542480469 818.3287963867188 177.4807891845703 L 818.3287963867188 272.4664611816406 C 829.2737426757812 272.6411743164062 840.0957641601562 274.2500610351562 850.5274047851562 277.2554931640625 C 861.2503662109375 280.3448181152344 871.5152587890625 284.8934020996094 881.0369262695312 290.7749328613281 C 899.3222045898438 302.06982421875 914.36181640625 317.94482421875 924.63818359375 336.7715454101562 M 923.83251953125 339.5048217773438 C 903.551025390625 300.8350219726562 863.0241088867188 274.4505004882812 816.3287963867188 274.4505004882812 L 816.3287963867188 175.4730072021484 C 901.1762084960938 175.4730072021484 970.779296875 216.4724884033203 1011.913879394531 290.6810913085938 L 923.83251953125 339.5048217773438 Z" stroke="none" fill="#efefef"/>
        </g>
        <g id="Path_1946" data-name="Path 1946" transform="translate(-4316.365 -7661.473)" fill="#3f75a2" stroke-miterlimit="10">
          <path d="M 746.2130126953125 614.8607177734375 C 731.8967895507812 611.2234497070312 717.9489135742188 606.17919921875 704.74267578125 599.8616943359375 C 691.5817260742188 593.56591796875 678.9959106445312 585.9300537109375 667.3349609375 577.1661987304688 C 655.8856201171875 568.5614013671875 645.2113037109375 558.7827758789062 635.6087036132812 548.10205078125 C 626.09716796875 537.5225219726562 617.5537719726562 525.9661865234375 610.2158203125 513.7538452148438 C 602.8779296875 501.5414428710938 596.6851806640625 488.5726623535156 591.8094482421875 475.2076721191406 C 586.8870849609375 461.7147827148438 583.264404296875 447.6990966796875 581.0419921875 433.5501098632812 C 578.7785034179688 419.1397094726562 577.9451293945312 404.4423217773438 578.56494140625 389.8660888671875 C 579.2009887695312 374.9092712402344 581.3764038085938 359.89404296875 585.0305786132812 345.2374267578125 C 591.1897583007812 320.5347290039062 601.2028198242188 297.4031066894531 614.791748046875 276.4851684570312 C 628.065673828125 256.0521545410156 644.4884033203125 238.1192626953125 663.6038818359375 223.1847076416016 C 682.7193603515625 208.2501068115234 704.0925903320312 196.6536102294922 727.1299438476562 188.7172698974609 C 750.404541015625 180.6991577148438 774.9305419921875 176.5818023681641 800.0399169921875 176.4751129150391 L 800.0399169921875 273.4545288085938 C 792.0752563476562 273.5189514160156 784.123779296875 274.3528442382812 776.388916015625 275.9356689453125 C 768.5347290039062 277.5428771972656 760.8089599609375 279.9411010742188 753.4264526367188 283.0636596679688 C 746.1781616210938 286.1294250488281 739.1871948242188 289.9239807128906 732.6478881835938 294.3419494628906 C 726.1709594726562 298.7177124023438 720.0802612304688 303.7429504394531 714.5452270507812 309.2781066894531 C 709.0100708007812 314.8132019042969 703.98486328125 320.9038696289062 699.609130859375 327.3808898925781 C 695.191162109375 333.9202575683594 691.3966064453125 340.9112243652344 688.330810546875 348.1596069335938 C 685.208251953125 355.5421447753906 682.81005859375 363.2679443359375 681.2028198242188 371.1222229003906 C 679.5537719726562 379.1808166503906 678.7176513671875 387.4747009277344 678.7176513671875 395.7735595703125 C 678.7176513671875 409.8695983886719 681.09521484375 423.6875610351562 685.7843017578125 436.8436584472656 C 690.3161010742188 449.5582580566406 696.9004516601562 461.3794250488281 705.3545532226562 471.978759765625 C 713.729736328125 482.4792175292969 723.6981811523438 491.4813842773438 734.983154296875 498.7352294921875 C 746.1843872070312 505.9351806640625 758.3811645507812 511.2142028808594 771.2521362304688 514.434326171875 L 746.2130126953125 614.8607177734375 Z" stroke="none"/>
          <path d="M 799.0399169921875 177.4815063476562 C 774.3895263671875 177.6915283203125 750.3170776367188 181.7869873046875 727.4556274414062 189.6627807617188 C 704.5232543945312 197.5629272460938 683.24755859375 209.1064453125 664.2195434570312 223.9727783203125 C 645.1915893554688 238.8389892578125 628.8438110351562 256.6900024414062 615.63037109375 277.0299072265625 C 602.1019897460938 297.8547668457031 592.1331787109375 320.8844604492188 586.0009155273438 345.4793395996094 C 582.3629150390625 360.0707397460938 580.197265625 375.0189208984375 579.5640258789062 389.9086303710938 C 578.9469604492188 404.4188842773438 579.776611328125 419.0497436523438 582.0298461914062 433.3949279785156 C 584.2422485351562 447.4801635742188 587.8486938476562 461.4327087402344 592.7489013671875 474.8649291992188 C 597.6027221679688 488.170166015625 603.7679443359375 501.0809936523438 611.0730590820312 513.23876953125 C 618.378173828125 525.396484375 626.88330078125 536.9012451171875 636.3523559570312 547.4334716796875 C 645.9118041992188 558.0661010742188 656.5379638671875 567.8006591796875 667.935791015625 576.3668212890625 C 679.5439453125 585.0909423828125 692.07275390625 592.6922607421875 705.1741333007812 598.9595947265625 C 718.0224609375 605.1058349609375 731.5740356445312 610.041015625 745.4862060546875 613.6419677734375 L 770.0410766601562 515.157958984375 C 757.4205322265625 511.8914489746094 745.4542236328125 506.6546630859375 734.4424438476562 499.576416015625 C 723.0656127929688 492.2635803222656 713.0160522460938 483.1881713867188 704.57275390625 472.602294921875 C 696.049560546875 461.9163513183594 689.4113159179688 449.9983520507812 684.8424072265625 437.1793518066406 C 680.1148071289062 423.9152221679688 677.7176513671875 409.9843444824219 677.7176513671875 395.7735900878906 C 677.7176513671875 387.4075622558594 678.5606079101562 379.0462341308594 680.22314453125 370.9217529296875 C 681.8436279296875 363.0028076171875 684.2615356445312 355.2134704589844 687.4098510742188 347.7700500488281 C 690.5007934570312 340.4622192382812 694.326416015625 333.4139404296875 698.780517578125 326.821044921875 C 703.19189453125 320.2913513183594 708.2579956054688 314.1510925292969 713.8380737304688 308.5709838867188 C 719.418212890625 302.9908752441406 725.5584106445312 297.9247436523438 732.0880737304688 293.5133361816406 C 738.6809692382812 289.0592956542969 745.7291259765625 285.233642578125 753.0369262695312 282.1427001953125 C 760.4802856445312 278.994384765625 768.26953125 276.576416015625 776.1884155273438 274.9559936523438 C 783.6651611328125 273.4259643554688 791.3429565429688 272.590087890625 799.0399169921875 272.466552734375 L 799.0399169921875 177.4815063476562 M 801.0399169921875 175.4729614257812 L 801.0399169921875 274.4505004882812 C 734.0359497070312 274.4505004882812 679.7176513671875 328.7686462402344 679.7176513671875 395.7735900878906 C 679.7176513671875 452.9344482421875 719.2515258789062 500.85400390625 772.4651489257812 513.7027587890625 L 746.9407958984375 616.0750732421875 C 627.1068115234375 586.1964721679688 554.1826171875 464.8302307128906 584.060302734375 344.9955139160156 C 609.2177734375 244.0953979492188 697.05078125 175.4729614257812 801.0399169921875 175.4729614257812 Z" stroke="none" fill="#efefef"/>
        </g>
      </g>
    </g>
  </g>
</svg>
