<svg xmlns="http://www.w3.org/2000/svg" width="770.55" height="477.497" viewBox="0 0 770.55 477.497">
  <g id="Group_798" data-name="Group 798" transform="translate(-948.7 -7452.443)">
    <path id="Path_3275" data-name="Path 3275" d="M.858,11.74a5.168,5.168,0,0,0,3.654,1.428c2.254,0,3.528-1.442,3.528-3.108,0-3.164-4.508-2.94-4.508-4.2,0-.56.56-.784,1.064-.784a3.82,3.82,0,0,1,2.212.882l1.036-2a4.54,4.54,0,0,0-3.22-1.134c-1.988,0-3.542,1.218-3.542,3.066,0,3.08,4.508,3.038,4.508,4.228,0,.6-.546.8-1.05.8A4.148,4.148,0,0,1,2.146,9.878ZM10.742,13h2.73l.812-3.332a6.611,6.611,0,0,0,.14-.77h.028a6.611,6.611,0,0,0,.14.77L15.4,13h2.7l2.016-7.21H17.6l-.9,4.256a4.985,4.985,0,0,0-.1.756H16.58a4.172,4.172,0,0,0-.112-.756L15.474,5.79H13.4l-.994,4.256a5.141,5.141,0,0,0-.126.756h-.028a4.066,4.066,0,0,0-.084-.756l-.9-4.256H8.726ZM21.228,4.88h2.366V2.99H21.228ZM21.2,13h2.422V5.79H21.2Zm4.578-2.66c0,2.422,2.226,2.73,3.374,2.73a4.661,4.661,0,0,0,.658-.042v-2.1s-.126.014-.322.014c-.462,0-1.288-.112-1.288-.924V7.806h1.512V5.916H28.2V3.844H25.848V5.916h-.994v1.89h.924ZM30.8,13h6.622V10.97h-2.7a3.3,3.3,0,0,0-.644.042v-.028a4.222,4.222,0,0,0,.644-.658l2.632-3.318V5.79h-6.44V7.82H33.45a4.783,4.783,0,0,0,.63-.028V7.82a4.588,4.588,0,0,0-.63.658L30.8,11.8Zm7.5-3.612a3.739,3.739,0,0,0,3.962,3.78,4.869,4.869,0,0,0,3.08-1.05l-.9-1.694a3.78,3.78,0,0,1-1.988.728,1.61,1.61,0,0,1-1.68-1.288h4.55s.056-.518.056-.756A3.2,3.2,0,0,0,42.06,5.622,3.589,3.589,0,0,0,38.308,9.388Zm2.534-.91A1.182,1.182,0,0,1,42,7.442a.982.982,0,0,1,.952,1.036ZM46.708,13H49.13V10.27a3.269,3.269,0,0,1,.126-.98,1.82,1.82,0,0,1,1.862-1.26,2.577,2.577,0,0,1,.49.042V5.692a1.637,1.637,0,0,0-.28-.028,2.5,2.5,0,0,0-2.3,1.792H49a3.815,3.815,0,0,0,.028-.448V5.79H46.708Zm5.922-2.66c0,2.422,1.372,2.73,2.66,2.73a6.585,6.585,0,0,0,.728-.042v-2.1s-.14.014-.294.014c-.546,0-.672-.238-.672-.924V2.99H52.63Zm4.074.5a2.306,2.306,0,0,0,2.45,2.324,2.244,2.244,0,0,0,2.044-1.05h.028a3.815,3.815,0,0,0-.028.448V13H63.41V8.562c0-1.834-1.218-2.94-3.248-2.94a5.453,5.453,0,0,0-3.024.938l.84,1.708a4.3,4.3,0,0,1,1.946-.686c.6,0,1.064.2,1.064.8v.126h-.1C59.77,8.506,56.7,8.744,56.7,10.844Zm2.436-.126c0-.6.882-.826,1.652-.826h.224v.154a1.337,1.337,0,0,1-1.19,1.274C59.35,11.32,59.14,11.054,59.14,10.718ZM65.09,13h2.422V9.808a2.9,2.9,0,0,1,.14-.952A1.419,1.419,0,0,1,69.08,7.82c.532,0,.8.28.8.952V13H72.3V8.324c0-2.03-1.134-2.7-2.59-2.7a2.544,2.544,0,0,0-2.3,1.246h-.028a3.815,3.815,0,0,0,.028-.448V5.79H65.09ZM73.5,9.388c0,2.24,1.288,3.78,3.248,3.78a2.408,2.408,0,0,0,2.086-1.05h.028s-.014.182-.014.406V13H81.12V2.99H78.7V5.874c0,.182.014.322.014.322h-.028s-.434-.574-1.89-.574C74.876,5.622,73.5,7.106,73.5,9.388Zm2.436,0c0-1.106.658-1.722,1.414-1.722.952,0,1.414.854,1.414,1.722,0,1.246-.686,1.778-1.414,1.778C76.514,11.166,75.94,10.466,75.94,9.388Zm10.22.644h4.4v-2.1h-4.4ZM95.484,13h6.93V10.9H98.158c.07-1.288,4.1-1.89,4.1-5.012a3.123,3.123,0,0,0-3.416-3.066,3.86,3.86,0,0,0-3.528,2.156L97.136,6.2s.532-1.064,1.484-1.064a.989.989,0,0,1,1.078.994c0,1.442-4.326,2.1-4.326,5.8A6.134,6.134,0,0,0,95.484,13Zm8.05-1.148a4.746,4.746,0,0,0,3.416,1.316,3.4,3.4,0,0,0,3.71-3.416,2.94,2.94,0,0,0-2.422-2.9l2.03-2.338V2.99h-6.314v2.1h2.394a4.987,4.987,0,0,0,.952-.07v.028a10.89,10.89,0,0,0-.868.938l-1.316,1.582.518,1.19h.7c1.078,0,1.862.322,1.862,1.106,0,.546-.518.994-1.428.994a3.273,3.273,0,0,1-2.058-.9ZM112.242,13h2.548l4.2-8.3V2.99h-7.182v2.1h3.948a2.8,2.8,0,0,0,.644-.042v.028a2.8,2.8,0,0,0-.644.91Zm7.07,0h2.3V10.7h-2.3Zm3.64-1.148a4.824,4.824,0,0,0,3.416,1.316,3.5,3.5,0,0,0,3.71-3.57c0-1.806-1.2-3.29-3.584-3.29a3.057,3.057,0,0,0-.728.1h-.028a1.638,1.638,0,0,0,.056-.392l.056-.924h3.472V2.99h-5.6l-.406,5.236,1.3.49a2.914,2.914,0,0,1,1.344-.336c.91,0,1.6.462,1.6,1.246a1.3,1.3,0,0,1-1.4,1.232,3.3,3.3,0,0,1-2.03-.9ZM134.7,13h2.268v-.238c0-.224-.014-.406-.014-.406h.028a2.577,2.577,0,0,0,1.974.812c1.918,0,3.36-1.484,3.36-3.766,0-2.24-1.288-3.78-3.248-3.78a2.678,2.678,0,0,0-1.946.77h-.028s.028-.252.028-.616V2.99H134.7Zm2.352-3.556c0-1.246.686-1.778,1.414-1.778.84,0,1.414.7,1.414,1.778,0,1.106-.658,1.722-1.414,1.722C137.512,11.166,137.05,10.312,137.05,9.444Zm6.594-4.564h2.366V2.99h-2.366ZM143.616,13h2.422V5.79h-2.422Zm4.116-2.66c0,2.422,1.372,2.73,2.66,2.73a6.585,6.585,0,0,0,.728-.042v-2.1s-.14.014-.294.014c-.546,0-.672-.238-.672-.924V2.99h-2.422Zm4.522,0c0,2.422,1.372,2.73,2.66,2.73a6.585,6.585,0,0,0,.728-.042v-2.1s-.14.014-.294.014c-.546,0-.672-.238-.672-.924V2.99h-2.422ZM156.9,4.88h2.366V2.99H156.9ZM156.874,13H159.3V5.79h-2.422Zm3.682-3.584a4.1,4.1,0,1,0,4.074-3.794A3.811,3.811,0,0,0,160.556,9.416Zm2.45,0a1.644,1.644,0,1,1,3.276,0,1.641,1.641,0,1,1-3.276,0ZM169.992,13h2.422V9.808a2.9,2.9,0,0,1,.14-.952,1.419,1.419,0,0,1,1.428-1.036c.532,0,.8.28.8.952V13H177.2V8.324c0-2.03-1.134-2.7-2.59-2.7a2.544,2.544,0,0,0-2.3,1.246h-.028a3.815,3.815,0,0,0,.028-.448V5.79h-2.324Z" transform="translate(1117 7908)" fill="#efefef"/>
    <path id="Path_3274" data-name="Path 3274" d="M1.176,13H7.714V10.9H3.626V2.99H1.176Zm7.5-2.534c0,2.03,1.134,2.7,2.562,2.7A2.5,2.5,0,0,0,13.5,11.922h.028a3.815,3.815,0,0,0-.028.448V13H15.82V5.79H13.4V8.982c0,1.078-.49,1.988-1.526,1.988-.5,0-.77-.28-.77-.952V5.79H8.68ZM16.926,13h2.66l.854-1.624c.07-.126.168-.364.168-.364h.028s.1.238.168.364L21.672,13h2.66L22.064,9.43l2.31-3.64h-2.73L20.86,7.4c-.084.182-.224.476-.224.476h-.028s-.126-.294-.224-.476L19.6,5.79H16.87l2.324,3.64Zm7.882-3.612a3.739,3.739,0,0,0,3.962,3.78,4.869,4.869,0,0,0,3.08-1.05l-.9-1.694a3.78,3.78,0,0,1-1.988.728,1.61,1.61,0,0,1-1.68-1.288h4.55s.056-.518.056-.756A3.2,3.2,0,0,0,28.56,5.622,3.589,3.589,0,0,0,24.808,9.388Zm2.534-.91A1.182,1.182,0,0,1,28.5,7.442a.982.982,0,0,1,.952,1.036ZM33.208,13H35.63V10.018a4.562,4.562,0,0,1,.07-.9c.168-.77.56-1.3,1.316-1.3.462,0,.56.378.56.91V13H40V10.018a4.033,4.033,0,0,1,.056-.84c.154-.8.56-1.358,1.33-1.358.462,0,.56.378.56.91V13h2.422V8.324c0-1.988-1.022-2.7-2.338-2.7a2.785,2.785,0,0,0-2.31,1.218H39.69a2.088,2.088,0,0,0-2.016-1.218,2.565,2.565,0,0,0-2.142,1.246H35.5a3.815,3.815,0,0,0,.028-.448V5.79H33.208ZM46.06,13h2.268v-.238c0-.224-.014-.406-.014-.406h.028a2.577,2.577,0,0,0,1.974.812c1.918,0,3.36-1.484,3.36-3.766,0-2.24-1.288-3.78-3.248-3.78a2.678,2.678,0,0,0-1.946.77h-.028s.028-.252.028-.616V2.99H46.06Zm2.352-3.556c0-1.246.686-1.778,1.414-1.778.84,0,1.414.7,1.414,1.778,0,1.106-.658,1.722-1.414,1.722C48.874,11.166,48.412,10.312,48.412,9.444Zm6.034-.028A4.1,4.1,0,1,0,58.52,5.622,3.811,3.811,0,0,0,54.446,9.416Zm2.45,0a1.644,1.644,0,1,1,3.276,0,1.641,1.641,0,1,1-3.276,0Zm6.888,1.05c0,2.03,1.134,2.7,2.562,2.7A2.5,2.5,0,0,0,68.6,11.922h.028a3.815,3.815,0,0,0-.028.448V13h2.324V5.79H68.5V8.982c0,1.078-.49,1.988-1.526,1.988-.5,0-.77-.28-.77-.952V5.79H63.784ZM72.716,13h2.422V10.27a3.269,3.269,0,0,1,.126-.98,1.82,1.82,0,0,1,1.862-1.26,2.577,2.577,0,0,1,.49.042V5.692a1.637,1.637,0,0,0-.28-.028,2.5,2.5,0,0,0-2.3,1.792h-.028a3.815,3.815,0,0,0,.028-.448V5.79H72.716Zm6.916.462L78.946,15.3a6.378,6.378,0,0,0,2.73.644c1.974,0,4.074-.966,4.074-3.6V5.79H83.482v.364a1.171,1.171,0,0,0,.014.168h-.042a2.734,2.734,0,0,0-1.96-.7c-2.184,0-3.234,1.708-3.234,3.542s1.078,3.626,3.248,3.626a2.145,2.145,0,0,0,1.806-.756h.028s-.014.182-.014.266v.238c0,1.064-.8,1.386-1.666,1.386A4.9,4.9,0,0,1,79.632,13.462Zm2.45-2.688c-.966,0-1.386-.8-1.386-1.694a1.272,1.272,0,0,1,1.288-1.442c.728,0,1.4.28,1.4,1.554S82.712,10.774,82.082,10.774Zm8.708-.742h4.4v-2.1h-4.4ZM100.114,13h6.93V10.9h-4.256c.07-1.288,4.1-1.89,4.1-5.012a3.123,3.123,0,0,0-3.416-3.066,3.86,3.86,0,0,0-3.528,2.156l1.82,1.218s.532-1.064,1.484-1.064a.989.989,0,0,1,1.078.994c0,1.442-4.326,2.1-4.326,5.8A6.134,6.134,0,0,0,100.114,13Zm8.162-1.148a4.824,4.824,0,0,0,3.416,1.316A3.5,3.5,0,0,0,115.4,9.6c0-1.806-1.2-3.29-3.584-3.29a3.057,3.057,0,0,0-.728.1h-.028a1.638,1.638,0,0,0,.056-.392l.056-.924h3.472V2.99h-5.6l-.406,5.236,1.3.49a2.914,2.914,0,0,1,1.344-.336c.91,0,1.6.462,1.6,1.246a1.3,1.3,0,0,1-1.4,1.232,3.3,3.3,0,0,1-2.03-.9Zm8.008-1.274h4.438V13h2.422V10.578h1.19V8.548h-1.19V2.99h-3l-3.864,6.1Zm2.492-2.03V8.52l1.512-2.3a5.334,5.334,0,0,0,.49-1.036h.028a8.946,8.946,0,0,0-.084,1.12v2.24ZM125.748,13h2.3V10.7h-2.3Zm7.714.168a3.321,3.321,0,0,0,3.416-3.374,3.284,3.284,0,0,0-3.276-3.43,3.028,3.028,0,0,0-1.372.35H132.2a2.184,2.184,0,0,1,2.156-1.652,3.813,3.813,0,0,1,1.372.294l.658-2.1a5.048,5.048,0,0,0-2.212-.434c-3.108,0-4.774,2.842-4.774,5.558C129.4,11.642,131.446,13.168,133.462,13.168Zm0-2.24a1.856,1.856,0,0,1-1.54-1.988c0-.462.476-.6,1.036-.6a1.4,1.4,0,0,1,1.512,1.47A1.049,1.049,0,0,1,133.462,10.928ZM141.526,13h2.268v-.238c0-.224-.014-.406-.014-.406h.028a2.577,2.577,0,0,0,1.974.812c1.918,0,3.36-1.484,3.36-3.766,0-2.24-1.288-3.78-3.248-3.78a2.678,2.678,0,0,0-1.946.77h-.028s.028-.252.028-.616V2.99h-2.422Zm2.352-3.556c0-1.246.686-1.778,1.414-1.778.84,0,1.414.7,1.414,1.778,0,1.106-.658,1.722-1.414,1.722C144.34,11.166,143.878,10.312,143.878,9.444Zm6.594-4.564h2.366V2.99h-2.366ZM150.444,13h2.422V5.79h-2.422Zm4.116-2.66c0,2.422,1.372,2.73,2.66,2.73a6.585,6.585,0,0,0,.728-.042v-2.1s-.14.014-.294.014c-.546,0-.672-.238-.672-.924V2.99H154.56Zm4.522,0c0,2.422,1.372,2.73,2.66,2.73a6.585,6.585,0,0,0,.728-.042v-2.1s-.14.014-.294.014c-.546,0-.672-.238-.672-.924V2.99h-2.422Zm4.648-5.46H166.1V2.99H163.73ZM163.7,13h2.422V5.79H163.7Zm3.682-3.584a4.1,4.1,0,1,0,4.074-3.794A3.811,3.811,0,0,0,167.384,9.416Zm2.45,0a1.644,1.644,0,1,1,3.276,0,1.641,1.641,0,1,1-3.276,0ZM176.82,13h2.422V9.808a2.9,2.9,0,0,1,.14-.952A1.419,1.419,0,0,1,180.81,7.82c.532,0,.8.28.8.952V13h2.422V8.324c0-2.03-1.134-2.7-2.59-2.7a2.544,2.544,0,0,0-2.3,1.246h-.028a3.815,3.815,0,0,0,.028-.448V5.79H176.82Z" transform="translate(1351 7914)" fill="#efefef"/>
    <path id="Path_3272" data-name="Path 3272" d="M1.176,13h2.45V2.99H1.176ZM5.7,13H8.12V10.27a3.269,3.269,0,0,1,.126-.98,1.82,1.82,0,0,1,1.862-1.26,2.577,2.577,0,0,1,.49.042V5.692a1.637,1.637,0,0,0-.28-.028,2.5,2.5,0,0,0-2.3,1.792H7.994a3.815,3.815,0,0,0,.028-.448V5.79H5.7Zm5.5-3.612a3.739,3.739,0,0,0,3.962,3.78,4.869,4.869,0,0,0,3.08-1.05l-.9-1.694a3.78,3.78,0,0,1-1.988.728,1.61,1.61,0,0,1-1.68-1.288h4.55s.056-.518.056-.756a3.2,3.2,0,0,0-3.332-3.486A3.589,3.589,0,0,0,11.2,9.388Zm2.534-.91A1.182,1.182,0,0,1,14.9,7.442a.982.982,0,0,1,.952,1.036ZM19.5,10.34c0,2.422,1.372,2.73,2.66,2.73a6.585,6.585,0,0,0,.728-.042v-2.1s-.14.014-.294.014c-.546,0-.672-.238-.672-.924V2.99H19.5Zm4.074.5a2.306,2.306,0,0,0,2.45,2.324,2.244,2.244,0,0,0,2.044-1.05H28.1a3.815,3.815,0,0,0-.028.448V13h2.212V8.562c0-1.834-1.218-2.94-3.248-2.94a5.453,5.453,0,0,0-3.024.938l.84,1.708A4.3,4.3,0,0,1,26.8,7.582c.6,0,1.064.2,1.064.8v.126h-.1C26.642,8.506,23.576,8.744,23.576,10.844Zm2.436-.126c0-.6.882-.826,1.652-.826h.224v.154A1.337,1.337,0,0,1,26.7,11.32C26.222,11.32,26.012,11.054,26.012,10.718ZM31.962,13h2.422V9.808a2.9,2.9,0,0,1,.14-.952A1.419,1.419,0,0,1,35.952,7.82c.532,0,.8.28.8.952V13h2.422V8.324c0-2.03-1.134-2.7-2.59-2.7a2.544,2.544,0,0,0-2.3,1.246h-.028a3.815,3.815,0,0,0,.028-.448V5.79H31.962Zm8.414-3.612c0,2.24,1.288,3.78,3.248,3.78a2.408,2.408,0,0,0,2.086-1.05h.028s-.014.182-.014.406V13h2.268V2.99H45.57V5.874c0,.182.014.322.014.322h-.028s-.434-.574-1.89-.574C41.748,5.622,40.376,7.106,40.376,9.388Zm2.436,0c0-1.106.658-1.722,1.414-1.722.952,0,1.414.854,1.414,1.722,0,1.246-.686,1.778-1.414,1.778C43.386,11.166,42.812,10.466,42.812,9.388Zm10.22.644h4.4v-2.1h-4.4ZM62.356,13h6.93V10.9H65.03c.07-1.288,4.1-1.89,4.1-5.012a3.123,3.123,0,0,0-3.416-3.066,3.86,3.86,0,0,0-3.528,2.156L64.008,6.2s.532-1.064,1.484-1.064a.989.989,0,0,1,1.078.994c0,1.442-4.326,2.1-4.326,5.8A6.134,6.134,0,0,0,62.356,13ZM70.6,10.06c0,1.6,1.274,3.108,3.71,3.108,2.478,0,3.71-1.526,3.71-3.052A2.443,2.443,0,0,0,76.846,8a4.232,4.232,0,0,0,.98-2.282c0-1.862-1.526-2.9-3.388-2.9-2.338,0-3.36,1.428-3.36,2.884a2.433,2.433,0,0,0,.91,1.918A3.349,3.349,0,0,0,70.6,10.06Zm4.914-.07c0,.658-.462,1.022-1.2,1.022a1.178,1.178,0,0,1-1.2-1.162,1.8,1.8,0,0,1,.532-1.218C74.62,9.08,75.516,9.416,75.516,9.99ZM73.472,5.762c0-.434.28-.784.91-.784a.921.921,0,0,1,1.05.924,2.524,2.524,0,0,1-.35,1.232C74.2,6.756,73.472,6.42,73.472,5.762ZM79.492,13h6.664V10.9H84.014V2.99H81.9L79.2,5.524l1.414,1.512.6-.546a1.891,1.891,0,0,0,.392-.532h.028s-.014.392-.014.77V10.9H79.492Zm7.8,0h2.3V10.7h-2.3Zm3.724-2.94c0,1.6,1.274,3.108,3.71,3.108,2.478,0,3.71-1.526,3.71-3.052A2.443,2.443,0,0,0,97.258,8a4.232,4.232,0,0,0,.98-2.282c0-1.862-1.526-2.9-3.388-2.9-2.338,0-3.36,1.428-3.36,2.884a2.433,2.433,0,0,0,.91,1.918A3.349,3.349,0,0,0,91.014,10.06Zm4.914-.07c0,.658-.462,1.022-1.2,1.022a1.178,1.178,0,0,1-1.2-1.162,1.8,1.8,0,0,1,.532-1.218C95.032,9.08,95.928,9.416,95.928,9.99ZM93.884,5.762c0-.434.28-.784.91-.784a.921.921,0,0,1,1.05.924,2.524,2.524,0,0,1-.35,1.232C94.612,6.756,93.884,6.42,93.884,5.762ZM103.222,13h2.268v-.238c0-.224-.014-.406-.014-.406h.028a2.577,2.577,0,0,0,1.974.812c1.918,0,3.36-1.484,3.36-3.766,0-2.24-1.288-3.78-3.248-3.78a2.678,2.678,0,0,0-1.946.77h-.028s.028-.252.028-.616V2.99h-2.422Zm2.352-3.556c0-1.246.686-1.778,1.414-1.778.84,0,1.414.7,1.414,1.778,0,1.106-.658,1.722-1.414,1.722C106.036,11.166,105.574,10.312,105.574,9.444Zm6.594-4.564h2.366V2.99h-2.366ZM112.14,13h2.422V5.79H112.14Zm4.116-2.66c0,2.422,1.372,2.73,2.66,2.73a6.585,6.585,0,0,0,.728-.042v-2.1s-.14.014-.294.014c-.546,0-.672-.238-.672-.924V2.99h-2.422Zm4.522,0c0,2.422,1.372,2.73,2.66,2.73a6.585,6.585,0,0,0,.728-.042v-2.1s-.14.014-.294.014c-.546,0-.672-.238-.672-.924V2.99h-2.422Zm4.648-5.46h2.366V2.99h-2.366ZM125.4,13h2.422V5.79H125.4Zm3.682-3.584a4.1,4.1,0,1,0,4.074-3.794A3.811,3.811,0,0,0,129.08,9.416Zm2.45,0a1.644,1.644,0,1,1,3.276,0,1.641,1.641,0,1,1-3.276,0ZM138.516,13h2.422V9.808a2.9,2.9,0,0,1,.14-.952,1.419,1.419,0,0,1,1.428-1.036c.532,0,.8.28.8.952V13h2.422V8.324c0-2.03-1.134-2.7-2.59-2.7a2.544,2.544,0,0,0-2.3,1.246h-.028a3.815,3.815,0,0,0,.028-.448V5.79h-2.324Z" transform="translate(1413 7890)" fill="#efefef"/>
    <path id="Path_3270" data-name="Path 3270" d="M1.176,13H4.858c1.988,0,3.808-.8,3.808-2.982A2.245,2.245,0,0,0,7.1,7.764V7.736A2.444,2.444,0,0,0,8.26,5.608c0-1.722-1.4-2.618-3.4-2.618H1.176Zm2.45-6.132V5.09H4.844a.814.814,0,0,1,.924.854.847.847,0,0,1-.882.924Zm0,4.032V8.828H5.11A.962.962,0,0,1,6.16,9.85.994.994,0,0,1,5.1,10.9Zm6.5,2.1h2.422V10.27a3.269,3.269,0,0,1,.126-.98,1.82,1.82,0,0,1,1.862-1.26,2.577,2.577,0,0,1,.49.042V5.692a1.637,1.637,0,0,0-.28-.028,2.5,2.5,0,0,0-2.3,1.792h-.028a3.815,3.815,0,0,0,.028-.448V5.79H10.122ZM15.6,10.844a2.306,2.306,0,0,0,2.45,2.324,2.244,2.244,0,0,0,2.044-1.05h.028a3.815,3.815,0,0,0-.028.448V13H22.3V8.562c0-1.834-1.218-2.94-3.248-2.94a5.453,5.453,0,0,0-3.024.938l.84,1.708a4.3,4.3,0,0,1,1.946-.686c.6,0,1.064.2,1.064.8v.126h-.1C18.662,8.506,15.6,8.744,15.6,10.844Zm2.436-.126c0-.6.882-.826,1.652-.826h.224v.154a1.337,1.337,0,0,1-1.19,1.274C18.242,11.32,18.032,11.054,18.032,10.718ZM23.562,13h6.622V10.97h-2.7a3.3,3.3,0,0,0-.644.042v-.028a4.223,4.223,0,0,0,.644-.658l2.632-3.318V5.79h-6.44V7.82h2.534a4.783,4.783,0,0,0,.63-.028V7.82a4.588,4.588,0,0,0-.63.658L23.562,11.8Zm8.05-8.12h2.366V2.99H31.612ZM31.584,13h2.422V5.79H31.584ZM35.7,10.34c0,2.422,1.372,2.73,2.66,2.73a6.585,6.585,0,0,0,.728-.042v-2.1s-.14.014-.294.014c-.546,0-.672-.238-.672-.924V2.99H35.7Zm7.868-.308h4.4v-2.1h-4.4ZM52.892,13h6.93V10.9H55.566c.07-1.288,4.1-1.89,4.1-5.012a3.123,3.123,0,0,0-3.416-3.066,3.86,3.86,0,0,0-3.528,2.156L54.544,6.2s.532-1.064,1.484-1.064a.989.989,0,0,1,1.078.994c0,1.442-4.326,2.1-4.326,5.8A6.134,6.134,0,0,0,52.892,13Zm8.246-2.94c0,1.6,1.274,3.108,3.71,3.108,2.478,0,3.71-1.526,3.71-3.052A2.443,2.443,0,0,0,67.382,8a4.232,4.232,0,0,0,.98-2.282c0-1.862-1.526-2.9-3.388-2.9-2.338,0-3.36,1.428-3.36,2.884a2.433,2.433,0,0,0,.91,1.918A3.349,3.349,0,0,0,61.138,10.06Zm4.914-.07c0,.658-.462,1.022-1.2,1.022a1.178,1.178,0,0,1-1.2-1.162,1.8,1.8,0,0,1,.532-1.218C65.156,9.08,66.052,9.416,66.052,9.99ZM64.008,5.762c0-.434.28-.784.91-.784a.921.921,0,0,1,1.05.924,2.524,2.524,0,0,1-.35,1.232C64.736,6.756,64.008,6.42,64.008,5.762ZM70.028,13h6.664V10.9H74.55V2.99H72.436l-2.7,2.534,1.414,1.512.6-.546a1.891,1.891,0,0,0,.392-.532h.028s-.014.392-.014.77V10.9H70.028Zm7.8,0h2.3V10.7h-2.3Zm6.272.168c3.108,0,4.774-2.842,4.774-5.558,0-3.262-2.044-4.788-4.06-4.788A3.321,3.321,0,0,0,81.4,6.2a3.284,3.284,0,0,0,3.276,3.43,2.815,2.815,0,0,0,1.372-.35h.028a2.184,2.184,0,0,1-2.156,1.652,3.813,3.813,0,0,1-1.372-.294l-.658,2.1A5.048,5.048,0,0,0,84.1,13.168Zm1.218-5.516A1.4,1.4,0,0,1,83.8,6.182a1.049,1.049,0,0,1,1.008-1.12,1.856,1.856,0,0,1,1.54,1.988C86.352,7.512,85.876,7.652,85.316,7.652ZM93.618,13h2.268v-.238c0-.224-.014-.406-.014-.406H95.9a2.577,2.577,0,0,0,1.974.812c1.918,0,3.36-1.484,3.36-3.766,0-2.24-1.288-3.78-3.248-3.78a2.678,2.678,0,0,0-1.946.77h-.028s.028-.252.028-.616V2.99H93.618ZM95.97,9.444c0-1.246.686-1.778,1.414-1.778.84,0,1.414.7,1.414,1.778,0,1.106-.658,1.722-1.414,1.722C96.432,11.166,95.97,10.312,95.97,9.444Zm6.594-4.564h2.366V2.99h-2.366ZM102.536,13h2.422V5.79h-2.422Zm4.116-2.66c0,2.422,1.372,2.73,2.66,2.73a6.585,6.585,0,0,0,.728-.042v-2.1s-.14.014-.294.014c-.546,0-.672-.238-.672-.924V2.99h-2.422Zm4.522,0c0,2.422,1.372,2.73,2.66,2.73a6.585,6.585,0,0,0,.728-.042v-2.1s-.14.014-.294.014c-.546,0-.672-.238-.672-.924V2.99h-2.422Zm4.648-5.46h2.366V2.99h-2.366ZM115.794,13h2.422V5.79h-2.422Zm3.682-3.584a4.1,4.1,0,1,0,4.074-3.794A3.811,3.811,0,0,0,119.476,9.416Zm2.45,0a1.644,1.644,0,1,1,3.276,0,1.641,1.641,0,1,1-3.276,0ZM128.912,13h2.422V9.808a2.9,2.9,0,0,1,.14-.952A1.419,1.419,0,0,1,132.9,7.82c.532,0,.8.28.8.952V13h2.422V8.324c0-2.03-1.134-2.7-2.59-2.7a2.544,2.544,0,0,0-2.3,1.246h-.028a3.815,3.815,0,0,0,.028-.448V5.79h-2.324Z" transform="translate(1464 7860)" fill="#efefef"/>
    <path id="Path_3276" data-name="Path 3276" d="M1.7,7.932a5.125,5.125,0,0,0,5.236,5.236,5.125,5.125,0,0,0,5.236-5.236,5.063,5.063,0,0,0-5.236-5.11A5.063,5.063,0,0,0,1.7,7.932Zm2.534,0a2.753,2.753,0,0,1,2.7-2.87,2.753,2.753,0,0,1,2.7,2.87,2.824,2.824,0,0,1-2.7,3A2.824,2.824,0,0,1,4.234,7.932Zm9.688,2.408c0,2.422,2.226,2.73,3.374,2.73a4.661,4.661,0,0,0,.658-.042v-2.1s-.126.014-.322.014c-.462,0-1.288-.112-1.288-.924V7.806h1.512V5.916H16.344V3.844H13.992V5.916H13v1.89h.924ZM19.368,13H21.79V9.808a2.786,2.786,0,0,1,.126-.924A1.455,1.455,0,0,1,23.358,7.82c.532,0,.8.28.8.952V13h2.422V8.324c0-2.03-1.134-2.7-2.59-2.7a2.476,2.476,0,0,0-2.2,1.148h-.028s.028-.252.028-.616V2.99H19.368Zm8.386-3.612a3.739,3.739,0,0,0,3.962,3.78,4.869,4.869,0,0,0,3.08-1.05l-.9-1.694a3.78,3.78,0,0,1-1.988.728,1.61,1.61,0,0,1-1.68-1.288h4.55s.056-.518.056-.756a3.2,3.2,0,0,0-3.332-3.486A3.589,3.589,0,0,0,27.754,9.388Zm2.534-.91A1.182,1.182,0,0,1,31.45,7.442.982.982,0,0,1,32.4,8.478ZM36.154,13h2.422V10.27a3.269,3.269,0,0,1,.126-.98,1.82,1.82,0,0,1,1.862-1.26,2.577,2.577,0,0,1,.49.042V5.692a1.637,1.637,0,0,0-.28-.028,2.5,2.5,0,0,0-2.3,1.792H38.45a3.815,3.815,0,0,0,.028-.448V5.79H36.154Zm9.268-2.968h4.4v-2.1h-4.4Zm8.96,1.82A4.746,4.746,0,0,0,57.8,13.168a3.4,3.4,0,0,0,3.71-3.416,2.94,2.94,0,0,0-2.422-2.9l2.03-2.338V2.99H54.8v2.1H57.2a4.987,4.987,0,0,0,.952-.07v.028a10.89,10.89,0,0,0-.868.938L55.964,7.568l.518,1.19h.7c1.078,0,1.862.322,1.862,1.106,0,.546-.518.994-1.428.994a3.273,3.273,0,0,1-2.058-.9ZM62.992,13h2.3V10.7h-2.3Zm7.49.168c2.842,0,3.766-2.324,3.766-5.194s-.924-5.152-3.766-5.152S66.716,5.1,66.716,7.974,67.64,13.168,70.482,13.168Zm0-2.24c-.966,0-1.246-1.316-1.246-2.954s.28-2.912,1.246-2.912,1.246,1.288,1.246,2.912S71.448,10.928,70.482,10.928Zm5.1-.868c0,1.6,1.274,3.108,3.71,3.108,2.478,0,3.71-1.526,3.71-3.052A2.443,2.443,0,0,0,81.822,8,4.232,4.232,0,0,0,82.8,5.72c0-1.862-1.526-2.9-3.388-2.9-2.338,0-3.36,1.428-3.36,2.884a2.433,2.433,0,0,0,.91,1.918A3.349,3.349,0,0,0,75.578,10.06Zm4.914-.07c0,.658-.462,1.022-1.2,1.022a1.178,1.178,0,0,1-1.2-1.162,1.8,1.8,0,0,1,.532-1.218C79.6,9.08,80.492,9.416,80.492,9.99ZM78.448,5.762c0-.434.28-.784.91-.784a.921.921,0,0,1,1.05.924,2.524,2.524,0,0,1-.35,1.232C79.176,6.756,78.448,6.42,78.448,5.762Zm9.7,4.578c0,2.422,2.226,2.73,3.374,2.73a4.661,4.661,0,0,0,.658-.042v-2.1s-.126.014-.322.014c-.462,0-1.288-.112-1.288-.924V7.806h1.512V5.916H90.572V3.844H88.22V5.916h-.994v1.89h.924ZM93.6,13h2.422V10.27a3.269,3.269,0,0,1,.126-.98,1.82,1.82,0,0,1,1.862-1.26,2.577,2.577,0,0,1,.49.042V5.692a1.637,1.637,0,0,0-.28-.028,2.5,2.5,0,0,0-2.3,1.792h-.028a3.815,3.815,0,0,0,.028-.448V5.79H93.6Zm6.048-8.12h2.366V2.99H99.644ZM99.616,13h2.422V5.79H99.616Zm4.116-2.66c0,2.422,1.372,2.73,2.66,2.73a6.585,6.585,0,0,0,.728-.042v-2.1s-.14.014-.294.014c-.546,0-.672-.238-.672-.924V2.99h-2.422Zm4.522,0c0,2.422,1.372,2.73,2.66,2.73a6.585,6.585,0,0,0,.728-.042v-2.1s-.14.014-.294.014c-.546,0-.672-.238-.672-.924V2.99h-2.422ZM112.9,4.88h2.366V2.99H112.9ZM112.874,13H115.3V5.79h-2.422Zm3.682-3.584a4.1,4.1,0,1,0,4.074-3.794A3.811,3.811,0,0,0,116.556,9.416Zm2.45,0a1.644,1.644,0,1,1,3.276,0,1.641,1.641,0,1,1-3.276,0ZM125.992,13h2.422V9.808a2.9,2.9,0,0,1,.14-.952,1.419,1.419,0,0,1,1.428-1.036c.532,0,.8.28.8.952V13H133.2V8.324c0-2.03-1.134-2.7-2.59-2.7a2.544,2.544,0,0,0-2.3,1.246h-.028a3.815,3.815,0,0,0,.028-.448V5.79h-2.324Z" transform="translate(947 7668)" fill="#efefef"/>
    <path id="Path_3269" data-name="Path 3269" d="M1.036,9.318c0,2.254,1.652,3.85,4.2,3.85,2.52,0,4.172-1.6,4.172-3.85V2.99H6.958V9.318a1.537,1.537,0,0,1-1.736,1.61,1.537,1.537,0,0,1-1.736-1.61V2.99H1.036ZM11.3,13H13.72V9.808a2.9,2.9,0,0,1,.14-.952A1.419,1.419,0,0,1,15.288,7.82c.532,0,.8.28.8.952V13h2.422V8.324c0-2.03-1.134-2.7-2.59-2.7a2.544,2.544,0,0,0-2.3,1.246h-.028a3.815,3.815,0,0,0,.028-.448V5.79H11.3ZM20.23,4.88H22.6V2.99H20.23ZM20.2,13h2.422V5.79H20.2Zm4.578-2.66c0,2.422,2.226,2.73,3.374,2.73a4.661,4.661,0,0,0,.658-.042v-2.1s-.126.014-.322.014c-.462,0-1.288-.112-1.288-.924V7.806h1.512V5.916H27.2V3.844H24.85V5.916h-.994v1.89h.924Zm4.928-.952a3.739,3.739,0,0,0,3.962,3.78,4.869,4.869,0,0,0,3.08-1.05l-.9-1.694a3.78,3.78,0,0,1-1.988.728,1.61,1.61,0,0,1-1.68-1.288h4.55s.056-.518.056-.756A3.2,3.2,0,0,0,33.46,5.622,3.589,3.589,0,0,0,29.708,9.388Zm2.534-.91A1.182,1.182,0,0,1,33.4,7.442a.982.982,0,0,1,.952,1.036Zm5.376.91c0,2.24,1.288,3.78,3.248,3.78a2.408,2.408,0,0,0,2.086-1.05h.028s-.014.182-.014.406V13h2.268V2.99H42.812V5.874c0,.182.014.322.014.322H42.8s-.434-.574-1.89-.574C38.99,5.622,37.618,7.106,37.618,9.388Zm2.436,0c0-1.106.658-1.722,1.414-1.722.952,0,1.414.854,1.414,1.722,0,1.246-.686,1.778-1.414,1.778C40.628,11.166,40.054,10.466,40.054,9.388ZM50.512,13h2.45V8.94H53.97L56.084,13h2.744L55.972,7.806V7.778l2.7-4.788H56.042L53.97,6.854H52.962V2.99h-2.45Zm9.436-8.12h2.366V2.99H59.948ZM59.92,13h2.422V5.79H59.92Zm4.214,0h2.422V9.808a2.9,2.9,0,0,1,.14-.952A1.419,1.419,0,0,1,68.124,7.82c.532,0,.8.28.8.952V13h2.422V8.324c0-2.03-1.134-2.7-2.59-2.7a2.544,2.544,0,0,0-2.3,1.246H66.43a3.815,3.815,0,0,0,.028-.448V5.79H64.134Zm9.8.462L73.248,15.3a6.378,6.378,0,0,0,2.73.644c1.974,0,4.074-.966,4.074-3.6V5.79H77.784v.364a1.171,1.171,0,0,0,.014.168h-.042a2.734,2.734,0,0,0-1.96-.7c-2.184,0-3.234,1.708-3.234,3.542S73.64,12.79,75.81,12.79a2.145,2.145,0,0,0,1.806-.756h.028s-.014.182-.014.266v.238c0,1.064-.8,1.386-1.666,1.386A4.9,4.9,0,0,1,73.934,13.462Zm2.45-2.688c-.966,0-1.386-.8-1.386-1.694a1.272,1.272,0,0,1,1.288-1.442c.728,0,1.4.28,1.4,1.554S77.014,10.774,76.384,10.774Zm4.97-1.386c0,2.24,1.288,3.78,3.248,3.78a2.408,2.408,0,0,0,2.086-1.05h.028s-.014.182-.014.406V13H88.97V2.99H86.548V5.874c0,.182.014.322.014.322h-.028s-.434-.574-1.89-.574C82.726,5.622,81.354,7.106,81.354,9.388Zm2.436,0c0-1.106.658-1.722,1.414-1.722.952,0,1.414.854,1.414,1.722,0,1.246-.686,1.778-1.414,1.778C84.364,11.166,83.79,10.466,83.79,9.388Zm6.44.028A4.1,4.1,0,1,0,94.3,5.622,3.811,3.811,0,0,0,90.23,9.416Zm2.45,0a1.644,1.644,0,1,1,3.276,0,1.641,1.641,0,1,1-3.276,0ZM99.666,13h2.422V10.018a4.562,4.562,0,0,1,.07-.9c.168-.77.56-1.3,1.316-1.3.462,0,.56.378.56.91V13h2.422V10.018a4.033,4.033,0,0,1,.056-.84c.154-.8.56-1.358,1.33-1.358.462,0,.56.378.56.91V13h2.422V8.324c0-1.988-1.022-2.7-2.338-2.7a2.785,2.785,0,0,0-2.31,1.218h-.028a2.088,2.088,0,0,0-2.016-1.218,2.565,2.565,0,0,0-2.142,1.246h-.028a3.815,3.815,0,0,0,.028-.448V5.79H99.666Zm16.1-2.968h4.4v-2.1h-4.4Zm8.96,1.82a4.746,4.746,0,0,0,3.416,1.316,3.4,3.4,0,0,0,3.71-3.416,2.94,2.94,0,0,0-2.422-2.9l2.03-2.338V2.99h-6.314v2.1h2.394a4.987,4.987,0,0,0,.952-.07v.028a10.891,10.891,0,0,0-.868.938l-1.316,1.582.518,1.19h.7c1.078,0,1.862.322,1.862,1.106,0,.546-.518.994-1.428.994a3.273,3.273,0,0,1-2.058-.9Zm8.218,0a4.746,4.746,0,0,0,3.416,1.316,3.4,3.4,0,0,0,3.71-3.416,2.94,2.94,0,0,0-2.422-2.9l2.03-2.338V2.99h-6.314v2.1h2.394a4.987,4.987,0,0,0,.952-.07v.028a10.892,10.892,0,0,0-.868.938l-1.316,1.582.518,1.19h.7c1.078,0,1.862.322,1.862,1.106,0,.546-.518.994-1.428.994a3.273,3.273,0,0,1-2.058-.9ZM141.526,13h6.93V10.9H144.2c.07-1.288,4.1-1.89,4.1-5.012a3.123,3.123,0,0,0-3.416-3.066,3.86,3.86,0,0,0-3.528,2.156l1.82,1.218s.532-1.064,1.484-1.064a.989.989,0,0,1,1.078.994c0,1.442-4.326,2.1-4.326,5.8A6.134,6.134,0,0,0,141.526,13Zm8.442,0h2.3V10.7h-2.3Zm7.714.168A3.321,3.321,0,0,0,161.1,9.794a3.284,3.284,0,0,0-3.276-3.43,3.028,3.028,0,0,0-1.372.35h-.028a2.184,2.184,0,0,1,2.156-1.652,3.813,3.813,0,0,1,1.372.294l.658-2.1a5.048,5.048,0,0,0-2.212-.434c-3.108,0-4.774,2.842-4.774,5.558C153.622,11.642,155.666,13.168,157.682,13.168Zm0-2.24a1.856,1.856,0,0,1-1.54-1.988c0-.462.476-.6,1.036-.6a1.4,1.4,0,0,1,1.512,1.47A1.049,1.049,0,0,1,157.682,10.928ZM165.746,13h2.268v-.238c0-.224-.014-.406-.014-.406h.028a2.577,2.577,0,0,0,1.974.812c1.918,0,3.36-1.484,3.36-3.766,0-2.24-1.288-3.78-3.248-3.78a2.678,2.678,0,0,0-1.946.77h-.028s.028-.252.028-.616V2.99h-2.422ZM168.1,9.444c0-1.246.686-1.778,1.414-1.778.84,0,1.414.7,1.414,1.778,0,1.106-.658,1.722-1.414,1.722C168.56,11.166,168.1,10.312,168.1,9.444Zm6.594-4.564h2.366V2.99h-2.366ZM174.664,13h2.422V5.79h-2.422Zm4.116-2.66c0,2.422,1.372,2.73,2.66,2.73a6.585,6.585,0,0,0,.728-.042v-2.1s-.14.014-.294.014c-.546,0-.672-.238-.672-.924V2.99H178.78Zm4.522,0c0,2.422,1.372,2.73,2.66,2.73a6.585,6.585,0,0,0,.728-.042v-2.1s-.14.014-.294.014c-.546,0-.672-.238-.672-.924V2.99H183.3Zm4.648-5.46h2.366V2.99H187.95ZM187.922,13h2.422V5.79h-2.422ZM191.6,9.416a4.1,4.1,0,1,0,4.074-3.794A3.811,3.811,0,0,0,191.6,9.416Zm2.45,0a1.644,1.644,0,1,1,3.276,0,1.641,1.641,0,1,1-3.276,0ZM201.04,13h2.422V9.808a2.9,2.9,0,0,1,.14-.952A1.419,1.419,0,0,1,205.03,7.82c.532,0,.8.28.8.952V13h2.422V8.324c0-2.03-1.134-2.7-2.59-2.7a2.544,2.544,0,0,0-2.3,1.246h-.028a3.815,3.815,0,0,0,.028-.448V5.79H201.04Z" transform="translate(1511 7813)" fill="#efefef"/>
    <path id="Path_3271" data-name="Path 3271" d="M.49,7.974a5.021,5.021,0,0,0,5.25,5.194,5.493,5.493,0,0,0,4.032-1.68L8.512,9.7a4.1,4.1,0,0,1-2.66,1.232,2.847,2.847,0,0,1-2.828-3.01A2.705,2.705,0,0,1,5.852,5.062,4.2,4.2,0,0,1,8.358,6.084L9.492,4.236A5.216,5.216,0,0,0,5.74,2.822,5.092,5.092,0,0,0,.49,7.974ZM10.976,13H13.4V9.808a2.786,2.786,0,0,1,.126-.924A1.455,1.455,0,0,1,14.966,7.82c.532,0,.8.28.8.952V13h2.422V8.324c0-2.03-1.134-2.7-2.59-2.7A2.476,2.476,0,0,0,13.4,6.77H13.37s.028-.252.028-.616V2.99H10.976Zm8.932-8.12h2.366V2.99H19.908ZM19.88,13H22.3V5.79H19.88Zm4.214,0h2.422V9.808a2.9,2.9,0,0,1,.14-.952A1.419,1.419,0,0,1,28.084,7.82c.532,0,.8.28.8.952V13H31.3V8.324c0-2.03-1.134-2.7-2.59-2.7a2.544,2.544,0,0,0-2.3,1.246H26.39a3.815,3.815,0,0,0,.028-.448V5.79H24.094Zm8.358-2.156a2.306,2.306,0,0,0,2.45,2.324,2.244,2.244,0,0,0,2.044-1.05h.028a3.815,3.815,0,0,0-.028.448V13h2.212V8.562c0-1.834-1.218-2.94-3.248-2.94a5.453,5.453,0,0,0-3.024.938l.84,1.708a4.3,4.3,0,0,1,1.946-.686c.6,0,1.064.2,1.064.8v.126h-.1C35.518,8.506,32.452,8.744,32.452,10.844Zm2.436-.126c0-.6.882-.826,1.652-.826h.224v.154a1.337,1.337,0,0,1-1.19,1.274C35.1,11.32,34.888,11.054,34.888,10.718Zm9.2-.686h4.4v-2.1h-4.4ZM53.41,13h6.664V10.9H57.932V2.99H55.818l-2.7,2.534L54.53,7.036l.6-.546a1.891,1.891,0,0,0,.392-.532h.028s-.014.392-.014.77V10.9H53.41Zm7.8,0h2.3V10.7h-2.3Zm7.49.168c2.842,0,3.766-2.324,3.766-5.194S71.54,2.822,68.7,2.822,64.932,5.1,64.932,7.974,65.856,13.168,68.7,13.168Zm0-2.24c-.966,0-1.246-1.316-1.246-2.954s.28-2.912,1.246-2.912,1.246,1.288,1.246,2.912S69.664,10.928,68.7,10.928ZM74.088,13h2.548l4.2-8.3V2.99H73.654v2.1H77.6a2.8,2.8,0,0,0,.644-.042v.028a2.8,2.8,0,0,0-.644.91Zm11.494-2.66c0,2.422,2.226,2.73,3.374,2.73a4.661,4.661,0,0,0,.658-.042v-2.1s-.126.014-.322.014c-.462,0-1.288-.112-1.288-.924V7.806h1.512V5.916H88V3.844H85.652V5.916h-.994v1.89h.924ZM91.028,13H93.45V10.27a3.269,3.269,0,0,1,.126-.98,1.82,1.82,0,0,1,1.862-1.26,2.577,2.577,0,0,1,.49.042V5.692a1.637,1.637,0,0,0-.28-.028,2.5,2.5,0,0,0-2.3,1.792h-.028a3.815,3.815,0,0,0,.028-.448V5.79H91.028Zm6.048-8.12h2.366V2.99H97.076ZM97.048,13H99.47V5.79H97.048Zm4.116-2.66c0,2.422,1.372,2.73,2.66,2.73a6.585,6.585,0,0,0,.728-.042v-2.1s-.14.014-.294.014c-.546,0-.672-.238-.672-.924V2.99h-2.422Zm4.522,0c0,2.422,1.372,2.73,2.66,2.73a6.585,6.585,0,0,0,.728-.042v-2.1s-.14.014-.294.014c-.546,0-.672-.238-.672-.924V2.99h-2.422Zm4.648-5.46H112.7V2.99h-2.366ZM110.306,13h2.422V5.79h-2.422Zm3.682-3.584a4.1,4.1,0,1,0,4.074-3.794A3.811,3.811,0,0,0,113.988,9.416Zm2.45,0a1.644,1.644,0,1,1,3.276,0,1.641,1.641,0,1,1-3.276,0ZM123.424,13h2.422V9.808a2.9,2.9,0,0,1,.14-.952,1.419,1.419,0,0,1,1.428-1.036c.532,0,.8.28.8.952V13h2.422V8.324c0-2.03-1.134-2.7-2.59-2.7a2.544,2.544,0,0,0-2.3,1.246h-.028a3.815,3.815,0,0,0,.028-.448V5.79h-2.324Z" transform="translate(1562 7676)" fill="#efefef"/>
    <path id="Path_3273" data-name="Path 3273" d="M.294,9.92A3.165,3.165,0,0,0,3.64,13.168,3.16,3.16,0,0,0,7,9.92V2.99H1.862v2.1H4.55V9.864c0,.728-.364,1.064-.882,1.064a.821.821,0,0,1-.728-.364,1.486,1.486,0,0,1-.2-.84V9.192H.294Zm8.106.924a2.306,2.306,0,0,0,2.45,2.324,2.244,2.244,0,0,0,2.044-1.05h.028a3.815,3.815,0,0,0-.028.448V13h2.212V8.562c0-1.834-1.218-2.94-3.248-2.94a5.453,5.453,0,0,0-3.024.938l.84,1.708a4.3,4.3,0,0,1,1.946-.686c.6,0,1.064.2,1.064.8v.126h-.1C11.466,8.506,8.4,8.744,8.4,10.844Zm2.436-.126c0-.6.882-.826,1.652-.826h.224v.154a1.337,1.337,0,0,1-1.19,1.274C11.046,11.32,10.836,11.054,10.836,10.718Zm5.95,5.082h2.422V13.1c0-.364-.028-.616-.028-.616h.028a2.659,2.659,0,0,0,1.834.686c1.918,0,3.36-1.484,3.36-3.766,0-2.24-1.288-3.78-3.248-3.78a2.635,2.635,0,0,0-2.184.994h-.028a4.228,4.228,0,0,0,.028-.462V5.79H16.786Zm2.352-6.356c0-1.246.686-1.778,1.414-1.778.84,0,1.414.7,1.414,1.778,0,1.106-.658,1.722-1.414,1.722C19.6,11.166,19.138,10.312,19.138,9.444Zm6.02,1.4a2.306,2.306,0,0,0,2.45,2.324,2.244,2.244,0,0,0,2.044-1.05h.028a3.815,3.815,0,0,0-.028.448V13h2.212V8.562c0-1.834-1.218-2.94-3.248-2.94a5.453,5.453,0,0,0-3.024.938l.84,1.708a4.3,4.3,0,0,1,1.946-.686c.6,0,1.064.2,1.064.8v.126h-.1C28.224,8.506,25.158,8.744,25.158,10.844Zm2.436-.126c0-.6.882-.826,1.652-.826h.224v.154a1.337,1.337,0,0,1-1.19,1.274C27.8,11.32,27.594,11.054,27.594,10.718ZM33.544,13h2.422V9.808a2.9,2.9,0,0,1,.14-.952A1.419,1.419,0,0,1,37.534,7.82c.532,0,.8.28.8.952V13h2.422V8.324c0-2.03-1.134-2.7-2.59-2.7a2.544,2.544,0,0,0-2.3,1.246H35.84a3.815,3.815,0,0,0,.028-.448V5.79H33.544ZM45.7,10.032h4.4v-2.1H45.7ZM55.02,13h6.664V10.9H59.542V2.99H57.428l-2.7,2.534L56.14,7.036l.6-.546a1.891,1.891,0,0,0,.392-.532h.028s-.014.392-.014.77V10.9H55.02Zm7.8,0h2.3V10.7h-2.3Zm3.892,0h6.664V10.9H71.232V2.99H69.118l-2.7,2.534L67.83,7.036l.6-.546a1.891,1.891,0,0,0,.392-.532h.028s-.014.392-.014.77V10.9H66.71Zm7.518-1.148a4.824,4.824,0,0,0,3.416,1.316,3.5,3.5,0,0,0,3.71-3.57c0-1.806-1.2-3.29-3.584-3.29a3.057,3.057,0,0,0-.728.1h-.028a1.638,1.638,0,0,0,.056-.392l.056-.924H80.6V2.99H75l-.406,5.236,1.3.49a2.914,2.914,0,0,1,1.344-.336c.91,0,1.6.462,1.6,1.246a1.3,1.3,0,0,1-1.4,1.232,3.3,3.3,0,0,1-2.03-.9Zm12.11-1.512c0,2.422,2.226,2.73,3.374,2.73a4.661,4.661,0,0,0,.658-.042v-2.1s-.126.014-.322.014c-.462,0-1.288-.112-1.288-.924V7.806h1.512V5.916H88.76V3.844H86.408V5.916h-.994v1.89h.924ZM91.784,13h2.422V10.27a3.269,3.269,0,0,1,.126-.98,1.82,1.82,0,0,1,1.862-1.26,2.577,2.577,0,0,1,.49.042V5.692a1.637,1.637,0,0,0-.28-.028,2.5,2.5,0,0,0-2.3,1.792H94.08a3.815,3.815,0,0,0,.028-.448V5.79H91.784Zm6.048-8.12H100.2V2.99H97.832ZM97.8,13h2.422V5.79H97.8Zm4.116-2.66c0,2.422,1.372,2.73,2.66,2.73a6.585,6.585,0,0,0,.728-.042v-2.1s-.14.014-.294.014c-.546,0-.672-.238-.672-.924V2.99H101.92Zm4.522,0c0,2.422,1.372,2.73,2.66,2.73a6.585,6.585,0,0,0,.728-.042v-2.1s-.14.014-.294.014c-.546,0-.672-.238-.672-.924V2.99h-2.422Zm4.648-5.46h2.366V2.99H111.09ZM111.062,13h2.422V5.79h-2.422Zm3.682-3.584a4.1,4.1,0,1,0,4.074-3.794A3.811,3.811,0,0,0,114.744,9.416Zm2.45,0a1.644,1.644,0,1,1,3.276,0,1.641,1.641,0,1,1-3.276,0ZM124.18,13H126.6V9.808a2.9,2.9,0,0,1,.14-.952A1.419,1.419,0,0,1,128.17,7.82c.532,0,.8.28.8.952V13h2.422V8.324c0-2.03-1.134-2.7-2.59-2.7a2.544,2.544,0,0,0-2.3,1.246h-.028a3.815,3.815,0,0,0,.028-.448V5.79H124.18Z" transform="translate(1444 7459)" fill="#efefef"/>
    <g id="Group_152" data-name="Group 152" transform="translate(-1700 15569)">
      <path id="Path_3277" data-name="Path 3277" d="M57.655,13h1.386V8.772H62.5v-1.2H59.041V4.32H63.1v-1.2H57.655Zm6.5-3.556a3.824,3.824,0,1,0,3.822-3.7A3.71,3.71,0,0,0,64.151,9.444Zm1.386,0a2.437,2.437,0,1,1,4.872,0,2.438,2.438,0,1,1-4.872,0ZM73.405,13h1.358V10.1a4.3,4.3,0,0,1,.168-1.274,2.149,2.149,0,0,1,1.988-1.666,1.956,1.956,0,0,1,.392.042V5.86a2.275,2.275,0,0,0-2.59,1.82h-.028a5.08,5.08,0,0,0,.028-.532V5.916H73.405Zm4.718-3.542a3.607,3.607,0,0,0,3.752,3.71,4.217,4.217,0,0,0,2.744-1.008l-.56-.994a3.377,3.377,0,0,1-2.1.826,2.315,2.315,0,0,1-2.436-2.338h5.166s.042-.406.042-.588a3.015,3.015,0,0,0-3.066-3.318A3.472,3.472,0,0,0,78.123,9.458Zm1.442-.826a2.03,2.03,0,0,1,2.072-1.806,1.671,1.671,0,0,1,1.708,1.806Zm6.8-4.13h1.372V3.116H86.369Zm.014,8.5h1.358V5.916H86.383ZM90.5,14.288l-.448,1.064a5.521,5.521,0,0,0,2.422.588c1.792,0,3.57-.9,3.57-3.234V5.916h-1.3v.658a1.761,1.761,0,0,0,.014.224h-.028A2.366,2.366,0,0,0,92.5,5.748c-1.96,0-3.094,1.512-3.094,3.542s1.19,3.626,3.164,3.626a2.248,2.248,0,0,0,2.1-1.106H94.7s-.014.224-.014.448v.518c0,1.442-1.008,1.988-2.24,1.988A4.564,4.564,0,0,1,90.5,14.288Zm2.338-2.548c-1.274,0-2.058-1.008-2.058-2.478,0-1.442.7-2.338,1.932-2.338,1.106,0,2,.532,2,2.38S93.817,11.74,92.837,11.74ZM98.171,13h1.358V9.682a3.354,3.354,0,0,1,.112-.952,2.32,2.32,0,0,1,2.24-1.736c1.134,0,1.344.784,1.344,1.778V13h1.358V8.464c0-1.806-.77-2.716-2.436-2.716a2.884,2.884,0,0,0-2.66,1.624h-.028a4.97,4.97,0,0,0,.028-.518V5.916H98.171Zm12.32,0h3.276c3.024,0,5.012-1.82,5.012-4.956s-1.988-4.928-5.012-4.928h-3.276Zm1.386-1.2V4.32h1.792a3.4,3.4,0,0,1,3.682,3.724,3.412,3.412,0,0,1-3.682,3.752Zm8.2-2.338a3.607,3.607,0,0,0,3.752,3.71,4.217,4.217,0,0,0,2.744-1.008l-.56-.994a3.377,3.377,0,0,1-2.1.826,2.315,2.315,0,0,1-2.436-2.338h5.166s.042-.406.042-.588a3.015,3.015,0,0,0-3.066-3.318A3.472,3.472,0,0,0,120.081,9.458Zm1.442-.826A2.03,2.03,0,0,1,123.6,6.826,1.671,1.671,0,0,1,125.3,8.632ZM128.341,13h1.288v-.518a4.753,4.753,0,0,0-.028-.532h.028a2.547,2.547,0,0,0,2.226,1.218c1.862,0,3.22-1.456,3.22-3.71,0-2.2-1.2-3.71-3.108-3.71a2.5,2.5,0,0,0-2.268,1.2h-.028s.028-.252.028-.6V3.116h-1.358Zm1.316-3.514c0-1.806.98-2.548,2.044-2.548,1.176,0,2,.994,2,2.534,0,1.61-.924,2.534-2.044,2.534C130.315,12.006,129.657,10.746,129.657,9.486Zm7.378.924a2.443,2.443,0,0,0,2.716,2.646,3.723,3.723,0,0,0,.476-.028v-1.2a1.635,1.635,0,0,1-.322.028,1.408,1.408,0,0,1-1.512-1.6V7.106H140.1V6.014h-1.708V3.97h-1.316V6.014h-.966V7.106h.924ZM12.01,42.3a10.841,10.841,0,0,0,6.12,2.94v2.73H21.4V45.24c3.84-.6,6-3.36,6-6.54,0-6.63-9.75-6.45-9.75-9,0-1.2,1.2-1.68,2.28-1.68a8.185,8.185,0,0,1,4.74,1.89l2.22-4.29a9.381,9.381,0,0,0-5.49-2.34V20.55H18.13v2.82C14.8,24,12.4,26.4,12.4,29.76c0,6.45,9.75,6.66,9.75,9.06,0,1.29-1.17,1.71-2.25,1.71-2.7,0-5.13-2.22-5.13-2.22Zm26.67,3.06A7.116,7.116,0,0,0,46,38.13c0-3.69-2.55-7.35-7.02-7.35a6.488,6.488,0,0,0-2.94.75h-.06a4.68,4.68,0,0,1,4.62-3.54,8.171,8.171,0,0,1,2.94.63l1.41-4.5a10.817,10.817,0,0,0-4.74-.93c-6.66,0-10.23,6.09-10.23,11.91C29.98,42.09,34.36,45.36,38.68,45.36Zm0-4.8c-1.5,0-3.3-1.71-3.3-4.26,0-.99,1.02-1.29,2.22-1.29a3.006,3.006,0,0,1,3.24,3.15A2.247,2.247,0,0,1,38.68,40.56ZM48.91,45h4.92V40.08H48.91Zm7.8-2.46a10.338,10.338,0,0,0,7.32,2.82c4.68,0,7.95-3.21,7.95-7.65,0-3.87-2.58-7.05-7.68-7.05a6.552,6.552,0,0,0-1.56.21h-.06a3.51,3.51,0,0,0,.12-.84l.12-1.98h7.44v-4.5h-12l-.87,11.22,2.79,1.05a6.244,6.244,0,0,1,2.88-.72c1.95,0,3.42.99,3.42,2.67a2.778,2.778,0,0,1-3,2.64,7.074,7.074,0,0,1-4.35-1.92ZM86.59,45h5.25V28.05h6.51v-4.5H80.08v4.5h6.51Zm12.99,0h5.19V39.15a7,7,0,0,1,.27-2.1,3.9,3.9,0,0,1,3.99-2.7,5.522,5.522,0,0,1,1.05.09v-5.1a3.508,3.508,0,0,0-.6-.06,5.362,5.362,0,0,0-4.92,3.84h-.06a8.176,8.176,0,0,0,.06-.96V29.55H99.58Zm12.96-17.4h5.07V23.55h-5.07ZM112.48,45h5.19V29.55h-5.19Zm8.82-5.7c0,5.19,2.94,5.85,5.7,5.85a14.11,14.11,0,0,0,1.56-.09v-4.5s-.3.03-.63.03c-1.17,0-1.44-.51-1.44-1.98V23.55H121.3Zm9.69,0c0,5.19,2.94,5.85,5.7,5.85a14.11,14.11,0,0,0,1.56-.09v-4.5s-.3.03-.63.03c-1.17,0-1.44-.51-1.44-1.98V23.55h-5.19Zm9.96-11.7h5.07V23.55h-5.07ZM140.89,45h5.19V29.55h-5.19Zm7.89-7.68c0,4.83,3.9,8.04,8.76,8.04s8.76-3.21,8.76-8.04c0-4.86-3.9-8.13-8.79-8.13C152.68,29.19,148.78,32.46,148.78,37.32Zm5.25,0a3.522,3.522,0,1,1,7.02,0,3.516,3.516,0,1,1-7.02,0ZM169,45h5.19V38.16a6.2,6.2,0,0,1,.3-2.04,3.04,3.04,0,0,1,3.06-2.22c1.14,0,1.71.6,1.71,2.04V45h5.19V34.98c0-4.35-2.43-5.79-5.55-5.79a5.451,5.451,0,0,0-4.92,2.67h-.06a8.176,8.176,0,0,0,.06-.96V29.55H169Z" transform="translate(2927 -7920)" fill="#efefef"/>
      <g id="Group_125" data-name="Group 125" transform="translate(6540 -630.557)">
        <g id="Path_1939" data-name="Path 1939" transform="translate(-4327.957 -7684.593)" fill="#bf1d1d" stroke-miterlimit="10">
          <path d="M 807.7463989257812 644.7835083007812 C 791.1610717773438 644.4262084960938 775.8526000976562 642.4109497070312 759.7447509765625 638.4641723632812 L 784.7874755859375 538.0230712890625 C 792.872314453125 539.905029296875 801.1939697265625 540.9620971679688 809.5547485351562 541.1690063476562 L 807.7463989257812 644.7835083007812 Z" stroke="none"/>
          <path d="M 785.5205688476562 539.2163696289062 L 760.9584350585938 637.7298583984375 C 776.3121948242188 641.4243774414062 790.9727783203125 643.3543701171875 806.7640991210938 643.760009765625 L 808.53759765625 542.14013671875 C 800.7735595703125 541.8859252929688 793.048828125 540.9047241210938 785.5205688476562 539.2163696289062 M 784.0563354492188 536.8219604492188 C 792.5797119140625 538.8802490234375 801.4534301757812 540.0382080078125 810.5719604492188 540.1898193359375 L 808.728759765625 645.8028564453125 C 791.317138671875 645.4984741210938 775.428955078125 643.4074096679688 758.5320434570312 639.1945190429688 L 784.0563354492188 536.8219604492188 Z" stroke="none" fill="#efefef"/>
        </g>
        <g id="Path_1940" data-name="Path 1940" transform="translate(-4331.387 -7684.625)" fill="#1c77c3" stroke-miterlimit="10">
          <path d="M 816.3529663085938 644.8716430664062 C 815.3048706054688 644.8716430664062 814.2405395507812 644.864501953125 813.1771850585938 644.850341796875 L 814.9854736328125 541.2384033203125 C 815.342041015625 541.2438354492188 815.7028198242188 541.247802734375 816.0623168945312 541.247802734375 C 824.7465209960938 541.247802734375 833.4260864257812 540.3272705078125 841.8783569335938 538.5105590820312 L 865.1669311523438 639.3856811523438 C 857.068115234375 641.2210693359375 849.2662963867188 642.5571899414062 841.3492431640625 643.465576171875 C 833.1035766601562 644.4116821289062 824.9271850585938 644.8716430664062 816.3529663085938 644.8716430664062 Z" stroke="none"/>
          <path d="M 841.1246337890625 539.6913452148438 C 832.9083862304688 541.38818359375 824.4869995117188 542.247802734375 816.0623168945312 542.247802734375 C 816.0308837890625 542.247802734375 815.9993896484375 542.2477416992188 815.968017578125 542.2476806640625 L 814.194580078125 643.8616943359375 C 814.9179077148438 643.8682861328125 815.6392822265625 643.87158203125 816.3529663085938 643.87158203125 C 824.8887329101562 643.87158203125 833.02783203125 643.413818359375 841.2352294921875 642.4721069335938 C 848.79638671875 641.6044921875 856.25244140625 640.3449096679688 863.9662475585938 638.6303100585938 L 841.1246337890625 539.6913452148438 M 842.6302490234375 537.322021484375 L 866.36669921875 640.1370849609375 C 849.5645141601562 644.0162963867188 833.430908203125 645.8716430664062 816.35302734375 645.8716430664062 C 814.9619750976562 645.8716430664062 813.5642700195312 645.8593139648438 812.1598510742188 645.8347778320312 L 814.0030517578125 540.2216796875 C 814.6893920898438 540.2330932617188 815.3744506835938 540.247802734375 816.0623168945312 540.247802734375 C 825.1895751953125 540.247802734375 834.0790405273438 539.2333374023438 842.6302490234375 537.322021484375 Z" stroke="none" fill="#efefef"/>
        </g>
        <g id="Path_1941" data-name="Path 1941" transform="translate(-4333.471 -7683.903)" fill="#e50a17" stroke-miterlimit="10">
          <path d="M 869.1983642578125 638.216064453125 L 845.9130249023438 537.3541870117188 C 855.4091186523438 535.1495361328125 864.6159057617188 531.8069458007812 873.3106689453125 527.4071655273438 L 921.7762451171875 618.55859375 C 912.8970336914062 623.2384033203125 904.5053100585938 627.0375366210938 896.15087890625 630.1611328125 C 887.7952270507812 633.28515625 878.9691772460938 635.9232788085938 869.1983642578125 638.216064453125 Z" stroke="none"/>
          <path d="M 872.8859252929688 528.7384033203125 C 864.676513671875 532.810302734375 856.0238037109375 535.952392578125 847.1111450195312 538.0984497070312 L 869.946533203125 637.0114135742188 C 879.2882080078125 634.7826538085938 887.7644653320312 632.22900390625 895.8006591796875 629.2244873046875 C 903.8356323242188 626.2203369140625 911.9080200195312 622.5867919921875 920.4212646484375 618.1402587890625 L 872.8859252929688 528.7384033203125 M 873.731689453125 526.0689086914062 L 923.1295166015625 618.9736938476562 C 904.81005859375 628.7137451171875 888.6664428710938 634.7501220703125 868.4493408203125 639.4171142578125 L 844.7130737304688 536.6019287109375 C 854.9315185546875 534.3187255859375 864.6651000976562 530.75 873.731689453125 526.0689086914062 Z" stroke="none" fill="#efefef"/>
        </g>
        <g id="Path_1942" data-name="Path 1942" transform="translate(-4335.454 -7682.7)" fill="#1762a0" stroke-miterlimit="10">
          <path d="M 925.526123046875 616.416015625 L 877.0711059570312 525.2857666015625 C 885.7080078125 520.7341918945312 893.7942504882812 515.1445922851562 901.131591796875 508.6541442871094 L 971.2241821289062 583.8195190429688 C 963.858642578125 590.6378784179688 956.7360229492188 596.4796142578125 949.4746704101562 601.6592407226562 C 942.212646484375 606.8392333984375 934.3704223632812 611.6719970703125 925.526123046875 616.416015625 Z" stroke="none"/>
          <path d="M 901.0619506835938 510.0457763671875 C 894.1134643554688 516.0956420898438 886.5130004882812 521.3507690429688 878.42333984375 525.6989135742188 L 925.93701171875 615.0587158203125 C 934.3833618164062 610.4876708984375 941.9096069335938 605.8270874023438 948.8939208984375 600.8450927734375 C 955.877685546875 595.863525390625 962.7346801757812 590.2644653320312 969.8070678710938 583.7660522460938 L 901.0619506835938 510.0457763671875 M 901.1959838867188 507.2568969726562 L 972.6387939453125 583.8701782226562 C 957.4638671875 598.02001953125 943.4329833984375 608.0287475585938 925.113525390625 617.77001953125 L 875.7149658203125 524.8653564453125 C 884.9664916992188 520.0878295898438 893.5228271484375 514.154541015625 901.1959838867188 507.2568969726562 Z" stroke="none" fill="#efefef"/>
        </g>
        <g id="Path_1943" data-name="Path 1943" transform="translate(-4337.196 -7680.725)" fill="#a7050e" stroke-miterlimit="10">
          <path d="M 974.4285888671875 580.4794311523438 L 904.361083984375 505.3407897949219 C 913.2013549804688 497.2625427246094 920.7832641601562 487.9780883789062 926.9177856445312 477.7186889648438 L 1016.094116210938 527.1497192382812 C 1004.557434082031 547.7777099609375 991.6536254882812 564.2938842773438 974.4285888671875 580.4794311523438 Z" stroke="none"/>
          <path d="M 927.2760620117188 479.0606689453125 C 921.3560180664062 488.7880249023438 914.13623046875 497.6321411132812 905.7786254882812 505.3945922851562 L 974.4740600585938 579.0618286132812 C 991.0121459960938 563.400146484375 1003.535034179688 547.3714599609375 1014.729675292969 527.5367431640625 L 927.2760620117188 479.0606689453125 M 926.5527954101562 476.373046875 L 1017.455200195312 526.7608032226562 C 1005.599731445312 548.1486206054688 992.2650146484375 565.2161254882812 974.3805541992188 581.8941650390625 L 902.93798828125 505.281005859375 C 912.2158203125 496.9420166015625 920.1983642578125 487.194091796875 926.5527954101562 476.373046875 Z" stroke="none" fill="#efefef"/>
        </g>
        <g id="Path_1944" data-name="Path 1944" transform="translate(-4338.81 -7669.348)" fill="#10416b" stroke-miterlimit="10">
          <path d="M 1018.677917480469 514.0235595703125 L 929.5446166992188 464.6165161132812 C 934.6897583007812 455.6857299804688 938.6820068359375 446.1412658691406 941.415771484375 436.2323303222656 C 944.3298950195312 425.6697082519531 945.8074340820312 414.7069396972656 945.8074340820312 403.6485290527344 C 945.8074340820312 393.6067199707031 944.5857543945312 383.6190795898438 942.1763305664062 373.9630432128906 C 939.916015625 364.9049072265625 936.6031494140625 356.1022338867188 932.3241577148438 347.7824096679688 L 1018.677917480469 299.9164428710938 C 1027.8876953125 316.6936950683594 1034.944091796875 334.2556762695312 1039.657958984375 352.1336364746094 C 1044.403686523438 370.1328430175781 1046.81005859375 388.5824584960938 1046.81005859375 406.9700317382812 C 1046.81005859375 425.3576049804688 1044.403686523438 443.8072204589844 1039.657958984375 461.8064270019531 C 1034.944091796875 479.6843872070312 1027.8876953125 497.246337890625 1018.677917480469 514.0235595703125 Z" stroke="none"/>
          <path d="M 1018.282653808594 301.2788696289062 L 933.6534423828125 348.1889343261719 C 937.755126953125 356.3214721679688 940.9459228515625 364.9014587402344 943.1466064453125 373.7209777832031 C 945.5758056640625 383.4561157226562 946.8074951171875 393.5252075195312 946.8074951171875 403.6485290527344 C 946.8074951171875 414.7967529296875 945.3177490234375 425.8489990234375 942.3797607421875 436.498291015625 C 939.71337890625 446.1630249023438 935.8597412109375 455.4833984375 930.9149169921875 464.2326965332031 L 1018.282653808594 512.6611328125 C 1027.218017578125 496.2219848632812 1034.080322265625 479.0379028320312 1038.69091796875 461.5514831542969 C 1043.414794921875 443.6354370117188 1045.81005859375 425.2716064453125 1045.81005859375 406.9700317382812 C 1045.81005859375 388.66845703125 1043.414794921875 370.3046264648438 1038.69091796875 352.3885803222656 C 1034.080322265625 334.902099609375 1027.218017578125 317.7179870605469 1018.282653808594 301.2788696289062 M 1019.069519042969 298.5560302734375 C 1057.39013671875 367.6876525878906 1057.39013671875 446.2524108886719 1019.069519042969 515.3839721679688 L 928.1668701171875 464.9961547851562 C 938.7391357421875 446.9963684082031 944.8074951171875 426.0324096679688 944.8074951171875 403.6485290527344 C 944.8074951171875 383.3388061523438 939.8101806640625 364.1989135742188 930.9881591796875 347.379638671875 L 1019.069519042969 298.5560302734375 Z" stroke="none" fill="#efefef"/>
        </g>
        <g id="Path_1945" data-name="Path 1945" transform="translate(-4331.655 -7661.473)" fill="#7d0407" stroke-miterlimit="10">
          <path d="M 924.239013671875 338.1361389160156 C 914.0367431640625 319.0728149414062 898.9357299804688 303.0064697265625 880.5113525390625 291.6257019042969 C 871.0672607421875 285.7920532226562 860.8860473632812 281.2804870605469 850.2506103515625 278.2163696289062 C 839.591552734375 275.1454772949219 828.5204467773438 273.5445861816406 817.3287963867188 273.4545288085938 L 817.3287963867188 176.4749603271484 C 827.47412109375 176.5142822265625 837.5458984375 177.1519622802734 847.2818603515625 178.3719024658203 C 857.2744750976562 179.6239929199219 867.1539916992188 181.5195922851562 876.64599609375 184.0060424804688 C 886.0974731445312 186.4819030761719 895.3917846679688 189.6029968261719 904.2706909179688 193.2826690673828 C 913.1304321289062 196.954345703125 921.7890625 201.2702484130859 930.006103515625 206.1104431152344 C 938.22314453125 210.9506530761719 946.1957397460938 216.4312744140625 953.7023315429688 222.4000396728516 C 961.2252197265625 228.3817901611328 968.4609375 234.9976043701172 975.20849609375 242.0636901855469 C 981.9849853515625 249.1600952148438 988.4326171875 256.8818969726562 994.3721923828125 265.0145568847656 C 1000.159240722656 272.9382934570312 1005.599853515625 281.4380493164062 1010.552734375 290.292236328125 L 924.239013671875 338.1361389160156 Z" stroke="none"/>
          <path d="M 924.63818359375 336.7715454101562 L 1009.188232421875 289.9052429199219 C 1004.387512207031 281.4013977050781 999.136962890625 273.2340393066406 993.564697265625 265.6043395996094 C 987.65087890625 257.5069885253906 981.2316284179688 249.819091796875 974.4852905273438 242.7543029785156 C 967.7691040039062 235.7210693359375 960.5673217773438 229.1362457275391 953.0799560546875 223.1827697753906 C 945.609619140625 217.2428283691406 937.6757202148438 211.7887725830078 929.4985961914062 206.9720764160156 C 921.3214721679688 202.1553955078125 912.7047729492188 197.8604278564453 903.8878784179688 194.2064514160156 C 895.0509033203125 190.544189453125 885.8001708984375 187.437744140625 876.3926391601562 184.9734191894531 C 866.94287109375 182.498046875 857.1067504882812 180.6108093261719 847.1575317382812 179.3641204833984 C 837.7828979492188 178.1894683837891 828.0939331054688 177.5568542480469 818.3287963867188 177.4807891845703 L 818.3287963867188 272.4664611816406 C 829.2737426757812 272.6411743164062 840.0957641601562 274.2500610351562 850.5274047851562 277.2554931640625 C 861.2503662109375 280.3448181152344 871.5152587890625 284.8934020996094 881.0369262695312 290.7749328613281 C 899.3222045898438 302.06982421875 914.36181640625 317.94482421875 924.63818359375 336.7715454101562 M 923.83251953125 339.5048217773438 C 903.551025390625 300.8350219726562 863.0241088867188 274.4505004882812 816.3287963867188 274.4505004882812 L 816.3287963867188 175.4730072021484 C 901.1762084960938 175.4730072021484 970.779296875 216.4724884033203 1011.913879394531 290.6810913085938 L 923.83251953125 339.5048217773438 Z" stroke="none" fill="#efefef"/>
        </g>
        <g id="Path_1946" data-name="Path 1946" transform="translate(-4316.365 -7661.473)" fill="#3f75a2" stroke-miterlimit="10">
          <path d="M 746.2130126953125 614.8607177734375 C 731.8967895507812 611.2234497070312 717.9489135742188 606.17919921875 704.74267578125 599.8616943359375 C 691.5817260742188 593.56591796875 678.9959106445312 585.9300537109375 667.3349609375 577.1661987304688 C 655.8856201171875 568.5614013671875 645.2113037109375 558.7827758789062 635.6087036132812 548.10205078125 C 626.09716796875 537.5225219726562 617.5537719726562 525.9661865234375 610.2158203125 513.7538452148438 C 602.8779296875 501.5414428710938 596.6851806640625 488.5726623535156 591.8094482421875 475.2076721191406 C 586.8870849609375 461.7147827148438 583.264404296875 447.6990966796875 581.0419921875 433.5501098632812 C 578.7785034179688 419.1397094726562 577.9451293945312 404.4423217773438 578.56494140625 389.8660888671875 C 579.2009887695312 374.9092712402344 581.3764038085938 359.89404296875 585.0305786132812 345.2374267578125 C 591.1897583007812 320.5347290039062 601.2028198242188 297.4031066894531 614.791748046875 276.4851684570312 C 628.065673828125 256.0521545410156 644.4884033203125 238.1192626953125 663.6038818359375 223.1847076416016 C 682.7193603515625 208.2501068115234 704.0925903320312 196.6536102294922 727.1299438476562 188.7172698974609 C 750.404541015625 180.6991577148438 774.9305419921875 176.5818023681641 800.0399169921875 176.4751129150391 L 800.0399169921875 273.4545288085938 C 792.0752563476562 273.5189514160156 784.123779296875 274.3528442382812 776.388916015625 275.9356689453125 C 768.5347290039062 277.5428771972656 760.8089599609375 279.9411010742188 753.4264526367188 283.0636596679688 C 746.1781616210938 286.1294250488281 739.1871948242188 289.9239807128906 732.6478881835938 294.3419494628906 C 726.1709594726562 298.7177124023438 720.0802612304688 303.7429504394531 714.5452270507812 309.2781066894531 C 709.0100708007812 314.8132019042969 703.98486328125 320.9038696289062 699.609130859375 327.3808898925781 C 695.191162109375 333.9202575683594 691.3966064453125 340.9112243652344 688.330810546875 348.1596069335938 C 685.208251953125 355.5421447753906 682.81005859375 363.2679443359375 681.2028198242188 371.1222229003906 C 679.5537719726562 379.1808166503906 678.7176513671875 387.4747009277344 678.7176513671875 395.7735595703125 C 678.7176513671875 409.8695983886719 681.09521484375 423.6875610351562 685.7843017578125 436.8436584472656 C 690.3161010742188 449.5582580566406 696.9004516601562 461.3794250488281 705.3545532226562 471.978759765625 C 713.729736328125 482.4792175292969 723.6981811523438 491.4813842773438 734.983154296875 498.7352294921875 C 746.1843872070312 505.9351806640625 758.3811645507812 511.2142028808594 771.2521362304688 514.434326171875 L 746.2130126953125 614.8607177734375 Z" stroke="none"/>
          <path d="M 799.0399169921875 177.4815063476562 C 774.3895263671875 177.6915283203125 750.3170776367188 181.7869873046875 727.4556274414062 189.6627807617188 C 704.5232543945312 197.5629272460938 683.24755859375 209.1064453125 664.2195434570312 223.9727783203125 C 645.1915893554688 238.8389892578125 628.8438110351562 256.6900024414062 615.63037109375 277.0299072265625 C 602.1019897460938 297.8547668457031 592.1331787109375 320.8844604492188 586.0009155273438 345.4793395996094 C 582.3629150390625 360.0707397460938 580.197265625 375.0189208984375 579.5640258789062 389.9086303710938 C 578.9469604492188 404.4188842773438 579.776611328125 419.0497436523438 582.0298461914062 433.3949279785156 C 584.2422485351562 447.4801635742188 587.8486938476562 461.4327087402344 592.7489013671875 474.8649291992188 C 597.6027221679688 488.170166015625 603.7679443359375 501.0809936523438 611.0730590820312 513.23876953125 C 618.378173828125 525.396484375 626.88330078125 536.9012451171875 636.3523559570312 547.4334716796875 C 645.9118041992188 558.0661010742188 656.5379638671875 567.8006591796875 667.935791015625 576.3668212890625 C 679.5439453125 585.0909423828125 692.07275390625 592.6922607421875 705.1741333007812 598.9595947265625 C 718.0224609375 605.1058349609375 731.5740356445312 610.041015625 745.4862060546875 613.6419677734375 L 770.0410766601562 515.157958984375 C 757.4205322265625 511.8914489746094 745.4542236328125 506.6546630859375 734.4424438476562 499.576416015625 C 723.0656127929688 492.2635803222656 713.0160522460938 483.1881713867188 704.57275390625 472.602294921875 C 696.049560546875 461.9163513183594 689.4113159179688 449.9983520507812 684.8424072265625 437.1793518066406 C 680.1148071289062 423.9152221679688 677.7176513671875 409.9843444824219 677.7176513671875 395.7735900878906 C 677.7176513671875 387.4075622558594 678.5606079101562 379.0462341308594 680.22314453125 370.9217529296875 C 681.8436279296875 363.0028076171875 684.2615356445312 355.2134704589844 687.4098510742188 347.7700500488281 C 690.5007934570312 340.4622192382812 694.326416015625 333.4139404296875 698.780517578125 326.821044921875 C 703.19189453125 320.2913513183594 708.2579956054688 314.1510925292969 713.8380737304688 308.5709838867188 C 719.418212890625 302.9908752441406 725.5584106445312 297.9247436523438 732.0880737304688 293.5133361816406 C 738.6809692382812 289.0592956542969 745.7291259765625 285.233642578125 753.0369262695312 282.1427001953125 C 760.4802856445312 278.994384765625 768.26953125 276.576416015625 776.1884155273438 274.9559936523438 C 783.6651611328125 273.4259643554688 791.3429565429688 272.590087890625 799.0399169921875 272.466552734375 L 799.0399169921875 177.4815063476562 M 801.0399169921875 175.4729614257812 L 801.0399169921875 274.4505004882812 C 734.0359497070312 274.4505004882812 679.7176513671875 328.7686462402344 679.7176513671875 395.7735900878906 C 679.7176513671875 452.9344482421875 719.2515258789062 500.85400390625 772.4651489257812 513.7027587890625 L 746.9407958984375 616.0750732421875 C 627.1068115234375 586.1964721679688 554.1826171875 464.8302307128906 584.060302734375 344.9955139160156 C 609.2177734375 244.0953979492188 697.05078125 175.4729614257812 801.0399169921875 175.4729614257812 Z" stroke="none" fill="#efefef"/>
        </g>
      </g>
    </g>
  </g>
</svg>
