<svg xmlns="http://www.w3.org/2000/svg" width="766.499" height="290.879" viewBox="0 0 766.499 290.879">
  <g id="Group_532" data-name="Group 532" transform="translate(-540 -7290)">
    <g id="Group_530" data-name="Group 530" transform="translate(540 7489.697)">
      <path id="Subtraction_7" data-name="Subtraction 7" d="M46.2,91.182c-3.917,0-8.051-.088-13.011-.276-5-.19-9.845-.586-14.4-1.177a49.973,49.973,0,0,1-9.067-2.179,9.284,9.284,0,0,1-3.462-2.1A24.286,24.286,0,0,1,3.676,82.5a17.582,17.582,0,0,1-2.012-3.228,16.646,16.646,0,0,1-1.19-3.39,18.422,18.422,0,0,1-.461-3.529A23.013,23.013,0,0,1,.187,68.71,30.854,30.854,0,0,1,1.158,64a36.694,36.694,0,0,1,1.635-4.5,55.538,55.538,0,0,1,4.775-8.544c1.495-2.244,3.114-4.443,4.814-6.538s3.529-4.145,5.434-6.09,3.942-3.844,6.052-5.638,4.355-3.54,6.668-5.182A43.318,43.318,0,0,1,35.9,24.439c.727-.371,1.479-.756,2.205-1.147a2.911,2.911,0,0,1,.855-.232c.2-.035.42-.074.676-.133l-1.572,2.414-3.017,4.633.146.083.106.061.719-.832.393-.454.014-.017,1.8-2.088c.289-.335.588-.673.878-1,.68-.767,1.384-1.56,2-2.38a1.974,1.974,0,0,1,1.067-.728,5.4,5.4,0,0,1,1.257-.149c.248-.01.5-.02.754-.05a4.29,4.29,0,0,1,.5-.032,2.123,2.123,0,0,1,2.087,1.428,56.3,56.3,0,0,0,4.24,7.115q-.591-2.332-1.183-4.675l-.8-3.143a3.03,3.03,0,0,1,.737-.093,4.651,4.651,0,0,1,2.068.627c.153.075.31.151.465.221a39.526,39.526,0,0,1,6.352,3.646,69.77,69.77,0,0,1,5.639,4.43,94.969,94.969,0,0,1,8.754,8.542,87.151,87.151,0,0,1,7.385,9.449A60.786,60.786,0,0,1,84.156,56.2a49.572,49.572,0,0,1,2.815,6.619,29.5,29.5,0,0,1,1.51,6.694,21.461,21.461,0,0,1,.064,3.368,19.306,19.306,0,0,1-.511,3.378,19.754,19.754,0,0,1-1.215,3.535,16.176,16.176,0,0,1-1.907,3.166,15.188,15.188,0,0,1-2.693,2.691,17.086,17.086,0,0,1-3.575,2.112,26.588,26.588,0,0,1-6.579,1.625c-4.118.648-8.339,1.108-12.9,1.4C55.109,91.054,50.869,91.182,46.2,91.182ZM36.721,64.26l-4.2,6.076a13.253,13.253,0,0,0,2.4,1.913,17.217,17.217,0,0,0,2.92,1.5,17.6,17.6,0,0,0,4,1.066v4.157h4.978V74.814a11.076,11.076,0,0,0,6.759-3.506,9.431,9.431,0,0,0,1.77-2.982,10.044,10.044,0,0,0,.605-3.471,8.308,8.308,0,0,0-3.368-6.812A26.078,26.078,0,0,0,45.964,54.6a24.884,24.884,0,0,1-3.436-1.572c-.971-.6-1.423-1.192-1.423-1.875a2.226,2.226,0,0,1,1.119-1.964,4.52,4.52,0,0,1,2.352-.594,9.33,9.33,0,0,1,2.784.45,12.726,12.726,0,0,1,2.3.989,13.21,13.21,0,0,1,2.135,1.439l3.379-6.533a10.159,10.159,0,0,0-2.089-1.542A15.031,15.031,0,0,0,50.47,42.2a17.028,17.028,0,0,0-3.656-.827V37.214H41.836v4.295a12.43,12.43,0,0,0-3.5,1.206,10.276,10.276,0,0,0-2.761,2.1,9.288,9.288,0,0,0-2.46,6.425,8.365,8.365,0,0,0,3.405,6.786,27.651,27.651,0,0,0,6.659,3.594,25.97,25.97,0,0,1,3.381,1.611c.953.6,1.4,1.17,1.4,1.805a2.255,2.255,0,0,1-1.1,2.039,4.514,4.514,0,0,1-2.329.565,9.145,9.145,0,0,1-2.954-.528,13.765,13.765,0,0,1-2.492-1.162A15.548,15.548,0,0,1,36.721,64.26Zm12.96-42.886a.986.986,0,0,1-.423-.114,5.383,5.383,0,0,0-1.438-.427.591.591,0,0,1-.451-.23c-.066-.121-.045-.286.07-.554.378-.883.764-1.814,1.18-2.845a5.667,5.667,0,0,0,.187-.586c.025-.089.051-.18.078-.269l-.188-.092c-.21.3-.426.607-.635.9-.488.687-.993,1.4-1.444,2.125A1.936,1.936,0,0,1,44.8,20.4c-.087,0-.18,0-.275-.011-.263-.02-.532-.03-.824-.03-.81,0-1.64.079-2.442.156-.411.039-.837.08-1.255.109a1.877,1.877,0,0,0-.6.191,2.949,2.949,0,0,1-.993.347c-.3,0-.5-.231-.974-.79l-.019-.023c-2.207-2.6-4.533-5.338-6.915-8.129a2.417,2.417,0,0,1-.615-1.874,4.054,4.054,0,0,1,1.029-2.126,9.8,9.8,0,0,1,3.457-2.454.97.97,0,0,1,.409-.1c.311,0,.563.21.77.643a61.016,61.016,0,0,0,2.971,5.544l-.13-.47c-.095-.344-.192-.7-.295-1.049-.184-.625-.371-1.26-.553-1.873v0c-.527-1.783-1.073-3.626-1.58-5.447a1.019,1.019,0,0,1,.284-.838A7.912,7.912,0,0,1,40.288.462,28.181,28.181,0,0,1,45.169,0a20.685,20.685,0,0,1,2.377.134c1.021.118,2.177.253,3.3.486a13.1,13.1,0,0,1,3.168,1.051l.052.026c1.12.553,1.12.553.638,1.693l-.014.033c-.62,1.467-1.233,2.964-1.826,4.412-.246.6-.5,1.224-.756,1.843l.174.1.633-.846.006-.008c.65-.872,1.323-1.773,2-2.643a.823.823,0,0,1,.53-.252.2.2,0,0,1,.09.018A6.455,6.455,0,0,1,57.467,7.71a4.161,4.161,0,0,1,1.027,2.581,3.441,3.441,0,0,1-.461,1.6,8.25,8.25,0,0,1-.966,1.3c-1.306,1.525-2.645,3.065-3.94,4.554l0,0c-.931,1.071-1.895,2.179-2.838,3.272A.8.8,0,0,1,49.681,21.374Z" transform="translate(0 0)" fill="#1762a0"/>
    </g>
    <text id="National_Debt_vs_Federal_Governement_Income" data-name="National Debt vs Federal Governement Income" transform="translate(540 7290)" fill="#1762a0" font-size="22" font-family="MuseoSans-900, Museo Sans" font-weight="900"><tspan x="0" y="21">National Debt vs Federal Governement Income</tspan></text>
    <text id="Federal_Government_Income" data-name="Federal Government Income" transform="translate(540 7355)" fill="#1762a0" font-size="16" font-family="MuseoSans-900, Museo Sans" font-weight="900"><tspan x="0" y="15">Federal Government Income</tspan></text>
    <text id="National_Debt" data-name="National Debt" transform="translate(981 7355)" fill="#7d0407" font-size="16" font-family="MuseoSans-900, Museo Sans" font-weight="900"><tspan x="0" y="15">National Debt</tspan></text>
    <path id="Path_2725" data-name="Path 2725" d="M60.678,202.514c20.138,0,31.7-15.591,31.7-31.312,0-15.981-11.044-31.832-30.4-31.832-4.417,0-10.524,1.689-12.733,3.248h-.26c2.858-8.575,9.095-15.331,20.008-15.331a35.385,35.385,0,0,1,12.733,2.728l6.106-19.489S80.3,106.5,67.3,106.5c-28.843,0-44.3,26.375-44.3,51.58C23,188.353,41.969,202.514,60.678,202.514Zm0-20.788c-6.5,0-14.292-7.406-14.292-18.449,0-4.288,4.417-5.587,9.614-5.587,10,0,14.032,7.016,14.032,13.642C70.033,176.789,66.395,181.726,60.678,181.726Zm44.3,19.229H126.29V179.648H104.983Zm33.78-10.654s11.174,12.213,31.7,12.213c20.268,0,34.43-13.9,34.43-33.131,0-16.76-11.174-30.532-33.261-30.532a28.375,28.375,0,0,0-6.756.909h-.26a15.2,15.2,0,0,0,.52-3.638l.52-8.575h32.221V108.059h-51.97l-3.768,48.592,12.083,4.547A27.042,27.042,0,0,1,166.7,158.08c8.445,0,14.811,4.288,14.811,11.563,0,7.666-6.886,11.433-12.992,11.433-10.394,0-18.839-8.315-18.839-8.315Zm72.888,10.654h24.686l7.925-15.071c.65-1.169,1.559-3.378,1.559-3.378h.26s.909,2.209,1.559,3.378l8.055,15.071h24.686l-21.048-33.131,21.438-33.78H255.435l-7.276,14.941c-.78,1.689-2.079,4.417-2.079,4.417h-.26s-1.169-2.728-2.079-4.417l-7.276-14.941H211.131l21.568,33.78Z" transform="translate(662.229 7376)" fill="#1762a0"/>
    <g id="Group_531" data-name="Group 531" transform="translate(441 34)">
      <g id="Group_524" data-name="Group 524" transform="translate(540 7349.697)">
        <path id="Subtraction_7-2" data-name="Subtraction 7" d="M46.2,91.182c-3.917,0-8.051-.088-13.011-.276-5-.19-9.845-.586-14.4-1.177a49.973,49.973,0,0,1-9.067-2.179,9.284,9.284,0,0,1-3.462-2.1A24.286,24.286,0,0,1,3.676,82.5a17.582,17.582,0,0,1-2.012-3.228,16.646,16.646,0,0,1-1.19-3.39,18.422,18.422,0,0,1-.461-3.529A23.013,23.013,0,0,1,.187,68.71,30.854,30.854,0,0,1,1.158,64a36.694,36.694,0,0,1,1.635-4.5,55.538,55.538,0,0,1,4.775-8.544c1.495-2.244,3.114-4.443,4.814-6.538s3.529-4.145,5.434-6.09,3.942-3.844,6.052-5.638,4.355-3.54,6.668-5.182A43.318,43.318,0,0,1,35.9,24.439c.727-.371,1.479-.756,2.205-1.147a2.911,2.911,0,0,1,.855-.232c.2-.035.42-.074.676-.133l-1.572,2.414-3.017,4.633.146.083.106.061.719-.832.393-.454.014-.017,1.8-2.088c.289-.335.588-.673.878-1,.68-.767,1.384-1.56,2-2.38a1.974,1.974,0,0,1,1.067-.728,5.4,5.4,0,0,1,1.257-.149c.248-.01.5-.02.754-.05a4.29,4.29,0,0,1,.5-.032,2.123,2.123,0,0,1,2.087,1.428,56.3,56.3,0,0,0,4.24,7.115q-.591-2.332-1.183-4.675l-.8-3.143a3.03,3.03,0,0,1,.737-.093,4.651,4.651,0,0,1,2.068.627c.153.075.31.151.465.221a39.526,39.526,0,0,1,6.352,3.646,69.77,69.77,0,0,1,5.639,4.43,94.969,94.969,0,0,1,8.754,8.542,87.151,87.151,0,0,1,7.385,9.449A60.786,60.786,0,0,1,84.156,56.2a49.572,49.572,0,0,1,2.815,6.619,29.5,29.5,0,0,1,1.51,6.694,21.461,21.461,0,0,1,.064,3.368,19.306,19.306,0,0,1-.511,3.378,19.754,19.754,0,0,1-1.215,3.535,16.176,16.176,0,0,1-1.907,3.166,15.188,15.188,0,0,1-2.693,2.691,17.086,17.086,0,0,1-3.575,2.112,26.588,26.588,0,0,1-6.579,1.625c-4.118.648-8.339,1.108-12.9,1.4C55.109,91.054,50.869,91.182,46.2,91.182ZM36.721,64.26l-4.2,6.076a13.253,13.253,0,0,0,2.4,1.913,17.217,17.217,0,0,0,2.92,1.5,17.6,17.6,0,0,0,4,1.066v4.157h4.978V74.814a11.076,11.076,0,0,0,6.759-3.506,9.431,9.431,0,0,0,1.77-2.982,10.044,10.044,0,0,0,.605-3.471,8.308,8.308,0,0,0-3.368-6.812A26.078,26.078,0,0,0,45.964,54.6a24.884,24.884,0,0,1-3.436-1.572c-.971-.6-1.423-1.192-1.423-1.875a2.226,2.226,0,0,1,1.119-1.964,4.52,4.52,0,0,1,2.352-.594,9.33,9.33,0,0,1,2.784.45,12.726,12.726,0,0,1,2.3.989,13.21,13.21,0,0,1,2.135,1.439l3.379-6.533a10.159,10.159,0,0,0-2.089-1.542A15.031,15.031,0,0,0,50.47,42.2a17.028,17.028,0,0,0-3.656-.827V37.214H41.836v4.295a12.43,12.43,0,0,0-3.5,1.206,10.276,10.276,0,0,0-2.761,2.1,9.288,9.288,0,0,0-2.46,6.425,8.365,8.365,0,0,0,3.405,6.786,27.651,27.651,0,0,0,6.659,3.594,25.97,25.97,0,0,1,3.381,1.611c.953.6,1.4,1.17,1.4,1.805a2.255,2.255,0,0,1-1.1,2.039,4.514,4.514,0,0,1-2.329.565,9.145,9.145,0,0,1-2.954-.528,13.765,13.765,0,0,1-2.492-1.162A15.548,15.548,0,0,1,36.721,64.26Zm12.96-42.886a.986.986,0,0,1-.423-.114,5.383,5.383,0,0,0-1.438-.427.591.591,0,0,1-.451-.23c-.066-.121-.045-.286.07-.554.378-.883.764-1.814,1.18-2.845a5.667,5.667,0,0,0,.187-.586c.025-.089.051-.18.078-.269l-.188-.092c-.21.3-.426.607-.635.9-.488.687-.993,1.4-1.444,2.125A1.936,1.936,0,0,1,44.8,20.4c-.087,0-.18,0-.275-.011-.263-.02-.532-.03-.824-.03-.81,0-1.64.079-2.442.156-.411.039-.837.08-1.255.109a1.877,1.877,0,0,0-.6.191,2.949,2.949,0,0,1-.993.347c-.3,0-.5-.231-.974-.79l-.019-.023c-2.207-2.6-4.533-5.338-6.915-8.129a2.417,2.417,0,0,1-.615-1.874,4.054,4.054,0,0,1,1.029-2.126,9.8,9.8,0,0,1,3.457-2.454.97.97,0,0,1,.409-.1c.311,0,.563.21.77.643a61.016,61.016,0,0,0,2.971,5.544l-.13-.47c-.095-.344-.192-.7-.295-1.049-.184-.625-.371-1.26-.553-1.873v0c-.527-1.783-1.073-3.626-1.58-5.447a1.019,1.019,0,0,1,.284-.838A7.912,7.912,0,0,1,40.288.462,28.181,28.181,0,0,1,45.169,0a20.685,20.685,0,0,1,2.377.134c1.021.118,2.177.253,3.3.486a13.1,13.1,0,0,1,3.168,1.051l.052.026c1.12.553,1.12.553.638,1.693l-.014.033c-.62,1.467-1.233,2.964-1.826,4.412-.246.6-.5,1.224-.756,1.843l.174.1.633-.846.006-.008c.65-.872,1.323-1.773,2-2.643a.823.823,0,0,1,.53-.252.2.2,0,0,1,.09.018A6.455,6.455,0,0,1,57.467,7.71a4.161,4.161,0,0,1,1.027,2.581,3.441,3.441,0,0,1-.461,1.6,8.25,8.25,0,0,1-.966,1.3c-1.306,1.525-2.645,3.065-3.94,4.554l0,0c-.931,1.071-1.895,2.179-2.838,3.272A.8.8,0,0,1,49.681,21.374Z" transform="translate(0 0)" fill="#7d0404"/>
      </g>
      <g id="Group_529" data-name="Group 529" transform="translate(540 7455.697)">
        <path id="Subtraction_7-3" data-name="Subtraction 7" d="M46.2,91.182c-3.917,0-8.051-.088-13.011-.276-5-.19-9.845-.586-14.4-1.177a49.973,49.973,0,0,1-9.067-2.179,9.284,9.284,0,0,1-3.462-2.1A24.286,24.286,0,0,1,3.676,82.5a17.582,17.582,0,0,1-2.012-3.228,16.646,16.646,0,0,1-1.19-3.39,18.422,18.422,0,0,1-.461-3.529A23.013,23.013,0,0,1,.187,68.71,30.854,30.854,0,0,1,1.158,64a36.694,36.694,0,0,1,1.635-4.5,55.538,55.538,0,0,1,4.775-8.544c1.495-2.244,3.114-4.443,4.814-6.538s3.529-4.145,5.434-6.09,3.942-3.844,6.052-5.638,4.355-3.54,6.668-5.182A43.318,43.318,0,0,1,35.9,24.439c.727-.371,1.479-.756,2.205-1.147a2.911,2.911,0,0,1,.855-.232c.2-.035.42-.074.676-.133l-1.572,2.414-3.017,4.633.146.083.106.061.719-.832.393-.454.014-.017,1.8-2.088c.289-.335.588-.673.878-1,.68-.767,1.384-1.56,2-2.38a1.974,1.974,0,0,1,1.067-.728,5.4,5.4,0,0,1,1.257-.149c.248-.01.5-.02.754-.05a4.29,4.29,0,0,1,.5-.032,2.123,2.123,0,0,1,2.087,1.428,56.3,56.3,0,0,0,4.24,7.115q-.591-2.332-1.183-4.675l-.8-3.143a3.03,3.03,0,0,1,.737-.093,4.651,4.651,0,0,1,2.068.627c.153.075.31.151.465.221a39.526,39.526,0,0,1,6.352,3.646,69.77,69.77,0,0,1,5.639,4.43,94.969,94.969,0,0,1,8.754,8.542,87.151,87.151,0,0,1,7.385,9.449A60.786,60.786,0,0,1,84.156,56.2a49.572,49.572,0,0,1,2.815,6.619,29.5,29.5,0,0,1,1.51,6.694,21.461,21.461,0,0,1,.064,3.368,19.306,19.306,0,0,1-.511,3.378,19.754,19.754,0,0,1-1.215,3.535,16.176,16.176,0,0,1-1.907,3.166,15.188,15.188,0,0,1-2.693,2.691,17.086,17.086,0,0,1-3.575,2.112,26.588,26.588,0,0,1-6.579,1.625c-4.118.648-8.339,1.108-12.9,1.4C55.109,91.054,50.869,91.182,46.2,91.182ZM36.721,64.26l-4.2,6.076a13.253,13.253,0,0,0,2.4,1.913,17.217,17.217,0,0,0,2.92,1.5,17.6,17.6,0,0,0,4,1.066v4.157h4.978V74.814a11.076,11.076,0,0,0,6.759-3.506,9.431,9.431,0,0,0,1.77-2.982,10.044,10.044,0,0,0,.605-3.471,8.308,8.308,0,0,0-3.368-6.812A26.078,26.078,0,0,0,45.964,54.6a24.884,24.884,0,0,1-3.436-1.572c-.971-.6-1.423-1.192-1.423-1.875a2.226,2.226,0,0,1,1.119-1.964,4.52,4.52,0,0,1,2.352-.594,9.33,9.33,0,0,1,2.784.45,12.726,12.726,0,0,1,2.3.989,13.21,13.21,0,0,1,2.135,1.439l3.379-6.533a10.159,10.159,0,0,0-2.089-1.542A15.031,15.031,0,0,0,50.47,42.2a17.028,17.028,0,0,0-3.656-.827V37.214H41.836v4.295a12.43,12.43,0,0,0-3.5,1.206,10.276,10.276,0,0,0-2.761,2.1,9.288,9.288,0,0,0-2.46,6.425,8.365,8.365,0,0,0,3.405,6.786,27.651,27.651,0,0,0,6.659,3.594,25.97,25.97,0,0,1,3.381,1.611c.953.6,1.4,1.17,1.4,1.805a2.255,2.255,0,0,1-1.1,2.039,4.514,4.514,0,0,1-2.329.565,9.145,9.145,0,0,1-2.954-.528,13.765,13.765,0,0,1-2.492-1.162A15.548,15.548,0,0,1,36.721,64.26Zm12.96-42.886a.986.986,0,0,1-.423-.114,5.383,5.383,0,0,0-1.438-.427.591.591,0,0,1-.451-.23c-.066-.121-.045-.286.07-.554.378-.883.764-1.814,1.18-2.845a5.667,5.667,0,0,0,.187-.586c.025-.089.051-.18.078-.269l-.188-.092c-.21.3-.426.607-.635.9-.488.687-.993,1.4-1.444,2.125A1.936,1.936,0,0,1,44.8,20.4c-.087,0-.18,0-.275-.011-.263-.02-.532-.03-.824-.03-.81,0-1.64.079-2.442.156-.411.039-.837.08-1.255.109a1.877,1.877,0,0,0-.6.191,2.949,2.949,0,0,1-.993.347c-.3,0-.5-.231-.974-.79l-.019-.023c-2.207-2.6-4.533-5.338-6.915-8.129a2.417,2.417,0,0,1-.615-1.874,4.054,4.054,0,0,1,1.029-2.126,9.8,9.8,0,0,1,3.457-2.454.97.97,0,0,1,.409-.1c.311,0,.563.21.77.643a61.016,61.016,0,0,0,2.971,5.544l-.13-.47c-.095-.344-.192-.7-.295-1.049-.184-.625-.371-1.26-.553-1.873v0c-.527-1.783-1.073-3.626-1.58-5.447a1.019,1.019,0,0,1,.284-.838A7.912,7.912,0,0,1,40.288.462,28.181,28.181,0,0,1,45.169,0a20.685,20.685,0,0,1,2.377.134c1.021.118,2.177.253,3.3.486a13.1,13.1,0,0,1,3.168,1.051l.052.026c1.12.553,1.12.553.638,1.693l-.014.033c-.62,1.467-1.233,2.964-1.826,4.412-.246.6-.5,1.224-.756,1.843l.174.1.633-.846.006-.008c.65-.872,1.323-1.773,2-2.643a.823.823,0,0,1,.53-.252.2.2,0,0,1,.09.018A6.455,6.455,0,0,1,57.467,7.71a4.161,4.161,0,0,1,1.027,2.581,3.441,3.441,0,0,1-.461,1.6,8.25,8.25,0,0,1-.966,1.3c-1.306,1.525-2.645,3.065-3.94,4.554l0,0c-.931,1.071-1.895,2.179-2.838,3.272A.8.8,0,0,1,49.681,21.374Z" transform="translate(0 0)" fill="#7d0404"/>
      </g>
      <g id="Group_525" data-name="Group 525" transform="translate(633.488 7349.697)">
        <path id="Subtraction_7-4" data-name="Subtraction 7" d="M46.2,91.182c-3.917,0-8.051-.088-13.011-.276-5-.19-9.845-.586-14.4-1.177a49.973,49.973,0,0,1-9.067-2.179,9.284,9.284,0,0,1-3.462-2.1A24.286,24.286,0,0,1,3.676,82.5a17.582,17.582,0,0,1-2.012-3.228,16.646,16.646,0,0,1-1.19-3.39,18.422,18.422,0,0,1-.461-3.529A23.013,23.013,0,0,1,.187,68.71,30.854,30.854,0,0,1,1.158,64a36.694,36.694,0,0,1,1.635-4.5,55.538,55.538,0,0,1,4.775-8.544c1.495-2.244,3.114-4.443,4.814-6.538s3.529-4.145,5.434-6.09,3.942-3.844,6.052-5.638,4.355-3.54,6.668-5.182A43.318,43.318,0,0,1,35.9,24.439c.727-.371,1.479-.756,2.205-1.147a2.911,2.911,0,0,1,.855-.232c.2-.035.42-.074.676-.133l-1.572,2.414-3.017,4.633.146.083.106.061.719-.832.393-.454.014-.017,1.8-2.088c.289-.335.588-.673.878-1,.68-.767,1.384-1.56,2-2.38a1.974,1.974,0,0,1,1.067-.728,5.4,5.4,0,0,1,1.257-.149c.248-.01.5-.02.754-.05a4.29,4.29,0,0,1,.5-.032,2.123,2.123,0,0,1,2.087,1.428,56.3,56.3,0,0,0,4.24,7.115q-.591-2.332-1.183-4.675l-.8-3.143a3.03,3.03,0,0,1,.737-.093,4.651,4.651,0,0,1,2.068.627c.153.075.31.151.465.221a39.526,39.526,0,0,1,6.352,3.646,69.77,69.77,0,0,1,5.639,4.43,94.969,94.969,0,0,1,8.754,8.542,87.151,87.151,0,0,1,7.385,9.449A60.786,60.786,0,0,1,84.156,56.2a49.572,49.572,0,0,1,2.815,6.619,29.5,29.5,0,0,1,1.51,6.694,21.461,21.461,0,0,1,.064,3.368,19.306,19.306,0,0,1-.511,3.378,19.754,19.754,0,0,1-1.215,3.535,16.176,16.176,0,0,1-1.907,3.166,15.188,15.188,0,0,1-2.693,2.691,17.086,17.086,0,0,1-3.575,2.112,26.588,26.588,0,0,1-6.579,1.625c-4.118.648-8.339,1.108-12.9,1.4C55.109,91.054,50.869,91.182,46.2,91.182ZM36.721,64.26l-4.2,6.076a13.253,13.253,0,0,0,2.4,1.913,17.217,17.217,0,0,0,2.92,1.5,17.6,17.6,0,0,0,4,1.066v4.157h4.978V74.814a11.076,11.076,0,0,0,6.759-3.506,9.431,9.431,0,0,0,1.77-2.982,10.044,10.044,0,0,0,.605-3.471,8.308,8.308,0,0,0-3.368-6.812A26.078,26.078,0,0,0,45.964,54.6a24.884,24.884,0,0,1-3.436-1.572c-.971-.6-1.423-1.192-1.423-1.875a2.226,2.226,0,0,1,1.119-1.964,4.52,4.52,0,0,1,2.352-.594,9.33,9.33,0,0,1,2.784.45,12.726,12.726,0,0,1,2.3.989,13.21,13.21,0,0,1,2.135,1.439l3.379-6.533a10.159,10.159,0,0,0-2.089-1.542A15.031,15.031,0,0,0,50.47,42.2a17.028,17.028,0,0,0-3.656-.827V37.214H41.836v4.295a12.43,12.43,0,0,0-3.5,1.206,10.276,10.276,0,0,0-2.761,2.1,9.288,9.288,0,0,0-2.46,6.425,8.365,8.365,0,0,0,3.405,6.786,27.651,27.651,0,0,0,6.659,3.594,25.97,25.97,0,0,1,3.381,1.611c.953.6,1.4,1.17,1.4,1.805a2.255,2.255,0,0,1-1.1,2.039,4.514,4.514,0,0,1-2.329.565,9.145,9.145,0,0,1-2.954-.528,13.765,13.765,0,0,1-2.492-1.162A15.548,15.548,0,0,1,36.721,64.26Zm12.96-42.886a.986.986,0,0,1-.423-.114,5.383,5.383,0,0,0-1.438-.427.591.591,0,0,1-.451-.23c-.066-.121-.045-.286.07-.554.378-.883.764-1.814,1.18-2.845a5.667,5.667,0,0,0,.187-.586c.025-.089.051-.18.078-.269l-.188-.092c-.21.3-.426.607-.635.9-.488.687-.993,1.4-1.444,2.125A1.936,1.936,0,0,1,44.8,20.4c-.087,0-.18,0-.275-.011-.263-.02-.532-.03-.824-.03-.81,0-1.64.079-2.442.156-.411.039-.837.08-1.255.109a1.877,1.877,0,0,0-.6.191,2.949,2.949,0,0,1-.993.347c-.3,0-.5-.231-.974-.79l-.019-.023c-2.207-2.6-4.533-5.338-6.915-8.129a2.417,2.417,0,0,1-.615-1.874,4.054,4.054,0,0,1,1.029-2.126,9.8,9.8,0,0,1,3.457-2.454.97.97,0,0,1,.409-.1c.311,0,.563.21.77.643a61.016,61.016,0,0,0,2.971,5.544l-.13-.47c-.095-.344-.192-.7-.295-1.049-.184-.625-.371-1.26-.553-1.873v0c-.527-1.783-1.073-3.626-1.58-5.447a1.019,1.019,0,0,1,.284-.838A7.912,7.912,0,0,1,40.288.462,28.181,28.181,0,0,1,45.169,0a20.685,20.685,0,0,1,2.377.134c1.021.118,2.177.253,3.3.486a13.1,13.1,0,0,1,3.168,1.051l.052.026c1.12.553,1.12.553.638,1.693l-.014.033c-.62,1.467-1.233,2.964-1.826,4.412-.246.6-.5,1.224-.756,1.843l.174.1.633-.846.006-.008c.65-.872,1.323-1.773,2-2.643a.823.823,0,0,1,.53-.252.2.2,0,0,1,.09.018A6.455,6.455,0,0,1,57.467,7.71a4.161,4.161,0,0,1,1.027,2.581,3.441,3.441,0,0,1-.461,1.6,8.25,8.25,0,0,1-.966,1.3c-1.306,1.525-2.645,3.065-3.94,4.554l0,0c-.931,1.071-1.895,2.179-2.838,3.272A.8.8,0,0,1,49.681,21.374Z" transform="translate(0 0)" fill="#7d0404"/>
      </g>
      <g id="Group_527" data-name="Group 527" transform="translate(633.488 7455.697)">
        <path id="Subtraction_7-5" data-name="Subtraction 7" d="M46.2,91.182c-3.917,0-8.051-.088-13.011-.276-5-.19-9.845-.586-14.4-1.177a49.973,49.973,0,0,1-9.067-2.179,9.284,9.284,0,0,1-3.462-2.1A24.286,24.286,0,0,1,3.676,82.5a17.582,17.582,0,0,1-2.012-3.228,16.646,16.646,0,0,1-1.19-3.39,18.422,18.422,0,0,1-.461-3.529A23.013,23.013,0,0,1,.187,68.71,30.854,30.854,0,0,1,1.158,64a36.694,36.694,0,0,1,1.635-4.5,55.538,55.538,0,0,1,4.775-8.544c1.495-2.244,3.114-4.443,4.814-6.538s3.529-4.145,5.434-6.09,3.942-3.844,6.052-5.638,4.355-3.54,6.668-5.182A43.318,43.318,0,0,1,35.9,24.439c.727-.371,1.479-.756,2.205-1.147a2.911,2.911,0,0,1,.855-.232c.2-.035.42-.074.676-.133l-1.572,2.414-3.017,4.633.146.083.106.061.719-.832.393-.454.014-.017,1.8-2.088c.289-.335.588-.673.878-1,.68-.767,1.384-1.56,2-2.38a1.974,1.974,0,0,1,1.067-.728,5.4,5.4,0,0,1,1.257-.149c.248-.01.5-.02.754-.05a4.29,4.29,0,0,1,.5-.032,2.123,2.123,0,0,1,2.087,1.428,56.3,56.3,0,0,0,4.24,7.115q-.591-2.332-1.183-4.675l-.8-3.143a3.03,3.03,0,0,1,.737-.093,4.651,4.651,0,0,1,2.068.627c.153.075.31.151.465.221a39.526,39.526,0,0,1,6.352,3.646,69.77,69.77,0,0,1,5.639,4.43,94.969,94.969,0,0,1,8.754,8.542,87.151,87.151,0,0,1,7.385,9.449A60.786,60.786,0,0,1,84.156,56.2a49.572,49.572,0,0,1,2.815,6.619,29.5,29.5,0,0,1,1.51,6.694,21.461,21.461,0,0,1,.064,3.368,19.306,19.306,0,0,1-.511,3.378,19.754,19.754,0,0,1-1.215,3.535,16.176,16.176,0,0,1-1.907,3.166,15.188,15.188,0,0,1-2.693,2.691,17.086,17.086,0,0,1-3.575,2.112,26.588,26.588,0,0,1-6.579,1.625c-4.118.648-8.339,1.108-12.9,1.4C55.109,91.054,50.869,91.182,46.2,91.182ZM36.721,64.26l-4.2,6.076a13.253,13.253,0,0,0,2.4,1.913,17.217,17.217,0,0,0,2.92,1.5,17.6,17.6,0,0,0,4,1.066v4.157h4.978V74.814a11.076,11.076,0,0,0,6.759-3.506,9.431,9.431,0,0,0,1.77-2.982,10.044,10.044,0,0,0,.605-3.471,8.308,8.308,0,0,0-3.368-6.812A26.078,26.078,0,0,0,45.964,54.6a24.884,24.884,0,0,1-3.436-1.572c-.971-.6-1.423-1.192-1.423-1.875a2.226,2.226,0,0,1,1.119-1.964,4.52,4.52,0,0,1,2.352-.594,9.33,9.33,0,0,1,2.784.45,12.726,12.726,0,0,1,2.3.989,13.21,13.21,0,0,1,2.135,1.439l3.379-6.533a10.159,10.159,0,0,0-2.089-1.542A15.031,15.031,0,0,0,50.47,42.2a17.028,17.028,0,0,0-3.656-.827V37.214H41.836v4.295a12.43,12.43,0,0,0-3.5,1.206,10.276,10.276,0,0,0-2.761,2.1,9.288,9.288,0,0,0-2.46,6.425,8.365,8.365,0,0,0,3.405,6.786,27.651,27.651,0,0,0,6.659,3.594,25.97,25.97,0,0,1,3.381,1.611c.953.6,1.4,1.17,1.4,1.805a2.255,2.255,0,0,1-1.1,2.039,4.514,4.514,0,0,1-2.329.565,9.145,9.145,0,0,1-2.954-.528,13.765,13.765,0,0,1-2.492-1.162A15.548,15.548,0,0,1,36.721,64.26Zm12.96-42.886a.986.986,0,0,1-.423-.114,5.383,5.383,0,0,0-1.438-.427.591.591,0,0,1-.451-.23c-.066-.121-.045-.286.07-.554.378-.883.764-1.814,1.18-2.845a5.667,5.667,0,0,0,.187-.586c.025-.089.051-.18.078-.269l-.188-.092c-.21.3-.426.607-.635.9-.488.687-.993,1.4-1.444,2.125A1.936,1.936,0,0,1,44.8,20.4c-.087,0-.18,0-.275-.011-.263-.02-.532-.03-.824-.03-.81,0-1.64.079-2.442.156-.411.039-.837.08-1.255.109a1.877,1.877,0,0,0-.6.191,2.949,2.949,0,0,1-.993.347c-.3,0-.5-.231-.974-.79l-.019-.023c-2.207-2.6-4.533-5.338-6.915-8.129a2.417,2.417,0,0,1-.615-1.874,4.054,4.054,0,0,1,1.029-2.126,9.8,9.8,0,0,1,3.457-2.454.97.97,0,0,1,.409-.1c.311,0,.563.21.77.643a61.016,61.016,0,0,0,2.971,5.544l-.13-.47c-.095-.344-.192-.7-.295-1.049-.184-.625-.371-1.26-.553-1.873v0c-.527-1.783-1.073-3.626-1.58-5.447a1.019,1.019,0,0,1,.284-.838A7.912,7.912,0,0,1,40.288.462,28.181,28.181,0,0,1,45.169,0a20.685,20.685,0,0,1,2.377.134c1.021.118,2.177.253,3.3.486a13.1,13.1,0,0,1,3.168,1.051l.052.026c1.12.553,1.12.553.638,1.693l-.014.033c-.62,1.467-1.233,2.964-1.826,4.412-.246.6-.5,1.224-.756,1.843l.174.1.633-.846.006-.008c.65-.872,1.323-1.773,2-2.643a.823.823,0,0,1,.53-.252.2.2,0,0,1,.09.018A6.455,6.455,0,0,1,57.467,7.71a4.161,4.161,0,0,1,1.027,2.581,3.441,3.441,0,0,1-.461,1.6,8.25,8.25,0,0,1-.966,1.3c-1.306,1.525-2.645,3.065-3.94,4.554l0,0c-.931,1.071-1.895,2.179-2.838,3.272A.8.8,0,0,1,49.681,21.374Z" transform="translate(0 0)" fill="#7d0404"/>
      </g>
      <g id="Group_526" data-name="Group 526" transform="translate(726.975 7349.697)">
        <path id="Subtraction_7-6" data-name="Subtraction 7" d="M46.2,91.182c-3.917,0-8.051-.088-13.011-.276-5-.19-9.845-.586-14.4-1.177a49.973,49.973,0,0,1-9.067-2.179,9.284,9.284,0,0,1-3.462-2.1A24.286,24.286,0,0,1,3.676,82.5a17.582,17.582,0,0,1-2.012-3.228,16.646,16.646,0,0,1-1.19-3.39,18.422,18.422,0,0,1-.461-3.529A23.013,23.013,0,0,1,.187,68.71,30.854,30.854,0,0,1,1.158,64a36.694,36.694,0,0,1,1.635-4.5,55.538,55.538,0,0,1,4.775-8.544c1.495-2.244,3.114-4.443,4.814-6.538s3.529-4.145,5.434-6.09,3.942-3.844,6.052-5.638,4.355-3.54,6.668-5.182A43.318,43.318,0,0,1,35.9,24.439c.727-.371,1.479-.756,2.205-1.147a2.911,2.911,0,0,1,.855-.232c.2-.035.42-.074.676-.133l-1.572,2.414-3.017,4.633.146.083.106.061.719-.832.393-.454.014-.017,1.8-2.088c.289-.335.588-.673.878-1,.68-.767,1.384-1.56,2-2.38a1.974,1.974,0,0,1,1.067-.728,5.4,5.4,0,0,1,1.257-.149c.248-.01.5-.02.754-.05a4.29,4.29,0,0,1,.5-.032,2.123,2.123,0,0,1,2.087,1.428,56.3,56.3,0,0,0,4.24,7.115q-.591-2.332-1.183-4.675l-.8-3.143a3.03,3.03,0,0,1,.737-.093,4.651,4.651,0,0,1,2.068.627c.153.075.31.151.465.221a39.526,39.526,0,0,1,6.352,3.646,69.77,69.77,0,0,1,5.639,4.43,94.969,94.969,0,0,1,8.754,8.542,87.151,87.151,0,0,1,7.385,9.449A60.786,60.786,0,0,1,84.156,56.2a49.572,49.572,0,0,1,2.815,6.619,29.5,29.5,0,0,1,1.51,6.694,21.461,21.461,0,0,1,.064,3.368,19.306,19.306,0,0,1-.511,3.378,19.754,19.754,0,0,1-1.215,3.535,16.176,16.176,0,0,1-1.907,3.166,15.188,15.188,0,0,1-2.693,2.691,17.086,17.086,0,0,1-3.575,2.112,26.588,26.588,0,0,1-6.579,1.625c-4.118.648-8.339,1.108-12.9,1.4C55.109,91.054,50.869,91.182,46.2,91.182ZM36.721,64.26l-4.2,6.076a13.253,13.253,0,0,0,2.4,1.913,17.217,17.217,0,0,0,2.92,1.5,17.6,17.6,0,0,0,4,1.066v4.157h4.978V74.814a11.076,11.076,0,0,0,6.759-3.506,9.431,9.431,0,0,0,1.77-2.982,10.044,10.044,0,0,0,.605-3.471,8.308,8.308,0,0,0-3.368-6.812A26.078,26.078,0,0,0,45.964,54.6a24.884,24.884,0,0,1-3.436-1.572c-.971-.6-1.423-1.192-1.423-1.875a2.226,2.226,0,0,1,1.119-1.964,4.52,4.52,0,0,1,2.352-.594,9.33,9.33,0,0,1,2.784.45,12.726,12.726,0,0,1,2.3.989,13.21,13.21,0,0,1,2.135,1.439l3.379-6.533a10.159,10.159,0,0,0-2.089-1.542A15.031,15.031,0,0,0,50.47,42.2a17.028,17.028,0,0,0-3.656-.827V37.214H41.836v4.295a12.43,12.43,0,0,0-3.5,1.206,10.276,10.276,0,0,0-2.761,2.1,9.288,9.288,0,0,0-2.46,6.425,8.365,8.365,0,0,0,3.405,6.786,27.651,27.651,0,0,0,6.659,3.594,25.97,25.97,0,0,1,3.381,1.611c.953.6,1.4,1.17,1.4,1.805a2.255,2.255,0,0,1-1.1,2.039,4.514,4.514,0,0,1-2.329.565,9.145,9.145,0,0,1-2.954-.528,13.765,13.765,0,0,1-2.492-1.162A15.548,15.548,0,0,1,36.721,64.26Zm12.96-42.886a.986.986,0,0,1-.423-.114,5.383,5.383,0,0,0-1.438-.427.591.591,0,0,1-.451-.23c-.066-.121-.045-.286.07-.554.378-.883.764-1.814,1.18-2.845a5.667,5.667,0,0,0,.187-.586c.025-.089.051-.18.078-.269l-.188-.092c-.21.3-.426.607-.635.9-.488.687-.993,1.4-1.444,2.125A1.936,1.936,0,0,1,44.8,20.4c-.087,0-.18,0-.275-.011-.263-.02-.532-.03-.824-.03-.81,0-1.64.079-2.442.156-.411.039-.837.08-1.255.109a1.877,1.877,0,0,0-.6.191,2.949,2.949,0,0,1-.993.347c-.3,0-.5-.231-.974-.79l-.019-.023c-2.207-2.6-4.533-5.338-6.915-8.129a2.417,2.417,0,0,1-.615-1.874,4.054,4.054,0,0,1,1.029-2.126,9.8,9.8,0,0,1,3.457-2.454.97.97,0,0,1,.409-.1c.311,0,.563.21.77.643a61.016,61.016,0,0,0,2.971,5.544l-.13-.47c-.095-.344-.192-.7-.295-1.049-.184-.625-.371-1.26-.553-1.873v0c-.527-1.783-1.073-3.626-1.58-5.447a1.019,1.019,0,0,1,.284-.838A7.912,7.912,0,0,1,40.288.462,28.181,28.181,0,0,1,45.169,0a20.685,20.685,0,0,1,2.377.134c1.021.118,2.177.253,3.3.486a13.1,13.1,0,0,1,3.168,1.051l.052.026c1.12.553,1.12.553.638,1.693l-.014.033c-.62,1.467-1.233,2.964-1.826,4.412-.246.6-.5,1.224-.756,1.843l.174.1.633-.846.006-.008c.65-.872,1.323-1.773,2-2.643a.823.823,0,0,1,.53-.252.2.2,0,0,1,.09.018A6.455,6.455,0,0,1,57.467,7.71a4.161,4.161,0,0,1,1.027,2.581,3.441,3.441,0,0,1-.461,1.6,8.25,8.25,0,0,1-.966,1.3c-1.306,1.525-2.645,3.065-3.94,4.554l0,0c-.931,1.071-1.895,2.179-2.838,3.272A.8.8,0,0,1,49.681,21.374Z" transform="translate(0 0)" fill="#7d0404"/>
      </g>
      <g id="Group_528" data-name="Group 528" transform="translate(726.975 7455.697)">
        <path id="Subtraction_7-7" data-name="Subtraction 7" d="M46.2,91.182c-3.917,0-8.051-.088-13.011-.276-5-.19-9.845-.586-14.4-1.177a49.973,49.973,0,0,1-9.067-2.179,9.284,9.284,0,0,1-3.462-2.1A24.286,24.286,0,0,1,3.676,82.5a17.582,17.582,0,0,1-2.012-3.228,16.646,16.646,0,0,1-1.19-3.39,18.422,18.422,0,0,1-.461-3.529A23.013,23.013,0,0,1,.187,68.71,30.854,30.854,0,0,1,1.158,64a36.694,36.694,0,0,1,1.635-4.5,55.538,55.538,0,0,1,4.775-8.544c1.495-2.244,3.114-4.443,4.814-6.538s3.529-4.145,5.434-6.09,3.942-3.844,6.052-5.638,4.355-3.54,6.668-5.182A43.318,43.318,0,0,1,35.9,24.439c.727-.371,1.479-.756,2.205-1.147a2.911,2.911,0,0,1,.855-.232c.2-.035.42-.074.676-.133l-1.572,2.414-3.017,4.633.146.083.106.061.719-.832.393-.454.014-.017,1.8-2.088c.289-.335.588-.673.878-1,.68-.767,1.384-1.56,2-2.38a1.974,1.974,0,0,1,1.067-.728,5.4,5.4,0,0,1,1.257-.149c.248-.01.5-.02.754-.05a4.29,4.29,0,0,1,.5-.032,2.123,2.123,0,0,1,2.087,1.428,56.3,56.3,0,0,0,4.24,7.115q-.591-2.332-1.183-4.675l-.8-3.143a3.03,3.03,0,0,1,.737-.093,4.651,4.651,0,0,1,2.068.627c.153.075.31.151.465.221a39.526,39.526,0,0,1,6.352,3.646,69.77,69.77,0,0,1,5.639,4.43,94.969,94.969,0,0,1,8.754,8.542,87.151,87.151,0,0,1,7.385,9.449A60.786,60.786,0,0,1,84.156,56.2a49.572,49.572,0,0,1,2.815,6.619,29.5,29.5,0,0,1,1.51,6.694,21.461,21.461,0,0,1,.064,3.368,19.306,19.306,0,0,1-.511,3.378,19.754,19.754,0,0,1-1.215,3.535,16.176,16.176,0,0,1-1.907,3.166,15.188,15.188,0,0,1-2.693,2.691,17.086,17.086,0,0,1-3.575,2.112,26.588,26.588,0,0,1-6.579,1.625c-4.118.648-8.339,1.108-12.9,1.4C55.109,91.054,50.869,91.182,46.2,91.182ZM36.721,64.26l-4.2,6.076a13.253,13.253,0,0,0,2.4,1.913,17.217,17.217,0,0,0,2.92,1.5,17.6,17.6,0,0,0,4,1.066v4.157h4.978V74.814a11.076,11.076,0,0,0,6.759-3.506,9.431,9.431,0,0,0,1.77-2.982,10.044,10.044,0,0,0,.605-3.471,8.308,8.308,0,0,0-3.368-6.812A26.078,26.078,0,0,0,45.964,54.6a24.884,24.884,0,0,1-3.436-1.572c-.971-.6-1.423-1.192-1.423-1.875a2.226,2.226,0,0,1,1.119-1.964,4.52,4.52,0,0,1,2.352-.594,9.33,9.33,0,0,1,2.784.45,12.726,12.726,0,0,1,2.3.989,13.21,13.21,0,0,1,2.135,1.439l3.379-6.533a10.159,10.159,0,0,0-2.089-1.542A15.031,15.031,0,0,0,50.47,42.2a17.028,17.028,0,0,0-3.656-.827V37.214H41.836v4.295a12.43,12.43,0,0,0-3.5,1.206,10.276,10.276,0,0,0-2.761,2.1,9.288,9.288,0,0,0-2.46,6.425,8.365,8.365,0,0,0,3.405,6.786,27.651,27.651,0,0,0,6.659,3.594,25.97,25.97,0,0,1,3.381,1.611c.953.6,1.4,1.17,1.4,1.805a2.255,2.255,0,0,1-1.1,2.039,4.514,4.514,0,0,1-2.329.565,9.145,9.145,0,0,1-2.954-.528,13.765,13.765,0,0,1-2.492-1.162A15.548,15.548,0,0,1,36.721,64.26Zm12.96-42.886a.986.986,0,0,1-.423-.114,5.383,5.383,0,0,0-1.438-.427.591.591,0,0,1-.451-.23c-.066-.121-.045-.286.07-.554.378-.883.764-1.814,1.18-2.845a5.667,5.667,0,0,0,.187-.586c.025-.089.051-.18.078-.269l-.188-.092c-.21.3-.426.607-.635.9-.488.687-.993,1.4-1.444,2.125A1.936,1.936,0,0,1,44.8,20.4c-.087,0-.18,0-.275-.011-.263-.02-.532-.03-.824-.03-.81,0-1.64.079-2.442.156-.411.039-.837.08-1.255.109a1.877,1.877,0,0,0-.6.191,2.949,2.949,0,0,1-.993.347c-.3,0-.5-.231-.974-.79l-.019-.023c-2.207-2.6-4.533-5.338-6.915-8.129a2.417,2.417,0,0,1-.615-1.874,4.054,4.054,0,0,1,1.029-2.126,9.8,9.8,0,0,1,3.457-2.454.97.97,0,0,1,.409-.1c.311,0,.563.21.77.643a61.016,61.016,0,0,0,2.971,5.544l-.13-.47c-.095-.344-.192-.7-.295-1.049-.184-.625-.371-1.26-.553-1.873v0c-.527-1.783-1.073-3.626-1.58-5.447a1.019,1.019,0,0,1,.284-.838A7.912,7.912,0,0,1,40.288.462,28.181,28.181,0,0,1,45.169,0a20.685,20.685,0,0,1,2.377.134c1.021.118,2.177.253,3.3.486a13.1,13.1,0,0,1,3.168,1.051l.052.026c1.12.553,1.12.553.638,1.693l-.014.033c-.62,1.467-1.233,2.964-1.826,4.412-.246.6-.5,1.224-.756,1.843l.174.1.633-.846.006-.008c.65-.872,1.323-1.773,2-2.643a.823.823,0,0,1,.53-.252.2.2,0,0,1,.09.018A6.455,6.455,0,0,1,57.467,7.71a4.161,4.161,0,0,1,1.027,2.581,3.441,3.441,0,0,1-.461,1.6,8.25,8.25,0,0,1-.966,1.3c-1.306,1.525-2.645,3.065-3.94,4.554l0,0c-.931,1.071-1.895,2.179-2.838,3.272A.8.8,0,0,1,49.681,21.374Z" transform="translate(0 0)" fill="#7d0404"/>
      </g>
      <path id="Subtraction_13" data-name="Subtraction 13" d="M2173.082,12045.875h0c-3.578-.015-7.356-.1-11.891-.272-4.992-.188-9.835-.584-14.4-1.176a49.915,49.915,0,0,1-9.067-2.18,9.274,9.274,0,0,1-3.464-2.1,24.719,24.719,0,0,1-2.586-2.953,17.494,17.494,0,0,1-2.014-3.228,16.623,16.623,0,0,1-1.187-3.389,18.545,18.545,0,0,1-.463-3.531,23.116,23.116,0,0,1,.176-3.643,30.528,30.528,0,0,1,.972-4.706,36.582,36.582,0,0,1,1.632-4.5,55.406,55.406,0,0,1,4.776-8.543c1.52-2.279,3.14-4.479,4.815-6.538,1.7-2.093,3.525-4.143,5.433-6.093,1.885-1.925,3.921-3.821,6.051-5.636s4.367-3.549,6.668-5.185a43.132,43.132,0,0,1,5.333-3.052l.033-.017.134-.068.017-.009c.679-.348,1.381-.707,2.057-1.07a2.859,2.859,0,0,1,.854-.229l.116-.021.059-.011c.15-.028.319-.061.5-.1l-1.572,2.414-1.067,1.639-1.949,2.994.145.082.106.063.721-.833.391-.454.015-.019c.4-.468.818-.946,1.232-1.424l.573-.662c.279-.325.574-.658.852-.971l.026-.029.021-.023c.637-.721,1.359-1.536,1.98-2.356a1.976,1.976,0,0,1,1.069-.727,5.233,5.233,0,0,1,1.257-.148l.076,0c.2-.009.447-.02.678-.048a4.144,4.144,0,0,1,.5-.03,2.85,2.85,0,0,1,.391.024v14.8h-3.246v4.292a12.416,12.416,0,0,0-3.5,1.208,10.3,10.3,0,0,0-2.762,2.1,9.3,9.3,0,0,0-2.459,6.426,8.367,8.367,0,0,0,3.4,6.786,27.549,27.549,0,0,0,6.625,3.58l.035.015.112.048.047.021c.624.266,1.213.517,1.745.764v5.164c-.181.017-.366.024-.551.024a9.222,9.222,0,0,1-2.956-.527,13.825,13.825,0,0,1-2.489-1.162,16.276,16.276,0,0,1-2.351-1.678l-.009-.008-.005,0-4.2,6.075a13.393,13.393,0,0,0,2.4,1.914,17.256,17.256,0,0,0,2.922,1.5,17.6,17.6,0,0,0,4,1.068v4.155h3.246v12.206Zm0-36.939h0a19.1,19.1,0,0,1-2.552-1.213c-.971-.6-1.423-1.191-1.423-1.875a2.226,2.226,0,0,1,1.117-1.965,4.539,4.539,0,0,1,2.353-.594c.177,0,.348,0,.506.016v5.632Zm-6.671-33.075c-.3,0-.5-.228-.966-.779l-.009-.011-.021-.024c-2.273-2.683-4.662-5.486-6.914-8.128a2.41,2.41,0,0,1-.615-1.874,4.039,4.039,0,0,1,1.03-2.126,9.818,9.818,0,0,1,3.455-2.453.98.98,0,0,1,.412-.1c.312,0,.564.21.769.643a60.843,60.843,0,0,0,2.971,5.545l-.131-.473-.032-.118c-.084-.3-.17-.621-.261-.93l-.2-.689-.35-1.185-.037-.127c-.512-1.734-1.042-3.528-1.543-5.321a1.012,1.012,0,0,1,.284-.836,7.925,7.925,0,0,1,4.04-1.711,28.208,28.208,0,0,1,4.794-.463v20.387a2.7,2.7,0,0,1-.282.015c-.1,0-.186,0-.276-.01-.26-.021-.53-.03-.824-.03-.812,0-1.634.078-2.43.154h-.01l-.138.013c-.345.033-.737.071-1.115.1a1.889,1.889,0,0,0-.605.191A2.874,2.874,0,0,1,2166.411,11975.86Z" transform="translate(-1307.583 -4605)" fill="#7d0404"/>
    </g>
  </g>
</svg>
