<svg xmlns="http://www.w3.org/2000/svg" width="752.854" height="491" viewBox="0 0 752.854 491">
  <g id="Group_726" data-name="Group 726" transform="translate(-14917.323 -8008)">
    <g id="Group_725" data-name="Group 725" transform="translate(12821.595 16078.602)">
      <g id="Path_1934" data-name="Path 1934" transform="translate(2468.642 -7860.692) rotate(180)" fill="#83b4de" stroke-miterlimit="10">
        <path d="M 26.42805862426758 189.520263671875 L 1.2361980676651 101.6669006347656 C 24.17046546936035 94.93194580078125 44.87107086181641 82.04496002197266 61.15133666992188 64.35496520996094 C 77.52021789550781 46.56870269775391 88.65660095214844 24.74119567871094 93.39736175537109 1.171925187110901 L 183.0475616455078 18.59762001037598 C 178.9468231201172 39.24866104125977 172.3103179931641 58.89458465576172 163.3152923583984 77.0079345703125 C 154.291259765625 95.17963409423828 142.8647308349609 111.869987487793 129.3531036376953 126.615364074707 C 115.8416366577148 141.3605194091797 100.2107849121094 154.1982116699219 82.89473724365234 164.7718048095703 C 65.63471984863281 175.3112030029297 46.64252090454102 183.6348876953125 26.42805862426758 189.520263671875 Z" stroke="none"/>
        <path d="M 94.17813110351562 2.3424072265625 C 89.29299926757812 25.71858215332031 78.15449523925781 47.356201171875 61.88716125488281 65.03211975097656 C 45.70925903320312 82.61090850830078 25.1998291015625 95.48225402832031 2.470321655273438 102.3428268432617 L 27.11201477050781 188.2774658203125 C 46.88117980957031 182.4341735839844 65.46388244628906 174.2438354492188 82.37360382080078 163.9183349609375 C 99.60957336425781 153.3935852050781 115.1677169799805 140.6157684326172 128.6158142089844 125.9397354125977 C 142.0640716552734 111.2635345458984 153.4373321533203 94.65085601806641 162.4196319580078 76.56314849853516 C 171.2320861816406 58.81742858886719 177.7714996337891 39.59104919433594 181.8690948486328 19.38728332519531 L 94.17813110351562 2.3424072265625 M 92.60919189453125 0 L 184.2219543457031 17.80717468261719 C 167.6382446289062 103.1186828613281 109.2810745239258 166.8016815185547 25.74301147460938 190.7591247558594 L -1.52587890625e-05 100.9837417602539 C 47.01551818847656 87.56661987304688 83.22283935546875 48.57952880859375 92.60919189453125 0 Z" stroke="none" fill="#efefef"/>
      </g>
      <g id="Path_1935" data-name="Path 1935" transform="translate(2424.091 -7658.775) rotate(180)" fill="#ee6060" stroke-miterlimit="10">
        <path d="M 138.8781585693359 218.5499572753906 L 49.22579193115234 201.1238403320312 C 50.71210861206055 193.1069030761719 51.46539688110352 184.9686737060547 51.46539688110352 176.9188079833984 C 51.46539688110352 166.5418701171875 50.25600814819336 156.2098999023438 47.87081146240234 146.2098693847656 C 45.5528678894043 136.4917907714844 42.11131286621094 127.0259246826172 37.64178466796875 118.0752029418945 C 33.25342559814453 109.2870635986328 27.8603687286377 100.9657821655273 21.61236953735352 93.34253692626953 C 15.61354160308838 86.02329254150391 8.818005561828613 79.33621978759766 1.401466131210327 73.45317840576172 L 57.69061660766602 1.405307769775391 C 74.17572021484375 14.39374542236328 88.63761901855469 29.21581840515137 100.6865386962891 45.47359085083008 C 112.7683944702148 61.77584075927734 122.4516448974609 79.55590057373047 129.46728515625 98.31983947753906 C 136.4829559326172 117.0838394165039 140.8397369384766 136.8552093505859 142.4166412353516 157.0846710205078 C 143.9892730712891 177.2590789794922 142.7987213134766 197.932861328125 138.8781585693359 218.5499572753906 Z" stroke="none"/>
        <path d="M 57.85913848876953 2.813812255859375 L 2.79827880859375 73.28950500488281 C 9.968795776367188 79.06498718261719 16.55184936523438 85.59062194824219 22.38578796386719 92.70866394042969 C 28.68095397949219 100.3894653320312 34.11482238769531 108.7736968994141 38.53641510009766 117.6284637451172 C 43.04005432128906 126.6474304199219 46.50785064697266 136.1855621337891 48.84352111816406 145.9778289794922 C 51.24681854248047 156.0537719726562 52.46538543701172 166.4638366699219 52.46538543701172 176.9187927246094 C 52.46538543701172 184.7035369873047 51.76634979248047 192.5695190429688 50.38618469238281 200.3306884765625 L 138.081298828125 217.3763580322266 C 141.8367004394531 197.1744384765625 142.9602508544922 176.9258422851562 141.4196472167969 157.1623992919922 C 139.8500213623047 137.026123046875 135.5135192871094 117.3464660644531 128.5306243896484 98.67002868652344 C 121.5477142333984 79.99366760253906 111.9092864990234 62.29612731933594 99.88308715820312 46.06900024414062 C 88.07961273193359 30.14239501953125 73.94721221923828 15.59727478027344 57.85913848876953 2.813812255859375 M 57.51948547363281 0 C 125.807487487793 53.35426330566406 156.2062225341797 134.6571044921875 139.6709899902344 219.7227935791016 L 48.05818176269531 201.9156341552734 C 49.62111663818359 193.8222045898438 50.46538543701172 185.4729919433594 50.46538543701172 176.9187927246094 C 50.46538543701172 134.9414672851562 30.70511627197266 97.60326385498047 -1.52587890625e-05 73.62266540527344 L 57.51948547363281 0 Z" stroke="none" fill="#efefef"/>
      </g>
      <g id="Path_1936" data-name="Path 1936" transform="translate(2466.455 -7620.999) rotate(180)" fill="#1762a0" stroke-miterlimit="10">
        <path d="M 42.18946838378906 109.9989318847656 C 36.09130477905273 105.3093566894531 29.56847953796387 101.1391296386719 22.78607177734375 97.59450531005859 C 15.89336395263672 93.99224090576172 8.652077674865723 90.99460601806641 1.247868418693542 88.67759704589844 L 27.97592353820801 1.250530362129211 C 41.30057525634766 5.380610466003418 53.40091323852539 10.31432247161865 64.93601226806641 16.31881332397461 C 76.47193145751953 22.32372665405273 87.45388793945312 29.40546989440918 98.47885894775391 37.95073699951172 L 42.18946838378906 109.9989318847656 Z" stroke="none"/>
        <path d="M 42.0101203918457 108.6041870117188 L 97.07159423828125 38.12768936157227 C 86.36085510253906 29.89300918579102 75.67964935302734 23.03868675231934 64.47427368164062 17.2058277130127 C 53.26970291137695 11.37337017059326 41.52809524536133 6.555580139160156 28.6381778717041 2.504788398742676 L 2.493520021438599 88.02354431152344 C 9.624899864196777 90.31492614746094 16.59797859191895 93.23216247558594 23.24923706054688 96.70824432373047 C 29.79097747802734 100.127082824707 36.09381484985352 104.124153137207 42.0101203918457 108.6041870117188 M 42.36421585083008 111.3995513916016 C 29.85643577575684 101.6296310424805 15.54985618591309 94.07292938232422 -3.615722562244628e-06 89.33895111083984 L 27.31255722045898 8.06640582595719e-06 C 54.58101654052734 8.337048530578613 77.41421508789062 20.22208786010742 99.88371276855469 37.7768669128418 L 42.36421585083008 111.3995513916016 Z" stroke="none" fill="#efefef"/>
      </g>
      <g id="Path_1937" data-name="Path 1937" transform="translate(2504.774 -7611.189) rotate(180)" fill="#a7050e" stroke-miterlimit="10">
        <path d="M 37.65370941162109 97.90475463867188 C 25.76355743408203 94.38469696044922 13.44194984436035 92.5604248046875 1.000005483627319 92.47842407226562 L 1.000005483627319 1.001485228538513 C 13.13285064697266 1.037583947181702 23.34811973571777 1.735178589820862 33.07225799560547 3.188603639602661 C 42.79633331298828 4.642002582550049 52.76925277709961 6.961834907531738 64.38260650634766 10.47493267059326 L 37.65370941162109 97.90475463867188 Z" stroke="none"/>
        <path d="M 36.9860954284668 96.66806030273438 L 63.13262176513672 11.14316177368164 C 51.97595977783203 7.805783271789551 42.33035278320312 5.583469390869141 32.92444610595703 4.177610874176025 C 23.51847076416016 2.771752119064331 13.64475631713867 2.076629638671875 2.000009059906006 2.006014108657837 L 2.000009059906006 91.48866271972656 C 13.86737155914307 91.65472412109375 25.61720275878906 93.39422607421875 36.9860954284668 96.66806030273438 M 38.31913757324219 99.14857482910156 C 26.23239135742188 95.47050476074219 13.40939140319824 93.47551727294922 0.121245488524437 93.47551727294922 L 9.125865290116053e-06 93.47884368896484 L 9.125865290116053e-06 1.087258078769082e-05 C 24.67168235778809 1.087258078769082e-05 42.03797149658203 2.595683574676514 65.63169860839844 9.809592247009277 L 38.31913757324219 99.14857482910156 Z" stroke="none" fill="#efefef"/>
      </g>
      <g id="Path_1938" data-name="Path 1938" transform="translate(2729.309 -7611.189) rotate(180)" fill="#10416b" stroke-miterlimit="10">
        <path d="M 224.4265747070312 448.0147399902344 C 200.4329223632812 448.0147399902344 176.6851501464844 444.1410217285156 153.8428039550781 436.501220703125 C 142.6576232910156 432.7602233886719 131.6770935058594 428.0936279296875 121.2062149047852 422.631103515625 C 110.7465667724609 417.17431640625 100.6436233520508 410.8441467285156 91.1781005859375 403.8162536621094 C 71.90362548828125 389.505615234375 55.17656707763672 372.3235473632812 41.46150970458984 352.7473754882812 C 27.27456855773926 332.4976806640625 16.59356880187988 310.0666809082031 9.715215682983398 286.0774536132812 C 5.535568237304688 271.5013732910156 2.827039003372192 256.513671875 1.664921283721924 241.5306854248047 C 0.5323330163955688 226.9290924072266 0.8534506559371948 212.1549072265625 2.619391918182373 197.6186218261719 C 4.353274345397949 183.3460388183594 7.496627330780029 169.158203125 11.96215629577637 155.4492645263672 C 16.38527488708496 141.8703308105469 22.14374542236328 128.6426849365234 29.07744979858398 116.1338577270508 C 36.01115798950195 103.6250305175781 44.17721557617188 91.73209381103516 53.34880447387695 80.78527069091797 C 62.60815811157227 69.73368072509766 72.97421264648438 59.54962158203125 84.15904235839844 50.51585388183594 C 95.55045318603516 41.31526565551758 107.9092178344727 33.2138557434082 120.8919830322266 26.43667984008789 C 134.2136840820312 19.4825611114502 148.3588104248047 13.83726692199707 162.9343872070312 9.657620429992676 C 172.8542175292969 6.81320858001709 183.1157379150391 4.6356201171875 193.4338684082031 3.185443639755249 C 203.4187164306641 1.78214693069458 213.5399017333984 1.048261642456055 223.5341033935547 1.002333521842957 L 223.5341033935547 92.48349761962891 C 214.9172668457031 92.55583190917969 206.3137664794922 93.46267700195312 197.9465637207031 95.18156433105469 C 189.4757385253906 96.92173767089844 181.1439819335938 99.51450347900391 173.1826324462891 102.8877944946289 C 165.3657379150391 106.1999130249023 157.8266906738281 110.2975006103516 150.7749176025391 115.0667953491211 C 143.7901611328125 119.7907409667969 137.2222747802734 125.2146759033203 131.2536315917969 131.1880340576172 C 125.2848587036133 137.1614990234375 119.8660354614258 143.7337341308594 115.1476821899414 150.7221527099609 C 110.3838653564453 157.7779693603516 106.2922744750977 165.320556640625 102.9865646362305 173.140380859375 C 99.61962890625 181.1050262451172 97.03374481201172 189.4395599365234 95.30080413818359 197.9125671386719 C 93.52274322509766 206.6058502197266 92.6212158203125 215.552978515625 92.6212158203125 224.5052642822266 C 92.6212158203125 233.4631500244141 93.52368927001953 242.4156188964844 95.30356597900391 251.1140289306641 C 97.038330078125 259.5919189453125 99.62680053710938 267.9309692382812 102.9971542358398 275.8996276855469 C 106.3062744140625 283.723388671875 110.4019775390625 291.2692565917969 115.1705093383789 298.3277282714844 C 119.8936233520508 305.3189086914062 125.317741394043 311.8929748535156 131.2922210693359 317.867431640625 C 137.2666931152344 323.8419189453125 143.8408660888672 329.2660217285156 150.8320465087891 333.9891052246094 C 157.8905639648438 338.7576293945312 165.4365692138672 342.8533325195312 173.2603912353516 346.1623840332031 C 181.2290954589844 349.5327453613281 189.5682678222656 352.1212158203125 198.0462188720703 353.8559875488281 C 206.7447509765625 355.6358642578125 215.6973266601562 356.538330078125 224.6553344726562 356.538330078125 C 236.5610046386719 356.538330078125 248.4398193359375 354.9169006347656 259.9795227050781 351.7178344726562 L 285.1720886230469 439.5735473632812 C 265.3068237304688 445.1753540039062 244.8759460449219 448.0147399902344 224.4265747070312 448.0147399902344 Z" stroke="none"/>
        <path d="M 224.4265747070312 447.0147094726562 C 244.4522552490234 447.0147094726562 264.4611206054688 444.2792358398438 283.933349609375 438.8815307617188 L 259.2904663085938 352.9427490234375 C 247.9643402099609 355.9927673339844 236.3223114013672 357.538330078125 224.6553344726562 357.538330078125 C 215.6301422119141 357.538330078125 206.6100769042969 356.6289978027344 197.8457641601562 354.835693359375 C 189.3031463623047 353.0877075195312 180.9003295898438 350.4794616699219 172.8708343505859 347.0833740234375 C 164.9875183105469 343.7491455078125 157.3842620849609 339.6223754882812 150.2722625732422 334.8176879882812 C 143.2283325195312 330.0590209960938 136.6045837402344 324.5940246582031 130.5850830078125 318.5745849609375 C 124.5655822753906 312.5550842285156 119.1005783081055 305.931396484375 114.3418884277344 298.8875122070312 C 109.5372009277344 291.7755737304688 105.4103927612305 284.1723937988281 102.0761413574219 276.2891235351562 C 98.68007659912109 268.2597045898438 96.07183074951172 259.8569946289062 94.32382965087891 251.314453125 C 92.530517578125 242.5502624511719 91.62120056152344 233.5303192138672 91.62120056152344 224.5052642822266 C 91.62120056152344 215.4858245849609 92.52957916259766 206.4713287353516 94.32108306884766 197.7121276855469 C 96.06720733642578 189.1745758056641 98.67282867431641 180.7763824462891 102.0654525756836 172.7510070800781 C 105.3962631225586 164.8717651367188 109.5189514160156 157.2718811035156 114.3188934326172 150.1625671386719 C 119.0728302001953 143.1214447021484 124.5325164794922 136.4996337890625 130.5462646484375 130.481201171875 C 136.5598297119141 124.4628829956055 143.1772613525391 118.9980087280273 150.2147064208984 114.2384490966797 C 157.3198852539062 109.4330062866211 164.9161376953125 105.3043212890625 172.7924499511719 101.9670104980469 C 180.8145141601562 98.56800842285156 189.2098846435547 95.9554443359375 197.7452697753906 94.20201110839844 C 205.8551940917969 92.53598785400391 214.1841583251953 91.62709808349609 222.5340728759766 91.49547576904297 L 222.5340728759766 2.009239673614502 C 212.9113311767578 2.097904205322266 203.1792449951172 2.825588703155518 193.5730133056641 4.175697326660156 C 183.3008270263672 5.619447231292725 173.0852661132812 7.787260055541992 163.2100219726562 10.6188850402832 C 148.6990203857422 14.78001022338867 134.6168365478516 20.4001350402832 121.3547058105469 27.32319831848145 C 108.4304580688477 34.06982421875 96.12745666503906 42.13469696044922 84.78739166259766 51.2938232421875 C 73.65276336669922 60.28701019287109 63.33320617675781 70.42544555664062 54.11532974243164 81.42744445800781 C 44.98458099365234 92.32550811767578 36.85489273071289 104.1655731201172 29.95207977294922 116.6186981201172 C 23.04920387268066 129.0718841552734 17.31639099121094 142.2405700683594 12.91295433044434 155.7590026855469 C 8.467453956604004 169.4065093994141 5.338141918182373 183.53076171875 3.612079381942749 197.7391967773438 C 1.854079365730286 212.2100067138672 1.5343918800354 226.9175720214844 2.661891937255859 241.4533843994141 C 3.818829298019409 256.3693237304688 6.515329360961914 271.2903137207031 10.67645454406738 285.8018188476562 C 17.52420425415039 309.6842041015625 28.15732955932617 332.014892578125 42.28045272827148 352.173583984375 C 55.93389129638672 371.6617736816406 72.58601379394531 388.7667541503906 91.77426910400391 403.0133972167969 C 101.197639465332 410.0099487304688 111.2556381225586 416.31201171875 121.6687698364258 421.7444458007812 C 132.093017578125 427.1827087402344 143.0246429443359 431.8285217285156 154.1600189208984 435.5528259277344 C 176.8998870849609 443.1583862304688 200.541015625 447.0147094726562 224.4265747070312 447.0147094726562 M 224.4265899658203 449.0147094726562 C 126.8301162719727 449.0147094726562 36.99502563476562 384.8471374511719 8.753891944885254 286.3530578613281 C -25.41873359680176 167.1786346435547 43.48870468139648 42.86907196044922 162.6587066650391 8.696384429931641 C 182.6813354492188 2.955009937286377 203.7068939208984 9.88769534160383e-06 224.5340728759766 9.88769534160383e-06 L 224.5340728759766 93.47882080078125 C 152.2230834960938 93.54388427734375 93.62120056152344 152.1810150146484 93.62120056152344 224.5052642822266 C 93.62120056152344 296.8746948242188 152.2847595214844 355.538330078125 224.6553344726562 355.538330078125 C 237.147705078125 355.538330078125 249.2190093994141 353.7516479492188 260.66650390625 350.4858093261719 L 286.4095764160156 440.2612609863281 C 265.7304382324219 446.1907958984375 244.9174499511719 449.0147094726562 224.4265899658203 449.0147094726562 Z" stroke="none" fill="#efefef"/>
      </g>
    </g>
    <text id="Intragovernmental_Debt_5.7_Trillion" data-name="Intragovernmental Debt
$5.7 Trillion" transform="translate(15228 8216)" fill="#efefef" font-size="14" font-family="MuseoSans-500, Museo Sans" font-weight="500"><tspan x="20.52" y="13">Intragovernmental Debt</tspan><tspan font-size="30" font-family="MuseoSans-900, Museo Sans" font-weight="900"><tspan x="11.71" y="45">$5.7 Trillion</tspan></tspan></text>
    <text id="Office_of_Personnel_Management_Retirement_934_billion" data-name="Office of Personnel Management Retirement – $934 billion" transform="translate(14950.178 8068)" fill="#efefef" font-size="14" font-family="MuseoSans-900, Museo Sans" font-weight="900"><tspan x="47.806" y="13">Office of Personnel </tspan><tspan x="9.656" y="30">Management Retirement </tspan><tspan x="83.982" y="47">– $934 billion</tspan></text>
    <text id="Military_Retirement_Fund_931_billion" data-name="Military Retirement Fund – $931 billion" transform="translate(14917.323 8311)" fill="#efefef" font-size="14" font-family="MuseoSans-900, Museo Sans" font-weight="900"><tspan x="5.055" y="13">Military Retirement Fund </tspan><tspan x="82.083" y="30">– $931 billion</tspan></text>
    <text id="Medicare_307_billion" data-name="Medicare – $307 billion" transform="translate(15042 8445)" fill="#efefef" font-size="14" font-family="MuseoSans-900, Museo Sans" font-weight="900"><tspan x="4.448" y="13">Medicare – $307 billion</tspan></text>
    <text id="All_other_retirement_funds_266_billion" data-name="All other retirement funds – $266 billion" transform="translate(15287.178 8482)" fill="#efefef" font-size="14" font-family="MuseoSans-900, Museo Sans" font-weight="900"><tspan x="0" y="13">All other retirement funds – $266 billion</tspan></text>
    <text id="The_Social_Security_Trust_Fund_and_Federal_Disability_Insurance_Trust_Fund_2.887_trillion" data-name="The Social Security Trust Fund and Federal Disability Insurance Trust Fund – $2.887 trillion" transform="translate(15493.178 8008)" fill="#efefef" font-size="14" font-family="MuseoSans-900, Museo Sans" font-weight="900"><tspan x="0" y="13">The Social Security Trust </tspan><tspan x="0" y="30">Fund and Federal </tspan><tspan x="0" y="47">Disability Insurance Trust </tspan><tspan x="0" y="64">Fund – $2.887 trillion</tspan></text>
  </g>
</svg>
