<svg xmlns="http://www.w3.org/2000/svg" width="743.252" height="485.564" viewBox="0 0 743.252 485.564">
  <g id="Group_799" data-name="Group 799" transform="translate(-850.246 -8153.822)">
    <g id="Group_725" data-name="Group 725" transform="translate(-1251.405 16221.602)">
      <g id="Path_1934" data-name="Path 1934" transform="translate(2468.642 -7860.692) rotate(180)" fill="#83b4de" stroke-miterlimit="10">
        <path d="M 26.42805862426758 189.520263671875 L 1.2361980676651 101.6669006347656 C 24.17046546936035 94.93194580078125 44.87107086181641 82.04496002197266 61.15133666992188 64.35496520996094 C 77.52021789550781 46.56870269775391 88.65660095214844 24.74119567871094 93.39736175537109 1.171925187110901 L 183.0475616455078 18.59762001037598 C 178.9468231201172 39.24866104125977 172.3103179931641 58.89458465576172 163.3152923583984 77.0079345703125 C 154.291259765625 95.17963409423828 142.8647308349609 111.869987487793 129.3531036376953 126.615364074707 C 115.8416366577148 141.3605194091797 100.2107849121094 154.1982116699219 82.89473724365234 164.7718048095703 C 65.63471984863281 175.3112030029297 46.64252090454102 183.6348876953125 26.42805862426758 189.520263671875 Z" stroke="none"/>
        <path d="M 94.17813110351562 2.3424072265625 C 89.29299926757812 25.71858215332031 78.15449523925781 47.356201171875 61.88716125488281 65.03211975097656 C 45.70925903320312 82.61090850830078 25.1998291015625 95.48225402832031 2.470321655273438 102.3428268432617 L 27.11201477050781 188.2774658203125 C 46.88117980957031 182.4341735839844 65.46388244628906 174.2438354492188 82.37360382080078 163.9183349609375 C 99.60957336425781 153.3935852050781 115.1677169799805 140.6157684326172 128.6158142089844 125.9397354125977 C 142.0640716552734 111.2635345458984 153.4373321533203 94.65085601806641 162.4196319580078 76.56314849853516 C 171.2320861816406 58.81742858886719 177.7714996337891 39.59104919433594 181.8690948486328 19.38728332519531 L 94.17813110351562 2.3424072265625 M 92.60919189453125 0 L 184.2219543457031 17.80717468261719 C 167.6382446289062 103.1186828613281 109.2810745239258 166.8016815185547 25.74301147460938 190.7591247558594 L -1.52587890625e-05 100.9837417602539 C 47.01551818847656 87.56661987304688 83.22283935546875 48.57952880859375 92.60919189453125 0 Z" stroke="none" fill="#efefef"/>
      </g>
      <g id="Path_1935" data-name="Path 1935" transform="translate(2424.091 -7658.775) rotate(180)" fill="#ee6060" stroke-miterlimit="10">
        <path d="M 138.8781585693359 218.5499572753906 L 49.22579193115234 201.1238403320312 C 50.71210861206055 193.1069030761719 51.46539688110352 184.9686737060547 51.46539688110352 176.9188079833984 C 51.46539688110352 166.5418701171875 50.25600814819336 156.2098999023438 47.87081146240234 146.2098693847656 C 45.5528678894043 136.4917907714844 42.11131286621094 127.0259246826172 37.64178466796875 118.0752029418945 C 33.25342559814453 109.2870635986328 27.8603687286377 100.9657821655273 21.61236953735352 93.34253692626953 C 15.61354160308838 86.02329254150391 8.818005561828613 79.33621978759766 1.401466131210327 73.45317840576172 L 57.69061660766602 1.405307769775391 C 74.17572021484375 14.39374542236328 88.63761901855469 29.21581840515137 100.6865386962891 45.47359085083008 C 112.7683944702148 61.77584075927734 122.4516448974609 79.55590057373047 129.46728515625 98.31983947753906 C 136.4829559326172 117.0838394165039 140.8397369384766 136.8552093505859 142.4166412353516 157.0846710205078 C 143.9892730712891 177.2590789794922 142.7987213134766 197.932861328125 138.8781585693359 218.5499572753906 Z" stroke="none"/>
        <path d="M 57.85913848876953 2.813812255859375 L 2.79827880859375 73.28950500488281 C 9.968795776367188 79.06498718261719 16.55184936523438 85.59062194824219 22.38578796386719 92.70866394042969 C 28.68095397949219 100.3894653320312 34.11482238769531 108.7736968994141 38.53641510009766 117.6284637451172 C 43.04005432128906 126.6474304199219 46.50785064697266 136.1855621337891 48.84352111816406 145.9778289794922 C 51.24681854248047 156.0537719726562 52.46538543701172 166.4638366699219 52.46538543701172 176.9187927246094 C 52.46538543701172 184.7035369873047 51.76634979248047 192.5695190429688 50.38618469238281 200.3306884765625 L 138.081298828125 217.3763580322266 C 141.8367004394531 197.1744384765625 142.9602508544922 176.9258422851562 141.4196472167969 157.1623992919922 C 139.8500213623047 137.026123046875 135.5135192871094 117.3464660644531 128.5306243896484 98.67002868652344 C 121.5477142333984 79.99366760253906 111.9092864990234 62.29612731933594 99.88308715820312 46.06900024414062 C 88.07961273193359 30.14239501953125 73.94721221923828 15.59727478027344 57.85913848876953 2.813812255859375 M 57.51948547363281 0 C 125.807487487793 53.35426330566406 156.2062225341797 134.6571044921875 139.6709899902344 219.7227935791016 L 48.05818176269531 201.9156341552734 C 49.62111663818359 193.8222045898438 50.46538543701172 185.4729919433594 50.46538543701172 176.9187927246094 C 50.46538543701172 134.9414672851562 30.70511627197266 97.60326385498047 -1.52587890625e-05 73.62266540527344 L 57.51948547363281 0 Z" stroke="none" fill="#efefef"/>
      </g>
      <g id="Path_1936" data-name="Path 1936" transform="translate(2466.455 -7620.999) rotate(180)" fill="#1762a0" stroke-miterlimit="10">
        <path d="M 42.18946838378906 109.9989318847656 C 36.09130477905273 105.3093566894531 29.56847953796387 101.1391296386719 22.78607177734375 97.59450531005859 C 15.89336395263672 93.99224090576172 8.652077674865723 90.99460601806641 1.247868418693542 88.67759704589844 L 27.97592353820801 1.250530362129211 C 41.30057525634766 5.380610466003418 53.40091323852539 10.31432247161865 64.93601226806641 16.31881332397461 C 76.47193145751953 22.32372665405273 87.45388793945312 29.40546989440918 98.47885894775391 37.95073699951172 L 42.18946838378906 109.9989318847656 Z" stroke="none"/>
        <path d="M 42.0101203918457 108.6041870117188 L 97.07159423828125 38.12768936157227 C 86.36085510253906 29.89300918579102 75.67964935302734 23.03868675231934 64.47427368164062 17.2058277130127 C 53.26970291137695 11.37337017059326 41.52809524536133 6.555580139160156 28.6381778717041 2.504788398742676 L 2.493520021438599 88.02354431152344 C 9.624899864196777 90.31492614746094 16.59797859191895 93.23216247558594 23.24923706054688 96.70824432373047 C 29.79097747802734 100.127082824707 36.09381484985352 104.124153137207 42.0101203918457 108.6041870117188 M 42.36421585083008 111.3995513916016 C 29.85643577575684 101.6296310424805 15.54985618591309 94.07292938232422 -3.615722562244628e-06 89.33895111083984 L 27.31255722045898 8.06640582595719e-06 C 54.58101654052734 8.337048530578613 77.41421508789062 20.22208786010742 99.88371276855469 37.7768669128418 L 42.36421585083008 111.3995513916016 Z" stroke="none" fill="#efefef"/>
      </g>
      <g id="Path_1937" data-name="Path 1937" transform="translate(2504.774 -7611.189) rotate(180)" fill="#a7050e" stroke-miterlimit="10">
        <path d="M 37.65370941162109 97.90475463867188 C 25.76355743408203 94.38469696044922 13.44194984436035 92.5604248046875 1.000005483627319 92.47842407226562 L 1.000005483627319 1.001485228538513 C 13.13285064697266 1.037583947181702 23.34811973571777 1.735178589820862 33.07225799560547 3.188603639602661 C 42.79633331298828 4.642002582550049 52.76925277709961 6.961834907531738 64.38260650634766 10.47493267059326 L 37.65370941162109 97.90475463867188 Z" stroke="none"/>
        <path d="M 36.9860954284668 96.66806030273438 L 63.13262176513672 11.14316177368164 C 51.97595977783203 7.805783271789551 42.33035278320312 5.583469390869141 32.92444610595703 4.177610874176025 C 23.51847076416016 2.771752119064331 13.64475631713867 2.076629638671875 2.000009059906006 2.006014108657837 L 2.000009059906006 91.48866271972656 C 13.86737155914307 91.65472412109375 25.61720275878906 93.39422607421875 36.9860954284668 96.66806030273438 M 38.31913757324219 99.14857482910156 C 26.23239135742188 95.47050476074219 13.40939140319824 93.47551727294922 0.121245488524437 93.47551727294922 L 9.125865290116053e-06 93.47884368896484 L 9.125865290116053e-06 1.087258078769082e-05 C 24.67168235778809 1.087258078769082e-05 42.03797149658203 2.595683574676514 65.63169860839844 9.809592247009277 L 38.31913757324219 99.14857482910156 Z" stroke="none" fill="#efefef"/>
      </g>
      <g id="Path_1938" data-name="Path 1938" transform="translate(2729.309 -7611.189) rotate(180)" fill="#10416b" stroke-miterlimit="10">
        <path d="M 224.4265747070312 448.0147399902344 C 200.4329223632812 448.0147399902344 176.6851501464844 444.1410217285156 153.8428039550781 436.501220703125 C 142.6576232910156 432.7602233886719 131.6770935058594 428.0936279296875 121.2062149047852 422.631103515625 C 110.7465667724609 417.17431640625 100.6436233520508 410.8441467285156 91.1781005859375 403.8162536621094 C 71.90362548828125 389.505615234375 55.17656707763672 372.3235473632812 41.46150970458984 352.7473754882812 C 27.27456855773926 332.4976806640625 16.59356880187988 310.0666809082031 9.715215682983398 286.0774536132812 C 5.535568237304688 271.5013732910156 2.827039003372192 256.513671875 1.664921283721924 241.5306854248047 C 0.5323330163955688 226.9290924072266 0.8534506559371948 212.1549072265625 2.619391918182373 197.6186218261719 C 4.353274345397949 183.3460388183594 7.496627330780029 169.158203125 11.96215629577637 155.4492645263672 C 16.38527488708496 141.8703308105469 22.14374542236328 128.6426849365234 29.07744979858398 116.1338577270508 C 36.01115798950195 103.6250305175781 44.17721557617188 91.73209381103516 53.34880447387695 80.78527069091797 C 62.60815811157227 69.73368072509766 72.97421264648438 59.54962158203125 84.15904235839844 50.51585388183594 C 95.55045318603516 41.31526565551758 107.9092178344727 33.2138557434082 120.8919830322266 26.43667984008789 C 134.2136840820312 19.4825611114502 148.3588104248047 13.83726692199707 162.9343872070312 9.657620429992676 C 172.8542175292969 6.81320858001709 183.1157379150391 4.6356201171875 193.4338684082031 3.185443639755249 C 203.4187164306641 1.78214693069458 213.5399017333984 1.048261642456055 223.5341033935547 1.002333521842957 L 223.5341033935547 92.48349761962891 C 214.9172668457031 92.55583190917969 206.3137664794922 93.46267700195312 197.9465637207031 95.18156433105469 C 189.4757385253906 96.92173767089844 181.1439819335938 99.51450347900391 173.1826324462891 102.8877944946289 C 165.3657379150391 106.1999130249023 157.8266906738281 110.2975006103516 150.7749176025391 115.0667953491211 C 143.7901611328125 119.7907409667969 137.2222747802734 125.2146759033203 131.2536315917969 131.1880340576172 C 125.2848587036133 137.1614990234375 119.8660354614258 143.7337341308594 115.1476821899414 150.7221527099609 C 110.3838653564453 157.7779693603516 106.2922744750977 165.320556640625 102.9865646362305 173.140380859375 C 99.61962890625 181.1050262451172 97.03374481201172 189.4395599365234 95.30080413818359 197.9125671386719 C 93.52274322509766 206.6058502197266 92.6212158203125 215.552978515625 92.6212158203125 224.5052642822266 C 92.6212158203125 233.4631500244141 93.52368927001953 242.4156188964844 95.30356597900391 251.1140289306641 C 97.038330078125 259.5919189453125 99.62680053710938 267.9309692382812 102.9971542358398 275.8996276855469 C 106.3062744140625 283.723388671875 110.4019775390625 291.2692565917969 115.1705093383789 298.3277282714844 C 119.8936233520508 305.3189086914062 125.317741394043 311.8929748535156 131.2922210693359 317.867431640625 C 137.2666931152344 323.8419189453125 143.8408660888672 329.2660217285156 150.8320465087891 333.9891052246094 C 157.8905639648438 338.7576293945312 165.4365692138672 342.8533325195312 173.2603912353516 346.1623840332031 C 181.2290954589844 349.5327453613281 189.5682678222656 352.1212158203125 198.0462188720703 353.8559875488281 C 206.7447509765625 355.6358642578125 215.6973266601562 356.538330078125 224.6553344726562 356.538330078125 C 236.5610046386719 356.538330078125 248.4398193359375 354.9169006347656 259.9795227050781 351.7178344726562 L 285.1720886230469 439.5735473632812 C 265.3068237304688 445.1753540039062 244.8759460449219 448.0147399902344 224.4265747070312 448.0147399902344 Z" stroke="none"/>
        <path d="M 224.4265747070312 447.0147094726562 C 244.4522552490234 447.0147094726562 264.4611206054688 444.2792358398438 283.933349609375 438.8815307617188 L 259.2904663085938 352.9427490234375 C 247.9643402099609 355.9927673339844 236.3223114013672 357.538330078125 224.6553344726562 357.538330078125 C 215.6301422119141 357.538330078125 206.6100769042969 356.6289978027344 197.8457641601562 354.835693359375 C 189.3031463623047 353.0877075195312 180.9003295898438 350.4794616699219 172.8708343505859 347.0833740234375 C 164.9875183105469 343.7491455078125 157.3842620849609 339.6223754882812 150.2722625732422 334.8176879882812 C 143.2283325195312 330.0590209960938 136.6045837402344 324.5940246582031 130.5850830078125 318.5745849609375 C 124.5655822753906 312.5550842285156 119.1005783081055 305.931396484375 114.3418884277344 298.8875122070312 C 109.5372009277344 291.7755737304688 105.4103927612305 284.1723937988281 102.0761413574219 276.2891235351562 C 98.68007659912109 268.2597045898438 96.07183074951172 259.8569946289062 94.32382965087891 251.314453125 C 92.530517578125 242.5502624511719 91.62120056152344 233.5303192138672 91.62120056152344 224.5052642822266 C 91.62120056152344 215.4858245849609 92.52957916259766 206.4713287353516 94.32108306884766 197.7121276855469 C 96.06720733642578 189.1745758056641 98.67282867431641 180.7763824462891 102.0654525756836 172.7510070800781 C 105.3962631225586 164.8717651367188 109.5189514160156 157.2718811035156 114.3188934326172 150.1625671386719 C 119.0728302001953 143.1214447021484 124.5325164794922 136.4996337890625 130.5462646484375 130.481201171875 C 136.5598297119141 124.4628829956055 143.1772613525391 118.9980087280273 150.2147064208984 114.2384490966797 C 157.3198852539062 109.4330062866211 164.9161376953125 105.3043212890625 172.7924499511719 101.9670104980469 C 180.8145141601562 98.56800842285156 189.2098846435547 95.9554443359375 197.7452697753906 94.20201110839844 C 205.8551940917969 92.53598785400391 214.1841583251953 91.62709808349609 222.5340728759766 91.49547576904297 L 222.5340728759766 2.009239673614502 C 212.9113311767578 2.097904205322266 203.1792449951172 2.825588703155518 193.5730133056641 4.175697326660156 C 183.3008270263672 5.619447231292725 173.0852661132812 7.787260055541992 163.2100219726562 10.6188850402832 C 148.6990203857422 14.78001022338867 134.6168365478516 20.4001350402832 121.3547058105469 27.32319831848145 C 108.4304580688477 34.06982421875 96.12745666503906 42.13469696044922 84.78739166259766 51.2938232421875 C 73.65276336669922 60.28701019287109 63.33320617675781 70.42544555664062 54.11532974243164 81.42744445800781 C 44.98458099365234 92.32550811767578 36.85489273071289 104.1655731201172 29.95207977294922 116.6186981201172 C 23.04920387268066 129.0718841552734 17.31639099121094 142.2405700683594 12.91295433044434 155.7590026855469 C 8.467453956604004 169.4065093994141 5.338141918182373 183.53076171875 3.612079381942749 197.7391967773438 C 1.854079365730286 212.2100067138672 1.5343918800354 226.9175720214844 2.661891937255859 241.4533843994141 C 3.818829298019409 256.3693237304688 6.515329360961914 271.2903137207031 10.67645454406738 285.8018188476562 C 17.52420425415039 309.6842041015625 28.15732955932617 332.014892578125 42.28045272827148 352.173583984375 C 55.93389129638672 371.6617736816406 72.58601379394531 388.7667541503906 91.77426910400391 403.0133972167969 C 101.197639465332 410.0099487304688 111.2556381225586 416.31201171875 121.6687698364258 421.7444458007812 C 132.093017578125 427.1827087402344 143.0246429443359 431.8285217285156 154.1600189208984 435.5528259277344 C 176.8998870849609 443.1583862304688 200.541015625 447.0147094726562 224.4265747070312 447.0147094726562 M 224.4265899658203 449.0147094726562 C 126.8301162719727 449.0147094726562 36.99502563476562 384.8471374511719 8.753891944885254 286.3530578613281 C -25.41873359680176 167.1786346435547 43.48870468139648 42.86907196044922 162.6587066650391 8.696384429931641 C 182.6813354492188 2.955009937286377 203.7068939208984 9.88769534160383e-06 224.5340728759766 9.88769534160383e-06 L 224.5340728759766 93.47882080078125 C 152.2230834960938 93.54388427734375 93.62120056152344 152.1810150146484 93.62120056152344 224.5052642822266 C 93.62120056152344 296.8746948242188 152.2847595214844 355.538330078125 224.6553344726562 355.538330078125 C 237.147705078125 355.538330078125 249.2190093994141 353.7516479492188 260.66650390625 350.4858093261719 L 286.4095764160156 440.2612609863281 C 265.7304382324219 446.1907958984375 244.9174499511719 449.0147094726562 224.4265899658203 449.0147094726562 Z" stroke="none" fill="#efefef"/>
      </g>
    </g>
    <path id="Path_3266" data-name="Path 3266" d="M21.864,13H23.25V3.116H21.864Zm3.794,0h1.358V9.682a3.354,3.354,0,0,1,.112-.952,2.32,2.32,0,0,1,2.24-1.736c1.134,0,1.344.784,1.344,1.778V13H32.07V8.464c0-1.806-.77-2.716-2.436-2.716a2.884,2.884,0,0,0-2.66,1.624h-.028a4.97,4.97,0,0,0,.028-.518V5.916H25.658Zm8.736-2.59a2.443,2.443,0,0,0,2.716,2.646,3.723,3.723,0,0,0,.476-.028v-1.2a1.635,1.635,0,0,1-.322.028,1.408,1.408,0,0,1-1.512-1.6V7.106H37.46V6.014H35.752V3.97H34.436V6.014H33.47V7.106h.924ZM39.112,13H40.47V10.1a4.3,4.3,0,0,1,.168-1.274,2.149,2.149,0,0,1,1.988-1.666,1.956,1.956,0,0,1,.392.042V5.86a2.275,2.275,0,0,0-2.59,1.82H40.4a5.08,5.08,0,0,0,.028-.532V5.916H39.112Zm4.676-1.988A2.216,2.216,0,0,0,46.2,13.168a2.451,2.451,0,0,0,2.268-1.4h.028a5.316,5.316,0,0,0-.028.56V13h1.26V8.52a2.517,2.517,0,0,0-2.8-2.772,4.444,4.444,0,0,0-2.646.84l.56.994A3.593,3.593,0,0,1,46.812,6.9,1.376,1.376,0,0,1,48.366,8.45v.126h-.308C46.868,8.576,43.788,8.674,43.788,11.012Zm1.372-.07c0-1.274,1.848-1.344,2.87-1.344h.35v.224a2.147,2.147,0,0,1-1.89,2.254A1.187,1.187,0,0,1,45.16,10.942Zm7.224,3.346-.448,1.064a5.521,5.521,0,0,0,2.422.588c1.792,0,3.57-.9,3.57-3.234V5.916h-1.3v.658a1.761,1.761,0,0,0,.014.224h-.028a2.366,2.366,0,0,0-2.226-1.05c-1.96,0-3.094,1.512-3.094,3.542s1.19,3.626,3.164,3.626a2.248,2.248,0,0,0,2.1-1.106h.028s-.014.224-.014.448v.518c0,1.442-1.008,1.988-2.24,1.988A4.564,4.564,0,0,1,52.384,14.288Zm2.338-2.548c-1.274,0-2.058-1.008-2.058-2.478,0-1.442.7-2.338,1.932-2.338,1.106,0,2,.532,2,2.38S55.7,11.74,54.722,11.74Zm4.816-2.3a3.824,3.824,0,1,0,3.822-3.7A3.71,3.71,0,0,0,59.538,9.444Zm1.386,0a2.437,2.437,0,1,1,4.872,0,2.438,2.438,0,1,1-4.872,0ZM70.472,13H72.04l2.618-7.084H73.23L71.508,10.7c-.14.392-.238.966-.252.966h-.028c-.014,0-.1-.574-.238-.966L69.268,5.916H67.826ZM75.33,9.458a3.607,3.607,0,0,0,3.752,3.71,4.217,4.217,0,0,0,2.744-1.008l-.56-.994a3.377,3.377,0,0,1-2.1.826A2.315,2.315,0,0,1,76.73,9.654H81.9s.042-.406.042-.588a3.015,3.015,0,0,0-3.066-3.318A3.472,3.472,0,0,0,75.33,9.458Zm1.442-.826a2.03,2.03,0,0,1,2.072-1.806,1.671,1.671,0,0,1,1.708,1.806ZM83.59,13h1.358V10.1a4.3,4.3,0,0,1,.168-1.274A2.149,2.149,0,0,1,87.1,7.162,1.956,1.956,0,0,1,87.5,7.2V5.86a2.275,2.275,0,0,0-2.59,1.82h-.028a5.08,5.08,0,0,0,.028-.532V5.916H83.59Zm5.25,0H90.2V9.682a3.354,3.354,0,0,1,.112-.952,2.32,2.32,0,0,1,2.24-1.736c1.134,0,1.344.784,1.344,1.778V13h1.358V8.464c0-1.806-.77-2.716-2.436-2.716a2.884,2.884,0,0,0-2.66,1.624h-.028a4.97,4.97,0,0,0,.028-.518V5.916H88.84Zm8.442,0H98.64V9.766a3.914,3.914,0,0,1,.084-.924,2.237,2.237,0,0,1,2.03-1.862c1.092,0,1.232.854,1.232,1.778V13h1.358V9.766a4.225,4.225,0,0,1,.1-.98A2.207,2.207,0,0,1,105.43,6.98c1.064,0,1.26.784,1.26,1.778V13h1.358V8.464c0-1.806-.742-2.716-2.338-2.716a2.852,2.852,0,0,0-2.52,1.61h-.028a1.934,1.934,0,0,0-2.128-1.61A2.768,2.768,0,0,0,98.6,7.372H98.57a4.97,4.97,0,0,0,.028-.518V5.916H97.282Zm12.306-3.542a3.607,3.607,0,0,0,3.752,3.71,4.217,4.217,0,0,0,2.744-1.008l-.56-.994a3.377,3.377,0,0,1-2.1.826,2.315,2.315,0,0,1-2.436-2.338h5.166s.042-.406.042-.588a3.015,3.015,0,0,0-3.066-3.318A3.472,3.472,0,0,0,109.588,9.458Zm1.442-.826A2.03,2.03,0,0,1,113.1,6.826a1.671,1.671,0,0,1,1.708,1.806ZM117.848,13h1.358V9.682a3.354,3.354,0,0,1,.112-.952,2.32,2.32,0,0,1,2.24-1.736c1.134,0,1.344.784,1.344,1.778V13h1.358V8.464c0-1.806-.77-2.716-2.436-2.716a2.884,2.884,0,0,0-2.66,1.624h-.028a4.97,4.97,0,0,0,.028-.518V5.916h-1.316Zm8.736-2.59a2.443,2.443,0,0,0,2.716,2.646,3.723,3.723,0,0,0,.476-.028v-1.2a1.635,1.635,0,0,1-.322.028,1.408,1.408,0,0,1-1.512-1.6V7.106h1.708V6.014h-1.708V3.97h-1.316V6.014h-.966V7.106h.924Zm4.144.6a2.216,2.216,0,0,0,2.408,2.156,2.451,2.451,0,0,0,2.268-1.4h.028a5.316,5.316,0,0,0-.028.56V13h1.26V8.52a2.517,2.517,0,0,0-2.8-2.772,4.444,4.444,0,0,0-2.646.84l.56.994a3.593,3.593,0,0,1,1.974-.686,1.376,1.376,0,0,1,1.554,1.554v.126H135C133.808,8.576,130.728,8.674,130.728,11.012Zm1.372-.07c0-1.274,1.848-1.344,2.87-1.344h.35v.224a2.147,2.147,0,0,1-1.89,2.254A1.187,1.187,0,0,1,132.1,10.942Zm6.51.126c0,1.778,1.134,1.988,1.9,1.988a3.815,3.815,0,0,0,.448-.028v-1.2a2.162,2.162,0,0,1-.238.014c-.42,0-.756-.154-.756-1.008V3.116H138.61ZM146.282,13h3.276c3.024,0,5.012-1.82,5.012-4.956s-1.988-4.928-5.012-4.928h-3.276Zm1.386-1.2V4.32h1.792a3.4,3.4,0,0,1,3.682,3.724A3.412,3.412,0,0,1,149.46,11.8Zm8.2-2.338a3.607,3.607,0,0,0,3.752,3.71,4.217,4.217,0,0,0,2.744-1.008l-.56-.994a3.377,3.377,0,0,1-2.1.826,2.315,2.315,0,0,1-2.436-2.338h5.166s.042-.406.042-.588a3.015,3.015,0,0,0-3.066-3.318A3.472,3.472,0,0,0,155.872,9.458Zm1.442-.826a2.03,2.03,0,0,1,2.072-1.806,1.671,1.671,0,0,1,1.708,1.806ZM164.132,13h1.288v-.518a4.753,4.753,0,0,0-.028-.532h.028a2.547,2.547,0,0,0,2.226,1.218c1.862,0,3.22-1.456,3.22-3.71,0-2.2-1.2-3.71-3.108-3.71a2.5,2.5,0,0,0-2.268,1.2h-.028s.028-.252.028-.6V3.116h-1.358Zm1.316-3.514c0-1.806.98-2.548,2.044-2.548,1.176,0,2,.994,2,2.534,0,1.61-.924,2.534-2.044,2.534C166.106,12.006,165.448,10.746,165.448,9.486Zm7.378.924a2.443,2.443,0,0,0,2.716,2.646,3.723,3.723,0,0,0,.476-.028v-1.2a1.635,1.635,0,0,1-.322.028,1.408,1.408,0,0,1-1.512-1.6V7.106h1.708V6.014h-1.708V3.97h-1.316V6.014H171.9V7.106h.924ZM12.88,42.3A10.841,10.841,0,0,0,19,45.24v2.73h3.27V45.24c3.84-.6,6-3.36,6-6.54,0-6.63-9.75-6.45-9.75-9,0-1.2,1.2-1.68,2.28-1.68a8.185,8.185,0,0,1,4.74,1.89l2.22-4.29a9.381,9.381,0,0,0-5.49-2.34V20.55H19v2.82c-3.33.63-5.73,3.03-5.73,6.39,0,6.45,9.75,6.66,9.75,9.06,0,1.29-1.17,1.71-2.25,1.71-2.7,0-5.13-2.22-5.13-2.22Zm17.73.24a10.338,10.338,0,0,0,7.32,2.82c4.68,0,7.95-3.21,7.95-7.65,0-3.87-2.58-7.05-7.68-7.05a6.552,6.552,0,0,0-1.56.21h-.06a3.509,3.509,0,0,0,.12-.84l.12-1.98h7.44v-4.5h-12l-.87,11.22,2.79,1.05a6.244,6.244,0,0,1,2.88-.72c1.95,0,3.42.99,3.42,2.67a2.778,2.778,0,0,1-3,2.64,7.074,7.074,0,0,1-4.35-1.92ZM48.73,45h4.92V40.08H48.73Zm8.43,0h5.46l9-17.79V23.55H56.23v4.5h8.46a6,6,0,0,0,1.38-.09v.06a5.993,5.993,0,0,0-1.38,1.95Zm28.56,0h5.25V28.05h6.51v-4.5H79.21v4.5h6.51Zm12.99,0h5.19V39.15a7,7,0,0,1,.27-2.1,3.9,3.9,0,0,1,3.99-2.7,5.522,5.522,0,0,1,1.05.09v-5.1a3.508,3.508,0,0,0-.6-.06,5.362,5.362,0,0,0-4.92,3.84h-.06a8.176,8.176,0,0,0,.06-.96V29.55H98.71Zm12.96-17.4h5.07V23.55h-5.07ZM111.61,45h5.19V29.55h-5.19Zm8.82-5.7c0,5.19,2.94,5.85,5.7,5.85a14.11,14.11,0,0,0,1.56-.09v-4.5s-.3.03-.63.03c-1.17,0-1.44-.51-1.44-1.98V23.55h-5.19Zm9.69,0c0,5.19,2.94,5.85,5.7,5.85a14.11,14.11,0,0,0,1.56-.09v-4.5s-.3.03-.63.03c-1.17,0-1.44-.51-1.44-1.98V23.55h-5.19Zm9.96-11.7h5.07V23.55h-5.07ZM140.02,45h5.19V29.55h-5.19Zm7.89-7.68c0,4.83,3.9,8.04,8.76,8.04s8.76-3.21,8.76-8.04c0-4.86-3.9-8.13-8.79-8.13C151.81,29.19,147.91,32.46,147.91,37.32Zm5.25,0a3.522,3.522,0,1,1,7.02,0,3.516,3.516,0,1,1-7.02,0ZM168.13,45h5.19V38.16a6.2,6.2,0,0,1,.3-2.04,3.04,3.04,0,0,1,3.06-2.22c1.14,0,1.71.6,1.71,2.04V45h5.19V34.98c0-4.35-2.43-5.79-5.55-5.79a5.451,5.451,0,0,0-4.92,2.67h-.06a8.176,8.176,0,0,0,.06-.96V29.55h-4.98Z" transform="translate(1155 8359)" fill="#efefef"/>
    <path id="Path_3263" data-name="Path 3263" d="M48.3,7.932a5.236,5.236,0,1,0,10.472,0,5.238,5.238,0,0,0-10.472,0Zm2.534,0a2.707,2.707,0,1,1,5.4,0,2.716,2.716,0,1,1-5.4,0ZM65.978,13H68.4V7.68h2.506V13h2.422V5.79H68.4v-.1c0-.616.742-.7,1.218-.7a2.644,2.644,0,0,1,.392.028V2.976a5.69,5.69,0,0,0-.728-.042c-1.162,0-3.3.322-3.3,2.688V5.79H63.024v-.1c0-.616.742-.7,1.218-.7a2.644,2.644,0,0,1,.392.028V2.976a5.69,5.69,0,0,0-.728-.042c-1.162,0-3.3.322-3.3,2.688V5.79H59.72V7.68H60.6V13h2.422V7.68h2.954Zm4.956-8.12H73.3V2.99H70.934Zm3.654,4.508a3.749,3.749,0,0,0,4.018,3.78,4.338,4.338,0,0,0,3.094-1.19l-.882-1.694a3.52,3.52,0,0,1-1.974.868A1.742,1.742,0,0,1,77.038,9.36,1.658,1.658,0,0,1,78.76,7.638a2.627,2.627,0,0,1,1.694.7l1.022-1.624a3.8,3.8,0,0,0-2.87-1.092A3.762,3.762,0,0,0,74.588,9.388Zm7.728,0a3.739,3.739,0,0,0,3.962,3.78,4.869,4.869,0,0,0,3.08-1.05l-.9-1.694a3.78,3.78,0,0,1-1.988.728,1.61,1.61,0,0,1-1.68-1.288h4.55s.056-.518.056-.756a3.2,3.2,0,0,0-3.332-3.486A3.589,3.589,0,0,0,82.316,9.388Zm2.534-.91a1.182,1.182,0,0,1,1.162-1.036.982.982,0,0,1,.952,1.036Zm8.54.938a4.1,4.1,0,1,0,4.074-3.794A3.811,3.811,0,0,0,93.39,9.416Zm2.45,0a1.644,1.644,0,1,1,3.276,0,1.641,1.641,0,1,1-3.276,0ZM103.274,13H105.7V7.806h1.33V5.916H105.7V5.692c0-.616.742-.7,1.218-.7a2.644,2.644,0,0,1,.392.028V2.976a5.69,5.69,0,0,0-.728-.042c-1.162,0-3.3.322-3.3,2.688v.294h-.882v1.89h.882Zm8.414,0h2.45V9.906h1.708a3.227,3.227,0,0,0,3.262-3.472,3.2,3.2,0,0,0-3.262-3.444h-4.158Zm2.45-5.194V5.09h1.246a1.187,1.187,0,0,1,1.232,1.344,1.219,1.219,0,0,1-1.274,1.372Zm5.628,1.582a3.739,3.739,0,0,0,3.962,3.78,4.869,4.869,0,0,0,3.08-1.05l-.9-1.694a3.78,3.78,0,0,1-1.988.728,1.61,1.61,0,0,1-1.68-1.288h4.55s.056-.518.056-.756a3.2,3.2,0,0,0-3.332-3.486A3.589,3.589,0,0,0,119.766,9.388Zm2.534-.91a1.182,1.182,0,0,1,1.162-1.036.982.982,0,0,1,.952,1.036ZM128.166,13h2.422V10.27a3.269,3.269,0,0,1,.126-.98,1.82,1.82,0,0,1,1.862-1.26,2.577,2.577,0,0,1,.49.042V5.692a1.637,1.637,0,0,0-.28-.028,2.5,2.5,0,0,0-2.3,1.792h-.028a3.815,3.815,0,0,0,.028-.448V5.79h-2.324Zm5.46-.9a4.342,4.342,0,0,0,2.884,1.064c1.862,0,2.954-1.05,2.954-2.282,0-2.324-3.374-2.408-3.374-2.954,0-.252.35-.35.714-.35a2.88,2.88,0,0,1,1.708.588l.826-1.722a3.774,3.774,0,0,0-2.534-.826c-1.666,0-2.968.84-2.968,2.2,0,2.352,3.374,2.422,3.374,3.052,0,.238-.35.336-.714.336a3.034,3.034,0,0,1-1.834-.728Zm6.622-2.688a4.1,4.1,0,1,0,4.074-3.794A3.811,3.811,0,0,0,140.248,9.416Zm2.45,0a1.644,1.644,0,1,1,3.276,0,1.641,1.641,0,1,1-3.276,0ZM149.684,13h2.422V9.808a2.9,2.9,0,0,1,.14-.952,1.419,1.419,0,0,1,1.428-1.036c.532,0,.8.28.8.952V13h2.422V8.324c0-2.03-1.134-2.7-2.59-2.7a2.544,2.544,0,0,0-2.3,1.246h-.028a3.815,3.815,0,0,0,.028-.448V5.79h-2.324Zm8.9,0h2.422V9.808a2.9,2.9,0,0,1,.14-.952,1.419,1.419,0,0,1,1.428-1.036c.532,0,.8.28.8.952V13H165.8V8.324c0-2.03-1.134-2.7-2.59-2.7a2.544,2.544,0,0,0-2.3,1.246h-.028a3.815,3.815,0,0,0,.028-.448V5.79h-2.324Zm8.386-3.612a3.739,3.739,0,0,0,3.962,3.78,4.869,4.869,0,0,0,3.08-1.05l-.9-1.694a3.78,3.78,0,0,1-1.988.728,1.61,1.61,0,0,1-1.68-1.288H174s.056-.518.056-.756a3.2,3.2,0,0,0-3.332-3.486A3.589,3.589,0,0,0,166.974,9.388Zm2.534-.91a1.182,1.182,0,0,1,1.162-1.036.982.982,0,0,1,.952,1.036Zm5.768,1.862c0,2.422,1.372,2.73,2.66,2.73a6.585,6.585,0,0,0,.728-.042v-2.1s-.14.014-.294.014c-.546,0-.672-.238-.672-.924V2.99h-2.422ZM10.524,30h2.464l.308-4.508a14.9,14.9,0,0,0,0-1.68h.028s.336,1.05.56,1.68l1.05,2.9h2.1l1.05-2.9c.224-.63.56-1.68.56-1.68h.028a14.9,14.9,0,0,0,0,1.68L18.98,30h2.45l-.812-10.01h-2.66L16.5,24.218c-.224.644-.5,1.652-.5,1.652H15.97s-.28-1.008-.5-1.652L14.01,19.99H11.35Zm12.124-2.156a2.306,2.306,0,0,0,2.45,2.324,2.244,2.244,0,0,0,2.044-1.05h.028a3.815,3.815,0,0,0-.028.448V30h2.212V25.562c0-1.834-1.218-2.94-3.248-2.94a5.453,5.453,0,0,0-3.024.938l.84,1.708a4.3,4.3,0,0,1,1.946-.686c.6,0,1.064.2,1.064.8v.126h-.1C25.714,25.506,22.648,25.744,22.648,27.844Zm2.436-.126c0-.6.882-.826,1.652-.826h.224v.154a1.337,1.337,0,0,1-1.19,1.274C25.294,28.32,25.084,28.054,25.084,27.718ZM31.034,30h2.422V26.808a2.9,2.9,0,0,1,.14-.952,1.419,1.419,0,0,1,1.428-1.036c.532,0,.8.28.8.952V30h2.422V25.324c0-2.03-1.134-2.7-2.59-2.7a2.544,2.544,0,0,0-2.3,1.246H33.33a3.815,3.815,0,0,0,.028-.448v-.63H31.034Zm8.358-2.156a2.306,2.306,0,0,0,2.45,2.324,2.244,2.244,0,0,0,2.044-1.05h.028a3.815,3.815,0,0,0-.028.448V30H46.1V25.562c0-1.834-1.218-2.94-3.248-2.94a5.453,5.453,0,0,0-3.024.938l.84,1.708a4.3,4.3,0,0,1,1.946-.686c.6,0,1.064.2,1.064.8v.126h-.1C42.458,25.506,39.392,25.744,39.392,27.844Zm2.436-.126c0-.6.882-.826,1.652-.826H43.7v.154a1.337,1.337,0,0,1-1.19,1.274C42.038,28.32,41.828,28.054,41.828,27.718Zm6.846,2.744L47.988,32.3a6.378,6.378,0,0,0,2.73.644c1.974,0,4.074-.966,4.074-3.6V22.79H52.524v.364a1.171,1.171,0,0,0,.014.168H52.5a2.734,2.734,0,0,0-1.96-.7c-2.184,0-3.234,1.708-3.234,3.542S48.38,29.79,50.55,29.79a2.145,2.145,0,0,0,1.806-.756h.028s-.014.182-.014.266v.238c0,1.064-.8,1.386-1.666,1.386A4.9,4.9,0,0,1,48.674,30.462Zm2.45-2.688c-.966,0-1.386-.8-1.386-1.694a1.272,1.272,0,0,1,1.288-1.442c.728,0,1.4.28,1.4,1.554S51.754,27.774,51.124,27.774Zm4.942-1.386a3.739,3.739,0,0,0,3.962,3.78,4.869,4.869,0,0,0,3.08-1.05l-.9-1.694a3.78,3.78,0,0,1-1.988.728,1.61,1.61,0,0,1-1.68-1.288h4.55s.056-.518.056-.756a3.2,3.2,0,0,0-3.332-3.486A3.589,3.589,0,0,0,56.066,26.388Zm2.534-.91a1.182,1.182,0,0,1,1.162-1.036.982.982,0,0,1,.952,1.036ZM64.466,30h2.422V27.018a4.562,4.562,0,0,1,.07-.9c.168-.77.56-1.3,1.316-1.3.462,0,.56.378.56.91V30h2.422V27.018a4.033,4.033,0,0,1,.056-.84c.154-.8.56-1.358,1.33-1.358.462,0,.56.378.56.91V30h2.422V25.324c0-1.988-1.022-2.7-2.338-2.7a2.785,2.785,0,0,0-2.31,1.218h-.028a2.088,2.088,0,0,0-2.016-1.218,2.565,2.565,0,0,0-2.142,1.246h-.028a3.815,3.815,0,0,0,.028-.448v-.63H64.466ZM76.8,26.388a3.739,3.739,0,0,0,3.962,3.78,4.869,4.869,0,0,0,3.08-1.05l-.9-1.694a3.78,3.78,0,0,1-1.988.728,1.61,1.61,0,0,1-1.68-1.288h4.55s.056-.518.056-.756a3.2,3.2,0,0,0-3.332-3.486A3.589,3.589,0,0,0,76.8,26.388Zm2.534-.91A1.182,1.182,0,0,1,80.5,24.442a.982.982,0,0,1,.952,1.036ZM85.2,30h2.422V26.808a2.9,2.9,0,0,1,.14-.952A1.419,1.419,0,0,1,89.19,24.82c.532,0,.8.28.8.952V30H92.41V25.324c0-2.03-1.134-2.7-2.59-2.7a2.544,2.544,0,0,0-2.3,1.246H87.5a3.815,3.815,0,0,0,.028-.448v-.63H85.2Zm9.268-2.66c0,2.422,2.226,2.73,3.374,2.73a4.661,4.661,0,0,0,.658-.042v-2.1s-.126.014-.322.014c-.462,0-1.288-.112-1.288-.924V24.806H98.4v-1.89H96.89V20.844H94.538v2.072h-.994v1.89h.924ZM103.4,30h2.45V26.626H107L108.776,30h2.73l-1.946-3.5a5.737,5.737,0,0,0-.378-.6V25.87a3.047,3.047,0,0,0,1.5-2.73,2.91,2.91,0,0,0-1.848-2.912,5.179,5.179,0,0,0-1.946-.238H103.4Zm2.45-5.474V22.09h.826c1.232,0,1.512.448,1.512,1.2a1.146,1.146,0,0,1-1.274,1.232Zm6.272,1.862a3.739,3.739,0,0,0,3.962,3.78,4.869,4.869,0,0,0,3.08-1.05l-.9-1.694a3.78,3.78,0,0,1-1.988.728,1.61,1.61,0,0,1-1.68-1.288h4.55s.056-.518.056-.756a3.2,3.2,0,0,0-3.332-3.486A3.589,3.589,0,0,0,112.122,26.388Zm2.534-.91a1.182,1.182,0,0,1,1.162-1.036.982.982,0,0,1,.952,1.036Zm6.23,1.862c0,2.422,2.226,2.73,3.374,2.73a4.661,4.661,0,0,0,.658-.042v-2.1s-.126.014-.322.014c-.462,0-1.288-.112-1.288-.924V24.806h1.512v-1.89h-1.512V20.844h-2.352v2.072h-.994v1.89h.924Zm5.474-5.46h2.366V19.99H126.36ZM126.332,30h2.422V22.79h-2.422Zm4.214,0h2.422V27.27a3.269,3.269,0,0,1,.126-.98,1.82,1.82,0,0,1,1.862-1.26,2.577,2.577,0,0,1,.49.042v-2.38a1.637,1.637,0,0,0-.28-.028,2.5,2.5,0,0,0-2.3,1.792h-.028a3.815,3.815,0,0,0,.028-.448V22.79h-2.324Zm5.5-3.612a3.739,3.739,0,0,0,3.962,3.78,4.869,4.869,0,0,0,3.08-1.05l-.9-1.694a3.78,3.78,0,0,1-1.988.728,1.61,1.61,0,0,1-1.68-1.288h4.55s.056-.518.056-.756a3.2,3.2,0,0,0-3.332-3.486A3.589,3.589,0,0,0,136.048,26.388Zm2.534-.91a1.182,1.182,0,0,1,1.162-1.036.982.982,0,0,1,.952,1.036ZM144.448,30h2.422V27.018a4.562,4.562,0,0,1,.07-.9c.168-.77.56-1.3,1.316-1.3.462,0,.56.378.56.91V30h2.422V27.018a4.033,4.033,0,0,1,.056-.84c.154-.8.56-1.358,1.33-1.358.462,0,.56.378.56.91V30h2.422V25.324c0-1.988-1.022-2.7-2.338-2.7a2.785,2.785,0,0,0-2.31,1.218h-.028a2.088,2.088,0,0,0-2.016-1.218,2.565,2.565,0,0,0-2.142,1.246h-.028a3.815,3.815,0,0,0,.028-.448v-.63h-2.324Zm12.334-3.612a3.739,3.739,0,0,0,3.962,3.78,4.869,4.869,0,0,0,3.08-1.05l-.9-1.694a3.78,3.78,0,0,1-1.988.728,1.61,1.61,0,0,1-1.68-1.288h4.55s.056-.518.056-.756a3.2,3.2,0,0,0-3.332-3.486A3.589,3.589,0,0,0,156.782,26.388Zm2.534-.91a1.182,1.182,0,0,1,1.162-1.036.982.982,0,0,1,.952,1.036ZM165.182,30H167.6V26.808a2.9,2.9,0,0,1,.14-.952,1.419,1.419,0,0,1,1.428-1.036c.532,0,.8.28.8.952V30h2.422V25.324c0-2.03-1.134-2.7-2.59-2.7a2.544,2.544,0,0,0-2.3,1.246h-.028a3.815,3.815,0,0,0,.028-.448v-.63h-2.324Zm9.268-2.66c0,2.422,2.226,2.73,3.374,2.73a4.661,4.661,0,0,0,.658-.042v-2.1s-.126.014-.322.014c-.462,0-1.288-.112-1.288-.924V24.806h1.512v-1.89h-1.512V20.844H174.52v2.072h-.994v1.89h.924ZM84.92,43.892h8.344v-1.82H84.92ZM97.954,45.74a5.059,5.059,0,0,0,2.856,1.372v1.274h1.526V47.112a3.072,3.072,0,0,0,2.8-3.052c0-3.094-4.55-3.01-4.55-4.2,0-.56.56-.784,1.064-.784a3.82,3.82,0,0,1,2.212.882l1.036-2a4.378,4.378,0,0,0-2.562-1.092V35.59H100.81v1.316a3.04,3.04,0,0,0-2.674,2.982c0,3.01,4.55,3.108,4.55,4.228,0,.6-.546.8-1.05.8a4.148,4.148,0,0,1-2.394-1.036Zm10.99,1.428c3.108,0,4.774-2.842,4.774-5.558,0-3.262-2.044-4.788-4.06-4.788a3.321,3.321,0,0,0-3.416,3.374,3.284,3.284,0,0,0,3.276,3.43,2.815,2.815,0,0,0,1.372-.35h.028a2.184,2.184,0,0,1-2.156,1.652,3.813,3.813,0,0,1-1.372-.294l-.658,2.1A5.048,5.048,0,0,0,108.944,47.168Zm1.218-5.516a1.4,1.4,0,0,1-1.512-1.47,1.049,1.049,0,0,1,1.008-1.12,1.856,1.856,0,0,1,1.54,1.988C111.2,41.512,110.722,41.652,110.162,41.652Zm4.62,4.2a4.746,4.746,0,0,0,3.416,1.316,3.4,3.4,0,0,0,3.71-3.416,2.94,2.94,0,0,0-2.422-2.9l2.03-2.338V36.99H115.2v2.1H117.6a4.987,4.987,0,0,0,.952-.07v.028a10.89,10.89,0,0,0-.868.938l-1.316,1.582.518,1.19h.7c1.078,0,1.862.322,1.862,1.106,0,.546-.518.994-1.428.994a3.273,3.273,0,0,1-2.058-.9Zm8.162-1.274h4.438V47H129.8V44.578h1.19v-2.03H129.8V36.99h-3l-3.864,6.1Zm2.492-2.03V42.52l1.512-2.3a5.334,5.334,0,0,0,.49-1.036h.028a8.946,8.946,0,0,0-.084,1.12v2.24ZM135.7,47h2.268v-.238c0-.224-.014-.406-.014-.406h.028a2.577,2.577,0,0,0,1.974.812c1.918,0,3.36-1.484,3.36-3.766,0-2.24-1.288-3.78-3.248-3.78a2.678,2.678,0,0,0-1.946.77h-.028s.028-.252.028-.616V36.99H135.7Zm2.352-3.556c0-1.246.686-1.778,1.414-1.778.84,0,1.414.7,1.414,1.778,0,1.106-.658,1.722-1.414,1.722C138.512,45.166,138.05,44.312,138.05,43.444Zm6.594-4.564h2.366V36.99h-2.366ZM144.616,47h2.422V39.79h-2.422Zm4.116-2.66c0,2.422,1.372,2.73,2.66,2.73a6.585,6.585,0,0,0,.728-.042v-2.1s-.14.014-.294.014c-.546,0-.672-.238-.672-.924V36.99h-2.422Zm4.522,0c0,2.422,1.372,2.73,2.66,2.73a6.585,6.585,0,0,0,.728-.042v-2.1s-.14.014-.294.014c-.546,0-.672-.238-.672-.924V36.99h-2.422Zm4.648-5.46h2.366V36.99H157.9ZM157.874,47H160.3V39.79h-2.422Zm3.682-3.584a4.1,4.1,0,1,0,4.074-3.794A3.811,3.811,0,0,0,161.556,43.416Zm2.45,0a1.644,1.644,0,1,1,3.276,0,1.641,1.641,0,1,1-3.276,0ZM170.992,47h2.422V43.808a2.9,2.9,0,0,1,.14-.952,1.419,1.419,0,0,1,1.428-1.036c.532,0,.8.28.8.952V47H178.2V42.324c0-2.03-1.134-2.7-2.59-2.7a2.544,2.544,0,0,0-2.3,1.246h-.028a3.815,3.815,0,0,0,.028-.448v-.63h-2.324Z" transform="translate(877.178 8211)" fill="#efefef"/>
    <path id="Path_3264" data-name="Path 3264" d="M5.923,13H8.387l.308-4.508a14.9,14.9,0,0,0,0-1.68h.028s.336,1.05.56,1.68l1.05,2.9h2.1l1.05-2.9c.224-.63.56-1.68.56-1.68h.028a14.9,14.9,0,0,0,0,1.68L14.379,13h2.45L16.017,2.99h-2.66L11.9,7.218c-.224.644-.5,1.652-.5,1.652h-.028s-.28-1.008-.5-1.652L9.409,2.99H6.749Zm12.7-8.12h2.366V2.99H18.621ZM18.593,13h2.422V5.79H18.593Zm4.116-2.66c0,2.422,1.372,2.73,2.66,2.73a6.585,6.585,0,0,0,.728-.042v-2.1s-.14.014-.294.014c-.546,0-.672-.238-.672-.924V2.99H22.709Zm4.648-5.46h2.366V2.99H27.357ZM27.329,13h2.422V5.79H27.329Zm4.578-2.66c0,2.422,2.226,2.73,3.374,2.73a4.661,4.661,0,0,0,.658-.042v-2.1s-.126.014-.322.014c-.462,0-1.288-.112-1.288-.924V7.806h1.512V5.916H34.329V3.844H31.977V5.916h-.994v1.89h.924Zm4.9.5a2.306,2.306,0,0,0,2.45,2.324,2.244,2.244,0,0,0,2.044-1.05h.028a3.815,3.815,0,0,0-.028.448V13h2.212V8.562c0-1.834-1.218-2.94-3.248-2.94a5.453,5.453,0,0,0-3.024.938l.84,1.708a4.3,4.3,0,0,1,1.946-.686c.6,0,1.064.2,1.064.8v.126h-.1C39.873,8.506,36.807,8.744,36.807,10.844Zm2.436-.126c0-.6.882-.826,1.652-.826h.224v.154a1.337,1.337,0,0,1-1.19,1.274C39.453,11.32,39.243,11.054,39.243,10.718ZM45.193,13h2.422V10.27a3.269,3.269,0,0,1,.126-.98A1.82,1.82,0,0,1,49.6,8.03a2.577,2.577,0,0,1,.49.042V5.692a1.637,1.637,0,0,0-.28-.028,2.5,2.5,0,0,0-2.3,1.792h-.028a3.815,3.815,0,0,0,.028-.448V5.79H45.193Zm5.558,2.436a3.248,3.248,0,0,0,1.68.5,3.106,3.106,0,0,0,3.01-2.17l2.954-7.98H55.749l-.91,3.36c-.1.392-.238,1.078-.238,1.078h-.028s-.14-.728-.266-1.12L53.243,5.79H50.5l3.066,7.07-.14.336a1.152,1.152,0,0,1-1.162.728,1.608,1.608,0,0,1-.742-.266ZM62.763,13h2.45V9.626h1.148L68.139,13h2.73L68.923,9.5a5.737,5.737,0,0,0-.378-.6V8.87a3.047,3.047,0,0,0,1.5-2.73,2.91,2.91,0,0,0-1.848-2.912,5.179,5.179,0,0,0-1.946-.238H62.763Zm2.45-5.474V5.09h.826c1.232,0,1.512.448,1.512,1.2a1.146,1.146,0,0,1-1.274,1.232Zm6.272,1.862a3.739,3.739,0,0,0,3.962,3.78,4.869,4.869,0,0,0,3.08-1.05l-.9-1.694a3.78,3.78,0,0,1-1.988.728,1.61,1.61,0,0,1-1.68-1.288h4.55s.056-.518.056-.756a3.2,3.2,0,0,0-3.332-3.486A3.589,3.589,0,0,0,71.485,9.388Zm2.534-.91a1.182,1.182,0,0,1,1.162-1.036.982.982,0,0,1,.952,1.036Zm6.23,1.862c0,2.422,2.226,2.73,3.374,2.73a4.661,4.661,0,0,0,.658-.042v-2.1s-.126.014-.322.014c-.462,0-1.288-.112-1.288-.924V7.806h1.512V5.916H82.671V3.844H80.319V5.916h-.994v1.89h.924Zm5.474-5.46h2.366V2.99H85.723ZM85.695,13h2.422V5.79H85.695Zm4.214,0h2.422V10.27a3.269,3.269,0,0,1,.126-.98,1.82,1.82,0,0,1,1.862-1.26,2.577,2.577,0,0,1,.49.042V5.692a1.637,1.637,0,0,0-.28-.028,2.5,2.5,0,0,0-2.3,1.792H92.2a3.815,3.815,0,0,0,.028-.448V5.79H89.909Zm5.5-3.612a3.739,3.739,0,0,0,3.962,3.78,4.869,4.869,0,0,0,3.08-1.05l-.9-1.694a3.78,3.78,0,0,1-1.988.728,1.61,1.61,0,0,1-1.68-1.288h4.55s.056-.518.056-.756a3.2,3.2,0,0,0-3.332-3.486A3.589,3.589,0,0,0,95.411,9.388Zm2.534-.91a1.182,1.182,0,0,1,1.162-1.036.982.982,0,0,1,.952,1.036ZM103.811,13h2.422V10.018a4.562,4.562,0,0,1,.07-.9c.168-.77.56-1.3,1.316-1.3.462,0,.56.378.56.91V13H110.6V10.018a4.033,4.033,0,0,1,.056-.84c.154-.8.56-1.358,1.33-1.358.462,0,.56.378.56.91V13h2.422V8.324c0-1.988-1.022-2.7-2.338-2.7a2.785,2.785,0,0,0-2.31,1.218h-.028a2.088,2.088,0,0,0-2.016-1.218,2.565,2.565,0,0,0-2.142,1.246h-.028a3.815,3.815,0,0,0,.028-.448V5.79h-2.324Zm12.334-3.612a3.739,3.739,0,0,0,3.962,3.78,4.869,4.869,0,0,0,3.08-1.05l-.9-1.694a3.78,3.78,0,0,1-1.988.728,1.61,1.61,0,0,1-1.68-1.288h4.55s.056-.518.056-.756A3.2,3.2,0,0,0,119.9,5.622,3.589,3.589,0,0,0,116.145,9.388Zm2.534-.91a1.182,1.182,0,0,1,1.162-1.036.982.982,0,0,1,.952,1.036ZM124.545,13h2.422V9.808a2.9,2.9,0,0,1,.14-.952,1.419,1.419,0,0,1,1.428-1.036c.532,0,.8.28.8.952V13h2.422V8.324c0-2.03-1.134-2.7-2.59-2.7a2.544,2.544,0,0,0-2.3,1.246h-.028a3.815,3.815,0,0,0,.028-.448V5.79h-2.324Zm9.268-2.66c0,2.422,2.226,2.73,3.374,2.73a4.661,4.661,0,0,0,.658-.042v-2.1s-.126.014-.322.014c-.462,0-1.288-.112-1.288-.924V7.806h1.512V5.916h-1.512V3.844h-2.352V5.916h-.994v1.89h.924ZM142.745,13h2.45V9.29h3.052V7.19h-3.052V5.09h3.682V2.99h-6.132ZM150,10.466c0,2.03,1.134,2.7,2.562,2.7a2.5,2.5,0,0,0,2.254-1.246h.028a3.815,3.815,0,0,0-.028.448V13h2.324V5.79h-2.422V8.982c0,1.078-.49,1.988-1.526,1.988-.5,0-.77-.28-.77-.952V5.79H150ZM158.929,13h2.422V9.808a2.9,2.9,0,0,1,.14-.952,1.419,1.419,0,0,1,1.428-1.036c.532,0,.8.28.8.952V13h2.422V8.324c0-2.03-1.134-2.7-2.59-2.7a2.544,2.544,0,0,0-2.3,1.246h-.028a3.815,3.815,0,0,0,.028-.448V5.79h-2.324Zm8.414-3.612c0,2.24,1.288,3.78,3.248,3.78a2.408,2.408,0,0,0,2.086-1.05h.028s-.014.182-.014.406V13h2.268V2.99h-2.422V5.874c0,.182.014.322.014.322h-.028s-.434-.574-1.89-.574C168.715,5.622,167.343,7.106,167.343,9.388Zm2.436,0c0-1.106.658-1.722,1.414-1.722.952,0,1.414.854,1.414,1.722,0,1.246-.686,1.778-1.414,1.778C170.353,11.166,169.779,10.466,169.779,9.388Zm-86.758,17.5h8.344v-1.82H83.021ZM96.055,28.74a5.059,5.059,0,0,0,2.856,1.372v1.274h1.526V30.112a3.072,3.072,0,0,0,2.8-3.052c0-3.094-4.55-3.01-4.55-4.2,0-.56.56-.784,1.064-.784a3.82,3.82,0,0,1,2.212.882l1.036-2a4.378,4.378,0,0,0-2.562-1.092V18.59H98.911v1.316a3.04,3.04,0,0,0-2.674,2.982c0,3.01,4.55,3.108,4.55,4.228,0,.6-.546.8-1.05.8a4.148,4.148,0,0,1-2.394-1.036Zm10.99,1.428c3.108,0,4.774-2.842,4.774-5.558,0-3.262-2.044-4.788-4.06-4.788a3.321,3.321,0,0,0-3.416,3.374,3.284,3.284,0,0,0,3.276,3.43,2.815,2.815,0,0,0,1.372-.35h.028a2.184,2.184,0,0,1-2.156,1.652,3.813,3.813,0,0,1-1.372-.294l-.658,2.1A5.048,5.048,0,0,0,107.045,30.168Zm1.218-5.516a1.4,1.4,0,0,1-1.512-1.47,1.049,1.049,0,0,1,1.008-1.12,1.856,1.856,0,0,1,1.54,1.988C109.3,24.512,108.823,24.652,108.263,24.652Zm4.62,4.2a4.746,4.746,0,0,0,3.416,1.316,3.4,3.4,0,0,0,3.71-3.416,2.94,2.94,0,0,0-2.422-2.9l2.03-2.338V19.99H113.3v2.1H115.7a4.987,4.987,0,0,0,.952-.07v.028a10.89,10.89,0,0,0-.868.938l-1.316,1.582.518,1.19h.7c1.078,0,1.862.322,1.862,1.106,0,.546-.518.994-1.428.994a3.273,3.273,0,0,1-2.058-.9ZM121.465,30h6.664V27.9h-2.142V19.99h-2.114l-2.7,2.534,1.414,1.512.6-.546a1.891,1.891,0,0,0,.392-.532h.028s-.014.392-.014.77V27.9h-2.128Zm11.088,0h2.268v-.238c0-.224-.014-.406-.014-.406h.028a2.577,2.577,0,0,0,1.974.812c1.918,0,3.36-1.484,3.36-3.766,0-2.24-1.288-3.78-3.248-3.78a2.678,2.678,0,0,0-1.946.77h-.028s.028-.252.028-.616V19.99h-2.422Zm2.352-3.556c0-1.246.686-1.778,1.414-1.778.84,0,1.414.7,1.414,1.778,0,1.106-.658,1.722-1.414,1.722C135.367,28.166,134.9,27.312,134.9,26.444ZM141.5,21.88h2.366V19.99H141.5ZM141.471,30h2.422V22.79h-2.422Zm4.116-2.66c0,2.422,1.372,2.73,2.66,2.73a6.585,6.585,0,0,0,.728-.042v-2.1s-.14.014-.294.014c-.546,0-.672-.238-.672-.924V19.99h-2.422Zm4.522,0c0,2.422,1.372,2.73,2.66,2.73a6.585,6.585,0,0,0,.728-.042v-2.1s-.14.014-.294.014c-.546,0-.672-.238-.672-.924V19.99h-2.422Zm4.648-5.46h2.366V19.99h-2.366ZM154.729,30h2.422V22.79h-2.422Zm3.682-3.584a4.1,4.1,0,1,0,4.074-3.794A3.811,3.811,0,0,0,158.411,26.416Zm2.45,0a1.644,1.644,0,1,1,3.276,0,1.641,1.641,0,1,1-3.276,0ZM167.847,30h2.422V26.808a2.9,2.9,0,0,1,.14-.952,1.419,1.419,0,0,1,1.428-1.036c.532,0,.8.28.8.952V30h2.422V25.324c0-2.03-1.134-2.7-2.59-2.7a2.544,2.544,0,0,0-2.3,1.246h-.028a3.815,3.815,0,0,0,.028-.448v-.63h-2.324Z" transform="translate(844.323 8454)" fill="#efefef"/>
    <path id="Path_3265" data-name="Path 3265" d="M5.316,13H7.78l.308-4.508a14.9,14.9,0,0,0,0-1.68h.028s.336,1.05.56,1.68l1.05,2.9h2.1l1.05-2.9c.224-.63.56-1.68.56-1.68h.028a14.9,14.9,0,0,0,0,1.68L13.772,13h2.45L15.41,2.99H12.75L11.294,7.218c-.224.644-.5,1.652-.5,1.652h-.028s-.28-1.008-.5-1.652L8.8,2.99H6.142ZM17.468,9.388a3.739,3.739,0,0,0,3.962,3.78,4.869,4.869,0,0,0,3.08-1.05l-.9-1.694a3.78,3.78,0,0,1-1.988.728,1.61,1.61,0,0,1-1.68-1.288H24.5s.056-.518.056-.756A3.2,3.2,0,0,0,21.22,5.622,3.589,3.589,0,0,0,17.468,9.388ZM20,8.478a1.182,1.182,0,0,1,1.162-1.036.982.982,0,0,1,.952,1.036Zm5.376.91c0,2.24,1.288,3.78,3.248,3.78a2.408,2.408,0,0,0,2.086-1.05h.028s-.014.182-.014.406V13h2.268V2.99H30.572V5.874c0,.182.014.322.014.322h-.028s-.434-.574-1.89-.574C26.75,5.622,25.378,7.106,25.378,9.388Zm2.436,0c0-1.106.658-1.722,1.414-1.722.952,0,1.414.854,1.414,1.722,0,1.246-.686,1.778-1.414,1.778C28.388,11.166,27.814,10.466,27.814,9.388Zm7-4.508H37.18V2.99H34.814ZM34.786,13h2.422V5.79H34.786Zm3.682-3.612a3.749,3.749,0,0,0,4.018,3.78,4.338,4.338,0,0,0,3.094-1.19L44.7,10.284a3.52,3.52,0,0,1-1.974.868A1.742,1.742,0,0,1,40.918,9.36,1.658,1.658,0,0,1,42.64,7.638a2.627,2.627,0,0,1,1.694.7l1.022-1.624a3.8,3.8,0,0,0-2.87-1.092A3.762,3.762,0,0,0,38.468,9.388Zm7.7,1.456a2.306,2.306,0,0,0,2.45,2.324,2.244,2.244,0,0,0,2.044-1.05h.028a3.815,3.815,0,0,0-.028.448V13h2.212V8.562c0-1.834-1.218-2.94-3.248-2.94A5.453,5.453,0,0,0,46.6,6.56l.84,1.708a4.3,4.3,0,0,1,1.946-.686c.6,0,1.064.2,1.064.8v.126h-.1C49.234,8.506,46.168,8.744,46.168,10.844Zm2.436-.126c0-.6.882-.826,1.652-.826h.224v.154a1.337,1.337,0,0,1-1.19,1.274C48.814,11.32,48.6,11.054,48.6,10.718ZM54.554,13h2.422V10.27a3.269,3.269,0,0,1,.126-.98,1.82,1.82,0,0,1,1.862-1.26,2.577,2.577,0,0,1,.49.042V5.692a1.637,1.637,0,0,0-.28-.028,2.5,2.5,0,0,0-2.3,1.792H56.85a3.815,3.815,0,0,0,.028-.448V5.79H54.554Zm5.5-3.612a3.739,3.739,0,0,0,3.962,3.78,4.869,4.869,0,0,0,3.08-1.05l-.9-1.694a3.78,3.78,0,0,1-1.988.728,1.61,1.61,0,0,1-1.68-1.288h4.55s.056-.518.056-.756a3.2,3.2,0,0,0-3.332-3.486A3.589,3.589,0,0,0,60.056,9.388Zm2.534-.91a1.182,1.182,0,0,1,1.162-1.036A.982.982,0,0,1,64.7,8.478ZM71.7,9.892h8.344V8.072H71.7ZM84.738,11.74a5.059,5.059,0,0,0,2.856,1.372v1.274H89.12V13.112a3.072,3.072,0,0,0,2.8-3.052c0-3.094-4.55-3.01-4.55-4.2,0-.56.56-.784,1.064-.784a3.82,3.82,0,0,1,2.212.882l1.036-2A4.378,4.378,0,0,0,89.12,2.864V1.59H87.594V2.906A3.04,3.04,0,0,0,84.92,5.888c0,3.01,4.55,3.108,4.55,4.228,0,.6-.546.8-1.05.8a4.148,4.148,0,0,1-2.394-1.036Zm8.162.112a4.746,4.746,0,0,0,3.416,1.316,3.4,3.4,0,0,0,3.71-3.416,2.94,2.94,0,0,0-2.422-2.9l2.03-2.338V2.99H93.32v2.1h2.394a4.987,4.987,0,0,0,.952-.07v.028a10.89,10.89,0,0,0-.868.938L94.482,7.568,95,8.758h.7c1.078,0,1.862.322,1.862,1.106,0,.546-.518.994-1.428.994a3.273,3.273,0,0,1-2.058-.9Zm12.278,1.316c2.842,0,3.766-2.324,3.766-5.194s-.924-5.152-3.766-5.152-3.766,2.282-3.766,5.152S102.336,13.168,105.178,13.168Zm0-2.24c-.966,0-1.246-1.316-1.246-2.954s.28-2.912,1.246-2.912,1.246,1.288,1.246,2.912S106.144,10.928,105.178,10.928ZM110.568,13h2.548l4.2-8.3V2.99h-7.182v2.1h3.948a2.8,2.8,0,0,0,.644-.042v.028a2.8,2.8,0,0,0-.644.91Zm11.13,0h2.268v-.238c0-.224-.014-.406-.014-.406h.028a2.577,2.577,0,0,0,1.974.812c1.918,0,3.36-1.484,3.36-3.766,0-2.24-1.288-3.78-3.248-3.78a2.678,2.678,0,0,0-1.946.77h-.028s.028-.252.028-.616V2.99H121.7Zm2.352-3.556c0-1.246.686-1.778,1.414-1.778.84,0,1.414.7,1.414,1.778,0,1.106-.658,1.722-1.414,1.722C124.512,11.166,124.05,10.312,124.05,9.444Zm6.594-4.564h2.366V2.99h-2.366ZM130.616,13h2.422V5.79h-2.422Zm4.116-2.66c0,2.422,1.372,2.73,2.66,2.73a6.585,6.585,0,0,0,.728-.042v-2.1s-.14.014-.294.014c-.546,0-.672-.238-.672-.924V2.99h-2.422Zm4.522,0c0,2.422,1.372,2.73,2.66,2.73a6.585,6.585,0,0,0,.728-.042v-2.1s-.14.014-.294.014c-.546,0-.672-.238-.672-.924V2.99h-2.422ZM143.9,4.88h2.366V2.99H143.9ZM143.874,13H146.3V5.79h-2.422Zm3.682-3.584a4.1,4.1,0,1,0,4.074-3.794A3.811,3.811,0,0,0,147.556,9.416Zm2.45,0a1.644,1.644,0,1,1,3.276,0,1.641,1.641,0,1,1-3.276,0ZM156.992,13h2.422V9.808a2.9,2.9,0,0,1,.14-.952,1.419,1.419,0,0,1,1.428-1.036c.532,0,.8.28.8.952V13H164.2V8.324c0-2.03-1.134-2.7-2.59-2.7a2.544,2.544,0,0,0-2.3,1.246h-.028a3.815,3.815,0,0,0,.028-.448V5.79h-2.324Z" transform="translate(969 8588)" fill="#efefef"/>
    <path id="Path_3267" data-name="Path 3267" d="M6.8,13h2.52L5.922,2.99H3.346L-.056,13h2.52l.6-2.1H6.188ZM4.648,5.272s.224,1.092.406,1.722l.56,1.946H3.64l.574-1.946c.182-.63.406-1.722.406-1.722Zm5.418,5.068c0,2.422,1.372,2.73,2.66,2.73a6.585,6.585,0,0,0,.728-.042v-2.1s-.14.014-.294.014c-.546,0-.672-.238-.672-.924V2.99H10.066Zm4.522,0c0,2.422,1.372,2.73,2.66,2.73a6.585,6.585,0,0,0,.728-.042v-2.1s-.14.014-.294.014c-.546,0-.672-.238-.672-.924V2.99H14.588Zm7.294-.924a3.811,3.811,0,0,0,4.088,3.752,3.786,3.786,0,1,0-.014-7.546A3.831,3.831,0,0,0,21.882,9.416Zm2.45,0a1.644,1.644,0,1,1,3.276,0,1.641,1.641,0,1,1-3.276,0Zm7.35.924c0,2.422,2.226,2.73,3.374,2.73a4.661,4.661,0,0,0,.658-.042v-2.1s-.126.014-.322.014c-.462,0-1.288-.112-1.288-.924V7.806h1.512V5.916H34.1V3.844H31.752V5.916h-.994v1.89h.924ZM37.128,13H39.55V9.808a2.786,2.786,0,0,1,.126-.924A1.455,1.455,0,0,1,41.118,7.82c.532,0,.8.28.8.952V13h2.422V8.324c0-2.03-1.134-2.7-2.59-2.7a2.476,2.476,0,0,0-2.2,1.148h-.028s.028-.252.028-.616V2.99H37.128Zm8.386-3.612a3.739,3.739,0,0,0,3.962,3.78,4.869,4.869,0,0,0,3.08-1.05l-.9-1.694a3.78,3.78,0,0,1-1.988.728,1.61,1.61,0,0,1-1.68-1.288h4.55s.056-.518.056-.756a3.2,3.2,0,0,0-3.332-3.486A3.589,3.589,0,0,0,45.514,9.388Zm2.534-.91A1.182,1.182,0,0,1,49.21,7.442a.982.982,0,0,1,.952,1.036ZM53.914,13h2.422V10.27a3.269,3.269,0,0,1,.126-.98,1.82,1.82,0,0,1,1.862-1.26,2.577,2.577,0,0,1,.49.042V5.692a1.637,1.637,0,0,0-.28-.028,2.5,2.5,0,0,0-2.3,1.792H56.21a3.815,3.815,0,0,0,.028-.448V5.79H53.914Zm9.226,0h2.422V10.27a3.269,3.269,0,0,1,.126-.98A1.82,1.82,0,0,1,67.55,8.03a2.577,2.577,0,0,1,.49.042V5.692a1.637,1.637,0,0,0-.28-.028,2.5,2.5,0,0,0-2.3,1.792h-.028a3.815,3.815,0,0,0,.028-.448V5.79H63.14Zm5.5-3.612a3.739,3.739,0,0,0,3.962,3.78,4.869,4.869,0,0,0,3.08-1.05l-.9-1.694a3.78,3.78,0,0,1-1.988.728,1.61,1.61,0,0,1-1.68-1.288h4.55s.056-.518.056-.756a3.2,3.2,0,0,0-3.332-3.486A3.589,3.589,0,0,0,68.642,9.388Zm2.534-.91a1.182,1.182,0,0,1,1.162-1.036.982.982,0,0,1,.952,1.036Zm6.23,1.862c0,2.422,2.226,2.73,3.374,2.73a4.661,4.661,0,0,0,.658-.042v-2.1s-.126.014-.322.014c-.462,0-1.288-.112-1.288-.924V7.806H81.34V5.916H79.828V3.844H77.476V5.916h-.994v1.89h.924ZM82.88,4.88h2.366V2.99H82.88ZM82.852,13h2.422V5.79H82.852Zm4.214,0h2.422V10.27a3.269,3.269,0,0,1,.126-.98,1.82,1.82,0,0,1,1.862-1.26,2.577,2.577,0,0,1,.49.042V5.692a1.637,1.637,0,0,0-.28-.028,2.5,2.5,0,0,0-2.3,1.792h-.028a3.815,3.815,0,0,0,.028-.448V5.79H87.066Zm5.5-3.612a3.739,3.739,0,0,0,3.962,3.78,4.869,4.869,0,0,0,3.08-1.05l-.9-1.694a3.78,3.78,0,0,1-1.988.728,1.61,1.61,0,0,1-1.68-1.288H99.6s.056-.518.056-.756A3.2,3.2,0,0,0,96.32,5.622,3.589,3.589,0,0,0,92.568,9.388Zm2.534-.91a1.182,1.182,0,0,1,1.162-1.036.982.982,0,0,1,.952,1.036ZM100.968,13h2.422V10.018a4.562,4.562,0,0,1,.07-.9c.168-.77.56-1.3,1.316-1.3.462,0,.56.378.56.91V13h2.422V10.018a4.033,4.033,0,0,1,.056-.84c.154-.8.56-1.358,1.33-1.358.462,0,.56.378.56.91V13h2.422V8.324c0-1.988-1.022-2.7-2.338-2.7a2.785,2.785,0,0,0-2.31,1.218h-.028a2.088,2.088,0,0,0-2.016-1.218,2.565,2.565,0,0,0-2.142,1.246h-.028a3.815,3.815,0,0,0,.028-.448V5.79h-2.324ZM113.3,9.388a3.739,3.739,0,0,0,3.962,3.78,4.869,4.869,0,0,0,3.08-1.05l-.9-1.694a3.78,3.78,0,0,1-1.988.728,1.61,1.61,0,0,1-1.68-1.288h4.55s.056-.518.056-.756a3.2,3.2,0,0,0-3.332-3.486A3.589,3.589,0,0,0,113.3,9.388Zm2.534-.91A1.182,1.182,0,0,1,117,7.442a.982.982,0,0,1,.952,1.036ZM121.7,13h2.422V9.808a2.9,2.9,0,0,1,.14-.952,1.419,1.419,0,0,1,1.428-1.036c.532,0,.8.28.8.952V13h2.422V8.324c0-2.03-1.134-2.7-2.59-2.7a2.544,2.544,0,0,0-2.3,1.246H124a3.815,3.815,0,0,0,.028-.448V5.79H121.7Zm9.268-2.66c0,2.422,2.226,2.73,3.374,2.73a4.661,4.661,0,0,0,.658-.042v-2.1s-.126.014-.322.014c-.462,0-1.288-.112-1.288-.924V7.806H134.9V5.916h-1.512V3.844H131.04V5.916h-.994v1.89h.924Zm9.1,2.66h2.422V7.806h1.33V5.916h-1.33V5.692c0-.616.742-.7,1.218-.7a2.644,2.644,0,0,1,.392.028V2.976a5.69,5.69,0,0,0-.728-.042c-1.162,0-3.3.322-3.3,2.688v.294h-.882v1.89h.882Zm4.83-2.534c0,2.03,1.134,2.7,2.562,2.7a2.5,2.5,0,0,0,2.254-1.246h.028a3.815,3.815,0,0,0-.028.448V13h2.324V5.79h-2.422V8.982c0,1.078-.49,1.988-1.526,1.988-.5,0-.77-.28-.77-.952V5.79H144.9ZM153.832,13h2.422V9.808a2.9,2.9,0,0,1,.14-.952,1.419,1.419,0,0,1,1.428-1.036c.532,0,.8.28.8.952V13h2.422V8.324c0-2.03-1.134-2.7-2.59-2.7a2.544,2.544,0,0,0-2.3,1.246h-.028a3.815,3.815,0,0,0,.028-.448V5.79h-2.324Zm8.414-3.612c0,2.24,1.288,3.78,3.248,3.78a2.408,2.408,0,0,0,2.086-1.05h.028s-.014.182-.014.406V13h2.268V2.99H167.44V5.874c0,.182.014.322.014.322h-.028s-.434-.574-1.89-.574C163.618,5.622,162.246,7.106,162.246,9.388Zm2.436,0c0-1.106.658-1.722,1.414-1.722.952,0,1.414.854,1.414,1.722,0,1.246-.686,1.778-1.414,1.778C165.256,11.166,164.682,10.466,164.682,9.388Zm6.412,2.716a4.342,4.342,0,0,0,2.884,1.064c1.862,0,2.954-1.05,2.954-2.282,0-2.324-3.374-2.408-3.374-2.954,0-.252.35-.35.714-.35a2.88,2.88,0,0,1,1.708.588l.826-1.722a3.774,3.774,0,0,0-2.534-.826c-1.666,0-2.968.84-2.968,2.2,0,2.352,3.374,2.422,3.374,3.052,0,.238-.35.336-.714.336a3.034,3.034,0,0,1-1.834-.728Zm10.4-2.212h8.344V8.072H181.5ZM194.53,11.74a5.059,5.059,0,0,0,2.856,1.372v1.274h1.526V13.112a3.072,3.072,0,0,0,2.8-3.052c0-3.094-4.55-3.01-4.55-4.2,0-.56.56-.784,1.064-.784a3.82,3.82,0,0,1,2.212.882l1.036-2a4.378,4.378,0,0,0-2.562-1.092V1.59h-1.526V2.906a3.04,3.04,0,0,0-2.674,2.982c0,3.01,4.55,3.108,4.55,4.228,0,.6-.546.8-1.05.8a4.148,4.148,0,0,1-2.394-1.036ZM203.056,13h6.93V10.9H205.73c.07-1.288,4.1-1.89,4.1-5.012a3.123,3.123,0,0,0-3.416-3.066,3.86,3.86,0,0,0-3.528,2.156l1.82,1.218s.532-1.064,1.484-1.064a.989.989,0,0,1,1.078.994c0,1.442-4.326,2.1-4.326,5.8A6.134,6.134,0,0,0,203.056,13Zm12.334.168a3.321,3.321,0,0,0,3.416-3.374,3.284,3.284,0,0,0-3.276-3.43,3.028,3.028,0,0,0-1.372.35h-.028a2.184,2.184,0,0,1,2.156-1.652,3.813,3.813,0,0,1,1.372.294l.658-2.1a5.048,5.048,0,0,0-2.212-.434c-3.108,0-4.774,2.842-4.774,5.558C211.33,11.642,213.374,13.168,215.39,13.168Zm0-2.24a1.856,1.856,0,0,1-1.54-1.988c0-.462.476-.6,1.036-.6a1.4,1.4,0,0,1,1.512,1.47A1.049,1.049,0,0,1,215.39,10.928Zm8.666,2.24a3.321,3.321,0,0,0,3.416-3.374,3.284,3.284,0,0,0-3.276-3.43,3.028,3.028,0,0,0-1.372.35H222.8a2.184,2.184,0,0,1,2.156-1.652,3.813,3.813,0,0,1,1.372.294l.658-2.1a5.048,5.048,0,0,0-2.212-.434C221.662,2.822,220,5.664,220,8.38,220,11.642,222.04,13.168,224.056,13.168Zm0-2.24a1.856,1.856,0,0,1-1.54-1.988c0-.462.476-.6,1.036-.6a1.4,1.4,0,0,1,1.512,1.47A1.049,1.049,0,0,1,224.056,10.928ZM232.12,13h2.268v-.238c0-.224-.014-.406-.014-.406h.028a2.577,2.577,0,0,0,1.974.812c1.918,0,3.36-1.484,3.36-3.766,0-2.24-1.288-3.78-3.248-3.78a2.678,2.678,0,0,0-1.946.77h-.028s.028-.252.028-.616V2.99H232.12Zm2.352-3.556c0-1.246.686-1.778,1.414-1.778.84,0,1.414.7,1.414,1.778,0,1.106-.658,1.722-1.414,1.722C234.934,11.166,234.472,10.312,234.472,9.444Zm6.594-4.564h2.366V2.99h-2.366ZM241.038,13h2.422V5.79h-2.422Zm4.116-2.66c0,2.422,1.372,2.73,2.66,2.73a6.585,6.585,0,0,0,.728-.042v-2.1s-.14.014-.294.014c-.546,0-.672-.238-.672-.924V2.99h-2.422Zm4.522,0c0,2.422,1.372,2.73,2.66,2.73a6.585,6.585,0,0,0,.728-.042v-2.1s-.14.014-.294.014c-.546,0-.672-.238-.672-.924V2.99h-2.422Zm4.648-5.46h2.366V2.99h-2.366ZM254.3,13h2.422V5.79H254.3Zm3.682-3.584a4.1,4.1,0,1,0,4.074-3.794A3.811,3.811,0,0,0,257.978,9.416Zm2.45,0a1.644,1.644,0,1,1,3.276,0,1.641,1.641,0,1,1-3.276,0ZM267.414,13h2.422V9.808a2.9,2.9,0,0,1,.14-.952A1.419,1.419,0,0,1,271.4,7.82c.532,0,.8.28.8.952V13h2.422V8.324c0-2.03-1.134-2.7-2.59-2.7a2.544,2.544,0,0,0-2.3,1.246h-.028a3.813,3.813,0,0,0,.028-.448V5.79h-2.324Z" transform="translate(1214.178 8625)" fill="#efefef"/>
    <path id="Path_3268" data-name="Path 3268" d="M3.094,13h2.45V5.09H8.582V2.99H.056v2.1H3.094Zm6.44,0h2.422V9.808a2.786,2.786,0,0,1,.126-.924A1.455,1.455,0,0,1,13.524,7.82c.532,0,.8.28.8.952V13h2.422V8.324c0-2.03-1.134-2.7-2.59-2.7a2.476,2.476,0,0,0-2.2,1.148h-.028s.028-.252.028-.616V2.99H9.534ZM17.92,9.388a3.739,3.739,0,0,0,3.962,3.78,4.869,4.869,0,0,0,3.08-1.05l-.9-1.694a3.78,3.78,0,0,1-1.988.728A1.61,1.61,0,0,1,20.4,9.864h4.55S25,9.346,25,9.108a3.2,3.2,0,0,0-3.332-3.486A3.589,3.589,0,0,0,17.92,9.388Zm2.534-.91a1.182,1.182,0,0,1,1.162-1.036.982.982,0,0,1,.952,1.036Zm8.61,3.262a5.168,5.168,0,0,0,3.654,1.428c2.254,0,3.528-1.442,3.528-3.108,0-3.164-4.508-2.94-4.508-4.2,0-.56.56-.784,1.064-.784a3.82,3.82,0,0,1,2.212.882l1.036-2a4.54,4.54,0,0,0-3.22-1.134c-1.988,0-3.542,1.218-3.542,3.066,0,3.08,4.508,3.038,4.508,4.228,0,.6-.546.8-1.05.8a4.148,4.148,0,0,1-2.394-1.036Zm8.05-2.324A3.811,3.811,0,0,0,41.2,13.168a3.786,3.786,0,1,0-.014-7.546A3.831,3.831,0,0,0,37.114,9.416Zm2.45,0a1.644,1.644,0,1,1,3.276,0,1.641,1.641,0,1,1-3.276,0Zm6.454-.028a3.749,3.749,0,0,0,4.018,3.78,4.338,4.338,0,0,0,3.094-1.19l-.882-1.694a3.52,3.52,0,0,1-1.974.868A1.742,1.742,0,0,1,48.468,9.36,1.658,1.658,0,0,1,50.19,7.638a2.627,2.627,0,0,1,1.694.7l1.022-1.624a3.8,3.8,0,0,0-2.87-1.092A3.762,3.762,0,0,0,46.018,9.388ZM54.292,4.88h2.366V2.99H54.292ZM54.264,13h2.422V5.79H54.264Zm3.668-2.156a2.306,2.306,0,0,0,2.45,2.324,2.244,2.244,0,0,0,2.044-1.05h.028a3.815,3.815,0,0,0-.028.448V13h2.212V8.562c0-1.834-1.218-2.94-3.248-2.94a5.453,5.453,0,0,0-3.024.938l.84,1.708a4.3,4.3,0,0,1,1.946-.686c.6,0,1.064.2,1.064.8v.126h-.1C61,8.506,57.932,8.744,57.932,10.844Zm2.436-.126c0-.6.882-.826,1.652-.826h.224v.154a1.337,1.337,0,0,1-1.19,1.274C60.578,11.32,60.368,11.054,60.368,10.718Zm5.852-.378c0,2.422,1.372,2.73,2.66,2.73a6.585,6.585,0,0,0,.728-.042v-2.1s-.14.014-.294.014c-.546,0-.672-.238-.672-.924V2.99H66.22Zm7.364,1.4a5.168,5.168,0,0,0,3.654,1.428c2.254,0,3.528-1.442,3.528-3.108,0-3.164-4.508-2.94-4.508-4.2,0-.56.56-.784,1.064-.784a3.82,3.82,0,0,1,2.212.882l1.036-2a4.54,4.54,0,0,0-3.22-1.134c-1.988,0-3.542,1.218-3.542,3.066,0,3.08,4.508,3.038,4.508,4.228,0,.6-.546.8-1.05.8a4.148,4.148,0,0,1-2.394-1.036Zm8.064-2.352a3.739,3.739,0,0,0,3.962,3.78,4.869,4.869,0,0,0,3.08-1.05l-.9-1.694a3.78,3.78,0,0,1-1.988.728,1.61,1.61,0,0,1-1.68-1.288h4.55s.056-.518.056-.756A3.2,3.2,0,0,0,85.4,5.622,3.589,3.589,0,0,0,81.648,9.388Zm2.534-.91a1.182,1.182,0,0,1,1.162-1.036A.982.982,0,0,1,86.3,8.478Zm5.334.91a3.749,3.749,0,0,0,4.018,3.78,4.338,4.338,0,0,0,3.094-1.19l-.882-1.694a3.52,3.52,0,0,1-1.974.868A1.742,1.742,0,0,1,91.966,9.36a1.658,1.658,0,0,1,1.722-1.722,2.627,2.627,0,0,1,1.694.7L96.4,6.714a3.8,3.8,0,0,0-2.87-1.092A3.762,3.762,0,0,0,89.516,9.388Zm8.148,1.078c0,2.03,1.134,2.7,2.562,2.7a2.5,2.5,0,0,0,2.254-1.246h.028a3.815,3.815,0,0,0-.028.448V13H104.8V5.79h-2.422V8.982c0,1.078-.49,1.988-1.526,1.988-.5,0-.77-.28-.77-.952V5.79H97.664ZM106.6,13h2.422V10.27a3.269,3.269,0,0,1,.126-.98,1.82,1.82,0,0,1,1.862-1.26,2.577,2.577,0,0,1,.49.042V5.692a1.637,1.637,0,0,0-.28-.028,2.5,2.5,0,0,0-2.3,1.792h-.028a3.815,3.815,0,0,0,.028-.448V5.79H106.6Zm6.048-8.12h2.366V2.99h-2.366ZM112.616,13h2.422V5.79h-2.422Zm4.578-2.66c0,2.422,2.226,2.73,3.374,2.73a4.661,4.661,0,0,0,.658-.042v-2.1s-.126.014-.322.014c-.462,0-1.288-.112-1.288-.924V7.806h1.512V5.916h-1.512V3.844h-2.352V5.916h-.994v1.89h.924Zm4.564,5.1a3.248,3.248,0,0,0,1.68.5,3.106,3.106,0,0,0,3.01-2.17L129.4,5.79h-2.646l-.91,3.36c-.1.392-.238,1.078-.238,1.078h-.028s-.14-.728-.266-1.12L124.25,5.79h-2.744l3.066,7.07-.14.336a1.152,1.152,0,0,1-1.162.728,1.608,1.608,0,0,1-.742-.266ZM135.688,13h2.45V5.09h3.038V2.99H132.65v2.1h3.038Zm6.062,0h2.422V10.27a3.269,3.269,0,0,1,.126-.98,1.82,1.82,0,0,1,1.862-1.26,2.577,2.577,0,0,1,.49.042V5.692a1.637,1.637,0,0,0-.28-.028,2.5,2.5,0,0,0-2.3,1.792h-.028a3.815,3.815,0,0,0,.028-.448V5.79H141.75Zm5.922-2.534c0,2.03,1.134,2.7,2.562,2.7a2.5,2.5,0,0,0,2.254-1.246h.028a3.815,3.815,0,0,0-.028.448V13h2.324V5.79H152.39V8.982c0,1.078-.49,1.988-1.526,1.988-.5,0-.77-.28-.77-.952V5.79h-2.422Zm8.372,1.638a4.342,4.342,0,0,0,2.884,1.064c1.862,0,2.954-1.05,2.954-2.282,0-2.324-3.374-2.408-3.374-2.954,0-.252.35-.35.714-.35a2.88,2.88,0,0,1,1.708.588l.826-1.722a3.774,3.774,0,0,0-2.534-.826c-1.666,0-2.968.84-2.968,2.2,0,2.352,3.374,2.422,3.374,3.052,0,.238-.35.336-.714.336a3.034,3.034,0,0,1-1.834-.728Zm7.518-1.764c0,2.422,2.226,2.73,3.374,2.73a4.661,4.661,0,0,0,.658-.042v-2.1s-.126.014-.322.014c-.462,0-1.288-.112-1.288-.924V7.806H167.5V5.916h-1.512V3.844h-2.352V5.916h-.994v1.89h.924ZM1.176,30h2.45V26.29H6.678v-2.1H3.626v-2.1H7.308v-2.1H1.176Zm7.252-2.534c0,2.03,1.134,2.7,2.562,2.7a2.5,2.5,0,0,0,2.254-1.246h.028a3.815,3.815,0,0,0-.028.448V30h2.324V22.79H13.146v3.192c0,1.078-.49,1.988-1.526,1.988-.5,0-.77-.28-.77-.952V22.79H8.428ZM17.36,30h2.422V26.808a2.9,2.9,0,0,1,.14-.952A1.419,1.419,0,0,1,21.35,24.82c.532,0,.8.28.8.952V30H24.57V25.324c0-2.03-1.134-2.7-2.59-2.7a2.544,2.544,0,0,0-2.3,1.246h-.028a3.815,3.815,0,0,0,.028-.448v-.63H17.36Zm8.414-3.612c0,2.24,1.288,3.78,3.248,3.78a2.408,2.408,0,0,0,2.086-1.05h.028s-.014.182-.014.406V30H33.39V19.99H30.968v2.884c0,.182.014.322.014.322h-.028s-.434-.574-1.89-.574C27.146,22.622,25.774,24.106,25.774,26.388Zm2.436,0c0-1.106.658-1.722,1.414-1.722.952,0,1.414.854,1.414,1.722,0,1.246-.686,1.778-1.414,1.778C28.784,28.166,28.21,27.466,28.21,26.388Zm9.632,1.456a2.306,2.306,0,0,0,2.45,2.324,2.244,2.244,0,0,0,2.044-1.05h.028a3.815,3.815,0,0,0-.028.448V30h2.212V25.562c0-1.834-1.218-2.94-3.248-2.94a5.453,5.453,0,0,0-3.024.938l.84,1.708a4.3,4.3,0,0,1,1.946-.686c.6,0,1.064.2,1.064.8v.126h-.1C40.908,25.506,37.842,25.744,37.842,27.844Zm2.436-.126c0-.6.882-.826,1.652-.826h.224v.154a1.337,1.337,0,0,1-1.19,1.274C40.488,28.32,40.278,28.054,40.278,27.718ZM46.228,30H48.65V26.808a2.9,2.9,0,0,1,.14-.952,1.419,1.419,0,0,1,1.428-1.036c.532,0,.8.28.8.952V30h2.422V25.324c0-2.03-1.134-2.7-2.59-2.7a2.544,2.544,0,0,0-2.3,1.246h-.028a3.815,3.815,0,0,0,.028-.448v-.63H46.228Zm8.414-3.612c0,2.24,1.288,3.78,3.248,3.78a2.408,2.408,0,0,0,2.086-1.05H60s-.014.182-.014.406V30h2.268V19.99H59.836v2.884c0,.182.014.322.014.322h-.028s-.434-.574-1.89-.574C56.014,22.622,54.642,24.106,54.642,26.388Zm2.436,0c0-1.106.658-1.722,1.414-1.722.952,0,1.414.854,1.414,1.722,0,1.246-.686,1.778-1.414,1.778C57.652,28.166,57.078,27.466,57.078,26.388ZM67.536,30h2.45V26.29h3.052v-2.1H69.986v-2.1h3.682v-2.1H67.536Zm6.888-3.612a3.739,3.739,0,0,0,3.962,3.78,4.869,4.869,0,0,0,3.08-1.05l-.9-1.694a3.78,3.78,0,0,1-1.988.728,1.61,1.61,0,0,1-1.68-1.288h4.55s.056-.518.056-.756a3.2,3.2,0,0,0-3.332-3.486A3.589,3.589,0,0,0,74.424,26.388Zm2.534-.91a1.182,1.182,0,0,1,1.162-1.036.982.982,0,0,1,.952,1.036Zm5.376.91c0,2.24,1.288,3.78,3.248,3.78a2.408,2.408,0,0,0,2.086-1.05H87.7s-.014.182-.014.406V30H89.95V19.99H87.528v2.884c0,.182.014.322.014.322h-.028s-.434-.574-1.89-.574C83.706,22.622,82.334,24.106,82.334,26.388Zm2.436,0c0-1.106.658-1.722,1.414-1.722.952,0,1.414.854,1.414,1.722,0,1.246-.686,1.778-1.414,1.778C85.344,28.166,84.77,27.466,84.77,26.388Zm6.454,0a3.739,3.739,0,0,0,3.962,3.78,4.869,4.869,0,0,0,3.08-1.05l-.9-1.694a3.78,3.78,0,0,1-1.988.728,1.61,1.61,0,0,1-1.68-1.288h4.55s.056-.518.056-.756a3.2,3.2,0,0,0-3.332-3.486A3.589,3.589,0,0,0,91.224,26.388Zm2.534-.91a1.182,1.182,0,0,1,1.162-1.036.982.982,0,0,1,.952,1.036ZM99.624,30h2.422V27.27a3.269,3.269,0,0,1,.126-.98,1.82,1.82,0,0,1,1.862-1.26,2.577,2.577,0,0,1,.49.042v-2.38a1.637,1.637,0,0,0-.28-.028,2.5,2.5,0,0,0-2.3,1.792h-.028a3.815,3.815,0,0,0,.028-.448V22.79H99.624Zm5.474-2.156a2.306,2.306,0,0,0,2.45,2.324,2.244,2.244,0,0,0,2.044-1.05h.028a3.815,3.815,0,0,0-.028.448V30H111.8V25.562c0-1.834-1.218-2.94-3.248-2.94a5.453,5.453,0,0,0-3.024.938l.84,1.708a4.3,4.3,0,0,1,1.946-.686c.6,0,1.064.2,1.064.8v.126h-.1C108.164,25.506,105.1,25.744,105.1,27.844Zm2.436-.126c0-.6.882-.826,1.652-.826h.224v.154a1.337,1.337,0,0,1-1.19,1.274C107.744,28.32,107.534,28.054,107.534,27.718Zm5.852-.378c0,2.422,1.372,2.73,2.66,2.73a6.585,6.585,0,0,0,.728-.042v-2.1s-.14.014-.294.014c-.546,0-.672-.238-.672-.924V19.99h-2.422ZM1.176,47H4.732C7.882,47,9.9,45.124,9.9,41.974S7.882,36.99,4.732,36.99H1.176Zm2.45-2.1V39.09H4.634a2.563,2.563,0,0,1,2.73,2.884c0,1.918-1.036,2.926-2.73,2.926Zm7.742-6.02h2.366V36.99H11.368ZM11.34,47h2.422V39.79H11.34Zm3.654-.9a4.342,4.342,0,0,0,2.884,1.064c1.862,0,2.954-1.05,2.954-2.282,0-2.324-3.374-2.408-3.374-2.954,0-.252.35-.35.714-.35a2.88,2.88,0,0,1,1.708.588l.826-1.722a3.774,3.774,0,0,0-2.534-.826c-1.666,0-2.968.84-2.968,2.2,0,2.352,3.374,2.422,3.374,3.052,0,.238-.35.336-.714.336a3.034,3.034,0,0,1-1.834-.728Zm6.608-1.26a2.306,2.306,0,0,0,2.45,2.324,2.244,2.244,0,0,0,2.044-1.05h.028a3.815,3.815,0,0,0-.028.448V47h2.212V42.562c0-1.834-1.218-2.94-3.248-2.94a5.453,5.453,0,0,0-3.024.938l.84,1.708a4.3,4.3,0,0,1,1.946-.686c.6,0,1.064.2,1.064.8v.126h-.1C24.668,42.506,21.6,42.744,21.6,44.844Zm2.436-.126c0-.6.882-.826,1.652-.826h.224v.154a1.337,1.337,0,0,1-1.19,1.274C24.248,45.32,24.038,45.054,24.038,44.718ZM29.988,47h2.268v-.238c0-.224-.014-.406-.014-.406h.028a2.577,2.577,0,0,0,1.974.812c1.918,0,3.36-1.484,3.36-3.766,0-2.24-1.288-3.78-3.248-3.78a2.678,2.678,0,0,0-1.946.77h-.028s.028-.252.028-.616V36.99H29.988Zm2.352-3.556c0-1.246.686-1.778,1.414-1.778.84,0,1.414.7,1.414,1.778,0,1.106-.658,1.722-1.414,1.722C32.8,45.166,32.34,44.312,32.34,43.444Zm6.594-4.564H41.3V36.99H38.934ZM38.906,47h2.422V39.79H38.906Zm4.116-2.66c0,2.422,1.372,2.73,2.66,2.73a6.585,6.585,0,0,0,.728-.042v-2.1s-.14.014-.294.014c-.546,0-.672-.238-.672-.924V36.99H43.022Zm4.648-5.46h2.366V36.99H47.67ZM47.642,47h2.422V39.79H47.642Zm4.578-2.66c0,2.422,2.226,2.73,3.374,2.73a4.661,4.661,0,0,0,.658-.042v-2.1s-.126.014-.322.014c-.462,0-1.288-.112-1.288-.924V41.806h1.512v-1.89H54.642V37.844H52.29v2.072H51.3v1.89h.924Zm4.564,5.1a3.248,3.248,0,0,0,1.68.5,3.106,3.106,0,0,0,3.01-2.17l2.954-7.98H61.782l-.91,3.36c-.1.392-.238,1.078-.238,1.078h-.028s-.14-.728-.266-1.12L59.276,39.79H56.532L59.6,46.86l-.14.336a1.152,1.152,0,0,1-1.162.728,1.608,1.608,0,0,1-.742-.266ZM68.8,47h2.45V36.99H68.8Zm4.522,0H75.74V43.808a2.9,2.9,0,0,1,.14-.952,1.419,1.419,0,0,1,1.428-1.036c.532,0,.8.28.8.952V47h2.422V42.324c0-2.03-1.134-2.7-2.59-2.7a2.544,2.544,0,0,0-2.3,1.246h-.028a3.815,3.815,0,0,0,.028-.448v-.63H73.318Zm8.344-.9a4.342,4.342,0,0,0,2.884,1.064c1.862,0,2.954-1.05,2.954-2.282,0-2.324-3.374-2.408-3.374-2.954,0-.252.35-.35.714-.35a2.88,2.88,0,0,1,1.708.588l.826-1.722a3.774,3.774,0,0,0-2.534-.826c-1.666,0-2.968.84-2.968,2.2,0,2.352,3.374,2.422,3.374,3.052,0,.238-.35.336-.714.336A3.034,3.034,0,0,1,82.7,44.48Zm7.056-1.638c0,2.03,1.134,2.7,2.562,2.7a2.5,2.5,0,0,0,2.254-1.246h.028a3.815,3.815,0,0,0-.028.448V47h2.324V39.79H93.436v3.192c0,1.078-.49,1.988-1.526,1.988-.5,0-.77-.28-.77-.952V39.79H88.718ZM97.65,47h2.422V44.27a3.269,3.269,0,0,1,.126-.98,1.82,1.82,0,0,1,1.862-1.26,2.577,2.577,0,0,1,.49.042v-2.38a1.637,1.637,0,0,0-.28-.028,2.5,2.5,0,0,0-2.3,1.792h-.028a3.815,3.815,0,0,0,.028-.448V39.79H97.65Zm5.474-2.156a2.306,2.306,0,0,0,2.45,2.324,2.244,2.244,0,0,0,2.044-1.05h.028a3.815,3.815,0,0,0-.028.448V47h2.212V42.562c0-1.834-1.218-2.94-3.248-2.94a5.453,5.453,0,0,0-3.024.938l.84,1.708a4.3,4.3,0,0,1,1.946-.686c.6,0,1.064.2,1.064.8v.126h-.1C106.19,42.506,103.124,42.744,103.124,44.844Zm2.436-.126c0-.6.882-.826,1.652-.826h.224v.154a1.337,1.337,0,0,1-1.19,1.274C105.77,45.32,105.56,45.054,105.56,44.718ZM111.51,47h2.422V43.808a2.9,2.9,0,0,1,.14-.952A1.419,1.419,0,0,1,115.5,41.82c.532,0,.8.28.8.952V47h2.422V42.324c0-2.03-1.134-2.7-2.59-2.7a2.544,2.544,0,0,0-2.3,1.246h-.028a3.815,3.815,0,0,0,.028-.448v-.63H111.51Zm8.372-3.612a3.749,3.749,0,0,0,4.018,3.78,4.338,4.338,0,0,0,3.094-1.19l-.882-1.694a3.52,3.52,0,0,1-1.974.868,1.742,1.742,0,0,1-1.806-1.792,1.658,1.658,0,0,1,1.722-1.722,2.627,2.627,0,0,1,1.694.7l1.022-1.624a3.8,3.8,0,0,0-2.87-1.092A3.762,3.762,0,0,0,119.882,43.388Zm7.728,0a3.739,3.739,0,0,0,3.962,3.78,4.869,4.869,0,0,0,3.08-1.05l-.9-1.694a3.78,3.78,0,0,1-1.988.728,1.61,1.61,0,0,1-1.68-1.288h4.55s.056-.518.056-.756a3.2,3.2,0,0,0-3.332-3.486A3.589,3.589,0,0,0,127.61,43.388Zm2.534-.91a1.182,1.182,0,0,1,1.162-1.036.982.982,0,0,1,.952,1.036ZM141.414,47h2.45V39.09H146.9v-2.1h-8.526v2.1h3.038Zm6.062,0H149.9V44.27a3.269,3.269,0,0,1,.126-.98,1.82,1.82,0,0,1,1.862-1.26,2.577,2.577,0,0,1,.49.042v-2.38a1.637,1.637,0,0,0-.28-.028,2.5,2.5,0,0,0-2.3,1.792h-.028a3.815,3.815,0,0,0,.028-.448V39.79h-2.324Zm5.922-2.534c0,2.03,1.134,2.7,2.562,2.7a2.5,2.5,0,0,0,2.254-1.246h.028a3.815,3.815,0,0,0-.028.448V47h2.324V39.79h-2.422v3.192c0,1.078-.49,1.988-1.526,1.988-.5,0-.77-.28-.77-.952V39.79H153.4ZM161.77,46.1a4.342,4.342,0,0,0,2.884,1.064c1.862,0,2.954-1.05,2.954-2.282,0-2.324-3.374-2.408-3.374-2.954,0-.252.35-.35.714-.35a2.88,2.88,0,0,1,1.708.588l.826-1.722a3.774,3.774,0,0,0-2.534-.826c-1.666,0-2.968.84-2.968,2.2,0,2.352,3.374,2.422,3.374,3.052,0,.238-.35.336-.714.336a3.034,3.034,0,0,1-1.834-.728Zm7.518-1.764c0,2.422,2.226,2.73,3.374,2.73a4.661,4.661,0,0,0,.658-.042v-2.1s-.126.014-.322.014c-.462,0-1.288-.112-1.288-.924V41.806h1.512v-1.89H171.71V37.844h-2.352v2.072h-.994v1.89h.924ZM1.176,64h2.45V60.29H6.678v-2.1H3.626v-2.1H7.308v-2.1H1.176Zm7.252-2.534c0,2.03,1.134,2.7,2.562,2.7a2.5,2.5,0,0,0,2.254-1.246h.028a3.815,3.815,0,0,0-.028.448V64h2.324V56.79H13.146v3.192c0,1.078-.49,1.988-1.526,1.988-.5,0-.77-.28-.77-.952V56.79H8.428ZM17.36,64h2.422V60.808a2.9,2.9,0,0,1,.14-.952A1.419,1.419,0,0,1,21.35,58.82c.532,0,.8.28.8.952V64H24.57V59.324c0-2.03-1.134-2.7-2.59-2.7a2.544,2.544,0,0,0-2.3,1.246h-.028a3.815,3.815,0,0,0,.028-.448v-.63H17.36Zm8.414-3.612c0,2.24,1.288,3.78,3.248,3.78a2.408,2.408,0,0,0,2.086-1.05h.028s-.014.182-.014.406V64H33.39V53.99H30.968v2.884c0,.182.014.322.014.322h-.028s-.434-.574-1.89-.574C27.146,56.622,25.774,58.106,25.774,60.388Zm2.436,0c0-1.106.658-1.722,1.414-1.722.952,0,1.414.854,1.414,1.722,0,1.246-.686,1.778-1.414,1.778C28.784,62.166,28.21,61.466,28.21,60.388Zm10.22.5h8.344v-1.82H38.43ZM51.464,62.74a5.059,5.059,0,0,0,2.856,1.372v1.274h1.526V64.112a3.072,3.072,0,0,0,2.8-3.052c0-3.094-4.55-3.01-4.55-4.2,0-.56.56-.784,1.064-.784a3.82,3.82,0,0,1,2.212.882l1.036-2a4.378,4.378,0,0,0-2.562-1.092V52.59H54.32v1.316a3.04,3.04,0,0,0-2.674,2.982c0,3.01,4.55,3.108,4.55,4.228,0,.6-.546.8-1.05.8a4.148,4.148,0,0,1-2.394-1.036ZM59.99,64h6.93V61.9H62.664c.07-1.288,4.1-1.89,4.1-5.012a3.123,3.123,0,0,0-3.416-3.066,3.86,3.86,0,0,0-3.528,2.156l1.82,1.218s.532-1.064,1.484-1.064a.989.989,0,0,1,1.078.994c0,1.442-4.326,2.1-4.326,5.8A6.134,6.134,0,0,0,59.99,64Zm8.442,0h2.3V61.7h-2.3Zm3.724-2.94c0,1.6,1.274,3.108,3.71,3.108,2.478,0,3.71-1.526,3.71-3.052A2.443,2.443,0,0,0,78.4,59a4.232,4.232,0,0,0,.98-2.282c0-1.862-1.526-2.9-3.388-2.9-2.338,0-3.36,1.428-3.36,2.884a2.433,2.433,0,0,0,.91,1.918A3.349,3.349,0,0,0,72.156,61.06Zm4.914-.07c0,.658-.462,1.022-1.2,1.022a1.178,1.178,0,0,1-1.2-1.162,1.8,1.8,0,0,1,.532-1.218C76.174,60.08,77.07,60.416,77.07,60.99Zm-2.044-4.228c0-.434.28-.784.91-.784a.921.921,0,0,1,1.05.924,2.524,2.524,0,0,1-.35,1.232C75.754,57.756,75.026,57.42,75.026,56.762Zm5.852,4.3c0,1.6,1.274,3.108,3.71,3.108,2.478,0,3.71-1.526,3.71-3.052A2.443,2.443,0,0,0,87.122,59a4.232,4.232,0,0,0,.98-2.282c0-1.862-1.526-2.9-3.388-2.9-2.338,0-3.36,1.428-3.36,2.884a2.433,2.433,0,0,0,.91,1.918A3.349,3.349,0,0,0,80.878,61.06Zm4.914-.07c0,.658-.462,1.022-1.2,1.022a1.178,1.178,0,0,1-1.2-1.162,1.8,1.8,0,0,1,.532-1.218C84.9,60.08,85.792,60.416,85.792,60.99Zm-2.044-4.228c0-.434.28-.784.91-.784a.921.921,0,0,1,1.05.924,2.524,2.524,0,0,1-.35,1.232C84.476,57.756,83.748,57.42,83.748,56.762ZM89.894,64h2.548l4.2-8.3V53.99H89.46v2.1h3.948a2.8,2.8,0,0,0,.644-.042v.028a2.8,2.8,0,0,0-.644.91Zm11.494-2.66c0,2.422,2.226,2.73,3.374,2.73a4.661,4.661,0,0,0,.658-.042v-2.1s-.126.014-.322.014c-.462,0-1.288-.112-1.288-.924V58.806h1.512v-1.89H103.81V54.844h-2.352v2.072h-.994v1.89h.924ZM106.834,64h2.422V61.27a3.269,3.269,0,0,1,.126-.98,1.82,1.82,0,0,1,1.862-1.26,2.577,2.577,0,0,1,.49.042v-2.38a1.637,1.637,0,0,0-.28-.028,2.5,2.5,0,0,0-2.3,1.792h-.028a3.815,3.815,0,0,0,.028-.448V56.79h-2.324Zm6.048-8.12h2.366V53.99h-2.366ZM112.854,64h2.422V56.79h-2.422Zm4.116-2.66c0,2.422,1.372,2.73,2.66,2.73a6.585,6.585,0,0,0,.728-.042v-2.1s-.14.014-.294.014c-.546,0-.672-.238-.672-.924V53.99H116.97Zm4.522,0c0,2.422,1.372,2.73,2.66,2.73a6.585,6.585,0,0,0,.728-.042v-2.1s-.14.014-.294.014c-.546,0-.672-.238-.672-.924V53.99h-2.422Zm4.648-5.46h2.366V53.99H126.14ZM126.112,64h2.422V56.79h-2.422Zm3.682-3.584a4.1,4.1,0,1,0,4.074-3.794A3.811,3.811,0,0,0,129.794,60.416Zm2.45,0a1.644,1.644,0,1,1,3.276,0,1.641,1.641,0,1,1-3.276,0ZM139.23,64h2.422V60.808a2.9,2.9,0,0,1,.14-.952,1.419,1.419,0,0,1,1.428-1.036c.532,0,.8.28.8.952V64h2.422V59.324c0-2.03-1.134-2.7-2.59-2.7a2.544,2.544,0,0,0-2.3,1.246h-.028a3.815,3.815,0,0,0,.028-.448v-.63H139.23Z" transform="translate(1420.178 8151)" fill="#efefef"/>
  </g>
</svg>
