<svg xmlns="http://www.w3.org/2000/svg" viewBox="0 0 985.28 449.28"><defs><style>.cls-1{fill:#efefef;}</style></defs><g id="Layer_3" data-name="Layer 3"><path class="cls-1" d="M185.45,320.48c-4.69-15.29,3.37-28.07,19.59-29.14,8.13-.54,16.3-.57,24.45-.81,4.16-.11,8.33-.07,12.49-.27,13.28-.62,15.43-1.59,17.09-16.37,2.16-19.34,5.57-38.4,13.11-56.48.59-1.42,2.05-2.52,3.22-3.65,8.72-8.41,17.32-16.95,26.26-25.12,8-7.33,16.36-14.31,24.68-21.3,9.1-7.65,18.51-14.92,27.43-22.76,10.06-8.83,19.82-18,29.53-27.22,7.89-7.49,15.67-15.12,23.14-23,2.14-2.26,3.27-5.63,4.38-8.67,1.41-3.84,2.32-7.86,3.44-11.82,12.43,4.48,13.36,7.92,13.86,16.83.52,9.14-2.69,16.33-9.42,22.43-9.41,8.55-18.35,17.61-27.82,26.08-9.83,8.81-20.13,17.09-30.09,25.77-12.09,10.53-24,21.3-36.05,31.84-7.83,6.83-15.81,13.48-23.81,20.11-8.56,7.11-12.36,16.47-13.85,27.22-1.6,11.51-3.83,22.93-5.48,34.44-2.77,19.3-18.58,32.78-39.12,33.54-12.64.47-25.3.79-37.95.73-6.32,0-11.86,1-16.28,5.85A14.79,14.79,0,0,1,185.45,320.48Z"/><path class="cls-1" d="M331.52,325.54l-1.94,2.13c3,2.7,5.05,5.13,4.58,9.73-.43,4.2,4.1,6.58,7.95,6.85,5.22.36,10.53-.44,15.8-.82,2.63-.19,5.3-1.05,7.85-.75,4.41.54,8.59,1.37,10.72,6.55,2.47,6,1.37,11.12-2.09,15.88-1.7,2.34-4.42,4-6.82,5.73-5.21,3.79-10.77,7.13-15.71,11.22s-5.58,11.91-3,18c2.27,5.46,11.11,8.16,16.14,7.46,3.18-.45,6.32-1.22,10-1.95-5.06,8.58-22.14,18.63-33.61,15.46-7.88-2.18-13.15-7.45-14.61-15.45-1.27-7,.56-13.13,6.92-17.85,6.62-4.91,12.45-10.89,18.78-16.23,3.58-3,3.6-7.18,2.09-10.41-1.35-2.87-4.73-6.3-7.57-6.67-7.32-.94-14.83-.33-22.26-.32-9.25,0-11.48-2.6-11-12,.07-1.57-1.36-4.37-2.54-4.63-4.4-1-3.19-3.26-1.89-5.91-8.41-1.74-1.3-7.28-3-11.06-2.67-.3-5.58-.75-8.5-.94-3.87-.26-4.52-2.47-3.05-5.39a66.39,66.39,0,0,1,6.77-11.5c2.79-3.52,3-6.45,1.13-10.45a18.94,18.94,0,0,1-1.91-9.91c1.37-10.19,3.2-20.34,5.39-30.39,1.57-7.2,7.3-11.67,12.55-16.29,10.44-9.18,20.92-18.31,31.28-27.57,9.36-8.35,18.46-17,27.92-25.25,9.71-8.46,19.83-16.44,29.55-24.89,4.84-4.21,9.77-8.55,13.57-13.64,3.93-5.25,6.54-11.48,9.88-17.58,10.51,2.48,15.35,12.23,9.13,22.22a92.48,92.48,0,0,1-14.6,17.4c-9.06,8.71-18.8,16.71-28.17,25.09-7.86,7-15.49,14.33-23.44,21.25-8.58,7.46-17.48,14.55-26.13,21.92-6.54,5.57-13.2,11-19.24,17.13-2.28,2.31-3.45,6.09-4.27,9.4-1.54,6.26-2.39,12.68-3.66,19a11.07,11.07,0,0,0,2.1,9.73c2.75,3.6,1.88,7.79-.68,11.49-1.51,2.17-3.24,4.22-4.54,6.51-2.39,4.21-1.56,6.16,3.15,7,3.48.64,6.45.83,5.79,5.93C326.1,322.09,329.67,323.93,331.52,325.54Z"/><path class="cls-1" d="M489.81,203.77c-5.46,23.81-10.68,46.51-15.89,69.23H456.1c3.27-13,6.48-25.69,9.65-38.39,3.94-15.77,8-31.52,11.7-47.34.72-3.05,1.91-4.06,5-4,5.82.21,11.66.23,17.47,0,3.4-.14,4.6,1,4.82,4.43,1.16,18.4,2.55,36.79,3.88,55.19a14,14,0,0,0,.56,2c3.21-7.48,6-14.5,9.19-21.32q8.77-18.72,18-37.22c.66-1.32,2.5-2.85,3.85-2.9,7.62-.27,15.26-.13,23.55-.13-4.06,30.13-8.06,59.79-12.08,89.61H532.9c3.52-23,7-45.74,10.67-69.61-1.2,2.33-1.93,3.69-2.59,5.08-9.37,19.44-18.81,38.85-28,58.37-1.73,3.69-3.87,5-7.94,4.93-9.52-.28-9.59-.07-10.37-9.17C493.05,243.41,491.5,224.2,489.81,203.77Z"/><path class="cls-1" d="M442,178.21c6.56,8.77,6.44,18.44-1.39,26.18-8.12,8-16.93,15.34-25.42,23-7.71,6.92-15.33,13.94-23.12,20.78-3.1,2.71-6.58,5-9.81,7.54-8.35,6.66-12.61,14.79-10.71,26,.68,4-.63,8.47-1.82,12.49-1,3.5-1.41,5.65,3,6.49,1.2.22,2.08,2.26,3.06,3.5.8,1,1.56,2,2.3,3.07a14.75,14.75,0,0,1,1.48,2.33c.17.37-.29,1.24-.11,1.36a20.19,20.19,0,0,1,7.37,7.73c.89,1.71,7.06,1.74,10.43.9,8-2,15.52-6,23.55-7.19a56,56,0,0,1,22.55,1.28c11.05,3.11,21.9,5.36,33.35,3.71.75-.11,1.53,0,3,1.15-5.71,5.41-11.34,10.92-17.2,16.17a9.21,9.21,0,0,1-5.4,2.28c-10.58.32-20.95.89-30.72-5.44s-20.85-7.64-32.29-2.62A59.32,59.32,0,0,1,377.33,333c-8.49,1-11.57-2.42-11.86-10.79-.05-1.62-2.19-3.17-3.36-4.75l-1.17.57c.25-1.23.51-2.46.64-3.1-1.13-1.62-2.93-3-2.77-4.14.67-4.74-2.14-5.19-5.61-5.45-5.33-.42-5.8-1.22-3.76-6a39.25,39.25,0,0,1,2.63-5.37c2.09-3.35,3.25-6.4-.2-9.79-.94-.92-1.17-3.25-.82-4.71,1.94-8,3.81-16.09,6.46-23.89.95-2.78,3.84-5.07,6.2-7.19,10.71-9.6,21.44-19.18,32.36-28.54,9-7.71,18.53-14.83,27.36-22.72C429.94,191.32,435.72,184.66,442,178.21Z"/><path class="cls-1" d="M160.8,348.57c-2.56-11.91,5.2-22.82,15.24-22a173.86,173.86,0,0,1,34.71,5.88c21.45,6.19,42.54,13.66,63.75,20.68,6.73,2.22,13.64,4.15,20,7.17a180,180,0,0,1,20.55,11.9c5.08,3.28,4.94,11.24.24,15.76-6.2,5.95-12.82,11.57-18.29,18.13-2.43,2.9-4.24,8.27-3.29,11.67,3.83,13.67,11.3,19.69,25.5,17.89a9.37,9.37,0,0,1,5,.37c-1.1,1.22-2,2.9-3.33,3.56A145.69,145.69,0,0,1,304.07,447c-13.76,4.66-21.06,2.42-29.06-7.84-3.95-5.07-4-11.12-1.37-17,3.59-8.08,9.66-14,16.33-19.65,10.17-8.56,8.63-18.42-3.74-23.76-14.89-6.43-29.74-13.09-45-18.41-17.5-6.08-35.47-10.79-53.24-16.1a47.45,47.45,0,0,0-6.67-2C173.93,341.13,166.22,338.86,160.8,348.57Z"/><path class="cls-1" d="M693.45,273H677.6v-8.9c-3,2.33-5.46,4.7-8.33,6.46-15.9,9.72-32.74.39-33.6-18.28-1.09-24,18.26-47.78,49.74-43.2l5.64-29.25h19.53C704.89,210.75,699.23,241.51,693.45,273Zm-37.91-25c.57,4.2,1.05,8.72,6.21,10.66s9.37-.46,12.24-4.25a41.32,41.32,0,0,0,5.64-11.48c1.29-3.73,1.61-7.78,2.44-11.67,1.45-6.82-.07-9.08-7-8a23.68,23.68,0,0,0-11.43,5.22C658,233.32,655.89,240.26,655.54,248Z"/><path class="cls-1" d="M860.12,273H842.8c.24-3.91.47-7.63.77-12.35-2.26,2.65-3.8,4.71-5.59,6.52-6.68,6.81-16.59,9.19-24.71,5.53-8.6-3.87-11.66-11.24-11.71-20.24-.13-24.46,18-43.32,42.76-43.89,6.75-.16,13.52,1.1,20.29,1.6,4.37.32,5.25,2.16,4.35,6.51-3,14.44-5.49,29-8,43.51C860.31,264.27,860.41,268.45,860.12,273Zm-11.63-49.2c-15.84-3-31.21,14.81-26.32,29.23,1.76,5.19,6.57,7.78,10.89,4.62a28.78,28.78,0,0,0,9.47-11.55C845.38,239.15,846.54,231.49,848.49,223.83Z"/><path class="cls-1" d="M943.7,248.27c.86,7.3,4.37,11,11.64,10.93,6.7-.05,13.38-1.35,20.58-2.16.35,2.93,1,6.46,1.08,10a4.19,4.19,0,0,1-2.14,3.17c-11,4.33-22.21,5.69-33.64,2.18-9.23-2.84-14.32-9.62-15.6-18.88-3.49-25.37,15.22-46.63,39.44-45.11,12.37.78,20.63,8.58,20.2,20-.26,6.78-3.35,12.34-9.57,14.55-7.25,2.57-15,3.81-22.61,5.24C950.07,248.74,946.87,248.27,943.7,248.27Zm1.88-13.21c6.06-.94,11.82-1.46,17.33-2.92,1.8-.47,2.94-3.42,4.38-5.24-2-1.49-3.76-3.9-5.92-4.3C954.44,221.31,947.75,226.56,945.58,235.06Z"/><path class="cls-1" d="M588,248.27c.92,7.27,4.59,11,11.76,11,6.69-.08,13.38-1.4,20.51-2.23a89.62,89.62,0,0,1,1,10.06,4.66,4.66,0,0,1-2.57,3.37c-10.32,4-21,5.26-31.8,2.48-9.88-2.54-15.39-9.5-17-19.4-4-24.73,14.64-45.89,39.54-45,12.61.44,20.86,8.77,20.12,20.46-.5,7.93-5.17,13.11-12.29,15.36-6.41,2-13.24,2.86-19.94,3.89C594.4,248.64,591.36,248.27,588,248.27ZM589.58,235c6.12-.88,11.63-1.19,16.83-2.64,2.09-.58,4.86-3.66,4.89-5.62,0-3.48-3.47-4.37-6.68-4.42C597.93,222.25,592.57,226.44,589.58,235Z"/><path class="cls-1" d="M792.41,257.11c0,4,.18,7.82-.1,11.6a4.26,4.26,0,0,1-2.27,3.1c-9.73,2.93-19.58,4-29.25-.11-10.44-4.46-15.56-14.31-14-27.58,3.38-29.66,33.18-40.41,53.86-33.89.29.09.5.4,1.2,1-1.35,4.31-2.75,8.83-4.26,13.68-2-.34-3.73-.71-5.48-.93-13.29-1.74-24.47,7.3-25.48,20.55-.69,9.06,4.49,14.76,13.55,14.44C783.9,258.81,787.63,257.85,792.41,257.11Z"/><path class="cls-1" d="M874.67,273l11-63.21h15.78c-.28,3.84-.56,7.56-.94,12.72,6.32-9.14,13.28-15.2,24.58-13.8-1.07,5.49-1.94,10.7-3.19,15.81A4,4,0,0,1,919,227c-10.65,0-16.14,6.49-18.78,15.53-2.54,8.73-3.93,17.78-5.85,26.69-.27,1.27-.63,2.52-1,3.79Z"/><path class="cls-1" d="M708.54,273.21c4.16-21.54,8.19-42.38,12.27-63.47h19c-1.13,6-2.19,11.83-3.29,17.62-2.69,14.19-5.33,28.39-8.22,42.53-.25,1.28-2,3.1-3.22,3.17C719.8,273.41,714.48,273.21,708.54,273.21Z"/><path class="cls-1" d="M734.7,180.4c6,.08,9.17,3.31,9.19,9.24,0,6.58-4.22,10.72-11,10.71-5.78,0-9.31-3.53-9.27-9.26C723.69,184.68,728.19,180.32,734.7,180.4Z"/><path class="cls-1" d="M28.84,274l-19,4.22L8.58,274l9-.62-2.84-9.71-8,3.14c-.42-1.53-1-3.67-1.66-6,4,1.78,16.74-1.48,19.88-5.35.7,2.62,1.31,4.87,1.73,6.42L16,263.07c1,3.6,1.87,6.38,2.89,9.86L28,269.88Z"/><path class="cls-1" d="M80,57.78,75.11,55.9c8-8.3,12,3.62,18.84,3.2L89.68,43.71,94.44,41c.58,5.83,7.92,15,13,15.16l-5.51,4.4L93.16,46.82l-1.06.51c1.49,5.3,3,10.6,4.72,16.83-4.84-2.35-9-4.49-13.28-6.34-1-.45-2.49,0-3.75.11Z"/><path class="cls-1" d="M47.22,119.61c-1.5,4.11-2.56,8.29-4.57,11.94-1,1.81-4.12,4-5.65,3.61-2.57-.66-4.64-3.26-7.07-5-2.18-1.91-5-3.48-6.22-5.87-.52-1,2.28-3.7,3.56-5.63l6.1,5-.71,1.48,7.43-1.68.46-1.33-6.17-3.8,2.33-4.67c1.38,2.51,2.54,5,4.07,7.3C43.88,125.56,45.11,120.16,47.22,119.61Zm-4.5,8.25-1-1.61-9.33,2-.12,1.82c2.18.58,4.44,1.81,6.5,1.53C40.23,131.4,41.41,129.18,42.72,127.86Zm-12.56-1.73,1.37-2.22-4.47-3.44-1.75,3.07Z"/><path class="cls-1" d="M98.91,401.28l-3.25-2.79c3.7-5.53,7.28-10.88,11.2-16.76l5.68,3.43c-4.5.43-6.22,2.31-12,13.11L115.41,388c-.35,7.46-.67,14.48-1,22.05-7.69-5.44-.19-12.24-2-18.47Z"/><path class="cls-1" d="M150.13,425.14c-1.7-1.5-5-3.33-4.78-4.42.47-2.26,2.82-4.14,5.29-7.32l-2.36-9.21.55-.66a65,65,0,0,1,3.58,5.77c1.11,2.25,1.88,4.68,2.8,7l1.87,0c.63-3,1.25-6,1.93-9.29l6.26,2.11c-3.52,2-8.53,15.43-7,19.79L150,425c5.65.94,4.84-3.71,6.81-8-2.88.38-6.06.17-6.33,1C149.68,420.12,150.15,422.71,150.13,425.14Z"/><path class="cls-1" d="M33.45,150.63l-1.56,4.8-8.38-4.85L19.83,161.3,29,163.37c-.24.94-.71,2.81-1.18,4.68-2.11-3.41-13.73-6.7-18.81-5.2l1.37-5.53,8.2,3.65L22,150.41l-9.71-1.64,1.62-4Z"/><path class="cls-1" d="M251.53,415.9c-3,3.56-2.39,15.73.89,20.8-3.47.22-6.7.6-9.94.6-5.63,0-9.83-4.26-10.19-10.05-.26-4.3,3.9-9.38,8.56-10.14C244.11,416.57,247.43,416.35,251.53,415.9ZM245.88,437l1.33-1.63c-.4-4.43-.65-8.88-1.28-13.27-.2-1.4-1.48-3.79-2.17-3.75-2.15.09-5.95.88-6.1,1.86-.65,4.23-1.13,8.92.18,12.84C238.5,435,243.08,435.7,245.88,437Z"/><path class="cls-1" d="M197.91,1.47c3-.25,5.56-.5,8.17-.67,3.09-.2,6.68-.16,7.31,3.43.36,2-1.65,4.49-3.08,8l7.69,8.1c-7.75,2.65-8-8-15.05-8.63.75,3.62,1.4,6.71,2.06,9.87H199.9C202.21,17.49,201.12,4.78,197.91,1.47Zm5.28,9c3.8-.52,7.47-.66,6.68-5.15-.67-3.78-3.67-4-7.22-2.76C202.82,5.13,203,7.54,203.19,10.51Z"/><path class="cls-1" d="M145.66,36.56l-17.93-9.89c1.75,4.87,2.14,10.39,7.08,13.82l-4.63,2.69c1.17-6.67-4.51-17-9.38-17.76,3.62-4.46,7-1.34,10.38.23s6.84,3.25,10.6,4.58c-2.39-4-2-10-9.62-11l7.8-3.76C137.07,23.87,145.29,28.44,145.66,36.56Z"/><path class="cls-1" d="M194,17.24l1,5.15-17.06,3.47c3.13-4,.76-16.94-3.82-20.16l15.55-3.2c.23,1.92.39,3.31.44,3.75l-10-1.51c.86,3.66,1.38,5.83,2.13,9l5.32-4.55c.48,2.32.95,4.61,1.37,6.66l-6-2.31L181.61,15c1.21,2.62,1.86,6.89,3.74,7.52C189,23.79,192.5,21.79,194,17.24Z"/><path class="cls-1" d="M24,249,3.58,251.06c-.44-3.48-1.07-8.3-1.73-13.44l3.94-.7C5,240.2,4.15,243.45,3,248.13c3.79-.84,6.61-.73,8.09-2.09.81-.75-.65-3.95-1.15-6.4l4.51-.4-1.89,6.54,1.27,1.41c2.76-1.14,7.15-1.63,7.93-3.57,1.55-3.88-.56-7.61-5-9.74l5.3-.58Z"/><path class="cls-1" d="M294.07,27l-2,5.06-16-5.16c7-4.12,5.09-12,9-18.37l12.1,3.64c-.56,1.78-1,3.1-1.2,3.77l-8-6.62c-1.19,3.64-2,6.07-3.17,9.74L292,18l-2,6.26c-1.26-1.68-2.49-3.31-3.73-4.94l-2,.46c-.24,2.67-1.68,6.47-.46,7.79C286.68,30.65,290.56,30,294.07,27Z"/><path class="cls-1" d="M128.27,43l-5.09,3.16c-3-1.39-5.24-3.15-7.48-3.18-1.49,0-3.78,2.2-4.28,3.84-.37,1.24,1.54,3.17,2.7,5.29l-3.57,2.28-3.12-22.9C115.1,33.91,118.18,43.2,128.27,43Z"/><path class="cls-1" d="M226.68,418c-3.46,3.69-3.78,16.54-.49,20.23H211.4c-.2-1.62-.36-3-.49-4.1l9.54,4.12V428.16l-5.8,2.74v-6l5.43,2.75,1.43-1.06c-.72-2.47-1.13-6.86-2.22-7-2.84-.46-6,.93-9.17,1.62V418Z"/><path class="cls-1" d="M168.44,410.41l5.38,1.19c0,2.75-.75,5.38.18,7.13,1.3,2.48,7.3,1.69,10.38-.31-3.5,4.76-7,9.53-11.28,15.38C171.41,425.32,169.92,417.86,168.44,410.41Z"/><path class="cls-1" d="M199.34,416.29l5.54.92c-4.95,6.17-2.22,13.14-2.89,20.16-2.46-.31-5.53-.54-8.53-1.12s-5.45-1.91-5.31-5.48c.15-3.81,2.58-5.57,6.08-6a55.26,55.26,0,0,1,5.88,0C199.84,421.8,199.61,419.21,199.34,416.29Zm-1.05,19.34c.32-3.15.63-6.27,1-9.37-4.19-.63-6.82.24-7.2,4.12S194.11,435.54,198.29,435.63Z"/><path class="cls-1" d="M316.08,21.16c-.66,1.44-1.32,2.88-2.49,5.41-.56-2.44-.5-4.06-1.27-5a16.1,16.1,0,0,0-4.4-3.46c-.27-.16-2,1.07-1.94,1.63,0,1.87-.1,4.55,1,5.46,3.49,2.84,6.66,5.46,3.42,10.22-2.33,3.43-5.5,3-11.68-1a15.85,15.85,0,0,0-2.62-1.05c.78-1.9,1.52-3.73,2.56-6.24,1,3.05,1.28,5.52,2.59,7.15.95,1.19,3.28,1.28,5,1.86.42-1.91,1.4-3.92,1.09-5.7a8,8,0,0,0-3.13-4.32c-2.81-2.12-2.63-4.5-1-6.92,1.86-2.72,4.59-3.16,7.46-1.6C312.4,18.45,313.92,19.68,316.08,21.16Z"/><path class="cls-1" d="M371.13,84.07l-3.79-4.24L377.11,78c1.37,1.81,2.68,3.57,4.39,5.84l3.16-6.12-5.08-.45,10.76-3.82c-3.73,7.58-7,14.2-10.49,21.29L377,91.68c1.42-2.89,3.69-5.37,3.19-7-.59-2-3.47-3.36-5.62-4.52C374.27,80,372.51,82.47,371.13,84.07Z"/><path class="cls-1" d="M0,221.18l21.4-9v3.92c-2.5.87-5.78,1-6.5,2.47a9.18,9.18,0,0,0,.25,7.4c.56,1.06,4.11.55,6.68.78v4.4Zm6,1.07,6.7,3.11V219Z"/><path class="cls-1" d="M73.43,352.52q-1.2,9.19-2.39,18.4l.95.7,7.54-6.38.6.54-10.8,11.48c-1.8-.78-2.39-3-1.61-6.44,1-4.6,1.38-9.35,2.15-15.06l-7,6.18L62,361l10.37-9.11Z"/><path class="cls-1" d="M275.7,7.55c-.48,1.62-1,3.25-1.81,6.07-1.38-4.9-2-9.44-7.69-7.55-4.51,1.51-7,7.72-5.36,13,1.34,4.38,4.41,6,9.25,4.85a14.46,14.46,0,0,1,1.56-.19,8.82,8.82,0,0,1-11.45-.23c-3.52-3-4.62-9.71-2.25-13.7C261.28,4.19,266,3.57,275.7,7.55Z"/><path class="cls-1" d="M5.37,180.68l3.39,6.68-5.1-1.19c1-5.35,1.85-10.41,3.13-15.35.28-1.08,2.23-1.74,3.4-2.59l.75,1c-1.47,2-2.95,4.1-4.95,6.9,7.39,1.05,13.32,4.48,20.15,2.27l-1.26,6.12C19.83,178.71,12.34,183,7,179.45Z"/><path class="cls-1" d="M91.1,381.21c1.57-3,7.42-4.71,3.33-10.24l5.13,6.61c-2.2.11-11.5,11.69-11,15.73l-4.26-3.56,6.43-5.58-1.11-2.28L82.78,380l3.91-4.91,2.78,6.46Z"/><path class="cls-1" d="M229.67,21.78,220.52,0h6.29c-2.58,6,3,9.94,4.11,15.34L236.4,5.2l.81.36C234.83,10.68,232.46,15.79,229.67,21.78Z"/><path class="cls-1" d="M140.74,400.62c-4,1.42-10.35,12.11-9.43,15.82.2.8,2,1.75,3,1.69,1.35-.1,2.63-1.11,4.7-2.08l-2.31,5.41c-3.86-2-7.44-3.8-11.24-5.74,4.59-1.92,9.42-14.18,7.1-19Z"/><path class="cls-1" d="M373.26,58.38c-5.66-.49-6.79,1.19-4.46,6.41a17.88,17.88,0,0,1,1.95,6c.21,4.39-3.85,6.38-8.89,4.66,1.63-1.07,4.29-1.86,4.7-3.3.53-1.89-.94-4.26-1.13-6.46-.22-2.55-1-6,.29-7.47s4.92-1.23,7.51-1.73Z"/><path class="cls-1" d="M51.65,94.14l5.1-3.81-9.81-5.11,4-5.31c.89,4.14,12.36,13.23,16.34,12.93l-3.86,4-5.84-5.23-5.93,2.49Z"/><path class="cls-1" d="M245.14,1.35l7.72.7c-3.48,4.69-4.42,17.14-1.29,20.7l-8.85-1.2C246.66,18.82,248.5,5.68,245.14,1.35Z"/><path class="cls-1" d="M79.63,78.78c-1.26,5.71-7.51,8-12.27,3.8-2.1-1.87-4-4-6.19-5.75-1.22-1-2.88-1.39-4.68-2.22l4.77-5.06C62,74,68.68,81.65,72.62,81.69,75.08,81.71,77.56,79.7,79.63,78.78Z"/><path class="cls-1" d="M168,27.45c.52-1.39,1.86-3.24,1.39-4.07a10.22,10.22,0,0,0-4.31-3.48c-1.1-.54-2.92.18-3.86-.46-1.9-1.29-4.29-2.88-4.82-4.81-.49-1.73,1.24-4.08,3-5.71-.11,1.72-.93,4-.15,5,1,1.33,3.25,1.82,5.05,2.43,1.39.47,3.34.11,4.27,1,1.55,1.41,3.42,3.49,3.42,5.29s-2.09,3.7-3.26,5.55Z"/><path class="cls-1" d="M22,207.76c-4-3.31-16.33-4.34-20.62-1.93l.63-5.61,20.29,1.95Z"/><path class="cls-1" d="M51.61,94.13l-1,5.14,8.5,4.64-3.71,5C54.17,105,43.07,96.27,39.08,96.18l4-4.25,5.46,5.95c1.28-1.52,2.21-2.63,3.13-3.74Z"/><path class="cls-1" d="M48,354.43l-3-3.78c4,0,15.19-8.91,16.51-12.87l3.5,4.84C58.62,345.07,54.21,350.66,48,354.43Z"/><path class="cls-1" d="M45.4,313c3.79,6.23,2.67,12.82-2.7,15.85s-11.25,1.4-14.11-3.84c6.67,4.32,15.79,1.54,17.29-5.46.45-2.11-.19-4.45-.33-6.68Z"/><path class="cls-1" d="M37.42,296.41l2.2,5.15a25.84,25.84,0,0,0-18.73,7.6c-.63-1.4-1.66-3.7-2.44-5.42,3.33-.77,6.68-1.18,9.73-2.36S34.13,298.22,37.42,296.41Z"/><path class="cls-1" d="M348.91,38.94l3.24,2.25c-2.44,3-4.78,5.85-7.1,8.73-2.62,3.24-5.09,6.51-.3,10.46-4.6-1.07-6.17-5.67-3.49-10.61C343.31,46,346.22,42.68,348.91,38.94Z"/><path class="cls-1" d="M45.55,312.9c-8.52-1.25-12.73.58-17.91,7.8.31-6.72,1.93-9.23,7.49-10.81,4-1.13,7.83-1.12,10.26,3.15Z"/><path class="cls-1" d="M114.85,404A62,62,0,0,0,119,397c.9-2.07,1.1-4.45,1.66-6.94l5.82,3.53C119.62,394.4,119.65,401.39,114.85,404Z"/><path class="cls-1" d="M64.15,65.18l4.41-4.24L80.47,74C74.64,71.88,72.86,63.85,64.15,65.18Z"/><path class="cls-1" d="M79.79,57.93c2.25,2,4.43,4.1,6.78,6,1.73,1.4,3.67,2.53,5.74,3.93L86.38,72.7c2.44-5.62-1.3-7.8-3.31-10.71-1-1.44-2.06-2.81-3.1-4.21Z"/><path class="cls-1" d="M333.56,36.81c-1.91,1.33-3,2.73-4,2.63s-2.22-1.64-2.42-2.72c-.12-.66,1.5-2.32,2.34-2.33C330.54,34.39,331.63,35.59,333.56,36.81Z"/></g></svg>