<svg xmlns="http://www.w3.org/2000/svg" width="665" height="478" viewBox="0 0 665 478">
  <g id="Group_722" data-name="Group 722" transform="translate(-4486 7962)">
    <text id="US_Owned_Public_Debt_10.7_Trillion" data-name="US Owned Public Debt
$10.7 Trillion" transform="translate(4749 -7770)" fill="#efefef" font-size="14" font-family="MuseoSans-500, Museo Sans" font-weight="500"><tspan x="24.594" y="13">US Owned Public Debt</tspan><tspan font-size="30" font-family="MuseoSans-900, Museo Sans" font-weight="900"><tspan x="2.65" y="45">$10.7 Trillion</tspan></tspan></text>
    <text id="U.S._savings_bonds_153_billion" data-name="U.S. savings bonds – $153 billion" transform="translate(4486 -7680)" fill="#efefef" font-size="14" font-family="MuseoSans-900, Museo Sans" font-weight="900"><tspan x="3.364" y="13">U.S. savings bonds </tspan><tspan x="35.718" y="30">– $153 billion</tspan></text>
    <text id="Other_2.93_trillion" data-name="Other – $2.93 trillion" transform="translate(4486 -7886)" fill="#efefef" font-size="14" font-family="MuseoSans-900, Museo Sans" font-weight="900"><tspan x="9.562" y="13">Other – $2.93 trillion</tspan></text>
    <text id="Insurance_companies_202_billion" data-name="Insurance companies – $202 billion" transform="translate(4486 -7642)" fill="#efefef" font-size="14" font-family="MuseoSans-900, Museo Sans" font-weight="900"><tspan x="1.478" y="13">Insurance companies </tspan><tspan x="51.094" y="30">– $202 billion</tspan></text>
    <text id="Banks_769_billion" data-name="Banks – $769 billion" transform="translate(4487 -7543)" fill="#efefef" font-size="14" font-family="MuseoSans-900, Museo Sans" font-weight="900"><tspan x="90.456" y="13">Banks – $769 billion</tspan></text>
    <text id="Private_pension_funds_440_billion" data-name="Private pension funds – $440 billion" transform="translate(4498 -7597)" fill="#efefef" font-size="14" font-family="MuseoSans-900, Museo Sans" font-weight="900"><tspan x="10.132" y="13">Private pension funds </tspan><tspan x="61.89" y="30">– $440 billion</tspan></text>
    <text id="State_and_local_governments_1.04_trillion" data-name="State and local governments – $1.04 trillion" transform="translate(4540 -7501)" fill="#efefef" font-size="14" font-family="MuseoSans-900, Museo Sans" font-weight="900"><tspan x="16.526" y="13">State and local governments – $1.04 trillion</tspan></text>
    <g id="Group_128" data-name="Group 128" transform="translate(4623.382 -7961.602)">
      <g id="Path_1947" data-name="Path 1947" transform="translate(-70.871 -141.328)" fill="#3f75a2" stroke-miterlimit="10">
        <path d="M 80.30716705322266 426.2695922851562 C 76.28506469726562 412.0050659179688 73.67111206054688 397.3568115234375 72.53517150878906 382.7120361328125 C 71.40320587158203 368.1193237304688 71.72409820556641 353.3542175292969 73.48891448974609 338.8268127441406 C 75.22174072265625 324.5628967285156 78.36316680908203 310.3837280273438 82.82595062255859 296.68310546875 C 87.24641418457031 283.1123962402344 93.00138092041016 269.892822265625 99.93091583251953 257.3915710449219 C 106.8604888916016 244.8903656005859 115.0216674804688 233.0045776367188 124.1877746582031 222.0643920898438 C 133.4416351318359 211.0195465087891 143.8015289306641 200.8416442871094 154.9797821044922 191.8134002685547 C 166.3644866943359 182.6183929443359 178.7159881591797 174.5219268798828 191.6911010742188 167.7489318847656 C 205.0050659179688 160.7990417480469 219.1419525146484 155.1572265625 233.7090911865234 150.9801788330078 C 253.6917114257812 145.2501831054688 273.513671875 142.4182281494141 294.2700500488281 142.3301239013672 L 294.2700500488281 245.4080505371094 C 286.3788146972656 245.4719390869141 278.5005493164062 246.2916717529297 270.8369445800781 247.8470458984375 C 263.0520935058594 249.4270477294922 255.3946380615234 251.7846527099609 248.0772399902344 254.8543701171875 C 240.8927764892578 257.8682861328125 233.96337890625 261.5987243652344 227.4815673828125 265.9419555664062 C 221.0614166259766 270.243896484375 215.0242462158203 275.184326171875 209.5376281738281 280.6260986328125 C 204.0509185791016 286.0679931640625 199.0695648193359 292.0561218261719 194.7319946289062 298.4241027832031 C 190.3525238037109 304.8536071777344 186.5909881591797 311.7271423339844 183.5518493652344 318.8537902832031 C 180.4563751220703 326.112548828125 178.0789489746094 333.7087707519531 176.4856719970703 341.4313659667969 C 174.8509216308594 349.3549194335938 174.0220184326172 357.5098266601562 174.0220184326172 365.6695861816406 C 174.0220184326172 376.6810607910156 175.525634765625 387.5921630859375 178.4917602539062 398.1156921386719 L 80.30716705322266 426.2695922851562 Z" stroke="none"/>
        <path d="M 80.99925231933594 425.0308227539062 L 177.26318359375 397.4276733398438 C 174.4481353759766 387.1123657226562 173.0220184326172 376.4389038085938 173.0220184326172 365.6695556640625 C 173.0220184326172 357.4420776367188 173.8578491210938 349.2191772460938 175.5062713623047 341.2292785644531 C 177.1130218505859 333.4415893554688 179.5104370117188 325.7814025878906 182.6320190429688 318.4614868164062 C 185.6965637207031 311.2752075195312 189.4895172119141 304.34423828125 193.905517578125 297.8611755371094 C 198.2789764404297 291.4404602050781 203.3014373779297 285.4028625488281 208.8334350585938 279.9160766601562 C 214.3651428222656 274.4295959472656 220.4519805908203 269.448486328125 226.9248962402344 265.1112060546875 C 233.4601440429688 260.732177734375 240.4466400146484 256.9710083007812 247.6903991699219 253.9322052001953 C 255.0682220458984 250.8371276855469 262.7889404296875 248.4600372314453 270.6380615234375 246.8670043945312 C 278.0433959960938 245.3640441894531 285.6466369628906 244.5424346923828 293.2700500488281 244.4200592041016 L 293.2700500488281 143.3365325927734 C 272.970458984375 143.5098571777344 253.5559234619141 146.3294525146484 233.9847259521484 151.9414978027344 C 219.4822235107422 156.0999603271484 205.4082641601562 161.7166290283203 192.1539001464844 168.6354217529297 C 179.2372741699219 175.3779144287109 166.9414825439453 183.4378814697266 155.6081085205078 192.5913696289062 C 144.4801025390625 201.5790405273438 134.1666870117188 211.7112884521484 124.9543075561523 222.7066650390625 C 115.8290634155273 233.5980377197266 107.704231262207 245.4308776855469 100.8055572509766 257.8764038085938 C 93.90685272216797 270.3219909667969 88.17755889892578 283.482666015625 83.77677154541016 296.9928894042969 C 79.33397674560547 310.6320495605469 76.20664215087891 324.7476196289062 74.48164367675781 338.9474182128906 C 72.72476959228516 353.4093017578125 72.40534973144531 368.1078186035156 73.53218841552734 382.6347045898438 C 74.63738250732422 396.8827819824219 77.14817810058594 411.1353454589844 80.99925231933594 425.0308227539062 M 79.61943817138672 427.507080078125 C 45.46710205078125 308.40576171875 114.3320999145508 184.1703796386719 233.4334716796875 150.0189514160156 C 253.7998046875 144.1789093017578 274.0835876464844 141.3280029296875 295.2700500488281 141.3280029296875 L 295.2700500488281 246.4040069580078 C 228.8588562011719 246.4040069580078 175.0220184326172 299.8010864257812 175.0220184326172 365.6695556640625 C 175.0220184326172 377.1668701171875 176.6669006347656 388.2819519042969 179.7283935546875 398.8014221191406 L 79.61943817138672 427.507080078125 Z" stroke="none" fill="#efefef"/>
      </g>
      <g id="Path_1948" data-name="Path 1948" transform="translate(-71.552 -161.387)" fill="#bf1d1d" stroke-miterlimit="10">
        <path d="M 87.08666229248047 464.8333435058594 C 84.72276306152344 458.6289367675781 83.38186645507812 454.6208801269531 81.53898620605469 448.2509765625 L 179.7322540283203 420.0946044921875 C 180.5507965087891 422.8198852539062 181.4766235351562 425.5418701171875 182.4925842285156 428.2101440429688 L 87.08666229248047 464.8333435058594 Z" stroke="none"/>
        <path d="M 179.0625610351562 421.3269348144531 L 82.779541015625 448.9355773925781 C 84.38203430175781 454.4151306152344 85.64585876464844 458.1927185058594 87.66551208496094 463.5400085449219 L 181.20703125 427.6324768066406 C 180.4345397949219 425.5516357421875 179.7170257568359 423.4419250488281 179.0625610351562 421.3269348144531 M 180.4099578857422 418.8599853515625 C 181.3914794921875 422.2322998046875 182.5195922851562 425.5423889160156 183.7859497070312 428.7848205566406 L 86.51026916503906 466.1257629394531 C 83.80224609375 459.0694580078125 82.38374328613281 454.8306884765625 80.30101013183594 447.565673828125 L 180.4099578857422 418.8599853515625 Z" stroke="none" fill="#efefef"/>
      </g>
      <g id="Path_1949" data-name="Path 1949" transform="translate(-72.036 -162.16)" fill="#1c77c3" stroke-miterlimit="10">
        <path d="M 100.6136322021484 493.9043579101562 C 96.12626647949219 485.7073059082031 91.68431091308594 476.1815795898438 88.2884521484375 467.4732055664062 L 183.7037811279297 430.8464050292969 C 185.54150390625 435.4374389648438 187.6868438720703 439.9553527832031 190.0941467285156 444.3039855957031 L 100.6136322021484 493.9043579101562 Z" stroke="none"/>
        <path d="M 183.1455993652344 432.1318054199219 L 89.5877685546875 468.0455932617188 C 92.79421997070312 476.1454162597656 96.86720275878906 484.8797302246094 101.0103149414062 492.5411071777344 L 188.7388305664062 443.9118957519531 C 186.6634368896484 440.0881042480469 184.7887420654297 436.1397399902344 183.1455993652344 432.1318054199219 M 184.2696990966797 429.5580139160156 C 186.3134613037109 434.7922668457031 188.719970703125 439.8455505371094 191.4567718505859 444.6920166015625 L 100.2214965820312 495.2650756835938 C 95.4158935546875 486.595458984375 90.5462646484375 476.152099609375 86.99400329589844 466.8989562988281 L 184.2696990966797 429.5580139160156 Z" stroke="none" fill="#efefef"/>
      </g>
      <g id="Path_1950" data-name="Path 1950" transform="translate(-73.066 -163.339)" fill="#e50a17" stroke-miterlimit="10">
        <path d="M 138.8336639404297 544.8992919921875 C 131.4242553710938 537.4318237304688 124.9407958984375 529.9785766601562 119.0334548950195 522.1393432617188 C 113.125846862793 514.2996826171875 107.7485275268555 506.0131530761719 102.6131210327148 496.8329467773438 L 192.1079406738281 447.2246704101562 C 197.3902282714844 456.4013061523438 203.8651885986328 464.8483581542969 211.3734741210938 472.3585815429688 L 138.8336639404297 544.8992919921875 Z" stroke="none"/>
        <path d="M 191.7356262207031 448.5744018554688 L 103.9776763916016 497.2199096679688 C 108.9421844482422 506.0126342773438 114.1403656005859 513.984375 119.8320770263672 521.5374755859375 C 125.5235443115234 529.09033203125 131.7537994384766 536.2845458984375 138.8378448486328 543.4808959960938 L 209.9622192382812 472.3555908203125 C 202.9213409423828 465.1968994140625 196.8012847900391 457.2118530273438 191.7356262207031 448.5744018554688 M 192.4872741699219 445.8710327148438 C 197.9970092773438 455.6279296875 204.8445587158203 464.5386962890625 212.7905120849609 472.355712890625 L 138.8322906494141 546.3148803710938 C 123.5007019042969 530.9823608398438 111.7640533447266 515.40771484375 101.2519683837891 496.444091796875 L 192.4872741699219 445.8710327148438 Z" stroke="none" fill="#efefef"/>
      </g>
      <g id="Path_1951" data-name="Path 1951" transform="translate(-75.994 -165.402)" fill="#1762a0" stroke-miterlimit="10">
        <path d="M 230.4268646240234 601.8439331054688 C 221.6361389160156 598.9556884765625 213.6508941650391 595.8839111328125 206.0445709228516 592.4656372070312 C 198.0421905517578 588.8693237304688 190.6537322998047 584.977294921875 183.4570159912109 580.5671997070312 C 176.2603607177734 576.1571655273438 169.438232421875 571.3410034179688 162.600830078125 565.8436279296875 C 156.1019134521484 560.618408203125 149.7397766113281 554.898193359375 143.1753845214844 548.3770141601562 L 215.7268676757812 475.8246154785156 C 222.2468872070312 482.1349182128906 229.4794006347656 487.7146301269531 237.2380218505859 492.4187927246094 C 245.1037902832031 497.1879577636719 253.510986328125 501.0567321777344 262.2422790527344 503.9261474609375 L 230.4268646240234 601.8439331054688 Z" stroke="none"/>
        <path d="M 215.7411346435547 477.2245483398438 L 144.5931396484375 548.3734741210938 C 150.8806610107422 554.57763671875 156.9916229248047 560.0505981445312 163.2274322509766 565.0642700195312 C 170.0313568115234 570.5347900390625 176.8194274902344 575.326904296875 183.9795074462891 579.714599609375 C 191.1396331787109 584.1022338867188 198.4912567138672 587.9747314453125 206.4544830322266 591.553466796875 C 213.7528839111328 594.8333740234375 221.4037780761719 597.7935791015625 229.7863616943359 600.5791015625 L 260.9844970703125 504.5610961914062 C 252.5197448730469 501.7022094726562 244.3657531738281 497.909912109375 236.7195587158203 493.27392578125 C 229.1776733398438 488.7011108398438 222.1284942626953 483.3074951171875 215.7411346435547 477.2245483398438 M 215.7182464599609 474.4190063476562 C 228.98193359375 487.4683837890625 245.2950592041016 497.4674072265625 263.5025939941406 503.2833251953125 L 231.0683898925781 603.1055297851562 C 194.8926696777344 591.3512573242188 168.6566009521484 575.2738037109375 141.760009765625 548.378173828125 L 215.7182464599609 474.4190063476562 Z" stroke="none" fill="#efefef"/>
      </g>
      <g id="Path_1952" data-name="Path 1952" transform="translate(-82.952 -167.547)" fill="#a7050e" stroke-miterlimit="10">
        <path d="M 307.5594177246094 615.5617065429688 C 296.1009216308594 615.5617065429688 284.4676208496094 614.6145629882812 272.9826965332031 612.74658203125 C 261.8077392578125 610.9290771484375 250.4763031005859 608.19140625 239.2867431640625 604.6064453125 L 271.1051025390625 506.6795959472656 C 282.8122863769531 510.3130493164062 295.001953125 512.1549682617188 307.3512268066406 512.1549682617188 C 321.1495056152344 512.1549682617188 334.6818542480469 509.8719787597656 347.5897521972656 505.3680725097656 L 382.7981567382812 602.1014404296875 C 370.52197265625 606.5128784179688 358.0544128417969 609.8798217773438 345.724365234375 612.11279296875 C 333.0874633789062 614.4013061523438 320.2469177246094 615.5617065429688 307.5594177246094 615.5617065429688 Z" stroke="none"/>
        <path d="M 346.9862060546875 506.633544921875 C 334.2538452148438 510.961669921875 320.9298095703125 513.1549682617188 307.3512268066406 513.1549682617188 C 295.2322082519531 513.1549682617188 283.2668762207031 511.395751953125 271.7524108886719 507.9234008789062 L 240.5486755371094 603.95849609375 C 251.3798217773438 607.3792114257812 262.3355102539062 610.0017700195312 273.1432189941406 611.7595825195312 C 284.5752563476562 613.618896484375 296.154541015625 614.5617065429688 307.5594177246094 614.5617065429688 C 320.1873168945312 614.5617065429688 332.9679260253906 613.40673828125 345.5461730957031 611.1287841796875 C 357.5054016113281 608.9630126953125 369.595947265625 605.7251586914062 381.5143127441406 601.4979858398438 L 346.9862060546875 506.633544921875 M 348.1905822753906 504.094970703125 L 384.08056640625 602.7010498046875 C 358.69189453125 611.942138671875 333.1682739257812 616.5616455078125 307.5594177246094 616.5616455078125 C 284.4314270019531 616.5616455078125 261.2324829101562 612.7906494140625 238.0260009765625 605.2504272460938 L 270.4602355957031 505.4281616210938 C 282.0855407714844 509.140869140625 294.4808654785156 511.1549682617188 307.3512268066406 511.1549682617188 C 321.6901245117188 511.1549682617188 335.43994140625 508.6612548828125 348.1905822753906 504.094970703125 Z" stroke="none" fill="#efefef"/>
      </g>
      <g id="Path_1953" data-name="Path 1953" transform="translate(-91.534 -158.196)" fill="#10416b" stroke-miterlimit="10">
        <path d="M 393.2599792480469 592.0659790039062 L 358.0550842285156 495.3421936035156 C 369.2581787109375 491.2251892089844 379.7715148925781 485.4866027832031 389.3192138671875 478.2758178710938 C 399.0341491699219 470.9387512207031 407.5580139160156 462.2239685058594 414.6539916992188 452.3735961914062 C 421.8408203125 442.3971252441406 427.4198303222656 431.4506225585938 431.2360229492188 419.8381652832031 C 435.1812438964844 407.8330993652344 437.181640625 395.2832336425781 437.181640625 382.5370788574219 C 437.181640625 381.5405883789062 437.1654357910156 380.4955139160156 437.1311950683594 379.3055725097656 L 539.1723022460938 375.7423706054688 C 539.9136962890625 399.7969055175781 537.0797729492188 423.3495788574219 530.7457275390625 445.7613525390625 C 524.4453735351562 468.0539245605469 514.7515869140625 488.99267578125 501.9336853027344 507.9960021972656 C 489.1157531738281 526.9993286132812 473.3330383300781 543.8310546875 455.0238647460938 558.0235595703125 C 436.6167602539062 572.2919311523438 415.8406982421875 583.7424926757812 393.2599792480469 592.0659790039062 Z" stroke="none"/>
        <path d="M 538.2015991210938 376.77685546875 L 438.1559448242188 380.2703857421875 C 438.1733093261719 381.0740356445312 438.181640625 381.81787109375 438.181640625 382.537109375 C 438.181640625 395.3894653320312 436.1644287109375 408.0443725585938 432.18603515625 420.1503295898438 C 428.3378295898438 431.8602294921875 422.7121887207031 442.8983764648438 415.4653930664062 452.9580688476562 C 408.3108215332031 462.8897399902344 399.7167663574219 471.6763305664062 389.921875 479.0738220214844 C 380.5613403320312 486.1432800292969 370.2804565429688 491.80908203125 359.3343505859375 495.9331359863281 L 393.8554992675781 590.7784423828125 C 415.9760131835938 582.5205078125 436.34130859375 571.2401733398438 454.4111938476562 557.233154296875 C 472.6362609863281 543.1058349609375 488.34619140625 526.3519287109375 501.1046447753906 507.4367980957031 C 513.863037109375 488.5216979980469 523.5120239257812 467.6795654296875 529.7833862304688 445.4893798828125 C 536.0014038085938 423.4881591796875 538.8314208984375 400.3800659179688 538.2015991210938 376.77685546875 M 540.1387939453125 374.7080078125 C 543.6112670898438 474.1397399902344 486.1553955078125 559.3215942382812 392.6629943847656 593.349609375 L 356.7730102539062 494.7435607910156 C 403.0804138183594 478.1595458984375 436.181640625 434.1844482421875 436.181640625 382.537109375 C 436.181640625 381.1324462890625 436.1482543945312 379.7344360351562 436.1000061035156 378.3409423828125 L 540.1387939453125 374.7080078125 Z" stroke="none" fill="#efefef"/>
      </g>
      <g id="Path_1954" data-name="Path 1954" transform="translate(-88.353 -141.328)" fill="#bf1d1d" stroke-miterlimit="10">
        <path d="M 433.8787536621094 360.4393310546875 C 433.5504150390625 352.8496398925781 432.4999389648438 345.2867431640625 430.7533264160156 337.9444580078125 C 428.9735717773438 330.4629821777344 426.449462890625 323.1170349121094 423.2510986328125 316.1106567382812 C 420.1064453125 309.2220458984375 416.2769470214844 302.5881958007812 411.8689270019531 296.3934020996094 C 407.4978942871094 290.2505798339844 402.5169677734375 284.4813232421875 397.0644226074219 279.2459106445312 C 391.6075134277344 274.0063171386719 385.628662109375 269.2537536621094 379.2939147949219 265.1202697753906 C 372.8957214355469 260.9454040527344 366.0723266601562 257.3617858886719 359.01318359375 254.4689636230469 C 351.8236694335938 251.5227203369141 344.3094787597656 249.2606658935547 336.6792602539062 247.7456359863281 C 329.1775817871094 246.2561492919922 321.4698486328125 245.4705200195312 313.7520446777344 245.4080352783203 L 313.7520446777344 142.3301849365234 C 328.3284301757812 142.3932342529297 342.8681335449219 143.8356628417969 356.9864196777344 146.6199645996094 C 371.0848083496094 149.4003448486328 384.94775390625 153.5544281005859 398.190185546875 158.9668426513672 C 411.2097778320312 164.2881927490234 423.778564453125 170.8859252929688 435.5473022460938 178.5767822265625 C 447.2129211425781 186.2002563476562 458.2120666503906 194.9754028320312 468.2391662597656 204.6584930419922 C 478.2662963867188 214.341552734375 487.4199523925781 225.0277252197266 495.4459228515625 236.4201354980469 C 503.5428161621094 247.9133148193359 510.5751647949219 260.2441101074219 516.34765625 273.070068359375 C 522.2188720703125 286.1155090332031 526.8541870117188 299.8250122070312 530.1248779296875 313.8177795410156 C 533.400146484375 327.8302917480469 535.3490600585938 342.3108215332031 535.9207153320312 356.8760986328125 L 433.8787536621094 360.4393310546875 Z" stroke="none"/>
        <path d="M 434.8308715820312 359.4054870605469 L 534.8798828125 355.911865234375 C 534.2620239257812 341.7488403320312 532.336669921875 327.6739501953125 529.151123046875 314.0454406738281 C 525.8951416015625 300.1152648925781 521.2805786132812 286.4672546386719 515.4357299804688 273.4804992675781 C 509.6893615722656 260.7124633789062 502.6887512207031 248.4373321533203 494.62841796875 236.99609375 C 486.6387023925781 225.6550903320312 477.5263671875 215.0171966552734 467.5445251464844 205.3778228759766 C 457.5626525878906 195.7384643554688 446.6131896972656 187.0029296875 435.000244140625 179.4138946533203 C 423.28466796875 171.7577667236328 410.7726745605469 165.1898193359375 397.8118591308594 159.8924865722656 C 384.6289672851562 154.5044250488281 370.8282165527344 150.3689880371094 356.7929077148438 147.6010284423828 C 343.0614929199219 144.8930358886719 328.927978515625 143.4599761962891 314.7520446777344 143.3366851806641 L 314.7520446777344 244.4200592041016 C 322.2003784179688 244.5397033691406 329.6326599121094 245.3269805908203 336.8740234375 246.7647857666016 C 344.5671691894531 248.2923278808594 352.1434326171875 250.5730590820312 359.3923950195312 253.5436553955078 C 366.5097351074219 256.4603271484375 373.3894348144531 260.073486328125 379.8403625488281 264.2827453613281 C 386.2272033691406 268.4502563476562 392.2552490234375 273.2418823242188 397.7570190429688 278.5245971679688 C 403.2544860839844 283.8031616210938 408.2765502929688 289.6200256347656 412.6837158203125 295.8136291503906 C 417.12841796875 302.0599975585938 420.9898376464844 308.7492065429688 424.1607360839844 315.6954040527344 C 427.3860473632812 322.7607116699219 429.9314270019531 330.1685180664062 431.7261352539062 337.7130737304688 C 433.4114685058594 344.7975769042969 434.4540405273438 352.0851745605469 434.8308715820312 359.4054870605469 M 432.9183959960938 361.4734497070312 C 430.6881408691406 297.5494995117188 377.74658203125 246.4039916992188 312.7520446777344 246.4039916992188 L 312.7520446777344 141.3279876708984 C 434.5465393066406 141.3279876708984 532.707275390625 236.1201934814453 536.9571533203125 357.8405151367188 L 432.9183959960938 361.4734497070312 Z" stroke="none" fill="#efefef"/>
      </g>
    </g>
    <text id="Federal_Reserve_2.46_trillion" data-name="Federal Reserve – $2.46 trillion" transform="translate(5004 -7962)" fill="#efefef" font-size="14" font-family="MuseoSans-900, Museo Sans" font-weight="900"><tspan x="0" y="13">Federal Reserve – </tspan><tspan x="0" y="30">$2.46 trillion</tspan></text>
    <text id="Mutual_funds_2.01_trillion" data-name="Mutual funds – $2.01 trillion" transform="translate(5048 -7611)" fill="#efefef" font-size="14" font-family="MuseoSans-900, Museo Sans" font-weight="900"><tspan x="0" y="13">Mutual funds </tspan><tspan x="0" y="30">– $2.01 trillion</tspan></text>
  </g>
</svg>
