<svg xmlns="http://www.w3.org/2000/svg" width="659.544" height="476.542" viewBox="0 0 659.544 476.542">
  <g id="Group_800" data-name="Group 800" transform="translate(-68.654 -8092.398)">
    <path id="Path_3260" data-name="Path 3260" d="M25.8,9.5a3.59,3.59,0,0,0,3.892,3.668A3.59,3.59,0,0,0,33.582,9.5V3.116H32.2V9.472a2.285,2.285,0,0,1-2.52,2.422A2.263,2.263,0,0,1,27.184,9.5V3.116H25.8Zm9.576,2.366a4.624,4.624,0,0,0,3.276,1.3,2.849,2.849,0,0,0,3.136-2.786c0-3.206-4.788-2.66-4.788-4.7A1.616,1.616,0,0,1,38.79,4.236a3.484,3.484,0,0,1,2.17.854l.63-1.148a4.05,4.05,0,0,0-2.8-.994A2.928,2.928,0,0,0,35.6,5.706c0,3.038,4.788,2.576,4.788,4.718a1.524,1.524,0,0,1-1.708,1.456,3.9,3.9,0,0,1-2.52-1.064ZM46.7,7.988a5.076,5.076,0,1,0,10.15,0,5.075,5.075,0,0,0-10.15,0Zm1.428,0a3.649,3.649,0,1,1,7.294,0,3.656,3.656,0,1,1-7.294,0ZM60.042,13h1.512L63.01,8.45c.112-.364.2-.77.2-.77h.028s.084.406.2.77L64.9,13h1.5L68.68,5.916H67.252l-1.484,4.97a5.7,5.7,0,0,0-.168.756h-.028s-.084-.392-.2-.756L63.85,5.93H62.6l-1.54,4.956a7.369,7.369,0,0,0-.182.756h-.028c-.014,0-.07-.392-.182-.756L59.2,5.916H57.76Zm9.94,0H71.34V9.682a3.354,3.354,0,0,1,.112-.952,2.32,2.32,0,0,1,2.24-1.736c1.134,0,1.344.784,1.344,1.778V13h1.358V8.464c0-1.806-.77-2.716-2.436-2.716A2.884,2.884,0,0,0,71.3,7.372H71.27a4.97,4.97,0,0,0,.028-.518V5.916H69.982Zm7.952-3.542a3.607,3.607,0,0,0,3.752,3.71A4.217,4.217,0,0,0,84.43,12.16l-.56-.994a3.377,3.377,0,0,1-2.1.826,2.315,2.315,0,0,1-2.436-2.338H84.5s.042-.406.042-.588a3.015,3.015,0,0,0-3.066-3.318A3.472,3.472,0,0,0,77.934,9.458Zm1.442-.826a2.03,2.03,0,0,1,2.072-1.806,1.671,1.671,0,0,1,1.708,1.806Zm6.356.826c0,2.2,1.2,3.71,3.122,3.71a2.481,2.481,0,0,0,2.324-1.316h.028s-.014.2-.014.476V13H92.48V3.116H91.122V6.392a4.01,4.01,0,0,0,.028.476h-.028a2.358,2.358,0,0,0-2.184-1.12C87.062,5.748,85.732,7.2,85.732,9.458Zm1.386,0c0-1.61.924-2.534,2.044-2.534,1.344,0,2,1.26,2,2.52,0,1.806-.994,2.548-2.044,2.548C87.944,11.992,87.118,11,87.118,9.458ZM98.486,13h1.386V9.346H102.1a2.984,2.984,0,0,0,3.108-3.136A2.95,2.95,0,0,0,102.1,3.116H98.486Zm1.386-4.858V4.32h2.016a1.748,1.748,0,0,1,1.9,1.89,1.784,1.784,0,0,1-1.918,1.932Zm6.734,2.31c0,1.876.826,2.716,2.422,2.716a2.857,2.857,0,0,0,2.6-1.624h.028a4.639,4.639,0,0,0-.028.518V13h1.316V5.916H111.59V9.234a2.439,2.439,0,0,1-2.3,2.674c-1.134,0-1.33-.784-1.33-1.764V5.916h-1.358ZM115.076,13h1.288v-.518a4.753,4.753,0,0,0-.028-.532h.028a2.547,2.547,0,0,0,2.226,1.218c1.862,0,3.22-1.456,3.22-3.71,0-2.2-1.2-3.71-3.108-3.71a2.5,2.5,0,0,0-2.268,1.2h-.028s.028-.252.028-.6V3.116h-1.358Zm1.316-3.514c0-1.806.98-2.548,2.044-2.548,1.176,0,2,.994,2,2.534,0,1.61-.924,2.534-2.044,2.534C117.05,12.006,116.392,10.746,116.392,9.486Zm7,1.582c0,1.778,1.134,1.988,1.9,1.988a3.815,3.815,0,0,0,.448-.028v-1.2a2.162,2.162,0,0,1-.238.014c-.42,0-.756-.154-.756-1.008V3.116h-1.358Zm3.78-6.566h1.372V3.116h-1.372Zm.014,8.5h1.358V5.916h-1.358Zm2.982-3.542a3.626,3.626,0,0,0,3.794,3.71,3.88,3.88,0,0,0,2.828-1.134l-.546-.994a3.21,3.21,0,0,1-2.184.952,2.454,2.454,0,0,1-2.506-2.548,2.413,2.413,0,0,1,2.464-2.52,2.869,2.869,0,0,1,1.96.812l.644-.952a3.587,3.587,0,0,0-2.66-1.036A3.642,3.642,0,0,0,130.168,9.458ZM142.208,13h3.276c3.024,0,5.012-1.82,5.012-4.956s-1.988-4.928-5.012-4.928h-3.276Zm1.386-1.2V4.32h1.792a3.4,3.4,0,0,1,3.682,3.724,3.412,3.412,0,0,1-3.682,3.752Zm8.2-2.338a3.607,3.607,0,0,0,3.752,3.71,4.217,4.217,0,0,0,2.744-1.008l-.56-.994a3.377,3.377,0,0,1-2.1.826A2.315,2.315,0,0,1,153.2,9.654h5.166s.042-.406.042-.588a3.015,3.015,0,0,0-3.066-3.318A3.472,3.472,0,0,0,151.8,9.458Zm1.442-.826a2.03,2.03,0,0,1,2.072-1.806,1.671,1.671,0,0,1,1.708,1.806ZM160.058,13h1.288v-.518a4.753,4.753,0,0,0-.028-.532h.028a2.547,2.547,0,0,0,2.226,1.218c1.862,0,3.22-1.456,3.22-3.71,0-2.2-1.2-3.71-3.108-3.71a2.5,2.5,0,0,0-2.268,1.2h-.028s.028-.252.028-.6V3.116h-1.358Zm1.316-3.514c0-1.806.98-2.548,2.044-2.548,1.176,0,2,.994,2,2.534,0,1.61-.924,2.534-2.044,2.534C162.032,12.006,161.374,10.746,161.374,9.486Zm7.378.924a2.443,2.443,0,0,0,2.716,2.646,3.723,3.723,0,0,0,.476-.028v-1.2a1.635,1.635,0,0,1-.322.028,1.408,1.408,0,0,1-1.512-1.6V7.106h1.708V6.014H170.11V3.97h-1.316V6.014h-.966V7.106h.924ZM3.82,42.3a10.841,10.841,0,0,0,6.12,2.94v2.73h3.27V45.24c3.84-.6,6-3.36,6-6.54,0-6.63-9.75-6.45-9.75-9,0-1.2,1.2-1.68,2.28-1.68a8.185,8.185,0,0,1,4.74,1.89l2.22-4.29a9.381,9.381,0,0,0-5.49-2.34V20.55H9.94v2.82C6.61,24,4.21,26.4,4.21,29.76c0,6.45,9.75,6.66,9.75,9.06,0,1.29-1.17,1.71-2.25,1.71-2.7,0-5.13-2.22-5.13-2.22ZM22.09,45H36.37V40.5H31.78V23.55H27.25l-5.79,5.43,3.03,3.24,1.29-1.17a4.052,4.052,0,0,0,.84-1.14h.06s-.03.84-.03,1.65V40.5H22.09Zm24.57.36c6.09,0,8.07-4.98,8.07-11.13s-1.98-11.04-8.07-11.04-8.07,4.89-8.07,11.04S40.57,45.36,46.66,45.36Zm0-4.8c-2.07,0-2.67-2.82-2.67-6.33,0-3.48.6-6.24,2.67-6.24s2.67,2.76,2.67,6.24C49.33,37.74,48.73,40.56,46.66,40.56ZM57.79,45h4.92V40.08H57.79Zm8.43,0h5.46l9-17.79V23.55H65.29v4.5h8.46a6,6,0,0,0,1.38-.09v.06a5.993,5.993,0,0,0-1.38,1.95Zm28.56,0h5.25V28.05h6.51v-4.5H88.27v4.5h6.51Zm12.99,0h5.19V39.15a7,7,0,0,1,.27-2.1,3.9,3.9,0,0,1,3.99-2.7,5.522,5.522,0,0,1,1.05.09v-5.1a3.508,3.508,0,0,0-.6-.06,5.362,5.362,0,0,0-4.92,3.84h-.06a8.176,8.176,0,0,0,.06-.96V29.55h-4.98Zm12.96-17.4h5.07V23.55h-5.07ZM120.67,45h5.19V29.55h-5.19Zm8.82-5.7c0,5.19,2.94,5.85,5.7,5.85a14.11,14.11,0,0,0,1.56-.09v-4.5s-.3.03-.63.03c-1.17,0-1.44-.51-1.44-1.98V23.55h-5.19Zm9.69,0c0,5.19,2.94,5.85,5.7,5.85a14.11,14.11,0,0,0,1.56-.09v-4.5s-.3.03-.63.03c-1.17,0-1.44-.51-1.44-1.98V23.55h-5.19Zm9.96-11.7h5.07V23.55h-5.07ZM149.08,45h5.19V29.55h-5.19Zm7.89-7.68c0,4.83,3.9,8.04,8.76,8.04s8.76-3.21,8.76-8.04c0-4.86-3.9-8.13-8.79-8.13C160.87,29.19,156.97,32.46,156.97,37.32Zm5.25,0a3.522,3.522,0,1,1,7.02,0,3.516,3.516,0,1,1-7.02,0ZM177.19,45h5.19V38.16a6.2,6.2,0,0,1,.3-2.04,3.04,3.04,0,0,1,3.06-2.22c1.14,0,1.71.6,1.71,2.04V45h5.19V34.98c0-4.35-2.43-5.79-5.55-5.79a5.451,5.451,0,0,0-4.92,2.67h-.06a8.176,8.176,0,0,0,.06-.96V29.55h-4.98Z" transform="translate(329 8284)" fill="#efefef"/>
    <path id="Path_3258" data-name="Path 3258" d="M4.4,9.318c0,2.254,1.652,3.85,4.2,3.85,2.52,0,4.172-1.6,4.172-3.85V2.99h-2.45V9.318a1.537,1.537,0,0,1-1.736,1.61A1.537,1.537,0,0,1,6.85,9.318V2.99H4.4ZM14.438,13h2.3V10.7h-2.3Zm3.542-1.26a5.168,5.168,0,0,0,3.654,1.428c2.254,0,3.528-1.442,3.528-3.108,0-3.164-4.508-2.94-4.508-4.2,0-.56.56-.784,1.064-.784a3.82,3.82,0,0,1,2.212.882l1.036-2a4.54,4.54,0,0,0-3.22-1.134c-1.988,0-3.542,1.218-3.542,3.066,0,3.08,4.508,3.038,4.508,4.228,0,.6-.546.8-1.05.8a4.148,4.148,0,0,1-2.394-1.036Zm8.5,1.26h2.3V10.7h-2.3Zm6.65-.9a4.342,4.342,0,0,0,2.884,1.064c1.862,0,2.954-1.05,2.954-2.282,0-2.324-3.374-2.408-3.374-2.954,0-.252.35-.35.714-.35a2.88,2.88,0,0,1,1.708.588l.826-1.722a3.774,3.774,0,0,0-2.534-.826c-1.666,0-2.968.84-2.968,2.2,0,2.352,3.374,2.422,3.374,3.052,0,.238-.35.336-.714.336a3.034,3.034,0,0,1-1.834-.728Zm6.608-1.26a2.306,2.306,0,0,0,2.45,2.324,2.244,2.244,0,0,0,2.044-1.05h.028a3.815,3.815,0,0,0-.028.448V13h2.212V8.562c0-1.834-1.218-2.94-3.248-2.94a5.453,5.453,0,0,0-3.024.938l.84,1.708a4.3,4.3,0,0,1,1.946-.686c.6,0,1.064.2,1.064.8v.126h-.1C42.8,8.506,39.736,8.744,39.736,10.844Zm2.436-.126c0-.6.882-.826,1.652-.826h.224v.154a1.337,1.337,0,0,1-1.19,1.274C42.382,11.32,42.172,11.054,42.172,10.718ZM49.634,13h2.954l2.45-7.21H52.476L51.37,9.626c-.14.476-.266,1.246-.266,1.246h-.028a12.31,12.31,0,0,0-.266-1.246L49.69,5.79H47.142Zm6.328-8.12h2.366V2.99H55.962ZM55.934,13h2.422V5.79H55.934Zm4.214,0H62.57V9.808a2.9,2.9,0,0,1,.14-.952A1.419,1.419,0,0,1,64.138,7.82c.532,0,.8.28.8.952V13h2.422V8.324c0-2.03-1.134-2.7-2.59-2.7a2.544,2.544,0,0,0-2.3,1.246h-.028a3.815,3.815,0,0,0,.028-.448V5.79H60.148Zm9.8.462L69.262,15.3a6.378,6.378,0,0,0,2.73.644c1.974,0,4.074-.966,4.074-3.6V5.79H73.8v.364a1.171,1.171,0,0,0,.014.168H73.77a2.734,2.734,0,0,0-1.96-.7c-2.184,0-3.234,1.708-3.234,3.542s1.078,3.626,3.248,3.626a2.145,2.145,0,0,0,1.806-.756h.028s-.014.182-.014.266v.238c0,1.064-.8,1.386-1.666,1.386A4.9,4.9,0,0,1,69.948,13.462Zm2.45-2.688c-.966,0-1.386-.8-1.386-1.694A1.272,1.272,0,0,1,72.3,7.638c.728,0,1.4.28,1.4,1.554S73.028,10.774,72.4,10.774Zm4.9,1.33a4.342,4.342,0,0,0,2.884,1.064c1.862,0,2.954-1.05,2.954-2.282,0-2.324-3.374-2.408-3.374-2.954,0-.252.35-.35.714-.35a2.88,2.88,0,0,1,1.708.588l.826-1.722a3.774,3.774,0,0,0-2.534-.826c-1.666,0-2.968.84-2.968,2.2,0,2.352,3.374,2.422,3.374,3.052,0,.238-.35.336-.714.336a3.034,3.034,0,0,1-1.834-.728Zm10.36.9h2.268v-.238c0-.224-.014-.406-.014-.406h.028a2.577,2.577,0,0,0,1.974.812c1.918,0,3.36-1.484,3.36-3.766,0-2.24-1.288-3.78-3.248-3.78a2.678,2.678,0,0,0-1.946.77h-.028s.028-.252.028-.616V2.99H87.658ZM90.01,9.444c0-1.246.686-1.778,1.414-1.778.84,0,1.414.7,1.414,1.778,0,1.106-.658,1.722-1.414,1.722C90.472,11.166,90.01,10.312,90.01,9.444Zm6.034-.028a4.1,4.1,0,1,0,4.074-3.794A3.811,3.811,0,0,0,96.044,9.416Zm2.45,0a1.644,1.644,0,1,1,3.276,0,1.641,1.641,0,1,1-3.276,0ZM105.48,13H107.9V9.808a2.9,2.9,0,0,1,.14-.952A1.419,1.419,0,0,1,109.47,7.82c.532,0,.8.28.8.952V13h2.422V8.324c0-2.03-1.134-2.7-2.59-2.7a2.544,2.544,0,0,0-2.3,1.246h-.028a3.815,3.815,0,0,0,.028-.448V5.79H105.48Zm8.414-3.612c0,2.24,1.288,3.78,3.248,3.78a2.408,2.408,0,0,0,2.086-1.05h.028s-.014.182-.014.406V13h2.268V2.99h-2.422V5.874c0,.182.014.322.014.322h-.028s-.434-.574-1.89-.574C115.266,5.622,113.894,7.106,113.894,9.388Zm2.436,0c0-1.106.658-1.722,1.414-1.722.952,0,1.414.854,1.414,1.722,0,1.246-.686,1.778-1.414,1.778C116.9,11.166,116.33,10.466,116.33,9.388Zm6.412,2.716a4.342,4.342,0,0,0,2.884,1.064c1.862,0,2.954-1.05,2.954-2.282,0-2.324-3.374-2.408-3.374-2.954,0-.252.35-.35.714-.35a2.88,2.88,0,0,1,1.708.588l.826-1.722a3.774,3.774,0,0,0-2.534-.826c-1.666,0-2.968.84-2.968,2.2,0,2.352,3.374,2.422,3.374,3.052,0,.238-.35.336-.714.336a3.034,3.034,0,0,1-1.834-.728ZM36.656,26.892H45v-1.82H36.656ZM49.69,28.74a5.059,5.059,0,0,0,2.856,1.372v1.274h1.526V30.112a3.072,3.072,0,0,0,2.8-3.052c0-3.094-4.55-3.01-4.55-4.2,0-.56.56-.784,1.064-.784a3.82,3.82,0,0,1,2.212.882l1.036-2a4.378,4.378,0,0,0-2.562-1.092V18.59H52.546v1.316a3.04,3.04,0,0,0-2.674,2.982c0,3.01,4.55,3.108,4.55,4.228,0,.6-.546.8-1.05.8a4.148,4.148,0,0,1-2.394-1.036ZM58.216,30H64.88V27.9H62.738V19.99H60.624l-2.7,2.534,1.414,1.512.6-.546a1.891,1.891,0,0,0,.392-.532h.028s-.014.392-.014.77V27.9H58.216Zm7.518-1.148a4.824,4.824,0,0,0,3.416,1.316,3.5,3.5,0,0,0,3.71-3.57c0-1.806-1.2-3.29-3.584-3.29a3.057,3.057,0,0,0-.728.1H68.52a1.638,1.638,0,0,0,.056-.392l.056-.924H72.1v-2.1H66.5L66.1,25.226l1.3.49a2.914,2.914,0,0,1,1.344-.336c.91,0,1.6.462,1.6,1.246a1.3,1.3,0,0,1-1.4,1.232,3.3,3.3,0,0,1-2.03-.9Zm8.064,0a4.746,4.746,0,0,0,3.416,1.316,3.4,3.4,0,0,0,3.71-3.416,2.94,2.94,0,0,0-2.422-2.9l2.03-2.338V19.99H74.218v2.1h2.394a4.987,4.987,0,0,0,.952-.07v.028a10.89,10.89,0,0,0-.868.938L75.38,24.568l.518,1.19h.7c1.078,0,1.862.322,1.862,1.106,0,.546-.518.994-1.428.994a3.273,3.273,0,0,1-2.058-.9ZM85.7,30h2.268v-.238c0-.224-.014-.406-.014-.406h.028a2.577,2.577,0,0,0,1.974.812c1.918,0,3.36-1.484,3.36-3.766,0-2.24-1.288-3.78-3.248-3.78a2.678,2.678,0,0,0-1.946.77h-.028s.028-.252.028-.616V19.99H85.7Zm2.352-3.556c0-1.246.686-1.778,1.414-1.778.84,0,1.414.7,1.414,1.778,0,1.106-.658,1.722-1.414,1.722C88.512,28.166,88.05,27.312,88.05,26.444Zm6.594-4.564H97.01V19.99H94.644ZM94.616,30h2.422V22.79H94.616Zm4.116-2.66c0,2.422,1.372,2.73,2.66,2.73a6.585,6.585,0,0,0,.728-.042v-2.1s-.14.014-.294.014c-.546,0-.672-.238-.672-.924V19.99H98.732Zm4.522,0c0,2.422,1.372,2.73,2.66,2.73a6.585,6.585,0,0,0,.728-.042v-2.1s-.14.014-.294.014c-.546,0-.672-.238-.672-.924V19.99h-2.422Zm4.648-5.46h2.366V19.99H107.9ZM107.874,30H110.3V22.79h-2.422Zm3.682-3.584a4.1,4.1,0,1,0,4.074-3.794A3.811,3.811,0,0,0,111.556,26.416Zm2.45,0a1.644,1.644,0,1,1,3.276,0,1.641,1.641,0,1,1-3.276,0ZM120.992,30h2.422V26.808a2.9,2.9,0,0,1,.14-.952,1.419,1.419,0,0,1,1.428-1.036c.532,0,.8.28.8.952V30H128.2V25.324c0-2.03-1.134-2.7-2.59-2.7a2.544,2.544,0,0,0-2.3,1.246h-.028a3.815,3.815,0,0,0,.028-.448v-.63h-2.324Z" transform="translate(66 8374)" fill="#efefef"/>
    <path id="Path_3259" data-name="Path 3259" d="M10.052,7.932a5.125,5.125,0,0,0,5.236,5.236,5.125,5.125,0,0,0,5.236-5.236,5.063,5.063,0,0,0-5.236-5.11A5.063,5.063,0,0,0,10.052,7.932Zm2.534,0a2.707,2.707,0,1,1,5.4,0,2.824,2.824,0,0,1-2.7,3A2.824,2.824,0,0,1,12.586,7.932Zm9.688,2.408c0,2.422,2.226,2.73,3.374,2.73a4.661,4.661,0,0,0,.658-.042v-2.1s-.126.014-.322.014c-.462,0-1.288-.112-1.288-.924V7.806h1.512V5.916H24.7V3.844H22.344V5.916H21.35v1.89h.924ZM27.72,13h2.422V9.808a2.786,2.786,0,0,1,.126-.924A1.455,1.455,0,0,1,31.71,7.82c.532,0,.8.28.8.952V13H34.93V8.324c0-2.03-1.134-2.7-2.59-2.7a2.476,2.476,0,0,0-2.2,1.148h-.028s.028-.252.028-.616V2.99H27.72Zm8.386-3.612a3.739,3.739,0,0,0,3.962,3.78,4.869,4.869,0,0,0,3.08-1.05l-.9-1.694a3.78,3.78,0,0,1-1.988.728,1.61,1.61,0,0,1-1.68-1.288h4.55s.056-.518.056-.756a3.2,3.2,0,0,0-3.332-3.486A3.589,3.589,0,0,0,36.106,9.388Zm2.534-.91A1.182,1.182,0,0,1,39.8,7.442a.982.982,0,0,1,.952,1.036ZM44.506,13h2.422V10.27a3.269,3.269,0,0,1,.126-.98,1.82,1.82,0,0,1,1.862-1.26,2.577,2.577,0,0,1,.49.042V5.692a1.637,1.637,0,0,0-.28-.028,2.5,2.5,0,0,0-2.3,1.792H46.8a3.815,3.815,0,0,0,.028-.448V5.79H44.506Zm9.268-3.108h8.344V8.072H53.774ZM66.808,11.74a5.059,5.059,0,0,0,2.856,1.372v1.274H71.19V13.112a3.072,3.072,0,0,0,2.8-3.052c0-3.094-4.55-3.01-4.55-4.2,0-.56.56-.784,1.064-.784a3.82,3.82,0,0,1,2.212.882l1.036-2A4.378,4.378,0,0,0,71.19,2.864V1.59H69.664V2.906A3.04,3.04,0,0,0,66.99,5.888c0,3.01,4.55,3.108,4.55,4.228,0,.6-.546.8-1.05.8A4.148,4.148,0,0,1,68.1,9.878ZM75.334,13h6.93V10.9H78.008c.07-1.288,4.1-1.89,4.1-5.012a3.123,3.123,0,0,0-3.416-3.066,3.86,3.86,0,0,0-3.528,2.156L76.986,6.2s.532-1.064,1.484-1.064a.989.989,0,0,1,1.078.994c0,1.442-4.326,2.1-4.326,5.8A6.134,6.134,0,0,0,75.334,13Zm8.442,0h2.3V10.7h-2.3Zm6.272.168c3.108,0,4.774-2.842,4.774-5.558,0-3.262-2.044-4.788-4.06-4.788A3.321,3.321,0,0,0,87.346,6.2a3.284,3.284,0,0,0,3.276,3.43,2.815,2.815,0,0,0,1.372-.35h.028a2.184,2.184,0,0,1-2.156,1.652,3.813,3.813,0,0,1-1.372-.294l-.658,2.1A5.048,5.048,0,0,0,90.048,13.168Zm1.218-5.516a1.4,1.4,0,0,1-1.512-1.47,1.049,1.049,0,0,1,1.008-1.12A1.856,1.856,0,0,1,92.3,7.05C92.3,7.512,91.826,7.652,91.266,7.652Zm4.62,4.2A4.746,4.746,0,0,0,99.3,13.168a3.4,3.4,0,0,0,3.71-3.416,2.94,2.94,0,0,0-2.422-2.9l2.03-2.338V2.99H96.306v2.1H98.7a4.987,4.987,0,0,0,.952-.07v.028a10.89,10.89,0,0,0-.868.938L97.468,7.568l.518,1.19h.7c1.078,0,1.862.322,1.862,1.106,0,.546-.518.994-1.428.994a3.273,3.273,0,0,1-2.058-.9ZM108.15,10.34c0,2.422,2.226,2.73,3.374,2.73a4.661,4.661,0,0,0,.658-.042v-2.1s-.126.014-.322.014c-.462,0-1.288-.112-1.288-.924V7.806h1.512V5.916h-1.512V3.844H108.22V5.916h-.994v1.89h.924ZM113.6,13h2.422V10.27a3.269,3.269,0,0,1,.126-.98,1.82,1.82,0,0,1,1.862-1.26,2.577,2.577,0,0,1,.49.042V5.692a1.637,1.637,0,0,0-.28-.028,2.5,2.5,0,0,0-2.3,1.792h-.028a3.815,3.815,0,0,0,.028-.448V5.79H113.6Zm6.048-8.12h2.366V2.99h-2.366ZM119.616,13h2.422V5.79h-2.422Zm4.116-2.66c0,2.422,1.372,2.73,2.66,2.73a6.585,6.585,0,0,0,.728-.042v-2.1s-.14.014-.294.014c-.546,0-.672-.238-.672-.924V2.99h-2.422Zm4.522,0c0,2.422,1.372,2.73,2.66,2.73a6.585,6.585,0,0,0,.728-.042v-2.1s-.14.014-.294.014c-.546,0-.672-.238-.672-.924V2.99h-2.422ZM132.9,4.88h2.366V2.99H132.9ZM132.874,13H135.3V5.79h-2.422Zm3.682-3.584a4.1,4.1,0,1,0,4.074-3.794A3.811,3.811,0,0,0,136.556,9.416Zm2.45,0a1.644,1.644,0,1,1,3.276,0,1.641,1.641,0,1,1-3.276,0ZM145.992,13h2.422V9.808a2.9,2.9,0,0,1,.14-.952,1.419,1.419,0,0,1,1.428-1.036c.532,0,.8.28.8.952V13H153.2V8.324c0-2.03-1.134-2.7-2.59-2.7a2.544,2.544,0,0,0-2.3,1.246h-.028a3.815,3.815,0,0,0,.028-.448V5.79h-2.324Z" transform="translate(66 8168)" fill="#efefef"/>
    <path id="Path_3257" data-name="Path 3257" d="M2.654,13H5.1V2.99H2.654Zm4.522,0H9.6V9.808a2.9,2.9,0,0,1,.14-.952A1.419,1.419,0,0,1,11.166,7.82c.532,0,.8.28.8.952V13h2.422V8.324c0-2.03-1.134-2.7-2.59-2.7A2.544,2.544,0,0,0,9.5,6.868H9.472A3.815,3.815,0,0,0,9.5,6.42V5.79H7.176Zm8.344-.9A4.342,4.342,0,0,0,18.4,13.168c1.862,0,2.954-1.05,2.954-2.282,0-2.324-3.374-2.408-3.374-2.954,0-.252.35-.35.714-.35a2.88,2.88,0,0,1,1.708.588l.826-1.722A3.774,3.774,0,0,0,18.7,5.622c-1.666,0-2.968.84-2.968,2.2,0,2.352,3.374,2.422,3.374,3.052,0,.238-.35.336-.714.336a3.034,3.034,0,0,1-1.834-.728Zm7.056-1.638c0,2.03,1.134,2.7,2.562,2.7a2.5,2.5,0,0,0,2.254-1.246h.028a3.815,3.815,0,0,0-.028.448V13h2.324V5.79H27.294V8.982c0,1.078-.49,1.988-1.526,1.988-.5,0-.77-.28-.77-.952V5.79H22.576ZM31.508,13H33.93V10.27a3.269,3.269,0,0,1,.126-.98,1.82,1.82,0,0,1,1.862-1.26,2.577,2.577,0,0,1,.49.042V5.692a1.637,1.637,0,0,0-.28-.028,2.5,2.5,0,0,0-2.3,1.792H33.8a3.815,3.815,0,0,0,.028-.448V5.79H31.508Zm5.474-2.156a2.306,2.306,0,0,0,2.45,2.324,2.244,2.244,0,0,0,2.044-1.05H41.5a3.815,3.815,0,0,0-.028.448V13h2.212V8.562c0-1.834-1.218-2.94-3.248-2.94a5.453,5.453,0,0,0-3.024.938l.84,1.708A4.3,4.3,0,0,1,40.2,7.582c.6,0,1.064.2,1.064.8v.126h-.1C40.048,8.506,36.982,8.744,36.982,10.844Zm2.436-.126c0-.6.882-.826,1.652-.826h.224v.154A1.337,1.337,0,0,1,40.1,11.32C39.628,11.32,39.418,11.054,39.418,10.718ZM45.368,13H47.79V9.808a2.9,2.9,0,0,1,.14-.952A1.419,1.419,0,0,1,49.358,7.82c.532,0,.8.28.8.952V13h2.422V8.324c0-2.03-1.134-2.7-2.59-2.7a2.544,2.544,0,0,0-2.3,1.246h-.028a3.815,3.815,0,0,0,.028-.448V5.79H45.368ZM53.74,9.388a3.749,3.749,0,0,0,4.018,3.78,4.338,4.338,0,0,0,3.094-1.19l-.882-1.694A3.52,3.52,0,0,1,58,11.152,1.742,1.742,0,0,1,56.19,9.36a1.658,1.658,0,0,1,1.722-1.722,2.627,2.627,0,0,1,1.694.7l1.022-1.624a3.8,3.8,0,0,0-2.87-1.092A3.762,3.762,0,0,0,53.74,9.388Zm7.728,0a3.739,3.739,0,0,0,3.962,3.78,4.869,4.869,0,0,0,3.08-1.05l-.9-1.694a3.78,3.78,0,0,1-1.988.728,1.61,1.61,0,0,1-1.68-1.288H68.5s.056-.518.056-.756A3.2,3.2,0,0,0,65.22,5.622,3.589,3.589,0,0,0,61.468,9.388ZM64,8.478a1.182,1.182,0,0,1,1.162-1.036.982.982,0,0,1,.952,1.036Zm8.54.91a3.749,3.749,0,0,0,4.018,3.78,4.338,4.338,0,0,0,3.094-1.19l-.882-1.694a3.52,3.52,0,0,1-1.974.868A1.742,1.742,0,0,1,74.992,9.36a1.658,1.658,0,0,1,1.722-1.722,2.627,2.627,0,0,1,1.694.7L79.43,6.714a3.8,3.8,0,0,0-2.87-1.092A3.762,3.762,0,0,0,72.542,9.388Zm7.714.028A4.1,4.1,0,1,0,84.33,5.622,3.811,3.811,0,0,0,80.256,9.416Zm2.45,0a1.644,1.644,0,1,1,3.276,0,1.641,1.641,0,1,1-3.276,0ZM89.692,13h2.422V10.018a4.562,4.562,0,0,1,.07-.9c.168-.77.56-1.3,1.316-1.3.462,0,.56.378.56.91V13h2.422V10.018a4.033,4.033,0,0,1,.056-.84c.154-.8.56-1.358,1.33-1.358.462,0,.56.378.56.91V13h2.422V8.324c0-1.988-1.022-2.7-2.338-2.7A2.785,2.785,0,0,0,96.2,6.84h-.028a2.088,2.088,0,0,0-2.016-1.218,2.565,2.565,0,0,0-2.142,1.246h-.028a3.815,3.815,0,0,0,.028-.448V5.79H89.692Zm12.852,2.8h2.422V13.1c0-.364-.028-.616-.028-.616h.028a2.659,2.659,0,0,0,1.834.686c1.918,0,3.36-1.484,3.36-3.766,0-2.24-1.288-3.78-3.248-3.78a2.635,2.635,0,0,0-2.184.994H104.7a4.228,4.228,0,0,0,.028-.462V5.79h-2.184ZM104.9,9.444c0-1.246.686-1.778,1.414-1.778.84,0,1.414.7,1.414,1.778,0,1.106-.658,1.722-1.414,1.722C105.358,11.166,104.9,10.312,104.9,9.444Zm6.02,1.4a2.306,2.306,0,0,0,2.45,2.324,2.244,2.244,0,0,0,2.044-1.05h.028a3.815,3.815,0,0,0-.028.448V13h2.212V8.562c0-1.834-1.218-2.94-3.248-2.94a5.453,5.453,0,0,0-3.024.938l.84,1.708a4.3,4.3,0,0,1,1.946-.686c.6,0,1.064.2,1.064.8v.126h-.1C113.982,8.506,110.916,8.744,110.916,10.844Zm2.436-.126c0-.6.882-.826,1.652-.826h.224v.154a1.337,1.337,0,0,1-1.19,1.274C113.562,11.32,113.352,11.054,113.352,10.718ZM119.3,13h2.422V9.808a2.9,2.9,0,0,1,.14-.952,1.419,1.419,0,0,1,1.428-1.036c.532,0,.8.28.8.952V13h2.422V8.324c0-2.03-1.134-2.7-2.59-2.7a2.544,2.544,0,0,0-2.3,1.246H121.6a3.815,3.815,0,0,0,.028-.448V5.79H119.3Zm8.932-8.12H130.6V2.99h-2.366ZM128.206,13h2.422V5.79h-2.422Zm3.7-3.612a3.739,3.739,0,0,0,3.962,3.78,4.869,4.869,0,0,0,3.08-1.05l-.9-1.694a3.78,3.78,0,0,1-1.988.728,1.61,1.61,0,0,1-1.68-1.288h4.55s.056-.518.056-.756a3.2,3.2,0,0,0-3.332-3.486A3.589,3.589,0,0,0,131.9,9.388Zm2.534-.91A1.182,1.182,0,0,1,135.6,7.442a.982.982,0,0,1,.952,1.036Zm5.306,3.626a4.342,4.342,0,0,0,2.884,1.064c1.862,0,2.954-1.05,2.954-2.282,0-2.324-3.374-2.408-3.374-2.954,0-.252.35-.35.714-.35a2.88,2.88,0,0,1,1.708.588l.826-1.722a3.774,3.774,0,0,0-2.534-.826c-1.666,0-2.968.84-2.968,2.2,0,2.352,3.374,2.422,3.374,3.052,0,.238-.35.336-.714.336a3.034,3.034,0,0,1-1.834-.728ZM52.032,26.892h8.344v-1.82H52.032ZM65.066,28.74a5.059,5.059,0,0,0,2.856,1.372v1.274h1.526V30.112a3.072,3.072,0,0,0,2.8-3.052c0-3.094-4.55-3.01-4.55-4.2,0-.56.56-.784,1.064-.784a3.82,3.82,0,0,1,2.212.882l1.036-2a4.378,4.378,0,0,0-2.562-1.092V18.59H67.922v1.316a3.04,3.04,0,0,0-2.674,2.982c0,3.01,4.55,3.108,4.55,4.228,0,.6-.546.8-1.05.8a4.148,4.148,0,0,1-2.394-1.036ZM73.592,30h6.93V27.9H76.266c.07-1.288,4.1-1.89,4.1-5.012a3.123,3.123,0,0,0-3.416-3.066,3.86,3.86,0,0,0-3.528,2.156l1.82,1.218s.532-1.064,1.484-1.064a.989.989,0,0,1,1.078.994c0,1.442-4.326,2.1-4.326,5.8A6.134,6.134,0,0,0,73.592,30Zm12.11.168c2.842,0,3.766-2.324,3.766-5.194s-.924-5.152-3.766-5.152-3.766,2.282-3.766,5.152S82.86,30.168,85.7,30.168Zm0-2.24c-.966,0-1.246-1.316-1.246-2.954s.28-2.912,1.246-2.912,1.246,1.288,1.246,2.912S86.668,27.928,85.7,27.928ZM90.966,30H97.9V27.9H93.64c.07-1.288,4.1-1.89,4.1-5.012a3.123,3.123,0,0,0-3.416-3.066A3.86,3.86,0,0,0,90.8,21.978l1.82,1.218s.532-1.064,1.484-1.064a.989.989,0,0,1,1.078.994c0,1.442-4.326,2.1-4.326,5.8A6.134,6.134,0,0,0,90.966,30ZM102.7,30h2.268v-.238c0-.224-.014-.406-.014-.406h.028a2.577,2.577,0,0,0,1.974.812c1.918,0,3.36-1.484,3.36-3.766,0-2.24-1.288-3.78-3.248-3.78a2.678,2.678,0,0,0-1.946.77h-.028s.028-.252.028-.616V19.99H102.7Zm2.352-3.556c0-1.246.686-1.778,1.414-1.778.84,0,1.414.7,1.414,1.778,0,1.106-.658,1.722-1.414,1.722C105.512,28.166,105.05,27.312,105.05,26.444Zm6.594-4.564h2.366V19.99h-2.366ZM111.616,30h2.422V22.79h-2.422Zm4.116-2.66c0,2.422,1.372,2.73,2.66,2.73a6.585,6.585,0,0,0,.728-.042v-2.1s-.14.014-.294.014c-.546,0-.672-.238-.672-.924V19.99h-2.422Zm4.522,0c0,2.422,1.372,2.73,2.66,2.73a6.585,6.585,0,0,0,.728-.042v-2.1s-.14.014-.294.014c-.546,0-.672-.238-.672-.924V19.99h-2.422Zm4.648-5.46h2.366V19.99H124.9ZM124.874,30H127.3V22.79h-2.422Zm3.682-3.584a4.1,4.1,0,1,0,4.074-3.794A3.811,3.811,0,0,0,128.556,26.416Zm2.45,0a1.644,1.644,0,1,1,3.276,0,1.641,1.641,0,1,1-3.276,0ZM137.992,30h2.422V26.808a2.9,2.9,0,0,1,.14-.952,1.419,1.419,0,0,1,1.428-1.036c.532,0,.8.28.8.952V30H145.2V25.324c0-2.03-1.134-2.7-2.59-2.7a2.544,2.544,0,0,0-2.3,1.246h-.028a3.815,3.815,0,0,0,.028-.448v-.63h-2.324Z" transform="translate(66 8412)" fill="#efefef"/>
    <path id="Path_3255" data-name="Path 3255" d="M91.632,13h3.682c1.988,0,3.808-.8,3.808-2.982a2.245,2.245,0,0,0-1.568-2.254V7.736a2.444,2.444,0,0,0,1.162-2.128c0-1.722-1.4-2.618-3.4-2.618H91.632Zm2.45-6.132V5.09H95.3a.814.814,0,0,1,.924.854.847.847,0,0,1-.882.924Zm0,4.032V8.828h1.484a.962.962,0,0,1,1.05,1.022.994.994,0,0,1-1.064,1.05Zm5.95-.056a2.306,2.306,0,0,0,2.45,2.324,2.244,2.244,0,0,0,2.044-1.05h.028a3.815,3.815,0,0,0-.028.448V13h2.212V8.562c0-1.834-1.218-2.94-3.248-2.94a5.453,5.453,0,0,0-3.024.938l.84,1.708a4.3,4.3,0,0,1,1.946-.686c.6,0,1.064.2,1.064.8v.126h-.1C103.1,8.506,100.032,8.744,100.032,10.844Zm2.436-.126c0-.6.882-.826,1.652-.826h.224v.154a1.337,1.337,0,0,1-1.19,1.274C102.678,11.32,102.468,11.054,102.468,10.718ZM108.418,13h2.422V9.808a2.9,2.9,0,0,1,.14-.952,1.419,1.419,0,0,1,1.428-1.036c.532,0,.8.28.8.952V13h2.422V8.324c0-2.03-1.134-2.7-2.59-2.7a2.544,2.544,0,0,0-2.3,1.246h-.028a3.815,3.815,0,0,0,.028-.448V5.79h-2.324Zm8.9,0h2.422V10.2h.756l1.526,2.8h2.758l-2.408-3.906V9.066L124.49,5.79h-2.632L120.43,8.17h-.686V2.99h-2.422Zm7.826-.9a4.342,4.342,0,0,0,2.884,1.064c1.862,0,2.954-1.05,2.954-2.282,0-2.324-3.374-2.408-3.374-2.954,0-.252.35-.35.714-.35a2.88,2.88,0,0,1,1.708.588l.826-1.722a3.774,3.774,0,0,0-2.534-.826c-1.666,0-2.968.84-2.968,2.2,0,2.352,3.374,2.422,3.374,3.052,0,.238-.35.336-.714.336a3.034,3.034,0,0,1-1.834-.728Zm10.4-2.212h8.344V8.072H135.55Zm13.034,1.848a5.059,5.059,0,0,0,2.856,1.372v1.274h1.526V13.112a3.072,3.072,0,0,0,2.8-3.052c0-3.094-4.55-3.01-4.55-4.2,0-.56.56-.784,1.064-.784a3.82,3.82,0,0,1,2.212.882l1.036-2a4.378,4.378,0,0,0-2.562-1.092V1.59H151.44V2.906a3.04,3.04,0,0,0-2.674,2.982c0,3.01,4.55,3.108,4.55,4.228,0,.6-.546.8-1.05.8a4.148,4.148,0,0,1-2.394-1.036ZM157.236,13h2.548l4.2-8.3V2.99H156.8v2.1h3.948a2.8,2.8,0,0,0,.644-.042v.028a2.8,2.8,0,0,0-.644.91Zm11.732.168a3.321,3.321,0,0,0,3.416-3.374,3.284,3.284,0,0,0-3.276-3.43,3.028,3.028,0,0,0-1.372.35h-.028a2.184,2.184,0,0,1,2.156-1.652,3.813,3.813,0,0,1,1.372.294l.658-2.1a5.048,5.048,0,0,0-2.212-.434c-3.108,0-4.774,2.842-4.774,5.558C164.908,11.642,166.952,13.168,168.968,13.168Zm0-2.24a1.856,1.856,0,0,1-1.54-1.988c0-.462.476-.6,1.036-.6a1.4,1.4,0,0,1,1.512,1.47A1.049,1.049,0,0,1,168.968,10.928Zm7.21,2.24c3.108,0,4.774-2.842,4.774-5.558,0-3.262-2.044-4.788-4.06-4.788A3.321,3.321,0,0,0,173.476,6.2a3.284,3.284,0,0,0,3.276,3.43,2.815,2.815,0,0,0,1.372-.35h.028A2.184,2.184,0,0,1,176,10.928a3.813,3.813,0,0,1-1.372-.294l-.658,2.1A5.048,5.048,0,0,0,176.178,13.168ZM177.4,7.652a1.4,1.4,0,0,1-1.512-1.47,1.049,1.049,0,0,1,1.008-1.12,1.856,1.856,0,0,1,1.54,1.988C178.432,7.512,177.956,7.652,177.4,7.652ZM185.7,13h2.268v-.238c0-.224-.014-.406-.014-.406h.028a2.577,2.577,0,0,0,1.974.812c1.918,0,3.36-1.484,3.36-3.766,0-2.24-1.288-3.78-3.248-3.78a2.678,2.678,0,0,0-1.946.77h-.028s.028-.252.028-.616V2.99H185.7Zm2.352-3.556c0-1.246.686-1.778,1.414-1.778.84,0,1.414.7,1.414,1.778,0,1.106-.658,1.722-1.414,1.722C188.512,11.166,188.05,10.312,188.05,9.444Zm6.594-4.564h2.366V2.99h-2.366ZM194.616,13h2.422V5.79h-2.422Zm4.116-2.66c0,2.422,1.372,2.73,2.66,2.73a6.585,6.585,0,0,0,.728-.042v-2.1s-.14.014-.294.014c-.546,0-.672-.238-.672-.924V2.99h-2.422Zm4.522,0c0,2.422,1.372,2.73,2.66,2.73a6.585,6.585,0,0,0,.728-.042v-2.1s-.14.014-.294.014c-.546,0-.672-.238-.672-.924V2.99h-2.422ZM207.9,4.88h2.366V2.99H207.9ZM207.874,13H210.3V5.79h-2.422Zm3.682-3.584a4.1,4.1,0,1,0,4.074-3.794A3.811,3.811,0,0,0,211.556,9.416Zm2.45,0a1.644,1.644,0,1,1,3.276,0,1.641,1.641,0,1,1-3.276,0ZM220.992,13h2.422V9.808a2.9,2.9,0,0,1,.14-.952,1.419,1.419,0,0,1,1.428-1.036c.532,0,.8.28.8.952V13H228.2V8.324c0-2.03-1.134-2.7-2.59-2.7a2.544,2.544,0,0,0-2.3,1.246h-.028a3.815,3.815,0,0,0,.028-.448V5.79h-2.324Z" transform="translate(67 8511)" fill="#efefef"/>
    <path id="Path_3256" data-name="Path 3256" d="M11.308,13h2.45V9.906h1.708a3.227,3.227,0,0,0,3.262-3.472A3.2,3.2,0,0,0,15.466,2.99H11.308Zm2.45-5.194V5.09H15a1.187,1.187,0,0,1,1.232,1.344,1.219,1.219,0,0,1-1.274,1.372ZM19.9,13h2.422V10.27a3.269,3.269,0,0,1,.126-.98,1.82,1.82,0,0,1,1.862-1.26,2.577,2.577,0,0,1,.49.042V5.692a1.637,1.637,0,0,0-.28-.028,2.5,2.5,0,0,0-2.3,1.792H22.2a3.815,3.815,0,0,0,.028-.448V5.79H19.9Zm6.048-8.12h2.366V2.99H25.952ZM25.924,13h2.422V5.79H25.924Zm5.782,0H34.66l2.45-7.21H34.548L33.442,9.626c-.14.476-.266,1.246-.266,1.246h-.028a12.31,12.31,0,0,0-.266-1.246L31.762,5.79H29.214Zm5.754-2.156a2.306,2.306,0,0,0,2.45,2.324,2.244,2.244,0,0,0,2.044-1.05h.028a3.815,3.815,0,0,0-.028.448V13h2.212V8.562c0-1.834-1.218-2.94-3.248-2.94a5.453,5.453,0,0,0-3.024.938l.84,1.708a4.3,4.3,0,0,1,1.946-.686c.6,0,1.064.2,1.064.8v.126h-.1C40.526,8.506,37.46,8.744,37.46,10.844Zm2.436-.126c0-.6.882-.826,1.652-.826h.224v.154a1.337,1.337,0,0,1-1.19,1.274C40.106,11.32,39.9,11.054,39.9,10.718Zm6.314-.378c0,2.422,2.226,2.73,3.374,2.73a4.661,4.661,0,0,0,.658-.042v-2.1s-.126.014-.322.014c-.462,0-1.288-.112-1.288-.924V7.806h1.512V5.916H48.632V3.844H46.28V5.916h-.994v1.89h.924Zm4.928-.952a3.739,3.739,0,0,0,3.962,3.78,4.869,4.869,0,0,0,3.08-1.05l-.9-1.694a3.78,3.78,0,0,1-1.988.728,1.61,1.61,0,0,1-1.68-1.288h4.55s.056-.518.056-.756A3.2,3.2,0,0,0,54.89,5.622,3.589,3.589,0,0,0,51.138,9.388Zm2.534-.91a1.182,1.182,0,0,1,1.162-1.036.982.982,0,0,1,.952,1.036ZM62.744,15.8h2.422V13.1c0-.364-.028-.616-.028-.616h.028A2.659,2.659,0,0,0,67,13.168c1.918,0,3.36-1.484,3.36-3.766,0-2.24-1.288-3.78-3.248-3.78a2.635,2.635,0,0,0-2.184.994H64.9a4.228,4.228,0,0,0,.028-.462V5.79H62.744ZM65.1,9.444c0-1.246.686-1.778,1.414-1.778.84,0,1.414.7,1.414,1.778,0,1.106-.658,1.722-1.414,1.722C65.558,11.166,65.1,10.312,65.1,9.444Zm6.048-.056a3.739,3.739,0,0,0,3.962,3.78,4.869,4.869,0,0,0,3.08-1.05l-.9-1.694a3.78,3.78,0,0,1-1.988.728,1.61,1.61,0,0,1-1.68-1.288h4.55s.056-.518.056-.756A3.2,3.2,0,0,0,74.9,5.622,3.589,3.589,0,0,0,71.144,9.388Zm2.534-.91A1.182,1.182,0,0,1,74.84,7.442a.982.982,0,0,1,.952,1.036ZM79.544,13h2.422V9.808a2.9,2.9,0,0,1,.14-.952A1.419,1.419,0,0,1,83.534,7.82c.532,0,.8.28.8.952V13h2.422V8.324c0-2.03-1.134-2.7-2.59-2.7a2.544,2.544,0,0,0-2.3,1.246H81.84a3.815,3.815,0,0,0,.028-.448V5.79H79.544Zm8.344-.9a4.342,4.342,0,0,0,2.884,1.064c1.862,0,2.954-1.05,2.954-2.282,0-2.324-3.374-2.408-3.374-2.954,0-.252.35-.35.714-.35a2.88,2.88,0,0,1,1.708.588L93.6,6.448a3.774,3.774,0,0,0-2.534-.826c-1.666,0-2.968.84-2.968,2.2,0,2.352,3.374,2.422,3.374,3.052,0,.238-.35.336-.714.336a3.034,3.034,0,0,1-1.834-.728ZM95.07,4.88h2.366V2.99H95.07ZM95.042,13h2.422V5.79H95.042Zm3.682-3.584A4.1,4.1,0,1,0,102.8,5.622,3.811,3.811,0,0,0,98.724,9.416Zm2.45,0a1.644,1.644,0,1,1,3.276,0,1.641,1.641,0,1,1-3.276,0ZM108.16,13h2.422V9.808a2.9,2.9,0,0,1,.14-.952A1.419,1.419,0,0,1,112.15,7.82c.532,0,.8.28.8.952V13h2.422V8.324c0-2.03-1.134-2.7-2.59-2.7a2.544,2.544,0,0,0-2.3,1.246h-.028a3.815,3.815,0,0,0,.028-.448V5.79H108.16Zm12.558,0h2.422V7.806h1.33V5.916h-1.33V5.692c0-.616.742-.7,1.218-.7a2.644,2.644,0,0,1,.392.028V2.976a5.69,5.69,0,0,0-.728-.042c-1.162,0-3.3.322-3.3,2.688v.294h-.882v1.89h.882Zm4.83-2.534c0,2.03,1.134,2.7,2.562,2.7a2.5,2.5,0,0,0,2.254-1.246h.028a3.815,3.815,0,0,0-.028.448V13h2.324V5.79h-2.422V8.982c0,1.078-.49,1.988-1.526,1.988-.5,0-.77-.28-.77-.952V5.79h-2.422ZM134.48,13H136.9V9.808a2.9,2.9,0,0,1,.14-.952A1.419,1.419,0,0,1,138.47,7.82c.532,0,.8.28.8.952V13h2.422V8.324c0-2.03-1.134-2.7-2.59-2.7a2.544,2.544,0,0,0-2.3,1.246h-.028a3.815,3.815,0,0,0,.028-.448V5.79H134.48Zm8.414-3.612c0,2.24,1.288,3.78,3.248,3.78a2.408,2.408,0,0,0,2.086-1.05h.028s-.014.182-.014.406V13h2.268V2.99h-2.422V5.874c0,.182.014.322.014.322h-.028s-.434-.574-1.89-.574C144.266,5.622,142.894,7.106,142.894,9.388Zm2.436,0c0-1.106.658-1.722,1.414-1.722.952,0,1.414.854,1.414,1.722,0,1.246-.686,1.778-1.414,1.778C145.9,11.166,145.33,10.466,145.33,9.388Zm6.412,2.716a4.342,4.342,0,0,0,2.884,1.064c1.862,0,2.954-1.05,2.954-2.282,0-2.324-3.374-2.408-3.374-2.954,0-.252.35-.35.714-.35a2.88,2.88,0,0,1,1.708.588l.826-1.722a3.774,3.774,0,0,0-2.534-.826c-1.666,0-2.968.84-2.968,2.2,0,2.352,3.374,2.422,3.374,3.052,0,.238-.35.336-.714.336a3.034,3.034,0,0,1-1.834-.728ZM62.828,26.892h8.344v-1.82H62.828ZM75.862,28.74a5.059,5.059,0,0,0,2.856,1.372v1.274h1.526V30.112a3.072,3.072,0,0,0,2.8-3.052c0-3.094-4.55-3.01-4.55-4.2,0-.56.56-.784,1.064-.784a3.82,3.82,0,0,1,2.212.882l1.036-2a4.378,4.378,0,0,0-2.562-1.092V18.59H78.718v1.316a3.04,3.04,0,0,0-2.674,2.982c0,3.01,4.55,3.108,4.55,4.228,0,.6-.546.8-1.05.8a4.148,4.148,0,0,1-2.394-1.036Zm8.106-1.162h4.438V30h2.422V27.578h1.19v-2.03h-1.19V19.99h-3l-3.864,6.1Zm2.492-2.03V25.52l1.512-2.3a5.334,5.334,0,0,0,.49-1.036h.028a8.946,8.946,0,0,0-.084,1.12v2.24Zm6.524,2.03h4.438V30h2.422V27.578h1.19v-2.03h-1.19V19.99h-3l-3.864,6.1Zm2.492-2.03V25.52l1.512-2.3a5.334,5.334,0,0,0,.49-1.036h.028a8.946,8.946,0,0,0-.084,1.12v2.24Zm10.64,4.62c2.842,0,3.766-2.324,3.766-5.194s-.924-5.152-3.766-5.152-3.766,2.282-3.766,5.152S103.274,30.168,106.116,30.168Zm0-2.24c-.966,0-1.246-1.316-1.246-2.954s.28-2.912,1.246-2.912,1.246,1.288,1.246,2.912S107.082,27.928,106.116,27.928ZM114.7,30h2.268v-.238c0-.224-.014-.406-.014-.406h.028a2.577,2.577,0,0,0,1.974.812c1.918,0,3.36-1.484,3.36-3.766,0-2.24-1.288-3.78-3.248-3.78a2.678,2.678,0,0,0-1.946.77h-.028s.028-.252.028-.616V19.99H114.7Zm2.352-3.556c0-1.246.686-1.778,1.414-1.778.84,0,1.414.7,1.414,1.778,0,1.106-.658,1.722-1.414,1.722C117.512,28.166,117.05,27.312,117.05,26.444Zm6.594-4.564h2.366V19.99h-2.366ZM123.616,30h2.422V22.79h-2.422Zm4.116-2.66c0,2.422,1.372,2.73,2.66,2.73a6.585,6.585,0,0,0,.728-.042v-2.1s-.14.014-.294.014c-.546,0-.672-.238-.672-.924V19.99h-2.422Zm4.522,0c0,2.422,1.372,2.73,2.66,2.73a6.585,6.585,0,0,0,.728-.042v-2.1s-.14.014-.294.014c-.546,0-.672-.238-.672-.924V19.99h-2.422Zm4.648-5.46h2.366V19.99H136.9ZM136.874,30H139.3V22.79h-2.422Zm3.682-3.584a4.1,4.1,0,1,0,4.074-3.794A3.811,3.811,0,0,0,140.556,26.416Zm2.45,0a1.644,1.644,0,1,1,3.276,0,1.641,1.641,0,1,1-3.276,0ZM149.992,30h2.422V26.808a2.9,2.9,0,0,1,.14-.952,1.419,1.419,0,0,1,1.428-1.036c.532,0,.8.28.8.952V30H157.2V25.324c0-2.03-1.134-2.7-2.59-2.7a2.544,2.544,0,0,0-2.3,1.246h-.028a3.815,3.815,0,0,0,.028-.448v-.63h-2.324Z" transform="translate(78 8457)" fill="#efefef"/>
    <path id="Path_3254" data-name="Path 3254" d="M16.96,11.74a5.168,5.168,0,0,0,3.654,1.428c2.254,0,3.528-1.442,3.528-3.108,0-3.164-4.508-2.94-4.508-4.2,0-.56.56-.784,1.064-.784a3.82,3.82,0,0,1,2.212.882l1.036-2a4.54,4.54,0,0,0-3.22-1.134c-1.988,0-3.542,1.218-3.542,3.066,0,3.08,4.508,3.038,4.508,4.228,0,.6-.546.8-1.05.8a4.148,4.148,0,0,1-2.394-1.036Zm8.946-1.4c0,2.422,2.226,2.73,3.374,2.73a4.661,4.661,0,0,0,.658-.042v-2.1s-.126.014-.322.014c-.462,0-1.288-.112-1.288-.924V7.806H29.84V5.916H28.328V3.844H25.976V5.916h-.994v1.89h.924Zm4.9.5a2.306,2.306,0,0,0,2.45,2.324,2.244,2.244,0,0,0,2.044-1.05h.028a3.815,3.815,0,0,0-.028.448V13h2.212V8.562c0-1.834-1.218-2.94-3.248-2.94a5.453,5.453,0,0,0-3.024.938l.84,1.708a4.3,4.3,0,0,1,1.946-.686c.6,0,1.064.2,1.064.8v.126h-.1C33.872,8.506,30.806,8.744,30.806,10.844Zm2.436-.126c0-.6.882-.826,1.652-.826h.224v.154a1.337,1.337,0,0,1-1.19,1.274C33.452,11.32,33.242,11.054,33.242,10.718Zm6.314-.378c0,2.422,2.226,2.73,3.374,2.73a4.661,4.661,0,0,0,.658-.042v-2.1s-.126.014-.322.014c-.462,0-1.288-.112-1.288-.924V7.806H43.49V5.916H41.978V3.844H39.626V5.916h-.994v1.89h.924Zm4.928-.952a3.739,3.739,0,0,0,3.962,3.78,4.869,4.869,0,0,0,3.08-1.05l-.9-1.694a3.78,3.78,0,0,1-1.988.728,1.61,1.61,0,0,1-1.68-1.288h4.55s.056-.518.056-.756a3.2,3.2,0,0,0-3.332-3.486A3.589,3.589,0,0,0,44.484,9.388Zm2.534-.91A1.182,1.182,0,0,1,48.18,7.442a.982.982,0,0,1,.952,1.036Zm8.526,2.366a2.306,2.306,0,0,0,2.45,2.324,2.244,2.244,0,0,0,2.044-1.05h.028a3.815,3.815,0,0,0-.028.448V13H62.25V8.562c0-1.834-1.218-2.94-3.248-2.94a5.453,5.453,0,0,0-3.024.938l.84,1.708a4.3,4.3,0,0,1,1.946-.686c.6,0,1.064.2,1.064.8v.126h-.1C58.61,8.506,55.544,8.744,55.544,10.844Zm2.436-.126c0-.6.882-.826,1.652-.826h.224v.154a1.337,1.337,0,0,1-1.19,1.274C58.19,11.32,57.98,11.054,57.98,10.718ZM63.93,13h2.422V9.808a2.9,2.9,0,0,1,.14-.952A1.419,1.419,0,0,1,67.92,7.82c.532,0,.8.28.8.952V13H71.14V8.324c0-2.03-1.134-2.7-2.59-2.7a2.544,2.544,0,0,0-2.3,1.246h-.028a3.815,3.815,0,0,0,.028-.448V5.79H63.93Zm8.414-3.612c0,2.24,1.288,3.78,3.248,3.78a2.408,2.408,0,0,0,2.086-1.05h.028s-.014.182-.014.406V13H79.96V2.99H77.538V5.874c0,.182.014.322.014.322h-.028s-.434-.574-1.89-.574C73.716,5.622,72.344,7.106,72.344,9.388Zm2.436,0c0-1.106.658-1.722,1.414-1.722.952,0,1.414.854,1.414,1.722,0,1.246-.686,1.778-1.414,1.778C75.354,11.166,74.78,10.466,74.78,9.388Zm10.08.952c0,2.422,1.372,2.73,2.66,2.73a6.585,6.585,0,0,0,.728-.042v-2.1s-.14.014-.294.014c-.546,0-.672-.238-.672-.924V2.99H84.86Zm4.088-.924a4.1,4.1,0,1,0,4.074-3.794A3.811,3.811,0,0,0,88.948,9.416Zm2.45,0a1.644,1.644,0,1,1,3.276,0,1.641,1.641,0,1,1-3.276,0Zm6.454-.028a3.749,3.749,0,0,0,4.018,3.78,4.338,4.338,0,0,0,3.094-1.19l-.882-1.694a3.52,3.52,0,0,1-1.974.868A1.742,1.742,0,0,1,100.3,9.36a1.658,1.658,0,0,1,1.722-1.722,2.627,2.627,0,0,1,1.694.7l1.022-1.624a3.8,3.8,0,0,0-2.87-1.092A3.762,3.762,0,0,0,97.852,9.388Zm7.7,1.456A2.306,2.306,0,0,0,108,13.168a2.244,2.244,0,0,0,2.044-1.05h.028a3.815,3.815,0,0,0-.028.448V13h2.212V8.562c0-1.834-1.218-2.94-3.248-2.94a5.453,5.453,0,0,0-3.024.938l.84,1.708a4.3,4.3,0,0,1,1.946-.686c.6,0,1.064.2,1.064.8v.126h-.1C108.618,8.506,105.552,8.744,105.552,10.844Zm2.436-.126c0-.6.882-.826,1.652-.826h.224v.154a1.337,1.337,0,0,1-1.19,1.274C108.2,11.32,107.988,11.054,107.988,10.718Zm5.852-.378c0,2.422,1.372,2.73,2.66,2.73a6.585,6.585,0,0,0,.728-.042v-2.1s-.14.014-.294.014c-.546,0-.672-.238-.672-.924V2.99H113.84Zm8.722,3.122-.686,1.834a6.378,6.378,0,0,0,2.73.644c1.974,0,4.074-.966,4.074-3.6V5.79h-2.268v.364a1.171,1.171,0,0,0,.014.168h-.042a2.734,2.734,0,0,0-1.96-.7c-2.184,0-3.234,1.708-3.234,3.542s1.078,3.626,3.248,3.626a2.145,2.145,0,0,0,1.806-.756h.028s-.014.182-.014.266v.238c0,1.064-.8,1.386-1.666,1.386A4.9,4.9,0,0,1,122.562,13.462Zm2.45-2.688c-.966,0-1.386-.8-1.386-1.694a1.272,1.272,0,0,1,1.288-1.442c.728,0,1.4.28,1.4,1.554S125.642,10.774,125.012,10.774Zm4.928-1.358a4.1,4.1,0,1,0,4.074-3.794A3.811,3.811,0,0,0,129.94,9.416Zm2.45,0a1.644,1.644,0,1,1,3.276,0,1.641,1.641,0,1,1-3.276,0ZM140.944,13H143.9l2.45-7.21h-2.562L142.68,9.626c-.14.476-.266,1.246-.266,1.246h-.028a12.311,12.311,0,0,0-.266-1.246L141,5.79h-2.548Zm5.782-3.612a3.739,3.739,0,0,0,3.962,3.78,4.869,4.869,0,0,0,3.08-1.05l-.9-1.694a3.78,3.78,0,0,1-1.988.728,1.61,1.61,0,0,1-1.68-1.288h4.55s.056-.518.056-.756a3.2,3.2,0,0,0-3.332-3.486A3.589,3.589,0,0,0,146.726,9.388Zm2.534-.91a1.182,1.182,0,0,1,1.162-1.036.982.982,0,0,1,.952,1.036ZM155.126,13h2.422V10.27a3.269,3.269,0,0,1,.126-.98,1.82,1.82,0,0,1,1.862-1.26,2.577,2.577,0,0,1,.49.042V5.692a1.637,1.637,0,0,0-.28-.028,2.5,2.5,0,0,0-2.3,1.792h-.028a3.815,3.815,0,0,0,.028-.448V5.79h-2.324Zm6.02,0h2.422V9.808a2.9,2.9,0,0,1,.14-.952,1.419,1.419,0,0,1,1.428-1.036c.532,0,.8.28.8.952V13h2.422V8.324c0-2.03-1.134-2.7-2.59-2.7a2.544,2.544,0,0,0-2.3,1.246h-.028a3.815,3.815,0,0,0,.028-.448V5.79h-2.324Zm8.9,0h2.422V10.018a4.562,4.562,0,0,1,.07-.9c.168-.77.56-1.3,1.316-1.3.462,0,.56.378.56.91V13h2.422V10.018a4.033,4.033,0,0,1,.056-.84c.154-.8.56-1.358,1.33-1.358.462,0,.56.378.56.91V13h2.422V8.324c0-1.988-1.022-2.7-2.338-2.7a2.785,2.785,0,0,0-2.31,1.218h-.028a2.088,2.088,0,0,0-2.016-1.218,2.565,2.565,0,0,0-2.142,1.246h-.028a3.815,3.815,0,0,0,.028-.448V5.79H170.05Zm12.334-3.612a3.739,3.739,0,0,0,3.962,3.78,4.869,4.869,0,0,0,3.08-1.05l-.9-1.694a3.78,3.78,0,0,1-1.988.728,1.61,1.61,0,0,1-1.68-1.288h4.55s.056-.518.056-.756a3.2,3.2,0,0,0-3.332-3.486A3.589,3.589,0,0,0,182.384,9.388Zm2.534-.91a1.182,1.182,0,0,1,1.162-1.036.982.982,0,0,1,.952,1.036ZM190.784,13h2.422V9.808a2.9,2.9,0,0,1,.14-.952,1.419,1.419,0,0,1,1.428-1.036c.532,0,.8.28.8.952V13h2.422V8.324c0-2.03-1.134-2.7-2.59-2.7a2.544,2.544,0,0,0-2.3,1.246h-.028a3.815,3.815,0,0,0,.028-.448V5.79h-2.324Zm9.268-2.66c0,2.422,2.226,2.73,3.374,2.73a4.661,4.661,0,0,0,.658-.042v-2.1s-.126.014-.322.014c-.462,0-1.288-.112-1.288-.924V7.806h1.512V5.916h-1.512V3.844h-2.352V5.916h-.994v1.89h.924Zm4.886,1.764a4.342,4.342,0,0,0,2.884,1.064c1.862,0,2.954-1.05,2.954-2.282,0-2.324-3.374-2.408-3.374-2.954,0-.252.35-.35.714-.35a2.88,2.88,0,0,1,1.708.588l.826-1.722a3.774,3.774,0,0,0-2.534-.826c-1.666,0-2.968.84-2.968,2.2,0,2.352,3.374,2.422,3.374,3.052,0,.238-.35.336-.714.336a3.034,3.034,0,0,1-1.834-.728Zm10.4-2.212h8.344V8.072H215.34Zm13.034,1.848a5.059,5.059,0,0,0,2.856,1.372v1.274h1.526V13.112a3.072,3.072,0,0,0,2.8-3.052c0-3.094-4.55-3.01-4.55-4.2,0-.56.56-.784,1.064-.784a3.82,3.82,0,0,1,2.212.882l1.036-2a4.378,4.378,0,0,0-2.562-1.092V1.59H231.23V2.906a3.04,3.04,0,0,0-2.674,2.982c0,3.01,4.55,3.108,4.55,4.228,0,.6-.546.8-1.05.8a4.148,4.148,0,0,1-2.394-1.036ZM236.9,13h6.664V10.9h-2.142V2.99h-2.114l-2.7,2.534,1.414,1.512.6-.546a1.891,1.891,0,0,0,.392-.532h.028s-.014.392-.014.77V10.9H236.9Zm7.8,0h2.3V10.7h-2.3Zm7.49.168c2.842,0,3.766-2.324,3.766-5.194s-.924-5.152-3.766-5.152-3.766,2.282-3.766,5.152S249.346,13.168,252.188,13.168Zm0-2.24c-.966,0-1.246-1.316-1.246-2.954s.28-2.912,1.246-2.912,1.246,1.288,1.246,2.912S253.154,10.928,252.188,10.928Zm4.844-.35h4.438V13h2.422V10.578h1.19V8.548h-1.19V2.99h-3l-3.864,6.1Zm2.492-2.03V8.52l1.512-2.3a5.334,5.334,0,0,0,.49-1.036h.028a8.948,8.948,0,0,0-.084,1.12v2.24ZM270.15,10.34c0,2.422,2.226,2.73,3.374,2.73a4.661,4.661,0,0,0,.658-.042v-2.1s-.126.014-.322.014c-.462,0-1.288-.112-1.288-.924V7.806h1.512V5.916h-1.512V3.844H270.22V5.916h-.994v1.89h.924ZM275.6,13h2.422V10.27a3.268,3.268,0,0,1,.126-.98,1.82,1.82,0,0,1,1.862-1.26,2.577,2.577,0,0,1,.49.042V5.692a1.637,1.637,0,0,0-.28-.028,2.5,2.5,0,0,0-2.3,1.792h-.028a3.813,3.813,0,0,0,.028-.448V5.79H275.6Zm6.048-8.12h2.366V2.99h-2.366ZM281.616,13h2.422V5.79h-2.422Zm4.116-2.66c0,2.422,1.372,2.73,2.66,2.73a6.585,6.585,0,0,0,.728-.042v-2.1s-.14.014-.294.014c-.546,0-.672-.238-.672-.924V2.99h-2.422Zm4.522,0c0,2.422,1.372,2.73,2.66,2.73a6.585,6.585,0,0,0,.728-.042v-2.1s-.14.014-.294.014c-.546,0-.672-.238-.672-.924V2.99h-2.422ZM294.9,4.88h2.366V2.99H294.9ZM294.874,13H297.3V5.79h-2.422Zm3.682-3.584a4.1,4.1,0,1,0,4.074-3.794A3.811,3.811,0,0,0,298.556,9.416Zm2.45,0a1.644,1.644,0,1,1,3.276,0,1.641,1.641,0,1,1-3.276,0ZM307.992,13h2.422V9.808a2.9,2.9,0,0,1,.14-.952,1.419,1.419,0,0,1,1.428-1.036c.532,0,.8.28.8.952V13H315.2V8.324c0-2.03-1.134-2.7-2.59-2.7a2.544,2.544,0,0,0-2.3,1.246h-.028a3.813,3.813,0,0,0,.028-.448V5.79h-2.324Z" transform="translate(120 8553)" fill="#efefef"/>
    <g id="Group_128" data-name="Group 128" transform="translate(203.382 8092.398)">
      <g id="Path_1947" data-name="Path 1947" transform="translate(-70.871 -141.328)" fill="#3f75a2" stroke-miterlimit="10">
        <path d="M 80.30716705322266 426.2695922851562 C 76.28506469726562 412.0050659179688 73.67111206054688 397.3568115234375 72.53517150878906 382.7120361328125 C 71.40320587158203 368.1193237304688 71.72409820556641 353.3542175292969 73.48891448974609 338.8268127441406 C 75.22174072265625 324.5628967285156 78.36316680908203 310.3837280273438 82.82595062255859 296.68310546875 C 87.24641418457031 283.1123962402344 93.00138092041016 269.892822265625 99.93091583251953 257.3915710449219 C 106.8604888916016 244.8903656005859 115.0216674804688 233.0045776367188 124.1877746582031 222.0643920898438 C 133.4416351318359 211.0195465087891 143.8015289306641 200.8416442871094 154.9797821044922 191.8134002685547 C 166.3644866943359 182.6183929443359 178.7159881591797 174.5219268798828 191.6911010742188 167.7489318847656 C 205.0050659179688 160.7990417480469 219.1419525146484 155.1572265625 233.7090911865234 150.9801788330078 C 253.6917114257812 145.2501831054688 273.513671875 142.4182281494141 294.2700500488281 142.3301239013672 L 294.2700500488281 245.4080505371094 C 286.3788146972656 245.4719390869141 278.5005493164062 246.2916717529297 270.8369445800781 247.8470458984375 C 263.0520935058594 249.4270477294922 255.3946380615234 251.7846527099609 248.0772399902344 254.8543701171875 C 240.8927764892578 257.8682861328125 233.96337890625 261.5987243652344 227.4815673828125 265.9419555664062 C 221.0614166259766 270.243896484375 215.0242462158203 275.184326171875 209.5376281738281 280.6260986328125 C 204.0509185791016 286.0679931640625 199.0695648193359 292.0561218261719 194.7319946289062 298.4241027832031 C 190.3525238037109 304.8536071777344 186.5909881591797 311.7271423339844 183.5518493652344 318.8537902832031 C 180.4563751220703 326.112548828125 178.0789489746094 333.7087707519531 176.4856719970703 341.4313659667969 C 174.8509216308594 349.3549194335938 174.0220184326172 357.5098266601562 174.0220184326172 365.6695861816406 C 174.0220184326172 376.6810607910156 175.525634765625 387.5921630859375 178.4917602539062 398.1156921386719 L 80.30716705322266 426.2695922851562 Z" stroke="none"/>
        <path d="M 80.99925231933594 425.0308227539062 L 177.26318359375 397.4276733398438 C 174.4481353759766 387.1123657226562 173.0220184326172 376.4389038085938 173.0220184326172 365.6695556640625 C 173.0220184326172 357.4420776367188 173.8578491210938 349.2191772460938 175.5062713623047 341.2292785644531 C 177.1130218505859 333.4415893554688 179.5104370117188 325.7814025878906 182.6320190429688 318.4614868164062 C 185.6965637207031 311.2752075195312 189.4895172119141 304.34423828125 193.905517578125 297.8611755371094 C 198.2789764404297 291.4404602050781 203.3014373779297 285.4028625488281 208.8334350585938 279.9160766601562 C 214.3651428222656 274.4295959472656 220.4519805908203 269.448486328125 226.9248962402344 265.1112060546875 C 233.4601440429688 260.732177734375 240.4466400146484 256.9710083007812 247.6903991699219 253.9322052001953 C 255.0682220458984 250.8371276855469 262.7889404296875 248.4600372314453 270.6380615234375 246.8670043945312 C 278.0433959960938 245.3640441894531 285.6466369628906 244.5424346923828 293.2700500488281 244.4200592041016 L 293.2700500488281 143.3365325927734 C 272.970458984375 143.5098571777344 253.5559234619141 146.3294525146484 233.9847259521484 151.9414978027344 C 219.4822235107422 156.0999603271484 205.4082641601562 161.7166290283203 192.1539001464844 168.6354217529297 C 179.2372741699219 175.3779144287109 166.9414825439453 183.4378814697266 155.6081085205078 192.5913696289062 C 144.4801025390625 201.5790405273438 134.1666870117188 211.7112884521484 124.9543075561523 222.7066650390625 C 115.8290634155273 233.5980377197266 107.704231262207 245.4308776855469 100.8055572509766 257.8764038085938 C 93.90685272216797 270.3219909667969 88.17755889892578 283.482666015625 83.77677154541016 296.9928894042969 C 79.33397674560547 310.6320495605469 76.20664215087891 324.7476196289062 74.48164367675781 338.9474182128906 C 72.72476959228516 353.4093017578125 72.40534973144531 368.1078186035156 73.53218841552734 382.6347045898438 C 74.63738250732422 396.8827819824219 77.14817810058594 411.1353454589844 80.99925231933594 425.0308227539062 M 79.61943817138672 427.507080078125 C 45.46710205078125 308.40576171875 114.3320999145508 184.1703796386719 233.4334716796875 150.0189514160156 C 253.7998046875 144.1789093017578 274.0835876464844 141.3280029296875 295.2700500488281 141.3280029296875 L 295.2700500488281 246.4040069580078 C 228.8588562011719 246.4040069580078 175.0220184326172 299.8010864257812 175.0220184326172 365.6695556640625 C 175.0220184326172 377.1668701171875 176.6669006347656 388.2819519042969 179.7283935546875 398.8014221191406 L 79.61943817138672 427.507080078125 Z" stroke="none" fill="#efefef"/>
      </g>
      <g id="Path_1948" data-name="Path 1948" transform="translate(-71.552 -161.387)" fill="#bf1d1d" stroke-miterlimit="10">
        <path d="M 87.08666229248047 464.8333435058594 C 84.72276306152344 458.6289367675781 83.38186645507812 454.6208801269531 81.53898620605469 448.2509765625 L 179.7322540283203 420.0946044921875 C 180.5507965087891 422.8198852539062 181.4766235351562 425.5418701171875 182.4925842285156 428.2101440429688 L 87.08666229248047 464.8333435058594 Z" stroke="none"/>
        <path d="M 179.0625610351562 421.3269348144531 L 82.779541015625 448.9355773925781 C 84.38203430175781 454.4151306152344 85.64585876464844 458.1927185058594 87.66551208496094 463.5400085449219 L 181.20703125 427.6324768066406 C 180.4345397949219 425.5516357421875 179.7170257568359 423.4419250488281 179.0625610351562 421.3269348144531 M 180.4099578857422 418.8599853515625 C 181.3914794921875 422.2322998046875 182.5195922851562 425.5423889160156 183.7859497070312 428.7848205566406 L 86.51026916503906 466.1257629394531 C 83.80224609375 459.0694580078125 82.38374328613281 454.8306884765625 80.30101013183594 447.565673828125 L 180.4099578857422 418.8599853515625 Z" stroke="none" fill="#efefef"/>
      </g>
      <g id="Path_1949" data-name="Path 1949" transform="translate(-72.036 -162.16)" fill="#1c77c3" stroke-miterlimit="10">
        <path d="M 100.6136322021484 493.9043579101562 C 96.12626647949219 485.7073059082031 91.68431091308594 476.1815795898438 88.2884521484375 467.4732055664062 L 183.7037811279297 430.8464050292969 C 185.54150390625 435.4374389648438 187.6868438720703 439.9553527832031 190.0941467285156 444.3039855957031 L 100.6136322021484 493.9043579101562 Z" stroke="none"/>
        <path d="M 183.1455993652344 432.1318054199219 L 89.5877685546875 468.0455932617188 C 92.79421997070312 476.1454162597656 96.86720275878906 484.8797302246094 101.0103149414062 492.5411071777344 L 188.7388305664062 443.9118957519531 C 186.6634368896484 440.0881042480469 184.7887420654297 436.1397399902344 183.1455993652344 432.1318054199219 M 184.2696990966797 429.5580139160156 C 186.3134613037109 434.7922668457031 188.719970703125 439.8455505371094 191.4567718505859 444.6920166015625 L 100.2214965820312 495.2650756835938 C 95.4158935546875 486.595458984375 90.5462646484375 476.152099609375 86.99400329589844 466.8989562988281 L 184.2696990966797 429.5580139160156 Z" stroke="none" fill="#efefef"/>
      </g>
      <g id="Path_1950" data-name="Path 1950" transform="translate(-73.066 -163.339)" fill="#e50a17" stroke-miterlimit="10">
        <path d="M 138.8336639404297 544.8992919921875 C 131.4242553710938 537.4318237304688 124.9407958984375 529.9785766601562 119.0334548950195 522.1393432617188 C 113.125846862793 514.2996826171875 107.7485275268555 506.0131530761719 102.6131210327148 496.8329467773438 L 192.1079406738281 447.2246704101562 C 197.3902282714844 456.4013061523438 203.8651885986328 464.8483581542969 211.3734741210938 472.3585815429688 L 138.8336639404297 544.8992919921875 Z" stroke="none"/>
        <path d="M 191.7356262207031 448.5744018554688 L 103.9776763916016 497.2199096679688 C 108.9421844482422 506.0126342773438 114.1403656005859 513.984375 119.8320770263672 521.5374755859375 C 125.5235443115234 529.09033203125 131.7537994384766 536.2845458984375 138.8378448486328 543.4808959960938 L 209.9622192382812 472.3555908203125 C 202.9213409423828 465.1968994140625 196.8012847900391 457.2118530273438 191.7356262207031 448.5744018554688 M 192.4872741699219 445.8710327148438 C 197.9970092773438 455.6279296875 204.8445587158203 464.5386962890625 212.7905120849609 472.355712890625 L 138.8322906494141 546.3148803710938 C 123.5007019042969 530.9823608398438 111.7640533447266 515.40771484375 101.2519683837891 496.444091796875 L 192.4872741699219 445.8710327148438 Z" stroke="none" fill="#efefef"/>
      </g>
      <g id="Path_1951" data-name="Path 1951" transform="translate(-75.994 -165.402)" fill="#1762a0" stroke-miterlimit="10">
        <path d="M 230.4268646240234 601.8439331054688 C 221.6361389160156 598.9556884765625 213.6508941650391 595.8839111328125 206.0445709228516 592.4656372070312 C 198.0421905517578 588.8693237304688 190.6537322998047 584.977294921875 183.4570159912109 580.5671997070312 C 176.2603607177734 576.1571655273438 169.438232421875 571.3410034179688 162.600830078125 565.8436279296875 C 156.1019134521484 560.618408203125 149.7397766113281 554.898193359375 143.1753845214844 548.3770141601562 L 215.7268676757812 475.8246154785156 C 222.2468872070312 482.1349182128906 229.4794006347656 487.7146301269531 237.2380218505859 492.4187927246094 C 245.1037902832031 497.1879577636719 253.510986328125 501.0567321777344 262.2422790527344 503.9261474609375 L 230.4268646240234 601.8439331054688 Z" stroke="none"/>
        <path d="M 215.7411346435547 477.2245483398438 L 144.5931396484375 548.3734741210938 C 150.8806610107422 554.57763671875 156.9916229248047 560.0505981445312 163.2274322509766 565.0642700195312 C 170.0313568115234 570.5347900390625 176.8194274902344 575.326904296875 183.9795074462891 579.714599609375 C 191.1396331787109 584.1022338867188 198.4912567138672 587.9747314453125 206.4544830322266 591.553466796875 C 213.7528839111328 594.8333740234375 221.4037780761719 597.7935791015625 229.7863616943359 600.5791015625 L 260.9844970703125 504.5610961914062 C 252.5197448730469 501.7022094726562 244.3657531738281 497.909912109375 236.7195587158203 493.27392578125 C 229.1776733398438 488.7011108398438 222.1284942626953 483.3074951171875 215.7411346435547 477.2245483398438 M 215.7182464599609 474.4190063476562 C 228.98193359375 487.4683837890625 245.2950592041016 497.4674072265625 263.5025939941406 503.2833251953125 L 231.0683898925781 603.1055297851562 C 194.8926696777344 591.3512573242188 168.6566009521484 575.2738037109375 141.760009765625 548.378173828125 L 215.7182464599609 474.4190063476562 Z" stroke="none" fill="#efefef"/>
      </g>
      <g id="Path_1952" data-name="Path 1952" transform="translate(-82.952 -167.547)" fill="#a7050e" stroke-miterlimit="10">
        <path d="M 307.5594177246094 615.5617065429688 C 296.1009216308594 615.5617065429688 284.4676208496094 614.6145629882812 272.9826965332031 612.74658203125 C 261.8077392578125 610.9290771484375 250.4763031005859 608.19140625 239.2867431640625 604.6064453125 L 271.1051025390625 506.6795959472656 C 282.8122863769531 510.3130493164062 295.001953125 512.1549682617188 307.3512268066406 512.1549682617188 C 321.1495056152344 512.1549682617188 334.6818542480469 509.8719787597656 347.5897521972656 505.3680725097656 L 382.7981567382812 602.1014404296875 C 370.52197265625 606.5128784179688 358.0544128417969 609.8798217773438 345.724365234375 612.11279296875 C 333.0874633789062 614.4013061523438 320.2469177246094 615.5617065429688 307.5594177246094 615.5617065429688 Z" stroke="none"/>
        <path d="M 346.9862060546875 506.633544921875 C 334.2538452148438 510.961669921875 320.9298095703125 513.1549682617188 307.3512268066406 513.1549682617188 C 295.2322082519531 513.1549682617188 283.2668762207031 511.395751953125 271.7524108886719 507.9234008789062 L 240.5486755371094 603.95849609375 C 251.3798217773438 607.3792114257812 262.3355102539062 610.0017700195312 273.1432189941406 611.7595825195312 C 284.5752563476562 613.618896484375 296.154541015625 614.5617065429688 307.5594177246094 614.5617065429688 C 320.1873168945312 614.5617065429688 332.9679260253906 613.40673828125 345.5461730957031 611.1287841796875 C 357.5054016113281 608.9630126953125 369.595947265625 605.7251586914062 381.5143127441406 601.4979858398438 L 346.9862060546875 506.633544921875 M 348.1905822753906 504.094970703125 L 384.08056640625 602.7010498046875 C 358.69189453125 611.942138671875 333.1682739257812 616.5616455078125 307.5594177246094 616.5616455078125 C 284.4314270019531 616.5616455078125 261.2324829101562 612.7906494140625 238.0260009765625 605.2504272460938 L 270.4602355957031 505.4281616210938 C 282.0855407714844 509.140869140625 294.4808654785156 511.1549682617188 307.3512268066406 511.1549682617188 C 321.6901245117188 511.1549682617188 335.43994140625 508.6612548828125 348.1905822753906 504.094970703125 Z" stroke="none" fill="#efefef"/>
      </g>
      <g id="Path_1953" data-name="Path 1953" transform="translate(-91.534 -158.196)" fill="#10416b" stroke-miterlimit="10">
        <path d="M 393.2599792480469 592.0659790039062 L 358.0550842285156 495.3421936035156 C 369.2581787109375 491.2251892089844 379.7715148925781 485.4866027832031 389.3192138671875 478.2758178710938 C 399.0341491699219 470.9387512207031 407.5580139160156 462.2239685058594 414.6539916992188 452.3735961914062 C 421.8408203125 442.3971252441406 427.4198303222656 431.4506225585938 431.2360229492188 419.8381652832031 C 435.1812438964844 407.8330993652344 437.181640625 395.2832336425781 437.181640625 382.5370788574219 C 437.181640625 381.5405883789062 437.1654357910156 380.4955139160156 437.1311950683594 379.3055725097656 L 539.1723022460938 375.7423706054688 C 539.9136962890625 399.7969055175781 537.0797729492188 423.3495788574219 530.7457275390625 445.7613525390625 C 524.4453735351562 468.0539245605469 514.7515869140625 488.99267578125 501.9336853027344 507.9960021972656 C 489.1157531738281 526.9993286132812 473.3330383300781 543.8310546875 455.0238647460938 558.0235595703125 C 436.6167602539062 572.2919311523438 415.8406982421875 583.7424926757812 393.2599792480469 592.0659790039062 Z" stroke="none"/>
        <path d="M 538.2015991210938 376.77685546875 L 438.1559448242188 380.2703857421875 C 438.1733093261719 381.0740356445312 438.181640625 381.81787109375 438.181640625 382.537109375 C 438.181640625 395.3894653320312 436.1644287109375 408.0443725585938 432.18603515625 420.1503295898438 C 428.3378295898438 431.8602294921875 422.7121887207031 442.8983764648438 415.4653930664062 452.9580688476562 C 408.3108215332031 462.8897399902344 399.7167663574219 471.6763305664062 389.921875 479.0738220214844 C 380.5613403320312 486.1432800292969 370.2804565429688 491.80908203125 359.3343505859375 495.9331359863281 L 393.8554992675781 590.7784423828125 C 415.9760131835938 582.5205078125 436.34130859375 571.2401733398438 454.4111938476562 557.233154296875 C 472.6362609863281 543.1058349609375 488.34619140625 526.3519287109375 501.1046447753906 507.4367980957031 C 513.863037109375 488.5216979980469 523.5120239257812 467.6795654296875 529.7833862304688 445.4893798828125 C 536.0014038085938 423.4881591796875 538.8314208984375 400.3800659179688 538.2015991210938 376.77685546875 M 540.1387939453125 374.7080078125 C 543.6112670898438 474.1397399902344 486.1553955078125 559.3215942382812 392.6629943847656 593.349609375 L 356.7730102539062 494.7435607910156 C 403.0804138183594 478.1595458984375 436.181640625 434.1844482421875 436.181640625 382.537109375 C 436.181640625 381.1324462890625 436.1482543945312 379.7344360351562 436.1000061035156 378.3409423828125 L 540.1387939453125 374.7080078125 Z" stroke="none" fill="#efefef"/>
      </g>
      <g id="Path_1954" data-name="Path 1954" transform="translate(-88.353 -141.328)" fill="#bf1d1d" stroke-miterlimit="10">
        <path d="M 433.8787536621094 360.4393310546875 C 433.5504150390625 352.8496398925781 432.4999389648438 345.2867431640625 430.7533264160156 337.9444580078125 C 428.9735717773438 330.4629821777344 426.449462890625 323.1170349121094 423.2510986328125 316.1106567382812 C 420.1064453125 309.2220458984375 416.2769470214844 302.5881958007812 411.8689270019531 296.3934020996094 C 407.4978942871094 290.2505798339844 402.5169677734375 284.4813232421875 397.0644226074219 279.2459106445312 C 391.6075134277344 274.0063171386719 385.628662109375 269.2537536621094 379.2939147949219 265.1202697753906 C 372.8957214355469 260.9454040527344 366.0723266601562 257.3617858886719 359.01318359375 254.4689636230469 C 351.8236694335938 251.5227203369141 344.3094787597656 249.2606658935547 336.6792602539062 247.7456359863281 C 329.1775817871094 246.2561492919922 321.4698486328125 245.4705200195312 313.7520446777344 245.4080352783203 L 313.7520446777344 142.3301849365234 C 328.3284301757812 142.3932342529297 342.8681335449219 143.8356628417969 356.9864196777344 146.6199645996094 C 371.0848083496094 149.4003448486328 384.94775390625 153.5544281005859 398.190185546875 158.9668426513672 C 411.2097778320312 164.2881927490234 423.778564453125 170.8859252929688 435.5473022460938 178.5767822265625 C 447.2129211425781 186.2002563476562 458.2120666503906 194.9754028320312 468.2391662597656 204.6584930419922 C 478.2662963867188 214.341552734375 487.4199523925781 225.0277252197266 495.4459228515625 236.4201354980469 C 503.5428161621094 247.9133148193359 510.5751647949219 260.2441101074219 516.34765625 273.070068359375 C 522.2188720703125 286.1155090332031 526.8541870117188 299.8250122070312 530.1248779296875 313.8177795410156 C 533.400146484375 327.8302917480469 535.3490600585938 342.3108215332031 535.9207153320312 356.8760986328125 L 433.8787536621094 360.4393310546875 Z" stroke="none"/>
        <path d="M 434.8308715820312 359.4054870605469 L 534.8798828125 355.911865234375 C 534.2620239257812 341.7488403320312 532.336669921875 327.6739501953125 529.151123046875 314.0454406738281 C 525.8951416015625 300.1152648925781 521.2805786132812 286.4672546386719 515.4357299804688 273.4804992675781 C 509.6893615722656 260.7124633789062 502.6887512207031 248.4373321533203 494.62841796875 236.99609375 C 486.6387023925781 225.6550903320312 477.5263671875 215.0171966552734 467.5445251464844 205.3778228759766 C 457.5626525878906 195.7384643554688 446.6131896972656 187.0029296875 435.000244140625 179.4138946533203 C 423.28466796875 171.7577667236328 410.7726745605469 165.1898193359375 397.8118591308594 159.8924865722656 C 384.6289672851562 154.5044250488281 370.8282165527344 150.3689880371094 356.7929077148438 147.6010284423828 C 343.0614929199219 144.8930358886719 328.927978515625 143.4599761962891 314.7520446777344 143.3366851806641 L 314.7520446777344 244.4200592041016 C 322.2003784179688 244.5397033691406 329.6326599121094 245.3269805908203 336.8740234375 246.7647857666016 C 344.5671691894531 248.2923278808594 352.1434326171875 250.5730590820312 359.3923950195312 253.5436553955078 C 366.5097351074219 256.4603271484375 373.3894348144531 260.073486328125 379.8403625488281 264.2827453613281 C 386.2272033691406 268.4502563476562 392.2552490234375 273.2418823242188 397.7570190429688 278.5245971679688 C 403.2544860839844 283.8031616210938 408.2765502929688 289.6200256347656 412.6837158203125 295.8136291503906 C 417.12841796875 302.0599975585938 420.9898376464844 308.7492065429688 424.1607360839844 315.6954040527344 C 427.3860473632812 322.7607116699219 429.9314270019531 330.1685180664062 431.7261352539062 337.7130737304688 C 433.4114685058594 344.7975769042969 434.4540405273438 352.0851745605469 434.8308715820312 359.4054870605469 M 432.9183959960938 361.4734497070312 C 430.6881408691406 297.5494995117188 377.74658203125 246.4039916992188 312.7520446777344 246.4039916992188 L 312.7520446777344 141.3279876708984 C 434.5465393066406 141.3279876708984 532.707275390625 236.1201934814453 536.9571533203125 357.8405151367188 L 432.9183959960938 361.4734497070312 Z" stroke="none" fill="#efefef"/>
      </g>
    </g>
    <path id="Path_3262" data-name="Path 3262" d="M1.176,13h2.45V9.29H6.678V7.19H3.626V5.09H7.308V2.99H1.176ZM8.064,9.388a3.739,3.739,0,0,0,3.962,3.78,4.869,4.869,0,0,0,3.08-1.05l-.9-1.694a3.78,3.78,0,0,1-1.988.728,1.61,1.61,0,0,1-1.68-1.288h4.55s.056-.518.056-.756a3.2,3.2,0,0,0-3.332-3.486A3.589,3.589,0,0,0,8.064,9.388Zm2.534-.91A1.182,1.182,0,0,1,11.76,7.442a.982.982,0,0,1,.952,1.036Zm5.376.91c0,2.24,1.288,3.78,3.248,3.78a2.408,2.408,0,0,0,2.086-1.05h.028s-.014.182-.014.406V13H23.59V2.99H21.168V5.874c0,.182.014.322.014.322h-.028s-.434-.574-1.89-.574C17.346,5.622,15.974,7.106,15.974,9.388Zm2.436,0c0-1.106.658-1.722,1.414-1.722.952,0,1.414.854,1.414,1.722,0,1.246-.686,1.778-1.414,1.778C18.984,11.166,18.41,10.466,18.41,9.388Zm6.454,0a3.739,3.739,0,0,0,3.962,3.78,4.869,4.869,0,0,0,3.08-1.05l-.9-1.694a3.78,3.78,0,0,1-1.988.728,1.61,1.61,0,0,1-1.68-1.288h4.55s.056-.518.056-.756a3.2,3.2,0,0,0-3.332-3.486A3.589,3.589,0,0,0,24.864,9.388Zm2.534-.91A1.182,1.182,0,0,1,28.56,7.442a.982.982,0,0,1,.952,1.036ZM33.264,13h2.422V10.27a3.269,3.269,0,0,1,.126-.98,1.82,1.82,0,0,1,1.862-1.26,2.577,2.577,0,0,1,.49.042V5.692a1.637,1.637,0,0,0-.28-.028,2.5,2.5,0,0,0-2.3,1.792H35.56a3.815,3.815,0,0,0,.028-.448V5.79H33.264Zm5.474-2.156a2.306,2.306,0,0,0,2.45,2.324,2.244,2.244,0,0,0,2.044-1.05h.028a3.815,3.815,0,0,0-.028.448V13h2.212V8.562c0-1.834-1.218-2.94-3.248-2.94a5.453,5.453,0,0,0-3.024.938l.84,1.708a4.3,4.3,0,0,1,1.946-.686c.6,0,1.064.2,1.064.8v.126h-.1C41.8,8.506,38.738,8.744,38.738,10.844Zm2.436-.126c0-.6.882-.826,1.652-.826h.224v.154a1.337,1.337,0,0,1-1.19,1.274C41.384,11.32,41.174,11.054,41.174,10.718Zm5.852-.378c0,2.422,1.372,2.73,2.66,2.73a6.585,6.585,0,0,0,.728-.042v-2.1s-.14.014-.294.014c-.546,0-.672-.238-.672-.924V2.99H47.026ZM55.132,13h2.45V9.626H58.73L60.508,13h2.73L61.292,9.5a5.737,5.737,0,0,0-.378-.6V8.87a3.047,3.047,0,0,0,1.5-2.73,2.91,2.91,0,0,0-1.848-2.912,5.179,5.179,0,0,0-1.946-.238H55.132Zm2.45-5.474V5.09h.826c1.232,0,1.512.448,1.512,1.2a1.146,1.146,0,0,1-1.274,1.232Zm6.272,1.862a3.739,3.739,0,0,0,3.962,3.78,4.869,4.869,0,0,0,3.08-1.05L70,10.424a3.78,3.78,0,0,1-1.988.728,1.61,1.61,0,0,1-1.68-1.288h4.55s.056-.518.056-.756a3.2,3.2,0,0,0-3.332-3.486A3.589,3.589,0,0,0,63.854,9.388Zm2.534-.91A1.182,1.182,0,0,1,67.55,7.442.982.982,0,0,1,68.5,8.478ZM71.694,12.1a4.342,4.342,0,0,0,2.884,1.064c1.862,0,2.954-1.05,2.954-2.282,0-2.324-3.374-2.408-3.374-2.954,0-.252.35-.35.714-.35a2.88,2.88,0,0,1,1.708.588l.826-1.722a3.774,3.774,0,0,0-2.534-.826c-1.666,0-2.968.84-2.968,2.2,0,2.352,3.374,2.422,3.374,3.052,0,.238-.35.336-.714.336a3.034,3.034,0,0,1-1.834-.728ZM78.33,9.388a3.739,3.739,0,0,0,3.962,3.78,4.869,4.869,0,0,0,3.08-1.05l-.9-1.694a3.78,3.78,0,0,1-1.988.728,1.61,1.61,0,0,1-1.68-1.288h4.55s.056-.518.056-.756a3.2,3.2,0,0,0-3.332-3.486A3.589,3.589,0,0,0,78.33,9.388Zm2.534-.91a1.182,1.182,0,0,1,1.162-1.036.982.982,0,0,1,.952,1.036ZM86.73,13h2.422V10.27a3.269,3.269,0,0,1,.126-.98A1.82,1.82,0,0,1,91.14,8.03a2.577,2.577,0,0,1,.49.042V5.692a1.637,1.637,0,0,0-.28-.028,2.5,2.5,0,0,0-2.3,1.792h-.028a3.815,3.815,0,0,0,.028-.448V5.79H86.73Zm7.714,0H97.4l2.45-7.21H97.286L96.18,9.626c-.14.476-.266,1.246-.266,1.246h-.028a12.31,12.31,0,0,0-.266-1.246L94.5,5.79H91.952Zm5.782-3.612a3.739,3.739,0,0,0,3.962,3.78,4.869,4.869,0,0,0,3.08-1.05l-.9-1.694a3.78,3.78,0,0,1-1.988.728,1.61,1.61,0,0,1-1.68-1.288h4.55s.056-.518.056-.756a3.2,3.2,0,0,0-3.332-3.486A3.589,3.589,0,0,0,100.226,9.388Zm2.534-.91a1.182,1.182,0,0,1,1.162-1.036.982.982,0,0,1,.952,1.036Zm9.114,1.414h8.344V8.072h-8.344ZM.546,28.74A5.059,5.059,0,0,0,3.4,30.112v1.274H4.928V30.112a3.072,3.072,0,0,0,2.8-3.052c0-3.094-4.55-3.01-4.55-4.2,0-.56.56-.784,1.064-.784a3.82,3.82,0,0,1,2.212.882l1.036-2a4.378,4.378,0,0,0-2.562-1.092V18.59H3.4v1.316A3.04,3.04,0,0,0,.728,22.888c0,3.01,4.55,3.108,4.55,4.228,0,.6-.546.8-1.05.8a4.148,4.148,0,0,1-2.394-1.036ZM9.072,30H16V27.9H11.746c.07-1.288,4.1-1.89,4.1-5.012a3.123,3.123,0,0,0-3.416-3.066A3.86,3.86,0,0,0,8.9,21.978l1.82,1.218s.532-1.064,1.484-1.064a.989.989,0,0,1,1.078.994c0,1.442-4.326,2.1-4.326,5.8A6.134,6.134,0,0,0,9.072,30Zm8.442,0h2.3V27.7h-2.3Zm3.472-2.422h4.438V30h2.422V27.578h1.19v-2.03h-1.19V19.99h-3l-3.864,6.1Zm2.492-2.03V25.52l1.512-2.3a5.334,5.334,0,0,0,.49-1.036h.028a8.946,8.946,0,0,0-.084,1.12v2.24Zm10.864,4.62a3.321,3.321,0,0,0,3.416-3.374,3.284,3.284,0,0,0-3.276-3.43,3.028,3.028,0,0,0-1.372.35h-.028a2.184,2.184,0,0,1,2.156-1.652,3.813,3.813,0,0,1,1.372.294l.658-2.1a5.048,5.048,0,0,0-2.212-.434c-3.108,0-4.774,2.842-4.774,5.558C30.282,28.642,32.326,30.168,34.342,30.168Zm0-2.24A1.856,1.856,0,0,1,32.8,25.94c0-.462.476-.6,1.036-.6a1.4,1.4,0,0,1,1.512,1.47A1.049,1.049,0,0,1,34.342,27.928Zm8.428-.588c0,2.422,2.226,2.73,3.374,2.73a4.661,4.661,0,0,0,.658-.042v-2.1s-.126.014-.322.014c-.462,0-1.288-.112-1.288-.924V24.806H46.7v-1.89H45.192V20.844H42.84v2.072h-.994v1.89h.924ZM48.216,30h2.422V27.27a3.269,3.269,0,0,1,.126-.98,1.82,1.82,0,0,1,1.862-1.26,2.577,2.577,0,0,1,.49.042v-2.38a1.637,1.637,0,0,0-.28-.028,2.5,2.5,0,0,0-2.3,1.792h-.028a3.815,3.815,0,0,0,.028-.448V22.79H48.216Zm6.048-8.12H56.63V19.99H54.264ZM54.236,30h2.422V22.79H54.236Zm4.116-2.66c0,2.422,1.372,2.73,2.66,2.73a6.585,6.585,0,0,0,.728-.042v-2.1s-.14.014-.294.014c-.546,0-.672-.238-.672-.924V19.99H58.352Zm4.522,0c0,2.422,1.372,2.73,2.66,2.73a6.585,6.585,0,0,0,.728-.042v-2.1s-.14.014-.294.014c-.546,0-.672-.238-.672-.924V19.99H62.874Zm4.648-5.46h2.366V19.99H67.522ZM67.494,30h2.422V22.79H67.494Zm3.682-3.584a4.1,4.1,0,1,0,4.074-3.794A3.811,3.811,0,0,0,71.176,26.416Zm2.45,0a1.644,1.644,0,1,1,3.276,0,1.641,1.641,0,1,1-3.276,0ZM80.612,30h2.422V26.808a2.9,2.9,0,0,1,.14-.952A1.419,1.419,0,0,1,84.6,24.82c.532,0,.8.28.8.952V30h2.422V25.324c0-2.03-1.134-2.7-2.59-2.7a2.544,2.544,0,0,0-2.3,1.246h-.028a3.815,3.815,0,0,0,.028-.448v-.63H80.612Z" transform="translate(584 8092)" fill="#efefef"/>
    <path id="Path_3261" data-name="Path 3261" d="M.868,13H3.332L3.64,8.492a14.9,14.9,0,0,0,0-1.68h.028s.336,1.05.56,1.68l1.05,2.9h2.1l1.05-2.9c.224-.63.56-1.68.56-1.68h.028a14.9,14.9,0,0,0,0,1.68L9.324,13h2.45L10.962,2.99H8.3L6.846,7.218c-.224.644-.5,1.652-.5,1.652H6.314s-.28-1.008-.5-1.652L4.354,2.99H1.694ZM13.44,10.466c0,2.03,1.134,2.7,2.562,2.7a2.5,2.5,0,0,0,2.254-1.246h.028a3.815,3.815,0,0,0-.028.448V13H20.58V5.79H18.158V8.982c0,1.078-.49,1.988-1.526,1.988-.5,0-.77-.28-.77-.952V5.79H13.44Zm9.3-.126c0,2.422,2.226,2.73,3.374,2.73a4.661,4.661,0,0,0,.658-.042v-2.1s-.126.014-.322.014c-.462,0-1.288-.112-1.288-.924V7.806H26.67V5.916H25.158V3.844H22.806V5.916h-.994v1.89h.924Zm5.348.126c0,2.03,1.134,2.7,2.562,2.7A2.5,2.5,0,0,0,32.9,11.922h.028a3.815,3.815,0,0,0-.028.448V13h2.324V5.79H32.8V8.982c0,1.078-.49,1.988-1.526,1.988-.5,0-.77-.28-.77-.952V5.79H28.084Zm8.386.378a2.306,2.306,0,0,0,2.45,2.324,2.244,2.244,0,0,0,2.044-1.05h.028a3.815,3.815,0,0,0-.028.448V13h2.212V8.562c0-1.834-1.218-2.94-3.248-2.94A5.453,5.453,0,0,0,36.9,6.56l.84,1.708a4.3,4.3,0,0,1,1.946-.686c.6,0,1.064.2,1.064.8v.126h-.1C39.536,8.506,36.47,8.744,36.47,10.844Zm2.436-.126c0-.6.882-.826,1.652-.826h.224v.154a1.337,1.337,0,0,1-1.19,1.274C39.116,11.32,38.906,11.054,38.906,10.718Zm5.852-.378c0,2.422,1.372,2.73,2.66,2.73a6.585,6.585,0,0,0,.728-.042v-2.1s-.14.014-.294.014c-.546,0-.672-.238-.672-.924V2.99H44.758ZM53.032,13h2.422V7.806h1.33V5.916h-1.33V5.692c0-.616.742-.7,1.218-.7a2.644,2.644,0,0,1,.392.028V2.976a5.69,5.69,0,0,0-.728-.042c-1.162,0-3.3.322-3.3,2.688v.294H52.15v1.89h.882Zm4.83-2.534c0,2.03,1.134,2.7,2.562,2.7a2.5,2.5,0,0,0,2.254-1.246h.028a3.815,3.815,0,0,0-.028.448V13H65V5.79H62.58V8.982c0,1.078-.49,1.988-1.526,1.988-.5,0-.77-.28-.77-.952V5.79H57.862ZM66.794,13h2.422V9.808a2.9,2.9,0,0,1,.14-.952A1.419,1.419,0,0,1,70.784,7.82c.532,0,.8.28.8.952V13H74V8.324c0-2.03-1.134-2.7-2.59-2.7a2.544,2.544,0,0,0-2.3,1.246H69.09a3.815,3.815,0,0,0,.028-.448V5.79H66.794Zm8.414-3.612c0,2.24,1.288,3.78,3.248,3.78a2.408,2.408,0,0,0,2.086-1.05h.028s-.014.182-.014.406V13h2.268V2.99H80.4V5.874c0,.182.014.322.014.322h-.028s-.434-.574-1.89-.574C76.58,5.622,75.208,7.106,75.208,9.388Zm2.436,0c0-1.106.658-1.722,1.414-1.722.952,0,1.414.854,1.414,1.722,0,1.246-.686,1.778-1.414,1.778C78.218,11.166,77.644,10.466,77.644,9.388ZM84.056,12.1a4.342,4.342,0,0,0,2.884,1.064c1.862,0,2.954-1.05,2.954-2.282,0-2.324-3.374-2.408-3.374-2.954,0-.252.35-.35.714-.35a2.88,2.88,0,0,1,1.708.588l.826-1.722a3.774,3.774,0,0,0-2.534-.826c-1.666,0-2.968.84-2.968,2.2,0,2.352,3.374,2.422,3.374,3.052,0,.238-.35.336-.714.336a3.034,3.034,0,0,1-1.834-.728ZM.938,26.892H9.282v-1.82H.938ZM13.972,28.74a5.059,5.059,0,0,0,2.856,1.372v1.274h1.526V30.112a3.072,3.072,0,0,0,2.8-3.052c0-3.094-4.55-3.01-4.55-4.2,0-.56.56-.784,1.064-.784a3.82,3.82,0,0,1,2.212.882l1.036-2a4.378,4.378,0,0,0-2.562-1.092V18.59H16.828v1.316a3.04,3.04,0,0,0-2.674,2.982c0,3.01,4.55,3.108,4.55,4.228,0,.6-.546.8-1.05.8a4.148,4.148,0,0,1-2.394-1.036ZM22.5,30h6.93V27.9H25.172c.07-1.288,4.1-1.89,4.1-5.012a3.123,3.123,0,0,0-3.416-3.066,3.86,3.86,0,0,0-3.528,2.156L24.15,23.2s.532-1.064,1.484-1.064a.989.989,0,0,1,1.078.994c0,1.442-4.326,2.1-4.326,5.8A6.134,6.134,0,0,0,22.5,30Zm8.442,0h2.3V27.7h-2.3Zm7.49.168c2.842,0,3.766-2.324,3.766-5.194s-.924-5.152-3.766-5.152-3.766,2.282-3.766,5.152S35.588,30.168,38.43,30.168Zm0-2.24c-.966,0-1.246-1.316-1.246-2.954s.28-2.912,1.246-2.912,1.246,1.288,1.246,2.912S39.4,27.928,38.43,27.928ZM43.694,30h6.664V27.9H48.216V19.99H46.1l-2.7,2.534,1.414,1.512.6-.546a1.891,1.891,0,0,0,.392-.532h.028s-.014.392-.014.77V27.9H43.694Zm11.452-2.66c0,2.422,2.226,2.73,3.374,2.73a4.661,4.661,0,0,0,.658-.042v-2.1s-.126.014-.322.014c-.462,0-1.288-.112-1.288-.924V24.806H59.08v-1.89H57.568V20.844H55.216v2.072h-.994v1.89h.924ZM60.592,30h2.422V27.27a3.269,3.269,0,0,1,.126-.98A1.82,1.82,0,0,1,65,25.03a2.577,2.577,0,0,1,.49.042v-2.38a1.637,1.637,0,0,0-.28-.028,2.5,2.5,0,0,0-2.3,1.792h-.028a3.815,3.815,0,0,0,.028-.448V22.79H60.592Zm6.048-8.12h2.366V19.99H66.64ZM66.612,30h2.422V22.79H66.612Zm4.116-2.66c0,2.422,1.372,2.73,2.66,2.73a6.585,6.585,0,0,0,.728-.042v-2.1s-.14.014-.294.014c-.546,0-.672-.238-.672-.924V19.99H70.728Zm4.522,0c0,2.422,1.372,2.73,2.66,2.73a6.585,6.585,0,0,0,.728-.042v-2.1s-.14.014-.294.014c-.546,0-.672-.238-.672-.924V19.99H75.25ZM79.9,21.88h2.366V19.99H79.9ZM79.87,30h2.422V22.79H79.87Zm3.682-3.584a4.1,4.1,0,1,0,4.074-3.794A3.811,3.811,0,0,0,83.552,26.416Zm2.45,0a1.644,1.644,0,1,1,3.276,0,1.641,1.641,0,1,1-3.276,0ZM92.988,30H95.41V26.808a2.9,2.9,0,0,1,.14-.952,1.419,1.419,0,0,1,1.428-1.036c.532,0,.8.28.8.952V30H100.2V25.324c0-2.03-1.134-2.7-2.59-2.7a2.544,2.544,0,0,0-2.3,1.246h-.028a3.815,3.815,0,0,0,.028-.448v-.63H92.988Z" transform="translate(628 8443)" fill="#efefef"/>
  </g>
</svg>
