<svg xmlns="http://www.w3.org/2000/svg" viewBox="0 0 504.19 503.14"><defs><style>.cls-1{fill:#efefef;}</style></defs><g id="Layer_3" data-name="Layer 3"><path class="cls-1" d="M242.52,0h19c10.2,1.35,20.4,2.58,30.58,4.06a241.08,241.08,0,0,1,78.51,26.09,246,246,0,0,1,61.1,45.63,254.27,254.27,0,0,1,37.49,48.76,236.6,236.6,0,0,1,26.44,63.68c3.12,12.7,7.3,25.51,7.77,38.39.71,19.44,1.92,39-1.35,58.54-4.51,27.05-11.72,53.16-23.85,77.73A251.21,251.21,0,0,1,295.42,499.4a252.58,252.58,0,0,1-98.05-2.24A251.93,251.93,0,0,1,58.89,412.87c-17.72-21.19-31.95-44.55-41.3-70.51C12.33,327.75,8.45,312.57,5,297.41,2.46,286.3,1.6,274.8,0,263.48v-24c.34-1.94.74-3.87,1-5.83,1.58-11,2.52-22.15,4.81-33A251.12,251.12,0,0,1,106.53,47.21C138.66,24.51,174.05,9.93,213,4,222.79,2.49,232.66,1.32,242.52,0ZM329.4,446.12c5.71,3.92,7.14,10.08,8.77,16.51l3.12-1.32c-2-3.87-3.83-7.51-6.22-12.18l18.17,8c-2.44-5.51-4.42-9.47-5.91-13.61-.59-1.63-.08-3.66-.08-5.51l10.25,15.46,4.31-2.59c-3.09-5.64-6.07-11.06-9.2-16.78l-5.26,4-4.94,1.68c1.79,2.88,3.32,5.34,5.32,8.58-6.78-1.31-11.82-8.25-18.22-2.14l-9.69,3.36c-9.14,0-5.81,7.66-7.46,13.27-2-2.88-3.09-5.62-5.09-6.92s-4.88-1.09-7-1.48c1.85,7,3.48,13.16,5.16,19.48l2.9-1.08c-1.51-3.81-2.91-7.37-4.32-10.92l1-.52,8.53,10.69c.56-5.95,1-10.3,1.52-16.07a55,55,0,0,1,2,5.33c.65,2.72,1.12,5.47,1.73,8.55l5.2-1.61c-1.46-6.55-2.82-12.66-4.14-18.73,1.23.69,3.11,1.09,3.58,2.12,2,4.56,3.65,9.3,5.61,14.45l5.42-1.83c-2.13-5.23-4.23-10.12-6.05-15.11C328.08,448.42,329,447.16,329.4,446.12Zm96.73-85c-4.47,5.83-1.59,12.94,6.07,14.94a9.43,9.43,0,0,0,10.9-5.67c1.68-4.26-.53-9.5-4.91-11.66-5.45-2.68-9.45-1.84-12.23,2.55ZM379,417c7.56,1.07,9.52,7.89,13.77,12.84l5.16-4.61-6.5-5.17c11.08,1.66,11.08,1.66,13.33-1.94l-9-2.54,1-1c-1.2-2.22-1.92-5.52-3.74-6.35-1.67-.75-4.89.69-6.82,2-2.67,1.85-4.78,4.5-7.12,6.82-3.53,2.33-7.08,4.66-10.6,7-3.23,2.16-2.13,3.95.21,5.87l1.91-6.35c3.71,5.87,8.71,9.32,9.47,15.79L386,435l-11.25-14.26h7ZM208.55,60.85l9.56-.61c-4.75-3.47-7.76-14.4-6.67-21.23L232,58.53c-1.18-10.64-2.32-20.88-3.5-31.52l-4.28.75,4.44,16.69c-4.68-4.48-9-7.55-11.85-11.6-3.77-5.31-7.66-3.31-11.8-2.09,1.21,2.22,2.83,4.07,3.22,6.15a131.82,131.82,0,0,1,2.18,16.79c.14,2.38-1.14,4.84-1.78,7.27-1.22-1.17-3.09-2.13-3.54-3.54-1.66-5.19-3-10.51-4.16-15.84-.66-3-.77-6.1-1.17-9.5L189,34.61c4.91,4,10.17,25,7.23,30.65ZM68.24,256.56c9.47-2.63,15.83-7.57,19.73-15,6.71-12.75,13-25.75,19.16-38.76,8.56-18,18.67-34.61,35.15-46.76,15.82-11.67,32.86-16.45,52.3-11.44a21.83,21.83,0,0,1-6.79,2c-13.59,1.34-25.64,6.51-36.59,14.45-16.44,11.93-25.59,29.17-34.27,46.82-6.28,12.78-12.22,25.83-19.71,37.89-6.18,10-14,19.29-28.17,16.81C69.53,319,98.42,385,162.55,420.41c65.55,36.18,131.6,33.27,193.31-9.17,52.41-36,77.22-88.43,79.81-152.41-1.66.59-2.43.78-3.14,1.12-7.91,3.79-12.81,3.5-18.95-2.79A68.21,68.21,0,0,1,402,241.74c-10.06-19.06-19.42-38.49-29.26-57.67-13.69-26.69-42.56-40.95-72.28-36.84-8.84,1.22-14.38,4.78-18.3,12.8-5.33,10.91-12.67,19.74-26.95,17.35-9.9-1.65-20.41-3.8-24.54-13.66-3-7.2-7.58-8.86-13.77-9.93-2.13-.37-4.26-.72-6.38-1.13-7.14-1.36-8.13-.83-10.3,4.75-5.5,0-10.62,0-15.73,0-4,.05-5.12,2.18-4.12,5.74,14.72-2,25.25,4.53,34.76,14.73a189.38,189.38,0,0,0,23.2,20.81c6.52,5,14.29,8.36,21.09,13.05,5.19,3.58,9.72,8.1,14.88,12.5-12.07,6.7-25.31,2.82-34.15-6.71-10.46-11.27-20.06-23.35-29.73-35.32-7.58-9.39-15.42-17.77-29.14-14.76-2.22.49-4.4,1.13-6.61,1.71-2.62-12.74-.07-19.47,22-16.22,3.54-6.58,6.26-8.17,13.07-7,8.23,1.44,16.41,3.15,24.06,4.64-.34,1.95-1.62,4.5-1,6.43,3.32,10.06,22.71,17.26,32.23,12.43,7.34-3.74,10.52-10.78,12.85-17.67,2.71-8,8.66-10.62,15.55-12.08,14.27-3,28.45-1.54,42.46,2,10,2.54,18.59,7.64,26.73,13.88,15.69,12,24.54,29,33.39,45.83,7,13.36,13,27.25,19.86,40.66,3.88,7.54,9.51,13.52,19.83,14.46-2.87-65.3-28.38-118.64-83-154.32-65.2-42.6-133.31-43.22-199.17-1.39C97.64,136.36,71.57,190.06,68.24,256.56ZM126,63.09c5.34,1.86,16.1,20.23,16.09,26.67L153,83.5c-7.08-1.43-6.74-7.57-10.29-10.91l7.58-4.53c1.39,5,6.67,7.92,5,13.36,8.48-3.7,17.08-7.4,25.63-11.22,6.13-2.74,6.54-4.92,1.6-12.07.58,6.48-1.14,10.67-8.14,11.37-1.38-3.56-2.8-7.26-4.23-11l1.34-1.1,6.9,5c-2.21-5.35-4-9.67-6.12-14.82-.84,3.46-1.43,5.87-2,8.28l-1.54-.1L165,46c5.18-3.18,6.66-3.1,12.56,1.27l-3.33-8.14-18.22,7.49c1,1.38,2.22,2.5,2.8,3.89,2.81,6.72,5.56,13.47,8,20.32a4.13,4.13,0,0,1-1.57,3.74c-.89.43-3.18-.38-3.8-1.33-3.42-5.28-6.68-10.67-9.65-16.22-1.18-2.21-1.45-4.92-2.18-7.58L139,55.76c6.79,1.14,7.2,6.35,9.55,10.35L141.09,70c-1.93-4.14-3.69-7.93-5.66-12.18ZM481.14,241.63l-.23-1.36c-1-.33-2.07-.72-3.13-1-8-2.08-16.09-4-24.08-6.25-4.25-1.19-4.71-3.5-1.46-6.21,2.92-2.43,6-4.69,9.05-7.08a36.72,36.72,0,0,0,3.82,2.64c4.63,2.35,11.05-.51,11-5.45-.08-6-1.44-11.92-2.4-19.08-3.87,5.79-24.47,10.45-30.67,7.78.87,4.06,1.68,7.79,2.25,10.48L458,211.91c-2.74,3.59-6.09,5.94-9.17,8.61a5.41,5.41,0,0,0-1.85,3.92c.55,4.58,1.58,9.11,2.22,12.53,2.57-.32,6-1.72,7.14-.66,1.49,1.42,2.33,5.46,1.34,7.05-1.2,1.92-4.62,2.45-7.81,3.92.13,2.47.32,6.29.48,9.5ZM382.33,91l1,.45c-.75,3.33-1.19,6.76-2.31,10-1.86,5.32,1.16,7.36,5.15,9.23,1.3-5.4,2.52-10.5,3.73-15.55a34.44,34.44,0,0,0,4.42-.25c5.36-1,9-7.46,5.84-11.29-3.75-4.53-8.58-8.16-13.57-12.75-.46,6.79-14.05,23.22-19.61,24.62l8.27,6.68ZM365.28,58.41c-8,0-16.59,9.33-17,18.52a11.88,11.88,0,0,0,5.57,11c4,2.69,8.12,2.44,12.18.16,6.38-3.58,9.83-9.24,10.78-16.32A11.88,11.88,0,0,0,365.28,58.41ZM86.33,139.88c7.07,0,11.86-4.55,11.89-11.23,0-8.4-10.16-17.82-19.1-17.65a11.76,11.76,0,0,0-11.55,11.84C67.67,131.54,76.89,139.91,86.33,139.88ZM39.58,279.06c3.88-1.52,8-2.47,11.35-4.57a11.41,11.41,0,0,0-.92-20,21.22,21.22,0,0,0-19.69.14A11.6,11.6,0,0,0,29.12,275C32,276.89,35.73,277.6,39.58,279.06ZM210.89,456.7c-1.17,6.17-2.3,12.18-3.45,18.29l5.56,1.06c1.05-5.83,2.06-11.37,3.06-16.91l1.34.1.57,3.46,6-3.64c-1.31,7-2.33,12.49-3.45,18.48l6.17.73c.7-6.06,1.32-11.51,2.12-18.47l4.56,4.93c.53-.91,1.08-1.88,1.64-2.85l1.59-.12c1.63,5.63,3.25,11.26,5.05,17.49h3.67c.61-3.25.72-6.54,1.9-9.4,1.26-3.06,3.52-5.7,5.55-8.82h-3.28l-4.26,9c-1.44-4.14-2.33-6.69-3.19-9.18ZM459,160.58c-1.56,8.42-8.79,7-12.79,10.38a92.14,92.14,0,0,1,5.94-12c3.95-6.8,4-6.88-1.06-13.36-2.75,5.57-20.8,14.4-27.57,12.92,1.41,2.88,2.59,5.31,3.76,7.71,3.41-8.74,12.36-7.91,17.59-12.62l1,.92C441.43,162.73,437,171,432.18,180c11.19-3.26,19.2-11.16,30.39-12.07C461.56,165.86,460.52,163.73,459,160.58Zm-27.25-44.44c-1.24-1.75-2.13-3.12-3.13-4.4-1.7-2.16-3.08-4.91-5.29-6.28-7.65-4.72-17.89-1.4-22.58,6.89-4.86,8.58-2.88,16.1,5.91,21,1.4.77,3.92.25,5.61-.43,2.6-1,4.93-2.76,7.83-4.45l-7.63-9c-.73,1.44-.13,2.68-.52,3.18a42.8,42.8,0,0,1-5.45,6c-.51.45-2.79,0-2.91-.4-.55-2-1.48-4.45-.73-6,3.35-7,8.83-12,16.49-14,4.31-1.13,7.09,1.46,6.69,6-.21,2.47-1.07,4.88-1.88,8.37ZM278,59l12.4,2.73c7.51,1.67,9,.36,9-8.67A28.37,28.37,0,0,1,297,56.42c-2.56,2.74-5.95,3.58-9,1.71-1-.65-.67-4-.5-6.09a39.8,39.8,0,0,1,1.37-6l1.42-.23,3.16,7.37c1-5.23,1.94-9.83,3-15.09l-5.94,5.69-2.06-1.38c1.44-3.16,2.2-8.31,4.44-9.06,4.76-1.59,7,2.64,8.36,7.15l1.62-8.29L283.4,28.32C283.63,39.34,280.84,49,278,59Zm-83.39,412.9c.24-2.39.46-4.5.68-6.62,3.2,8.52,3.2,8.52,8.66,8.59l-2.47-8.95,1.28.34c1.1-2.31,3.31-4.8,3-6.85-.31-1.8-3.27-3.66-5.44-4.53-4.57-1.81-9.4-3-13.1-4.11-1.85,4.55-3.35,8.93-5.46,13-.57,1.09-3.52,2.11-4.44,1.56-1.31-.78-2.77-3.29-2.41-4.57,1.22-4.4,3.2-8.59,5-13.18l-6.21-1.94c-.43,2-.71,3.68-1.18,5.32-.56,1.9-1.32,3.75-1.94,5.63-1.72,5.2-.47,8.33,4,10.06,5.08,2,8.18.8,10.51-4.17,1.18-2.54,1.93-5.29,3.18-7.79a3.07,3.07,0,0,1,2.68-1.32,3,3,0,0,1,1.51,2.57c-1.2,5-2.68,10-4.1,15.05ZM464.65,182.54c3.85,4.87,2.82,8.7-1.09,12.58l7.69-3-6.73-19.57c-3.28,4.9-23.63,11.85-29.7,10,1.76,4.82,3.57,9.22,5,13.74,2.11,6.73,4.94,7.82,10.61,4.17-2.5-1.26-5.59-2.2-7.73-4.18-1-1-1.05-5.12-.21-5.62,3-1.78,6.55-2.6,9.89-3.79l1.06,1.44c-1.67,1.94-3.33,3.89-5.82,6.8l15.72-5.48L455,187.56l.24-1.6Zm-394.11-26,.53-.75L57.9,149.08l3.65,7.79-1.38.62-9.06-4.92c1.36-5.52,4.44-8,10.29-7.5l-7.65-3.56c-3.28,6.37-6.4,12.43-9.79,19,4.95-1.79,25.09,8.06,28.25,13.53l9.46-18.89L74,150c.27,2.1,1.77,3.3,2,4.71a19.12,19.12,0,0,1-.38,7c-.16.73-2.26,1.77-3,1.48-3.23-1.23-6.28-2.91-9.39-4.43l.44-1.78Zm365.74-35.26c-1.24,5.84-19.19,17.91-25.64,17.85l11.54,17.67,8.34-4c-5.92.5-10.21-1-12.21-7.34l10.1-6.63,1.52,1.14c-1.21,2.37-2.41,4.75-4.21,8.28l13.42-9-8.26-.6c0-.49,0-1-.05-1.48l8.59-5.36c4.9,3.57,4.72,7.52,2.08,12.24l6.57-4.63ZM264.35,44.43l5-.32c4.95-.32,6.77-3.69,7.3-7.93.55-4.53-1.23-8-6-8.76-4.6-.76-9.29-1-14.55-1.53,3.73,5.22,2.2,26.32-2.08,31.28l11.07.9C264.81,53.35,264.59,49.08,264.35,44.43ZM107.76,106.1l-.83.79L97.86,96.65l1.43,8.22-9-7.51c3.2-6,7.14-5.44,11.79-3.9l-5.29-4.83-15.56,13.6c6.28.56,21.37,15.23,22.43,20.34l10.13-8.64c-8,1.53-9.79-4.51-13.66-7.49l.47-1.36Zm-77.43,109c-.57-5.73,3.12-7.63,8.7-9.17l-9.48-1.35-3.5,19.94c5.35-2.68,25.91.86,30.77,5.18l2.3-12.59c-5.43,5.34-10.27.54-15.07.67l-.47-1.61,7.85-3.73L36,210.08l5.38,5.75-1,1.13Zm-5.5,31c10.35-.35,20.31-.33,30.29,3l1-11.74c-5,5.87-10.25.82-14.91,2l-.6-1.69,7.41-4-16.45-1.23,7.5,5.29-.74,1.59-10.92-.92c-.62-5.66,1.8-8.49,7.92-9.29-9.68-2.69-10.18-2.38-10.48,6C24.71,239.05,24.83,243,24.83,246.07ZM139,92.2c-5.54,0-17-12.62-20.26-21.66l9,1.21c-2.18-2.19-2.54-7.21-6.79-4.64-5.56,3.38-10.5,7.78-15.81,11.82l5.38,7.71c.53-4-2.59-7.73,2.43-10,3.55,4.69,7.27,9.29,10.61,14.15,1.94,2.82,3.28,6.05,5.06,9.4C131.24,98.22,134.76,95.49,139,92.2ZM337.34,77.54c.63-10.32,6.87-17.81,10.15-26.41l1.88-.14,2.81,8.44c1.12-2.66,2.09-5,3.19-7.61-5-2.39-9.68-4.54-14.28-6.78-6.44-3.15-7.28-2.72-8.71,4.26L340.27,47,341,48.6c-5,7.78-6.11,17.72-13.59,24.39,1.74.91,3.88,2.13,6.11,3.17A35.62,35.62,0,0,0,337.34,77.54Zm-6.49-36.41a40.2,40.2,0,0,1-5.16-2.23c-5.32-3.29-11.43-3.13-15.6,1.09-4.47,4.54-7.29,10.22-6.49,16.61a18.11,18.11,0,0,0,4.62,9.51c4.36,4.66,13.51,2.68,14.81-2.94a42.85,42.85,0,0,1-5.38,2.44c-4.11,1.21-8.07-1-7.27-4.77a88.35,88.35,0,0,1,6.54-19.47c1.77-3.72,5.18-3.29,7.36.38,1.4,2.36,2.05,5.17,3.35,8.63ZM249.76,26.25c-2.24-.21-3.78-.23-5.27-.53-4.34-.9-7.07,1.26-8.82,4.8A10.53,10.53,0,0,0,239,43.44c2.1,1.61,4.88,2.72,6.24,4.79,1,1.58,1.26,5,.23,6.38-1.89,2.56-4.4,1.33-6-1.14-1.18-1.79-2.29-3.64-3.84-6.12V57.76a33.39,33.39,0,0,1,4.17,0c6.85.89,9.67-.44,11.59-5.62a11.55,11.55,0,0,0-5.2-14.06c-1.71-1-3.86-1.84-4.83-3.37S240.66,31,240.4,29c1.9.27,4.14,0,5.6.95s2.23,3.14,3.76,5.51ZM41.92,165c-.35,1.71-.29,3.07-.87,4.05-6,10.1-3.17,18.4,7.66,22.31,7.59,2.74,14.93,1.35,18.73-3.55,3.63-4.69,1.91-12.61-3.57-14.39a52.88,52.88,0,0,1,2.45,5c1.57,4.32-.95,8.94-5,8A85.43,85.43,0,0,1,42.15,179c-3.59-1.89-3-5.34.81-7.34,2.47-1.3,5.38-1.79,9.11-3ZM452.6,269.39c7.3,0,14.24-.17,21.16.1,2.3.09,4.56,1.31,7.14,2.1v-10c-10.28,1.34-20.43,1.49-31-1.94,0,4.07,0,8.2,0,12.33-.1,7.67,1.24,8.81,10.34,7.88C455.76,277.42,450.46,275.87,452.6,269.39ZM416.44,378.72l.91-1.23,14.36,9.95,3.2-4.41L419.5,372.1c-4.1,5.25-8.66,10.9-13,16.71-2.15,2.9.21,3.91,2.67,5.12v-5.55c4.68,3.72,11,4.94,12.92,11.79l4.87-6.12-15-11.13,7-1.3ZM64.09,196.93c-4.84,3.1-25.54-1.65-30.82-6.12l-3,11.29c6-2.55,26.72,3,30,8C61.53,205.77,62.64,202,64.09,196.93Zm220,280.85c13.83-2.17,17.08-4.94,15.34-13.25-1.51-7.17-6.45-8.5-18.31-5.28ZM70.77,374.23c5.73,0,10.94-4.88,10.83-10.16a9.56,9.56,0,0,0-9.44-9c-5.36.12-10.35,4.93-10.47,10.08A8.76,8.76,0,0,0,70.77,374.23Zm73.13,53.92-10.13,16.31c2,1.26,4.82,3,7.59,4.76,4.49,2.89,5.1,2.71,6.8-1.48L139,446.63l4.89-8,1.27,6.65,4.82-8.46-5,1.78-.59-.88,4.11-6.16,4.18,7.76,2.59-4.1ZM456,346.68l-18.11-9.26-1.33,2.65,8.93,3.13c-3.18,1.74-6.46,2-9.17,3.33-2.4,1.21-4.18,3.66-5.49,4.87l17.76,8.33c.35-.72,1-2.12,1.32-2.73l-12.23-4.36.21-1ZM261.46,479.52l3.43-.26v-4.63c4-.54,8.14-2.08,7.05,4.7l7.85-.81c-3.8-6.59-7.28-12.59-11.45-19.82C265.78,466.44,263.68,472.79,261.46,479.52Zm158.32-76.35-21.53-6.72,8.89,20.42,3.24-3.5-3.9-2.67c1.07-1.34,1.93-3.37,3.3-3.83,1.21-.4,3,1,5.05,1.73Zm-311.42-6.94-21.11,7.53,2.62,3c1.54-1.34,3.3-3.3,3.65-3.07a9.64,9.64,0,0,1,3.87,4.15c.28.74-1.77,2.38-2.9,3.78l5.31,5.63C102.53,410.57,105.11,404.23,108.36,396.23ZM164,457.58c-2.38-1.2-6-1.85-7.15-3.89-1.66-2.88,3-11.55,5.92-12.1,5.66-1.08,4,4.78,6.26,7.51l2.61-5c-10-6-13.31-6.18-17.38-1-3.48,4.45-3.63,9.22-.38,12.62C157.64,459.59,161,460,164,457.58Zm-90-108a21.19,21.19,0,0,1-.58-2c-.63-3.65-2.37-6.42-6.43-6.1s-5.47,3.27-6,6.83c-.18,1.15.07,2.56-.53,3.38-.73,1-2.14,1.45-3.26,2.14-.54-1.25-1.68-2.6-1.49-3.73.26-1.54,1.53-2.92,3.12-5.69l-6.22,3.37c.42,1.48.77,2.4.93,3.36.71,3.95,3.25,5.66,7,5.47s5.48-2.66,6-6.14c.18-1.14-.1-2.49.42-3.41s1.87-1.69,2.84-2.51c.32,1.27,1,2.58.85,3.82-.08,1-1.08,1.92-2.29,3.88Zm7.47,41.47c-2-2-5.83-4.75-5.42-5.81,1.08-2.73,4-4.74,6.27-7A3.1,3.1,0,0,1,84,377.18c1.67-.11,3.91-.62,4.89.23s.94,3.14,1,4.81c0,1-.69,1.95-1.51,4l5.46-3.41c-3.93-9.28-7-11.4-13.54-9.62A9.84,9.84,0,0,0,73,384.6C73.8,389,77,391.27,81.54,391.05Zm58.9,35a21.18,21.18,0,0,1-2.67-2.43c-2.14-2.75-4.78-3-7.47-1.25s-3.86,4.51-2.55,7.8c.49,1.23,1.49,2.4,1.56,3.63s-.74,2.58-1.16,3.87c-1.24-.82-3-1.38-3.6-2.53s-.14-3-.14-4.52l-.78-.26-2.88,4.86c1.35,1.17,2.44,2.15,3.56,3.09,2.38,2,5,2.9,7.65.72s3.81-4.82,2.29-8.37a26,26,0,0,1-1.34-6.5,6.38,6.38,0,0,1,2-.6c.93,1.91,1.7,3.89,2.63,6.14Zm-24.3-19.83-12.86,14.41,9.65,8.29,4.21-3.09-9.33-2c3-3.32,4.73-5.5,6.69-7.52s4-3.78,6.22-5.81ZM365.27,449.1c1.55-.83,2.65-1.53,3.83-2,3.23-1.36,4.5-3.78,3.91-7.15-.62-3.54-3.05-4.91-6.41-5a25.58,25.58,0,0,1-5-.09c-.85-.18-1.45-1.43-2.17-2.19.85-.62,1.68-1.7,2.56-1.74,1.53-.06,3.08.51,5.33,1-1.37-1.95-2.3-3.28-3.32-4.72a24.65,24.65,0,0,1-3.08,1.76c-3,1.19-4.73,3.21-3.92,6.53a6.09,6.09,0,0,0,6.49,5,14.27,14.27,0,0,1,4.45.23c1,.35,1.75,1.6,2.61,2.45-1.11.77-2.18,2.14-3.31,2.18-1.6.07-3.24-.84-5.67-1.59ZM463,300.35c-3.31.19-6.06,1.82-6.43,5.73s1.81,6.38,5.68,6.71c3.68.31,6.47-1.29,7.12-5.28C470,303.88,467.27,300.75,463,300.35ZM39.6,314.65c3.91-.2,6.18-2.57,6.17-6.29,0-3.54-1.77-6.38-6-6.51a6,6,0,0,0-6.56,6.47C33.42,312.16,35.54,314.38,39.6,314.65Zm56.6,69.59L81.12,396.16l3.55,4.41,15.07-11.78Z"/><path class="cls-1" d="M399.22,260.64c-10.16-1.17-17.22-6.51-21.33-15.66-6.94-15.41-13.54-31-20.61-46.32-5.42-11.76-12.47-22.42-24.17-28.92-7.07-3.93-14.87-4.64-23.62-4.36,6.32,3.82,12,6.82,17.2,10.48,8.92,6.26,14.88,15.15,19.34,24.85,5.52,12,10.32,24.34,15.91,37.66-6.6-3.78-12-6.74-17.24-10-1-.65-1.68-2.35-2-3.69-3.42-14.08-9.22-26.92-18.9-37.89-9.25-10.49-21-16-34.76-17.38,1.83-8.7,5-11.81,13.31-12.6,12.75-1.21,25,0,36.9,5.62,10.35,4.93,17.41,13,22.43,22.59,8.68,16.56,16.17,33.74,24.38,50.55C390.11,243.9,394.66,252,399.22,260.64Z"/><path class="cls-1" d="M255.9,408.12c-4.33-2.64-5.72-6.09-5.69-10.95.21-32.4.11-64.8.11-97.2v-6H261.4c0,2.17,0,4.1,0,6,0,32.56-.15,65.13,0,97.7C261.41,402.36,260,405.64,255.9,408.12Z"/><path class="cls-1" d="M167.4,162.84c.22,2.87.59,5.48.54,8.09a4.44,4.44,0,0,1-1.54,3.13c-12.36,8.44-18.71,21.2-24.9,34.13s-11.83,26.31-19.16,38.62c-3.43,5.75-10.11,9.67-15.68,14-1.87,1.45-4.84,1.49-7.67,2.28,5.29-8.31,10.65-15.67,14.9-23.61,6.47-12.12,12.14-24.66,18.22-37,7.1-14.42,15.44-27.89,29.21-37.06a15,15,0,0,1,2.54-1.53A32.08,32.08,0,0,1,167.4,162.84Z"/><path class="cls-1" d="M230.64,237.66c2.09,5-1.57,5.35-5.13,6.23v20.85c0,16.72-14.13,26.08-29.95,20.05-7.94-3-12-8.43-12.12-16.91-.08-5.65-.3-11.3-.46-16.95-.09-3.42,1.5-7.55-4.11-8.52-.7-.13-1-2.7-1.66-4.75h22.21c.69,2.53,1.2,4.67-2.29,5.82-.87.28-1.61,2.3-1.63,3.54q-.21,12,0,24c.1,5.52,3.57,9.17,8.79,9.68,5.39.52,11.15-2.78,11.57-7.85.76-9.08.58-18.23.62-27.36,0-.79-1.29-1.58-1.94-2.4-1.11-1.4-2.19-2.83-4.15-5.38Z"/><path class="cls-1" d="M229.2,293.88h9.87v106.4a86.86,86.86,0,0,1-8.7-2.36,3.8,3.8,0,0,1-1.73-3q0-50.07.13-100.14C228.77,294.67,228.9,294.53,229.2,293.88Z"/><path class="cls-1" d="M274,399.55V293.84h10.35V388.7C284.34,398.08,284.34,398.08,274,399.55Z"/><path class="cls-1" d="M329,285.05h-21.4l3.52-7.17c.51-3.29-1.23-5.18-5.27-4.69a29.46,29.46,0,0,1-7,0c-4.06-.46-5.92,1.21-5.83,3.94l5.75,7.9H278.71c-.85-2.72-1.37-5,2.58-5.81,1.08-.24,2.17-1.85,2.67-3.07,5.33-13,10.55-26.11,15.81-39.18,7.59-1,7.68-1.07,10.41,5.91,4.21,10.81,8.19,21.7,12.49,32.47a7.14,7.14,0,0,0,3.78,3.8C329.78,280.22,330,282.11,329,285.05Zm-26.81-31.79c-1.93,5.2-3.35,9-4.93,13.25h10.21C305.74,262.28,304.25,258.53,302.15,253.26Z"/><path class="cls-1" d="M216.92,394.39c-2-.43-3.62-1.11-5.19-1.05-5.13.21-5.63-2.58-5.6-6.89.18-26.1.09-52.2.09-78.3V294h10.7Z"/><path class="cls-1" d="M296.11,293.73h10.32c.12,2.26.32,4.34.32,6.43q0,41.35,0,82.71c0,9.65,0,9.65-10.66,11.07Z"/><path class="cls-1" d="M319,387.35V293.79h10.78c.1,1.21.26,2.16.26,3.12,0,24.62.11,49.24-.11,73.85a32.86,32.86,0,0,1-2.54,11C326.14,385.2,323.22,387.08,319,387.35Z"/><path class="cls-1" d="M182.89,293.93h10.84v93.56c-7.18-1.58-10.78-6.78-10.81-15.79-.08-20.6,0-41.19,0-61.79Z"/><path class="cls-1" d="M268.45,237.14c1.84,10.59,1.66,11.18-3.37,13-1.75-7.51-5.78-11.06-11.24-9.21-2,.68-4.4,2.95-4.74,4.83s1.25,4.69,2.88,6,4.51,1.88,6.9,2.5c8.57,2.23,13,7.91,12.77,16.48-.24,7.87-5,12.83-13.69,14.58-6.54,1.32-12.49-.36-18.34-2.93a3.89,3.89,0,0,1-1.6-1.1c-2.28-3.13,0-12,2.64-13.55,2.91,3.81,5.54,7.65,8.63,11.08.9,1,3.11,1.21,4.69,1.14,3.18-.14,6.7-.58,7.38-4.5s-1.49-6.07-5-7.51a80.87,80.87,0,0,1-10.65-5.34c-5.19-3.06-8.24-10.08-7-15.33,1.49-6.23,7.43-11.66,13.87-11.68C257.93,235.65,263.32,236.63,268.45,237.14Z"/><path class="cls-1" d="M278.24,184.78l7-10c21.57,9.12,36.9,23.66,42,48.15l-14.7-2.66C308.08,202.07,294,192.7,278.24,184.78Z"/><path class="cls-1" d="M141.31,236.73c8.18-17,13.48-34,25.28-47.49,5.07-5.81,10.6-11.14,18.34-13,3-.72,6.37-.12,10.21-.12-5.74,5.1-11,9.2-15.59,14-8.22,8.65-13.84,19.11-17.75,30.22-2.14,6.07-4.53,10.65-11.15,12.3C147.83,233.37,145.24,235,141.31,236.73Z"/><path class="cls-1" d="M258.46,196.71c3.67-1.59,6.64-3,9.71-4.15,1.11-.42,2.75-.68,3.67-.16,10.49,5.93,19.79,13.25,26.2,23.7A19.7,19.7,0,0,1,299.4,220c-4.28.45-8.16,1-12.06,1.19a3.78,3.78,0,0,1-2.79-1.46c-6.07-9-14.45-15.32-23.48-21C260.26,198.23,259.55,197.56,258.46,196.71Z"/><path class="cls-1" d="M171.81,225.21c7.25-16.73,15.14-31.45,30.66-40.86,1,1,2,1.84,2.88,2.76s1.78,1.95,2,2.23L188.31,214.8a4.67,4.67,0,0,0-1.05,1.68C185.78,225.36,178.67,224.13,171.81,225.21Z"/><path class="cls-1" d="M215.1,200.5c6.35,5.76,6.2,5.65,1.55,12C214,216,212,220,209.22,224.59l-10.65-1C202.13,214.2,207.22,206.54,215.1,200.5Z"/><path class="cls-1" d="M208.66,162.63c-1-2.23-1.93-4.27-3.16-7l14.73,3.47Z"/><path class="cls-1" d="M461.09,211.87c3.46-.79,6.46-1.59,9.51-2.1,1-.16,2.61.18,2.92.8a3.61,3.61,0,0,1-.63,3.07C470.26,217.08,463.83,216.35,461.09,211.87Z"/><path class="cls-1" d="M460.1,237l8.51,2.28-8.14,4.2C460.34,241.2,460.24,239.49,460.1,237Z"/><path class="cls-1" d="M384.79,88.66l7.75-9c3.5,1.77,3.44,4.17,1.6,6.51C392,88.84,389.88,92.48,384.79,88.66Z"/><path class="cls-1" d="M352.29,82.21c2.53-4.61,4.77-9.18,7.49-13.45a21.38,21.38,0,0,1,5.72-6,5.58,5.58,0,0,1,5-.06c1,.55,1.74,3.31,1.19,4.29-3.52,6.28-7.29,12.45-11.38,18.38-.65,1-3.42,1-5,.59C354.23,85.7,353.58,83.91,352.29,82.21Z"/><path class="cls-1" d="M76,115.69c1.5.76,4.22,1.68,6.36,3.34a107.24,107.24,0,0,1,11.32,10.08c.89.92,1,3.77.23,4.78s-3.75,1.93-4.67,1.29c-6-4.14-12.14-8.33-17.45-13.32C69.07,119.31,71.13,115.86,76,115.69Z"/><path class="cls-1" d="M38.44,271c-3.48-.72-7-1-10.14-2.23-3.4-1.32-3.61-4.63-.33-6.28,7.55-3.82,15.61-3.83,23.6-1.49,1.08.31,2.24,2.6,2.17,3.91a4.67,4.67,0,0,1-2.67,3.45C47,269.55,42.73,270.17,38.44,271Z"/><path class="cls-1" d="M200.12,455.55c1.2,2.95,1.24,5.41-4.18,6.88,1-3.2,1.67-5.34,2.33-7.47Z"/><path class="cls-1" d="M264.72,41.32c.29-3.44.47-6.89,1-10.29.09-.57,1.76-.9,2.69-1.34.27,2.88.87,5.79.65,8.63-.11,1.42-1.74,2.72-2.68,4.07Z"/><path class="cls-1" d="M390,417.94l-4-5,.69-1.21c1.34.32,3.23.22,3.89,1.08.88,1.12.79,3,1.11,4.55Z"/><path class="cls-1" d="M286.55,460c3.59-1.21,5.64-.19,6.69,2.79a15.22,15.22,0,0,1,1,4.34c.09,2.83,1.26,6.83-2.79,7.38-4.42.6-2.25-3.78-3-5.87C287.49,466.05,287.21,463.22,286.55,460Z"/><path class="cls-1" d="M426,361.31c4.28,1.41,8.72,2.48,12.74,4.42,1.24.6,1.35,3.56,2,5.44-1.8.22-4,1.21-5.32.51-4.31-2.26-10.16-3.55-9.22-10.53Z"/><path class="cls-1" d="M80.64,362c-3.26,2.68-5.34,5.09-8,6.33s-6.13,4.14-8.3.29c-2.08-3.7,2.2-5,4.47-6.45a21.87,21.87,0,0,1,7.29-2.66C77.06,359.32,78.29,360.64,80.64,362Z"/></g></svg>