<svg xmlns="http://www.w3.org/2000/svg" width="853" height="705.344" viewBox="0 0 853 705.344">
  <g id="Group_793" data-name="Group 793" transform="translate(320 -5352)">
    <text id="United_States_Federal_Budget_2020" data-name="United States Federal Budget 2020" transform="translate(-261 5352)" fill="#2562a0" font-size="30" font-family="MuseoSans-900, Museo Sans" font-weight="900"><tspan x="0" y="28">United States Federal </tspan><tspan x="0" y="60">Budget 2020</tspan></text>
    <text id="Healthcare_28_" data-name="Healthcare – 28%" transform="translate(344 5604)" fill="#a7130e" font-size="16" font-family="MuseoSans-900, Museo Sans" font-weight="900"><tspan x="0" y="15">Healthcare – 28%</tspan></text>
    <text id="Social_Security_25_" data-name="Social Security – 25%" transform="translate(289 6025)" fill="#a7130e" font-size="16" font-family="MuseoSans-900, Museo Sans" font-weight="900"><tspan x="0" y="15">Social Security – 25%</tspan></text>
    <text id="Transportation_4_" data-name="Transportation – 4%" transform="translate(-229 5578)" fill="#1762a0" font-size="16" font-family="MuseoSans-900, Museo Sans" font-weight="900"><tspan x="14.408" y="15">Transportation – 4%</tspan></text>
    <text id="Education_3_" data-name="Education – 3%" transform="translate(-178 5542)" fill="#1762a0" font-size="16" font-family="MuseoSans-900, Museo Sans" font-weight="900"><tspan x="53.688" y="15">Education – 3%</tspan></text>
    <text id="International_Affairs_2_" data-name="International Affairs– 2%" transform="translate(-217 5517)" fill="#1762a0" font-size="16" font-family="MuseoSans-900, Museo Sans" font-weight="900"><tspan x="62.408" y="15">International Affairs– 2%</tspan></text>
    <text id="Housing_1_" data-name="Housing – 1%" transform="translate(-188 5494)" fill="#1762a0" font-size="16" font-family="MuseoSans-900, Museo Sans" font-weight="900"><tspan x="152.168" y="15">Housing – 1%</tspan></text>
    <text id="Energy_1_" data-name="Energy – 1%" transform="translate(80 5464)" fill="#1762a0" font-size="16" font-family="MuseoSans-900, Museo Sans" font-weight="900"><tspan x="0" y="15">Energy – 1%</tspan></text>
    <text id="Science_1_" data-name="Science – 1%" transform="translate(106 5486)" fill="#1762a0" font-size="16" font-family="MuseoSans-900, Museo Sans" font-weight="900"><tspan x="0" y="15">Science – 1%</tspan></text>
    <text id="Labor_1_" data-name="Labor – 1%" transform="translate(121 5507)" fill="#1762a0" font-size="16" font-family="MuseoSans-900, Museo Sans" font-weight="900"><tspan x="0" y="15">Labor – 1%</tspan></text>
    <text id="Defense_16_" data-name="Defense – 16%" transform="translate(-261 5963)" fill="#1762a0" font-size="16" font-family="MuseoSans-900, Museo Sans" font-weight="900"><tspan x="60.76" y="15">Defense – 16%</tspan></text>
    <text id="Other_9_" data-name="Other – 9%" transform="translate(-320 5745)" fill="#1762a0" font-size="16" font-family="MuseoSans-900, Museo Sans" font-weight="900"><tspan x="86.664" y="15">Other – 9%</tspan></text>
    <text id="Veterans_4_" data-name="Veterans – 4%" transform="translate(-270 5631)" fill="#1762a0" font-size="16" font-family="MuseoSans-900, Museo Sans" font-weight="900"><tspan x="63.48" y="15">Veterans – 4%</tspan></text>
    <g id="Path_1327" data-name="Path 1327" transform="translate(1846.815 2395.256)" fill="#1762a0" stroke-miterlimit="10">
      <path d="M -1725.096801757812 3245.76416015625 L -1732.595581054688 3138.523681640625 C -1727.328002929688 3138.177490234375 -1721.634155273438 3137.978759765625 -1716.349365234375 3137.956298828125 L -1716.349365234375 3245.46142578125 C -1719.244262695312 3245.48046875 -1722.177978515625 3245.58203125 -1725.096801757812 3245.76416015625 Z" stroke="none"/>
      <path d="M -1724.168212890625 3244.707275390625 C -1721.892211914062 3244.57958984375 -1719.610961914062 3244.50048828125 -1717.349365234375 3244.470947265625 L -1717.349365234375 3138.962646484375 C -1721.98974609375 3139.00146484375 -1726.900512695312 3139.1728515625 -1731.52783203125 3139.457763671875 L -1724.168212890625 3244.707275390625 M -1726.02490234375 3246.8271484375 L -1733.6630859375 3137.59375 C -1727.732666015625 3137.1787109375 -1721.29443359375 3136.9541015625 -1715.349365234375 3136.9541015625 L -1715.349365234375 3246.4580078125 C -1718.9384765625 3246.4580078125 -1722.497680664062 3246.58447265625 -1726.02490234375 3246.8271484375 Z" stroke="none" fill="#efefef"/>
    </g>
    <g id="Path_1328" data-name="Path 1328" transform="translate(1873.666 2394.313)" fill="#1762a0" stroke-miterlimit="10">
      <path d="M -1762.649047851562 3247.746826171875 L -1777.608276367188 3141.304443359375 C -1772.368408203125 3140.5908203125 -1766.703125 3139.99560546875 -1761.44140625 3139.60546875 L -1753.94287109375 3246.844482421875 C -1756.861572265625 3247.064453125 -1759.781860351562 3247.3671875 -1762.649047851562 3247.746826171875 Z" stroke="none"/>
      <path d="M -1761.79638671875 3246.62841796875 C -1759.553588867188 3246.346435546875 -1757.283325195312 3246.111083984375 -1755.009643554688 3245.92529296875 L -1762.368774414062 3140.678955078125 C -1766.988525390625 3141.040771484375 -1771.875122070312 3141.55419921875 -1776.477905273438 3142.161865234375 L -1761.79638671875 3246.62841796875 M -1763.500854492188 3248.87158203125 L -1778.738037109375 3140.451171875 C -1772.851318359375 3139.6240234375 -1766.444213867188 3138.9501953125 -1760.513793945312 3138.5361328125 L -1752.875732421875 3247.77001953125 C -1756.4521484375 3248.0166015625 -1759.995971679688 3248.3837890625 -1763.500854492188 3248.87158203125 Z" stroke="none" fill="#efefef"/>
    </g>
    <g id="Path_1329" data-name="Path 1329" transform="translate(1900.255 2391.492)" fill="#1762a0" stroke-miterlimit="10">
      <path d="M -1799.840454101562 3252.35693359375 L -1822.1865234375 3147.2275390625 C -1817.01708984375 3146.15185546875 -1811.406494140625 3145.162353515625 -1806.177490234375 3144.404541015625 L -1791.218627929688 3250.84423828125 C -1794.08349609375 3251.2626953125 -1796.97509765625 3251.77001953125 -1799.840454101562 3252.35693359375 Z" stroke="none"/>
      <path d="M -1799.067993164062 3251.18115234375 C -1796.831420898438 3250.738037109375 -1794.583129882812 3250.343505859375 -1792.346923828125 3250.001708984375 L -1807.027709960938 3145.540283203125 C -1811.616455078125 3146.224609375 -1816.455444335938 3147.077880859375 -1820.999145507812 3148.004150390625 L -1799.067993164062 3251.18115234375 M -1800.611572265625 3253.538818359375 L -1823.373046875 3146.455322265625 C -1817.558227539062 3145.21923828125 -1811.2138671875 3144.1005859375 -1805.32666015625 3143.27294921875 L -1790.089477539062 3251.693359375 C -1793.637329101562 3252.187255859375 -1797.14599609375 3252.8056640625 -1800.611572265625 3253.538818359375 Z" stroke="none" fill="#efefef"/>
    </g>
    <g id="Path_1330" data-name="Path 1330" transform="translate(1926.451 2386.804)" fill="#1762a0" stroke-miterlimit="10">
      <path d="M -1836.490600585938 3259.569580078125 L -1866.112426757812 3156.264892578125 C -1861.031982421875 3154.831298828125 -1855.504150390625 3153.453125 -1850.33935546875 3152.33203125 L -1827.993896484375 3257.459228515625 C -1830.84619140625 3258.082275390625 -1833.695556640625 3258.789794921875 -1836.490600585938 3259.569580078125 Z" stroke="none"/>
      <path d="M -1835.802001953125 3258.3427734375 C -1833.615356445312 3257.748046875 -1831.399291992188 3257.19775390625 -1829.17822265625 3256.69775390625 L -1851.108276367188 3153.5244140625 C -1855.638916015625 3154.52734375 -1860.407104492188 3155.716064453125 -1864.873779296875 3156.95654296875 L -1835.802001953125 3258.3427734375 M -1837.17724609375 3260.802734375 L -1867.349853515625 3155.5771484375 C -1861.635498046875 3153.9384765625 -1855.384521484375 3152.380126953125 -1849.569580078125 3151.143798828125 L -1826.808349609375 3258.227294921875 C -1830.31005859375 3258.968017578125 -1833.76806640625 3259.8271484375 -1837.17724609375 3260.802734375 Z" stroke="none" fill="#efefef"/>
    </g>
    <g id="Path_1331" data-name="Path 1331" transform="translate(1970.97 2380.271)" fill="#1762a0" stroke-miterlimit="10">
      <path d="M -1898.782104492188 3272.264404296875 L -1940.773315429688 3173.339599609375 C -1930.55908203125 3169.032470703125 -1923.201293945312 3166.427001953125 -1912.55419921875 3163.3466796875 L -1882.93212890625 3266.651611328125 C -1888.299194335938 3268.226318359375 -1893.6220703125 3270.111328125 -1898.782104492188 3272.264404296875 Z" stroke="none"/>
      <path d="M -1898.248657226562 3270.961669921875 C -1893.649291992188 3269.07763671875 -1888.928100585938 3267.40576171875 -1884.16650390625 3265.974853515625 L -1913.23876953125 3164.587158203125 C -1923.01416015625 3167.44287109375 -1930.065185546875 3169.939697265625 -1939.460571289062 3173.872802734375 L -1898.248657226562 3270.961669921875 M -1899.31298828125 3273.572998046875 L -1942.0849609375 3172.808837890625 C -1931.00732421875 3168.1064453125 -1923.43701171875 3165.425537109375 -1911.868896484375 3162.108642578125 L -1881.696044921875 3267.33447265625 C -1887.729248046875 3269.061279296875 -1893.60986328125 3271.148681640625 -1899.31298828125 3273.572998046875 Z" stroke="none" fill="#efefef"/>
    </g>
    <g id="Path_1332" data-name="Path 1332" transform="translate(2036.132 2364.507)" fill="#1762a0" stroke-miterlimit="10">
      <path d="M -1989.977661132812 3301.97119140625 L -2050.085205078125 3212.858154296875 C -2035.709228515625 3203.2197265625 -2023.688720703125 3196.693115234375 -2007.7763671875 3189.886474609375 L -1965.784912109375 3288.8115234375 C -1974.200439453125 3292.453369140625 -1982.330322265625 3296.875732421875 -1989.977661132812 3301.97119140625 Z" stroke="none"/>
      <path d="M -1989.702758789062 3300.59033203125 C -1982.525512695312 3295.87451171875 -1974.935791015625 3291.74609375 -1967.092163085938 3288.291015625 L -2008.304443359375 3191.20166015625 C -2023.396362304688 3197.709228515625 -2035.016479492188 3204.018310546875 -2048.694580078125 3213.131591796875 L -1989.702758789062 3300.59033203125 M -1990.248779296875 3303.357421875 L -2051.47412109375 3212.587158203125 C -2036.4482421875 3202.4521484375 -2023.930419921875 3195.655517578125 -2007.2470703125 3188.573974609375 L -1964.47509765625 3289.337890625 C -1973.548828125 3293.19384765625 -1982.17333984375 3297.89990234375 -1990.248779296875 3303.357421875 Z" stroke="none" fill="#efefef"/>
    </g>
    <g id="Path_1333" data-name="Path 1333" transform="translate(2111.759 2329.126)" fill="#1762a0" stroke-miterlimit="10">
      <path d="M -2095.883544921875 3363.812255859375 L -2177.01904296875 3293.2822265625 C -2161.6376953125 3275.69775390625 -2146.69775390625 3262.47998046875 -2127.3701171875 3249.356689453125 L -2067.26171875 3338.470947265625 C -2077.80126953125 3345.694091796875 -2087.422119140625 3354.2119140625 -2095.883544921875 3363.812255859375 Z" stroke="none"/>
      <path d="M -2095.974609375 3362.408203125 C -2087.84033203125 3353.296630859375 -2078.66015625 3345.168701171875 -2068.64404296875 3338.209716796875 L -2127.63720703125 3250.748779296875 C -2146.21630859375 3263.449462890625 -2160.73388671875 3276.293701171875 -2175.604736328125 3293.1865234375 L -2095.974609375 3362.408203125 M -2095.78759765625 3365.220703125 L -2178.430908203125 3293.3798828125 C -2162.545166015625 3275.10546875 -2147.17529296875 3261.50732421875 -2127.10107421875 3247.96728515625 L -2065.875732421875 3338.7373046875 C -2076.969482421875 3346.23486328125 -2087.02587890625 3355.1494140625 -2095.78759765625 3365.220703125 Z" stroke="none" fill="#efefef"/>
    </g>
    <g id="Path_1334" data-name="Path 1334" transform="translate(2170.399 2262.217)" fill="#1762a0" stroke-miterlimit="10">
      <path d="M -2178.138916015625 3466.511474609375 L -2275.539306640625 3421.092529296875 C -2270.5595703125 3410.523681640625 -2264.745849609375 3400.10107421875 -2258.251220703125 3390.10009765625 C -2251.7568359375 3380.099609375 -2244.599853515625 3370.549560546875 -2236.97021484375 3361.701171875 L -2155.835693359375 3432.23046875 C -2164.775390625 3442.64013671875 -2172.273681640625 3454.1650390625 -2178.138916015625 3466.511474609375 Z" stroke="none"/>
      <path d="M -2178.61328125 3465.186767578125 C -2172.91845703125 3453.395751953125 -2165.73828125 3442.359619140625 -2157.239501953125 3432.3349609375 L -2236.866943359375 3363.115966796875 C -2244.222900390625 3371.7158203125 -2251.128173828125 3380.968017578125 -2257.41259765625 3390.644775390625 C -2263.697021484375 3400.322021484375 -2269.340576171875 3410.393798828125 -2274.205078125 3420.611328125 L -2178.61328125 3465.186767578125 M -2177.65869140625 3467.838623046875 L -2276.8701171875 3421.575439453125 C -2266.636962890625 3399.6298828125 -2252.9560546875 3378.5634765625 -2237.0703125 3360.2890625 L -2154.427001953125 3432.1298828125 C -2163.737060546875 3442.830322265625 -2171.58544921875 3454.83642578125 -2177.65869140625 3467.838623046875 Z" stroke="none" fill="#efefef"/>
    </g>
    <g id="Path_1335" data-name="Path 1335" transform="translate(2207.195 2171.921)" fill="#1762a0" stroke-miterlimit="10">
      <path d="M -2334.199462890625 3662.748779296875 C -2338.388427734375 3635.761474609375 -2338.755126953125 3610.75830078125 -2335.3232421875 3586.34033203125 C -2331.8916015625 3561.922119140625 -2324.64697265625 3537.988525390625 -2313.181640625 3513.20166015625 L -2215.78173828125 3558.6201171875 C -2220.241943359375 3568.334716796875 -2223.686767578125 3578.536865234375 -2226.025146484375 3588.95947265625 C -2228.50341796875 3600.005615234375 -2229.760009765625 3611.399169921875 -2229.760009765625 3622.82373046875 C -2229.760009765625 3630.554443359375 -2229.179931640625 3638.324462890625 -2228.03515625 3645.934326171875 L -2334.199462890625 3662.748779296875 Z" stroke="none"/>
      <path d="M -2333.363525390625 3661.603759765625 L -2229.16845703125 3645.101318359375 C -2230.224853515625 3637.75634765625 -2230.760009765625 3630.272216796875 -2230.760009765625 3622.82373046875 C -2230.760009765625 3611.32568359375 -2229.495361328125 3599.8583984375 -2227.0009765625 3588.74072265625 C -2224.7197265625 3578.57275390625 -2221.392578125 3568.61376953125 -2217.1025390625 3559.107666015625 L -2312.69384765625 3514.532470703125 C -2323.873779296875 3538.903564453125 -2330.957275390625 3562.460205078125 -2334.3330078125 3586.4794921875 C -2337.708740234375 3610.49853515625 -2337.392822265625 3635.094970703125 -2333.363525390625 3661.603759765625 M -2335.0322265625 3663.89306640625 C -2343.651123046875 3609.473876953125 -2336.9521484375 3561.807373046875 -2313.666748046875 3511.8720703125 L -2214.455322265625 3558.13525390625 C -2223.63330078125 3577.7841796875 -2228.760009765625 3599.705322265625 -2228.760009765625 3622.82373046875 C -2228.760009765625 3630.968994140625 -2228.121337890625 3638.965087890625 -2226.8955078125 3646.766357421875 L -2335.0322265625 3663.89306640625 Z" stroke="none" fill="#efefef"/>
    </g>
    <g id="Path_1336" data-name="Path 1336" transform="translate(2201.877 1973.174)" fill="#1762a0" stroke-miterlimit="10">
      <path d="M -2160.80078125 4066.989013671875 C -2183.186279296875 4058.75341796875 -2204.065673828125 4047.923828125 -2222.8720703125 4034.792724609375 C -2241.724609375 4021.62939453125 -2258.596435546875 4006.083740234375 -2273.019287109375 3988.58740234375 C -2287.442138671875 3971.09130859375 -2299.48291015625 3951.56298828125 -2308.80712890625 3930.54541015625 C -2318.108642578125 3909.5791015625 -2324.755126953125 3887.016845703125 -2328.568115234375 3863.47119140625 L -2222.40673828125 3846.656982421875 C -2220.211181640625 3860.057861328125 -2216.243896484375 3873.105224609375 -2210.608642578125 3885.45263671875 C -2204.96728515625 3897.81396484375 -2197.690673828125 3909.401611328125 -2188.980712890625 3919.8935546875 C -2171.70263671875 3940.70703125 -2149.267822265625 3956.634765625 -2124.045654296875 3966.004638671875 L -2160.80078125 4066.989013671875 Z" stroke="none"/>
      <path d="M -2223.2294921875 3847.7998046875 L -2327.418701171875 3864.301513671875 C -2323.594970703125 3887.40576171875 -2317.029541015625 3909.54541015625 -2307.89306640625 3930.139892578125 C -2298.605712890625 3951.07470703125 -2286.61279296875 3970.525146484375 -2272.24755859375 3987.951416015625 C -2257.882568359375 4005.377685546875 -2241.07763671875 4020.861328125 -2222.299560546875 4033.972900390625 C -2203.82666015625 4046.87109375 -2183.3466796875 4057.540283203125 -2161.396484375 4065.702392578125 L -2125.323974609375 3966.593017578125 C -2150.33154296875 3957.118408203125 -2172.572998046875 3941.22412109375 -2189.750244140625 3920.5322265625 C -2198.5166015625 3909.97216796875 -2205.84033203125 3898.3095703125 -2211.5185546875 3885.867919921875 C -2217.052734375 3873.7412109375 -2220.98876953125 3860.944091796875 -2223.2294921875 3847.7998046875 M -2221.577392578125 3845.51318359375 C -2212.85205078125 3901.0439453125 -2174.263916015625 3946.6611328125 -2122.76513671875 3965.41015625 L -2160.20361328125 4068.2724609375 C -2252.44482421875 4034.69921875 -2314.3583984375 3959.5927734375 -2329.7138671875 3862.64013671875 L -2221.577392578125 3845.51318359375 Z" stroke="none" fill="#efefef"/>
    </g>
    <g id="Path_1337" data-name="Path 1337" transform="translate(1952.128 1950.08)" fill="#a7130e" stroke-miterlimit="10">
      <path d="M -1820.497436523438 4106.26416015625 C -1843.292846679688 4106.26416015625 -1866.122680664062 4103.24365234375 -1888.35302734375 4097.287109375 C -1896.173950195312 4095.191650390625 -1901.73388671875 4093.45361328125 -1909.172729492188 4090.767333984375 L -1872.417602539062 3989.78271484375 C -1855.837280273438 3995.697265625 -1838.431274414062 3998.69482421875 -1820.66259765625 3998.69482421875 C -1803.226684570312 3998.69482421875 -1786.11767578125 3995.803955078125 -1769.810424804688 3990.102294921875 C -1754.047607421875 3984.591064453125 -1739.345825195312 3976.572265625 -1726.113403320312 3966.268798828125 C -1713.014404296875 3956.0693359375 -1701.701171875 3943.90380859375 -1692.48828125 3930.11083984375 C -1683.313354492188 3916.374755859375 -1676.459594726562 3901.37353515625 -1672.107666015625 3885.50537109375 L -1568.300537109375 3913.31982421875 C -1575.975952148438 3941.542236328125 -1588.137817382812 3967.9931640625 -1604.455932617188 3991.94970703125 C -1612.428100585938 4003.6533203125 -1621.435913085938 4014.79296875 -1631.229125976562 4025.05859375 C -1640.908081054688 4035.204833984375 -1651.498046875 4044.648681640625 -1662.704956054688 4053.1279296875 C -1673.852905273438 4061.562744140625 -1685.7705078125 4069.163818359375 -1698.126708984375 4075.72021484375 C -1710.501708984375 4082.286376953125 -1723.4921875 4087.8974609375 -1736.737426757812 4092.39794921875 C -1750.091918945312 4096.935546875 -1763.900512695312 4100.41015625 -1777.77978515625 4102.724609375 C -1791.861083984375 4105.0732421875 -1806.2333984375 4106.26416015625 -1820.497436523438 4106.26416015625 Z" stroke="none"/>
      <path d="M -1671.409301757812 3886.7275390625 C -1675.800659179688 3902.3447265625 -1682.607299804688 3917.1181640625 -1691.65673828125 3930.666259765625 C -1700.92919921875 3944.548583984375 -1712.3154296875 3956.79248046875 -1725.4990234375 3967.057861328125 C -1738.8173828125 3977.42822265625 -1753.61474609375 3985.499267578125 -1769.480346679688 3991.04638671875 C -1785.893920898438 3996.784912109375 -1803.114135742188 3999.69482421875 -1820.66259765625 3999.69482421875 C -1838.211547851562 3999.69482421875 -1855.410278320312 3996.7890625 -1871.816650390625 3991.055419921875 L -1907.8896484375 4090.166015625 C -1900.944091796875 4092.651611328125 -1895.550048828125 4094.323486328125 -1888.094116210938 4096.3212890625 C -1865.9482421875 4102.2548828125 -1843.205444335938 4105.263671875 -1820.49755859375 4105.263671875 C -1806.288330078125 4105.263671875 -1791.971313476562 4104.07763671875 -1777.9443359375 4101.73828125 C -1764.118286132812 4099.4326171875 -1750.362548828125 4095.971435546875 -1737.05908203125 4091.451171875 C -1723.864379882812 4086.9677734375 -1710.92333984375 4081.3779296875 -1698.595458984375 4074.836669921875 C -1686.286254882812 4068.305419921875 -1674.413940429688 4060.733154296875 -1663.308349609375 4052.33056640625 C -1652.144287109375 4043.883544921875 -1641.5947265625 4034.4755859375 -1631.952758789062 4024.368408203125 C -1622.197143554688 4014.14208984375 -1613.223876953125 4003.04541015625 -1605.282470703125 3991.38671875 C -1589.213623046875 3967.796142578125 -1577.190551757812 3941.77734375 -1569.53076171875 3914.025390625 L -1671.409301757812 3886.7275390625 M -1672.812255859375 3884.28125 L -1567.073974609375 3912.61328125 C -1598.50390625 4029.911376953125 -1704.576416015625 4107.263671875 -1820.49755859375 4107.263671875 C -1842.985595703125 4107.263671875 -1865.856567382812 4104.3505859375 -1888.61181640625 4098.2529296875 C -1896.734619140625 4096.07666015625 -1902.552490234375 4094.24267578125 -1910.454833984375 4091.3662109375 L -1873.016357421875 3988.50390625 C -1856.68310546875 3994.4501953125 -1839.052001953125 3997.69482421875 -1820.66259765625 3997.69482421875 C -1749.84716796875 3997.69482421875 -1690.2685546875 3949.5927734375 -1672.812255859375 3884.28125 Z" stroke="none" fill="#efefef"/>
    </g>
    <g id="Path_1338" data-name="Path 1338" transform="translate(1819.833 2395.256)" fill="#a7130e" stroke-miterlimit="10">
      <path d="M -1435.486450195312 3466.21240234375 L -1539.29541015625 3438.3974609375 C -1536.004516601562 3425.752197265625 -1534.336669921875 3412.66796875 -1534.336669921875 3399.48828125 C -1534.336669921875 3389.038330078125 -1535.389526367188 3378.594482421875 -1537.466064453125 3368.447021484375 C -1539.489868164062 3358.556884765625 -1542.509643554688 3348.82861328125 -1546.441528320312 3339.532470703125 C -1550.302001953125 3330.4052734375 -1555.080200195312 3321.602294921875 -1560.643188476562 3313.367919921875 C -1566.1533203125 3305.2119140625 -1572.481201171875 3297.54248046875 -1579.451049804688 3290.572509765625 C -1586.421020507812 3283.6025390625 -1594.090454101562 3277.274658203125 -1602.246459960938 3271.7646484375 C -1610.480834960938 3266.201416015625 -1619.283935546875 3261.42333984375 -1628.411010742188 3257.56298828125 C -1637.707153320312 3253.630859375 -1647.435424804688 3250.611083984375 -1657.325561523438 3248.58740234375 C -1667.149047851562 3246.5771484375 -1677.251098632812 3245.5263671875 -1687.366943359375 3245.461181640625 L -1687.366943359375 3137.9560546875 C -1669.955688476562 3138.02197265625 -1652.563598632812 3139.80810546875 -1635.657592773438 3143.267578125 C -1618.866088867188 3146.70361328125 -1602.349365234375 3151.830810546875 -1586.566284179688 3158.50634765625 C -1571.069580078125 3165.06103515625 -1556.122802734375 3173.173828125 -1542.141357421875 3182.61962890625 C -1528.29248046875 3191.975830078125 -1515.26953125 3202.720703125 -1503.434326171875 3214.555908203125 C -1491.59912109375 3226.39111328125 -1480.854125976562 3239.4140625 -1471.498046875 3253.262939453125 C -1462.052368164062 3267.244384765625 -1453.939575195312 3282.191162109375 -1447.385009765625 3297.68798828125 C -1440.709350585938 3313.470947265625 -1435.582275390625 3329.987548828125 -1432.146240234375 3346.779052734375 C -1428.620483398438 3364.009033203125 -1426.832763671875 3381.742919921875 -1426.832763671875 3399.48828125 C -1426.832763671875 3412.130126953125 -1427.486694335938 3422.98486328125 -1428.890502929688 3433.649169921875 C -1430.25732421875 3444.03076171875 -1432.357543945312 3454.40380859375 -1435.486450195312 3466.21240234375 Z" stroke="none"/>
      <path d="M -1686.366943359375 3138.961669921875 L -1686.366943359375 3244.470703125 C -1676.518432617188 3244.596435546875 -1666.690673828125 3245.650146484375 -1657.125 3247.607666015625 C -1647.170288085938 3249.644775390625 -1637.37841796875 3252.684326171875 -1628.021484375 3256.641845703125 C -1618.834838867188 3260.527587890625 -1609.974609375 3265.336669921875 -1601.686645507812 3270.93603515625 C -1593.477905273438 3276.481689453125 -1585.758911132812 3282.850341796875 -1578.743896484375 3289.865478515625 C -1571.72900390625 3296.88037109375 -1565.360229492188 3304.599365234375 -1559.814575195312 3312.80810546875 C -1554.21533203125 3321.095947265625 -1549.406127929688 3329.956298828125 -1545.5205078125 3339.142822265625 C -1541.562866210938 3348.499755859375 -1538.523315429688 3358.291748046875 -1536.486328125 3368.246337890625 C -1534.396362304688 3378.459716796875 -1533.336669921875 3388.970947265625 -1533.336669921875 3399.48828125 C -1533.336669921875 3412.4189453125 -1534.931884765625 3425.2587890625 -1538.080688476562 3437.6875 L -1436.19775390625 3464.986572265625 C -1433.220703125 3453.620361328125 -1431.205444335938 3443.57177734375 -1429.882080078125 3433.5185546875 C -1428.48388671875 3422.898681640625 -1427.832763671875 3412.085205078125 -1427.832763671875 3399.48828125 C -1427.832763671875 3381.81005859375 -1429.613647460938 3364.1435546875 -1433.125854492188 3346.9794921875 C -1436.548706054688 3330.252685546875 -1441.656005859375 3313.799560546875 -1448.306030273438 3298.077392578125 C -1454.83544921875 3282.64013671875 -1462.917114257812 3267.750732421875 -1472.32666015625 3253.82275390625 C -1481.647216796875 3240.026611328125 -1492.351196289062 3227.05322265625 -1504.141357421875 3215.262939453125 C -1515.931640625 3203.47265625 -1528.905029296875 3192.768798828125 -1542.701171875 3183.4482421875 C -1556.629150390625 3174.03857421875 -1571.5185546875 3165.956787109375 -1586.955810546875 3159.427490234375 C -1602.678100585938 3152.77734375 -1619.131225585938 3147.670166015625 -1635.858032226562 3144.247314453125 C -1652.374755859375 3140.867431640625 -1669.357055664062 3139.0908203125 -1686.366943359375 3138.961669921875 M -1688.366943359375 3136.9541015625 C -1543.373168945312 3136.9541015625 -1425.832763671875 3254.4951171875 -1425.832763671875 3399.48828125 C -1425.832763671875 3424.2822265625 -1428.361328125 3443.48828125 -1434.778076171875 3467.4375 L -1540.516357421875 3439.10546875 C -1537.139038085938 3426.46875 -1535.336669921875 3413.189453125 -1535.336669921875 3399.48828125 C -1535.336669921875 3314.97216796875 -1603.8505859375 3246.4580078125 -1688.366943359375 3246.4580078125 L -1688.366943359375 3136.9541015625 Z" stroke="none" fill="#efefef"/>
    </g>
    <text id="Total_Budget_4.7_Trillion" data-name="Total Budget 
4.7 Trillion" transform="translate(-15 5757)" fill="#061624" font-size="30" font-family="MuseoSans-900, Museo Sans" font-weight="900"><tspan x="50.145" y="28">Total Budget </tspan><tspan x="65.19" y="64">4.7 Trillion</tspan></text>
    <g id="Group_482" data-name="Group 482" transform="translate(-370 2261)">
      <rect id="Rectangle_364" data-name="Rectangle 364" width="12" height="12" transform="translate(747 3251)" fill="#1762a0"/>
      <text id="Discretionary_Spending" data-name="Discretionary Spending" transform="translate(762 3250)" fill="#908f93" font-size="12" font-family="MuseoSans-500, Museo Sans" font-weight="500"><tspan x="0" y="11">Discretionary Spending</tspan></text>
      <rect id="Rectangle_365" data-name="Rectangle 365" width="12" height="12" transform="translate(747 3229)" fill="#a7130e"/>
      <text id="Mandatory_Spending" data-name="Mandatory Spending" transform="translate(762 3228)" fill="#908f93" font-size="12" font-family="MuseoSans-500, Museo Sans" font-weight="500"><tspan x="0" y="11">Mandatory Spending</tspan></text>
    </g>
  </g>
</svg>
