<svg xmlns="http://www.w3.org/2000/svg" width="160" height="150.955" viewBox="0 0 160 150.955">
  <g id="Group_749" data-name="Group 749" transform="translate(-2140.588 10785.424)">
    <g id="Group_206" data-name="Group 206" transform="translate(2185.536 -10785.424)">
      <rect id="Rectangle_142" data-name="Rectangle 142" width="81.038" height="45.15" rx="3" transform="translate(0.469 0.49)" fill="#efefef"/>
      <g id="Group_94" data-name="Group 94" transform="translate(0 0)">
        <path id="Path_1581" data-name="Path 1581" d="M37.157,22A15.157,15.157,0,1,0,52.314,37.157,15.157,15.157,0,0,0,37.157,22Zm0,27.282A12.125,12.125,0,1,1,49.282,37.157,12.125,12.125,0,0,1,37.157,49.282Z" transform="translate(3.767 -14.422)" fill="#1c77c3"/>
        <path id="Path_1582" data-name="Path 1582" d="M33.547,31.063h3.031a1.516,1.516,0,1,0,0-3.031H35.063V26.516a1.516,1.516,0,1,0-3.031,0v1.8a4.536,4.536,0,0,0,1.516,8.815,1.516,1.516,0,1,1,0,3.031H30.516a1.516,1.516,0,1,0,0,3.031h1.516V44.7a1.516,1.516,0,0,0,3.031,0v-1.8a4.536,4.536,0,0,0-1.516-8.815,1.516,1.516,0,0,1,0-3.031Z" transform="translate(7.376 -12.875)" fill="#1c77c3"/>
        <path id="Path_1583" data-name="Path 1583" d="M85.331,17H6.516A1.516,1.516,0,0,0,5,18.516V60.955a1.516,1.516,0,0,0,1.516,1.516H85.331a1.516,1.516,0,0,0,1.516-1.516V18.516A1.516,1.516,0,0,0,85.331,17ZM74.843,59.439H17a10.617,10.617,0,0,0-8.973-8.973V29A10.617,10.617,0,0,0,17,20.031H74.843A10.617,10.617,0,0,0,83.816,29V50.466A10.617,10.617,0,0,0,74.843,59.439Zm8.973-39.408v5.91a7.6,7.6,0,0,1-5.91-5.91Zm-75.784,0h5.91a7.6,7.6,0,0,1-5.91,5.91Zm0,39.408v-5.91a7.6,7.6,0,0,1,5.91,5.91Zm75.784,0h-5.91a7.6,7.6,0,0,1,5.91-5.91Z" transform="translate(-5 -17)" fill="#1c77c3"/>
      </g>
    </g>
    <g id="Group_207" data-name="Group 207" transform="translate(2213.874 -10762.306)">
      <rect id="Rectangle_142-2" data-name="Rectangle 142" width="81.038" height="45.15" rx="3" transform="translate(0.469 0.49)" fill="#efefef"/>
      <g id="Group_94-2" data-name="Group 94" transform="translate(0 0)">
        <path id="Path_1581-2" data-name="Path 1581" d="M37.157,22A15.157,15.157,0,1,0,52.314,37.157,15.157,15.157,0,0,0,37.157,22Zm0,27.282A12.125,12.125,0,1,1,49.282,37.157,12.125,12.125,0,0,1,37.157,49.282Z" transform="translate(3.767 -14.422)" fill="#1c77c3"/>
        <path id="Path_1582-2" data-name="Path 1582" d="M33.547,31.063h3.031a1.516,1.516,0,1,0,0-3.031H35.063V26.516a1.516,1.516,0,1,0-3.031,0v1.8a4.536,4.536,0,0,0,1.516,8.815,1.516,1.516,0,1,1,0,3.031H30.516a1.516,1.516,0,1,0,0,3.031h1.516V44.7a1.516,1.516,0,0,0,3.031,0v-1.8a4.536,4.536,0,0,0-1.516-8.815,1.516,1.516,0,0,1,0-3.031Z" transform="translate(7.376 -12.875)" fill="#1c77c3"/>
        <path id="Path_1583-2" data-name="Path 1583" d="M85.331,17H6.516A1.516,1.516,0,0,0,5,18.516V60.955a1.516,1.516,0,0,0,1.516,1.516H85.331a1.516,1.516,0,0,0,1.516-1.516V18.516A1.516,1.516,0,0,0,85.331,17ZM74.843,59.439H17a10.617,10.617,0,0,0-8.973-8.973V29A10.617,10.617,0,0,0,17,20.031H74.843A10.617,10.617,0,0,0,83.816,29V50.466A10.617,10.617,0,0,0,74.843,59.439Zm8.973-39.408v5.91a7.6,7.6,0,0,1-5.91-5.91Zm-75.784,0h5.91a7.6,7.6,0,0,1-5.91,5.91Zm0,39.408v-5.91a7.6,7.6,0,0,1,5.91,5.91Zm75.784,0h-5.91a7.6,7.6,0,0,1,5.91-5.91Z" transform="translate(-5 -17)" fill="#1c77c3"/>
      </g>
    </g>
    <g id="Group_201" data-name="Group 201" transform="translate(2267.03 -10673.993)">
      <path id="Union_1" data-name="Union 1" d="M0,19V11.4H.015a8.985,8.985,0,0,1,1.374-4.21A12.775,12.775,0,0,1,5.042,3.446,18.637,18.637,0,0,1,10.424.924a23.858,23.858,0,0,1,13.151,0,18.641,18.641,0,0,1,5.383,2.522,12.775,12.775,0,0,1,3.653,3.744,8.986,8.986,0,0,1,1.374,4.21H34V19Z" transform="translate(-0.442 20.524)" fill="#10416b"/>
      <circle id="Ellipse_78" data-name="Ellipse 78" cx="9.5" cy="9.5" r="9.5" transform="translate(7.558 -0.476)" fill="#10416b"/>
    </g>
    <g id="Group_202" data-name="Group 202" transform="translate(2141 -10673.993)">
      <path id="Union_1-2" data-name="Union 1" d="M0,0V7.6H.015a8.985,8.985,0,0,0,1.374,4.21,12.775,12.775,0,0,0,3.653,3.744,18.637,18.637,0,0,0,5.382,2.522A23.28,23.28,0,0,0,17,19a23.283,23.283,0,0,0,6.576-.924,18.641,18.641,0,0,0,5.383-2.522,12.775,12.775,0,0,0,3.653-3.744A8.986,8.986,0,0,0,33.985,7.6H34V0Z" transform="translate(33.588 39.524) rotate(180)" fill="#3f75a2"/>
      <circle id="Ellipse_78-2" data-name="Ellipse 78" cx="9.5" cy="9.5" r="9.5" transform="translate(7.588 -0.476)" fill="#3f75a2"/>
    </g>
    <g id="Group_200" data-name="Group 200" transform="translate(2245.403 -10673.993)">
      <circle id="Ellipse_78-3" data-name="Ellipse 78" cx="9.5" cy="9.5" r="9.5" transform="translate(7.185 -0.476)" fill="#6ea8d8"/>
      <path id="Union_1-3" data-name="Union 1" d="M0,19V11.4H.015a8.985,8.985,0,0,1,1.374-4.21A12.775,12.775,0,0,1,5.042,3.446,18.637,18.637,0,0,1,10.424.924a23.858,23.858,0,0,1,13.151,0,18.641,18.641,0,0,1,5.383,2.522,12.775,12.775,0,0,1,3.653,3.744,8.986,8.986,0,0,1,1.374,4.21H34V19Z" transform="translate(0.185 20.524)" fill="#6ea8d8"/>
    </g>
    <g id="Group_203" data-name="Group 203" transform="translate(2162.626 -10673.993)">
      <circle id="Ellipse_78-4" data-name="Ellipse 78" cx="9.5" cy="9.5" r="9.5" transform="translate(6.961 -0.476)" fill="#83b4de"/>
      <path id="Union_1-4" data-name="Union 1" d="M0,0V7.6H.015a8.985,8.985,0,0,0,1.374,4.21,12.775,12.775,0,0,0,3.653,3.744,18.637,18.637,0,0,0,5.382,2.522A23.28,23.28,0,0,0,17,19a23.283,23.283,0,0,0,6.576-.924,18.641,18.641,0,0,0,5.383-2.522,12.775,12.775,0,0,0,3.653-3.744A8.986,8.986,0,0,0,33.985,7.6H34V0Z" transform="translate(33.961 39.524) rotate(180)" fill="#83b4de"/>
    </g>
    <g id="Group_198" data-name="Group 198" transform="translate(2223.777 -10673.993)">
      <path id="Union_1-5" data-name="Union 1" d="M0,19V11.4H.015a8.985,8.985,0,0,1,1.374-4.21A12.775,12.775,0,0,1,5.042,3.446,18.637,18.637,0,0,1,10.424.924a23.858,23.858,0,0,1,13.151,0,18.641,18.641,0,0,1,5.383,2.522,12.775,12.775,0,0,1,3.653,3.744,8.986,8.986,0,0,1,1.374,4.21H34V19Z" transform="translate(-0.189 20.524)" fill="#3f75a2"/>
      <ellipse id="Ellipse_78-5" data-name="Ellipse 78" cx="9" cy="9.5" rx="9" ry="9.5" transform="translate(7.811 -0.476)" fill="#3f75a2"/>
    </g>
    <g id="Group_204" data-name="Group 204" transform="translate(2184.253 -10673.993)">
      <path id="Union_1-6" data-name="Union 1" d="M0,0V7.6H.015a8.985,8.985,0,0,0,1.374,4.21,12.775,12.775,0,0,0,3.653,3.744,18.637,18.637,0,0,0,5.382,2.522A23.28,23.28,0,0,0,17,19a23.283,23.283,0,0,0,6.576-.924,18.641,18.641,0,0,0,5.383-2.522,12.775,12.775,0,0,0,3.653-3.744A8.986,8.986,0,0,0,33.985,7.6H34V0Z" transform="translate(33.335 39.524) rotate(180)" fill="#6ea8d8"/>
      <circle id="Ellipse_78-6" data-name="Ellipse 78" cx="9.5" cy="9.5" r="9.5" transform="translate(7.335 -0.476)" fill="#6ea8d8"/>
    </g>
    <g id="Group_196" data-name="Group 196" transform="translate(2203.642 -10673.993)">
      <path id="Union_1-7" data-name="Union 1" d="M0,19V11.4H.015a8.985,8.985,0,0,1,1.374-4.21A12.775,12.775,0,0,1,5.042,3.446,18.637,18.637,0,0,1,10.424.924a23.858,23.858,0,0,1,13.151,0,18.641,18.641,0,0,1,5.383,2.522,12.775,12.775,0,0,1,3.653,3.744,8.986,8.986,0,0,1,1.374,4.21H34V19Z" transform="translate(-0.054 20.524)" fill="#1762a0"/>
      <ellipse id="Ellipse_78-7" data-name="Ellipse 78" cx="9" cy="9.5" rx="9" ry="9.5" transform="translate(7.946 -0.476)" fill="#1762a0"/>
    </g>
    <g id="Group_205" data-name="Group 205" transform="translate(2151.978 -10771.255)">
      <rect id="Rectangle_142-3" data-name="Rectangle 142" width="81.038" height="45.15" rx="3" transform="translate(0.469 0.49)" fill="#efefef"/>
      <g id="Group_94-3" data-name="Group 94" transform="translate(0 0)">
        <path id="Path_1581-3" data-name="Path 1581" d="M37.157,22A15.157,15.157,0,1,0,52.314,37.157,15.157,15.157,0,0,0,37.157,22Zm0,27.282A12.125,12.125,0,1,1,49.282,37.157,12.125,12.125,0,0,1,37.157,49.282Z" transform="translate(3.767 -14.422)" fill="#1c77c3"/>
        <path id="Path_1582-3" data-name="Path 1582" d="M33.547,31.063h3.031a1.516,1.516,0,1,0,0-3.031H35.063V26.516a1.516,1.516,0,1,0-3.031,0v1.8a4.536,4.536,0,0,0,1.516,8.815,1.516,1.516,0,1,1,0,3.031H30.516a1.516,1.516,0,1,0,0,3.031h1.516V44.7a1.516,1.516,0,0,0,3.031,0v-1.8a4.536,4.536,0,0,0-1.516-8.815,1.516,1.516,0,0,1,0-3.031Z" transform="translate(7.376 -12.875)" fill="#1c77c3"/>
        <path id="Path_1583-3" data-name="Path 1583" d="M85.331,17H6.516A1.516,1.516,0,0,0,5,18.516V60.955a1.516,1.516,0,0,0,1.516,1.516H85.331a1.516,1.516,0,0,0,1.516-1.516V18.516A1.516,1.516,0,0,0,85.331,17ZM74.843,59.439H17a10.617,10.617,0,0,0-8.973-8.973V29A10.617,10.617,0,0,0,17,20.031H74.843A10.617,10.617,0,0,0,83.816,29V50.466A10.617,10.617,0,0,0,74.843,59.439Zm8.973-39.408v5.91a7.6,7.6,0,0,1-5.91-5.91Zm-75.784,0h5.91a7.6,7.6,0,0,1-5.91,5.91Zm0,39.408v-5.91a7.6,7.6,0,0,1,5.91,5.91Zm75.784,0h-5.91a7.6,7.6,0,0,1,5.91-5.91Z" transform="translate(-5 -17)" fill="#1c77c3"/>
      </g>
    </g>
    <line id="Line_95" data-name="Line 95" x1="60.405" y1="33.558" transform="translate(2220.421 -10711.652)" fill="none" stroke="#10416b" stroke-width="8"/>
    <line id="Line_96" data-name="Line 96" x1="39.524" y1="33.558" transform="translate(2220.421 -10711.652)" fill="none" stroke="#10416b" stroke-width="8"/>
    <line id="Line_97" data-name="Line 97" x1="20.135" y1="33.558" transform="translate(2220.421 -10711.652)" fill="none" stroke="#10416b" stroke-width="8"/>
    <line id="Line_98" data-name="Line 98" y1="33.558" transform="translate(2220.421 -10711.652)" fill="none" stroke="#10416b" stroke-width="8"/>
    <line id="Line_99" data-name="Line 99" y1="33.558" x2="19.389" transform="translate(2201.032 -10711.652)" fill="none" stroke="#10416b" stroke-width="8"/>
    <line id="Line_100" data-name="Line 100" y1="33.558" x2="41.016" transform="translate(2179.406 -10711.652)" fill="none" stroke="#10416b" stroke-width="8"/>
    <line id="Line_101" data-name="Line 101" y1="33.558" x2="62.642" transform="translate(2157.779 -10711.652)" fill="none" stroke="#10416b" stroke-width="8"/>
    <path id="Polygon_2" data-name="Polygon 2" d="M1.491,0,2.983,2.983H0Z" transform="translate(2221.913 -10711.279) rotate(180)" fill="#10416b"/>
  </g>
</svg>
