<svg xmlns="http://www.w3.org/2000/svg" width="794" height="895" viewBox="0 0 794 895">
  <g id="Group_752" data-name="Group 752" transform="translate(-109 -3252)">
    <text id="Fractional_Reserve_Banking_at_Work_Simplified_" data-name="Fractional Reserve Banking at Work (Simplified)" transform="translate(109 3252)" fill="#7d0404" font-size="20" font-family="MuseoSans-900, Museo Sans" font-weight="900"><tspan x="0" y="19">Fractional Reserve Banking at Work (Simplified)</tspan></text>
    <g id="Group_626" data-name="Group 626">
      <rect id="Rectangle_142" data-name="Rectangle 142" width="46" height="26" rx="3" transform="translate(201 3469)" fill="#efefef"/>
      <g id="Group_94" data-name="Group 94" transform="translate(199.746 3468.653)">
        <path id="Path_1581" data-name="Path 1581" d="M30.766,22a8.766,8.766,0,1,0,8.766,8.766A8.766,8.766,0,0,0,30.766,22Zm0,15.779a7.013,7.013,0,1,1,7.013-7.013A7.013,7.013,0,0,1,30.766,37.779Z" transform="translate(-7.097 -17.617)" fill="#1c77c3"/>
        <path id="Path_1582" data-name="Path 1582" d="M31.63,28.507h1.753a.877.877,0,1,0,0-1.753h-.877v-.877a.877.877,0,1,0-1.753,0v1.038a2.623,2.623,0,0,0,.877,5.1.877.877,0,1,1,0,1.753H29.877a.877.877,0,1,0,0,1.753h.877V36.4a.877.877,0,0,0,1.753,0V35.358a2.623,2.623,0,0,0-.877-5.1.877.877,0,0,1,0-1.753Z" transform="translate(-7.961 -17.987)" fill="#1c77c3"/>
        <path id="Path_1583" data-name="Path 1583" d="M51.461,17H5.877A.877.877,0,0,0,5,17.877V42.422a.877.877,0,0,0,.877.877H51.461a.877.877,0,0,0,.877-.877V17.877A.877.877,0,0,0,51.461,17ZM45.395,41.545H11.943a6.14,6.14,0,0,0-5.19-5.19V23.943a6.14,6.14,0,0,0,5.19-5.19H45.395a6.14,6.14,0,0,0,5.19,5.19V36.356A6.14,6.14,0,0,0,45.395,41.545Zm5.19-22.792v3.418a4.4,4.4,0,0,1-3.418-3.418Zm-43.831,0h3.418a4.4,4.4,0,0,1-3.418,3.418Zm0,22.792V38.127a4.4,4.4,0,0,1,3.418,3.418Zm43.831,0H47.166a4.4,4.4,0,0,1,3.418-3.418Z" transform="translate(-5 -17)" fill="#1c77c3"/>
      </g>
      <rect id="Rectangle_142-2" data-name="Rectangle 142" width="46" height="26" rx="3" transform="translate(205 3478)" fill="#efefef"/>
      <g id="Group_94-2" data-name="Group 94" transform="translate(204.028 3477.22)">
        <path id="Path_1581-2" data-name="Path 1581" d="M30.766,22a8.766,8.766,0,1,0,8.766,8.766A8.766,8.766,0,0,0,30.766,22Zm0,15.779a7.013,7.013,0,1,1,7.013-7.013A7.013,7.013,0,0,1,30.766,37.779Z" transform="translate(-7.097 -17.617)" fill="#1c77c3"/>
        <path id="Path_1582-2" data-name="Path 1582" d="M31.63,28.507h1.753a.877.877,0,1,0,0-1.753h-.877v-.877a.877.877,0,1,0-1.753,0v1.038a2.623,2.623,0,0,0,.877,5.1.877.877,0,1,1,0,1.753H29.877a.877.877,0,1,0,0,1.753h.877V36.4a.877.877,0,0,0,1.753,0V35.358a2.623,2.623,0,0,0-.877-5.1.877.877,0,0,1,0-1.753Z" transform="translate(-7.961 -17.987)" fill="#1c77c3"/>
        <path id="Path_1583-2" data-name="Path 1583" d="M51.461,17H5.877A.877.877,0,0,0,5,17.877V42.422a.877.877,0,0,0,.877.877H51.461a.877.877,0,0,0,.877-.877V17.877A.877.877,0,0,0,51.461,17ZM45.395,41.545H11.943a6.14,6.14,0,0,0-5.19-5.19V23.943a6.14,6.14,0,0,0,5.19-5.19H45.395a6.14,6.14,0,0,0,5.19,5.19V36.356A6.14,6.14,0,0,0,45.395,41.545Zm5.19-22.792v3.418a4.4,4.4,0,0,1-3.418-3.418Zm-43.831,0h3.418a4.4,4.4,0,0,1-3.418,3.418Zm0,22.792V38.127a4.4,4.4,0,0,1,3.418,3.418Zm43.831,0H47.166a4.4,4.4,0,0,1,3.418-3.418Z" transform="translate(-5 -17)" fill="#1c77c3"/>
      </g>
      <rect id="Rectangle_142-3" data-name="Rectangle 142" width="46" height="26" rx="3" transform="translate(210 3488)" fill="#efefef"/>
      <g id="Group_94-3" data-name="Group 94" transform="translate(208.847 3487.391)">
        <path id="Path_1581-3" data-name="Path 1581" d="M30.766,22a8.766,8.766,0,1,0,8.766,8.766A8.766,8.766,0,0,0,30.766,22Zm0,15.779a7.013,7.013,0,1,1,7.013-7.013A7.013,7.013,0,0,1,30.766,37.779Z" transform="translate(-7.097 -17.617)" fill="#1c77c3"/>
        <path id="Path_1582-3" data-name="Path 1582" d="M31.63,28.507h1.753a.877.877,0,1,0,0-1.753h-.877v-.877a.877.877,0,1,0-1.753,0v1.038a2.623,2.623,0,0,0,.877,5.1.877.877,0,1,1,0,1.753H29.877a.877.877,0,1,0,0,1.753h.877V36.4a.877.877,0,0,0,1.753,0V35.358a2.623,2.623,0,0,0-.877-5.1.877.877,0,0,1,0-1.753Z" transform="translate(-7.961 -17.987)" fill="#1c77c3"/>
        <path id="Path_1583-3" data-name="Path 1583" d="M51.461,17H5.877A.877.877,0,0,0,5,17.877V42.422a.877.877,0,0,0,.877.877H51.461a.877.877,0,0,0,.877-.877V17.877A.877.877,0,0,0,51.461,17ZM45.395,41.545H11.943a6.14,6.14,0,0,0-5.19-5.19V23.943a6.14,6.14,0,0,0,5.19-5.19H45.395a6.14,6.14,0,0,0,5.19,5.19V36.356A6.14,6.14,0,0,0,45.395,41.545Zm5.19-22.792v3.418a4.4,4.4,0,0,1-3.418-3.418Zm-43.831,0h3.418a4.4,4.4,0,0,1-3.418,3.418Zm0,22.792V38.127a4.4,4.4,0,0,1,3.418,3.418Zm43.831,0H47.166a4.4,4.4,0,0,1,3.418-3.418Z" transform="translate(-5 -17)" fill="#1c77c3"/>
      </g>
      <rect id="Rectangle_142-4" data-name="Rectangle 142" width="48" height="26" rx="3" transform="translate(214 3497)" fill="#efefef"/>
      <g id="Group_94-4" data-name="Group 94" transform="translate(214.201 3496.493)">
        <path id="Path_1581-4" data-name="Path 1581" d="M30.766,22a8.766,8.766,0,1,0,8.766,8.766A8.766,8.766,0,0,0,30.766,22Zm0,15.779a7.013,7.013,0,1,1,7.013-7.013A7.013,7.013,0,0,1,30.766,37.779Z" transform="translate(-7.097 -17.617)" fill="#1c77c3"/>
        <path id="Path_1582-4" data-name="Path 1582" d="M31.63,28.507h1.753a.877.877,0,1,0,0-1.753h-.877v-.877a.877.877,0,1,0-1.753,0v1.038a2.623,2.623,0,0,0,.877,5.1.877.877,0,1,1,0,1.753H29.877a.877.877,0,1,0,0,1.753h.877V36.4a.877.877,0,0,0,1.753,0V35.358a2.623,2.623,0,0,0-.877-5.1.877.877,0,0,1,0-1.753Z" transform="translate(-7.961 -17.987)" fill="#1c77c3"/>
        <path id="Path_1583-4" data-name="Path 1583" d="M51.461,17H5.877A.877.877,0,0,0,5,17.877V42.422a.877.877,0,0,0,.877.877H51.461a.877.877,0,0,0,.877-.877V17.877A.877.877,0,0,0,51.461,17ZM45.395,41.545H11.943a6.14,6.14,0,0,0-5.19-5.19V23.943a6.14,6.14,0,0,0,5.19-5.19H45.395a6.14,6.14,0,0,0,5.19,5.19V36.356A6.14,6.14,0,0,0,45.395,41.545Zm5.19-22.792v3.418a4.4,4.4,0,0,1-3.418-3.418Zm-43.831,0h3.418a4.4,4.4,0,0,1-3.418,3.418Zm0,22.792V38.127a4.4,4.4,0,0,1,3.418,3.418Zm43.831,0H47.166a4.4,4.4,0,0,1,3.418-3.418Z" transform="translate(-5 -17)" fill="#1c77c3"/>
      </g>
      <path id="Path_2560" data-name="Path 2560" d="M0,14.736H19.58L15.16,19.156l4.421,4.421L31.369,11.789,19.58,0,15.16,4.421,19.58,8.841H0Z" transform="translate(259.183 3818.297) rotate(90)" fill="#7d0407"/>
      <path id="Path_2561" data-name="Path 2561" d="M31.369,14.736H11.789l4.421,4.421-4.421,4.421L0,11.789,11.789,0l4.421,4.421L11.789,8.842h19.58Z" transform="translate(224.104 4001.098)" fill="#7d0407"/>
      <g id="Group_276" data-name="Group 276" transform="translate(220.09 3505.059)">
        <rect id="Rectangle_142-5" data-name="Rectangle 142" width="46" height="27" rx="3" transform="translate(0.91 -0.059)" fill="#efefef"/>
        <g id="Group_94-5" data-name="Group 94" transform="translate(0 0)">
          <path id="Path_1581-5" data-name="Path 1581" d="M30.766,22a8.766,8.766,0,1,0,8.766,8.766A8.766,8.766,0,0,0,30.766,22Zm0,15.779a7.013,7.013,0,1,1,7.013-7.013A7.013,7.013,0,0,1,30.766,37.779Z" transform="translate(-7.097 -17.617)" fill="#1c77c3"/>
          <path id="Path_1582-5" data-name="Path 1582" d="M31.63,28.507h1.753a.877.877,0,1,0,0-1.753h-.877v-.877a.877.877,0,1,0-1.753,0v1.038a2.623,2.623,0,0,0,.877,5.1.877.877,0,1,1,0,1.753H29.877a.877.877,0,1,0,0,1.753h.877V36.4a.877.877,0,0,0,1.753,0V35.358a2.623,2.623,0,0,0-.877-5.1.877.877,0,0,1,0-1.753Z" transform="translate(-7.961 -17.987)" fill="#1c77c3"/>
          <path id="Path_1583-5" data-name="Path 1583" d="M51.461,17H5.877A.877.877,0,0,0,5,17.877V42.422a.877.877,0,0,0,.877.877H51.461a.877.877,0,0,0,.877-.877V17.877A.877.877,0,0,0,51.461,17ZM45.395,41.545H11.943a6.14,6.14,0,0,0-5.19-5.19V23.943a6.14,6.14,0,0,0,5.19-5.19H45.395a6.14,6.14,0,0,0,5.19,5.19V36.356A6.14,6.14,0,0,0,45.395,41.545Zm5.19-22.792v3.418a4.4,4.4,0,0,1-3.418-3.418Zm-43.831,0h3.418a4.4,4.4,0,0,1-3.418,3.418Zm0,22.792V38.127a4.4,4.4,0,0,1,3.418,3.418Zm43.831,0H47.166a4.4,4.4,0,0,1,3.418-3.418Z" transform="translate(-5 -17)" fill="#1c77c3"/>
        </g>
      </g>
      <g id="Group_279" data-name="Group 279" transform="translate(271.167 3885.381) rotate(180)">
        <rect id="Rectangle_142-6" data-name="Rectangle 142" width="46.378" height="26.037" rx="3" transform="translate(0.871 0.44)" fill="#efefef"/>
        <g id="Group_94-6" data-name="Group 94" transform="translate(0 0)">
          <path id="Path_1581-6" data-name="Path 1581" d="M8.766,0a8.766,8.766,0,1,0,8.766,8.766A8.766,8.766,0,0,0,8.766,0Zm0,15.779a7.013,7.013,0,1,1,7.013-7.013,7.013,7.013,0,0,1-7.013,7.013Z" transform="translate(14.903 4.383)" fill="#7d0404"/>
          <path id="Path_1582-6" data-name="Path 1582" d="M2.63,3.506H4.383a.877.877,0,1,0,0-1.753H3.507V.877a.877.877,0,1,0-1.753,0V1.915a2.623,2.623,0,0,0,.877,5.1.877.877,0,1,1,0,1.753H.877a.877.877,0,1,0,0,1.753h.877V11.4a.877.877,0,1,0,1.753,0V10.358a2.623,2.623,0,0,0-.877-5.1.877.877,0,0,1,0-1.753Z" transform="translate(21.039 7.013)" fill="#7d0404"/>
          <path id="Path_1583-6" data-name="Path 1583" d="M46.461,0H.877A.877.877,0,0,0,0,.877V25.422a.877.877,0,0,0,.877.877H46.461a.877.877,0,0,0,.877-.877V.877A.877.877,0,0,0,46.461,0ZM40.395,24.545H6.943a6.14,6.14,0,0,0-5.19-5.19V6.943a6.14,6.14,0,0,0,5.19-5.19H40.395a6.14,6.14,0,0,0,5.19,5.19V19.356A6.14,6.14,0,0,0,40.395,24.545Zm5.19-22.792V5.172a4.4,4.4,0,0,1-3.418-3.418Zm-43.831,0H5.172A4.4,4.4,0,0,1,1.753,5.172Zm0,22.792V21.127a4.4,4.4,0,0,1,3.418,3.418Zm43.831,0H42.166a4.4,4.4,0,0,1,3.418-3.418Z" fill="#7d0404"/>
        </g>
      </g>
      <g id="Group_296" data-name="Group 296" transform="translate(1 -144)">
        <path id="Path_3106" data-name="Path 3106" d="M3,0H43.378a3,3,0,0,1,3,3V23.037a3,3,0,0,1-3,3H3a3,3,0,0,1-3-3V3A3,3,0,0,1,3,0Z" transform="translate(208.296 4169.94) rotate(180)" fill="#efefef"/>
        <g id="Group_94-7" data-name="Group 94" transform="translate(209.167 4170.381) rotate(180)">
          <path id="Path_1581-7" data-name="Path 1581" d="M8.766,0a8.766,8.766,0,1,0,8.766,8.766A8.766,8.766,0,0,0,8.766,0Zm0,15.779a7.013,7.013,0,1,1,7.013-7.013,7.013,7.013,0,0,1-7.013,7.013Z" transform="translate(14.903 4.383)" fill="#7d0404"/>
          <path id="Path_1582-7" data-name="Path 1582" d="M2.63,3.506H4.383a.877.877,0,1,0,0-1.753H3.507V.877a.877.877,0,1,0-1.753,0V1.915a2.623,2.623,0,0,0,.877,5.1.877.877,0,1,1,0,1.753H.877a.877.877,0,1,0,0,1.753h.877V11.4a.877.877,0,1,0,1.753,0V10.358a2.623,2.623,0,0,0-.877-5.1.877.877,0,0,1,0-1.753Z" transform="translate(21.039 7.013)" fill="#7d0404"/>
          <path id="Path_1583-7" data-name="Path 1583" d="M46.461,0H.877A.877.877,0,0,0,0,.877V25.422a.877.877,0,0,0,.877.877H46.461a.877.877,0,0,0,.877-.877V.877A.877.877,0,0,0,46.461,0ZM40.395,24.545H6.943a6.14,6.14,0,0,0-5.19-5.19V6.943a6.14,6.14,0,0,0,5.19-5.19H40.395a6.14,6.14,0,0,0,5.19,5.19V19.356A6.14,6.14,0,0,0,40.395,24.545Zm5.19-22.792V5.172a4.4,4.4,0,0,1-3.418-3.418Zm-43.831,0H5.172A4.4,4.4,0,0,1,1.753,5.172Zm0,22.792V21.127a4.4,4.4,0,0,1,3.418,3.418Zm43.831,0H42.166a4.4,4.4,0,0,1,3.418-3.418Z" fill="#7d0404"/>
        </g>
      </g>
      <g id="Group_225" data-name="Group 225" transform="translate(-351 149)">
        <path id="Path_2546" data-name="Path 2546" d="M0,3.976l3.983-.849L24.479,0l1.142,7.674-9.4,1.706c-7.161,1.361-7.325.8-6.554,5.712l2,12.213L3.69,28.448.564,7.674,0,3.976Z" transform="translate(791.234 3357.668) rotate(140)"/>
        <line id="Line_104" data-name="Line 104" x1="81" transform="translate(697.5 3355.5)" fill="none" stroke="#000" stroke-width="8"/>
      </g>
      <g id="Group_285" data-name="Group 285" transform="translate(-397 422)">
        <path id="Path_2546-2" data-name="Path 2546" d="M0,3.976l3.983-.849L24.479,0l1.142,7.674-9.4,1.706c-7.161,1.361-7.325.8-6.554,5.712l2,12.213L3.69,28.448.564,7.674,0,3.976Z" transform="translate(791.234 3357.668) rotate(140)"/>
        <line id="Line_104-2" data-name="Line 104" x1="81" transform="translate(697.5 3355.5)" fill="none" stroke="#000" stroke-width="8"/>
      </g>
      <g id="Group_286" data-name="Group 286" transform="translate(1152.734 7355.014) rotate(180)">
        <path id="Path_2546-3" data-name="Path 2546" d="M0,3.976l3.983-.849L24.479,0l1.142,7.674-9.4,1.706c-7.161,1.361-7.325.8-6.554,5.712l2,12.213L3.69,28.448.564,7.674,0,3.976Z" transform="translate(791.234 3357.668) rotate(140)"/>
        <line id="Line_104-3" data-name="Line 104" x1="81" transform="translate(697.5 3355.5)" fill="none" stroke="#000" stroke-width="8"/>
      </g>
      <g id="Group_284" data-name="Group 284" transform="translate(1283.734 6996.014) rotate(180)">
        <path id="Path_2546-4" data-name="Path 2546" d="M0,3.976l3.983-.849L24.479,0l1.142,7.674-9.4,1.706c-7.161,1.361-7.325.8-6.554,5.712l2,12.213L3.69,28.448.564,7.674,0,3.976Z" transform="translate(791.234 3357.668) rotate(140)"/>
        <line id="Line_104-4" data-name="Line 104" x1="81" transform="translate(697.5 3355.5)" fill="none" stroke="#000" stroke-width="8"/>
      </g>
      <g id="Group_281" data-name="Group 281" transform="translate(-148 149)">
        <path id="Path_2546-5" data-name="Path 2546" d="M0,3.976l3.983-.849L24.479,0l1.142,7.674-9.4,1.706c-7.161,1.361-7.325.8-6.554,5.712l2,12.213L3.69,28.448.564,7.674,0,3.976Z" transform="translate(791.234 3357.668) rotate(140)"/>
        <line id="Line_104-5" data-name="Line 104" x1="81" transform="translate(697.5 3355.5)" fill="none" stroke="#000" stroke-width="8"/>
      </g>
      <path id="Path_2547" data-name="Path 2547" d="M0,3.976l3.983-.849L24.479,0l1.142,7.674-9.4,1.706C40.7,23.622,74.3,21.916,95.648,3.127L100.774,9.1C76,31.3,37.572,32.709,9.666,15.092l2,12.213L3.69,28.448.564,7.674,0,3.976Z" transform="matrix(-0.891, -0.454, 0.454, -0.891, 644.827, 3828.559)"/>
      <path id="Path_2548" data-name="Path 2548" d="M0,3.976l3.983-.849L24.479,0l1.142,7.674-9.4,1.706C40.7,23.622,74.3,21.916,95.648,3.127L100.774,9.1C76,31.3,37.572,32.709,9.666,15.092l2,12.213L3.69,28.448.564,7.674,0,3.976Z" transform="matrix(0.643, -0.766, 0.766, 0.643, 606.229, 3987.638)"/>
      <g id="Group_239" data-name="Group 239" transform="translate(262.92 3468.653)">
        <rect id="Rectangle_142-7" data-name="Rectangle 142" width="47" height="26" rx="3" transform="translate(0.08 0.346)" fill="#efefef"/>
        <g id="Group_94-8" data-name="Group 94" transform="translate(0 0)">
          <path id="Path_1581-8" data-name="Path 1581" d="M30.766,22a8.766,8.766,0,1,0,8.766,8.766A8.766,8.766,0,0,0,30.766,22Zm0,15.779a7.013,7.013,0,1,1,7.013-7.013A7.013,7.013,0,0,1,30.766,37.779Z" transform="translate(-7.097 -17.617)" fill="#1c77c3"/>
          <path id="Path_1582-8" data-name="Path 1582" d="M31.63,28.507h1.753a.877.877,0,1,0,0-1.753h-.877v-.877a.877.877,0,1,0-1.753,0v1.038a2.623,2.623,0,0,0,.877,5.1.877.877,0,1,1,0,1.753H29.877a.877.877,0,1,0,0,1.753h.877V36.4a.877.877,0,0,0,1.753,0V35.358a2.623,2.623,0,0,0-.877-5.1.877.877,0,0,1,0-1.753Z" transform="translate(-7.961 -17.987)" fill="#1c77c3"/>
          <path id="Path_1583-8" data-name="Path 1583" d="M51.461,17H5.877A.877.877,0,0,0,5,17.877V42.422a.877.877,0,0,0,.877.877H51.461a.877.877,0,0,0,.877-.877V17.877A.877.877,0,0,0,51.461,17ZM45.395,41.545H11.943a6.14,6.14,0,0,0-5.19-5.19V23.943a6.14,6.14,0,0,0,5.19-5.19H45.395a6.14,6.14,0,0,0,5.19,5.19V36.356A6.14,6.14,0,0,0,45.395,41.545Zm5.19-22.792v3.418a4.4,4.4,0,0,1-3.418-3.418Zm-43.831,0h3.418a4.4,4.4,0,0,1-3.418,3.418Zm0,22.792V38.127a4.4,4.4,0,0,1,3.418,3.418Zm43.831,0H47.166a4.4,4.4,0,0,1,3.418-3.418Z" transform="translate(-5 -17)" fill="#1c77c3"/>
        </g>
      </g>
      <g id="Group_240" data-name="Group 240" transform="translate(267.203 3477.22)">
        <rect id="Rectangle_142-8" data-name="Rectangle 142" width="47" height="26" rx="3" transform="translate(0.797 0.78)" fill="#efefef"/>
        <g id="Group_94-9" data-name="Group 94" transform="translate(0 0)">
          <path id="Path_1581-9" data-name="Path 1581" d="M30.766,22a8.766,8.766,0,1,0,8.766,8.766A8.766,8.766,0,0,0,30.766,22Zm0,15.779a7.013,7.013,0,1,1,7.013-7.013A7.013,7.013,0,0,1,30.766,37.779Z" transform="translate(-7.097 -17.617)" fill="#1c77c3"/>
          <path id="Path_1582-9" data-name="Path 1582" d="M31.63,28.507h1.753a.877.877,0,1,0,0-1.753h-.877v-.877a.877.877,0,1,0-1.753,0v1.038a2.623,2.623,0,0,0,.877,5.1.877.877,0,1,1,0,1.753H29.877a.877.877,0,1,0,0,1.753h.877V36.4a.877.877,0,0,0,1.753,0V35.358a2.623,2.623,0,0,0-.877-5.1.877.877,0,0,1,0-1.753Z" transform="translate(-7.961 -17.987)" fill="#1c77c3"/>
          <path id="Path_1583-9" data-name="Path 1583" d="M51.461,17H5.877A.877.877,0,0,0,5,17.877V42.422a.877.877,0,0,0,.877.877H51.461a.877.877,0,0,0,.877-.877V17.877A.877.877,0,0,0,51.461,17ZM45.395,41.545H11.943a6.14,6.14,0,0,0-5.19-5.19V23.943a6.14,6.14,0,0,0,5.19-5.19H45.395a6.14,6.14,0,0,0,5.19,5.19V36.356A6.14,6.14,0,0,0,45.395,41.545Zm5.19-22.792v3.418a4.4,4.4,0,0,1-3.418-3.418Zm-43.831,0h3.418a4.4,4.4,0,0,1-3.418,3.418Zm0,22.792V38.127a4.4,4.4,0,0,1,3.418,3.418Zm43.831,0H47.166a4.4,4.4,0,0,1,3.418-3.418Z" transform="translate(-5 -17)" fill="#1c77c3"/>
        </g>
      </g>
      <g id="Group_241" data-name="Group 241" transform="translate(272.021 3487.391)">
        <rect id="Rectangle_142-9" data-name="Rectangle 142" width="47" height="26" rx="3" transform="translate(-0.021 0.609)" fill="#efefef"/>
        <g id="Group_94-10" data-name="Group 94" transform="translate(0 0)">
          <path id="Path_1581-10" data-name="Path 1581" d="M30.766,22a8.766,8.766,0,1,0,8.766,8.766A8.766,8.766,0,0,0,30.766,22Zm0,15.779a7.013,7.013,0,1,1,7.013-7.013A7.013,7.013,0,0,1,30.766,37.779Z" transform="translate(-7.097 -17.617)" fill="#1c77c3"/>
          <path id="Path_1582-10" data-name="Path 1582" d="M31.63,28.507h1.753a.877.877,0,1,0,0-1.753h-.877v-.877a.877.877,0,1,0-1.753,0v1.038a2.623,2.623,0,0,0,.877,5.1.877.877,0,1,1,0,1.753H29.877a.877.877,0,1,0,0,1.753h.877V36.4a.877.877,0,0,0,1.753,0V35.358a2.623,2.623,0,0,0-.877-5.1.877.877,0,0,1,0-1.753Z" transform="translate(-7.961 -17.987)" fill="#1c77c3"/>
          <path id="Path_1583-10" data-name="Path 1583" d="M51.461,17H5.877A.877.877,0,0,0,5,17.877V42.422a.877.877,0,0,0,.877.877H51.461a.877.877,0,0,0,.877-.877V17.877A.877.877,0,0,0,51.461,17ZM45.395,41.545H11.943a6.14,6.14,0,0,0-5.19-5.19V23.943a6.14,6.14,0,0,0,5.19-5.19H45.395a6.14,6.14,0,0,0,5.19,5.19V36.356A6.14,6.14,0,0,0,45.395,41.545Zm5.19-22.792v3.418a4.4,4.4,0,0,1-3.418-3.418Zm-43.831,0h3.418a4.4,4.4,0,0,1-3.418,3.418Zm0,22.792V38.127a4.4,4.4,0,0,1,3.418,3.418Zm43.831,0H47.166a4.4,4.4,0,0,1,3.418-3.418Z" transform="translate(-5 -17)" fill="#1c77c3"/>
        </g>
      </g>
      <g id="Group_242" data-name="Group 242" transform="translate(277.375 3496.493)">
        <rect id="Rectangle_142-10" data-name="Rectangle 142" width="46" height="26" rx="3" transform="translate(0.625 0.507)" fill="#efefef"/>
        <g id="Group_94-11" data-name="Group 94" transform="translate(0 0)">
          <path id="Path_1581-11" data-name="Path 1581" d="M30.766,22a8.766,8.766,0,1,0,8.766,8.766A8.766,8.766,0,0,0,30.766,22Zm0,15.779a7.013,7.013,0,1,1,7.013-7.013A7.013,7.013,0,0,1,30.766,37.779Z" transform="translate(-7.097 -17.617)" fill="#1c77c3"/>
          <path id="Path_1582-11" data-name="Path 1582" d="M31.63,28.507h1.753a.877.877,0,1,0,0-1.753h-.877v-.877a.877.877,0,1,0-1.753,0v1.038a2.623,2.623,0,0,0,.877,5.1.877.877,0,1,1,0,1.753H29.877a.877.877,0,1,0,0,1.753h.877V36.4a.877.877,0,0,0,1.753,0V35.358a2.623,2.623,0,0,0-.877-5.1.877.877,0,0,1,0-1.753Z" transform="translate(-7.961 -17.987)" fill="#1c77c3"/>
          <path id="Path_1583-11" data-name="Path 1583" d="M51.461,17H5.877A.877.877,0,0,0,5,17.877V42.422a.877.877,0,0,0,.877.877H51.461a.877.877,0,0,0,.877-.877V17.877A.877.877,0,0,0,51.461,17ZM45.395,41.545H11.943a6.14,6.14,0,0,0-5.19-5.19V23.943a6.14,6.14,0,0,0,5.19-5.19H45.395a6.14,6.14,0,0,0,5.19,5.19V36.356A6.14,6.14,0,0,0,45.395,41.545Zm5.19-22.792v3.418a4.4,4.4,0,0,1-3.418-3.418Zm-43.831,0h3.418a4.4,4.4,0,0,1-3.418,3.418Zm0,22.792V38.127a4.4,4.4,0,0,1,3.418,3.418Zm43.831,0H47.166a4.4,4.4,0,0,1,3.418-3.418Z" transform="translate(-5 -17)" fill="#1c77c3"/>
        </g>
      </g>
      <g id="Group_243" data-name="Group 243" transform="translate(283.265 3505.059)">
        <rect id="Rectangle_142-11" data-name="Rectangle 142" width="47" height="27" rx="3" transform="translate(0.735 -0.059)" fill="#efefef"/>
        <g id="Group_94-12" data-name="Group 94" transform="translate(0 0)">
          <path id="Path_1581-12" data-name="Path 1581" d="M30.766,22a8.766,8.766,0,1,0,8.766,8.766A8.766,8.766,0,0,0,30.766,22Zm0,15.779a7.013,7.013,0,1,1,7.013-7.013A7.013,7.013,0,0,1,30.766,37.779Z" transform="translate(-7.097 -17.617)" fill="#1c77c3"/>
          <path id="Path_1582-12" data-name="Path 1582" d="M31.63,28.507h1.753a.877.877,0,1,0,0-1.753h-.877v-.877a.877.877,0,1,0-1.753,0v1.038a2.623,2.623,0,0,0,.877,5.1.877.877,0,1,1,0,1.753H29.877a.877.877,0,1,0,0,1.753h.877V36.4a.877.877,0,0,0,1.753,0V35.358a2.623,2.623,0,0,0-.877-5.1.877.877,0,0,1,0-1.753Z" transform="translate(-7.961 -17.987)" fill="#1c77c3"/>
          <path id="Path_1583-12" data-name="Path 1583" d="M51.461,17H5.877A.877.877,0,0,0,5,17.877V42.422a.877.877,0,0,0,.877.877H51.461a.877.877,0,0,0,.877-.877V17.877A.877.877,0,0,0,51.461,17ZM45.395,41.545H11.943a6.14,6.14,0,0,0-5.19-5.19V23.943a6.14,6.14,0,0,0,5.19-5.19H45.395a6.14,6.14,0,0,0,5.19,5.19V36.356A6.14,6.14,0,0,0,45.395,41.545Zm5.19-22.792v3.418a4.4,4.4,0,0,1-3.418-3.418Zm-43.831,0h3.418a4.4,4.4,0,0,1-3.418,3.418Zm0,22.792V38.127a4.4,4.4,0,0,1,3.418,3.418Zm43.831,0H47.166a4.4,4.4,0,0,1,3.418-3.418Z" transform="translate(-5 -17)" fill="#1c77c3"/>
        </g>
      </g>
      <g id="Group_244" data-name="Group 244" transform="translate(455.645 3459.064)">
        <path id="Path_1579" data-name="Path 1579" d="M1.23,24.194H79.487L40.359,1.85Zm27.394-7.266,11.735-6.721,11.735,6.721Z" transform="translate(-1.23 -1.85)" fill="#7d0404"/>
        <rect id="Rectangle_135" data-name="Rectangle 135" width="72.662" height="7.266" transform="translate(2.798 25.977)" fill="#7d0404"/>
        <rect id="Rectangle_136" data-name="Rectangle 136" width="72.662" height="7.266" transform="translate(2.798 65.941)" fill="#7d0404"/>
        <rect id="Rectangle_137" data-name="Rectangle 137" width="7.266" height="25.432" transform="translate(35.496 36.876)" fill="#7d0404"/>
        <rect id="Rectangle_138" data-name="Rectangle 138" width="7.266" height="25.432" transform="translate(20.963 36.876)" fill="#7d0404"/>
        <rect id="Rectangle_139" data-name="Rectangle 139" width="7.266" height="25.432" transform="translate(6.431 36.876)" fill="#7d0404"/>
        <rect id="Rectangle_140" data-name="Rectangle 140" width="7.266" height="25.432" transform="translate(64.561 36.876)" fill="#7d0404"/>
        <rect id="Rectangle_141" data-name="Rectangle 141" width="7.266" height="25.432" transform="translate(50.028 36.876)" fill="#7d0404"/>
      </g>
      <g id="Group_245" data-name="Group 245" transform="translate(597.103 3595.572)">
        <path id="Path_1579-2" data-name="Path 1579" d="M1.23,24.194H79.487L40.359,1.85Zm27.394-7.266,11.735-6.721,11.735,6.721Z" transform="translate(-1.23 -1.85)" fill="#7d0404"/>
        <rect id="Rectangle_135-2" data-name="Rectangle 135" width="72.662" height="7.266" transform="translate(2.798 25.977)" fill="#7d0404"/>
        <rect id="Rectangle_136-2" data-name="Rectangle 136" width="72.662" height="7.266" transform="translate(2.798 65.941)" fill="#7d0404"/>
        <rect id="Rectangle_137-2" data-name="Rectangle 137" width="7.266" height="25.432" transform="translate(35.496 36.876)" fill="#7d0404"/>
        <rect id="Rectangle_138-2" data-name="Rectangle 138" width="7.266" height="25.432" transform="translate(20.963 36.876)" fill="#7d0404"/>
        <rect id="Rectangle_139-2" data-name="Rectangle 139" width="7.266" height="25.432" transform="translate(6.431 36.876)" fill="#7d0404"/>
        <rect id="Rectangle_140-2" data-name="Rectangle 140" width="7.266" height="25.432" transform="translate(64.561 36.876)" fill="#7d0404"/>
        <rect id="Rectangle_141-2" data-name="Rectangle 141" width="7.266" height="25.432" transform="translate(50.028 36.876)" fill="#7d0404"/>
      </g>
      <g id="Group_277" data-name="Group 277" transform="translate(209.46 3730.64)">
        <path id="Path_1579-3" data-name="Path 1579" d="M1.23,24.194H79.487L40.359,1.85Zm27.394-7.266,11.735-6.721,11.735,6.721Z" transform="translate(-1.23 -1.85)" fill="#7d0404"/>
        <rect id="Rectangle_135-3" data-name="Rectangle 135" width="72.662" height="7.266" transform="translate(2.798 25.977)" fill="#7d0404"/>
        <rect id="Rectangle_136-3" data-name="Rectangle 136" width="72.662" height="7.266" transform="translate(2.798 65.941)" fill="#7d0404"/>
        <rect id="Rectangle_137-3" data-name="Rectangle 137" width="7.266" height="25.432" transform="translate(35.496 36.876)" fill="#7d0404"/>
        <rect id="Rectangle_138-3" data-name="Rectangle 138" width="7.266" height="25.432" transform="translate(20.963 36.876)" fill="#7d0404"/>
        <rect id="Rectangle_139-3" data-name="Rectangle 139" width="7.266" height="25.432" transform="translate(6.431 36.876)" fill="#7d0404"/>
        <rect id="Rectangle_140-3" data-name="Rectangle 140" width="7.266" height="25.432" transform="translate(64.561 36.876)" fill="#7d0404"/>
        <rect id="Rectangle_141-3" data-name="Rectangle 141" width="7.266" height="25.432" transform="translate(50.028 36.876)" fill="#7d0404"/>
      </g>
      <g id="Group_226" data-name="Group 226" transform="translate(632.09 3828.278)">
        <path id="Path_1579-4" data-name="Path 1579" d="M1.23,24.194H79.487L40.359,1.85Zm27.394-7.266,11.735-6.721,11.735,6.721Z" transform="translate(-1.23 -1.85)" fill="#7d0404"/>
        <rect id="Rectangle_135-4" data-name="Rectangle 135" width="72.662" height="7.266" transform="translate(2.798 25.977)" fill="#7d0404"/>
        <rect id="Rectangle_136-4" data-name="Rectangle 136" width="72.662" height="7.266" transform="translate(2.798 65.941)" fill="#7d0404"/>
        <rect id="Rectangle_137-4" data-name="Rectangle 137" width="7.266" height="25.432" transform="translate(35.496 36.876)" fill="#7d0404"/>
        <rect id="Rectangle_138-4" data-name="Rectangle 138" width="7.266" height="25.432" transform="translate(20.963 36.876)" fill="#7d0404"/>
        <rect id="Rectangle_139-4" data-name="Rectangle 139" width="7.266" height="25.432" transform="translate(6.431 36.876)" fill="#7d0404"/>
        <rect id="Rectangle_140-4" data-name="Rectangle 140" width="7.266" height="25.432" transform="translate(64.561 36.876)" fill="#7d0404"/>
        <rect id="Rectangle_141-4" data-name="Rectangle 141" width="7.266" height="25.432" transform="translate(50.028 36.876)" fill="#7d0404"/>
      </g>
      <g id="Group_246" data-name="Group 246" transform="translate(267.808 3961.619)">
        <path id="Path_1579-5" data-name="Path 1579" d="M1.23,24.194H79.487L40.359,1.85Zm27.394-7.266,11.735-6.721,11.735,6.721Z" transform="translate(-1.23 -1.85)" fill="#7d0404"/>
        <rect id="Rectangle_135-5" data-name="Rectangle 135" width="72.662" height="7.266" transform="translate(2.798 25.977)" fill="#7d0404"/>
        <rect id="Rectangle_136-5" data-name="Rectangle 136" width="72.662" height="7.266" transform="translate(2.798 65.941)" fill="#7d0404"/>
        <rect id="Rectangle_137-5" data-name="Rectangle 137" width="7.266" height="25.432" transform="translate(35.496 36.876)" fill="#7d0404"/>
        <rect id="Rectangle_138-5" data-name="Rectangle 138" width="7.266" height="25.432" transform="translate(20.963 36.876)" fill="#7d0404"/>
        <rect id="Rectangle_139-5" data-name="Rectangle 139" width="7.266" height="25.432" transform="translate(6.431 36.876)" fill="#7d0404"/>
        <rect id="Rectangle_140-5" data-name="Rectangle 140" width="7.266" height="25.432" transform="translate(64.561 36.876)" fill="#7d0404"/>
        <rect id="Rectangle_141-5" data-name="Rectangle 141" width="7.266" height="25.432" transform="translate(50.028 36.876)" fill="#7d0404"/>
      </g>
      <path id="Path_2559" data-name="Path 2559" d="M0,14.736H19.58L15.16,19.156l4.421,4.421L31.369,11.789,19.58,0,15.16,4.421,19.58,8.841H0Z" transform="translate(482.812 3448.733) rotate(-90)" fill="#7d0407"/>
      <path id="Path_2552" data-name="Path 2552" d="M0,14.736H19.58L15.16,19.156l4.421,4.421L31.369,11.789,19.58,0,15.16,4.421,19.58,8.841H0Z" transform="translate(647.639 3676.72) rotate(90)" fill="#7d0407"/>
      <g id="Group_247" data-name="Group 247" transform="translate(658.594 3470.653)">
        <rect id="Rectangle_142-12" data-name="Rectangle 142" width="47" height="26" rx="3" transform="translate(0.406 0.346)" fill="#efefef"/>
        <g id="Group_94-13" data-name="Group 94" transform="translate(0 0)">
          <path id="Path_1581-13" data-name="Path 1581" d="M30.766,22a8.766,8.766,0,1,0,8.766,8.766A8.766,8.766,0,0,0,30.766,22Zm0,15.779a7.013,7.013,0,1,1,7.013-7.013A7.013,7.013,0,0,1,30.766,37.779Z" transform="translate(-7.097 -17.617)" fill="#1c77c3"/>
          <path id="Path_1582-13" data-name="Path 1582" d="M31.63,28.507h1.753a.877.877,0,1,0,0-1.753h-.877v-.877a.877.877,0,1,0-1.753,0v1.038a2.623,2.623,0,0,0,.877,5.1.877.877,0,1,1,0,1.753H29.877a.877.877,0,1,0,0,1.753h.877V36.4a.877.877,0,0,0,1.753,0V35.358a2.623,2.623,0,0,0-.877-5.1.877.877,0,0,1,0-1.753Z" transform="translate(-7.961 -17.987)" fill="#1c77c3"/>
          <path id="Path_1583-13" data-name="Path 1583" d="M51.461,17H5.877A.877.877,0,0,0,5,17.877V42.422a.877.877,0,0,0,.877.877H51.461a.877.877,0,0,0,.877-.877V17.877A.877.877,0,0,0,51.461,17ZM45.395,41.545H11.943a6.14,6.14,0,0,0-5.19-5.19V23.943a6.14,6.14,0,0,0,5.19-5.19H45.395a6.14,6.14,0,0,0,5.19,5.19V36.356A6.14,6.14,0,0,0,45.395,41.545Zm5.19-22.792v3.418a4.4,4.4,0,0,1-3.418-3.418Zm-43.831,0h3.418a4.4,4.4,0,0,1-3.418,3.418Zm0,22.792V38.127a4.4,4.4,0,0,1,3.418,3.418Zm43.831,0H47.166a4.4,4.4,0,0,1,3.418-3.418Z" transform="translate(-5 -17)" fill="#1c77c3"/>
        </g>
      </g>
      <g id="Group_248" data-name="Group 248" transform="translate(354.622 3618.366)">
        <rect id="Rectangle_142-13" data-name="Rectangle 142" width="47" height="26" rx="3" transform="translate(0.378 0.633)" fill="#efefef"/>
        <g id="Group_94-14" data-name="Group 94" transform="translate(0 0)">
          <path id="Path_1581-14" data-name="Path 1581" d="M30.766,22a8.766,8.766,0,1,0,8.766,8.766A8.766,8.766,0,0,0,30.766,22Zm0,15.779a7.013,7.013,0,1,1,7.013-7.013A7.013,7.013,0,0,1,30.766,37.779Z" transform="translate(-7.097 -17.617)" fill="#1c77c3"/>
          <path id="Path_1582-14" data-name="Path 1582" d="M31.63,28.507h1.753a.877.877,0,1,0,0-1.753h-.877v-.877a.877.877,0,1,0-1.753,0v1.038a2.623,2.623,0,0,0,.877,5.1.877.877,0,1,1,0,1.753H29.877a.877.877,0,1,0,0,1.753h.877V36.4a.877.877,0,0,0,1.753,0V35.358a2.623,2.623,0,0,0-.877-5.1.877.877,0,0,1,0-1.753Z" transform="translate(-7.961 -17.987)" fill="#1c77c3"/>
          <path id="Path_1583-14" data-name="Path 1583" d="M51.461,17H5.877A.877.877,0,0,0,5,17.877V42.422a.877.877,0,0,0,.877.877H51.461a.877.877,0,0,0,.877-.877V17.877A.877.877,0,0,0,51.461,17ZM45.395,41.545H11.943a6.14,6.14,0,0,0-5.19-5.19V23.943a6.14,6.14,0,0,0,5.19-5.19H45.395a6.14,6.14,0,0,0,5.19,5.19V36.356A6.14,6.14,0,0,0,45.395,41.545Zm5.19-22.792v3.418a4.4,4.4,0,0,1-3.418-3.418Zm-43.831,0h3.418a4.4,4.4,0,0,1-3.418,3.418Zm0,22.792V38.127a4.4,4.4,0,0,1,3.418,3.418Zm43.831,0H47.166a4.4,4.4,0,0,1,3.418-3.418Z" transform="translate(-5 -17)" fill="#1c77c3"/>
        </g>
      </g>
      <g id="Group_249" data-name="Group 249" transform="translate(411.919 3750.992)">
        <rect id="Rectangle_142-14" data-name="Rectangle 142" width="47" height="26" rx="3" transform="translate(0.081 0.008)" fill="#efefef"/>
        <g id="Group_94-15" data-name="Group 94" transform="translate(0 0)">
          <path id="Path_1581-15" data-name="Path 1581" d="M30.766,22a8.766,8.766,0,1,0,8.766,8.766A8.766,8.766,0,0,0,30.766,22Zm0,15.779a7.013,7.013,0,1,1,7.013-7.013A7.013,7.013,0,0,1,30.766,37.779Z" transform="translate(-7.097 -17.617)" fill="#1c77c3"/>
          <path id="Path_1582-15" data-name="Path 1582" d="M31.63,28.507h1.753a.877.877,0,1,0,0-1.753h-.877v-.877a.877.877,0,1,0-1.753,0v1.038a2.623,2.623,0,0,0,.877,5.1.877.877,0,1,1,0,1.753H29.877a.877.877,0,1,0,0,1.753h.877V36.4a.877.877,0,0,0,1.753,0V35.358a2.623,2.623,0,0,0-.877-5.1.877.877,0,0,1,0-1.753Z" transform="translate(-7.961 -17.987)" fill="#1c77c3"/>
          <path id="Path_1583-15" data-name="Path 1583" d="M51.461,17H5.877A.877.877,0,0,0,5,17.877V42.422a.877.877,0,0,0,.877.877H51.461a.877.877,0,0,0,.877-.877V17.877A.877.877,0,0,0,51.461,17ZM45.395,41.545H11.943a6.14,6.14,0,0,0-5.19-5.19V23.943a6.14,6.14,0,0,0,5.19-5.19H45.395a6.14,6.14,0,0,0,5.19,5.19V36.356A6.14,6.14,0,0,0,45.395,41.545Zm5.19-22.792v3.418a4.4,4.4,0,0,1-3.418-3.418Zm-43.831,0h3.418a4.4,4.4,0,0,1-3.418,3.418Zm0,22.792V38.127a4.4,4.4,0,0,1,3.418,3.418Zm43.831,0H47.166a4.4,4.4,0,0,1,3.418-3.418Z" transform="translate(-5 -17)" fill="#1c77c3"/>
        </g>
      </g>
      <g id="Group_227" data-name="Group 227" transform="translate(475.385 3971.493)">
        <rect id="Rectangle_142-15" data-name="Rectangle 142" width="47" height="26" rx="3" transform="translate(0.615 0.507)" fill="#efefef"/>
        <g id="Group_94-16" data-name="Group 94" transform="translate(0 0)">
          <path id="Path_1581-16" data-name="Path 1581" d="M30.766,22a8.766,8.766,0,1,0,8.766,8.766A8.766,8.766,0,0,0,30.766,22Zm0,15.779a7.013,7.013,0,1,1,7.013-7.013A7.013,7.013,0,0,1,30.766,37.779Z" transform="translate(-7.097 -17.617)" fill="#1c77c3"/>
          <path id="Path_1582-16" data-name="Path 1582" d="M31.63,28.507h1.753a.877.877,0,1,0,0-1.753h-.877v-.877a.877.877,0,1,0-1.753,0v1.038a2.623,2.623,0,0,0,.877,5.1.877.877,0,1,1,0,1.753H29.877a.877.877,0,1,0,0,1.753h.877V36.4a.877.877,0,0,0,1.753,0V35.358a2.623,2.623,0,0,0-.877-5.1.877.877,0,0,1,0-1.753Z" transform="translate(-7.961 -17.987)" fill="#1c77c3"/>
          <path id="Path_1583-16" data-name="Path 1583" d="M51.461,17H5.877A.877.877,0,0,0,5,17.877V42.422a.877.877,0,0,0,.877.877H51.461a.877.877,0,0,0,.877-.877V17.877A.877.877,0,0,0,51.461,17ZM45.395,41.545H11.943a6.14,6.14,0,0,0-5.19-5.19V23.943a6.14,6.14,0,0,0,5.19-5.19H45.395a6.14,6.14,0,0,0,5.19,5.19V36.356A6.14,6.14,0,0,0,45.395,41.545Zm5.19-22.792v3.418a4.4,4.4,0,0,1-3.418-3.418Zm-43.831,0h3.418a4.4,4.4,0,0,1-3.418,3.418Zm0,22.792V38.127a4.4,4.4,0,0,1,3.418,3.418Zm43.831,0H47.166a4.4,4.4,0,0,1,3.418-3.418Z" transform="translate(-5 -17)" fill="#1c77c3"/>
        </g>
      </g>
      <g id="Group_250" data-name="Group 250" transform="translate(386.119 4099.138)">
        <rect id="Rectangle_142-16" data-name="Rectangle 142" width="48" height="26" rx="3" transform="translate(-0.119 -0.138)" fill="#efefef"/>
        <g id="Group_94-17" data-name="Group 94" transform="translate(0 0)">
          <path id="Path_1581-17" data-name="Path 1581" d="M30.766,22a8.766,8.766,0,1,0,8.766,8.766A8.766,8.766,0,0,0,30.766,22Zm0,15.779a7.013,7.013,0,1,1,7.013-7.013A7.013,7.013,0,0,1,30.766,37.779Z" transform="translate(-7.097 -17.617)" fill="#1c77c3"/>
          <path id="Path_1582-17" data-name="Path 1582" d="M31.63,28.507h1.753a.877.877,0,1,0,0-1.753h-.877v-.877a.877.877,0,1,0-1.753,0v1.038a2.623,2.623,0,0,0,.877,5.1.877.877,0,1,1,0,1.753H29.877a.877.877,0,1,0,0,1.753h.877V36.4a.877.877,0,0,0,1.753,0V35.358a2.623,2.623,0,0,0-.877-5.1.877.877,0,0,1,0-1.753Z" transform="translate(-7.961 -17.987)" fill="#1c77c3"/>
          <path id="Path_1583-17" data-name="Path 1583" d="M51.461,17H5.877A.877.877,0,0,0,5,17.877V42.422a.877.877,0,0,0,.877.877H51.461a.877.877,0,0,0,.877-.877V17.877A.877.877,0,0,0,51.461,17ZM45.395,41.545H11.943a6.14,6.14,0,0,0-5.19-5.19V23.943a6.14,6.14,0,0,0,5.19-5.19H45.395a6.14,6.14,0,0,0,5.19,5.19V36.356A6.14,6.14,0,0,0,45.395,41.545Zm5.19-22.792v3.418a4.4,4.4,0,0,1-3.418-3.418Zm-43.831,0h3.418a4.4,4.4,0,0,1-3.418,3.418Zm0,22.792V38.127a4.4,4.4,0,0,1,3.418,3.418Zm43.831,0H47.166a4.4,4.4,0,0,1,3.418-3.418Z" transform="translate(-5 -17)" fill="#1c77c3"/>
        </g>
      </g>
      <g id="Group_278" data-name="Group 278" transform="translate(476 3375.648)">
        <rect id="Rectangle_142-17" data-name="Rectangle 142" width="46" height="26" rx="3" transform="translate(1.172 0.351)" fill="#efefef"/>
        <g id="Group_94-18" data-name="Group 94" transform="translate(0 0)">
          <path id="Path_1581-18" data-name="Path 1581" d="M30.766,22a8.766,8.766,0,1,0,8.766,8.766A8.766,8.766,0,0,0,30.766,22Zm0,15.779a7.013,7.013,0,1,1,7.013-7.013A7.013,7.013,0,0,1,30.766,37.779Z" transform="translate(-7.097 -17.617)" fill="#7d0404"/>
          <path id="Path_1582-18" data-name="Path 1582" d="M31.63,28.507h1.753a.877.877,0,1,0,0-1.753h-.877v-.877a.877.877,0,1,0-1.753,0v1.038a2.623,2.623,0,0,0,.877,5.1.877.877,0,1,1,0,1.753H29.877a.877.877,0,1,0,0,1.753h.877V36.4a.877.877,0,0,0,1.753,0V35.358a2.623,2.623,0,0,0-.877-5.1.877.877,0,0,1,0-1.753Z" transform="translate(-7.961 -17.987)" fill="#7d0404"/>
          <path id="Path_1583-18" data-name="Path 1583" d="M51.461,17H5.877A.877.877,0,0,0,5,17.877V42.422a.877.877,0,0,0,.877.877H51.461a.877.877,0,0,0,.877-.877V17.877A.877.877,0,0,0,51.461,17ZM45.395,41.545H11.943a6.14,6.14,0,0,0-5.19-5.19V23.943a6.14,6.14,0,0,0,5.19-5.19H45.395a6.14,6.14,0,0,0,5.19,5.19V36.356A6.14,6.14,0,0,0,45.395,41.545Zm5.19-22.792v3.418a4.4,4.4,0,0,1-3.418-3.418Zm-43.831,0h3.418a4.4,4.4,0,0,1-3.418,3.418Zm0,22.792V38.127a4.4,4.4,0,0,1,3.418,3.418Zm43.831,0H47.166a4.4,4.4,0,0,1,3.418-3.418Z" transform="translate(-5 -17)" fill="#7d0404"/>
        </g>
      </g>
      <g id="Group_228" data-name="Group 228" transform="translate(659.624 3743.805) rotate(180)">
        <rect id="Rectangle_142-18" data-name="Rectangle 142" width="46.378" height="26.037" rx="3" transform="translate(0.871 0.44)" fill="#efefef"/>
        <g id="Group_94-19" data-name="Group 94" transform="translate(0 0)">
          <path id="Path_1581-19" data-name="Path 1581" d="M8.766,0a8.766,8.766,0,1,0,8.766,8.766A8.766,8.766,0,0,0,8.766,0Zm0,15.779a7.013,7.013,0,1,1,7.013-7.013,7.013,7.013,0,0,1-7.013,7.013Z" transform="translate(14.903 4.383)" fill="#7d0404"/>
          <path id="Path_1582-19" data-name="Path 1582" d="M2.63,3.506H4.383a.877.877,0,1,0,0-1.753H3.507V.877a.877.877,0,1,0-1.753,0V1.915a2.623,2.623,0,0,0,.877,5.1.877.877,0,1,1,0,1.753H.877a.877.877,0,1,0,0,1.753h.877V11.4a.877.877,0,1,0,1.753,0V10.358a2.623,2.623,0,0,0-.877-5.1.877.877,0,0,1,0-1.753Z" transform="translate(21.039 7.013)" fill="#7d0404"/>
          <path id="Path_1583-19" data-name="Path 1583" d="M46.461,0H.877A.877.877,0,0,0,0,.877V25.422a.877.877,0,0,0,.877.877H46.461a.877.877,0,0,0,.877-.877V.877A.877.877,0,0,0,46.461,0ZM40.395,24.545H6.943a6.14,6.14,0,0,0-5.19-5.19V6.943a6.14,6.14,0,0,0,5.19-5.19H40.395a6.14,6.14,0,0,0,5.19,5.19V19.356A6.14,6.14,0,0,0,40.395,24.545Zm5.19-22.792V5.172a4.4,4.4,0,0,1-3.418-3.418Zm-43.831,0H5.172A4.4,4.4,0,0,1,1.753,5.172Zm0,22.792V21.127a4.4,4.4,0,0,1,3.418,3.418Zm43.831,0H42.166a4.4,4.4,0,0,1,3.418-3.418Z" fill="#7d0404"/>
        </g>
      </g>
      <g id="Group_251" data-name="Group 251" transform="translate(721.769 3470.653)">
        <rect id="Rectangle_142-19" data-name="Rectangle 142" width="47" height="26" rx="3" transform="translate(0.231 0.346)" fill="#efefef"/>
        <g id="Group_94-20" data-name="Group 94" transform="translate(0 0)">
          <path id="Path_1581-20" data-name="Path 1581" d="M30.766,22a8.766,8.766,0,1,0,8.766,8.766A8.766,8.766,0,0,0,30.766,22Zm0,15.779a7.013,7.013,0,1,1,7.013-7.013A7.013,7.013,0,0,1,30.766,37.779Z" transform="translate(-7.097 -17.617)" fill="#1c77c3"/>
          <path id="Path_1582-20" data-name="Path 1582" d="M31.63,28.507h1.753a.877.877,0,1,0,0-1.753h-.877v-.877a.877.877,0,1,0-1.753,0v1.038a2.623,2.623,0,0,0,.877,5.1.877.877,0,1,1,0,1.753H29.877a.877.877,0,1,0,0,1.753h.877V36.4a.877.877,0,0,0,1.753,0V35.358a2.623,2.623,0,0,0-.877-5.1.877.877,0,0,1,0-1.753Z" transform="translate(-7.961 -17.987)" fill="#1c77c3"/>
          <path id="Path_1583-20" data-name="Path 1583" d="M51.461,17H5.877A.877.877,0,0,0,5,17.877V42.422a.877.877,0,0,0,.877.877H51.461a.877.877,0,0,0,.877-.877V17.877A.877.877,0,0,0,51.461,17ZM45.395,41.545H11.943a6.14,6.14,0,0,0-5.19-5.19V23.943a6.14,6.14,0,0,0,5.19-5.19H45.395a6.14,6.14,0,0,0,5.19,5.19V36.356A6.14,6.14,0,0,0,45.395,41.545Zm5.19-22.792v3.418a4.4,4.4,0,0,1-3.418-3.418Zm-43.831,0h3.418a4.4,4.4,0,0,1-3.418,3.418Zm0,22.792V38.127a4.4,4.4,0,0,1,3.418,3.418Zm43.831,0H47.166a4.4,4.4,0,0,1,3.418-3.418Z" transform="translate(-5 -17)" fill="#1c77c3"/>
        </g>
      </g>
      <g id="Group_252" data-name="Group 252" transform="translate(417.796 3618.366)">
        <rect id="Rectangle_142-20" data-name="Rectangle 142" width="47" height="26" rx="3" transform="translate(0.204 0.633)" fill="#efefef"/>
        <g id="Group_94-21" data-name="Group 94" transform="translate(0 0)">
          <path id="Path_1581-21" data-name="Path 1581" d="M30.766,22a8.766,8.766,0,1,0,8.766,8.766A8.766,8.766,0,0,0,30.766,22Zm0,15.779a7.013,7.013,0,1,1,7.013-7.013A7.013,7.013,0,0,1,30.766,37.779Z" transform="translate(-7.097 -17.617)" fill="#1c77c3"/>
          <path id="Path_1582-21" data-name="Path 1582" d="M31.63,28.507h1.753a.877.877,0,1,0,0-1.753h-.877v-.877a.877.877,0,1,0-1.753,0v1.038a2.623,2.623,0,0,0,.877,5.1.877.877,0,1,1,0,1.753H29.877a.877.877,0,1,0,0,1.753h.877V36.4a.877.877,0,0,0,1.753,0V35.358a2.623,2.623,0,0,0-.877-5.1.877.877,0,0,1,0-1.753Z" transform="translate(-7.961 -17.987)" fill="#1c77c3"/>
          <path id="Path_1583-21" data-name="Path 1583" d="M51.461,17H5.877A.877.877,0,0,0,5,17.877V42.422a.877.877,0,0,0,.877.877H51.461a.877.877,0,0,0,.877-.877V17.877A.877.877,0,0,0,51.461,17ZM45.395,41.545H11.943a6.14,6.14,0,0,0-5.19-5.19V23.943a6.14,6.14,0,0,0,5.19-5.19H45.395a6.14,6.14,0,0,0,5.19,5.19V36.356A6.14,6.14,0,0,0,45.395,41.545Zm5.19-22.792v3.418a4.4,4.4,0,0,1-3.418-3.418Zm-43.831,0h3.418a4.4,4.4,0,0,1-3.418,3.418Zm0,22.792V38.127a4.4,4.4,0,0,1,3.418,3.418Zm43.831,0H47.166a4.4,4.4,0,0,1,3.418-3.418Z" transform="translate(-5 -17)" fill="#1c77c3"/>
        </g>
      </g>
      <g id="Group_229" data-name="Group 229" transform="translate(475.094 3750.992)">
        <rect id="Rectangle_142-21" data-name="Rectangle 142" width="46" height="26" rx="3" transform="translate(0.906 0.008)" fill="#efefef"/>
        <g id="Group_94-22" data-name="Group 94" transform="translate(0 0)">
          <path id="Path_1581-22" data-name="Path 1581" d="M30.766,22a8.766,8.766,0,1,0,8.766,8.766A8.766,8.766,0,0,0,30.766,22Zm0,15.779a7.013,7.013,0,1,1,7.013-7.013A7.013,7.013,0,0,1,30.766,37.779Z" transform="translate(-7.097 -17.617)" fill="#1c77c3"/>
          <path id="Path_1582-22" data-name="Path 1582" d="M31.63,28.507h1.753a.877.877,0,1,0,0-1.753h-.877v-.877a.877.877,0,1,0-1.753,0v1.038a2.623,2.623,0,0,0,.877,5.1.877.877,0,1,1,0,1.753H29.877a.877.877,0,1,0,0,1.753h.877V36.4a.877.877,0,0,0,1.753,0V35.358a2.623,2.623,0,0,0-.877-5.1.877.877,0,0,1,0-1.753Z" transform="translate(-7.961 -17.987)" fill="#1c77c3"/>
          <path id="Path_1583-22" data-name="Path 1583" d="M51.461,17H5.877A.877.877,0,0,0,5,17.877V42.422a.877.877,0,0,0,.877.877H51.461a.877.877,0,0,0,.877-.877V17.877A.877.877,0,0,0,51.461,17ZM45.395,41.545H11.943a6.14,6.14,0,0,0-5.19-5.19V23.943a6.14,6.14,0,0,0,5.19-5.19H45.395a6.14,6.14,0,0,0,5.19,5.19V36.356A6.14,6.14,0,0,0,45.395,41.545Zm5.19-22.792v3.418a4.4,4.4,0,0,1-3.418-3.418Zm-43.831,0h3.418a4.4,4.4,0,0,1-3.418,3.418Zm0,22.792V38.127a4.4,4.4,0,0,1,3.418,3.418Zm43.831,0H47.166a4.4,4.4,0,0,1,3.418-3.418Z" transform="translate(-5 -17)" fill="#1c77c3"/>
        </g>
      </g>
      <g id="Group_230" data-name="Group 230" transform="translate(538.559 3971.493)">
        <rect id="Rectangle_142-22" data-name="Rectangle 142" width="46" height="26" rx="3" transform="translate(0.441 0.507)" fill="#efefef"/>
        <g id="Group_94-23" data-name="Group 94" transform="translate(0 0)">
          <path id="Path_1581-23" data-name="Path 1581" d="M30.766,22a8.766,8.766,0,1,0,8.766,8.766A8.766,8.766,0,0,0,30.766,22Zm0,15.779a7.013,7.013,0,1,1,7.013-7.013A7.013,7.013,0,0,1,30.766,37.779Z" transform="translate(-7.097 -17.617)" fill="#1c77c3"/>
          <path id="Path_1582-23" data-name="Path 1582" d="M31.63,28.507h1.753a.877.877,0,1,0,0-1.753h-.877v-.877a.877.877,0,1,0-1.753,0v1.038a2.623,2.623,0,0,0,.877,5.1.877.877,0,1,1,0,1.753H29.877a.877.877,0,1,0,0,1.753h.877V36.4a.877.877,0,0,0,1.753,0V35.358a2.623,2.623,0,0,0-.877-5.1.877.877,0,0,1,0-1.753Z" transform="translate(-7.961 -17.987)" fill="#1c77c3"/>
          <path id="Path_1583-23" data-name="Path 1583" d="M51.461,17H5.877A.877.877,0,0,0,5,17.877V42.422a.877.877,0,0,0,.877.877H51.461a.877.877,0,0,0,.877-.877V17.877A.877.877,0,0,0,51.461,17ZM45.395,41.545H11.943a6.14,6.14,0,0,0-5.19-5.19V23.943a6.14,6.14,0,0,0,5.19-5.19H45.395a6.14,6.14,0,0,0,5.19,5.19V36.356A6.14,6.14,0,0,0,45.395,41.545Zm5.19-22.792v3.418a4.4,4.4,0,0,1-3.418-3.418Zm-43.831,0h3.418a4.4,4.4,0,0,1-3.418,3.418Zm0,22.792V38.127a4.4,4.4,0,0,1,3.418,3.418Zm43.831,0H47.166a4.4,4.4,0,0,1,3.418-3.418Z" transform="translate(-5 -17)" fill="#1c77c3"/>
        </g>
      </g>
      <g id="Group_253" data-name="Group 253" transform="translate(449.293 4099.138)">
        <rect id="Rectangle_142-23" data-name="Rectangle 142" width="46" height="26" rx="3" transform="translate(0.707 -0.138)" fill="#efefef"/>
        <g id="Group_94-24" data-name="Group 94" transform="translate(0 0)">
          <path id="Path_1581-24" data-name="Path 1581" d="M30.766,22a8.766,8.766,0,1,0,8.766,8.766A8.766,8.766,0,0,0,30.766,22Zm0,15.779a7.013,7.013,0,1,1,7.013-7.013A7.013,7.013,0,0,1,30.766,37.779Z" transform="translate(-7.097 -17.617)" fill="#1c77c3"/>
          <path id="Path_1582-24" data-name="Path 1582" d="M31.63,28.507h1.753a.877.877,0,1,0,0-1.753h-.877v-.877a.877.877,0,1,0-1.753,0v1.038a2.623,2.623,0,0,0,.877,5.1.877.877,0,1,1,0,1.753H29.877a.877.877,0,1,0,0,1.753h.877V36.4a.877.877,0,0,0,1.753,0V35.358a2.623,2.623,0,0,0-.877-5.1.877.877,0,0,1,0-1.753Z" transform="translate(-7.961 -17.987)" fill="#1c77c3"/>
          <path id="Path_1583-24" data-name="Path 1583" d="M51.461,17H5.877A.877.877,0,0,0,5,17.877V42.422a.877.877,0,0,0,.877.877H51.461a.877.877,0,0,0,.877-.877V17.877A.877.877,0,0,0,51.461,17ZM45.395,41.545H11.943a6.14,6.14,0,0,0-5.19-5.19V23.943a6.14,6.14,0,0,0,5.19-5.19H45.395a6.14,6.14,0,0,0,5.19,5.19V36.356A6.14,6.14,0,0,0,45.395,41.545Zm5.19-22.792v3.418a4.4,4.4,0,0,1-3.418-3.418Zm-43.831,0h3.418a4.4,4.4,0,0,1-3.418,3.418Zm0,22.792V38.127a4.4,4.4,0,0,1,3.418,3.418Zm43.831,0H47.166a4.4,4.4,0,0,1,3.418-3.418Z" transform="translate(-5 -17)" fill="#1c77c3"/>
        </g>
      </g>
      <g id="Group_254" data-name="Group 254" transform="translate(726.052 3479.219)">
        <rect id="Rectangle_142-24" data-name="Rectangle 142" width="48" height="26" rx="3" transform="translate(-0.052 0.781)" fill="#efefef"/>
        <g id="Group_94-25" data-name="Group 94" transform="translate(0 0)">
          <path id="Path_1581-25" data-name="Path 1581" d="M30.766,22a8.766,8.766,0,1,0,8.766,8.766A8.766,8.766,0,0,0,30.766,22Zm0,15.779a7.013,7.013,0,1,1,7.013-7.013A7.013,7.013,0,0,1,30.766,37.779Z" transform="translate(-7.097 -17.617)" fill="#1c77c3"/>
          <path id="Path_1582-25" data-name="Path 1582" d="M31.63,28.507h1.753a.877.877,0,1,0,0-1.753h-.877v-.877a.877.877,0,1,0-1.753,0v1.038a2.623,2.623,0,0,0,.877,5.1.877.877,0,1,1,0,1.753H29.877a.877.877,0,1,0,0,1.753h.877V36.4a.877.877,0,0,0,1.753,0V35.358a2.623,2.623,0,0,0-.877-5.1.877.877,0,0,1,0-1.753Z" transform="translate(-7.961 -17.987)" fill="#1c77c3"/>
          <path id="Path_1583-25" data-name="Path 1583" d="M51.461,17H5.877A.877.877,0,0,0,5,17.877V42.422a.877.877,0,0,0,.877.877H51.461a.877.877,0,0,0,.877-.877V17.877A.877.877,0,0,0,51.461,17ZM45.395,41.545H11.943a6.14,6.14,0,0,0-5.19-5.19V23.943a6.14,6.14,0,0,0,5.19-5.19H45.395a6.14,6.14,0,0,0,5.19,5.19V36.356A6.14,6.14,0,0,0,45.395,41.545Zm5.19-22.792v3.418a4.4,4.4,0,0,1-3.418-3.418Zm-43.831,0h3.418a4.4,4.4,0,0,1-3.418,3.418Zm0,22.792V38.127a4.4,4.4,0,0,1,3.418,3.418Zm43.831,0H47.166a4.4,4.4,0,0,1,3.418-3.418Z" transform="translate(-5 -17)" fill="#1c77c3"/>
        </g>
      </g>
      <g id="Group_255" data-name="Group 255" transform="translate(422.08 3626.932)">
        <rect id="Rectangle_142-25" data-name="Rectangle 142" width="48" height="26" rx="3" transform="translate(-0.08 1.068)" fill="#efefef"/>
        <g id="Group_94-26" data-name="Group 94" transform="translate(0 0)">
          <path id="Path_1581-26" data-name="Path 1581" d="M30.766,22a8.766,8.766,0,1,0,8.766,8.766A8.766,8.766,0,0,0,30.766,22Zm0,15.779a7.013,7.013,0,1,1,7.013-7.013A7.013,7.013,0,0,1,30.766,37.779Z" transform="translate(-7.097 -17.617)" fill="#1c77c3"/>
          <path id="Path_1582-26" data-name="Path 1582" d="M31.63,28.507h1.753a.877.877,0,1,0,0-1.753h-.877v-.877a.877.877,0,1,0-1.753,0v1.038a2.623,2.623,0,0,0,.877,5.1.877.877,0,1,1,0,1.753H29.877a.877.877,0,1,0,0,1.753h.877V36.4a.877.877,0,0,0,1.753,0V35.358a2.623,2.623,0,0,0-.877-5.1.877.877,0,0,1,0-1.753Z" transform="translate(-7.961 -17.987)" fill="#1c77c3"/>
          <path id="Path_1583-26" data-name="Path 1583" d="M51.461,17H5.877A.877.877,0,0,0,5,17.877V42.422a.877.877,0,0,0,.877.877H51.461a.877.877,0,0,0,.877-.877V17.877A.877.877,0,0,0,51.461,17ZM45.395,41.545H11.943a6.14,6.14,0,0,0-5.19-5.19V23.943a6.14,6.14,0,0,0,5.19-5.19H45.395a6.14,6.14,0,0,0,5.19,5.19V36.356A6.14,6.14,0,0,0,45.395,41.545Zm5.19-22.792v3.418a4.4,4.4,0,0,1-3.418-3.418Zm-43.831,0h3.418a4.4,4.4,0,0,1-3.418,3.418Zm0,22.792V38.127a4.4,4.4,0,0,1,3.418,3.418Zm43.831,0H47.166a4.4,4.4,0,0,1,3.418-3.418Z" transform="translate(-5 -17)" fill="#1c77c3"/>
        </g>
      </g>
      <g id="Group_231" data-name="Group 231" transform="translate(479.377 3759.558)">
        <rect id="Rectangle_142-26" data-name="Rectangle 142" width="47" height="26" rx="3" transform="translate(0.623 0.442)" fill="#efefef"/>
        <g id="Group_94-27" data-name="Group 94" transform="translate(0 0)">
          <path id="Path_1581-27" data-name="Path 1581" d="M30.766,22a8.766,8.766,0,1,0,8.766,8.766A8.766,8.766,0,0,0,30.766,22Zm0,15.779a7.013,7.013,0,1,1,7.013-7.013A7.013,7.013,0,0,1,30.766,37.779Z" transform="translate(-7.097 -17.617)" fill="#1c77c3"/>
          <path id="Path_1582-27" data-name="Path 1582" d="M31.63,28.507h1.753a.877.877,0,1,0,0-1.753h-.877v-.877a.877.877,0,1,0-1.753,0v1.038a2.623,2.623,0,0,0,.877,5.1.877.877,0,1,1,0,1.753H29.877a.877.877,0,1,0,0,1.753h.877V36.4a.877.877,0,0,0,1.753,0V35.358a2.623,2.623,0,0,0-.877-5.1.877.877,0,0,1,0-1.753Z" transform="translate(-7.961 -17.987)" fill="#1c77c3"/>
          <path id="Path_1583-27" data-name="Path 1583" d="M51.461,17H5.877A.877.877,0,0,0,5,17.877V42.422a.877.877,0,0,0,.877.877H51.461a.877.877,0,0,0,.877-.877V17.877A.877.877,0,0,0,51.461,17ZM45.395,41.545H11.943a6.14,6.14,0,0,0-5.19-5.19V23.943a6.14,6.14,0,0,0,5.19-5.19H45.395a6.14,6.14,0,0,0,5.19,5.19V36.356A6.14,6.14,0,0,0,45.395,41.545Zm5.19-22.792v3.418a4.4,4.4,0,0,1-3.418-3.418Zm-43.831,0h3.418a4.4,4.4,0,0,1-3.418,3.418Zm0,22.792V38.127a4.4,4.4,0,0,1,3.418,3.418Zm43.831,0H47.166a4.4,4.4,0,0,1,3.418-3.418Z" transform="translate(-5 -17)" fill="#1c77c3"/>
        </g>
      </g>
      <g id="Group_232" data-name="Group 232" transform="translate(542.842 3980.059)">
        <rect id="Rectangle_142-27" data-name="Rectangle 142" width="47" height="26" rx="3" transform="translate(0.158 0.941)" fill="#efefef"/>
        <g id="Group_94-28" data-name="Group 94" transform="translate(0 0)">
          <path id="Path_1581-28" data-name="Path 1581" d="M30.766,22a8.766,8.766,0,1,0,8.766,8.766A8.766,8.766,0,0,0,30.766,22Zm0,15.779a7.013,7.013,0,1,1,7.013-7.013A7.013,7.013,0,0,1,30.766,37.779Z" transform="translate(-7.097 -17.617)" fill="#1c77c3"/>
          <path id="Path_1582-28" data-name="Path 1582" d="M31.63,28.507h1.753a.877.877,0,1,0,0-1.753h-.877v-.877a.877.877,0,1,0-1.753,0v1.038a2.623,2.623,0,0,0,.877,5.1.877.877,0,1,1,0,1.753H29.877a.877.877,0,1,0,0,1.753h.877V36.4a.877.877,0,0,0,1.753,0V35.358a2.623,2.623,0,0,0-.877-5.1.877.877,0,0,1,0-1.753Z" transform="translate(-7.961 -17.987)" fill="#1c77c3"/>
          <path id="Path_1583-28" data-name="Path 1583" d="M51.461,17H5.877A.877.877,0,0,0,5,17.877V42.422a.877.877,0,0,0,.877.877H51.461a.877.877,0,0,0,.877-.877V17.877A.877.877,0,0,0,51.461,17ZM45.395,41.545H11.943a6.14,6.14,0,0,0-5.19-5.19V23.943a6.14,6.14,0,0,0,5.19-5.19H45.395a6.14,6.14,0,0,0,5.19,5.19V36.356A6.14,6.14,0,0,0,45.395,41.545Zm5.19-22.792v3.418a4.4,4.4,0,0,1-3.418-3.418Zm-43.831,0h3.418a4.4,4.4,0,0,1-3.418,3.418Zm0,22.792V38.127a4.4,4.4,0,0,1,3.418,3.418Zm43.831,0H47.166a4.4,4.4,0,0,1,3.418-3.418Z" transform="translate(-5 -17)" fill="#1c77c3"/>
        </g>
      </g>
      <g id="Group_256" data-name="Group 256" transform="translate(453.576 4107.704)">
        <rect id="Rectangle_142-28" data-name="Rectangle 142" width="47" height="26" rx="3" transform="translate(0.424 0.296)" fill="#efefef"/>
        <g id="Group_94-29" data-name="Group 94" transform="translate(0 0)">
          <path id="Path_1581-29" data-name="Path 1581" d="M30.766,22a8.766,8.766,0,1,0,8.766,8.766A8.766,8.766,0,0,0,30.766,22Zm0,15.779a7.013,7.013,0,1,1,7.013-7.013A7.013,7.013,0,0,1,30.766,37.779Z" transform="translate(-7.097 -17.617)" fill="#1c77c3"/>
          <path id="Path_1582-29" data-name="Path 1582" d="M31.63,28.507h1.753a.877.877,0,1,0,0-1.753h-.877v-.877a.877.877,0,1,0-1.753,0v1.038a2.623,2.623,0,0,0,.877,5.1.877.877,0,1,1,0,1.753H29.877a.877.877,0,1,0,0,1.753h.877V36.4a.877.877,0,0,0,1.753,0V35.358a2.623,2.623,0,0,0-.877-5.1.877.877,0,0,1,0-1.753Z" transform="translate(-7.961 -17.987)" fill="#1c77c3"/>
          <path id="Path_1583-29" data-name="Path 1583" d="M51.461,17H5.877A.877.877,0,0,0,5,17.877V42.422a.877.877,0,0,0,.877.877H51.461a.877.877,0,0,0,.877-.877V17.877A.877.877,0,0,0,51.461,17ZM45.395,41.545H11.943a6.14,6.14,0,0,0-5.19-5.19V23.943a6.14,6.14,0,0,0,5.19-5.19H45.395a6.14,6.14,0,0,0,5.19,5.19V36.356A6.14,6.14,0,0,0,45.395,41.545Zm5.19-22.792v3.418a4.4,4.4,0,0,1-3.418-3.418Zm-43.831,0h3.418a4.4,4.4,0,0,1-3.418,3.418Zm0,22.792V38.127a4.4,4.4,0,0,1,3.418,3.418Zm43.831,0H47.166a4.4,4.4,0,0,1,3.418-3.418Z" transform="translate(-5 -17)" fill="#1c77c3"/>
        </g>
      </g>
      <g id="Group_257" data-name="Group 257" transform="translate(662.877 3479.219)">
        <rect id="Rectangle_142-29" data-name="Rectangle 142" width="46" height="26" rx="3" transform="translate(1.123 0.781)" fill="#efefef"/>
        <g id="Group_94-30" data-name="Group 94" transform="translate(0 0)">
          <path id="Path_1581-30" data-name="Path 1581" d="M30.766,22a8.766,8.766,0,1,0,8.766,8.766A8.766,8.766,0,0,0,30.766,22Zm0,15.779a7.013,7.013,0,1,1,7.013-7.013A7.013,7.013,0,0,1,30.766,37.779Z" transform="translate(-7.097 -17.617)" fill="#1c77c3"/>
          <path id="Path_1582-30" data-name="Path 1582" d="M31.63,28.507h1.753a.877.877,0,1,0,0-1.753h-.877v-.877a.877.877,0,1,0-1.753,0v1.038a2.623,2.623,0,0,0,.877,5.1.877.877,0,1,1,0,1.753H29.877a.877.877,0,1,0,0,1.753h.877V36.4a.877.877,0,0,0,1.753,0V35.358a2.623,2.623,0,0,0-.877-5.1.877.877,0,0,1,0-1.753Z" transform="translate(-7.961 -17.987)" fill="#1c77c3"/>
          <path id="Path_1583-30" data-name="Path 1583" d="M51.461,17H5.877A.877.877,0,0,0,5,17.877V42.422a.877.877,0,0,0,.877.877H51.461a.877.877,0,0,0,.877-.877V17.877A.877.877,0,0,0,51.461,17ZM45.395,41.545H11.943a6.14,6.14,0,0,0-5.19-5.19V23.943a6.14,6.14,0,0,0,5.19-5.19H45.395a6.14,6.14,0,0,0,5.19,5.19V36.356A6.14,6.14,0,0,0,45.395,41.545Zm5.19-22.792v3.418a4.4,4.4,0,0,1-3.418-3.418Zm-43.831,0h3.418a4.4,4.4,0,0,1-3.418,3.418Zm0,22.792V38.127a4.4,4.4,0,0,1,3.418,3.418Zm43.831,0H47.166a4.4,4.4,0,0,1,3.418-3.418Z" transform="translate(-5 -17)" fill="#1c77c3"/>
        </g>
      </g>
      <g id="Group_258" data-name="Group 258" transform="translate(358.905 3626.932)">
        <rect id="Rectangle_142-30" data-name="Rectangle 142" width="46" height="26" rx="3" transform="translate(1.095 1.068)" fill="#efefef"/>
        <g id="Group_94-31" data-name="Group 94" transform="translate(0 0)">
          <path id="Path_1581-31" data-name="Path 1581" d="M30.766,22a8.766,8.766,0,1,0,8.766,8.766A8.766,8.766,0,0,0,30.766,22Zm0,15.779a7.013,7.013,0,1,1,7.013-7.013A7.013,7.013,0,0,1,30.766,37.779Z" transform="translate(-7.097 -17.617)" fill="#1c77c3"/>
          <path id="Path_1582-31" data-name="Path 1582" d="M31.63,28.507h1.753a.877.877,0,1,0,0-1.753h-.877v-.877a.877.877,0,1,0-1.753,0v1.038a2.623,2.623,0,0,0,.877,5.1.877.877,0,1,1,0,1.753H29.877a.877.877,0,1,0,0,1.753h.877V36.4a.877.877,0,0,0,1.753,0V35.358a2.623,2.623,0,0,0-.877-5.1.877.877,0,0,1,0-1.753Z" transform="translate(-7.961 -17.987)" fill="#1c77c3"/>
          <path id="Path_1583-31" data-name="Path 1583" d="M51.461,17H5.877A.877.877,0,0,0,5,17.877V42.422a.877.877,0,0,0,.877.877H51.461a.877.877,0,0,0,.877-.877V17.877A.877.877,0,0,0,51.461,17ZM45.395,41.545H11.943a6.14,6.14,0,0,0-5.19-5.19V23.943a6.14,6.14,0,0,0,5.19-5.19H45.395a6.14,6.14,0,0,0,5.19,5.19V36.356A6.14,6.14,0,0,0,45.395,41.545Zm5.19-22.792v3.418a4.4,4.4,0,0,1-3.418-3.418Zm-43.831,0h3.418a4.4,4.4,0,0,1-3.418,3.418Zm0,22.792V38.127a4.4,4.4,0,0,1,3.418,3.418Zm43.831,0H47.166a4.4,4.4,0,0,1,3.418-3.418Z" transform="translate(-5 -17)" fill="#1c77c3"/>
        </g>
      </g>
      <g id="Group_259" data-name="Group 259" transform="translate(416.203 3759.558)">
        <rect id="Rectangle_142-31" data-name="Rectangle 142" width="46" height="26" rx="3" transform="translate(0.797 0.442)" fill="#efefef"/>
        <g id="Group_94-32" data-name="Group 94" transform="translate(0 0)">
          <path id="Path_1581-32" data-name="Path 1581" d="M30.766,22a8.766,8.766,0,1,0,8.766,8.766A8.766,8.766,0,0,0,30.766,22Zm0,15.779a7.013,7.013,0,1,1,7.013-7.013A7.013,7.013,0,0,1,30.766,37.779Z" transform="translate(-7.097 -17.617)" fill="#1c77c3"/>
          <path id="Path_1582-32" data-name="Path 1582" d="M31.63,28.507h1.753a.877.877,0,1,0,0-1.753h-.877v-.877a.877.877,0,1,0-1.753,0v1.038a2.623,2.623,0,0,0,.877,5.1.877.877,0,1,1,0,1.753H29.877a.877.877,0,1,0,0,1.753h.877V36.4a.877.877,0,0,0,1.753,0V35.358a2.623,2.623,0,0,0-.877-5.1.877.877,0,0,1,0-1.753Z" transform="translate(-7.961 -17.987)" fill="#1c77c3"/>
          <path id="Path_1583-32" data-name="Path 1583" d="M51.461,17H5.877A.877.877,0,0,0,5,17.877V42.422a.877.877,0,0,0,.877.877H51.461a.877.877,0,0,0,.877-.877V17.877A.877.877,0,0,0,51.461,17ZM45.395,41.545H11.943a6.14,6.14,0,0,0-5.19-5.19V23.943a6.14,6.14,0,0,0,5.19-5.19H45.395a6.14,6.14,0,0,0,5.19,5.19V36.356A6.14,6.14,0,0,0,45.395,41.545Zm5.19-22.792v3.418a4.4,4.4,0,0,1-3.418-3.418Zm-43.831,0h3.418a4.4,4.4,0,0,1-3.418,3.418Zm0,22.792V38.127a4.4,4.4,0,0,1,3.418,3.418Zm43.831,0H47.166a4.4,4.4,0,0,1,3.418-3.418Z" transform="translate(-5 -17)" fill="#1c77c3"/>
        </g>
      </g>
      <g id="Group_233" data-name="Group 233" transform="translate(479.668 3980.059)">
        <rect id="Rectangle_142-32" data-name="Rectangle 142" width="46" height="26" rx="3" transform="translate(1.332 0.941)" fill="#efefef"/>
        <g id="Group_94-33" data-name="Group 94" transform="translate(0 0)">
          <path id="Path_1581-33" data-name="Path 1581" d="M30.766,22a8.766,8.766,0,1,0,8.766,8.766A8.766,8.766,0,0,0,30.766,22Zm0,15.779a7.013,7.013,0,1,1,7.013-7.013A7.013,7.013,0,0,1,30.766,37.779Z" transform="translate(-7.097 -17.617)" fill="#1c77c3"/>
          <path id="Path_1582-33" data-name="Path 1582" d="M31.63,28.507h1.753a.877.877,0,1,0,0-1.753h-.877v-.877a.877.877,0,1,0-1.753,0v1.038a2.623,2.623,0,0,0,.877,5.1.877.877,0,1,1,0,1.753H29.877a.877.877,0,1,0,0,1.753h.877V36.4a.877.877,0,0,0,1.753,0V35.358a2.623,2.623,0,0,0-.877-5.1.877.877,0,0,1,0-1.753Z" transform="translate(-7.961 -17.987)" fill="#1c77c3"/>
          <path id="Path_1583-33" data-name="Path 1583" d="M51.461,17H5.877A.877.877,0,0,0,5,17.877V42.422a.877.877,0,0,0,.877.877H51.461a.877.877,0,0,0,.877-.877V17.877A.877.877,0,0,0,51.461,17ZM45.395,41.545H11.943a6.14,6.14,0,0,0-5.19-5.19V23.943a6.14,6.14,0,0,0,5.19-5.19H45.395a6.14,6.14,0,0,0,5.19,5.19V36.356A6.14,6.14,0,0,0,45.395,41.545Zm5.19-22.792v3.418a4.4,4.4,0,0,1-3.418-3.418Zm-43.831,0h3.418a4.4,4.4,0,0,1-3.418,3.418Zm0,22.792V38.127a4.4,4.4,0,0,1,3.418,3.418Zm43.831,0H47.166a4.4,4.4,0,0,1,3.418-3.418Z" transform="translate(-5 -17)" fill="#1c77c3"/>
        </g>
      </g>
      <g id="Group_260" data-name="Group 260" transform="translate(390.402 4107.704)">
        <rect id="Rectangle_142-33" data-name="Rectangle 142" width="47" height="26" rx="3" transform="translate(0.598 0.296)" fill="#efefef"/>
        <g id="Group_94-34" data-name="Group 94" transform="translate(0 0)">
          <path id="Path_1581-34" data-name="Path 1581" d="M30.766,22a8.766,8.766,0,1,0,8.766,8.766A8.766,8.766,0,0,0,30.766,22Zm0,15.779a7.013,7.013,0,1,1,7.013-7.013A7.013,7.013,0,0,1,30.766,37.779Z" transform="translate(-7.097 -17.617)" fill="#1c77c3"/>
          <path id="Path_1582-34" data-name="Path 1582" d="M31.63,28.507h1.753a.877.877,0,1,0,0-1.753h-.877v-.877a.877.877,0,1,0-1.753,0v1.038a2.623,2.623,0,0,0,.877,5.1.877.877,0,1,1,0,1.753H29.877a.877.877,0,1,0,0,1.753h.877V36.4a.877.877,0,0,0,1.753,0V35.358a2.623,2.623,0,0,0-.877-5.1.877.877,0,0,1,0-1.753Z" transform="translate(-7.961 -17.987)" fill="#1c77c3"/>
          <path id="Path_1583-34" data-name="Path 1583" d="M51.461,17H5.877A.877.877,0,0,0,5,17.877V42.422a.877.877,0,0,0,.877.877H51.461a.877.877,0,0,0,.877-.877V17.877A.877.877,0,0,0,51.461,17ZM45.395,41.545H11.943a6.14,6.14,0,0,0-5.19-5.19V23.943a6.14,6.14,0,0,0,5.19-5.19H45.395a6.14,6.14,0,0,0,5.19,5.19V36.356A6.14,6.14,0,0,0,45.395,41.545Zm5.19-22.792v3.418a4.4,4.4,0,0,1-3.418-3.418Zm-43.831,0h3.418a4.4,4.4,0,0,1-3.418,3.418Zm0,22.792V38.127a4.4,4.4,0,0,1,3.418,3.418Zm43.831,0H47.166a4.4,4.4,0,0,1,3.418-3.418Z" transform="translate(-5 -17)" fill="#1c77c3"/>
        </g>
      </g>
      <g id="Group_261" data-name="Group 261" transform="translate(730.87 3489.391)">
        <rect id="Rectangle_142-34" data-name="Rectangle 142" width="47" height="26" rx="3" transform="translate(0.13 0.609)" fill="#efefef"/>
        <g id="Group_94-35" data-name="Group 94" transform="translate(0 0)">
          <path id="Path_1581-35" data-name="Path 1581" d="M30.766,22a8.766,8.766,0,1,0,8.766,8.766A8.766,8.766,0,0,0,30.766,22Zm0,15.779a7.013,7.013,0,1,1,7.013-7.013A7.013,7.013,0,0,1,30.766,37.779Z" transform="translate(-7.097 -17.617)" fill="#1c77c3"/>
          <path id="Path_1582-35" data-name="Path 1582" d="M31.63,28.507h1.753a.877.877,0,1,0,0-1.753h-.877v-.877a.877.877,0,1,0-1.753,0v1.038a2.623,2.623,0,0,0,.877,5.1.877.877,0,1,1,0,1.753H29.877a.877.877,0,1,0,0,1.753h.877V36.4a.877.877,0,0,0,1.753,0V35.358a2.623,2.623,0,0,0-.877-5.1.877.877,0,0,1,0-1.753Z" transform="translate(-7.961 -17.987)" fill="#1c77c3"/>
          <path id="Path_1583-35" data-name="Path 1583" d="M51.461,17H5.877A.877.877,0,0,0,5,17.877V42.422a.877.877,0,0,0,.877.877H51.461a.877.877,0,0,0,.877-.877V17.877A.877.877,0,0,0,51.461,17ZM45.395,41.545H11.943a6.14,6.14,0,0,0-5.19-5.19V23.943a6.14,6.14,0,0,0,5.19-5.19H45.395a6.14,6.14,0,0,0,5.19,5.19V36.356A6.14,6.14,0,0,0,45.395,41.545Zm5.19-22.792v3.418a4.4,4.4,0,0,1-3.418-3.418Zm-43.831,0h3.418a4.4,4.4,0,0,1-3.418,3.418Zm0,22.792V38.127a4.4,4.4,0,0,1,3.418,3.418Zm43.831,0H47.166a4.4,4.4,0,0,1,3.418-3.418Z" transform="translate(-5 -17)" fill="#1c77c3"/>
        </g>
      </g>
      <g id="Group_262" data-name="Group 262" transform="translate(426.898 3637.104)">
        <rect id="Rectangle_142-35" data-name="Rectangle 142" width="47" height="26" rx="3" transform="translate(0.102 -0.104)" fill="#efefef"/>
        <g id="Group_94-36" data-name="Group 94" transform="translate(0 0)">
          <path id="Path_1581-36" data-name="Path 1581" d="M30.766,22a8.766,8.766,0,1,0,8.766,8.766A8.766,8.766,0,0,0,30.766,22Zm0,15.779a7.013,7.013,0,1,1,7.013-7.013A7.013,7.013,0,0,1,30.766,37.779Z" transform="translate(-7.097 -17.617)" fill="#1c77c3"/>
          <path id="Path_1582-36" data-name="Path 1582" d="M31.63,28.507h1.753a.877.877,0,1,0,0-1.753h-.877v-.877a.877.877,0,1,0-1.753,0v1.038a2.623,2.623,0,0,0,.877,5.1.877.877,0,1,1,0,1.753H29.877a.877.877,0,1,0,0,1.753h.877V36.4a.877.877,0,0,0,1.753,0V35.358a2.623,2.623,0,0,0-.877-5.1.877.877,0,0,1,0-1.753Z" transform="translate(-7.961 -17.987)" fill="#1c77c3"/>
          <path id="Path_1583-36" data-name="Path 1583" d="M51.461,17H5.877A.877.877,0,0,0,5,17.877V42.422a.877.877,0,0,0,.877.877H51.461a.877.877,0,0,0,.877-.877V17.877A.877.877,0,0,0,51.461,17ZM45.395,41.545H11.943a6.14,6.14,0,0,0-5.19-5.19V23.943a6.14,6.14,0,0,0,5.19-5.19H45.395a6.14,6.14,0,0,0,5.19,5.19V36.356A6.14,6.14,0,0,0,45.395,41.545Zm5.19-22.792v3.418a4.4,4.4,0,0,1-3.418-3.418Zm-43.831,0h3.418a4.4,4.4,0,0,1-3.418,3.418Zm0,22.792V38.127a4.4,4.4,0,0,1,3.418,3.418Zm43.831,0H47.166a4.4,4.4,0,0,1,3.418-3.418Z" transform="translate(-5 -17)" fill="#1c77c3"/>
        </g>
      </g>
      <g id="Group_234" data-name="Group 234" transform="translate(484.195 3769.73)">
        <rect id="Rectangle_142-36" data-name="Rectangle 142" width="46" height="26" rx="3" transform="translate(0.805 0.27)" fill="#efefef"/>
        <g id="Group_94-37" data-name="Group 94" transform="translate(0 0)">
          <path id="Path_1581-37" data-name="Path 1581" d="M30.766,22a8.766,8.766,0,1,0,8.766,8.766A8.766,8.766,0,0,0,30.766,22Zm0,15.779a7.013,7.013,0,1,1,7.013-7.013A7.013,7.013,0,0,1,30.766,37.779Z" transform="translate(-7.097 -17.617)" fill="#1c77c3"/>
          <path id="Path_1582-37" data-name="Path 1582" d="M31.63,28.507h1.753a.877.877,0,1,0,0-1.753h-.877v-.877a.877.877,0,1,0-1.753,0v1.038a2.623,2.623,0,0,0,.877,5.1.877.877,0,1,1,0,1.753H29.877a.877.877,0,1,0,0,1.753h.877V36.4a.877.877,0,0,0,1.753,0V35.358a2.623,2.623,0,0,0-.877-5.1.877.877,0,0,1,0-1.753Z" transform="translate(-7.961 -17.987)" fill="#1c77c3"/>
          <path id="Path_1583-37" data-name="Path 1583" d="M51.461,17H5.877A.877.877,0,0,0,5,17.877V42.422a.877.877,0,0,0,.877.877H51.461a.877.877,0,0,0,.877-.877V17.877A.877.877,0,0,0,51.461,17ZM45.395,41.545H11.943a6.14,6.14,0,0,0-5.19-5.19V23.943a6.14,6.14,0,0,0,5.19-5.19H45.395a6.14,6.14,0,0,0,5.19,5.19V36.356A6.14,6.14,0,0,0,45.395,41.545Zm5.19-22.792v3.418a4.4,4.4,0,0,1-3.418-3.418Zm-43.831,0h3.418a4.4,4.4,0,0,1-3.418,3.418Zm0,22.792V38.127a4.4,4.4,0,0,1,3.418,3.418Zm43.831,0H47.166a4.4,4.4,0,0,1,3.418-3.418Z" transform="translate(-5 -17)" fill="#1c77c3"/>
        </g>
      </g>
      <g id="Group_235" data-name="Group 235" transform="translate(547.661 3990.231)">
        <rect id="Rectangle_142-37" data-name="Rectangle 142" width="46" height="26" rx="3" transform="translate(0.339 -0.231)" fill="#efefef"/>
        <g id="Group_94-38" data-name="Group 94" transform="translate(0 0)">
          <path id="Path_1581-38" data-name="Path 1581" d="M30.766,22a8.766,8.766,0,1,0,8.766,8.766A8.766,8.766,0,0,0,30.766,22Zm0,15.779a7.013,7.013,0,1,1,7.013-7.013A7.013,7.013,0,0,1,30.766,37.779Z" transform="translate(-7.097 -17.617)" fill="#1c77c3"/>
          <path id="Path_1582-38" data-name="Path 1582" d="M31.63,28.507h1.753a.877.877,0,1,0,0-1.753h-.877v-.877a.877.877,0,1,0-1.753,0v1.038a2.623,2.623,0,0,0,.877,5.1.877.877,0,1,1,0,1.753H29.877a.877.877,0,1,0,0,1.753h.877V36.4a.877.877,0,0,0,1.753,0V35.358a2.623,2.623,0,0,0-.877-5.1.877.877,0,0,1,0-1.753Z" transform="translate(-7.961 -17.987)" fill="#1c77c3"/>
          <path id="Path_1583-38" data-name="Path 1583" d="M51.461,17H5.877A.877.877,0,0,0,5,17.877V42.422a.877.877,0,0,0,.877.877H51.461a.877.877,0,0,0,.877-.877V17.877A.877.877,0,0,0,51.461,17ZM45.395,41.545H11.943a6.14,6.14,0,0,0-5.19-5.19V23.943a6.14,6.14,0,0,0,5.19-5.19H45.395a6.14,6.14,0,0,0,5.19,5.19V36.356A6.14,6.14,0,0,0,45.395,41.545Zm5.19-22.792v3.418a4.4,4.4,0,0,1-3.418-3.418Zm-43.831,0h3.418a4.4,4.4,0,0,1-3.418,3.418Zm0,22.792V38.127a4.4,4.4,0,0,1,3.418,3.418Zm43.831,0H47.166a4.4,4.4,0,0,1,3.418-3.418Z" transform="translate(-5 -17)" fill="#1c77c3"/>
        </g>
      </g>
      <g id="Group_263" data-name="Group 263" transform="translate(667.696 3489.391)">
        <rect id="Rectangle_142-38" data-name="Rectangle 142" width="46" height="26" rx="3" transform="translate(1.304 0.609)" fill="#efefef"/>
        <g id="Group_94-39" data-name="Group 94" transform="translate(0 0)">
          <path id="Path_1581-39" data-name="Path 1581" d="M30.766,22a8.766,8.766,0,1,0,8.766,8.766A8.766,8.766,0,0,0,30.766,22Zm0,15.779a7.013,7.013,0,1,1,7.013-7.013A7.013,7.013,0,0,1,30.766,37.779Z" transform="translate(-7.097 -17.617)" fill="#1c77c3"/>
          <path id="Path_1582-39" data-name="Path 1582" d="M31.63,28.507h1.753a.877.877,0,1,0,0-1.753h-.877v-.877a.877.877,0,1,0-1.753,0v1.038a2.623,2.623,0,0,0,.877,5.1.877.877,0,1,1,0,1.753H29.877a.877.877,0,1,0,0,1.753h.877V36.4a.877.877,0,0,0,1.753,0V35.358a2.623,2.623,0,0,0-.877-5.1.877.877,0,0,1,0-1.753Z" transform="translate(-7.961 -17.987)" fill="#1c77c3"/>
          <path id="Path_1583-39" data-name="Path 1583" d="M51.461,17H5.877A.877.877,0,0,0,5,17.877V42.422a.877.877,0,0,0,.877.877H51.461a.877.877,0,0,0,.877-.877V17.877A.877.877,0,0,0,51.461,17ZM45.395,41.545H11.943a6.14,6.14,0,0,0-5.19-5.19V23.943a6.14,6.14,0,0,0,5.19-5.19H45.395a6.14,6.14,0,0,0,5.19,5.19V36.356A6.14,6.14,0,0,0,45.395,41.545Zm5.19-22.792v3.418a4.4,4.4,0,0,1-3.418-3.418Zm-43.831,0h3.418a4.4,4.4,0,0,1-3.418,3.418Zm0,22.792V38.127a4.4,4.4,0,0,1,3.418,3.418Zm43.831,0H47.166a4.4,4.4,0,0,1,3.418-3.418Z" transform="translate(-5 -17)" fill="#1c77c3"/>
        </g>
      </g>
      <g id="Group_264" data-name="Group 264" transform="translate(363.724 3637.104)">
        <rect id="Rectangle_142-39" data-name="Rectangle 142" width="46" height="26" rx="3" transform="translate(1.276 -0.104)" fill="#efefef"/>
        <g id="Group_94-40" data-name="Group 94" transform="translate(0 0)">
          <path id="Path_1581-40" data-name="Path 1581" d="M30.766,22a8.766,8.766,0,1,0,8.766,8.766A8.766,8.766,0,0,0,30.766,22Zm0,15.779a7.013,7.013,0,1,1,7.013-7.013A7.013,7.013,0,0,1,30.766,37.779Z" transform="translate(-7.097 -17.617)" fill="#1c77c3"/>
          <path id="Path_1582-40" data-name="Path 1582" d="M31.63,28.507h1.753a.877.877,0,1,0,0-1.753h-.877v-.877a.877.877,0,1,0-1.753,0v1.038a2.623,2.623,0,0,0,.877,5.1.877.877,0,1,1,0,1.753H29.877a.877.877,0,1,0,0,1.753h.877V36.4a.877.877,0,0,0,1.753,0V35.358a2.623,2.623,0,0,0-.877-5.1.877.877,0,0,1,0-1.753Z" transform="translate(-7.961 -17.987)" fill="#1c77c3"/>
          <path id="Path_1583-40" data-name="Path 1583" d="M51.461,17H5.877A.877.877,0,0,0,5,17.877V42.422a.877.877,0,0,0,.877.877H51.461a.877.877,0,0,0,.877-.877V17.877A.877.877,0,0,0,51.461,17ZM45.395,41.545H11.943a6.14,6.14,0,0,0-5.19-5.19V23.943a6.14,6.14,0,0,0,5.19-5.19H45.395a6.14,6.14,0,0,0,5.19,5.19V36.356A6.14,6.14,0,0,0,45.395,41.545Zm5.19-22.792v3.418a4.4,4.4,0,0,1-3.418-3.418Zm-43.831,0h3.418a4.4,4.4,0,0,1-3.418,3.418Zm0,22.792V38.127a4.4,4.4,0,0,1,3.418,3.418Zm43.831,0H47.166a4.4,4.4,0,0,1,3.418-3.418Z" transform="translate(-5 -17)" fill="#1c77c3"/>
        </g>
      </g>
      <g id="Group_265" data-name="Group 265" transform="translate(421.021 3769.73)">
        <rect id="Rectangle_142-40" data-name="Rectangle 142" width="46" height="26" rx="3" transform="translate(0.979 0.27)" fill="#efefef"/>
        <g id="Group_94-41" data-name="Group 94" transform="translate(0 0)">
          <path id="Path_1581-41" data-name="Path 1581" d="M30.766,22a8.766,8.766,0,1,0,8.766,8.766A8.766,8.766,0,0,0,30.766,22Zm0,15.779a7.013,7.013,0,1,1,7.013-7.013A7.013,7.013,0,0,1,30.766,37.779Z" transform="translate(-7.097 -17.617)" fill="#1c77c3"/>
          <path id="Path_1582-41" data-name="Path 1582" d="M31.63,28.507h1.753a.877.877,0,1,0,0-1.753h-.877v-.877a.877.877,0,1,0-1.753,0v1.038a2.623,2.623,0,0,0,.877,5.1.877.877,0,1,1,0,1.753H29.877a.877.877,0,1,0,0,1.753h.877V36.4a.877.877,0,0,0,1.753,0V35.358a2.623,2.623,0,0,0-.877-5.1.877.877,0,0,1,0-1.753Z" transform="translate(-7.961 -17.987)" fill="#1c77c3"/>
          <path id="Path_1583-41" data-name="Path 1583" d="M51.461,17H5.877A.877.877,0,0,0,5,17.877V42.422a.877.877,0,0,0,.877.877H51.461a.877.877,0,0,0,.877-.877V17.877A.877.877,0,0,0,51.461,17ZM45.395,41.545H11.943a6.14,6.14,0,0,0-5.19-5.19V23.943a6.14,6.14,0,0,0,5.19-5.19H45.395a6.14,6.14,0,0,0,5.19,5.19V36.356A6.14,6.14,0,0,0,45.395,41.545Zm5.19-22.792v3.418a4.4,4.4,0,0,1-3.418-3.418Zm-43.831,0h3.418a4.4,4.4,0,0,1-3.418,3.418Zm0,22.792V38.127a4.4,4.4,0,0,1,3.418,3.418Zm43.831,0H47.166a4.4,4.4,0,0,1,3.418-3.418Z" transform="translate(-5 -17)" fill="#1c77c3"/>
        </g>
      </g>
      <g id="Group_236" data-name="Group 236" transform="translate(484.486 3990.231)">
        <rect id="Rectangle_142-41" data-name="Rectangle 142" width="47" height="26" rx="3" transform="translate(0.514 -0.231)" fill="#efefef"/>
        <g id="Group_94-42" data-name="Group 94" transform="translate(0 0)">
          <path id="Path_1581-42" data-name="Path 1581" d="M30.766,22a8.766,8.766,0,1,0,8.766,8.766A8.766,8.766,0,0,0,30.766,22Zm0,15.779a7.013,7.013,0,1,1,7.013-7.013A7.013,7.013,0,0,1,30.766,37.779Z" transform="translate(-7.097 -17.617)" fill="#1c77c3"/>
          <path id="Path_1582-42" data-name="Path 1582" d="M31.63,28.507h1.753a.877.877,0,1,0,0-1.753h-.877v-.877a.877.877,0,1,0-1.753,0v1.038a2.623,2.623,0,0,0,.877,5.1.877.877,0,1,1,0,1.753H29.877a.877.877,0,1,0,0,1.753h.877V36.4a.877.877,0,0,0,1.753,0V35.358a2.623,2.623,0,0,0-.877-5.1.877.877,0,0,1,0-1.753Z" transform="translate(-7.961 -17.987)" fill="#1c77c3"/>
          <path id="Path_1583-42" data-name="Path 1583" d="M51.461,17H5.877A.877.877,0,0,0,5,17.877V42.422a.877.877,0,0,0,.877.877H51.461a.877.877,0,0,0,.877-.877V17.877A.877.877,0,0,0,51.461,17ZM45.395,41.545H11.943a6.14,6.14,0,0,0-5.19-5.19V23.943a6.14,6.14,0,0,0,5.19-5.19H45.395a6.14,6.14,0,0,0,5.19,5.19V36.356A6.14,6.14,0,0,0,45.395,41.545Zm5.19-22.792v3.418a4.4,4.4,0,0,1-3.418-3.418Zm-43.831,0h3.418a4.4,4.4,0,0,1-3.418,3.418Zm0,22.792V38.127a4.4,4.4,0,0,1,3.418,3.418Zm43.831,0H47.166a4.4,4.4,0,0,1,3.418-3.418Z" transform="translate(-5 -17)" fill="#1c77c3"/>
        </g>
      </g>
      <g id="Group_266" data-name="Group 266" transform="translate(395.22 4117.876)">
        <rect id="Rectangle_142-42" data-name="Rectangle 142" width="47" height="26" rx="3" transform="translate(0.78 0.124)" fill="#efefef"/>
        <g id="Group_94-43" data-name="Group 94" transform="translate(0 0)">
          <path id="Path_1581-43" data-name="Path 1581" d="M30.766,22a8.766,8.766,0,1,0,8.766,8.766A8.766,8.766,0,0,0,30.766,22Zm0,15.779a7.013,7.013,0,1,1,7.013-7.013A7.013,7.013,0,0,1,30.766,37.779Z" transform="translate(-7.097 -17.617)" fill="#1c77c3"/>
          <path id="Path_1582-43" data-name="Path 1582" d="M31.63,28.507h1.753a.877.877,0,1,0,0-1.753h-.877v-.877a.877.877,0,1,0-1.753,0v1.038a2.623,2.623,0,0,0,.877,5.1.877.877,0,1,1,0,1.753H29.877a.877.877,0,1,0,0,1.753h.877V36.4a.877.877,0,0,0,1.753,0V35.358a2.623,2.623,0,0,0-.877-5.1.877.877,0,0,1,0-1.753Z" transform="translate(-7.961 -17.987)" fill="#1c77c3"/>
          <path id="Path_1583-43" data-name="Path 1583" d="M51.461,17H5.877A.877.877,0,0,0,5,17.877V42.422a.877.877,0,0,0,.877.877H51.461a.877.877,0,0,0,.877-.877V17.877A.877.877,0,0,0,51.461,17ZM45.395,41.545H11.943a6.14,6.14,0,0,0-5.19-5.19V23.943a6.14,6.14,0,0,0,5.19-5.19H45.395a6.14,6.14,0,0,0,5.19,5.19V36.356A6.14,6.14,0,0,0,45.395,41.545Zm5.19-22.792v3.418a4.4,4.4,0,0,1-3.418-3.418Zm-43.831,0h3.418a4.4,4.4,0,0,1-3.418,3.418Zm0,22.792V38.127a4.4,4.4,0,0,1,3.418,3.418Zm43.831,0H47.166a4.4,4.4,0,0,1,3.418-3.418Z" transform="translate(-5 -17)" fill="#1c77c3"/>
        </g>
      </g>
      <g id="Group_268" data-name="Group 268" transform="translate(432.251 3646.205)">
        <rect id="Rectangle_142-43" data-name="Rectangle 142" width="46" height="26" rx="3" transform="translate(0.749 -0.205)" fill="#efefef"/>
        <g id="Group_94-44" data-name="Group 94" transform="translate(0 0)">
          <path id="Path_1581-44" data-name="Path 1581" d="M30.766,22a8.766,8.766,0,1,0,8.766,8.766A8.766,8.766,0,0,0,30.766,22Zm0,15.779a7.013,7.013,0,1,1,7.013-7.013A7.013,7.013,0,0,1,30.766,37.779Z" transform="translate(-7.097 -17.617)" fill="#1c77c3"/>
          <path id="Path_1582-44" data-name="Path 1582" d="M31.63,28.507h1.753a.877.877,0,1,0,0-1.753h-.877v-.877a.877.877,0,1,0-1.753,0v1.038a2.623,2.623,0,0,0,.877,5.1.877.877,0,1,1,0,1.753H29.877a.877.877,0,1,0,0,1.753h.877V36.4a.877.877,0,0,0,1.753,0V35.358a2.623,2.623,0,0,0-.877-5.1.877.877,0,0,1,0-1.753Z" transform="translate(-7.961 -17.987)" fill="#1c77c3"/>
          <path id="Path_1583-44" data-name="Path 1583" d="M51.461,17H5.877A.877.877,0,0,0,5,17.877V42.422a.877.877,0,0,0,.877.877H51.461a.877.877,0,0,0,.877-.877V17.877A.877.877,0,0,0,51.461,17ZM45.395,41.545H11.943a6.14,6.14,0,0,0-5.19-5.19V23.943a6.14,6.14,0,0,0,5.19-5.19H45.395a6.14,6.14,0,0,0,5.19,5.19V36.356A6.14,6.14,0,0,0,45.395,41.545Zm5.19-22.792v3.418a4.4,4.4,0,0,1-3.418-3.418Zm-43.831,0h3.418a4.4,4.4,0,0,1-3.418,3.418Zm0,22.792V38.127a4.4,4.4,0,0,1,3.418,3.418Zm43.831,0H47.166a4.4,4.4,0,0,1,3.418-3.418Z" transform="translate(-5 -17)" fill="#1c77c3"/>
        </g>
      </g>
      <g id="Group_237" data-name="Group 237" transform="translate(489.549 3778.831)">
        <rect id="Rectangle_142-44" data-name="Rectangle 142" width="47" height="26" rx="3" transform="translate(0.451 0.169)" fill="#efefef"/>
        <g id="Group_94-45" data-name="Group 94" transform="translate(0 0)">
          <path id="Path_1581-45" data-name="Path 1581" d="M30.766,22a8.766,8.766,0,1,0,8.766,8.766A8.766,8.766,0,0,0,30.766,22Zm0,15.779a7.013,7.013,0,1,1,7.013-7.013A7.013,7.013,0,0,1,30.766,37.779Z" transform="translate(-7.097 -17.617)" fill="#1c77c3"/>
          <path id="Path_1582-45" data-name="Path 1582" d="M31.63,28.507h1.753a.877.877,0,1,0,0-1.753h-.877v-.877a.877.877,0,1,0-1.753,0v1.038a2.623,2.623,0,0,0,.877,5.1.877.877,0,1,1,0,1.753H29.877a.877.877,0,1,0,0,1.753h.877V36.4a.877.877,0,0,0,1.753,0V35.358a2.623,2.623,0,0,0-.877-5.1.877.877,0,0,1,0-1.753Z" transform="translate(-7.961 -17.987)" fill="#1c77c3"/>
          <path id="Path_1583-45" data-name="Path 1583" d="M51.461,17H5.877A.877.877,0,0,0,5,17.877V42.422a.877.877,0,0,0,.877.877H51.461a.877.877,0,0,0,.877-.877V17.877A.877.877,0,0,0,51.461,17ZM45.395,41.545H11.943a6.14,6.14,0,0,0-5.19-5.19V23.943a6.14,6.14,0,0,0,5.19-5.19H45.395a6.14,6.14,0,0,0,5.19,5.19V36.356A6.14,6.14,0,0,0,45.395,41.545Zm5.19-22.792v3.418a4.4,4.4,0,0,1-3.418-3.418Zm-43.831,0h3.418a4.4,4.4,0,0,1-3.418,3.418Zm0,22.792V38.127a4.4,4.4,0,0,1,3.418,3.418Zm43.831,0H47.166a4.4,4.4,0,0,1,3.418-3.418Z" transform="translate(-5 -17)" fill="#1c77c3"/>
        </g>
      </g>
      <g id="Group_269" data-name="Group 269" transform="translate(673.049 3498.492)">
        <rect id="Rectangle_142-45" data-name="Rectangle 142" width="46" height="26" rx="3" transform="translate(0.951 0.508)" fill="#efefef"/>
        <g id="Group_94-46" data-name="Group 94" transform="translate(0 0)">
          <path id="Path_1581-46" data-name="Path 1581" d="M30.766,22a8.766,8.766,0,1,0,8.766,8.766A8.766,8.766,0,0,0,30.766,22Zm0,15.779a7.013,7.013,0,1,1,7.013-7.013A7.013,7.013,0,0,1,30.766,37.779Z" transform="translate(-7.097 -17.617)" fill="#1c77c3"/>
          <path id="Path_1582-46" data-name="Path 1582" d="M31.63,28.507h1.753a.877.877,0,1,0,0-1.753h-.877v-.877a.877.877,0,1,0-1.753,0v1.038a2.623,2.623,0,0,0,.877,5.1.877.877,0,1,1,0,1.753H29.877a.877.877,0,1,0,0,1.753h.877V36.4a.877.877,0,0,0,1.753,0V35.358a2.623,2.623,0,0,0-.877-5.1.877.877,0,0,1,0-1.753Z" transform="translate(-7.961 -17.987)" fill="#1c77c3"/>
          <path id="Path_1583-46" data-name="Path 1583" d="M51.461,17H5.877A.877.877,0,0,0,5,17.877V42.422a.877.877,0,0,0,.877.877H51.461a.877.877,0,0,0,.877-.877V17.877A.877.877,0,0,0,51.461,17ZM45.395,41.545H11.943a6.14,6.14,0,0,0-5.19-5.19V23.943a6.14,6.14,0,0,0,5.19-5.19H45.395a6.14,6.14,0,0,0,5.19,5.19V36.356A6.14,6.14,0,0,0,45.395,41.545Zm5.19-22.792v3.418a4.4,4.4,0,0,1-3.418-3.418Zm-43.831,0h3.418a4.4,4.4,0,0,1-3.418,3.418Zm0,22.792V38.127a4.4,4.4,0,0,1,3.418,3.418Zm43.831,0H47.166a4.4,4.4,0,0,1,3.418-3.418Z" transform="translate(-5 -17)" fill="#1c77c3"/>
        </g>
      </g>
      <g id="Group_270" data-name="Group 270" transform="translate(369.077 3646.205)">
        <rect id="Rectangle_142-46" data-name="Rectangle 142" width="46" height="26" rx="3" transform="translate(0.923 -0.205)" fill="#efefef"/>
        <g id="Group_94-47" data-name="Group 94" transform="translate(0 0)">
          <path id="Path_1581-47" data-name="Path 1581" d="M30.766,22a8.766,8.766,0,1,0,8.766,8.766A8.766,8.766,0,0,0,30.766,22Zm0,15.779a7.013,7.013,0,1,1,7.013-7.013A7.013,7.013,0,0,1,30.766,37.779Z" transform="translate(-7.097 -17.617)" fill="#1c77c3"/>
          <path id="Path_1582-47" data-name="Path 1582" d="M31.63,28.507h1.753a.877.877,0,1,0,0-1.753h-.877v-.877a.877.877,0,1,0-1.753,0v1.038a2.623,2.623,0,0,0,.877,5.1.877.877,0,1,1,0,1.753H29.877a.877.877,0,1,0,0,1.753h.877V36.4a.877.877,0,0,0,1.753,0V35.358a2.623,2.623,0,0,0-.877-5.1.877.877,0,0,1,0-1.753Z" transform="translate(-7.961 -17.987)" fill="#1c77c3"/>
          <path id="Path_1583-47" data-name="Path 1583" d="M51.461,17H5.877A.877.877,0,0,0,5,17.877V42.422a.877.877,0,0,0,.877.877H51.461a.877.877,0,0,0,.877-.877V17.877A.877.877,0,0,0,51.461,17ZM45.395,41.545H11.943a6.14,6.14,0,0,0-5.19-5.19V23.943a6.14,6.14,0,0,0,5.19-5.19H45.395a6.14,6.14,0,0,0,5.19,5.19V36.356A6.14,6.14,0,0,0,45.395,41.545Zm5.19-22.792v3.418a4.4,4.4,0,0,1-3.418-3.418Zm-43.831,0h3.418a4.4,4.4,0,0,1-3.418,3.418Zm0,22.792V38.127a4.4,4.4,0,0,1,3.418,3.418Zm43.831,0H47.166a4.4,4.4,0,0,1,3.418-3.418Z" transform="translate(-5 -17)" fill="#1c77c3"/>
        </g>
      </g>
      <path id="Path_2554" data-name="Path 2554" d="M0,3.976l3.983-.849L24.479,0l1.142,7.674-9.4,1.706C40.7,23.622,74.3,21.916,95.648,3.127L100.774,9.1C76,31.3,37.572,32.709,9.666,15.092l2,12.213L3.69,28.448.564,7.674,0,3.976Z" transform="translate(686.491 3631.155) rotate(-59)"/>
      <path id="Path_2555" data-name="Path 2555" d="M0,26.57l4.325.922,22.254,3.395,1.24-8.332L17.61,20.7c26.579-15.464,63.064-13.612,86.24,6.789L109.416,21c-26.9-24.1-68.622-25.632-98.922-6.5L12.665,1.24,4.007,0,.612,22.555,0,26.57Z" transform="matrix(0.766, -0.643, 0.643, 0.766, 232.456, 3692.199)"/>
      <path id="Path_2557" data-name="Path 2557" d="M0,26.57l4.325.922,22.254,3.395,1.24-8.332L17.61,20.7c26.579-15.464,63.064-13.612,86.24,6.789L109.416,21c-26.9-24.1-68.622-25.632-98.922-6.5L12.665,1.24,4.007,0,.612,22.555,0,26.57Z" transform="translate(354.216 4144.54) rotate(-137)"/>
      <path id="Path_2549" data-name="Path 2549" d="M0,14.736H19.58L15.16,19.156l4.421,4.421L31.369,11.789,19.58,0,15.16,4.421,19.58,8.841H0Z" transform="translate(722.688 3862.062)" fill="#7d0407"/>
      <text id="Intial_deposit_of_10" data-name="Intial deposit of $10" transform="translate(171 3444)" fill="#070707" font-size="16" font-family="MuseoSans-900, Museo Sans" font-weight="900"><tspan x="0" y="15">Intial deposit of $10</tspan></text>
      <text id="Bank_keeps_10_in_reserve" data-name="Bank keeps 10% in reserve" transform="translate(476.172 3328)" fill="#070707" font-size="16" font-family="MuseoSans-900, Museo Sans" font-weight="900"><tspan x="0" y="15">Bank keeps 10% </tspan><tspan x="0" y="34">in reserve</tspan></text>
      <text id="Bank_keeps_10_in_reserve-2" data-name="Bank keeps 10% in reserve" transform="translate(674 3712)" fill="#070707" font-size="16" font-family="MuseoSans-900, Museo Sans" font-weight="900"><tspan x="0" y="15">Bank keeps 10% </tspan><tspan x="0" y="34">in reserve</tspan></text>
      <text id="Bank_keeps_10_in_reserve-3" data-name="Bank keeps 10% in reserve" transform="translate(767 3895)" fill="#070707" font-size="16" font-family="MuseoSans-900, Museo Sans" font-weight="900"><tspan x="0" y="15">Bank keeps 10% </tspan><tspan x="0" y="34">in reserve</tspan></text>
      <text id="Bank_keeps_10_in_reserve-4" data-name="Bank keeps 10% in reserve" transform="translate(283 3856)" fill="#070707" font-size="16" font-family="MuseoSans-900, Museo Sans" font-weight="900"><tspan x="0" y="15">Bank keeps 10% </tspan><tspan x="0" y="34">in reserve</tspan></text>
      <text id="Bank_keeps_10_in_reserve-5" data-name="Bank keeps 10% in reserve" transform="translate(161 3937)" fill="#070707" font-size="16" font-family="MuseoSans-900, Museo Sans" font-weight="900"><tspan x="0" y="15">Bank keeps 10% </tspan><tspan x="0" y="34">in reserve</tspan></text>
      <text id="Bank_loans_9" data-name="Bank loans $9" transform="translate(659 3444)" fill="#070707" font-size="16" font-family="MuseoSans-900, Museo Sans" font-weight="900"><tspan x="0" y="15">Bank loans $9</tspan></text>
      <text id="Bank_loans_8.10" data-name="Bank loans $8.10" transform="translate(347 3586)" fill="#070707" font-size="16" font-family="MuseoSans-900, Museo Sans" font-weight="900"><tspan x="0" y="15">Bank loans $8.10</tspan></text>
      <text id="Bank_loans_7.29" data-name="Bank loans $7.29" transform="translate(424 3815)" fill="#070707" font-size="16" font-family="MuseoSans-900, Museo Sans" font-weight="900"><tspan x="0" y="15">Bank loans $7.29</tspan></text>
      <text id="Bank_loans_6.56" data-name="Bank loans $6.56" transform="translate(473 3947)" fill="#070707" font-size="16" font-family="MuseoSans-900, Museo Sans" font-weight="900"><tspan x="0" y="15">Bank loans $6.56</tspan></text>
      <text id="Bank_loans_5.90" data-name="Bank loans $5.90" transform="translate(386 4069)" fill="#070707" font-size="16" font-family="MuseoSans-900, Museo Sans" font-weight="900"><tspan x="0" y="15">Bank loans $5.90</tspan></text>
      <text id="Total_money_now_in_economy:_46.85_for_a_468_growth" data-name="Total money now in economy: $46.85 for a 468% growth" transform="translate(563 4099)" fill="#7d0404" font-size="20" font-family="MuseoSans-900, Museo Sans" font-weight="900"><tspan x="0" y="19">Total money now in economy: </tspan><tspan x="0" y="43">$46.85 for a 468% growth</tspan></text>
      <g id="Group_297" data-name="Group 297" transform="translate(605 -283)">
        <rect id="Rectangle_142-47" data-name="Rectangle 142" width="46.378" height="26.037" rx="3" transform="translate(208.296 4169.94) rotate(180)" fill="#efefef"/>
        <g id="Group_94-48" data-name="Group 94" transform="translate(209.167 4170.381) rotate(180)">
          <path id="Path_1581-48" data-name="Path 1581" d="M8.766,0a8.766,8.766,0,1,0,8.766,8.766A8.766,8.766,0,0,0,8.766,0Zm0,15.779a7.013,7.013,0,1,1,7.013-7.013,7.013,7.013,0,0,1-7.013,7.013Z" transform="translate(14.903 4.383)" fill="#7d0404"/>
          <path id="Path_1582-48" data-name="Path 1582" d="M2.63,3.506H4.383a.877.877,0,1,0,0-1.753H3.507V.877a.877.877,0,1,0-1.753,0V1.915a2.623,2.623,0,0,0,.877,5.1.877.877,0,1,1,0,1.753H.877a.877.877,0,1,0,0,1.753h.877V11.4a.877.877,0,1,0,1.753,0V10.358a2.623,2.623,0,0,0-.877-5.1.877.877,0,0,1,0-1.753Z" transform="translate(21.039 7.013)" fill="#7d0404"/>
          <path id="Path_1583-48" data-name="Path 1583" d="M46.461,0H.877A.877.877,0,0,0,0,.877V25.422a.877.877,0,0,0,.877.877H46.461a.877.877,0,0,0,.877-.877V.877A.877.877,0,0,0,46.461,0ZM40.395,24.545H6.943a6.14,6.14,0,0,0-5.19-5.19V6.943a6.14,6.14,0,0,0,5.19-5.19H40.395a6.14,6.14,0,0,0,5.19,5.19V19.356A6.14,6.14,0,0,0,40.395,24.545Zm5.19-22.792V5.172a4.4,4.4,0,0,1-3.418-3.418Zm-43.831,0H5.172A4.4,4.4,0,0,1,1.753,5.172Zm0,22.792V21.127a4.4,4.4,0,0,1,3.418,3.418Zm43.831,0H42.166a4.4,4.4,0,0,1,3.418-3.418Z" fill="#7d0404"/>
        </g>
      </g>
    </g>
  </g>
</svg>
