<svg xmlns="http://www.w3.org/2000/svg" width="965.549" height="725" viewBox="0 0 965.549 725">
  <g id="Group_751" data-name="Group 751" transform="translate(-2002.754 6633.103)">
    <path id="Path_1622" data-name="Path 1622" d="M2079.665-6633.1c-2.793,2.409-5.953,4.515-8.277,7.313s-3.84,6.309-5.708,9.507c3.046,1.547,6.031,4.292,9.147,4.449,20.539,1.038,41.106,1.489,61.661,2.195,9.037.309,9.206,8.627,12.556,14.08,2.728,4.439-1.217,5.857-3.264,8.562-1.868,2.471-2.533,5.983-3.229,9.146-.352,1.6.963,3.594.553,5.153-1.56,5.916.844,8.925,6.44,10.333,1.334.336,2.414,1.671,4.771,3.4-3.052,3.274-6.053,6.083-8.517,9.3-1.269,1.659-2.738,4.494-2.145,6.041,4.792,12.454,20.681,16.3,31.145,7.816,1.512-1.227,2.9-2.6,4.466-4.005,2.515,6.62.609,11.649-5.492,13.77-3.5,1.217-7.351,1.437-11.029,2.175-5.963,1.2-9.589,4.245-10.709,10.783a35.624,35.624,0,0,1-5.37,13.552c-4.353,6.458-1.3,11.01,2.109,16.191,1.861,2.827,2.492,6.43,3.979,9.539,3.184,6.661,5.918,13.71,10.265,19.534,1.26,1.688,7.625.459,11.173-.785,2.1-.738,3.272-4.125,5.59-7.328,2.76,9.723.185,14.708-6.667,16.5a45.77,45.77,0,0,1-5.944.929c-11.663,1.454-12.93,2.721-14.278,14.277-.232,1.994-.066,4.23-.932,5.921-4.037,7.876-4.692,14.96,2.8,21.463.92.8-.159,4.579-1.054,6.657-4.058,9.419,5.076,24.181,15.225,23.329,3.924-.329,7.594-3.683,11.266-5.6,1.29,6.895-.822,10.189-7.779,11.5-2.963.559-5.936,1.071-8.884,1.7-5.89,1.259-9.078,4.963-9.653,10.93-.266,2.75-.276,5.544-.782,8.247-1.376,7.352-4.3,13.251-12.006,16.5-13.339,5.627-21.76,15.866-24.106,30.3-.441,2.71,1.716,5.844,2.674,8.783,2.114-2.186,4.289-4.319,6.307-6.589.616-.693.8-1.769,1.388-3.143l5.833,2.267v-10l1.29-.434c1.248,2.464,2.5,4.93,3.95,7.8l6.558-2.559c5.016,3.232,9.906,6.38,15.533,10.008l2.829-6.069c.814,3.938,1.1,5.3,1.6,7.741,2.689-5.569,4.963-10.281,8.1-16.786l2.539,9.571,7.463-11.35c-1.379,12.351-1.921,23.071-3.9,33.52-2.838,15.006-6.936,29.768-10.064,44.727a179.944,179.944,0,0,0-2.839,21.574c-2.379,28.01-5.282,56-6.591,84.066-.944,20.25.463,40.6.571,60.909.125,23.82-.013,47.644-.094,71.465,0,.612-.636,1.221-1.762,3.241-3.519-7.53-6.575-14.065-9.631-20.6l-.819.076c.453,2.432.491,5.038,1.432,7.263,3.187,7.528,6.764,14.888,10.011,22.392a7.291,7.291,0,0,1,.216,4.372c-5.573,22.026-11.247,44.028-17.341,67.77H2002.754v-75.355l24.41-5.98c.749,4.867,1.027,8.121,1.9,11.2.186.655,3.691,1.114,3.755.946a70.193,70.193,0,0,0,3.828-12.467c.118-.68-3.566-2.7-5.634-2.957-9.393-1.159-18.836-1.907-28.263-2.8v-51.24c8.31-.967,12.382-6.168,11.683-14.131-.784-8.917-6.812-5.753-11.683-5.46v-146.187c2.211-.372,4.622-.318,6.581-1.23,2.219-1.033,4.034-2.932,6.025-4.455-1.979-1.815-3.7-4.427-6.019-5.187-1.8-.589-4.364,1.133-6.587,1.829v-114.538c.739,2.849,1.98,5.672,2.128,8.552.628,12.186.871,24.392,1.426,36.583.074,1.614,1.133,3.185,1.735,4.776l2.465-.417c3.917-85.08,2.46-170.2,1.068-256.3l-8.822,1.845v-52.747c2.958.416,5.954,1.374,8.865,1.161,26.3-1.933,51.62,7.959,78.043,6,13.107-.973,26.438,1.4,39.676,1.55,2.939.034,5.915-2.9,8.874-4.462-2.577-1.647-5.06-4.537-7.744-4.739-16.944-1.266-33.927-2.095-50.912-2.687-4.068-.142-8.173,1.269-12.286,1.762-4.441.532-9.073,1.779-13.335,1.052-14.677-2.51-28.329-10.044-43.832-8.82-2.4.19-4.9-.879-7.348-1.368v-9.042c10.361-1.652,12.314-9.608,13.573-18.084Zm40.671,649.97c-.381-1.75-.4-3.84-1.263-5.5-6.659-12.892-13.258-25.824-20.35-38.478-3.149-5.617-10.567-4.646-14.068,1.364-5.9,10.138-5.906,10.148-16.486,7.32-4.225-1.128-6.954.6-5.989,4.782a84.93,84.93,0,0,0,5.859,16.5c2.722,5.862,6.666,11.171,9.253,17.082,2.16,4.936,5.471,6.371,10.144,5.251C2098.249-5977.406,2109-5980.251,2120.335-5983.133ZM2032.3-6534.291c-6.466,1.586-8.036,5.159-8.07,9.763-.08,10.795-.344,21.6-.083,32.384.743,30.832,1.76,61.656,2.58,92.485.846,31.783,1.548,63.568,2.42,95.35.116,4.274.844,8.53,1.29,12.793l1.864-.166Zm43.686,282,2.844-2.467c-.786-4.531-1.59-9.058-2.344-13.594-.195-1.171-.787-2.783-.259-3.494,6.576-8.814,3.733-18.765,3.677-28.384-.032-5.529-.554-11.886-7.432-11.541-6.292.317-4.621,6.97-4.361,11.026,1.087,16.978,2.813,33.913,4.068,50.88.7,9.461,6.773,16.23,16.169,15.95,2.494-.074,6.572-3.487,6.925-5.821.542-3.578.643-8.563-6.191-8.715C2084.694-6248.55,2080.353-6250.935,2075.99-6252.295Zm44.518-331.425-.012.292c-3.5-.169-7.034-.648-10.5-.372a7.382,7.382,0,0,0-4.847,2.689c-.515.706.787,3.054,1.667,4.4,2.184,3.332,4.574,6.53,6.922,9.75,4.417,6.057,8.653,12.266,13.42,18.037,1.542,1.866,4.51,2.555,6.826,3.783.695-2.478,1.947-4.952,1.979-7.439.087-6.919-.882-13.882-.421-20.759.669-9.989,1.048-9.977-9.007-10.366C2124.525-6583.787,2122.515-6583.72,2120.508-6583.72Zm-47.59,394.122c8.344-.9,12.647-5.536,14.562-16.474.513-2.923.24-7.585-1.551-8.905-2.246-1.656-6.723-1.62-9.709-.663-6.288,2.013-7.546,7.582-6.67,13.411C2070.167-6198.117,2071.671-6194.141,2072.917-6189.6Zm-19.557,253.509.192-2.53a71.507,71.507,0,0,0,6.522,4.167c2.124,1.072,4.753,2.709,6.679,2.218,2.4-.612,4.3-3.156,6.417-4.864-2.167-1.367-4.293-3.812-6.511-3.9a98.664,98.664,0,0,0-20.834.937c-2.378.417-5.595,4.475-5.793,7.068-.374,4.9,3.95,3.657,6.485,2.415C2049.082-5931.836,2051.1-5934.2,2053.361-5936.088Zm-25.8-283.4-.847,2.047,3.705,15.912c1.867-4.048,4.9-7.8,4.8-11.455C2035.151-6215.223,2030.272-6217.328,2027.557-6219.491Zm-21.762,131.032c6.135,1.756,10.712,1.233,14.153-3.211.414-.535-.592-3.159-1.5-3.554C2012.339-6097.912,2009.493-6093.5,2005.794-6088.459ZM2120.863-6476.5c.843-6.731-2.2-10.146-7.693-12.806C2111.537-6482.4,2113.289-6478.211,2120.863-6476.5Zm-88.669,368.755c-2.907-1.692-4.909-3.569-5.665-3.159-2.084,1.129-3.648,3.221-5.417,4.932,1.207,1.2,2.9,3.639,3.535,3.388C2026.889-6103.471,2028.77-6105.275,2032.193-6107.745Zm38.313-417.9-1.868.216v12.828l1.868-.107Zm-41.739,389.867c-9.476.883-10.742,2.873-6.773,9.122Zm16.491-72.8,16.935-7.4C2051.927-6216.427,2047.023-6214.243,2045.259-6208.578Z" transform="translate(0 0)" fill="#a70505"/>
    <path id="Path_1623" data-name="Path 1623" d="M2357.16-6633.1c1.653,13.391-3.91,24.878-11.577,34.709-5.159,6.615-6.127,13.246-6.537,20.731-.388,7.116-.035,14.47-1.779,21.266-2.127,8.282-4.782,17.026-9.629,23.854-5.534,7.793-6.726,16.7-9.714,25.023-6.7,18.666-12.017,37.829-17.925,56.781-.583,1.868-1.364,3.673-2.232,5.985-1.837-1.235-3.986-1.871-4.542-3.184-4.375-10.3-10.372-20.433-12.071-31.212-1.705-10.816.012-22.492,1.98-33.477,2.235-12.476,6.685-24.538,9.671-36.9,3.057-12.657,5.68-25.427,8.112-38.219a37.149,37.149,0,0,0-.065-11.211c-1.507-12.413.914-23.813,8.051-34.146Z" transform="translate(141.744 0)" fill="#a70505"/>
    <path id="Path_1624" data-name="Path 1624" d="M2681.536-6633.1c-.128,16.066-.451,32.134-.285,48.2.059,5.781-2.243,7.276-7.613,7-19.785-1-39.588-1.663-59.379-2.534-12.734-.562-25.455-1.459-38.192-1.832-6.357-.185-8.7-3.191-10.606-9.115-4.534-14.077,1.945-27.849-.044-41.717Z" transform="translate(286.374 0)" fill="#a70505"/>
    <path id="Path_1625" data-name="Path 1625" d="M2583.4-6633.1c.979,9.889,2.2,19.688-.776,29.587-1.636,5.434-2.148,11.279-2.563,16.98-.355,4.864-3.075,5.646-7.043,5.563-18.267-.379-36.539-.93-54.805-.883-5.359.014-10.78,1.932-11.81-6.468l-4.424,1.856v-37.758c9.075,5.414,13.638,2.226,15.066-8.877Z" transform="translate(254.814 0)" fill="#a70505"/>
    <path id="Path_1626" data-name="Path 1626" d="M2102.135-6633.1c3.832,12.776,2.536,14.287-10.3,11.778q-11.249-2.2-22.454-4.612c-4.115-.882-5.281-3.345-3.439-7.166Z" transform="translate(31.82 0)" fill="#a70505"/>
    <path id="Path_1627" data-name="Path 1627" d="M2191.115-6456.708c.961-.186,1.761-.6,2.4-.421,3.61,1,9.22,1.155,10.314,3.438,1.9,3.963-.167,8.395-4.81,11.249-1.416.871-1.923,5.24-1.123,7.354,4.253,11.232,23.413,21.414,35.479,19.284.682-.119,1.278-.709.213-1.807a84.259,84.259,0,0,0,2.808-9.4c.461-2.507,1.205-6.32-.088-7.557-5.644-5.4-11.475-11-18.225-14.749-6.167-3.426-19.415-15.094-22.508-21.935-2.355-5.206-5.67-9.979-8.5-14.843l-1.423,1.963c-12.486-8.014-16.415-21.337-21.313-34.224-1.112-2.921-4.144-5.588-6.948-7.295-5.724-3.48-9.8-17.821-5.442-22.776,1.448-1.647,4.906-2.128,7.446-2.128,46.965,0,93.93.334,140.893.151,11.736-.045,23.457-1.891,35.206-2.356,2.852-.113,5.79,1.965,8.688,3.036-1.253,2.522-1.853,5.959-3.877,7.4a196.051,196.051,0,0,1-22.01,13.757c-4.095,2.162-5.788,3.773-6.44,9.088-1.884,15.329-7.531,29.238-21.7,38.034a12.729,12.729,0,0,0-4.523,6.139c-3.682,9.8-7,19.733-10.479,29.611-.245.7-1.007,1.348-.971,1.99,1.139,19.614-15.258,26.138-27.171,35.642-7.019,5.6-9.532,13.227-5.037,21.2,4.14,7.341,7.974,14.857,12.541,23.418,7.684-10.32,10.916-21.288,14.049-32.216,3.126-10.91,5.752-21.965,8.8-33.728,9.927,12.649,23.233,20.741,41.838,23.987.041-7.6.175-14.556.071-21.506-.049-3.208-1.722-6.952-.541-9.456,1.151-2.439,4.85-4.329,7.751-4.947,1.049-.223,3.962,3.773,4.41,6.147a121.984,121.984,0,0,1,2.127,19.679c.089,3.755-1.357,7.544-2.167,11.6l-6.638.884-1.1,2.057c8.262,4.491,16.543,8.945,24.783,13.479,14.017,7.713,28.228,15.116,41.86,23.46,3.711,2.272,6.306,7.146,8.254,11.36,5.029,10.875,9.808,21.905,13.86,33.172,1.739,4.834,3.577,6.889,8.934,6.659,9.011-.385,18.06.223,27.092.207,4.562-.008,5.57,2.085,4.826,6.2-1.734,9.575-3.243,19.19-4.852,28.789-.081.491-.073,1.19-.386,1.422-9.9,7.41-8.279,21.705-16.1,29.13-7.241,6.874-4.885,12.557-3.24,19.246.494,2.014,2.835,5.1,4.176,5.021,2-.115,4.633-2.216,5.6-4.166a20.068,20.068,0,0,0,1.609-8.708c.009-9.27,2.205-10.967,11.219-8.066a31.123,31.123,0,0,1,2.987,1.263c-6.013,13.222-11.9,26.113-17.723,39.027-.918,2.035-2.424,4.272-2.225,6.272,2.169,21.769-7.973,41-12.547,61.345-3.347,14.882-8.132,29.436-11.725,44.27-1.633,6.736-1.66,13.846-2.936,20.688-.816,4.371-2.583,8.565-4.129,13.5l7.855-.825c0,.978.186,1.743-.027,1.88-9.814,6.231-9.544,16.306-10.633,26.19-.659,5.965-3.524,11.65-4.783,17.592-1.293,6.094-1.583,12.4-2.767,18.521-2.741,14.177-5.756,28.3-8.721,42.735h-71.72c2.844-14.621-1.48-29.642,5.588-42.818-.479-3.87-1.711-7.649-1.273-11.225,4.88-39.817,10.135-79.589,15.009-119.407,1.273-10.4,1.742-20.91,2.293-31.386,1.29-24.54,1.03-49.273,4.27-73.543,1.3-9.722-1.748-18-1.856-27.019-.193-15.936-2.063-31.845-2.914-47.781-.255-4.8-1.812-6.921-6.83-7.882-19.868-3.8-39.648-8.067-59.418-12.358-4.933-1.069-10.127-1.472-9.635-9.488.3-4.879-2.3-10.294-4.7-14.9-3.814-7.34-5.972,1-9.593.986,1.234,4.9,2.263,9.229,3.424,13.527,2,7.406,1.228,8.259-7.56,7.66l3.734-12.27-1.4-.675c-1.951,3.445-3.714,7.017-5.937,10.278-1.031,1.512-2.954,2.416-4.473,3.6-.618-2.013-1.924-4.091-1.737-6.028.936-9.713,2.452-19.37,3.4-29.082.906-9.316-3.918-16.641-10.233-22.442-2.977-2.736-3.727-4.629-1.595-7.22,6-7.279,1.165-11.871-3.7-16.495-6.158-5.853-12.249-11.792-18.67-17.348C2187.329-6433.711,2187.64-6444.79,2191.115-6456.708ZM2381.691-6000.8c-9.591,9.291-3.441,20.05-4.251,31.587C2384.5-5978.585,2386.276-5994.138,2381.691-6000.8ZM2243.813-6499.22c-3.033,4.805-5.844,7.376-6.073,10.16-.224,2.709,1.962,5.791,3.634,8.354.384.587,4.033.2,4.394-.573a14.7,14.7,0,0,0,1.513-7.359C2246.99-6491.457,2245.546-6494.159,2243.813-6499.22Zm180.3,246.4c5.327-11.6,4.649-14.288-4.992-20.181C2420.871-6265.931,2422.249-6260.36,2424.112-6252.824ZM2386.532-6011.5l2.514.944q4.622-11.766,9.244-23.529l-2.06-.807Zm-146.5-344.437,4.169-.064a52.937,52.937,0,0,0,.287-8.759c-.05-.45-3.4-.545-5.225-.8Q2239.645-6360.748,2240.03-6355.932Z" transform="translate(75.22 41.004)" fill="#a70505"/>
    <path id="Path_1628" data-name="Path 1628" d="M2597.236-6293.733c-11.93-3.441-23.984-6.515-35.735-10.482-5.38-1.818-9.292-2.13-13.42,2.423-1.705,1.88-5.613,1.621-7.723,3.321-2.181,1.759-4.36,4.536-4.85,7.179-1.3,7.012-1.682,14.192-2.2,19.085-1.386-5.465-3.693-12.648-4.822-20.011-.414-2.706,1.96-5.836,3.825-10.8-6.723,4.613-7.7,10.129-8.169,15.422-.477,5.389-2.5,8.975-8.739,10.887-1.1-6.946.411-12.6,5.237-17.425,3.4-9.69,7.221-19.26,10.011-29.122,1.328-4.7.69-9.954.944-14.957l-2.367-.122-8.035,12.845a27.29,27.29,0,0,1,2.613,13.733c-.5,5.928-2.063,11.764-3.169,17.64-6.528-2.747-11.349,2.146-15.308,5.171-3.236,2.473-4.469,2.585-7.312.728-4.028-2.632-8.233-5-13.426-8.113-3.084,9.729-6.176,18.163-17.573,13.982l-3.426,6.08-2.539.136c-.793-5.288-1.781-10.56-2.19-15.877-.069-.906,2.245-2.708,3.622-2.895,8.015-1.094,12.368-6.359,16.429-13.466-6.208-.407-11.318,9.682-18.6,1.152,3.376-1.645,5.476-2.668,8.788-4.279-2.312-.886-3.732-2-4.605-1.673-8.221,3.108-10.508-4.913-9.839-8.11,1.909-9.125-4.5-12.233-9.171-16.929a27.893,27.893,0,0,1-1.8-2.34c7.824-2.039,4.752-6.357,2.352-10.454-2.527-4.315-5.487-8.4-7.688-12.872-1.223-2.484-1.285-5.54-1.87-8.337l2.441-1.106c3.868,6.6,7.738,13.193,12.056,20.555,7.26-6.325,11.89.525,17.1,3.34,13.87,7.5,25.938,5.268,38.543-3.709,9.056-6.448,13.316-16.278,20.543-23.894,1.886-1.986,2.462-5.492,3.008-8.417,1.894-10.138,5.069-20.371,4.79-30.485-.275-9.945-4.05-19.822-6.631-29.637-.281-1.063-2.882-2.232-4.34-2.15a134.206,134.206,0,0,0-26.1,3.561,66.46,66.46,0,0,0,8.219,1.947c6.02.674,11.145,1.823,9.872,9.859-.145.914,1.725,2.106,2.586,3.227a20.339,20.339,0,0,1,3.462,6.064c-6.016-1.449-10.608-2.517-15.248,3.267-3.226,4.022-13.193-.329-16.642-6.083-1.4-2.331-3.059-4.507-4.413-6.861-1.165-2.021-2.066-4.2-3.139-6.417-1.621,5.69-3,10.9-4.6,16.046-1.989,6.412-6.915,7.4-12.967,7.73a57.831,57.831,0,0,0-18.04,3.693c-3.5,1.4-6.1,5.385-8.744,8.508-3.644,4.3-6.951,8.881-11.105,14.247-2.872-1.152-7.682-1.555-9.168-3.986a71.008,71.008,0,0,1-7.788-19.123c-.338-1.311,4.749-4.022,8.147-6.74-.16-6.046-1.5-12.75-9.416-16.391-2.641-1.215-4.82-3.589-6.984-5.669-8.268-7.949-6.981-7.907-.465-17.2,15.21-21.688,38.227-26.613,61.61-31.933,19.161-4.359,37.307,1.037,55.75,4.254,7.163,1.251,14.426,2.02,21.5,3.63a24.986,24.986,0,0,1,8.945,4.6c10.363,7.738,14.142,16.315,6.77,29.171-3.2,5.575-1.429,14.065-1.679,21.239-.237,6.761.242,13.575-.438,20.278-.254,2.5-2.89,4.765-5.136,8.2-1.961-9.218-3.411-16.044-4.862-22.871-3.974,7.956,5.8,18.687-9.278,23.561,1.973,3.314,3.691,6.206,5.412,9.1l.875-.825c1.854,7.663,3.707,15.324,5.859,24.226-8.513-.047-7.871-6.665-8.539-12.165l-2.446-.081c-1.475,10.744-3.236,21.465-4.043,32.257-.094,1.252,5.085,4.118,7.86,4.17,21.85.41,43.708.414,65.564.337,12.524-.045,12.5-.218,12.226,12.353-.082,3.764.01,7.533.086,11.3.219,10.939,1.677,12.621,12.307,13.922a45.477,45.477,0,0,0,8.268.421c6.557-.41,9.919.815,9.522,9.039-.476,9.83,9.1,10.911,16.988,14.394-5.646,9.314-7.384,18.993,4.234,24.786,8.931,4.454,17.057,1.318,23.155-6.323,12.108,7.194,21.845,2.434,29.683-9.17,7.649-11.322,4.48-23.067,5.992-34.584.8-6.117-4.583-7.845-9.241-6.87a228.746,228.746,0,0,0-28.86,7.919c-4.566,1.6-8.408,2.258-9.388-2.759-.469-2.4,2.383-6.974,4.874-8.155,10.3-4.884,21.009-8.9,31.607-13.131,10.154-4.055,14.923-2.056,22.185,9.113,1.361,2.092,2.477,4.361,3.974,6.346,3.574,4.736,7.371,9.1,13.99,2.081,3.619,6.841,9.572,12.9,9.239,18.591-.618,10.545-1.512,20.736.446,31.295.417,2.242-4.8,6.671-8.252,8.091-2.4.988-6.839-.625-9.274-2.495-10.12-7.774-9.918-7.885-20.826-1.724-6.5,3.674-12.921,7.84-19.92,10.136-3.076,1.011-8.406-1.087-11.118-3.537-4.865-4.394-8.141-4.03-12.864.039-5.939,5.12-13.806,7.975-16.3,16.78-.541,1.908-5.083,2.486-7.511,4.088-10.672,7.034-21.032,14.565-31.916,21.25-11.239,6.9-13.961,17.185-14.457,29.37-.577,14.2-1.855,28.4-3.693,42.492-.719,5.519-1.063,9.428,7.655,10.513-3.022,2.427-4.49,3.7-6.052,4.843-7.559,5.541-7.795,12.428-.559,18.335,6.469,5.28,12.15,10.984,7.821,20.235a24.464,24.464,0,0,1-5.891,7.616c-4.1,3.639-9.34,6.437-5.609,13.313.552,1.018,1.064,2.639.638,3.517-6.21,12.787-.844,26.171-2.105,39.2a140.472,140.472,0,0,0-.3,20.153c.245,5.132,1.43,10.22,2.3,16.042-11.191,0-22.2-.014-33.207.006-5.85.011-4.511-4.486-4.417-7.6.654-21.579,1.846-43.144,2.264-64.725.512-26.34.947-52.7.315-79.03-.2-8.25,3.838-12.055,9.252-16.334l-8.22,1.664c-2.815-9.282-2.7-9.171,6.1-10.142,1.676-.186,4.415-3.217,4.322-4.8-.444-7.5,3.51-11.632,9.653-14.375,4.433-1.979,8.2-3.109,7.883-10.029-.219-4.839,4.558-9.758,6.49-14.876,3.006-7.963,5.374-16.166,8.253-24.179,1.04-2.889,2.769-5.533,4.184-8.288q1.106.355,2.212.714-3.267,12.863-6.534,25.727l1.366.928c3.95-3.437,7.913-6.86,11.844-10.318,8.386-7.373,16.976-14.538,24.983-22.3,2.121-2.057,3.4-5.983,3.4-9.05,0-12.638-8.542-22.256-20.363-26.161-12.6-4.159-24.79-9.563-37.066-14.65-1.6-.661-2.643-2.661-3.954-4.041l12.356,2.472c-2.394-4.663-3.266-7.994-5.36-10.125-5.589-5.685-11.528-11.063-17.657-16.169-6.2-5.169-13.923-4.076-19.26,2.118-2.823,3.276-3.554,5.77,1.341,8C2578.105-6303.192,2587.635-6298.384,2597.236-6293.733Zm-149.164-186.794c22.06.915,42,1.741,61.938,2.569C2490.2-6481.754,2470.349-6484.627,2448.072-6480.527Z" transform="translate(200.791 72.224)" fill="#a70505"/>
    <path id="Path_1629" data-name="Path 1629" d="M2544.167-6271.876c18.632-8.712,35.244-19.914,47.219-39.576,4.557,10.521,8.289,18.554,11.517,26.785,2.364,6.027,6.054,9.97,12.787,9.323a13.2,13.2,0,0,0,7.1-3.359c10.629-9.754,20.974-19.819,31.524-29.66,6.179-5.764,12.39-11.521,18.954-16.827,2.171-1.755,6.078-3.576,8.157-2.754,3.96,1.566,9.9,1.986,9.893,8.573-.009,6.272.091,12.547.092,18.82q.023,92.984.054,185.967c0,4.558-.152,8.2-4.857,11.41-2.72,1.855-3.575,7.347-4.075,11.35-.9,7.192-.626,14.525-1.467,21.725-.193,1.666-2.88,4.338-4.439,4.353-21.837.191-43.678.005-65.519-.125-.434,0-.864-.455-2.081-1.133.988-3.548,1.393-7.655,3.208-11,4.284-7.886,6.288-15.04-4.96-21.218,13.8-4.227,8.848-14.7,11.1-22.771,3.983-14.3.5-27.677-1.787-41.489-2.82-17.041-5.311-34.2-6.633-51.407-1.01-13.16-.105-13.244,12.942-15.782,1.472-.286,3.146.01,4.454-.57,1.887-.838,5.139-2.619,4.971-3.324-.562-2.365-1.941-5.717-3.808-6.356a47.912,47.912,0,0,0-13.937-2.245c-5.04-.154-7.128-1.634-8.241-7.1-3.114-15.273-7.322-30.329-11.491-47.037-8.719,7.942-14.716,15.581-22.542,19.928-8.013,4.451-17.817,5.676-26.837,8.313Z" transform="translate(276.346 155.653)" fill="#a70505"/>
    <path id="Path_1630" data-name="Path 1630" d="M2708.493-6398.9c-27.227,0-53.8.4-80.351-.143-17-.346-33.951-2.627-50.949-3.037s-34.013.587-51.022.675c-16.024.085-16.006-.081-15.671-16.211.39-18.769.725-37.541,1.116-56.31.219-10.471,1.646-11.965,11.807-11.231,14.935,1.08,29.914,1.959,44.73,3.988,3.91.537,7.287,4.974,10.91,7.62l-2.355.816c0,4.273.049,8.547-.032,12.818a24.778,24.778,0,0,1-.651,3.6c-.806,4.673-2.545,9.435-2.137,14,.427,4.776,2.921,9.368,5.054,15.632,1.461-9.689,8.383-16.695,5.387-26.922-1.781-6.08-2.014-12.8-1.843-19.2.13-4.8,3.729-7.268,8.816-7.334,37.357-.48,74.713-1.089,112.07-1.4,1.7-.015,4.889,2.382,4.9,3.684C2708.565-6451.307,2708.493-6424.76,2708.493-6398.9Zm-124.54-13.6c-2.337-3.168-3.841-5.206-5.344-7.245-1.962,2.688-4.652,5.159-5.554,8.165-.406,1.356,2.75,3.781,4.29,5.72C2579.284-6407.806,2581.222-6409.754,2583.953-6412.5Z" transform="translate(259.121 75.435)" fill="#a70505"/>
    <path id="Path_1631" data-name="Path 1631" d="M2358.144-6178.228l-10.014.707,10.4-6.095-.2-2.087-19.569-1.519c3.169-1.436,7.3-2.064,9.088-4.446,2.057-2.741,2.045-7.034,2.885-10.464a15.348,15.348,0,0,1,1.6-.785c2.639-.893,5.288-1.758,7.934-2.632-2.442-.676-4.878-1.369-7.325-2.02a11.753,11.753,0,0,1-6.009-3.139l17.956-9.286-.728-2.354H2355.6l-1.29-1.375c5.843-5.126,11.685-10.253,17.617-15.462l-16.447-3.437c.781-1.348,1.125-2.48,1.485-2.484,13.729-.192,14.018-12.029,17.935-20.656,1.8-3.955,3.3-8.042,5.864-11.76.326-3.845-10-1.479-6.048-8.53l9.492-.611c.935,5.6,1.787,11.942,3.1,18.188,1.272,6.058,7.981,8.432,12.728,3.876-1.569,23.48-3.09,46.256-4.611,69.035l-2.462.32-4.362-6.147c-1.024,6.861-2.383,12.354,2.273,18.206,2.262,2.845,1.989,8.124,1.951,12.292-.083,9.227-.745,18.446-1.193,28.162-8.733-2.935-2.347-10.264-5.67-15.892-9.354,14.613-3.912,30.885-8.845,43.917,5.028,2.194,11.512,3.054,12.511,5.863,2.116,5.945,2.489,13.114-2.716,19.333-4.182-3.586-7.86-6.736-12.461-10.68l-7.652,13.212h-36.685l-.394-1.047c3.5-1.459,7.147-2.639,10.439-4.464,2.476-1.374,4.492-3.572,6.712-5.4-2.1-2.294-3.939-4.943-6.392-6.763-1.785-1.323-4.386-1.552-7.774-2.637l21.044-11.44-25.909-10.193c3.622-1.344,7.108-3.343,10.8-3.869,9.893-1.41,11.686-7.93,11.252-16.726l-7.212-1.3c3.774-1.573,6.037-2.515,9.494-3.953-10.4-7.217-21.353-2.31-31.495-4.216,10.913-9.965,26.2-9.726,38.2-16.576Z" transform="translate(162.277 176.829)" fill="#a70505"/>
    <path id="Path_1632" data-name="Path 1632" d="M2532.609-6548.364c48.364,0,96.729-.108,145.092.105,8.239.037,16.466,1.542,24.713,2.2,4.3.342,6.321,2.195,5.966,6.7-.275,3.486-.018,7.014-.03,10.523-.027,8.021-1.921,8.979-10.021,8.546-16.11-.862-32.264-.913-48.4-1.333-10.869-.283-21.738-.849-32.607-.866-9.452-.015-18.441-.134-27.7-4-5.486-2.287-13.124.62-19.8,1.125a95.651,95.651,0,0,1-11.028.566c-13.134-.532-26.255-1.617-39.391-1.8-5.673-.08-8.362-3.413-6.616-7.205,2.491-5.409-9.236-15.725,5.523-16.5,4.752-.252,9.527-.039,14.292-.039C2532.606-6549.683,2532.607-6549.023,2532.609-6548.364Z" transform="translate(259.268 42.199)" fill="#a70505"/>
    <path id="Path_1633" data-name="Path 1633" d="M2198.747-6370.667c-11.18-.753-20.064-1.391-28.952-1.937-6.753-.417-13.509-.917-20.27-1.025-13.447-.215-13.448-.116-13.9-14.286a44.5,44.5,0,0,0,6.711-1.855c6.253-2.77,9.1.861,8.815,5.916-.479,8.39,3.673,6.2,9.077,4.708-1.489-3.946-2.808-7.437-4.36-11.552,4.505-5.078,3.585-7.636-7.086-12.843l8,.742c2.264-5.461,5.324-10.576,6.4-16.077,1.1-5.6.242-11.586,2.018-18.027,2.452,7.406,5.268,14.716,7.251,22.244,2.015,7.649,3.207,15.516,4.758,23.285l2.13-.163c-.887-8.684-2.362-17.359-2.5-26.054-.143-9.233.878-18.5,1.586-27.729.677-8.824.074-18.151,7.54-25.569,1.1,1.54,1.707,2.112,1.607,2.293-8.349,15.01-3.465,30.685-2.374,46.166a81.419,81.419,0,0,0,.609,8.871,117.675,117.675,0,0,0,3.279,13.922C2191.936-6390.538,2195.1-6381.538,2198.747-6370.667Z" transform="translate(67.82 82.795)" fill="#a70505"/>
    <path id="Path_1634" data-name="Path 1634" d="M2218.45-6581.339c15.683-6.22,26.448-1.564,37.577,7.258,8.854,7.018,12.764,16.249,17.146,25.572,1.079,2.293.9,6.243-.459,8.235-.884,1.3-5.167,1.138-7.544.4-8.078-2.5-16.826-4.3-23.667-8.842-4.644-3.085-8.406-10.068-9.195-15.773C2231.15-6572.852,2228.34-6578.45,2218.45-6581.339Z" transform="translate(110.096 24.965)" fill="#a70505"/>
    <path id="Path_1635" data-name="Path 1635" d="M2439.055-6234.227c7.534-.379,14.282-1.265,20.969-.923,9.377.479,12.751,6.167,9.268,14.9-1.763,4.417-1.752,7.674.8,12.382,6.965,12.833,4.848,27.118-15.769,26.957-15.022-.118-15.1.05-15.248-14.794C2438.959-6208.2,2439.055-6220.7,2439.055-6234.227Zm7.993,37.576c.24,4.388-.619,8.8,5.912,8.25,7.256-.606,11.955-3.887,11.444-8.988-.621-6.221-5.086-7.109-10.222-7.184C2448.24-6204.657,2446.073-6201.793,2447.049-6196.651Zm-2.018-22.685c1.813,1.927,3.37,5.088,5.49,5.527,4.5.928,11.271-5.095,10.493-9.406-.35-1.941-4.007-4.168-6.484-4.664C2449.173-6228.947,2445.795-6226.6,2445.031-6219.335Z" transform="translate(222.677 203.083)" fill="#a70505"/>
    <path id="Path_1636" data-name="Path 1636" d="M2223.16-6301.285c6.872,4.567,8.4,10.15,4.885,16.586-3.314,6.077-8.986,7.421-15.435,6.581-2.484-.323-4.981-.556-7.463-.9-10.414-1.448-9.987-1.381-8.193-11.331,1.809-10.034,2.845-20.222,3.835-30.38.414-4.253,2.2-5.829,6.255-5.257,4.952.7,10.049.862,14.831,2.175,10.381,2.847,12.483,11.66,4.921,19.328C2225.935-6303.613,2224.956-6302.858,2223.16-6301.285Zm-8.558,17.246c1.5-1.385,5.521-3.37,5.558-5.427.125-6.873-6.1-6.752-10.872-7.676-4.436-.859-5.43,1.813-5.777,5.679C2202.822-6283.806,2208.829-6285.9,2214.6-6284.039Zm-9.333-28.532c3.582,2.753,5.922,5.713,7.2,5.31,3.332-1.057,6.2-3.583,9.247-5.523-2.932-2.128-5.631-4.964-8.908-6.033C2211.51-6319.241,2208.931-6315.728,2205.269-6312.57Z" transform="translate(98.616 156.698)" fill="#a70505"/>
    <path id="Path_1637" data-name="Path 1637" d="M2442.954-6205.059c-1.411,4.5-2.675,10.836-5.34,16.514-4.191,8.924-14.6,10.164-21.721,3.5-6.2-5.8-8.359-13.3-7.807-21.059.485-6.813,2.613-13.676,5.019-20.144,2.5-6.705,8.337-8.854,15.264-8.012,6.557.8,10.34,4.892,11.755,10.954C2441.356-6218.026,2441.827-6212.572,2442.954-6205.059Zm-7.229-2.7c-.384-4.687.145-7.578-.958-9.566-1.776-3.2-4.461-7.882-7.069-8.09-2.682-.213-7.664,3.79-8.244,6.639a88.169,88.169,0,0,0-1.167,22.645c.134,2.246,3.882,5.8,6.184,5.976,2.485.189,6.442-2.295,7.578-4.659C2434.254-6199.4,2434.933-6204.726,2435.725-6207.755Z" transform="translate(206.846 203.488)" fill="#a70505"/>
    <path id="Path_1638" data-name="Path 1638" d="M2199.124-6290.649c-2.43,2.019-4.581,4.608-7.342,5.947-8.369,4.052-17.251,4.029-23.9-2.54-7.25-7.159-6.5-17.259-4.184-26.188,2.49-9.588,10.188-14.638,19.99-15.739,14.754-1.658,26.515,11.2,22.4,24.745-.844,2.775-4.252,4.773-6.477,7.129a73.439,73.439,0,0,1-2.356-7.724c-.618-3.181.305-7.312-1.406-9.48-2.673-3.385-6.764-7-10.7-7.609-3.057-.472-8.158,2.689-9.928,5.672-2.7,4.556-3.987,10.263-4.668,15.636-1.042,8.215,9.287,14.48,18.445,11.54,2.979-.956,5.826-2.317,8.733-3.494Z" transform="translate(81.323 155.058)" fill="#a70505"/>
    <path id="Path_1639" data-name="Path 1639" d="M2389.4-6274.1c2.4-1.9,3.812-3.017,5.525-4.37.853,2.559,1.536,4.6,2.713,8.128l12.955-28.326c3.874,13.944,7.619,27.427,11.4,41.058-3.838.278-3.838.278-9.09-11.4-12.751-3.669-12.556,7.284-17.276,14.368q-.571-5.565-1.142-11.13l-1.462-.312-5.918,10.113c-2.421-14.207-2.809-27.8,2.066-40.914l2.02.11C2390.632-6289.623,2390.066-6282.478,2389.4-6274.1Zm13.909.566c8.949-2.3,9.52-3.98,5.252-13.312C2406.678-6282.063,2405.312-6278.6,2403.313-6273.53Z" transform="translate(195.295 170.703)" fill="#a70505"/>
    <path id="Path_1640" data-name="Path 1640" d="M2442.493-6411.6c3.861-1.1,7.72-2.207,12.4-3.545-1.648-3.805-3.217-7.432-5.548-12.814,8.945,1.588,16.841,9.788,23.305-1.221,3.489,6.952,6.483,12.913,9.782,19.481a63.7,63.7,0,0,1-3.542,7.844c-1.473,2.488-4.624,6.784-5.315,6.473-3.764-1.7-8.816-3.881-10.066-7.174-3.576-9.424-5.171-10.847-14.855-7.806a41.342,41.342,0,0,1-5.677.981Q2442.737-6410.491,2442.493-6411.6Z" transform="translate(224.45 104.085)" fill="#a70505"/>
    <path id="Path_1641" data-name="Path 1641" d="M2482.243-6300.772c15.177-.87,16.636,1.47,20.2,15.579,2.544,10.074,2.146,17.935-7.04,23.3-3.284,1.918-8.034,2.436-11.827,1.823-1.493-.241-3.149-5.347-3.094-8.2C2480.7-6278.985,2481.585-6289.684,2482.243-6300.772Zm6.282,3.625c-.641,9.866-1.25,19.274-1.924,29.656,7.421-3.946,9.869-10.1,9.031-20.937C2495.357-6291.989,2496.33-6297.017,2488.525-6297.146Z" transform="translate(243.84 169.545)" fill="#a70505"/>
    <path id="Path_1642" data-name="Path 1642" d="M2146.027-6284.8c-5.388-2.687-10.984-5.058-15.984-8.337-.975-.639.367-4.807.641-7.345,2.238.335,5.516-.145,6.534,1.149,4.306,5.47,10.314,6.863,15.418,4.059,3.926-2.156,7.135-7.43,8.51-11.967,1.93-6.372,1.567-13.4,2.844-20.024.358-1.862,3.021-3.277,4.626-4.9,1.186,1.679,3.513,3.465,3.366,5.021-.789,8.448-1.347,17.071-3.582,25.192C2165.226-6290.422,2158.7-6286.362,2146.027-6284.8Z" transform="translate(64.792 153.602)" fill="#a70505"/>
    <path id="Path_1643" data-name="Path 1643" d="M2430.91-6281.669q1.078-9.717,2.157-19.433l1.695-.105c.552,1.13,1.571,2.255,1.582,3.391.116,12.02.184,24.043-.041,36.06-.035,1.891-1.585,3.754-2.436,5.629-1.429-1.732-3.222-3.281-4.211-5.237-2.074-4.1-3.723-8.413-5.548-12.639l-2.707.211c-.522,4.4-.87,8.824-1.66,13.17-.29,1.595-1.625,3-2.484,4.492-.814-1.629-2.272-3.233-2.337-4.892-.317-8.252-.557-16.534-.163-24.772.11-2.3,2.479-4.485,3.811-6.724,2.131,1.562,4.616,2.82,6.3,4.77,1.734,2.014,2.686,4.7,3.98,7.093Z" transform="translate(210.188 169.404)" fill="#a70505"/>
    <path id="Path_1644" data-name="Path 1644" d="M2330.619-6578.743c.524-9.6-.16-17.136,1.679-23.994,1.289-4.805,5.358-9.506,9.394-12.758,4.27-3.438,7.88-1.049,7.319,4.614a259.324,259.324,0,0,1-4.468,30.424c-.562,2.546-4.941,5.527-7.848,5.863C2334.448-6574.334,2331.758-6577.893,2330.619-6578.743Z" transform="translate(167.348 8.173)" fill="#a70505"/>
    <path id="Path_1645" data-name="Path 1645" d="M2242.314-6379.733c17.615-1.3,32.344,12.184,23.328,30.988-.727,1.514-.63,3.4-1.074,5.08-2.184,8.233-13.933,12.951-20.707,8.232a4.323,4.323,0,0,1-1.483-3.1C2242.281-6352.1,2242.314-6365.674,2242.314-6379.733Zm22.575,24.212c-2.364-5.292-3.7-11.479-7.354-15.645-4.361-4.976-9.556-2.684-9.976,3.874-.477,7.483-.219,15.015-.2,22.527.012,4.819,2.87,5.871,7.049,5.148C2260.629-6340.692,2263.325-6345.219,2264.888-6355.521Z" transform="translate(122.272 129.278)" fill="#a70505"/>
    <path id="Path_1646" data-name="Path 1646" d="M2414.469-6233.765c-.69,11.7-.254,22.34-2.317,32.473-1.233,6.051-5.909,11.684-9.944,16.786-2.7,3.41-7.206,3.79-10.461.017-2.968-3.441-8.318-6.652-3.223-12.454,6.688,6.967,12.447,5.909,14.963-3.73,1.982-7.591,1.748-15.772,2.355-23.7.224-2.93.036-5.891.036-9.39Z" transform="translate(195.825 203.83)" fill="#a70505"/>
    <path id="Path_1647" data-name="Path 1647" d="M2229.532-6376.754c.823,6.328-3.814,11.906,2.96,15.66.311.172-1.032,3.454-1.708,5.247-1.2,3.17-3.651,6.449-3.3,9.416.234,2,4.2,3.925,6.826,5.176,2.719,1.29,5.844,1.722,8.791,2.53l-.432,2.761-22.726-1.75c1.375-14.969,1.546-29.112,4.373-42.7,1.53-7.357,8.924-1.146,13.5-1.161,3.054-.01,6.117,2.918,9.176,4.534-1.551.742-3.134,2.172-4.646,2.1C2238.448-6375.136,2234.584-6375.988,2229.532-6376.754Z" transform="translate(110.855 127.138)" fill="#a70505"/>
    <path id="Path_1648" data-name="Path 1648" d="M2475.945-6161.143v-15.85c-4.347.461-7.719.822-12.132,1.292a114.656,114.656,0,0,1-1.078,11.7c-.276,1.53-2.1,2.78-3.212,4.157-1.047-1.362-2.97-2.7-3-4.083-.145-7.741-.117-15.512.431-23.229.337-4.751,3.847-5.577,6.652-2.353,4.008,4.608,6.663,5.526,9.97-.474.8-1.444,3.438-1.873,5.5-2.9v31.987Q2477.513-6161.018,2475.945-6161.143Z" transform="translate(231.575 224.695)" fill="#a70505"/>
    <path id="Path_1649" data-name="Path 1649" d="M2125.813-6381.055c.858,4.5,1.714,9,2.936,15.412,5.021-5.327,9.013-9.566,13-13.8l1.732.98c-1.053,2.793-3.124,5.681-2.877,8.354.261,2.841,2.72,5.48,4.866,9.383l17.017-23.828c2.059,7.483-3.915,10.971-6.888,15.894-3.306,5.481-6.5,11.027-10.257,17.417l-8.073-12.848c-2.476,2.34-4.444,5.018-7.09,6.393-1.545.8-6.016-.384-6.04-.837-.386-7.47-.275-14.969-.275-22.46Z" transform="translate(61.811 126.863)" fill="#a70505"/>
    <path id="Path_1650" data-name="Path 1650" d="M2468.893-6278.81c-2.191,3.688-4.223,5.914-4.889,8.492-1.19,4.611-.146,7.868,6,6.931,2.939-.447,6.072.364,9.117.6l.166,2.389c-6.407,1.235-12.783,2.74-19.247,3.445-1.095.117-3.649-3.191-3.685-4.954-.22-10.715.255-21.446.148-32.167-.043-4.268,1.654-5.841,5.7-5.882,3.447-.034,6.889-.458,9.226-.628-2.586,3.271-6.608,6.474-7.943,10.555C2462.013-6285.521,2461.877-6279.7,2468.893-6278.81Z" transform="translate(231.495 169.724)" fill="#a70505"/>
    <path id="Path_1651" data-name="Path 1651" d="M2497.3-6160.816c-2.985-2.434-4.462-3.154-5.214-4.333-3.716-5.841-7.169-5.909-10.543-.267-.936,1.565-2.74,2.612-4.145,3.9-.177-2.016-.8-4.11-.452-6.032a200.475,200.475,0,0,1,4.562-21.185c.618-2.1,3.716-4.726,5.727-4.77,1.735-.038,4.636,3,5.124,5.118C2494.277-6180.077,2495.446-6171.589,2497.3-6160.816Z" transform="translate(241.982 224.378)" fill="#a70505"/>
    <path id="Path_1652" data-name="Path 1652" d="M2506.561-6182.873c.684-4.053,1.3-8.12,2.17-12.133.074-.34,1.8-.322,3.666-.611-.683,10.767-1.337,21.079-1.991,31.388l-2,.375q-3.382-5.579-6.766-11.159l-2,.3a61.2,61.2,0,0,1-1.142,8.085c-.429,1.59-1.8,2.929-2.743,4.381-.767-1.35-2.157-2.679-2.2-4.052-.251-7.972-.352-15.959-.068-23.925.05-1.357,2.057-3.458,3.435-3.709,1.166-.212,3.208,1.472,4.016,2.819a80.975,80.975,0,0,1,4.053,8.82C2505.51-6182.488,2506.035-6182.682,2506.561-6182.873Z" transform="translate(250.386 223.299)" fill="#a70505"/>
    <path id="Path_1653" data-name="Path 1653" d="M2192.607-6349.134c-.444-1.981-.814-3.985-1.345-5.944-1.386-5.114-2.561-11.425-9.171-10.829-2.734.248-5.024,5.389-8.023,8.9.7-9.227,1.406-18.569,2.214-29.24,11.627,2.238,6.725,15.921,15.351,19.563l2.947-10.188,3.089.426q-1.113,13.6-2.225,27.2Z" transform="translate(87.442 125.997)" fill="#a70505"/>
    <path id="Path_1654" data-name="Path 1654" d="M2507.676-6282.494c-6.931-10.92-12.3-19.225-9.856-29.21,2.243,7.576,4.2,14.2,6.162,20.819l2.583.006c2.926-4.2,5.981-8.306,8.752-12.6,4.712-7.306,9.213-14.746,13.864-22.091,3.584-5.665,7.608-5.294,12.263-.806C2531.956-6310.456,2511.969-6303.083,2507.676-6282.494Z" transform="translate(252.383 154.819)" fill="#a70505"/>
    <path id="Path_1655" data-name="Path 1655" d="M2435.975-6302.371c7.037.757,14.09,1.4,21.09,2.4,1,.142,2.328,2.014,2.4,3.154.048.764-1.89,2.4-2.885,2.358-6.5-.271-6.212,3.781-6.3,8.451-.16,9-.805,18-1.554,26.97-.135,1.607-1.731,3.093-2.654,4.634-.937-1.7-2.714-3.427-2.667-5.1.249-9.013.59-18.057,1.622-27.006.7-6.1.194-10.433-7.179-10.936-.892-.061-1.693-1.47-2.534-2.252Q2435.645-6301.037,2435.975-6302.371Z" transform="translate(220.786 168.81)" fill="#a70505"/>
    <path id="Path_1656" data-name="Path 1656" d="M2325.728-6572.648c5.321,6.294,5.891,22.924,1.012,29.569-2.557,3.483-6.858,3.165-9.163-.679C2313.871-6549.935,2319.233-6568.937,2325.728-6572.648Z" transform="translate(160.071 30.858)" fill="#a70505"/>
    <path id="Path_1657" data-name="Path 1657" d="M2399.073-6176.549q-.4,7.666-.791,15.286l-3.638-.039q-.246-6.725-.491-13.454c-.122-3.5-.417-7.014-.278-10.508a33.678,33.678,0,0,1,1.338-6.067c1.707,1.055,3.421,2.1,5.117,3.171.6.38,1.152.833,1.356.981,2.625-1.262,4.909-2.358,7.193-3.454.838,2.694,2.255,5.357,2.4,8.086.35,6.694.115,13.418.115,20.13l-2.668.09q-.708-7.529-1.413-15.055C2404.363-6177.085,2401.658-6176.812,2399.073-6176.549Z" transform="translate(199.617 225.488)" fill="#a70505"/>
    <path id="Path_1658" data-name="Path 1658" d="M2597.325-6506.558h67.5C2660.728-6501.268,2603.324-6502.2,2597.325-6506.558Z" transform="translate(303.479 64.591)" fill="#a70505"/>
    <path id="Path_1659" data-name="Path 1659" d="M2212.025-6380.215c-1.439,12.894-2.6,23.932-4.012,34.939a4.017,4.017,0,0,1-2.787,2.7c-.932.071-2.96-1.706-2.853-2.425,1.628-10.992,3.509-21.948,5.436-32.895C2207.886-6378.334,2209-6378.588,2212.025-6380.215Z" transform="translate(101.887 129.078)" fill="#a70505"/>
    <path id="Path_1660" data-name="Path 1660" d="M2379.7-6163.858l7.3-27.614,3.3-.171q3.258,14.646,6.517,29.294l-2.129.8-6.036-8.977-7.286,7.877Z" transform="translate(192.4 225.327)" fill="#a70505"/>
    <path id="Path_1661" data-name="Path 1661" d="M2430.995-6258.594c-3.543,1.839-6.253,3.246-8.961,4.654l4.137,5.554c-1.074,1.224-4.262,3.273-4.551,5.672-.248,2.056,2.828,4.51,4.335,6.651-7.9,3.915-11.112,2.053-10.958-7.542.041-2.5.154-5.011.349-7.509C2416.179-6261.808,2419.8-6263.644,2430.995-6258.594Z" transform="translate(210.413 189.782)" fill="#a70505"/>
    <path id="Path_1662" data-name="Path 1662" d="M2355.636-6426.019c-5.348,5.948-9.257,10.564-13.521,14.825-.917.917-4.38,1.065-4.528.7-1.33-3.28-2.682-6.718-2.93-10.189-.1-1.381,2.39-3.992,3.994-4.255C2343.478-6425.732,2348.45-6425.644,2355.636-6426.019Z" transform="translate(169.407 105.699)" fill="#a70505"/>
    <path id="Path_1663" data-name="Path 1663" d="M2217.313-6182.106c-3.912-.351-10.452-2.159-11.225-.769-2.025,3.644-1.533,8.685-2.043,13.167l-6.351-5.112,8.176,3.287c-6.215,3.99-11.949,1.033-18.14.455,6.933-13.293,17.347-17.786,29.61-13.353Z" transform="translate(94.414 228.165)" fill="#a70505"/>
    <path id="Path_1664" data-name="Path 1664" d="M2157.236-6235.1c-6.607-9.321-6.607-9.321-11.213-1.812.3-5.9.606-11.811.952-18.537,3.749.718,7.008.61,9.334,2.03,1.722,1.052,3.149,4.121,3.082,6.236C2159.255-6243.042,2157.982-6238.937,2157.236-6235.1Z" transform="translate(73.127 192.759)" fill="#a70505"/>
    <path id="Path_1665" data-name="Path 1665" d="M2392.632-6235.047q-1.826-4.085-3.652-8.17l-7.535,6.017c-.553-.144-1.107-.288-1.66-.434q5.087-10.887,10.174-21.777c1.458.876,4.134,1.692,4.181,2.637.353,7.219.193,14.463.193,21.7Z" transform="translate(192.443 190.738)" fill="#a70505"/>
    <path id="Path_1666" data-name="Path 1666" d="M2124.42-6259.511c1.27,3.069,2.536,6.139,4.086,9.89l4.177-4.449,3.776,7.575,4.684-10.31q1.211.539,2.424,1.08c-2.548,5.778-5.1,11.555-8.354,18.937-1.545-3.592-2.362-5.49-3.544-8.238-1.4,2.2-2.456,3.863-4.328,6.81-1.911-7.738-3.485-14.106-5.057-20.476Q2123.353-6259.1,2124.42-6259.511Z" transform="translate(61.011 190.687)" fill="#a70505"/>
    <path id="Path_1667" data-name="Path 1667" d="M2444.926-6237.639c-3.241.731-6.658,2.42-9.665,1.871-2.186-.4-5.471-3.819-5.4-5.788.2-5.329.3-11.968,3.382-15.608,6.253-7.4,8.726-6.332,13.163,2.274-3.536,0-7.49-.492-11.185.274-1.256.26-2.332,3.61-2.669,5.681-1.119,6.873.036,7.662,11.632,8.832Z" transform="translate(218.003 189.369)" fill="#a70505"/>
    <path id="Path_1668" data-name="Path 1668" d="M2439.739-6184.475l6.016-6.291,2.713,1.448c-10.969,7.073-8.053,18.336-10.874,28.147-2.025-9.6-4.052-19.208-6.218-29.48C2433.569-6189.03,2436.461-6186.9,2439.739-6184.475Z" transform="translate(218.776 225.776)" fill="#a70505"/>
    <path id="Path_1669" data-name="Path 1669" d="M2212.254-6159.1l-5.061,7.994-1.379-.5c1.56-4.971,3.014-9.983,4.788-14.879.289-.794,2.307-1.748,2.988-1.441a5.621,5.621,0,0,1,2.773,3.1c.778,2.5,1.012,5.177,1.849,9.929,2.716-5.621,4.542-9.4,6.369-13.183l2.728,1.461c-2.714,5.823-5.427,11.644-8.745,18.766Z" transform="translate(103.645 237.358)" fill="#a70505"/>
    <path id="Path_1670" data-name="Path 1670" d="M2447.6-6253.27l7.934,3.181-6.619,5.924,8.747,7.779c-4.341-.668-10.9-.7-11.114-1.873a69.107,69.107,0,0,1-.646-20.467c.164-1.354,6.392-1.972,9.823-2.927l.53,1.874Z" transform="translate(225.95 189.593)" fill="#a70505"/>
    <path id="Path_1671" data-name="Path 1671" d="M2421.907-6191.05c.352,5.588,1.08,11.186.944,16.763-.124,5.047-.9,9.768,6.57,9.4.93-.047,1.952,1.726,2.932,2.656-1.257.814-2.5,2.3-3.77,2.328-5.723.126-10.881-.133-9.727-8.652.757-5.586-.365-11.417-.489-17.141a33.89,33.89,0,0,1,.687-5.266Z" transform="translate(212.134 225.63)" fill="#a70505"/>
    <path id="Path_1672" data-name="Path 1672" d="M2242.024-6204.982c.427-2.358.854-4.713,1.292-7.125-2.815-.271-5.375-.521-8.39-.812-.8,2.1-1.906,5.013-3.012,7.923l-2.312-.824q2.057-8.312,4.116-16.625l2.05-.225c1.488,2.263,2.977,4.526,4.519,6.869l6.538-5.366,1.775,1.066q-1.983,8.126-3.962,16.248Z" transform="translate(115.786 209.492)" fill="#a70505"/>
    <path id="Path_1673" data-name="Path 1673" d="M2181.543-6150.749c-.927-1.345-3.767-3.654-4.041-6.234-.568-5.379,7.9-13.654,13.231-12.887,2.26.325,5.559,3.458,5.841,5.642C2197.512-6156.957,2191.129-6150.715,2181.543-6150.749Zm8.155-18.79c-3.608,5.193-6.175,8.7-8.333,12.432-.139.241,4.03,3.5,4.217,3.316a47.106,47.106,0,0,0,7.6-8.895C2193.707-6163.533,2191.576-6166,2189.7-6169.539Z" transform="translate(89.181 236.416)" fill="#a70505"/>
    <path id="Path_1674" data-name="Path 1674" d="M2241.988-6583.465c-6.365-9.323-12.077-17.687-18.4-26.952C2234.35-6608.291,2244.107-6594.118,2241.988-6583.465Z" transform="translate(112.715 11.579)" fill="#a70505"/>
    <path id="Path_1675" data-name="Path 1675" d="M2154.754-6175.248c-3.327-7.915-7.824-9.943-14.5-.944l-.764-3.89c4.313-4.28,8.525-8.676,13.088-12.671.5-.437,4.343,1.374,4.386,2.251.231,4.78-.241,9.591-.471,14.394Z" transform="translate(69.791 224.727)" fill="#a70505"/>
    <path id="Path_1676" data-name="Path 1676" d="M2222.355-6327.1c-1.752-2.848-3.506-5.695-5.64-9.161l-3.49,8.045-2.317-.649,3.426-16.4,2.065-.543c2.133,3.6,4.265,7.189,6.791,11.445.833-3.073,1.531-5.642,2.229-8.211l1.826.377q-1.369,7.392-2.737,14.783Q2223.431-6327.256,2222.355-6327.1Z" transform="translate(106.245 146.641)" fill="#a70505"/>
    <path id="Path_1677" data-name="Path 1677" d="M2253.161-6221.627c-1.863-3.908-3.726-7.816-6.434-13.5-1.289,5.173-2.125,8.533-2.964,11.894l-1.785-.332,2.723-17.954,2.317-.659c1.968,4.05,3.935,8.1,6.516,13.416l2.722-10.442,2.288.4q-1.445,8.677-2.89,17.352Z" transform="translate(122.104 199.532)" fill="#a70505"/>
    <path id="Path_1678" data-name="Path 1678" d="M2544.4-6209.225c1.848-3.261,3.193-7.007,5.724-9.6,1.552-1.59,4.916-1.813,7.468-1.82.921,0,2.861,2.7,2.584,3.664-.769,2.682-1.844,6.153-3.932,7.368-2.906,1.693-6.842,1.621-10.338,2.3Q2545.152-6208.268,2544.4-6209.225Z" transform="translate(276.465 210.524)" fill="#a70505"/>
    <path id="Path_1679" data-name="Path 1679" d="M2198.811-6225.426q-1.534,8.145-3.069,16.292l-2.39.267c-1.848-3.2-3.7-6.4-5.886-10.2-1.042,3.229-1.835,5.681-2.628,8.133l-1.993-.4q1.295-8.065,2.59-16.13l2.242-.323c1.778,3.511,3.557,7.02,5.889,11.627,1.2-4.039,2.065-6.945,2.931-9.851Z" transform="translate(91.921 206.877)" fill="#a70505"/>
    <path id="Path_1680" data-name="Path 1680" d="M2129.169-6261.533c-7.895-7.44-8.627-7.513-17.663-1.743,2.4-4.822,4.626-9.75,7.434-14.322.337-.545,5.151.291,5.648,1.45C2126.592-6271.482,2127.719-6266.439,2129.169-6261.533Z" transform="translate(55.509 181.368)" fill="#a70505"/>
    <path id="Path_1681" data-name="Path 1681" d="M2197.717-6205.782c10.771-.247,11.063.341,7.748,8.54-1.01,2.5-.625,5.56-1.021,9.938l-4.825-8.02c-1.347,2.213-2.387,3.917-3.426,5.622q-.9-.209-1.811-.414C2195.488-6195.306,2196.592-6200.5,2197.717-6205.782Z" transform="translate(97.81 218.089)" fill="#a70505"/>
    <path id="Path_1682" data-name="Path 1682" d="M2170.939-6156.2l6.874-4.9q.917,1.223,1.837,2.449c-1.906,1.7-3.675,4.581-5.747,4.818a15.248,15.248,0,0,1-9.389-2.211c-.9-.583-.228-6.023,1.36-7.551a34.989,34.989,0,0,1,11.542-7.188c1.6-.613,4.388,1.876,6.38,4.251-7.179-2.2-12.958-1.876-15.651,5.667C2167.71-6159.646,2170.179-6157.392,2170.939-6156.2Z" transform="translate(82.358 235.928)" fill="#a70505"/>
    <path id="Path_1683" data-name="Path 1683" d="M2373.05-6192c3.205-.325,5.268-.992,7.094-.591,1.868.409,3.5,1.869,5.241,2.868a45.5,45.5,0,0,0-4.456,2.67c-1.381,1.044-3.417,2.217-3.658,3.6-1.087,6.183-1.638,12.462-2.382,18.707l-1.84-.136Z" transform="translate(189.005 224.777)" fill="#a70505"/>
    <path id="Path_1684" data-name="Path 1684" d="M2127.2-6182.821l7.572-13.332,1.958.605c.3,2.92.606,5.838,1.044,10.064l9.073-8.151,1.625,1.386c-3.3,4.638-6.6,9.277-10.6,14.91-2.208-3.439-3.356-5.23-4.722-7.355l-4.617,2.836Z" transform="translate(63.521 223.025)" fill="#a70505"/>
    <path id="Path_1685" data-name="Path 1685" d="M2218.144-6209.73c.053-8.583,4.711-14.214,9.639-14.171,5.217.044,6.874,3.5,6.823,7.979-.068,6.039-5.111,11.75-10.1,10.673C2221.689-6205.859,2219.375-6208.812,2218.144-6209.73Zm8.9-13.4c-2.868,3.837-5.662,5.94-5.694,8.083-.031,2.092,2.765,4.221,4.32,6.333,1.92-1.983,4.772-3.7,5.445-6.042C2231.6-6216.446,2229.2-6218.971,2227.046-6223.13Z" transform="translate(109.939 208.863)" fill="#a70505"/>
    <path id="Path_1686" data-name="Path 1686" d="M2213.121-6270.166l2.474-14.063,2.088-.5c2.1,4.273,4.194,8.546,7.1,14.455,1.164-5.311,1.929-8.8,2.693-12.284l2.364.447c-.625,4.422-.65,9.044-2.049,13.205-1.308,3.888-4.367,3.822-6.515.263-1.343-2.229-2.093-4.812-3.676-8.585-1.411,3.352-2.205,5.24-3,7.128Z" transform="translate(107.375 177.813)" fill="#a70505"/>
    <path id="Path_1687" data-name="Path 1687" d="M2412.061-6160.5c-.352-5.48-.731-10.957-1.047-16.438-.213-3.727-.53-7.465-.376-11.179.042-1.022,1.472-2.247,2.559-2.822.374-.2,2.393,1.29,2.394,2.011.027,9.439-.171,18.88-.313,28.32Z" transform="translate(208.17 225.679)" fill="#a70505"/>
    <path id="Path_1688" data-name="Path 1688" d="M2226.587-6203.964c1.608,2.742,3.217,5.481,5.3,9.023,1.056-2.792,1.914-5.055,2.772-7.319l2.075.438q-1.6,7.891-3.208,15.779l-2.186.348c-1.5-3.313-3.005-6.629-5.028-11.091l-3.353,9.524-1.686-.449q1.643-7.909,3.287-15.823Z" transform="translate(111.534 219.039)" fill="#a70505"/>
    <path id="Path_1689" data-name="Path 1689" d="M2207.444-6167.952c-1.169,5.458-2.346,10.951-3.379,15.769l-9.192-6.347C2197.424-6168.622,2199.46-6170.317,2207.444-6167.952Z" transform="translate(98.061 236.937)" fill="#a70505"/>
    <path id="Path_1690" data-name="Path 1690" d="M2207.508-6225.1c2.947,3.237,4.638,5.871,7.047,7.252.69.4,3.459-2.829,6.683-5.609-.817,6.283-1.5,11.513-2.392,18.387l-5.827-10.3-8.6,8.339C2205.6-6213.939,2206.5-6219.2,2207.508-6225.1Z" transform="translate(102.933 208.25)" fill="#a70505"/>
    <path id="Path_1691" data-name="Path 1691" d="M2228.94-6255.5l-8.495-2.591-1.859,7.594-1.9-.263,2.581-14.584,6.7,5.084c2.125-.924,4.249-1.845,8.014-3.477-1.5,7.119-2.674,12.667-3.844,18.214l-1.888-.112C2228.475-6248.8,2228.7-6251.962,2228.94-6255.5Z" transform="translate(109.196 187.707)" fill="#a70505"/>
    <path id="Path_1692" data-name="Path 1692" d="M2150.707-6368.488c5.486-4.959,13.379,6.7,16.424-4.556l1.95-.058q1.685,9.681,3.371,19.361l-2.243,1.818C2167.479-6362.1,2162.385-6369.32,2150.707-6368.488Z" transform="translate(75.518 132.71)" fill="#a70505"/>
    <path id="Path_1693" data-name="Path 1693" d="M2495.135-6333.351c8.366-2.417,16.711-4.915,25.136-7.108.727-.189,2.38,1.473,2.837,2.587.281.687-.755,2.742-1.436,2.865-8.59,1.54-17.224,2.84-25.847,4.2Z" transform="translate(251.32 149.362)" fill="#a70505"/>
    <path id="Path_1694" data-name="Path 1694" d="M2173.253-6223.922c1.828-5.033,5.427-6.471,9.994-4.1,4.075,2.115,4.028,8.44.341,13.257-2.886,3.769-6.834,5.15-10.269,1.863-3.292-3.15-5.031-7.583.165-11.262.184,1.457.009,3.094.618,4.353.894,1.847,2.041,4.028,3.691,4.871.862.439,4-1.389,4.389-2.7.625-2.121-.171-4.662-.366-7.025Z" transform="translate(85.463 206.19)" fill="#a70505"/>
    <path id="Path_1695" data-name="Path 1695" d="M2134.805-6262.781q-.2-2.343-.408-4.686l1.374-.765c1.024,1.322,3.18,3.224,2.855,3.855-.9,1.764-3.145,4.425-4.3,4.173-3.2-.694-7.519-1.925-8.84-4.339-2.458-4.491-1.189-9.812,3.952-12.008,2.462-1.053,6.03.474,9.09,2.24-4.992.033-10.237-1-10.449,5.81-.074,2.39,2.712,4.871,4.193,7.309Z" transform="translate(62.025 181.813)" fill="#a70505"/>
    <path id="Path_1696" data-name="Path 1696" d="M2114.125-6292.418c3.264,3.1,12.627-1.2,10.112,8.3-.415,1.566-6.859,3.473-8.463,2.334-2.427-1.722-3.05-5.981-4.439-9.164Z" transform="translate(55.422 173.89)" fill="#a70505"/>
    <path id="Path_1697" data-name="Path 1697" d="M2518.313-6263.428c-5.992-9.784-5.2-22.4-11.993-31.852l2.787-1.157q6.3,15.639,12.6,31.279Q2520.01-6264.294,2518.313-6263.428Z" transform="translate(257.029 171.839)" fill="#a70505"/>
    <path id="Path_1698" data-name="Path 1698" d="M2417.907-6149.5c2.628-7.613,4.892-15.312,14.9-12.02.187.227.772.61.749.954-.231,3.41-.561,6.813-.863,10.22-1.327-2.916-2.657-5.831-4.384-9.621-1.407,2.364-2.488,5.078-4.358,7.045C2422.427-6151.313,2419.958-6150.6,2417.907-6149.5Z" transform="translate(211.901 240.306)" fill="#a70505"/>
    <path id="Path_1699" data-name="Path 1699" d="M2266.39-6279.4l3.036,7.068,2.581-5.166,1.758.468c-.964,4.722-1.927,9.445-3.314,16.242l-4.8-9.678c-1.151,2.677-1.973,4.588-2.8,6.5l-1.539-.509q1.357-7.515,2.714-15.03Z" transform="translate(131.975 180.477)" fill="#a70505"/>
    <path id="Path_1700" data-name="Path 1700" d="M2176.788-6187.435c-13.031-3.882-12.547,8.763-18.275,13.811l-1.751-1.216,5.935-12.141c-2.25-1.1-4.125-2.012-6-2.926l.281-2.141,18.758,1.6Z" transform="translate(78.576 225.122)" fill="#a70505"/>
    <path id="Path_1701" data-name="Path 1701" d="M2147.928-6237.159c-4.8-2.975-8.023-4.967-12.088-7.483,1.243-2.967,2.992-7.142,4.742-11.317l2.653-.266C2144.727-6250.161,2146.221-6244.1,2147.928-6237.159Z" transform="translate(67.929 192.365)" fill="#a70505"/>
    <path id="Path_1702" data-name="Path 1702" d="M2246.633-6272.878l-.807,7.951-1.968-.184c.675-5.244,1.352-10.487,2.276-17.65l5.948,7.731,5.226-4.715c-.884,6.55-1.489,11.031-2.094,15.511l-.973.038c-.152-2.129-.3-4.259-.429-5.988Z" transform="translate(123.063 178.82)" fill="#a70505"/>
    <path id="Path_1703" data-name="Path 1703" d="M2568.686-6506.867h34.3l-.018,2.014h-34.217C2568.731-6505.524,2568.708-6506.194,2568.686-6506.867Z" transform="translate(288.861 64.433)" fill="#a70505"/>
    <path id="Path_1704" data-name="Path 1704" d="M2224.292-6226.274v-15.49l-3.241-.143c-.408,2.627-.795,5.261-1.228,7.884-.421,2.544-.89,5.083-3,7.43.242-4.5.18-9.054.873-13.486.278-1.775,2.068-4.479,3.438-4.654a9.164,9.164,0,0,1,6.706,2.151c1,.944.258,3.887.045,5.906-.364,3.458-.926,6.9-1.4,10.343Z" transform="translate(109.265 198.204)" fill="#a70505"/>
    <path id="Path_1705" data-name="Path 1705" d="M2255.719-6218.9l-6.1.74-1.8,10.637,5.841,1.869-.115,1.339H2243.4C2242.835-6219.426,2245.759-6223.122,2255.719-6218.9Z" transform="translate(122.795 210.584)" fill="#a70505"/>
    <path id="Path_1706" data-name="Path 1706" d="M2129.746-6162.247q1.006-3.145,2.013-6.288l-1.356-1.836c-3.145,1.725-6.29,3.449-9.236,5.068-.851-5.334,2.184-9.646,11.592-14.644-1.117,2.864-1.824,4.672-2.785,7.134l6.488,2.787-5.262,8.5Z" transform="translate(60.37 231.297)" fill="#a70505"/>
    <path id="Path_1707" data-name="Path 1707" d="M2209.266-6242.019c3.966,4.827-8.188,11.56,2.844,15.376-7.987,2.155-9.012,1.333-7.772-6.264.281-1.718.639-3.423.947-5.14,1.707-9.493,3.047-10.151,14.281-5.481Z" transform="translate(102.667 197.403)" fill="#a70505"/>
    <path id="Path_1708" data-name="Path 1708" d="M2202.926-6332.146l5.419,2.628-.464,1.507c-3.015-.987-8.543-1.839-8.606-2.988-.263-4.8.065-10.311,2.384-14.267,1-1.712,7.36-.287,11.334,1.493l-8.59.637Z" transform="translate(100.269 146.523)" fill="#a70505"/>
    <path id="Path_1709" data-name="Path 1709" d="M2472.34-6243.057c-3.414-3.812-5.534-6.178-8.755-9.776,3.739-.545,7.075-.072,8.689-1.517,1.87-1.674,2.224-5.037,3.346-7.957C2482.681-6254.562,2473.191-6250.52,2472.34-6243.057Z" transform="translate(235.216 189.259)" fill="#a70505"/>
    <path id="Path_1710" data-name="Path 1710" d="M2186.091-6347.21c-11.057-1.828-6.01,7.121-10.315,11.078,3.516,1.472,6.111,2.56,10.756,4.507h-12.017C2173.7-6348.322,2175.724-6352.994,2186.091-6347.21Z" transform="translate(87.588 144.716)" fill="#a70505"/>
    <path id="Path_1711" data-name="Path 1711" d="M2542.693-6240.334q10.673-1.356,21.349-2.716.3,2.127.594,4.254-10.714,1.635-21.431,3.27Z" transform="translate(275.594 199.089)" fill="#a70505"/>
    <path id="Path_1712" data-name="Path 1712" d="M2113.519-6228.151c.124-2.159-.193-5.239.631-7.975.547-1.812,2.682-4.311,4.192-4.372,1.926-.077,3.939,1.995,5.914,3.14-1.272,2.182-2.134,4.834-3.936,6.415C2118.612-6229.447,2115.919-6229.073,2113.519-6228.151Z" transform="translate(56.536 200.39)" fill="#a70505"/>
    <path id="Path_1713" data-name="Path 1713" d="M2190.159-6228.046l-8.818-.681c.418-4.291.722-8.185,1.193-12.059,1.137-9.385,1.9-9.793,12.689-5.8-3.595.36-5.85.584-8.849.883C2189.484-6240.15,2176.8-6231.958,2190.159-6228.046Z" transform="translate(91.154 196.061)" fill="#a70505"/>
    <path id="Path_1714" data-name="Path 1714" d="M2240.1-6223.625c-1.115-4.7-2.231-9.4-3.8-16-1.728,4.413-2.675,6.832-3.622,9.252q-1.054-.318-2.1-.638c.7-2.385.97-5.027,2.217-7.078,1.122-1.844,3.313-3.039,5.033-4.521.953,1.773,2.438,3.454,2.755,5.334.751,4.438.946,8.968,1.364,13.463Z" transform="translate(116.284 199.314)" fill="#a70505"/>
    <path id="Path_1715" data-name="Path 1715" d="M2253.08-6188.832q-.551-4.907-1.1-9.815l-2.758-.1-3.874,14.787-2.626-.65c1.5-5.541,2.3-11.414,4.755-16.49,1.4-2.9,8.6.7,8.671,4.81.045,2.607-1.38,5.24-2.146,7.861Z" transform="translate(122.484 219.962)" fill="#a70505"/>
    <path id="Path_1716" data-name="Path 1716" d="M2444.394-6150.281l.823-8.883-2.393-2.163q-3.609,6.456-7.217,12.915l-2.038-2.037c.317-5.043,5.966-12.378,9.936-11.815,2.09.3,4.762,2.819,5.483,4.916C2449.968-6154.489,2450.8-6150.162,2444.394-6150.281Z" transform="translate(219.896 240.308)" fill="#a70505"/>
    <path id="Path_1717" data-name="Path 1717" d="M2147.286-6257.342c-8.7,1.138-9.683.408-9.789-6.906-.055-3.661-.011-7.323-.011-11.905,4.415.736,7.868,1.315,11.321,1.892l-.07,1.677h-7.19c-.723,3.578-1.365,6.747-2.27,11.219Z" transform="translate(68.761 182.192)" fill="#a70505"/>
    <path id="Path_1718" data-name="Path 1718" d="M2373.35-6151.789q3.2-5.236,6.4-10.475c1.84,3.273,3.681,6.546,6.2,11.028l-10.6,1.018Z" transform="translate(189.159 240.323)" fill="#a70505"/>
    <path id="Path_1719" data-name="Path 1719" d="M2374.393-6354.066c-5.006,2.088-10.01,4.177-16.631,6.942,2.978-9.256,7.445-11.262,15.729-9.271Z" transform="translate(181.202 140.878)" fill="#a70505"/>
    <path id="Path_1720" data-name="Path 1720" d="M2159.264-6172.186c-3.954.684-8.023,1.006-11.814,2.207-1.808.572-3.089,2.814-4.608,4.3,1.621,1.187,3.181,2.469,4.886,3.519.927.572,2.1.749,4.306,1.486-5.684,3.124-10.242,2.6-12.227-1.919-.807-1.836,2.213-7,4.706-8.267,4.373-2.23,9.68-2.629,14.6-3.8Z" transform="translate(69.886 233.998)" fill="#a70505"/>
    <path id="Path_1721" data-name="Path 1721" d="M2128.708-6237.869l3.32,14.516-10.9-4.157c1.424-2.868,3.394-6.837,5.364-10.806Z" transform="translate(60.419 201.505)" fill="#a70505"/>
    <path id="Path_1722" data-name="Path 1722" d="M2211.829-6257.758l-4.553,4.889-2.01-1.4,6.668-11.495,2.125.131q1.765,8.124,3.531,16.248l-1.85.657Z" transform="translate(103.365 187.497)" fill="#a70505"/>
    <path id="Path_1723" data-name="Path 1723" d="M2403.653-6150.942c-6.457,1.727-7.668-1.638-6.59-5.469,2.595-9.212,9.727-2.043,14.811-5.337C2411.406-6154.515,2398.258-6161.164,2403.653-6150.942Z" transform="translate(201.084 240.586)" fill="#a70505"/>
    <path id="Path_1724" data-name="Path 1724" d="M2407.246-6260.383c-8.88,4.264-1.009,14.059-5.572,19.008l-2.687-.323c.362-5.055.154-10.258,1.4-15.085C2400.819-6258.461,2404.855-6259.211,2407.246-6260.383Z" transform="translate(202.244 190.242)" fill="#a70505"/>
    <path id="Path_1725" data-name="Path 1725" d="M2419.653-6324.626l43.219,3.946-.094,1.177-43.254-3.424Z" transform="translate(212.727 157.451)" fill="#a70505"/>
    <path id="Path_1726" data-name="Path 1726" d="M2209.651-6263.393c-10.236-1.795-9.8,6.9-14.529,11.615,1.294-4.969,1.9-10.314,4.3-14.68.711-1.3,6.447.166,9.88.363Z" transform="translate(98.188 186.871)" fill="#a70505"/>
    <path id="Path_1727" data-name="Path 1727" d="M2384.337-6152.793c2.974-2.958,5.758-6.187,9.147-8.549.45-.312,3.978,3.789,6.081,5.846l-1.592,1.813-5.971-2.15c-1.574,1.816-3.187,3.676-4.8,5.534Z" transform="translate(194.766 240.785)" fill="#a70505"/>
    <path id="Path_1728" data-name="Path 1728" d="M2165.068-6156.45c-2.045-2.576-3.755-6.751-6.233-7.272-2.39-.5-5.574,2.77-8.7,3.807,2.61-6.259,6.953-9.424,13.156-5.607,2.261,1.391,3.083,5.115,4.56,7.774Q2166.461-6157.1,2165.068-6156.45Z" transform="translate(75.226 237.815)" fill="#a70505"/>
    <path id="Path_1729" data-name="Path 1729" d="M2241.568-6183.388c-3.311-1.387-7.421-2.3-7.427-3.246a49.535,49.535,0,0,1,1.949-14.573c.393-1.291,4.424-1.477,5.769-1.871-1.927,4.489-4.2,8.58-5.265,12.965C2236.256-6188.723,2239.123-6186.554,2241.568-6183.388Z" transform="translate(118.104 219.491)" fill="#a70505"/>
    <path id="Path_1730" data-name="Path 1730" d="M2188.115-6270.953l-9.285-1.153c.853-5.88,1.619-11.168,2.377-16.4h9.293l.184,1.115H2182.5C2185.6-6281.775,2175.457-6273.215,2188.115-6270.953Z" transform="translate(89.872 175.886)" fill="#a70505"/>
    <path id="Path_1731" data-name="Path 1731" d="M2314.187-6534.439c.322,2.752,1.334,5.659.757,8.207-.5,2.215-2.8,4.022-4.3,6.011l-2.725-1.52,3.177-12.737Z" transform="translate(155.759 50.339)" fill="#a70505"/>
    <path id="Path_1732" data-name="Path 1732" d="M2228.831-6267.022v-15.847l8.445.411c-2.373,5.308-4.669,10.444-6.965,15.582Z" transform="translate(115.394 178.765)" fill="#a70505"/>
    <path id="Path_1733" data-name="Path 1733" d="M2193.586-6435.544c5.684,3.882,4.382,7.749-5.3,14.6C2189.961-6425.562,2191.636-6430.176,2193.586-6435.544Z" transform="translate(94.698 100.837)" fill="#a70505"/>
    <path id="Path_1734" data-name="Path 1734" d="M2149.5-6217.264c-2.508-6.383-4.438-11.293-6.367-16.2q1.232-.564,2.463-1.13l4.246,8.169,3.586-4.9,1.193.475C2153.069-6226.73,2151.518-6222.613,2149.5-6217.264Z" transform="translate(71.652 203.404)" fill="#a70505"/>
    <path id="Path_1735" data-name="Path 1735" d="M2195.055-6247.658c2.183.319,5.242.766,6.586.96-1.9,5.984-3.75,11.786-5.6,17.586l-.99.124Z" transform="translate(98.154 196.737)" fill="#a70505"/>
    <path id="Path_1736" data-name="Path 1736" d="M2208.419-6285.854c-5.454,12.873-5.37,13.78,1.45,17.47-5.575.962-8.624-1.242-7.259-6.753C2203.518-6278.8,2199.765-6285.613,2208.419-6285.854Z" transform="translate(101.845 177.241)" fill="#a70505"/>
    <path id="Path_1737" data-name="Path 1737" d="M2359.362-6516.344v15.219C2352.593-6506.574,2352.494-6508.928,2359.362-6516.344Z" transform="translate(179.408 59.594)" fill="#a70505"/>
    <path id="Path_1738" data-name="Path 1738" d="M2166.329-6254.676c-2.5-3.616-3.6-5.2-4.817-6.958,1.267-1.5,2.578-3.048,4.25-5.021l-6.15-3.8.435-1.576c2.391.4,5.377.091,6.968,1.435,1.1.931.406,4.144.295,6.324C2167.179-6261.744,2166.809-6259.232,2166.329-6254.676Z" transform="translate(80.063 184.299)" fill="#a70505"/>
    <path id="Path_1739" data-name="Path 1739" d="M2117.32-6162.368c-2.734-1.555-7.128-2.554-7.877-4.777-1.908-5.663,1.663-9.7,7.318-13.167.071,5.727-13.081,12.623,2.861,15.3Z" transform="translate(54.192 231.111)" fill="#a70505"/>
    <path id="Path_1740" data-name="Path 1740" d="M2438.952-6409.227c-2.43-7.172-.5-11.451,8.584-19.535C2444.838-6422.62,2442.14-6416.482,2438.952-6409.227Z" transform="translate(222.152 104.3)" fill="#a70505"/>
    <path id="Path_1741" data-name="Path 1741" d="M2169.672-6567.81c1.444,3.629,2.887,7.261,4.509,11.344l-7.388,2.467,1.39-13.728Z" transform="translate(83.728 33.326)" fill="#a70505"/>
    <path id="Path_1742" data-name="Path 1742" d="M2139.638-6535.456c-.859-1.923-2.969-4.53-2.356-5.649a34.533,34.533,0,0,1,9.017-10.427c.577,6.139-10.466,7.418-3.271,15.715Z" transform="translate(68.609 41.634)" fill="#a70505"/>
    <path id="Path_1743" data-name="Path 1743" d="M2242.653-6242.592c-2.488-.328-4.975-.657-8.184-1.083l3.322-18.819c5.734,6.151-6.737,15.2,5.465,18.07Z" transform="translate(118.272 189.164)" fill="#a70505"/>
    <path id="Path_1744" data-name="Path 1744" d="M2116.093-6156.058c-5.679-10.133-7.76-1.628-10.8,1.942l-1.746-1.35c1.249-2.476,1.948-6.31,3.882-7.09,2.573-1.039,6.194,0,9.176.822.76.212.808,2.992,1.183,4.591Z" transform="translate(51.449 239.952)" fill="#a70505"/>
    <path id="Path_1745" data-name="Path 1745" d="M2173.3-6231.124q-1.164-9.359-2.329-18.721l2.529-.322,3.4,18.732Z" transform="translate(85.862 195.456)" fill="#a70505"/>
    <path id="Path_1746" data-name="Path 1746" d="M2190.834-6345.92c-2.229,12.462-2.213,12.487,7.324,12.415l-.325,2.072c-3.433-.538-7.464-.139-10.148-1.851C2184.315-6335.435,2185.786-6340.882,2190.834-6345.92Z" transform="translate(93.465 146.582)" fill="#a70505"/>
    <path id="Path_1747" data-name="Path 1747" d="M2365.456-6182.133c4.247,10.02,3.833,11.262-1.9,11.677C2364.2-6174.441,2364.83-6178.287,2365.456-6182.133Z" transform="translate(184.158 230.182)" fill="#a70505"/>
    <path id="Path_1748" data-name="Path 1748" d="M2466.465-6320.058l8.253-3.39c4.226,2.507,8.651,5.133,14.688,8.712C2480.814-6316.729,2473.961-6318.317,2466.465-6320.058Z" transform="translate(236.686 158.052)" fill="#a70505"/>
    <path id="Path_1749" data-name="Path 1749" d="M2257.073-6487.192c.39-4.43,7.515-9.83,10.351-8.314.565.3,1.335,1.32,1.193,1.633a5.529,5.529,0,0,1-2.055,2.685c-1.515.747-3.356.8-4.944,1.44A40.1,40.1,0,0,0,2257.073-6487.192Z" transform="translate(129.809 70.097)" fill="#a70505"/>
    <path id="Path_1750" data-name="Path 1750" d="M2249.425-6243.786c-1.574-5.576-3.17-11.236-4.889-17.329C2252.583-6255.92,2253.6-6251.846,2249.425-6243.786Z" transform="translate(123.41 189.868)" fill="#a70505"/>
    <path id="Path_1751" data-name="Path 1751" d="M2162.119-6370.527c-3.829-8.6-4.209-12.521-.329-15.349.789,5.407,1.488,10.2,2.186,14.986Z" transform="translate(79.78 126.188)" fill="#a70505"/>
    <path id="Path_1752" data-name="Path 1752" d="M2190.786-6181.216c-3.755,2.374-7.508,4.748-13.172,8.331.731-4.51,1.057-6.526,1.3-8.032l10.408-1.6Z" transform="translate(89.252 229.987)" fill="#a70505"/>
    <path id="Path_1753" data-name="Path 1753" d="M2154.6-6197.183c-3.24-4.6-4.111-9.461-.261-13.319,1.841-1.846,5.626-1.755,9.257-1.364C2153.062-6211.177,2152.08-6205.5,2154.6-6197.183Z" transform="translate(76.07 214.889)" fill="#a70505"/>
    <path id="Path_1754" data-name="Path 1754" d="M2608.993-6340.679c-2.749,1.588-4.331,3.224-5.32,2.923-2-.61-3.679-2.269-5.49-3.5,1.136-1.08,2.463-3.2,3.371-3.031C2603.694-6343.889,2605.635-6342.407,2608.993-6340.679Z" transform="translate(303.917 147.413)" fill="#a70505"/>
    <path id="Path_1755" data-name="Path 1755" d="M2124.685-6289.953l7.609-4.039c-1.565,4.722-3.094,9.335-4.623,13.947l-1.506.089C2125.665-6283.329,2125.167-6286.7,2124.685-6289.953Z" transform="translate(62.236 173.087)" fill="#a70505"/>
    <path id="Path_1756" data-name="Path 1756" d="M2209.593-6385.445l13.263,2.264C2219.451-6378.049,2216.254-6378.357,2209.593-6385.445Z" transform="translate(105.574 126.408)" fill="#a70505"/>
    <path id="Path_1757" data-name="Path 1757" d="M2400.026-6335.232a50.969,50.969,0,0,1-5.289-1.529,51.274,51.274,0,0,1-6.073-3.065c-.047-.026.855-2.255,1.118-2.216a29.032,29.032,0,0,1,6.957,1.686c1.613.694,2.868,2.221,4.282,3.377Z" transform="translate(196.974 148.562)" fill="#a70505"/>
    <path id="Path_1758" data-name="Path 1758" d="M2150.428-6292.076q2.737,7.533,5.477,15.065l-2.293.94q-2.97-7.373-5.942-14.745Z" transform="translate(73.968 174.065)" fill="#a70505"/>
    <path id="Path_1759" data-name="Path 1759" d="M2211.971-6205.031l3.43,17.118C2209.65-6193.565,2208.174-6200.506,2211.971-6205.031Z" transform="translate(105.717 218.495)" fill="#a70505"/>
    <path id="Path_1760" data-name="Path 1760" d="M2176.616-6266.754l-6.1-2.548.183-1.318,11.145,1.387c-3.912,4.8-6.842,8.4-9.771,11.994l-1.186-.841C2172.679-6260.795,2174.471-6263.509,2176.616-6266.754Z" transform="translate(85.629 185.017)" fill="#a70505"/>
    <path id="Path_1761" data-name="Path 1761" d="M2194.789-6419.557l5.229-11.727,3.018,1.243-5.528,11.482Z" transform="translate(98.018 103.013)" fill="#a70505"/>
    <path id="Path_1762" data-name="Path 1762" d="M2171.5-6291.486c3.465,2.591,7.029,4.517,9.437,7.407,1,1.2-.462,4.458-.856,7.118C2177.031-6282.118,2174.561-6286.3,2171.5-6291.486Z" transform="translate(86.129 174.366)" fill="#a70505"/>
    <path id="Path_1763" data-name="Path 1763" d="M2128.942-6153.377c1.322-1.969,2.474-5.416,4-5.59,2.924-.337,6.15.974,9.028,2.146.494.2-.118,3.11-.937,5.373C2137.254-6156.576,2133.9-6159.979,2128.942-6153.377Z" transform="translate(64.408 241.977)" fill="#a70505"/>
    <path id="Path_1764" data-name="Path 1764" d="M2180.619-6188.515l-11.586,14.812-1.518-1.123,11.245-15.138Z" transform="translate(84.097 226.185)" fill="#a70505"/>
    <path id="Path_1765" data-name="Path 1765" d="M2514.5-6508.275h16.653q.034.686.069,1.375h-16.671Z" transform="translate(261.205 63.714)" fill="#a70505"/>
    <path id="Path_1766" data-name="Path 1766" d="M2192.838-6206.613c-1.7,5.326-3.356,10.5-5.009,15.664l-1.148-.258,1.545-16.18C2190.135-6207.066,2192.431-6206.683,2192.838-6206.613Z" transform="translate(93.88 217.292)" fill="#a70505"/>
    <path id="Path_1767" data-name="Path 1767" d="M2262.245-6265.256l-7.859-5.318,4.854-1.468v-7.444l2.314-.064C2261.781-6274.873,2262.006-6270.2,2262.245-6265.256Z" transform="translate(128.437 180.459)" fill="#a70505"/>
  </g>
</svg>
