<svg xmlns="http://www.w3.org/2000/svg" width="140.229" height="150.499" viewBox="0 0 140.229 150.499">
  <g id="Group_748" data-name="Group 748" transform="translate(-963 -1137)">
    <path id="Path_1579" data-name="Path 1579" d="M1.23,41.887H141.459L71.344,1.85Zm49.087-13.02L71.344,16.823,92.372,28.867Z" transform="translate(961.77 1135.15)" fill="#7d0404"/>
    <rect id="Rectangle_135" data-name="Rectangle 135" width="130.203" height="13.02" transform="translate(968.013 1183.548)" fill="#7d0404"/>
    <rect id="Rectangle_136" data-name="Rectangle 136" width="130.203" height="13.02" transform="translate(968.013 1274.479)" fill="#7d0404"/>
    <rect id="Rectangle_137" data-name="Rectangle 137" width="13.02" height="45.571" transform="translate(1026.604 1222.398)" fill="#7d0404"/>
    <rect id="Rectangle_138" data-name="Rectangle 138" width="13.02" height="29.224" transform="translate(1000.564 1238.745)" fill="#7d0404"/>
    <rect id="Rectangle_139" data-name="Rectangle 139" width="13.02" height="17.335" transform="translate(974.523 1250.633)" fill="#7d0404"/>
    <rect id="Rectangle_140" data-name="Rectangle 140" width="13.02" height="34.425" transform="translate(1078.685 1233.543)" fill="#7d0404"/>
    <rect id="Rectangle_141" data-name="Rectangle 141" width="13.02" height="17.335" transform="translate(1052.645 1250.633)" fill="#7d0404"/>
    <path id="Path_2520" data-name="Path 2520" d="M1287.137-10637.222l35.6-14.643,27.573-23.719,24.485,37.621,25.741-22.942" transform="translate(-315.119 11879.767)" fill="none" stroke="#e50a17" stroke-width="10"/>
    <rect id="Rectangle_222" data-name="Rectangle 222" width="9" height="24" transform="translate(965.507 1232.955)" fill="#efefef"/>
    <path id="Polygon_3" data-name="Polygon 3" d="M9.66,0l9.66,17.09H0Z" transform="translate(1088.336 1202.865) rotate(47)" fill="#e50a17"/>
    <path id="Polygon_5" data-name="Polygon 5" d="M26.5,0,53,18H0Z" transform="translate(1008.507 1147.955)" fill="#7d0407"/>
  </g>
</svg>
