<svg xmlns="http://www.w3.org/2000/svg" width="1047.544" height="458.732" viewBox="0 0 1047.544 458.732">
  <g id="Group_803" data-name="Group 803" transform="translate(-2099.68 -3076.46)">
    <path id="Path_3165" data-name="Path 3165" d="M1.68,19h9.34V16H5.18V4.7H1.68ZM12.58,7.4h3.38V4.7H12.58ZM12.54,19H16V8.7H12.54Zm6.66,0h3.46V11.58h1.9V8.88h-1.9V8.56c0-.88,1.06-1,1.74-1a3.777,3.777,0,0,1,.56.04V4.68a8.128,8.128,0,0,0-1.04-.06c-1.66,0-4.72.46-4.72,3.84v.42H17.94v2.7H19.2Zm6.3-5.16a5.341,5.341,0,0,0,5.66,5.4,6.955,6.955,0,0,0,4.4-1.5l-1.28-2.42a5.4,5.4,0,0,1-2.84,1.04,2.3,2.3,0,0,1-2.4-1.84h6.5s.08-.74.08-1.08c0-2.86-1.72-4.98-4.76-4.98A5.127,5.127,0,0,0,25.5,13.84Zm3.62-1.3a1.689,1.689,0,0,1,1.66-1.48,1.4,1.4,0,0,1,1.36,1.48Zm12.38-.72A7.173,7.173,0,0,0,49,19.24a7.847,7.847,0,0,0,5.76-2.4l-1.8-2.56a5.863,5.863,0,0,1-3.8,1.76,4.068,4.068,0,0,1-4.04-4.3,3.864,3.864,0,0,1,4.04-4.08,6,6,0,0,1,3.58,1.46l1.62-2.64A7.451,7.451,0,0,0,49,4.46,7.275,7.275,0,0,0,41.5,11.82ZM55.22,22.48a4.64,4.64,0,0,0,2.4.72,4.437,4.437,0,0,0,4.3-3.1L66.14,8.7H62.36l-1.3,4.8c-.14.56-.34,1.54-.34,1.54h-.04s-.2-1.04-.38-1.6L58.78,8.7H54.86l4.38,10.1-.2.48a1.645,1.645,0,0,1-1.66,1.04,2.3,2.3,0,0,1-1.06-.38Zm11.42-8.64a5.356,5.356,0,0,0,5.74,5.4,6.2,6.2,0,0,0,4.42-1.7l-1.26-2.42a5.028,5.028,0,0,1-2.82,1.24,2.489,2.489,0,0,1-2.58-2.56,2.369,2.369,0,0,1,2.46-2.46,3.753,3.753,0,0,1,2.42,1l1.46-2.32a5.429,5.429,0,0,0-4.1-1.56A5.374,5.374,0,0,0,66.64,13.84ZM78.28,15.2c0,3.46,1.96,3.9,3.8,3.9a9.407,9.407,0,0,0,1.04-.06v-3s-.2.02-.42.02c-.78,0-.96-.34-.96-1.32V4.7H78.28Zm5.86-1.36a5.341,5.341,0,0,0,5.66,5.4,6.955,6.955,0,0,0,4.4-1.5l-1.28-2.42a5.4,5.4,0,0,1-2.84,1.04,2.3,2.3,0,0,1-2.4-1.84h6.5s.08-.74.08-1.08c0-2.86-1.72-4.98-4.76-4.98A5.127,5.127,0,0,0,84.14,13.84Zm3.62-1.3a1.689,1.689,0,0,1,1.66-1.48,1.4,1.4,0,0,1,1.36,1.48Zm12.2,1.34c0,3.22,2.6,5.36,5.84,5.36s5.84-2.14,5.84-5.36c0-3.24-2.6-5.42-5.86-5.42C102.56,8.46,99.96,10.64,99.96,13.88Zm3.5,0a2.348,2.348,0,1,1,4.68,0,2.344,2.344,0,1,1-4.68,0ZM114.08,19h3.46V11.58h1.9V8.88h-1.9V8.56c0-.88,1.06-1,1.74-1a3.777,3.777,0,0,1,.56.04V4.68a8.128,8.128,0,0,0-1.04-.06c-1.66,0-4.72.46-4.72,3.84v.42h-1.26v2.7h1.26Zm10.84-3.08a3.294,3.294,0,0,0,3.5,3.32,3.205,3.205,0,0,0,2.92-1.5h.04a5.449,5.449,0,0,0-.04.64V19h3.16V12.66c0-2.62-1.74-4.2-4.64-4.2a7.79,7.79,0,0,0-4.32,1.34l1.2,2.44a6.147,6.147,0,0,1,2.78-.98c.86,0,1.52.28,1.52,1.14v.18h-.14C129.3,12.58,124.92,12.92,124.92,15.92Zm3.48-.18c0-.86,1.26-1.18,2.36-1.18h.32v.22a1.91,1.91,0,0,1-1.7,1.82C128.7,16.6,128.4,16.22,128.4,15.74ZM141.88,19h9.34V16h-5.84V4.7h-3.5Zm10.1-5.12c0,3.22,2.6,5.36,5.84,5.36s5.84-2.14,5.84-5.36c0-3.24-2.6-5.42-5.86-5.42C154.58,8.46,151.98,10.64,151.98,13.88Zm3.5,0a2.348,2.348,0,1,1,4.68,0,2.344,2.344,0,1,1-4.68,0Zm9.2,2.04a3.294,3.294,0,0,0,3.5,3.32,3.205,3.205,0,0,0,2.92-1.5h.04a5.449,5.449,0,0,0-.04.64V19h3.16V12.66c0-2.62-1.74-4.2-4.64-4.2A7.79,7.79,0,0,0,165.3,9.8l1.2,2.44a6.147,6.147,0,0,1,2.78-.98c.86,0,1.52.28,1.52,1.14v.18h-.14C169.06,12.58,164.68,12.92,164.68,15.92Zm3.48-.18c0-.86,1.26-1.18,2.36-1.18h.32v.22a1.91,1.91,0,0,1-1.7,1.82C168.46,16.6,168.16,16.22,168.16,15.74Zm8.5,3.26h3.46V14.44a4.136,4.136,0,0,1,.2-1.36,2.027,2.027,0,0,1,2.04-1.48c.76,0,1.14.4,1.14,1.36V19h3.46V12.32c0-2.9-1.62-3.86-3.7-3.86a3.634,3.634,0,0,0-3.28,1.78h-.04a5.449,5.449,0,0,0,.04-.64V8.7h-3.32Z" transform="translate(2098 3072)" fill="#a70505"/>
    <path id="Path_3163" data-name="Path 3163" d="M1.344,15H5.408c3.6,0,5.9-2.144,5.9-5.744s-2.3-5.7-5.9-5.7H1.344Zm2.8-2.4V5.96H5.3c1.888,0,3.12,1.12,3.12,3.3,0,2.192-1.184,3.344-3.12,3.344Zm8.224-1.728a4.273,4.273,0,0,0,4.528,4.32,5.564,5.564,0,0,0,3.52-1.2l-1.024-1.936a4.32,4.32,0,0,1-2.272.832,1.84,1.84,0,0,1-1.92-1.472h5.2s.064-.592.064-.864a3.658,3.658,0,0,0-3.808-3.984A4.1,4.1,0,0,0,12.368,10.872Zm2.9-1.04a1.351,1.351,0,0,1,1.328-1.184A1.122,1.122,0,0,1,17.68,9.832Zm6.7,8.368h2.768V15.112c0-.416-.032-.7-.032-.7h.032a3.039,3.039,0,0,0,2.1.784c2.192,0,3.84-1.7,3.84-4.3,0-2.56-1.472-4.32-3.712-4.32a3.011,3.011,0,0,0-2.5,1.136h-.032a4.832,4.832,0,0,0,.032-.528V6.76h-2.5Zm2.688-7.264c0-1.424.784-2.032,1.616-2.032.96,0,1.616.8,1.616,2.032,0,1.264-.752,1.968-1.616,1.968C25.184,12.9,24.656,11.928,24.656,10.936Zm6.9-.032a4.356,4.356,0,0,0,4.672,4.288,4.326,4.326,0,1,0-.016-8.624A4.379,4.379,0,0,0,31.552,10.9Zm2.8,0a1.878,1.878,0,1,1,3.744,0,1.875,1.875,0,1,1-3.744,0ZM41.7,13.976a4.962,4.962,0,0,0,3.3,1.216c2.128,0,3.376-1.2,3.376-2.608,0-2.656-3.856-2.752-3.856-3.376,0-.288.4-.4.816-.4a3.291,3.291,0,0,1,1.952.672l.944-1.968a4.314,4.314,0,0,0-2.9-.944c-1.9,0-3.392.96-3.392,2.512,0,2.688,3.856,2.768,3.856,3.488,0,.272-.4.384-.816.384a3.467,3.467,0,0,1-2.1-.832ZM49.9,5.72h2.7V3.56H49.9ZM49.872,15H52.64V6.76H49.872ZM55.1,11.96c0,2.768,2.544,3.12,3.856,3.12a5.327,5.327,0,0,0,.752-.048v-2.4s-.144.016-.368.016c-.528,0-1.472-.128-1.472-1.056V9.064H59.6V6.9H57.872V4.536H55.184V6.9H54.048v2.16H55.1Zm5.584,2.016a4.962,4.962,0,0,0,3.3,1.216c2.128,0,3.376-1.2,3.376-2.608,0-2.656-3.856-2.752-3.856-3.376,0-.288.4-.4.816-.4a3.291,3.291,0,0,1,1.952.672l.944-1.968a4.314,4.314,0,0,0-2.9-.944c-1.9,0-3.392.96-3.392,2.512,0,2.688,3.856,2.768,3.856,3.488,0,.272-.4.384-.816.384a3.467,3.467,0,0,1-2.1-.832ZM72.528,15H75.3V11.592a5.214,5.214,0,0,1,.08-1.024c.192-.88.64-1.488,1.5-1.488.528,0,.64.432.64,1.04V15h2.768V11.592a4.609,4.609,0,0,1,.064-.96c.176-.912.64-1.552,1.52-1.552.528,0,.64.432.64,1.04V15H85.28V9.656c0-2.272-1.168-3.088-2.672-3.088a3.183,3.183,0,0,0-2.64,1.392h-.032a2.386,2.386,0,0,0-2.3-1.392,2.932,2.932,0,0,0-2.448,1.424h-.032a4.361,4.361,0,0,0,.032-.512V6.76H72.528Zm14.08-4.1a4.685,4.685,0,1,0,4.656-4.336A4.356,4.356,0,0,0,86.608,10.9Zm2.8,0a1.878,1.878,0,1,1,3.744,0,1.875,1.875,0,1,1-3.744,0ZM97.392,15h2.768V11.352a3.309,3.309,0,0,1,.16-1.088,1.622,1.622,0,0,1,1.632-1.184c.608,0,.912.32.912,1.088V15h2.768V9.656c0-2.32-1.3-3.088-2.96-3.088a2.907,2.907,0,0,0-2.624,1.424h-.032a4.361,4.361,0,0,0,.032-.512V6.76H97.392Zm9.584-4.128a4.273,4.273,0,0,0,4.528,4.32,5.564,5.564,0,0,0,3.52-1.2L114,12.056a4.32,4.32,0,0,1-2.272.832,1.84,1.84,0,0,1-1.92-1.472h5.2s.064-.592.064-.864a3.658,3.658,0,0,0-3.808-3.984A4.1,4.1,0,0,0,106.976,10.872Zm2.9-1.04A1.351,1.351,0,0,1,111.2,8.648a1.122,1.122,0,0,1,1.088,1.184Zm5.7,7.952a3.712,3.712,0,0,0,1.92.576,3.549,3.549,0,0,0,3.44-2.48L124.3,6.76H121.28l-1.04,3.84c-.112.448-.272,1.232-.272,1.232h-.032s-.16-.832-.3-1.28L118.416,6.76H115.28l3.5,8.08-.16.384a1.316,1.316,0,0,1-1.328.832,1.838,1.838,0,0,1-.848-.3ZM1.056,24.72h2.7V22.56h-2.7ZM1.024,34H3.792V25.76H1.024ZM5.84,34H8.608V30.352a3.309,3.309,0,0,1,.16-1.088A1.622,1.622,0,0,1,10.4,28.08c.608,0,.912.32.912,1.088V34H14.08V28.656c0-2.32-1.3-3.088-2.96-3.088A2.907,2.907,0,0,0,8.5,26.992H8.464A4.36,4.36,0,0,0,8.5,26.48v-.72H5.84Zm10.592-3.04c0,2.768,2.544,3.12,3.856,3.12a5.327,5.327,0,0,0,.752-.048v-2.4s-.144.016-.368.016c-.528,0-1.472-.128-1.472-1.056V28.064h1.728V25.9H19.2V23.536H16.512V25.9H15.376v2.16h1.056ZM22.048,29.9a4.356,4.356,0,0,0,4.672,4.288,4.326,4.326,0,1,0-.016-8.624A4.379,4.379,0,0,0,22.048,29.9Zm2.8,0a1.878,1.878,0,1,1,3.744,0,1.875,1.875,0,1,1-3.744,0ZM36.912,30.96c0,2.768,2.544,3.12,3.856,3.12a5.327,5.327,0,0,0,.752-.048v-2.4s-.144.016-.368.016c-.528,0-1.472-.128-1.472-1.056V28.064h1.728V25.9H39.68V23.536H36.992V25.9H35.856v2.16h1.056ZM43.136,34H45.9V30.352a3.184,3.184,0,0,1,.144-1.056A1.663,1.663,0,0,1,47.7,28.08c.608,0,.912.32.912,1.088V34h2.768V28.656c0-2.32-1.3-3.088-2.96-3.088A2.83,2.83,0,0,0,45.9,26.88h-.032s.032-.288.032-.7V22.56H43.136Zm9.584-4.128a4.273,4.273,0,0,0,4.528,4.32,5.564,5.564,0,0,0,3.52-1.2l-1.024-1.936a4.32,4.32,0,0,1-2.272.832,1.84,1.84,0,0,1-1.92-1.472h5.2s.064-.592.064-.864a3.658,3.658,0,0,0-3.808-3.984A4.1,4.1,0,0,0,52.72,29.872Zm2.9-1.04a1.351,1.351,0,0,1,1.328-1.184,1.122,1.122,0,0,1,1.088,1.184ZM65.984,34h2.592v-.272c0-.256-.016-.464-.016-.464h.032a2.946,2.946,0,0,0,2.256.928c2.192,0,3.84-1.7,3.84-4.3,0-2.56-1.472-4.32-3.712-4.32a3.061,3.061,0,0,0-2.224.88H68.72s.032-.288.032-.7V22.56H65.984Zm2.688-4.064c0-1.424.784-2.032,1.616-2.032.96,0,1.616.8,1.616,2.032,0,1.264-.752,1.968-1.616,1.968C69.2,31.9,68.672,30.928,68.672,29.936Zm6.88,1.6a2.636,2.636,0,0,0,2.8,2.656,2.564,2.564,0,0,0,2.336-1.2h.032a4.36,4.36,0,0,0-.032.512V34h2.528V28.928c0-2.1-1.392-3.36-3.712-3.36a6.232,6.232,0,0,0-3.456,1.072l.96,1.952a4.918,4.918,0,0,1,2.224-.784c.688,0,1.216.224,1.216.912v.144h-.112C79.056,28.864,75.552,29.136,75.552,31.536Zm2.784-.144c0-.688,1.008-.944,1.888-.944h.256v.176a1.528,1.528,0,0,1-1.36,1.456C78.576,32.08,78.336,31.776,78.336,31.392ZM85.136,34H87.9V30.352a3.309,3.309,0,0,1,.16-1.088A1.622,1.622,0,0,1,89.7,28.08c.608,0,.912.32.912,1.088V34h2.768V28.656c0-2.32-1.3-3.088-2.96-3.088a2.907,2.907,0,0,0-2.624,1.424H87.76a4.361,4.361,0,0,0,.032-.512v-.72H85.136Zm10.176,0H98.08V30.8h.864l1.744,3.2h3.152l-2.752-4.464V29.5L103.5,25.76H100.5l-1.632,2.72H98.08V22.56H95.312Z" transform="translate(2472 3126)" fill="#070707"/>
    <path id="Path_3161" data-name="Path 3161" d="M1.344,15H5.552C7.824,15,9.9,14.088,9.9,11.592A2.565,2.565,0,0,0,8.112,9.016V8.984A2.794,2.794,0,0,0,9.44,6.552c0-1.968-1.6-2.992-3.888-2.992H1.344Zm2.8-7.008V5.96H5.536a.931.931,0,0,1,1.056.976A.968.968,0,0,1,5.584,7.992Zm0,4.608V10.232h1.7A1.1,1.1,0,0,1,7.04,11.4a1.137,1.137,0,0,1-1.216,1.2Zm6.8-.064a2.636,2.636,0,0,0,2.8,2.656,2.564,2.564,0,0,0,2.336-1.2h.032a4.36,4.36,0,0,0-.032.512V15h2.528V9.928c0-2.1-1.392-3.36-3.712-3.36A6.232,6.232,0,0,0,11.44,7.64l.96,1.952a4.918,4.918,0,0,1,2.224-.784c.688,0,1.216.224,1.216.912v.144h-.112C14.448,9.864,10.944,10.136,10.944,12.536Zm2.784-.144c0-.688,1.008-.944,1.888-.944h.256v.176a1.528,1.528,0,0,1-1.36,1.456C13.968,13.08,13.728,12.776,13.728,12.392ZM20.528,15H23.3V11.352a3.309,3.309,0,0,1,.16-1.088A1.622,1.622,0,0,1,25.088,9.08c.608,0,.912.32.912,1.088V15h2.768V9.656c0-2.32-1.3-3.088-2.96-3.088a2.907,2.907,0,0,0-2.624,1.424h-.032a4.36,4.36,0,0,0,.032-.512V6.76H20.528ZM30.7,15h2.768V11.8h.864L36.08,15h3.152L36.48,10.536V10.5L38.9,6.76H35.888L34.256,9.48h-.784V3.56H30.7ZM43.84,11.96c0,2.768,1.568,3.12,3.04,3.12a7.525,7.525,0,0,0,.832-.048v-2.4s-.16.016-.336.016c-.624,0-.768-.272-.768-1.056V3.56H43.84ZM48.512,10.9a4.356,4.356,0,0,0,4.672,4.288,4.326,4.326,0,1,0-.016-8.624A4.379,4.379,0,0,0,48.512,10.9Zm2.8,0a1.878,1.878,0,1,1,3.744,0,1.875,1.875,0,1,1-3.744,0Zm7.36,1.632a2.636,2.636,0,0,0,2.8,2.656,2.564,2.564,0,0,0,2.336-1.2h.032a4.36,4.36,0,0,0-.032.512V15h2.528V9.928c0-2.1-1.392-3.36-3.712-3.36A6.232,6.232,0,0,0,59.168,7.64l.96,1.952a4.918,4.918,0,0,1,2.224-.784c.688,0,1.216.224,1.216.912v.144h-.112C62.176,9.864,58.672,10.136,58.672,12.536Zm2.784-.144c0-.688,1.008-.944,1.888-.944H63.6v.176a1.528,1.528,0,0,1-1.36,1.456C61.7,13.08,61.456,12.776,61.456,12.392ZM68.256,15h2.768V11.352a3.309,3.309,0,0,1,.16-1.088A1.622,1.622,0,0,1,72.816,9.08c.608,0,.912.32.912,1.088V15H76.5V9.656c0-2.32-1.3-3.088-2.96-3.088a2.907,2.907,0,0,0-2.624,1.424H70.88a4.361,4.361,0,0,0,.032-.512V6.76H68.256Zm9.536-1.024a4.962,4.962,0,0,0,3.3,1.216c2.128,0,3.376-1.2,3.376-2.608,0-2.656-3.856-2.752-3.856-3.376,0-.288.4-.4.816-.4a3.291,3.291,0,0,1,1.952.672l.944-1.968a4.314,4.314,0,0,0-2.9-.944c-1.9,0-3.392.96-3.392,2.512,0,2.688,3.856,2.768,3.856,3.488,0,.272-.4.384-.816.384a3.467,3.467,0,0,1-2.1-.832ZM89.024,10.9A4.685,4.685,0,1,0,93.68,6.568,4.356,4.356,0,0,0,89.024,10.9Zm2.8,0a1.878,1.878,0,1,1,3.744,0,1.875,1.875,0,1,1-3.744,0ZM99.7,12.1c0,2.32,1.3,3.088,2.928,3.088a2.856,2.856,0,0,0,2.576-1.424h.032a4.361,4.361,0,0,0-.032.512V15h2.656V6.76h-2.768v3.648c0,1.232-.56,2.272-1.744,2.272-.576,0-.88-.32-.88-1.088V6.76H99.7Zm10.624-.144c0,2.768,2.544,3.12,3.856,3.12a5.327,5.327,0,0,0,.752-.048v-2.4s-.144.016-.368.016c-.528,0-1.472-.128-1.472-1.056V9.064h1.728V6.9h-1.728V4.536H110.4V6.9h-1.136v2.16h1.056ZM.464,29.872c0,2.56,1.472,4.32,3.712,4.32a2.752,2.752,0,0,0,2.384-1.2h.032s-.016.208-.016.464V34H9.168V22.56H6.4v3.3c0,.208.016.368.016.368H6.384s-.5-.656-2.16-.656C2.032,25.568.464,27.264.464,29.872Zm2.784,0c0-1.264.752-1.968,1.616-1.968,1.088,0,1.616.976,1.616,1.968C6.48,31.3,5.7,31.9,4.864,31.9,3.9,31.9,3.248,31.1,3.248,29.872Zm7.376,0a4.273,4.273,0,0,0,4.528,4.32,5.564,5.564,0,0,0,3.52-1.2l-1.024-1.936a4.32,4.32,0,0,1-2.272.832,1.84,1.84,0,0,1-1.92-1.472h5.2s.064-.592.064-.864a3.658,3.658,0,0,0-3.808-3.984A4.1,4.1,0,0,0,10.624,29.872Zm2.9-1.04a1.351,1.351,0,0,1,1.328-1.184,1.122,1.122,0,0,1,1.088,1.184Zm6.7,8.368h2.768V34.112c0-.416-.032-.7-.032-.7h.032a3.039,3.039,0,0,0,2.1.784c2.192,0,3.84-1.7,3.84-4.3,0-2.56-1.472-4.32-3.712-4.32a3.011,3.011,0,0,0-2.5,1.136h-.032a4.832,4.832,0,0,0,.032-.528V25.76h-2.5Zm2.688-7.264c0-1.424.784-2.032,1.616-2.032.96,0,1.616.8,1.616,2.032,0,1.264-.752,1.968-1.616,1.968C23.44,31.9,22.912,30.928,22.912,29.936Zm6.9-.032a4.356,4.356,0,0,0,4.672,4.288,4.326,4.326,0,1,0-.016-8.624A4.379,4.379,0,0,0,29.808,29.9Zm2.8,0a1.878,1.878,0,1,1,3.744,0,1.875,1.875,0,1,1-3.744,0Zm7.344,3.072a4.962,4.962,0,0,0,3.3,1.216c2.128,0,3.376-1.2,3.376-2.608,0-2.656-3.856-2.752-3.856-3.376,0-.288.4-.4.816-.4a3.291,3.291,0,0,1,1.952.672l.944-1.968a4.314,4.314,0,0,0-2.9-.944c-1.9,0-3.392.96-3.392,2.512,0,2.688,3.856,2.768,3.856,3.488,0,.272-.4.384-.816.384a3.467,3.467,0,0,1-2.1-.832ZM48.16,24.72h2.7V22.56h-2.7ZM48.128,34H50.9V25.76H48.128Zm5.232-3.04c0,2.768,2.544,3.12,3.856,3.12a5.327,5.327,0,0,0,.752-.048v-2.4s-.144.016-.368.016c-.528,0-1.472-.128-1.472-1.056V28.064h1.728V25.9H56.128V23.536H53.44V25.9H52.3v2.16H53.36Zm5.632-1.088a4.273,4.273,0,0,0,4.528,4.32,5.564,5.564,0,0,0,3.52-1.2l-1.024-1.936a4.32,4.32,0,0,1-2.272.832,1.84,1.84,0,0,1-1.92-1.472h5.2s.064-.592.064-.864a3.658,3.658,0,0,0-3.808-3.984A4.1,4.1,0,0,0,58.992,29.872Zm2.9-1.04a1.351,1.351,0,0,1,1.328-1.184A1.122,1.122,0,0,1,64.3,28.832Zm6.144,1.04c0,2.56,1.472,4.32,3.712,4.32a2.752,2.752,0,0,0,2.384-1.2h.032s-.016.208-.016.464V34h2.592V22.56H73.968v3.3c0,.208.016.368.016.368h-.032s-.5-.656-2.16-.656C69.6,25.568,68.032,27.264,68.032,29.872Zm2.784,0c0-1.264.752-1.968,1.616-1.968,1.088,0,1.616.976,1.616,1.968,0,1.424-.784,2.032-1.616,2.032C71.472,31.9,70.816,31.1,70.816,29.872ZM82.448,34h2.768V30.592a5.214,5.214,0,0,1,.08-1.024c.192-.88.64-1.488,1.5-1.488.528,0,.64.432.64,1.04V34h2.768V30.592a4.61,4.61,0,0,1,.064-.96c.176-.912.64-1.552,1.52-1.552.528,0,.64.432.64,1.04V34H95.2V28.656c0-2.272-1.168-3.088-2.672-3.088a3.183,3.183,0,0,0-2.64,1.392h-.032a2.386,2.386,0,0,0-2.3-1.392A2.932,2.932,0,0,0,85.1,26.992h-.032a4.361,4.361,0,0,0,.032-.512v-.72H82.448Zm14.08-4.1a4.685,4.685,0,1,0,4.656-4.336A4.356,4.356,0,0,0,96.528,29.9Zm2.8,0a1.878,1.878,0,1,1,3.744,0,1.875,1.875,0,1,1-3.744,0Zm7.984,4.1h2.768V30.352a3.309,3.309,0,0,1,.16-1.088,1.622,1.622,0,0,1,1.632-1.184c.608,0,.912.32.912,1.088V34h2.768V28.656c0-2.32-1.3-3.088-2.96-3.088a2.907,2.907,0,0,0-2.624,1.424h-.032a4.361,4.361,0,0,0,.032-.512v-.72h-2.656Zm9.584-4.128a4.273,4.273,0,0,0,4.528,4.32,5.564,5.564,0,0,0,3.52-1.2l-1.024-1.936a4.32,4.32,0,0,1-2.272.832,1.84,1.84,0,0,1-1.92-1.472h5.2s.064-.592.064-.864a3.658,3.658,0,0,0-3.808-3.984A4.1,4.1,0,0,0,116.9,29.872Zm2.9-1.04a1.351,1.351,0,0,1,1.328-1.184,1.122,1.122,0,0,1,1.088,1.184Zm5.7,7.952a3.712,3.712,0,0,0,1.92.576,3.549,3.549,0,0,0,3.44-2.48l3.376-9.12H131.2l-1.04,3.84c-.112.448-.272,1.232-.272,1.232h-.032s-.16-.832-.3-1.28l-1.216-3.792H125.2l3.5,8.08-.16.384a1.316,1.316,0,0,1-1.328.832,1.838,1.838,0,0,1-.848-.3ZM1.44,49.96c0,2.768,2.544,3.12,3.856,3.12a5.327,5.327,0,0,0,.752-.048v-2.4s-.144.016-.368.016c-.528,0-1.472-.128-1.472-1.056V47.064H5.936V44.9H4.208V42.536H1.52V44.9H.384v2.16H1.44ZM7.056,48.9a4.356,4.356,0,0,0,4.672,4.288,4.326,4.326,0,1,0-.016-8.624A4.379,4.379,0,0,0,7.056,48.9Zm2.8,0a1.878,1.878,0,1,1,3.744,0,1.875,1.875,0,1,1-3.744,0ZM21.5,53H24.1v-.272c0-.256-.016-.464-.016-.464h.032a2.946,2.946,0,0,0,2.256.928c2.192,0,3.84-1.7,3.84-4.3,0-2.56-1.472-4.32-3.712-4.32a3.061,3.061,0,0,0-2.224.88H24.24s.032-.288.032-.7V41.56H21.5Zm2.688-4.064c0-1.424.784-2.032,1.616-2.032.96,0,1.616.8,1.616,2.032,0,1.264-.752,1.968-1.616,1.968C24.72,50.9,24.192,49.928,24.192,48.936Zm6.9-.032a4.356,4.356,0,0,0,4.672,4.288,4.326,4.326,0,1,0-.016-8.624A4.379,4.379,0,0,0,31.088,48.9Zm2.8,0a1.878,1.878,0,1,1,3.744,0,1.875,1.875,0,1,1-3.744,0ZM41.872,53H44.64V49.88a3.736,3.736,0,0,1,.144-1.12,2.08,2.08,0,0,1,2.128-1.44,2.945,2.945,0,0,1,.56.048v-2.72a1.871,1.871,0,0,0-.32-.032,2.86,2.86,0,0,0-2.624,2.048H44.5a4.36,4.36,0,0,0,.032-.512V44.76H41.872Zm6.88,0H51.52V49.88a3.736,3.736,0,0,1,.144-1.12,2.08,2.08,0,0,1,2.128-1.44,2.945,2.945,0,0,1,.56.048v-2.72a1.871,1.871,0,0,0-.32-.032,2.86,2.86,0,0,0-2.624,2.048h-.032a4.36,4.36,0,0,0,.032-.512V44.76H48.752Zm6.272-4.1A4.356,4.356,0,0,0,59.7,53.192a4.326,4.326,0,1,0-.016-8.624A4.379,4.379,0,0,0,55.024,48.9Zm2.8,0a1.878,1.878,0,1,1,3.744,0,1.875,1.875,0,1,1-3.744,0ZM67.3,53h3.12l.928-3.808a7.557,7.557,0,0,0,.16-.88h.032a7.557,7.557,0,0,0,.16.88L72.624,53h3.088l2.3-8.24h-2.88l-1.024,4.864a5.7,5.7,0,0,0-.112.864h-.032a4.768,4.768,0,0,0-.128-.864L72.7,44.76H70.336L69.2,49.624a5.875,5.875,0,0,0-.144.864h-.032a4.647,4.647,0,0,0-.1-.864L67.9,44.76H64.992Zm11.36-4.128a4.273,4.273,0,0,0,4.528,4.32,5.564,5.564,0,0,0,3.52-1.2L85.68,50.056a4.32,4.32,0,0,1-2.272.832,1.84,1.84,0,0,1-1.92-1.472h5.2s.064-.592.064-.864a3.658,3.658,0,0,0-3.808-3.984A4.1,4.1,0,0,0,78.656,48.872Zm2.9-1.04a1.351,1.351,0,0,1,1.328-1.184,1.122,1.122,0,0,1,1.088,1.184ZM88.256,53h2.768V49.88a3.736,3.736,0,0,1,.144-1.12A2.08,2.08,0,0,1,93.3,47.32a2.945,2.945,0,0,1,.56.048v-2.72a1.871,1.871,0,0,0-.32-.032,2.86,2.86,0,0,0-2.624,2.048H90.88a4.361,4.361,0,0,0,.032-.512V44.76H88.256Zm6.24-1.024a4.962,4.962,0,0,0,3.3,1.216c2.128,0,3.376-1.2,3.376-2.608,0-2.656-3.856-2.752-3.856-3.376,0-.288.4-.4.816-.4a3.291,3.291,0,0,1,1.952.672l.944-1.968a4.314,4.314,0,0,0-2.9-.944c-1.9,0-3.392.96-3.392,2.512,0,2.688,3.856,2.768,3.856,3.488,0,.272-.4.384-.816.384a3.467,3.467,0,0,1-2.1-.832Z" transform="translate(3013 3288)" fill="#070707"/>
    <path id="Path_3160" data-name="Path 3160" d="M1.344,15H5.552C7.824,15,9.9,14.088,9.9,11.592A2.565,2.565,0,0,0,8.112,9.016V8.984A2.794,2.794,0,0,0,9.44,6.552c0-1.968-1.6-2.992-3.888-2.992H1.344Zm2.8-7.008V5.96H5.536a.931.931,0,0,1,1.056.976A.968.968,0,0,1,5.584,7.992Zm0,4.608V10.232h1.7A1.1,1.1,0,0,1,7.04,11.4a1.137,1.137,0,0,1-1.216,1.2Zm6.816-1.7a4.356,4.356,0,0,0,4.672,4.288,4.326,4.326,0,1,0-.016-8.624A4.379,4.379,0,0,0,10.96,10.9Zm2.8,0a1.878,1.878,0,1,1,3.744,0,1.875,1.875,0,1,1-3.744,0ZM21.744,15h2.768V11.88a3.736,3.736,0,0,1,.144-1.12,2.08,2.08,0,0,1,2.128-1.44,2.945,2.945,0,0,1,.56.048V6.648a1.871,1.871,0,0,0-.32-.032A2.86,2.86,0,0,0,24.4,8.664h-.032a4.36,4.36,0,0,0,.032-.512V6.76H21.744Zm6.88,0h2.768V11.88a3.736,3.736,0,0,1,.144-1.12,2.08,2.08,0,0,1,2.128-1.44,2.945,2.945,0,0,1,.56.048V6.648a1.871,1.871,0,0,0-.32-.032A2.86,2.86,0,0,0,31.28,8.664h-.032a4.36,4.36,0,0,0,.032-.512V6.76H28.624ZM34.9,10.9a4.356,4.356,0,0,0,4.672,4.288,4.326,4.326,0,1,0-.016-8.624A4.379,4.379,0,0,0,34.9,10.9Zm2.8,0a1.878,1.878,0,1,1,3.744,0,1.875,1.875,0,1,1-3.744,0ZM47.168,15h3.12l.928-3.808a7.556,7.556,0,0,0,.16-.88h.032a7.556,7.556,0,0,0,.16.88L52.5,15h3.088l2.3-8.24h-2.88l-1.024,4.864a5.7,5.7,0,0,0-.112.864H53.84a4.768,4.768,0,0,0-.128-.864L52.576,6.76H50.208l-1.136,4.864a5.876,5.876,0,0,0-.144.864H48.9a4.647,4.647,0,0,0-.1-.864L47.776,6.76H44.864Zm11.36-4.128a4.273,4.273,0,0,0,4.528,4.32,5.564,5.564,0,0,0,3.52-1.2l-1.024-1.936a4.32,4.32,0,0,1-2.272.832,1.84,1.84,0,0,1-1.92-1.472h5.2s.064-.592.064-.864a3.658,3.658,0,0,0-3.808-3.984A4.1,4.1,0,0,0,58.528,10.872Zm2.9-1.04a1.351,1.351,0,0,1,1.328-1.184A1.122,1.122,0,0,1,63.84,9.832ZM68.128,15H70.9V11.88a3.736,3.736,0,0,1,.144-1.12,2.08,2.08,0,0,1,2.128-1.44,2.945,2.945,0,0,1,.56.048V6.648a1.871,1.871,0,0,0-.32-.032,2.86,2.86,0,0,0-2.624,2.048h-.032a4.36,4.36,0,0,0,.032-.512V6.76H68.128Zm6.24-1.024a4.962,4.962,0,0,0,3.3,1.216c2.128,0,3.376-1.2,3.376-2.608,0-2.656-3.856-2.752-3.856-3.376,0-.288.4-.4.816-.4a3.291,3.291,0,0,1,1.952.672L80.9,7.512A4.314,4.314,0,0,0,78,6.568c-1.9,0-3.392.96-3.392,2.512,0,2.688,3.856,2.768,3.856,3.488,0,.272-.4.384-.816.384a3.467,3.467,0,0,1-2.1-.832ZM86.208,18.2h2.768V15.112c0-.416-.032-.7-.032-.7h.032a3.039,3.039,0,0,0,2.1.784c2.192,0,3.84-1.7,3.84-4.3,0-2.56-1.472-4.32-3.712-4.32A3.011,3.011,0,0,0,88.7,7.7h-.032a4.833,4.833,0,0,0,.032-.528V6.76h-2.5ZM88.9,10.936c0-1.424.784-2.032,1.616-2.032.96,0,1.616.8,1.616,2.032,0,1.264-.752,1.968-1.616,1.968C89.424,12.9,88.9,11.928,88.9,10.936Zm6.88,1.6a2.636,2.636,0,0,0,2.8,2.656,2.564,2.564,0,0,0,2.336-1.2h.032a4.361,4.361,0,0,0-.032.512V15h2.528V9.928c0-2.1-1.392-3.36-3.712-3.36A6.232,6.232,0,0,0,96.272,7.64l.96,1.952a4.918,4.918,0,0,1,2.224-.784c.688,0,1.216.224,1.216.912v.144h-.112C99.28,9.864,95.776,10.136,95.776,12.536Zm2.784-.144c0-.688,1.008-.944,1.888-.944h.256v.176a1.528,1.528,0,0,1-1.36,1.456C98.8,13.08,98.56,12.776,98.56,12.392Zm5.792,5.392a3.712,3.712,0,0,0,1.92.576,3.549,3.549,0,0,0,3.44-2.48l3.376-9.12h-3.024l-1.04,3.84c-.112.448-.272,1.232-.272,1.232h-.032s-.16-.832-.3-1.28L107.2,6.76h-3.136l3.5,8.08-.16.384a1.316,1.316,0,0,1-1.328.832,1.838,1.838,0,0,1-.848-.3ZM117.76,15h2.592v-.272c0-.256-.016-.464-.016-.464h.032a2.946,2.946,0,0,0,2.256.928c2.192,0,3.84-1.7,3.84-4.3,0-2.56-1.472-4.32-3.712-4.32a3.061,3.061,0,0,0-2.224.88H120.5s.032-.288.032-.7V3.56H117.76Zm2.688-4.064c0-1.424.784-2.032,1.616-2.032.96,0,1.616.8,1.616,2.032,0,1.264-.752,1.968-1.616,1.968C120.976,12.9,120.448,11.928,120.448,10.936Zm6.88,1.6a2.636,2.636,0,0,0,2.8,2.656,2.564,2.564,0,0,0,2.336-1.2h.032a4.361,4.361,0,0,0-.032.512V15h2.528V9.928c0-2.1-1.392-3.36-3.712-3.36a6.232,6.232,0,0,0-3.456,1.072l.96,1.952a4.918,4.918,0,0,1,2.224-.784c.688,0,1.216.224,1.216.912v.144h-.112C130.832,9.864,127.328,10.136,127.328,12.536Zm2.784-.144c0-.688,1.008-.944,1.888-.944h.256v.176a1.528,1.528,0,0,1-1.36,1.456C130.352,13.08,130.112,12.776,130.112,12.392Zm6.192-1.52a4.285,4.285,0,0,0,4.592,4.32,4.957,4.957,0,0,0,3.536-1.36L143.424,11.9a4.023,4.023,0,0,1-2.256.992A1.991,1.991,0,0,1,139.1,10.84a1.9,1.9,0,0,1,1.968-1.968,3,3,0,0,1,1.936.8l1.168-1.856a4.343,4.343,0,0,0-3.28-1.248A4.3,4.3,0,0,0,136.3,10.872ZM145.728,15H148.5V11.8h.864L151.1,15h3.152L151.5,10.536V10.5L153.92,6.76h-3.008L149.28,9.48H148.5V3.56h-2.768ZM.912,30.96c0,2.768,1.568,3.12,3.04,3.12a7.525,7.525,0,0,0,.832-.048v-2.4s-.16.016-.336.016c-.624,0-.768-.272-.768-1.056V22.56H.912ZM5.584,29.9a4.356,4.356,0,0,0,4.672,4.288,4.326,4.326,0,1,0-.016-8.624A4.379,4.379,0,0,0,5.584,29.9Zm2.8,0a1.878,1.878,0,1,1,3.744,0,1.875,1.875,0,1,1-3.744,0Zm7.36,1.632a2.636,2.636,0,0,0,2.8,2.656,2.564,2.564,0,0,0,2.336-1.2h.032a4.36,4.36,0,0,0-.032.512V34h2.528V28.928c0-2.1-1.392-3.36-3.712-3.36A6.232,6.232,0,0,0,16.24,26.64l.96,1.952a4.918,4.918,0,0,1,2.224-.784c.688,0,1.216.224,1.216.912v.144h-.112C19.248,28.864,15.744,29.136,15.744,31.536Zm2.784-.144c0-.688,1.008-.944,1.888-.944h.256v.176a1.528,1.528,0,0,1-1.36,1.456C18.768,32.08,18.528,31.776,18.528,31.392ZM25.328,34H28.1V30.352a3.309,3.309,0,0,1,.16-1.088,1.622,1.622,0,0,1,1.632-1.184c.608,0,.912.32.912,1.088V34h2.768V28.656c0-2.32-1.3-3.088-2.96-3.088a2.907,2.907,0,0,0-2.624,1.424h-.032a4.36,4.36,0,0,0,.032-.512v-.72H25.328Zm15.328,0h3.12l.928-3.808a7.556,7.556,0,0,0,.16-.88H44.9a7.556,7.556,0,0,0,.16.88L45.984,34h3.088l2.3-8.24H48.5l-1.024,4.864a5.7,5.7,0,0,0-.112.864h-.032a4.768,4.768,0,0,0-.128-.864L46.064,25.76H43.7L42.56,30.624a5.876,5.876,0,0,0-.144.864h-.032a4.647,4.647,0,0,0-.1-.864L41.264,25.76H38.352ZM52.64,24.72h2.7V22.56h-2.7ZM52.608,34h2.768V25.76H52.608Zm5.232-3.04c0,2.768,2.544,3.12,3.856,3.12a5.327,5.327,0,0,0,.752-.048v-2.4s-.144.016-.368.016c-.528,0-1.472-.128-1.472-1.056V28.064h1.728V25.9H60.608V23.536H57.92V25.9H56.784v2.16H57.84ZM64.064,34h2.768V30.352a3.184,3.184,0,0,1,.144-1.056,1.663,1.663,0,0,1,1.648-1.216c.608,0,.912.32.912,1.088V34H72.3V28.656c0-2.32-1.3-3.088-2.96-3.088a2.83,2.83,0,0,0-2.512,1.312H66.8s.032-.288.032-.7V22.56H64.064Zm13.872-9.28h2.7V22.56h-2.7ZM77.9,34h2.768V25.76H77.9Zm4.816,0h2.768V30.352a3.309,3.309,0,0,1,.16-1.088A1.622,1.622,0,0,1,87.28,28.08c.608,0,.912.32.912,1.088V34H90.96V28.656c0-2.32-1.3-3.088-2.96-3.088a2.907,2.907,0,0,0-2.624,1.424h-.032a4.361,4.361,0,0,0,.032-.512v-.72H82.72Zm10.592-3.04c0,2.768,2.544,3.12,3.856,3.12a5.327,5.327,0,0,0,.752-.048v-2.4s-.144.016-.368.016c-.528,0-1.472-.128-1.472-1.056V28.064h1.728V25.9H96.08V23.536H93.392V25.9H92.256v2.16h1.056Zm5.632-1.088a4.273,4.273,0,0,0,4.528,4.32,5.564,5.564,0,0,0,3.52-1.2l-1.024-1.936a4.32,4.32,0,0,1-2.272.832,1.84,1.84,0,0,1-1.92-1.472h5.2s.064-.592.064-.864a3.658,3.658,0,0,0-3.808-3.984A4.1,4.1,0,0,0,98.944,29.872Zm2.9-1.04a1.351,1.351,0,0,1,1.328-1.184,1.122,1.122,0,0,1,1.088,1.184Zm6.7,5.168h2.768V30.88a3.736,3.736,0,0,1,.144-1.12,2.08,2.08,0,0,1,2.128-1.44,2.945,2.945,0,0,1,.56.048v-2.72a1.871,1.871,0,0,0-.32-.032,2.86,2.86,0,0,0-2.624,2.048h-.032a4.36,4.36,0,0,0,.032-.512V25.76h-2.656Zm6.288-4.128a4.273,4.273,0,0,0,4.528,4.32,5.564,5.564,0,0,0,3.52-1.2l-1.024-1.936a4.32,4.32,0,0,1-2.272.832,1.84,1.84,0,0,1-1.92-1.472h5.2s.064-.592.064-.864a3.658,3.658,0,0,0-3.808-3.984A4.1,4.1,0,0,0,114.832,29.872Zm2.9-1.04a1.351,1.351,0,0,1,1.328-1.184,1.122,1.122,0,0,1,1.088,1.184Zm6.064,4.144a4.962,4.962,0,0,0,3.3,1.216c2.128,0,3.376-1.2,3.376-2.608,0-2.656-3.856-2.752-3.856-3.376,0-.288.4-.4.816-.4a3.291,3.291,0,0,1,1.952.672l.944-1.968a4.314,4.314,0,0,0-2.9-.944c-1.9,0-3.392.96-3.392,2.512,0,2.688,3.856,2.768,3.856,3.488,0,.272-.4.384-.816.384a3.467,3.467,0,0,1-2.1-.832Zm8.592-2.016c0,2.768,2.544,3.12,3.856,3.12a5.327,5.327,0,0,0,.752-.048v-2.4s-.144.016-.368.016c-.528,0-1.472-.128-1.472-1.056V28.064h1.728V25.9h-1.728V23.536h-2.688V25.9h-1.136v2.16h1.056Z" transform="translate(2809 3501)" fill="#070707"/>
    <path id="Path_3157" data-name="Path 3157" d="M1.344,15H5.552C7.824,15,9.9,14.088,9.9,11.592A2.565,2.565,0,0,0,8.112,9.016V8.984A2.794,2.794,0,0,0,9.44,6.552c0-1.968-1.6-2.992-3.888-2.992H1.344Zm2.8-7.008V5.96H5.536a.931.931,0,0,1,1.056.976A.968.968,0,0,1,5.584,7.992Zm0,4.608V10.232h1.7A1.1,1.1,0,0,1,7.04,11.4a1.137,1.137,0,0,1-1.216,1.2Zm6.8-.064a2.636,2.636,0,0,0,2.8,2.656,2.564,2.564,0,0,0,2.336-1.2h.032a4.36,4.36,0,0,0-.032.512V15h2.528V9.928c0-2.1-1.392-3.36-3.712-3.36A6.232,6.232,0,0,0,11.44,7.64l.96,1.952a4.918,4.918,0,0,1,2.224-.784c.688,0,1.216.224,1.216.912v.144h-.112C14.448,9.864,10.944,10.136,10.944,12.536Zm2.784-.144c0-.688,1.008-.944,1.888-.944h.256v.176a1.528,1.528,0,0,1-1.36,1.456C13.968,13.08,13.728,12.776,13.728,12.392ZM20.528,15H23.3V11.352a3.309,3.309,0,0,1,.16-1.088A1.622,1.622,0,0,1,25.088,9.08c.608,0,.912.32.912,1.088V15h2.768V9.656c0-2.32-1.3-3.088-2.96-3.088a2.907,2.907,0,0,0-2.624,1.424h-.032a4.36,4.36,0,0,0,.032-.512V6.76H20.528ZM30.7,15h2.768V11.8h.864L36.08,15h3.152L36.48,10.536V10.5L38.9,6.76H35.888L34.256,9.48h-.784V3.56H30.7Zm12.688-4.128c0,2.56,1.472,4.32,3.712,4.32a2.752,2.752,0,0,0,2.384-1.2h.032s-.016.208-.016.464V15H52.1V3.56H49.328v3.3c0,.208.016.368.016.368h-.032s-.5-.656-2.16-.656C44.96,6.568,43.392,8.264,43.392,10.872Zm2.784,0c0-1.264.752-1.968,1.616-1.968,1.088,0,1.616.976,1.616,1.968,0,1.424-.784,2.032-1.616,2.032C46.832,12.9,46.176,12.1,46.176,10.872Zm7.376,0a4.273,4.273,0,0,0,4.528,4.32,5.564,5.564,0,0,0,3.52-1.2l-1.024-1.936a4.32,4.32,0,0,1-2.272.832,1.84,1.84,0,0,1-1.92-1.472h5.2s.064-.592.064-.864A3.658,3.658,0,0,0,57.84,6.568,4.1,4.1,0,0,0,53.552,10.872Zm2.9-1.04a1.351,1.351,0,0,1,1.328-1.184,1.122,1.122,0,0,1,1.088,1.184Zm6.7,8.368H65.92V15.112c0-.416-.032-.7-.032-.7h.032a3.039,3.039,0,0,0,2.1.784c2.192,0,3.84-1.7,3.84-4.3,0-2.56-1.472-4.32-3.712-4.32a3.011,3.011,0,0,0-2.5,1.136h-.032a4.833,4.833,0,0,0,.032-.528V6.76h-2.5Zm2.688-7.264c0-1.424.784-2.032,1.616-2.032.96,0,1.616.8,1.616,2.032,0,1.264-.752,1.968-1.616,1.968C66.368,12.9,65.84,11.928,65.84,10.936Zm6.9-.032a4.685,4.685,0,1,0,4.656-4.336A4.356,4.356,0,0,0,72.736,10.9Zm2.8,0a1.878,1.878,0,1,1,3.744,0,1.875,1.875,0,1,1-3.744,0Zm7.344,3.072a4.962,4.962,0,0,0,3.3,1.216c2.128,0,3.376-1.2,3.376-2.608,0-2.656-3.856-2.752-3.856-3.376,0-.288.4-.4.816-.4a3.291,3.291,0,0,1,1.952.672l.944-1.968a4.314,4.314,0,0,0-2.9-.944c-1.9,0-3.392.96-3.392,2.512,0,2.688,3.856,2.768,3.856,3.488,0,.272-.4.384-.816.384a3.467,3.467,0,0,1-2.1-.832ZM91.088,5.72h2.7V3.56h-2.7ZM91.056,15h2.768V6.76H91.056Zm5.232-3.04c0,2.768,2.544,3.12,3.856,3.12a5.327,5.327,0,0,0,.752-.048v-2.4s-.144.016-.368.016c-.528,0-1.472-.128-1.472-1.056V9.064h1.728V6.9H99.056V4.536H96.368V6.9H95.232v2.16h1.056Zm5.584,2.016a4.962,4.962,0,0,0,3.3,1.216c2.128,0,3.376-1.2,3.376-2.608,0-2.656-3.856-2.752-3.856-3.376,0-.288.4-.4.816-.4a3.291,3.291,0,0,1,1.952.672l.944-1.968a4.314,4.314,0,0,0-2.9-.944c-1.9,0-3.392.96-3.392,2.512,0,2.688,3.856,2.768,3.856,3.488,0,.272-.4.384-.816.384a3.467,3.467,0,0,1-2.1-.832Zm11.216-1.44a2.636,2.636,0,0,0,2.8,2.656,2.564,2.564,0,0,0,2.336-1.2h.032a4.361,4.361,0,0,0-.032.512V15h2.528V9.928c0-2.1-1.392-3.36-3.712-3.36a6.232,6.232,0,0,0-3.456,1.072l.96,1.952a4.918,4.918,0,0,1,2.224-.784c.688,0,1.216.224,1.216.912v.144h-.112C116.592,9.864,113.088,10.136,113.088,12.536Zm2.784-.144c0-.688,1.008-.944,1.888-.944h.256v.176a1.528,1.528,0,0,1-1.36,1.456C116.112,13.08,115.872,12.776,115.872,12.392ZM1.536,34H4.3V28.064h1.52V25.9H4.3v-.256c0-.7.848-.8,1.392-.8a3.021,3.021,0,0,1,.448.032V22.544a6.5,6.5,0,0,0-.832-.048c-1.328,0-3.776.368-3.776,3.072V25.9H.528v2.16H1.536Zm5.632,0H9.936V30.88a3.736,3.736,0,0,1,.144-1.12,2.08,2.08,0,0,1,2.128-1.44,2.945,2.945,0,0,1,.56.048v-2.72a1.871,1.871,0,0,0-.32-.032,2.86,2.86,0,0,0-2.624,2.048H9.792a4.36,4.36,0,0,0,.032-.512V25.76H7.168Zm6.256-2.464a2.636,2.636,0,0,0,2.8,2.656,2.564,2.564,0,0,0,2.336-1.2h.032a4.36,4.36,0,0,0-.032.512V34h2.528V28.928c0-2.1-1.392-3.36-3.712-3.36A6.232,6.232,0,0,0,13.92,26.64l.96,1.952a4.918,4.918,0,0,1,2.224-.784c.688,0,1.216.224,1.216.912v.144h-.112C16.928,28.864,13.424,29.136,13.424,31.536Zm2.784-.144c0-.688,1.008-.944,1.888-.944h.256v.176a1.528,1.528,0,0,1-1.36,1.456C16.448,32.08,16.208,31.776,16.208,31.392Zm6.192-1.52a4.285,4.285,0,0,0,4.592,4.32,4.957,4.957,0,0,0,3.536-1.36L29.52,30.9a4.023,4.023,0,0,1-2.256.992A1.991,1.991,0,0,1,25.2,29.84a1.9,1.9,0,0,1,1.968-1.968,3,3,0,0,1,1.936.8l1.168-1.856a4.343,4.343,0,0,0-3.28-1.248A4.3,4.3,0,0,0,22.4,29.872Zm9.84,1.088c0,2.768,2.544,3.12,3.856,3.12a5.327,5.327,0,0,0,.752-.048v-2.4s-.144.016-.368.016c-.528,0-1.472-.128-1.472-1.056V28.064h1.728V25.9H35.008V23.536H32.32V25.9H31.184v2.16H32.24ZM38.5,24.72h2.7V22.56H38.5ZM38.464,34h2.768V25.76H38.464Zm4.208-4.1a4.356,4.356,0,0,0,4.672,4.288,4.326,4.326,0,1,0-.016-8.624A4.379,4.379,0,0,0,42.672,29.9Zm2.8,0a1.878,1.878,0,1,1,3.744,0,1.875,1.875,0,1,1-3.744,0ZM53.456,34h2.768V30.352a3.309,3.309,0,0,1,.16-1.088,1.622,1.622,0,0,1,1.632-1.184c.608,0,.912.32.912,1.088V34H61.7V28.656c0-2.32-1.3-3.088-2.96-3.088a2.907,2.907,0,0,0-2.624,1.424H56.08a4.36,4.36,0,0,0,.032-.512v-.72H53.456Zm13.232-4.1a4.685,4.685,0,1,0,4.656-4.336A4.356,4.356,0,0,0,66.688,29.9Zm2.8,0a1.878,1.878,0,1,1,3.744,0,1.875,1.875,0,1,1-3.744,0Zm8.5,4.1h2.768V28.064h1.52V25.9h-1.52v-.256c0-.7.848-.8,1.392-.8a3.021,3.021,0,0,1,.448.032V22.544a6.5,6.5,0,0,0-.832-.048c-1.328,0-3.776.368-3.776,3.072V25.9H76.976v2.16h1.008ZM87.7,30.96c0,2.768,2.544,3.12,3.856,3.12a5.327,5.327,0,0,0,.752-.048v-2.4s-.144.016-.368.016c-.528,0-1.472-.128-1.472-1.056V28.064h1.728V25.9H90.464V23.536H87.776V25.9H86.64v2.16H87.7ZM93.92,34h2.768V30.352a3.184,3.184,0,0,1,.144-1.056A1.663,1.663,0,0,1,98.48,28.08c.608,0,.912.32.912,1.088V34h2.768V28.656c0-2.32-1.3-3.088-2.96-3.088a2.83,2.83,0,0,0-2.512,1.312h-.032s.032-.288.032-.7V22.56H93.92Zm9.584-4.128a4.273,4.273,0,0,0,4.528,4.32,5.564,5.564,0,0,0,3.52-1.2l-1.024-1.936a4.32,4.32,0,0,1-2.272.832,1.84,1.84,0,0,1-1.92-1.472h5.2s.064-.592.064-.864a3.658,3.658,0,0,0-3.808-3.984A4.1,4.1,0,0,0,103.5,29.872Zm2.9-1.04a1.351,1.351,0,0,1,1.328-1.184,1.122,1.122,0,0,1,1.088,1.184Zm10.4-4.112h2.7V22.56h-2.7ZM116.768,34h2.768V25.76h-2.768Zm4.816,0h2.768V30.352a3.309,3.309,0,0,1,.16-1.088,1.622,1.622,0,0,1,1.632-1.184c.608,0,.912.32.912,1.088V34h2.768V28.656c0-2.32-1.3-3.088-2.96-3.088a2.907,2.907,0,0,0-2.624,1.424h-.032a4.361,4.361,0,0,0,.032-.512v-.72h-2.656Zm10.592-3.04c0,2.768,2.544,3.12,3.856,3.12a5.327,5.327,0,0,0,.752-.048v-2.4s-.144.016-.368.016c-.528,0-1.472-.128-1.472-1.056V28.064h1.728V25.9h-1.728V23.536h-2.688V25.9H131.12v2.16h1.056Zm5.632-1.088a4.273,4.273,0,0,0,4.528,4.32,5.564,5.564,0,0,0,3.52-1.2l-1.024-1.936a4.32,4.32,0,0,1-2.272.832,1.84,1.84,0,0,1-1.92-1.472h5.2s.064-.592.064-.864a3.658,3.658,0,0,0-3.808-3.984A4.1,4.1,0,0,0,137.808,29.872Zm2.9-1.04a1.351,1.351,0,0,1,1.328-1.184,1.122,1.122,0,0,1,1.088,1.184Zm6.7,5.168h2.768V30.88a3.735,3.735,0,0,1,.144-1.12,2.08,2.08,0,0,1,2.128-1.44,2.945,2.945,0,0,1,.56.048v-2.72a1.871,1.871,0,0,0-.32-.032,2.86,2.86,0,0,0-2.624,2.048h-.032a4.36,4.36,0,0,0,.032-.512V25.76h-2.656Zm6.288-4.128a4.273,4.273,0,0,0,4.528,4.32,5.564,5.564,0,0,0,3.52-1.2l-1.024-1.936a4.32,4.32,0,0,1-2.272.832,1.84,1.84,0,0,1-1.92-1.472h5.2s.064-.592.064-.864a3.658,3.658,0,0,0-3.808-3.984A4.1,4.1,0,0,0,153.7,29.872Zm2.9-1.04a1.351,1.351,0,0,1,1.328-1.184,1.122,1.122,0,0,1,1.088,1.184Zm6.064,4.144a4.962,4.962,0,0,0,3.3,1.216c2.128,0,3.376-1.2,3.376-2.608,0-2.656-3.856-2.752-3.856-3.376,0-.288.4-.4.816-.4a3.291,3.291,0,0,1,1.952.672l.944-1.968a4.314,4.314,0,0,0-2.9-.944c-1.9,0-3.392.96-3.392,2.512,0,2.688,3.856,2.768,3.856,3.488,0,.272-.4.384-.816.384a3.467,3.467,0,0,1-2.1-.832Zm8.592-2.016c0,2.768,2.544,3.12,3.856,3.12a5.327,5.327,0,0,0,.752-.048v-2.4s-.144.016-.368.016c-.528,0-1.472-.128-1.472-1.056V28.064h1.728V25.9h-1.728V23.536h-2.688V25.9h-1.136v2.16h1.056ZM1.056,43.72h2.7V41.56h-2.7ZM1.024,53H3.792V44.76H1.024ZM5.84,53H8.608V49.352a3.309,3.309,0,0,1,.16-1.088A1.622,1.622,0,0,1,10.4,47.08c.608,0,.912.32.912,1.088V53H14.08V47.656c0-2.32-1.3-3.088-2.96-3.088A2.907,2.907,0,0,0,8.5,45.992H8.464A4.36,4.36,0,0,0,8.5,45.48v-.72H5.84Zm10.592-3.04c0,2.768,2.544,3.12,3.856,3.12a5.327,5.327,0,0,0,.752-.048v-2.4s-.144.016-.368.016c-.528,0-1.472-.128-1.472-1.056V47.064h1.728V44.9H19.2V42.536H16.512V44.9H15.376v2.16h1.056ZM22.048,48.9a4.356,4.356,0,0,0,4.672,4.288,4.326,4.326,0,1,0-.016-8.624A4.379,4.379,0,0,0,22.048,48.9Zm2.8,0a1.878,1.878,0,1,1,3.744,0,1.875,1.875,0,1,1-3.744,0Zm11.008,3.072a4.962,4.962,0,0,0,3.3,1.216c2.128,0,3.376-1.2,3.376-2.608,0-2.656-3.856-2.752-3.856-3.376,0-.288.4-.4.816-.4a3.291,3.291,0,0,1,1.952.672l.944-1.968a4.314,4.314,0,0,0-2.9-.944c-1.9,0-3.392.96-3.392,2.512,0,2.688,3.856,2.768,3.856,3.488,0,.272-.4.384-.816.384a3.467,3.467,0,0,1-2.1-.832Zm7.552-1.44a2.636,2.636,0,0,0,2.8,2.656,2.564,2.564,0,0,0,2.336-1.2h.032a4.36,4.36,0,0,0-.032.512V53h2.528V47.928c0-2.1-1.392-3.36-3.712-3.36A6.232,6.232,0,0,0,43.9,45.64l.96,1.952a4.918,4.918,0,0,1,2.224-.784c.688,0,1.216.224,1.216.912v.144h-.112C46.912,47.864,43.408,48.136,43.408,50.536Zm2.784-.144c0-.688,1.008-.944,1.888-.944h.256v.176a1.528,1.528,0,0,1-1.36,1.456C46.432,51.08,46.192,50.776,46.192,50.392ZM54.72,53H58.1l2.8-8.24H57.968L56.7,49.144c-.16.544-.3,1.424-.3,1.424h-.032a14.069,14.069,0,0,0-.3-1.424l-1.28-4.384H51.872Zm7.232-9.28h2.7V41.56h-2.7ZM61.92,53h2.768V44.76H61.92Zm4.816,0H69.5V49.352a3.309,3.309,0,0,1,.16-1.088A1.622,1.622,0,0,1,71.3,47.08c.608,0,.912.32.912,1.088V53h2.768V47.656c0-2.32-1.3-3.088-2.96-3.088a2.907,2.907,0,0,0-2.624,1.424H69.36a4.361,4.361,0,0,0,.032-.512v-.72H66.736Zm11.2.528-.784,2.1a7.29,7.29,0,0,0,3.12.736c2.256,0,4.656-1.1,4.656-4.112V44.76H82.336v.416a1.339,1.339,0,0,0,.016.192H82.3a3.125,3.125,0,0,0-2.24-.8c-2.5,0-3.7,1.952-3.7,4.048,0,2.112,1.232,4.144,3.712,4.144a2.452,2.452,0,0,0,2.064-.864h.032s-.016.208-.016.3v.272c0,1.216-.912,1.584-1.9,1.584A5.594,5.594,0,0,1,77.936,53.528Zm2.8-3.072c-1.1,0-1.584-.912-1.584-1.936a1.454,1.454,0,0,1,1.472-1.648c.832,0,1.6.32,1.6,1.776C82.224,50.088,81.456,50.456,80.736,50.456Zm5.6,1.52a4.962,4.962,0,0,0,3.3,1.216c2.128,0,3.376-1.2,3.376-2.608,0-2.656-3.856-2.752-3.856-3.376,0-.288.4-.4.816-.4a3.291,3.291,0,0,1,1.952.672l.944-1.968a4.314,4.314,0,0,0-2.9-.944c-1.9,0-3.392.96-3.392,2.512,0,2.688,3.856,2.768,3.856,3.488,0,.272-.4.384-.816.384a3.467,3.467,0,0,1-2.1-.832Zm11.216-1.44a2.636,2.636,0,0,0,2.8,2.656,2.564,2.564,0,0,0,2.336-1.2h.032a4.36,4.36,0,0,0-.032.512V53h2.528V47.928c0-2.1-1.392-3.36-3.712-3.36a6.232,6.232,0,0,0-3.456,1.072l.96,1.952a4.918,4.918,0,0,1,2.224-.784c.688,0,1.216.224,1.216.912v.144h-.112C101.056,47.864,97.552,48.136,97.552,50.536Zm2.784-.144c0-.688,1.008-.944,1.888-.944h.256v.176a1.528,1.528,0,0,1-1.36,1.456C100.576,51.08,100.336,50.776,100.336,50.392Zm6.192-1.52a4.285,4.285,0,0,0,4.592,4.32,4.957,4.957,0,0,0,3.536-1.36L113.648,49.9a4.023,4.023,0,0,1-2.256.992,1.991,1.991,0,0,1-2.064-2.048,1.9,1.9,0,0,1,1.968-1.968,3,3,0,0,1,1.936.8l1.168-1.856a4.343,4.343,0,0,0-3.28-1.248A4.3,4.3,0,0,0,106.528,48.872Zm8.816,0a4.285,4.285,0,0,0,4.592,4.32,4.957,4.957,0,0,0,3.536-1.36L122.464,49.9a4.023,4.023,0,0,1-2.256.992,1.991,1.991,0,0,1-2.064-2.048,1.9,1.9,0,0,1,1.968-1.968,3,3,0,0,1,1.936.8l1.168-1.856a4.343,4.343,0,0,0-3.28-1.248A4.3,4.3,0,0,0,115.344,48.872Zm8.816.032a4.685,4.685,0,1,0,4.656-4.336A4.356,4.356,0,0,0,124.16,48.9Zm2.8,0a1.878,1.878,0,1,1,3.744,0,1.875,1.875,0,1,1-3.744,0Zm7.872,1.2c0,2.32,1.3,3.088,2.928,3.088a2.856,2.856,0,0,0,2.576-1.424h.032a4.36,4.36,0,0,0-.032.512V53h2.656V44.76h-2.768v3.648c0,1.232-.56,2.272-1.744,2.272-.576,0-.88-.32-.88-1.088V44.76h-2.768ZM145.04,53h2.768V49.352a3.309,3.309,0,0,1,.16-1.088A1.622,1.622,0,0,1,149.6,47.08c.608,0,.912.32.912,1.088V53h2.768V47.656c0-2.32-1.3-3.088-2.96-3.088a2.907,2.907,0,0,0-2.624,1.424h-.032a4.361,4.361,0,0,0,.032-.512v-.72H145.04Zm10.592-3.04c0,2.768,2.544,3.12,3.856,3.12a5.327,5.327,0,0,0,.752-.048v-2.4s-.144.016-.368.016c-.528,0-1.472-.128-1.472-1.056V47.064h1.728V44.9H158.4V42.536h-2.688V44.9h-1.136v2.16h1.056Zm5.584,2.016a4.962,4.962,0,0,0,3.3,1.216c2.128,0,3.376-1.2,3.376-2.608,0-2.656-3.856-2.752-3.856-3.376,0-.288.4-.4.816-.4a3.291,3.291,0,0,1,1.952.672l.944-1.968a4.314,4.314,0,0,0-2.9-.944c-1.9,0-3.392.96-3.392,2.512,0,2.688,3.856,2.768,3.856,3.488,0,.272-.4.384-.816.384a3.467,3.467,0,0,1-2.1-.832Z" transform="translate(2450 3467)" fill="#070707"/>
    <g id="Group_93" data-name="Group 93" transform="translate(2758.509 3256.836)">
      <path id="Path_1579" data-name="Path 1579" d="M1.23,35.22H118.107L59.668,1.85ZM42.142,24.368,59.668,14.33,77.194,24.368Z" transform="translate(-1.23 -1.85)" fill="#7d0404"/>
      <rect id="Rectangle_135" data-name="Rectangle 135" width="108.521" height="10.852" transform="translate(4.178 38.796)" fill="#7d0404"/>
      <rect id="Rectangle_136" data-name="Rectangle 136" width="108.521" height="10.852" transform="translate(4.178 98.482)" fill="#7d0404"/>
      <rect id="Rectangle_137" data-name="Rectangle 137" width="10.852" height="37.982" transform="translate(53.012 55.074)" fill="#7d0404"/>
      <rect id="Rectangle_138" data-name="Rectangle 138" width="10.852" height="37.982" transform="translate(31.308 55.074)" fill="#7d0404"/>
      <rect id="Rectangle_139" data-name="Rectangle 139" width="10.852" height="37.982" transform="translate(9.604 55.074)" fill="#7d0404"/>
      <rect id="Rectangle_140" data-name="Rectangle 140" width="10.852" height="37.982" transform="translate(96.421 55.074)" fill="#7d0404"/>
      <rect id="Rectangle_141" data-name="Rectangle 141" width="10.852" height="37.982" transform="translate(74.716 55.074)" fill="#7d0404"/>
    </g>
    <path id="Path_1580" data-name="Path 1580" d="M41.233,32.773A15.386,15.386,0,1,0,25.847,17.386,15.386,15.386,0,0,0,41.233,32.773Zm0-26.926a11.54,11.54,0,1,1-11.54,11.54A11.551,11.551,0,0,1,41.233,5.847Zm11.54,34.619H29.693A7.693,7.693,0,0,0,22,48.159V78.932l7.693,7.693v26.926A3.847,3.847,0,0,0,33.54,117.4H48.926a3.847,3.847,0,0,0,3.847-3.847V86.625l7.693-7.693V48.159A7.693,7.693,0,0,0,52.773,40.466Z" transform="translate(2246 3258.131)" fill="#a70505"/>
    <path id="Path_1589" data-name="Path 1589" d="M35.346,23.354A10.677,10.677,0,1,0,24.669,12.677,10.677,10.677,0,0,0,35.346,23.354Zm0-18.684a8.008,8.008,0,1,1-8.008,8.008A8.016,8.016,0,0,1,35.346,4.669Zm8.008,24.023H27.338A5.338,5.338,0,0,0,22,34.031V55.384l5.338,5.338V79.407a2.669,2.669,0,0,0,2.669,2.669H40.684a2.669,2.669,0,0,0,2.669-2.669V60.723l5.338-5.338V34.031A5.338,5.338,0,0,0,43.354,28.692Z" transform="translate(3015.435 3426.208)" fill="#a70505"/>
    <path id="Path_1590" data-name="Path 1590" d="M35.346,23.354A10.677,10.677,0,1,0,24.669,12.677,10.677,10.677,0,0,0,35.346,23.354Zm0-18.684a8.008,8.008,0,1,1-8.008,8.008A8.016,8.016,0,0,1,35.346,4.669Zm8.008,24.023H27.338A5.338,5.338,0,0,0,22,34.031V55.384l5.338,5.338V79.407a2.669,2.669,0,0,0,2.669,2.669H40.684a2.669,2.669,0,0,0,2.669-2.669V60.723l5.338-5.338V34.031A5.338,5.338,0,0,0,43.354,28.692Z" transform="translate(3015.435 3138.904)" fill="#a70505"/>
    <g id="Group_100" data-name="Group 100" transform="translate(2458.016 3190)">
      <g id="Group_97" data-name="Group 97" transform="translate(23.212 0)">
        <rect id="Rectangle_142" data-name="Rectangle 142" width="76" height="42" rx="3" transform="translate(0.788)" fill="#efefef"/>
        <g id="Group_94" data-name="Group 94" transform="translate(0 0.436)">
          <path id="Path_1581" data-name="Path 1581" d="M36.212,22A14.212,14.212,0,1,0,50.425,36.212,14.212,14.212,0,0,0,36.212,22Zm0,25.582a11.37,11.37,0,1,1,11.37-11.37,11.37,11.37,0,0,1-11.37,11.37Z" transform="translate(2.161 -14.894)" fill="#1c77c3"/>
          <path id="Path_1582" data-name="Path 1582" d="M33.264,30.685h2.842a1.421,1.421,0,1,0,0-2.842H34.685V26.421a1.421,1.421,0,0,0-2.842,0V28.1a4.253,4.253,0,0,0,1.421,8.266,1.421,1.421,0,1,1,0,2.842H30.421a1.421,1.421,0,1,0,0,2.842h1.421v1.421a1.421,1.421,0,1,0,2.842,0V41.793a4.253,4.253,0,0,0-1.421-8.266,1.421,1.421,0,1,1,0-2.842Z" transform="translate(5.11 -13.63)" fill="#1c77c3"/>
          <path id="Path_1583" data-name="Path 1583" d="M80.326,17H6.421A1.421,1.421,0,0,0,5,18.421V58.216a1.421,1.421,0,0,0,1.421,1.421h73.9a1.421,1.421,0,0,0,1.421-1.421V18.421A1.421,1.421,0,0,0,80.326,17ZM70.491,56.795H16.256a9.955,9.955,0,0,0-8.414-8.414V28.256a9.955,9.955,0,0,0,8.414-8.414H70.491A9.955,9.955,0,0,0,78.9,28.256V48.381A9.955,9.955,0,0,0,70.491,56.795ZM78.9,19.842v5.542a7.127,7.127,0,0,1-5.542-5.542Zm-71.062,0h5.542a7.127,7.127,0,0,1-5.542,5.542Zm0,36.952V51.253a7.127,7.127,0,0,1,5.542,5.542Zm71.062,0H73.363A7.127,7.127,0,0,1,78.9,51.253Z" transform="translate(-5 -17)" fill="#1c77c3"/>
        </g>
      </g>
      <g id="Group_95" data-name="Group 95" transform="translate(46 8.811)">
        <rect id="Rectangle_142-2" data-name="Rectangle 142" width="77" height="42" rx="3" transform="translate(0 0.189)" fill="#efefef"/>
        <g id="Group_94-2" data-name="Group 94" transform="translate(0.053 0)">
          <path id="Path_1581-2" data-name="Path 1581" d="M36.212,22A14.212,14.212,0,1,0,50.425,36.212,14.212,14.212,0,0,0,36.212,22Zm0,25.582a11.37,11.37,0,1,1,11.37-11.37,11.37,11.37,0,0,1-11.37,11.37Z" transform="translate(2.161 -14.894)" fill="#1c77c3"/>
          <path id="Path_1582-2" data-name="Path 1582" d="M33.264,30.685h2.842a1.421,1.421,0,1,0,0-2.842H34.685V26.421a1.421,1.421,0,0,0-2.842,0V28.1a4.253,4.253,0,0,0,1.421,8.266,1.421,1.421,0,1,1,0,2.842H30.421a1.421,1.421,0,1,0,0,2.842h1.421v1.421a1.421,1.421,0,1,0,2.842,0V41.793a4.253,4.253,0,0,0-1.421-8.266,1.421,1.421,0,1,1,0-2.842Z" transform="translate(5.11 -13.63)" fill="#1c77c3"/>
          <path id="Path_1583-2" data-name="Path 1583" d="M80.326,17H6.421A1.421,1.421,0,0,0,5,18.421V58.216a1.421,1.421,0,0,0,1.421,1.421h73.9a1.421,1.421,0,0,0,1.421-1.421V18.421A1.421,1.421,0,0,0,80.326,17ZM70.491,56.795H16.256a9.955,9.955,0,0,0-8.414-8.414V28.256a9.955,9.955,0,0,0,8.414-8.414H70.491A9.955,9.955,0,0,0,78.9,28.256V48.381A9.955,9.955,0,0,0,70.491,56.795ZM78.9,19.842v5.542a7.127,7.127,0,0,1-5.542-5.542Zm-71.062,0h5.542a7.127,7.127,0,0,1-5.542,5.542Zm0,36.952V51.253a7.127,7.127,0,0,1,5.542,5.542Zm71.062,0H73.363A7.127,7.127,0,0,1,78.9,51.253Z" transform="translate(-5 -17)" fill="#1c77c3"/>
        </g>
      </g>
      <g id="Group_99" data-name="Group 99" transform="translate(0 21.755)">
        <rect id="Rectangle_142-3" data-name="Rectangle 142" width="77" height="42" rx="3" transform="translate(0 0.245)" fill="#efefef"/>
        <g id="Group_94-3" data-name="Group 94" transform="translate(0.37)">
          <path id="Path_1581-3" data-name="Path 1581" d="M36.212,22A14.212,14.212,0,1,0,50.425,36.212,14.212,14.212,0,0,0,36.212,22Zm0,25.582a11.37,11.37,0,1,1,11.37-11.37,11.37,11.37,0,0,1-11.37,11.37Z" transform="translate(2.161 -14.894)" fill="#1c77c3"/>
          <path id="Path_1582-3" data-name="Path 1582" d="M33.264,30.685h2.842a1.421,1.421,0,1,0,0-2.842H34.685V26.421a1.421,1.421,0,0,0-2.842,0V28.1a4.253,4.253,0,0,0,1.421,8.266,1.421,1.421,0,1,1,0,2.842H30.421a1.421,1.421,0,1,0,0,2.842h1.421v1.421a1.421,1.421,0,1,0,2.842,0V41.793a4.253,4.253,0,0,0-1.421-8.266,1.421,1.421,0,1,1,0-2.842Z" transform="translate(5.11 -13.63)" fill="#1c77c3"/>
          <path id="Path_1583-3" data-name="Path 1583" d="M80.326,17H6.421A1.421,1.421,0,0,0,5,18.421V58.216a1.421,1.421,0,0,0,1.421,1.421h73.9a1.421,1.421,0,0,0,1.421-1.421V18.421A1.421,1.421,0,0,0,80.326,17ZM70.491,56.795H16.256a9.955,9.955,0,0,0-8.414-8.414V28.256a9.955,9.955,0,0,0,8.414-8.414H70.491A9.955,9.955,0,0,0,78.9,28.256V48.381A9.955,9.955,0,0,0,70.491,56.795ZM78.9,19.842v5.542a7.127,7.127,0,0,1-5.542-5.542Zm-71.062,0h5.542a7.127,7.127,0,0,1-5.542,5.542Zm0,36.952V51.253a7.127,7.127,0,0,1,5.542,5.542Zm71.062,0H73.363A7.127,7.127,0,0,1,78.9,51.253Z" transform="translate(-5 -17)" fill="#1c77c3"/>
        </g>
      </g>
      <g id="Group_98" data-name="Group 98" transform="translate(38.44 36.982)">
        <rect id="Rectangle_142-4" data-name="Rectangle 142" width="77" height="43" rx="3" transform="translate(0.56 0.018)" fill="#efefef"/>
        <g id="Group_94-4" data-name="Group 94" transform="translate(0)">
          <path id="Path_1581-4" data-name="Path 1581" d="M36.212,22A14.212,14.212,0,1,0,50.425,36.212,14.212,14.212,0,0,0,36.212,22Zm0,25.582a11.37,11.37,0,1,1,11.37-11.37,11.37,11.37,0,0,1-11.37,11.37Z" transform="translate(2.161 -14.894)" fill="#1c77c3"/>
          <path id="Path_1582-4" data-name="Path 1582" d="M33.264,30.685h2.842a1.421,1.421,0,1,0,0-2.842H34.685V26.421a1.421,1.421,0,0,0-2.842,0V28.1a4.253,4.253,0,0,0,1.421,8.266,1.421,1.421,0,1,1,0,2.842H30.421a1.421,1.421,0,1,0,0,2.842h1.421v1.421a1.421,1.421,0,1,0,2.842,0V41.793a4.253,4.253,0,0,0-1.421-8.266,1.421,1.421,0,1,1,0-2.842Z" transform="translate(5.11 -13.63)" fill="#1c77c3"/>
          <path id="Path_1583-4" data-name="Path 1583" d="M80.326,17H6.421A1.421,1.421,0,0,0,5,18.421V58.216a1.421,1.421,0,0,0,1.421,1.421h73.9a1.421,1.421,0,0,0,1.421-1.421V18.421A1.421,1.421,0,0,0,80.326,17ZM70.491,56.795H16.256a9.955,9.955,0,0,0-8.414-8.414V28.256a9.955,9.955,0,0,0,8.414-8.414H70.491A9.955,9.955,0,0,0,78.9,28.256V48.381A9.955,9.955,0,0,0,70.491,56.795ZM78.9,19.842v5.542a7.127,7.127,0,0,1-5.542-5.542Zm-71.062,0h5.542a7.127,7.127,0,0,1-5.542,5.542Zm0,36.952V51.253a7.127,7.127,0,0,1,5.542,5.542Zm71.062,0H73.363A7.127,7.127,0,0,1,78.9,51.253Z" transform="translate(-5 -17)" fill="#1c77c3"/>
        </g>
      </g>
      <g id="Group_96" data-name="Group 96" transform="translate(29 30)">
        <rect id="Rectangle_142-5" data-name="Rectangle 142" width="77" height="43" rx="3" fill="#efefef"/>
        <g id="Group_94-5" data-name="Group 94" transform="translate(0.303 0.13)">
          <path id="Path_1581-5" data-name="Path 1581" d="M36.212,22A14.212,14.212,0,1,0,50.425,36.212,14.212,14.212,0,0,0,36.212,22Zm0,25.582a11.37,11.37,0,1,1,11.37-11.37,11.37,11.37,0,0,1-11.37,11.37Z" transform="translate(2.161 -14.894)" fill="#1c77c3"/>
          <path id="Path_1582-5" data-name="Path 1582" d="M33.264,30.685h2.842a1.421,1.421,0,1,0,0-2.842H34.685V26.421a1.421,1.421,0,0,0-2.842,0V28.1a4.253,4.253,0,0,0,1.421,8.266,1.421,1.421,0,1,1,0,2.842H30.421a1.421,1.421,0,1,0,0,2.842h1.421v1.421a1.421,1.421,0,1,0,2.842,0V41.793a4.253,4.253,0,0,0-1.421-8.266,1.421,1.421,0,1,1,0-2.842Z" transform="translate(5.11 -13.63)" fill="#1c77c3"/>
          <path id="Path_1583-5" data-name="Path 1583" d="M80.326,17H6.421A1.421,1.421,0,0,0,5,18.421V58.216a1.421,1.421,0,0,0,1.421,1.421h73.9a1.421,1.421,0,0,0,1.421-1.421V18.421A1.421,1.421,0,0,0,80.326,17ZM70.491,56.795H16.256a9.955,9.955,0,0,0-8.414-8.414V28.256a9.955,9.955,0,0,0,8.414-8.414H70.491A9.955,9.955,0,0,0,78.9,28.256V48.381A9.955,9.955,0,0,0,70.491,56.795ZM78.9,19.842v5.542a7.127,7.127,0,0,1-5.542-5.542Zm-71.062,0h5.542a7.127,7.127,0,0,1-5.542,5.542Zm0,36.952V51.253a7.127,7.127,0,0,1,5.542,5.542Zm71.062,0H73.363A7.127,7.127,0,0,1,78.9,51.253Z" transform="translate(-5 -17)" fill="#1c77c3"/>
        </g>
      </g>
    </g>
    <path id="Path_1581-6" data-name="Path 1581" d="M107.523,26.111l-4.25.906L81.4,30.353l-1.219-8.188,10.032-1.82C64.1,5.148,28.244,6.969,5.469,27.017L0,20.641C26.432-3.039,67.435-4.547,97.21,14.25L95.077,1.219,103.586,0l3.336,22.165.6,3.945Z" transform="matrix(0.848, -0.53, 0.53, 0.848, 2303.395, 3251.864)"/>
    <path id="Path_1588" data-name="Path 1588" d="M107.523,26.111l-4.25.906L81.4,30.353l-1.219-8.188,10.032-1.82C64.1,5.148,28.244,6.969,5.469,27.017L0,20.642C26.432-3.039,67.435-4.547,97.21,14.25L95.077,1.219,103.586,0l3.336,22.165.6,3.945Z" transform="matrix(0.891, 0.454, -0.454, 0.891, 2635.219, 3204.712)"/>
    <g id="Group_221" data-name="Group 221" transform="translate(1924 1105)">
      <path id="Path_1585" data-name="Path 1585" d="M107.523,4.242l-4.25-.906L81.4,0,80.185,8.188l10.032,1.82C64.1,25.2,28.244,23.384,5.469,3.336L0,9.711C26.432,33.392,67.435,34.9,97.21,16.1L95.077,29.134l8.509,1.219,3.336-22.165.6-3.945Z" transform="translate(994.622 2186.209) rotate(-48)"/>
      <path id="Path_1584" data-name="Path 1584" d="M0,26.111l4.25.906,21.869,3.336,1.219-8.188-10.032-1.82c26.119-15.2,61.973-13.376,84.748,6.672l5.469-6.375C81.092-3.039,40.089-4.547,10.313,14.25L12.446,1.219,3.938,0,.6,22.165,0,26.111Z" transform="matrix(0.755, -0.656, 0.656, 0.755, 934.701, 2126.363)"/>
    </g>
    <path id="Path_1591" data-name="Path 1591" d="M0,4.242l4.25-.906L26.119,0l1.219,8.188-10.032,1.82c26.119,15.2,61.973,13.376,84.748-6.672l5.469,6.375C81.092,33.392,40.089,34.9,10.313,16.1l2.133,13.031L3.938,30.353.6,8.188,0,4.242Z" transform="translate(2622.853 3416.148) rotate(-29)"/>
    <path id="Path_1592" data-name="Path 1592" d="M0,4.242l4.25-.906L26.119,0l1.219,8.188-10.032,1.82c26.119,15.2,61.973,13.376,84.748-6.672l5.469,6.375C81.092,33.392,40.089,34.9,10.313,16.1l2.133,13.031L3.938,30.353.6,8.188,0,4.242Z" transform="translate(2322.856 3359.335) rotate(30)"/>
    <g id="Group_104" data-name="Group 104" transform="translate(2986.097 3460)">
      <g id="Group_103" data-name="Group 103" transform="translate(0 0)">
        <rect id="Rectangle_142-6" data-name="Rectangle 142" width="27" height="16" rx="3" transform="translate(0.55)" fill="#efefef"/>
        <g id="Group_94-6" data-name="Group 94" transform="translate(0 0.17)">
          <path id="Path_1581-7" data-name="Path 1581" d="M27.108,22a5.108,5.108,0,1,0,5.108,5.108A5.108,5.108,0,0,0,27.108,22Zm0,9.195a4.087,4.087,0,1,1,4.087-4.087,4.087,4.087,0,0,1-4.087,4.087Z" transform="translate(-13.316 -19.446)" fill="#1c77c3"/>
          <path id="Path_1582-6" data-name="Path 1582" d="M30.532,27.043h1.022a.511.511,0,1,0,0-1.022h-.511v-.511a.511.511,0,0,0-1.022,0v.6a1.529,1.529,0,0,0,.511,2.971.511.511,0,1,1,0,1.022H29.511a.511.511,0,1,0,0,1.022h.511v.511a.511.511,0,0,0,1.022,0v-.6a1.529,1.529,0,0,0-.511-2.971.511.511,0,0,1,0-1.022Z" transform="translate(-16.74 -20.913)" fill="#1c77c3"/>
          <path id="Path_1583-6" data-name="Path 1583" d="M32.074,17H5.511A.511.511,0,0,0,5,17.511v14.3a.511.511,0,0,0,.511.511H32.074a.511.511,0,0,0,.511-.511v-14.3A.511.511,0,0,0,32.074,17ZM28.539,31.3H9.046a3.578,3.578,0,0,0-3.024-3.024V21.046a3.578,3.578,0,0,0,3.024-3.024H28.539a3.578,3.578,0,0,0,3.024,3.024v7.233A3.578,3.578,0,0,0,28.539,31.3Zm3.024-13.281v1.992a2.562,2.562,0,0,1-1.992-1.992Zm-25.541,0H8.014a2.562,2.562,0,0,1-1.992,1.992Zm0,13.281V29.311A2.562,2.562,0,0,1,8.014,31.3Zm25.541,0H29.571a2.562,2.562,0,0,1,1.992-1.992Z" transform="translate(-5 -17)" fill="#1c77c3"/>
        </g>
      </g>
      <g id="Group_101" data-name="Group 101" transform="translate(9.55 4.968)">
        <rect id="Rectangle_142-7" data-name="Rectangle 142" width="28" height="15" rx="3" transform="translate(0 0.032)" fill="#efefef"/>
        <g id="Group_94-7" data-name="Group 94" transform="translate(0.045 0)">
          <path id="Path_1581-8" data-name="Path 1581" d="M27.108,22a5.108,5.108,0,1,0,5.108,5.108A5.108,5.108,0,0,0,27.108,22Zm0,9.195a4.087,4.087,0,1,1,4.087-4.087,4.087,4.087,0,0,1-4.087,4.087Z" transform="translate(-13.316 -19.446)" fill="#1c77c3"/>
          <path id="Path_1582-7" data-name="Path 1582" d="M30.532,27.043h1.022a.511.511,0,1,0,0-1.022h-.511v-.511a.511.511,0,0,0-1.022,0v.6a1.529,1.529,0,0,0,.511,2.971.511.511,0,1,1,0,1.022H29.511a.511.511,0,1,0,0,1.022h.511v.511a.511.511,0,0,0,1.022,0v-.6a1.529,1.529,0,0,0-.511-2.971.511.511,0,0,1,0-1.022Z" transform="translate(-16.74 -20.913)" fill="#1c77c3"/>
          <path id="Path_1583-7" data-name="Path 1583" d="M32.074,17H5.511A.511.511,0,0,0,5,17.511v14.3a.511.511,0,0,0,.511.511H32.074a.511.511,0,0,0,.511-.511v-14.3A.511.511,0,0,0,32.074,17ZM28.539,31.3H9.046a3.578,3.578,0,0,0-3.024-3.024V21.046a3.578,3.578,0,0,0,3.024-3.024H28.539a3.578,3.578,0,0,0,3.024,3.024v7.233A3.578,3.578,0,0,0,28.539,31.3Zm3.024-13.281v1.992a2.562,2.562,0,0,1-1.992-1.992Zm-25.541,0H8.014a2.562,2.562,0,0,1-1.992,1.992Zm0,13.281V29.311A2.562,2.562,0,0,1,8.014,31.3Zm25.541,0H29.571a2.562,2.562,0,0,1,1.992-1.992Z" transform="translate(-5 -17)" fill="#1c77c3"/>
        </g>
      </g>
      <g id="Group_102" data-name="Group 102" transform="translate(4.797 9.765)">
        <rect id="Rectangle_142-8" data-name="Rectangle 142" width="27" height="15" rx="3" transform="translate(0.752 0.235)" fill="#efefef"/>
        <g id="Group_94-8" data-name="Group 94" transform="translate(0 0)">
          <path id="Path_1581-9" data-name="Path 1581" d="M27.108,22a5.108,5.108,0,1,0,5.108,5.108A5.108,5.108,0,0,0,27.108,22Zm0,9.195a4.087,4.087,0,1,1,4.087-4.087,4.087,4.087,0,0,1-4.087,4.087Z" transform="translate(-13.316 -19.446)" fill="#1c77c3"/>
          <path id="Path_1582-8" data-name="Path 1582" d="M30.532,27.043h1.022a.511.511,0,1,0,0-1.022h-.511v-.511a.511.511,0,0,0-1.022,0v.6a1.529,1.529,0,0,0,.511,2.971.511.511,0,1,1,0,1.022H29.511a.511.511,0,1,0,0,1.022h.511v.511a.511.511,0,0,0,1.022,0v-.6a1.529,1.529,0,0,0-.511-2.971.511.511,0,0,1,0-1.022Z" transform="translate(-16.74 -20.913)" fill="#1c77c3"/>
          <path id="Path_1583-8" data-name="Path 1583" d="M32.074,17H5.511A.511.511,0,0,0,5,17.511v14.3a.511.511,0,0,0,.511.511H32.074a.511.511,0,0,0,.511-.511v-14.3A.511.511,0,0,0,32.074,17ZM28.539,31.3H9.046a3.578,3.578,0,0,0-3.024-3.024V21.046a3.578,3.578,0,0,0,3.024-3.024H28.539a3.578,3.578,0,0,0,3.024,3.024v7.233A3.578,3.578,0,0,0,28.539,31.3Zm3.024-13.281v1.992a2.562,2.562,0,0,1-1.992-1.992Zm-25.541,0H8.014a2.562,2.562,0,0,1-1.992,1.992Zm0,13.281V29.311A2.562,2.562,0,0,1,8.014,31.3Zm25.541,0H29.571a2.562,2.562,0,0,1,1.992-1.992Z" transform="translate(-5 -17)" fill="#1c77c3"/>
        </g>
      </g>
    </g>
    <g id="Group_105" data-name="Group 105" transform="translate(2982.173 3172)">
      <g id="Group_103-2" data-name="Group 103" transform="translate(0 0)">
        <rect id="Rectangle_142-9" data-name="Rectangle 142" width="27" height="15" rx="3" transform="translate(0.748)" fill="#efefef"/>
        <g id="Group_94-9" data-name="Group 94" transform="translate(0 0.066)">
          <path id="Path_1581-10" data-name="Path 1581" d="M27.108,22a5.108,5.108,0,1,0,5.108,5.108A5.108,5.108,0,0,0,27.108,22Zm0,9.195a4.087,4.087,0,1,1,4.087-4.087,4.087,4.087,0,0,1-4.087,4.087Z" transform="translate(-13.316 -19.446)" fill="#1c77c3"/>
          <path id="Path_1582-9" data-name="Path 1582" d="M30.532,27.043h1.022a.511.511,0,1,0,0-1.022h-.511v-.511a.511.511,0,0,0-1.022,0v.6a1.529,1.529,0,0,0,.511,2.971.511.511,0,1,1,0,1.022H29.511a.511.511,0,1,0,0,1.022h.511v.511a.511.511,0,0,0,1.022,0v-.6a1.529,1.529,0,0,0-.511-2.971.511.511,0,0,1,0-1.022Z" transform="translate(-16.74 -20.913)" fill="#1c77c3"/>
          <path id="Path_1583-9" data-name="Path 1583" d="M32.074,17H5.511A.511.511,0,0,0,5,17.511v14.3a.511.511,0,0,0,.511.511H32.074a.511.511,0,0,0,.511-.511v-14.3A.511.511,0,0,0,32.074,17ZM28.539,31.3H9.046a3.578,3.578,0,0,0-3.024-3.024V21.046a3.578,3.578,0,0,0,3.024-3.024H28.539a3.578,3.578,0,0,0,3.024,3.024v7.233A3.578,3.578,0,0,0,28.539,31.3Zm3.024-13.281v1.992a2.562,2.562,0,0,1-1.992-1.992Zm-25.541,0H8.014a2.562,2.562,0,0,1-1.992,1.992Zm0,13.281V29.311A2.562,2.562,0,0,1,8.014,31.3Zm25.541,0H29.571a2.562,2.562,0,0,1,1.992-1.992Z" transform="translate(-5 -17)" fill="#1c77c3"/>
        </g>
      </g>
      <g id="Group_101-2" data-name="Group 101" transform="translate(9.595 4.864)">
        <rect id="Rectangle_142-10" data-name="Rectangle 142" width="27" height="15" rx="3" transform="translate(0.153 0.136)" fill="#efefef"/>
        <g id="Group_94-10" data-name="Group 94" transform="translate(0 0)">
          <path id="Path_1581-11" data-name="Path 1581" d="M27.108,22a5.108,5.108,0,1,0,5.108,5.108A5.108,5.108,0,0,0,27.108,22Zm0,9.195a4.087,4.087,0,1,1,4.087-4.087,4.087,4.087,0,0,1-4.087,4.087Z" transform="translate(-13.316 -19.446)" fill="#1c77c3"/>
          <path id="Path_1582-10" data-name="Path 1582" d="M30.532,27.043h1.022a.511.511,0,1,0,0-1.022h-.511v-.511a.511.511,0,0,0-1.022,0v.6a1.529,1.529,0,0,0,.511,2.971.511.511,0,1,1,0,1.022H29.511a.511.511,0,1,0,0,1.022h.511v.511a.511.511,0,0,0,1.022,0v-.6a1.529,1.529,0,0,0-.511-2.971.511.511,0,0,1,0-1.022Z" transform="translate(-16.74 -20.913)" fill="#1c77c3"/>
          <path id="Path_1583-10" data-name="Path 1583" d="M32.074,17H5.511A.511.511,0,0,0,5,17.511v14.3a.511.511,0,0,0,.511.511H32.074a.511.511,0,0,0,.511-.511v-14.3A.511.511,0,0,0,32.074,17ZM28.539,31.3H9.046a3.578,3.578,0,0,0-3.024-3.024V21.046a3.578,3.578,0,0,0,3.024-3.024H28.539a3.578,3.578,0,0,0,3.024,3.024v7.233A3.578,3.578,0,0,0,28.539,31.3Zm3.024-13.281v1.992a2.562,2.562,0,0,1-1.992-1.992Zm-25.541,0H8.014a2.562,2.562,0,0,1-1.992,1.992Zm0,13.281V29.311A2.562,2.562,0,0,1,8.014,31.3Zm25.541,0H29.571a2.562,2.562,0,0,1,1.992-1.992Z" transform="translate(-5 -17)" fill="#1c77c3"/>
        </g>
      </g>
      <g id="Group_102-2" data-name="Group 102" transform="translate(4.748 9.661)">
        <rect id="Rectangle_142-11" data-name="Rectangle 142" width="28" height="15" rx="3" transform="translate(0 0.339)" fill="#efefef"/>
        <g id="Group_94-11" data-name="Group 94" transform="translate(0.05 0)">
          <path id="Path_1581-12" data-name="Path 1581" d="M27.108,22a5.108,5.108,0,1,0,5.108,5.108A5.108,5.108,0,0,0,27.108,22Zm0,9.195a4.087,4.087,0,1,1,4.087-4.087,4.087,4.087,0,0,1-4.087,4.087Z" transform="translate(-13.316 -19.446)" fill="#1c77c3"/>
          <path id="Path_1582-11" data-name="Path 1582" d="M30.532,27.043h1.022a.511.511,0,1,0,0-1.022h-.511v-.511a.511.511,0,0,0-1.022,0v.6a1.529,1.529,0,0,0,.511,2.971.511.511,0,1,1,0,1.022H29.511a.511.511,0,1,0,0,1.022h.511v.511a.511.511,0,0,0,1.022,0v-.6a1.529,1.529,0,0,0-.511-2.971.511.511,0,0,1,0-1.022Z" transform="translate(-16.74 -20.913)" fill="#1c77c3"/>
          <path id="Path_1583-11" data-name="Path 1583" d="M32.074,17H5.511A.511.511,0,0,0,5,17.511v14.3a.511.511,0,0,0,.511.511H32.074a.511.511,0,0,0,.511-.511v-14.3A.511.511,0,0,0,32.074,17ZM28.539,31.3H9.046a3.578,3.578,0,0,0-3.024-3.024V21.046a3.578,3.578,0,0,0,3.024-3.024H28.539a3.578,3.578,0,0,0,3.024,3.024v7.233A3.578,3.578,0,0,0,28.539,31.3Zm3.024-13.281v1.992a2.562,2.562,0,0,1-1.992-1.992Zm-25.541,0H8.014a2.562,2.562,0,0,1-1.992,1.992Zm0,13.281V29.311A2.562,2.562,0,0,1,8.014,31.3Zm25.541,0H29.571a2.562,2.562,0,0,1,1.992-1.992Z" transform="translate(-5 -17)" fill="#1c77c3"/>
        </g>
      </g>
    </g>
    <g id="Group_106" data-name="Group 106" transform="translate(2480.008 3397.281)">
      <g id="Group_101-3" data-name="Group 101" transform="translate(12.296 0)">
        <rect id="Rectangle_142-12" data-name="Rectangle 142" width="71" height="38" rx="3" transform="translate(0.109 0.719)" fill="#efefef"/>
        <g id="Group_94-12" data-name="Group 94" transform="translate(0)">
          <path id="Path_1581-13" data-name="Path 1581" d="M35.092,22A13.092,13.092,0,1,0,48.185,35.092,13.092,13.092,0,0,0,35.092,22Zm0,23.566A10.474,10.474,0,1,1,45.566,35.092,10.474,10.474,0,0,1,35.092,45.566Z" transform="translate(0.257 -15.454)" fill="#1c77c3"/>
          <path id="Path_1582-12" data-name="Path 1582" d="M32.928,30.237h2.618a1.309,1.309,0,1,0,0-2.618H34.237V26.309a1.309,1.309,0,1,0-2.618,0V27.86a3.918,3.918,0,0,0,1.309,7.614,1.309,1.309,0,1,1,0,2.618H30.309a1.309,1.309,0,1,0,0,2.618h1.309V42.02a1.309,1.309,0,0,0,2.618,0V40.469a3.918,3.918,0,0,0-1.309-7.614,1.309,1.309,0,1,1,0-2.618Z" transform="translate(2.422 -14.526)" fill="#1c77c3"/>
          <path id="Path_1583-12" data-name="Path 1583" d="M74.389,17H6.309A1.309,1.309,0,0,0,5,18.309V54.968a1.309,1.309,0,0,0,1.309,1.309h68.08A1.309,1.309,0,0,0,75.7,54.968V18.309A1.309,1.309,0,0,0,74.389,17Zm-9.06,36.658H15.369a9.171,9.171,0,0,0-7.751-7.751V27.369a9.171,9.171,0,0,0,7.751-7.751h49.96a9.171,9.171,0,0,0,7.751,7.751V45.908A9.171,9.171,0,0,0,65.329,53.658Zm7.751-34.04v5.105a6.565,6.565,0,0,1-5.105-5.105Zm-65.462,0h5.105a6.565,6.565,0,0,1-5.105,5.105Zm0,34.04V48.553a6.565,6.565,0,0,1,5.105,5.105Zm65.462,0H67.975a6.565,6.565,0,0,1,5.105-5.105Z" transform="translate(-5 -17)" fill="#1c77c3"/>
        </g>
      </g>
      <g id="Group_102-3" data-name="Group 102" transform="translate(0 12.296)">
        <rect id="Rectangle_142-13" data-name="Rectangle 142" width="70" height="39" rx="3" transform="translate(0.405 0.423)" fill="#efefef"/>
        <g id="Group_94-13" data-name="Group 94" transform="translate(0 0)">
          <path id="Path_1581-14" data-name="Path 1581" d="M35.092,22A13.092,13.092,0,1,0,48.185,35.092,13.092,13.092,0,0,0,35.092,22Zm0,23.566A10.474,10.474,0,1,1,45.566,35.092,10.474,10.474,0,0,1,35.092,45.566Z" transform="translate(0.257 -15.454)" fill="#1c77c3"/>
          <path id="Path_1582-13" data-name="Path 1582" d="M32.928,30.237h2.618a1.309,1.309,0,1,0,0-2.618H34.237V26.309a1.309,1.309,0,1,0-2.618,0V27.86a3.918,3.918,0,0,0,1.309,7.614,1.309,1.309,0,1,1,0,2.618H30.309a1.309,1.309,0,1,0,0,2.618h1.309V42.02a1.309,1.309,0,0,0,2.618,0V40.469a3.918,3.918,0,0,0-1.309-7.614,1.309,1.309,0,1,1,0-2.618Z" transform="translate(2.422 -14.526)" fill="#1c77c3"/>
          <path id="Path_1583-13" data-name="Path 1583" d="M74.389,17H6.309A1.309,1.309,0,0,0,5,18.309V54.968a1.309,1.309,0,0,0,1.309,1.309h68.08A1.309,1.309,0,0,0,75.7,54.968V18.309A1.309,1.309,0,0,0,74.389,17Zm-9.06,36.658H15.369a9.171,9.171,0,0,0-7.751-7.751V27.369a9.171,9.171,0,0,0,7.751-7.751h49.96a9.171,9.171,0,0,0,7.751,7.751V45.908A9.171,9.171,0,0,0,65.329,53.658Zm7.751-34.04v5.105a6.565,6.565,0,0,1-5.105-5.105Zm-65.462,0h5.105a6.565,6.565,0,0,1-5.105,5.105Zm0,34.04V48.553a6.565,6.565,0,0,1,5.105,5.105Zm65.462,0H67.975a6.565,6.565,0,0,1,5.105-5.105Z" transform="translate(-5 -17)" fill="#1c77c3"/>
        </g>
      </g>
    </g>
    <path id="Path_3164" data-name="Path 3164" d="M1.68,28H15.96V23.5H11.37V6.55H6.84L1.05,11.98l3.03,3.24,1.29-1.17a4.052,4.052,0,0,0,.84-1.14h.06s-.03.84-.03,1.65V23.5H1.68Z" transform="translate(2440 3132)" fill="#1c77c3"/>
    <path id="Path_3162" data-name="Path 3162" d="M1.68,28H16.53V23.5H7.41c.15-2.76,8.79-4.05,8.79-10.74,0-4.56-3.81-6.57-7.32-6.57a8.272,8.272,0,0,0-7.56,4.62l3.9,2.61s1.14-2.28,3.18-2.28a2.119,2.119,0,0,1,2.31,2.13c0,3.09-9.27,4.5-9.27,12.42A13.144,13.144,0,0,0,1.68,28Z" transform="translate(2982 3313)" fill="#1c77c3"/>
    <path id="Path_3159" data-name="Path 3159" d="M.9,25.54a10.17,10.17,0,0,0,7.32,2.82c5.37,0,7.95-3.66,7.95-7.32a6.3,6.3,0,0,0-5.19-6.21l4.35-5.01V6.55H1.8v4.5H6.93a10.686,10.686,0,0,0,2.04-.15v.06a23.336,23.336,0,0,0-1.86,2.01L4.29,16.36,5.4,18.91H6.9c2.31,0,3.99.69,3.99,2.37,0,1.17-1.11,2.13-3.06,2.13a7.014,7.014,0,0,1-4.41-1.92Z" transform="translate(2775 3506)" fill="#1c77c3"/>
    <path id="Path_3158" data-name="Path 3158" d="M.78,22.81h9.51V28h5.19V22.81h2.55V18.46H15.48V6.55H9.06L.78,19.63Zm5.34-4.35V18.4l3.24-4.92a11.431,11.431,0,0,0,1.05-2.22h.06a19.17,19.17,0,0,0-.18,2.4v4.8Z" transform="translate(2416 3493)" fill="#1c77c3"/>
    <g id="Group_222" data-name="Group 222" transform="translate(2858.7 3341.821)">
      <path id="Path_1585-2" data-name="Path 1585" d="M107.523,26.111l-4.25.906L81.4,30.353l-1.219-8.188,10.032-1.82C64.1,5.149,28.244,6.969,5.469,27.017L0,20.642C26.432-3.039,67.435-4.547,97.211,14.25L95.077,1.219,103.586,0l3.336,22.165.6,3.945Z" transform="translate(71.947 150.699) rotate(-132)"/>
      <path id="Path_1584-2" data-name="Path 1584" d="M0,4.242l4.25-.906L26.119,0l1.219,8.188-10.032,1.82c26.119,15.2,61.974,13.376,84.748-6.672l5.469,6.375C81.092,33.392,40.089,34.9,10.313,16.1l2.133,13.031L3.938,30.353.6,8.188,0,4.242Z" transform="translate(134.512 93.45) rotate(-139)"/>
    </g>
  </g>
</svg>
