<svg xmlns="http://www.w3.org/2000/svg" width="1052" height="470" viewBox="0 0 1052 470">
  <g id="Group_750" data-name="Group 750" transform="translate(-388 -2750)">
    <text id="Life_Cycle_of_a_Loan" data-name="Life Cycle of a Loan" transform="translate(388 2750)" fill="#a70505" font-size="20" font-family="MuseoSans-900, Museo Sans" font-weight="900"><tspan x="0" y="19">Life Cycle of a Loan</tspan></text>
    <g id="Group_223" data-name="Group 223" transform="translate(214 783)">
      <text id="Deposits_money_into_the_bank" data-name="Deposits money into the bank" transform="translate(548 2021)" fill="#070707" font-size="16" font-family="MuseoSans-900, Museo Sans" font-weight="900"><tspan x="0" y="15">Deposits money </tspan><tspan x="0" y="34">into the bank</tspan></text>
      <text id="Bank_loans_out_deposited_money_to_borrowers" data-name="Bank loans out deposited money to borrowers" transform="translate(1089 2183)" fill="#070707" font-size="16" font-family="MuseoSans-900, Museo Sans" font-weight="900"><tspan x="0" y="15">Bank loans out </tspan><tspan x="0" y="34">deposited money </tspan><tspan x="0" y="53">to borrowers</tspan></text>
      <text id="Borrowers_pay_back_loan_with_interest" data-name="Borrowers pay back loan with interest" transform="translate(885 2396)" fill="#070707" font-size="16" font-family="MuseoSans-900, Museo Sans" font-weight="900"><tspan x="0" y="15">Borrowers pay back </tspan><tspan x="0" y="34">loan with interest</tspan></text>
      <text id="Bank_deposits_a_fraction_of_the_interest_into_savings_accounts" data-name="Bank deposits a fraction of the interest into savings accounts" transform="translate(526 2362)" fill="#070707" font-size="16" font-family="MuseoSans-900, Museo Sans" font-weight="900"><tspan x="0" y="15">Bank deposits a </tspan><tspan x="0" y="34">fraction of the interest </tspan><tspan x="0" y="53">into savings accounts</tspan></text>
      <g id="Group_93" data-name="Group 93" transform="translate(834.509 2151.836)">
        <path id="Path_1579" data-name="Path 1579" d="M1.23,35.22H118.107L59.668,1.85ZM42.142,24.368,59.668,14.33,77.194,24.368Z" transform="translate(-1.23 -1.85)" fill="#7d0404"/>
        <rect id="Rectangle_135" data-name="Rectangle 135" width="108.521" height="10.852" transform="translate(4.178 38.796)" fill="#7d0404"/>
        <rect id="Rectangle_136" data-name="Rectangle 136" width="108.521" height="10.852" transform="translate(4.178 98.482)" fill="#7d0404"/>
        <rect id="Rectangle_137" data-name="Rectangle 137" width="10.852" height="37.982" transform="translate(53.012 55.074)" fill="#7d0404"/>
        <rect id="Rectangle_138" data-name="Rectangle 138" width="10.852" height="37.982" transform="translate(31.308 55.074)" fill="#7d0404"/>
        <rect id="Rectangle_139" data-name="Rectangle 139" width="10.852" height="37.982" transform="translate(9.604 55.074)" fill="#7d0404"/>
        <rect id="Rectangle_140" data-name="Rectangle 140" width="10.852" height="37.982" transform="translate(96.421 55.074)" fill="#7d0404"/>
        <rect id="Rectangle_141" data-name="Rectangle 141" width="10.852" height="37.982" transform="translate(74.716 55.074)" fill="#7d0404"/>
      </g>
      <path id="Path_1580" data-name="Path 1580" d="M41.233,32.773A15.386,15.386,0,1,0,25.847,17.386,15.386,15.386,0,0,0,41.233,32.773Zm0-26.926a11.54,11.54,0,1,1-11.54,11.54A11.551,11.551,0,0,1,41.233,5.847Zm11.54,34.619H29.693A7.693,7.693,0,0,0,22,48.159V78.932l7.693,7.693v26.926A3.847,3.847,0,0,0,33.54,117.4H48.926a3.847,3.847,0,0,0,3.847-3.847V86.625l7.693-7.693V48.159A7.693,7.693,0,0,0,52.773,40.466Z" transform="translate(322 2153.131)" fill="#a70505"/>
      <path id="Path_1589" data-name="Path 1589" d="M35.346,23.354A10.677,10.677,0,1,0,24.669,12.677,10.677,10.677,0,0,0,35.346,23.354Zm0-18.684a8.008,8.008,0,1,1-8.008,8.008A8.016,8.016,0,0,1,35.346,4.669Zm8.008,24.023H27.338A5.338,5.338,0,0,0,22,34.031V55.384l5.338,5.338V79.407a2.669,2.669,0,0,0,2.669,2.669H40.684a2.669,2.669,0,0,0,2.669-2.669V60.723l5.338-5.338V34.031A5.338,5.338,0,0,0,43.354,28.692Z" transform="translate(1091.434 2321.208)" fill="#a70505"/>
      <path id="Path_1590" data-name="Path 1590" d="M35.346,23.354A10.677,10.677,0,1,0,24.669,12.677,10.677,10.677,0,0,0,35.346,23.354Zm0-18.684a8.008,8.008,0,1,1-8.008,8.008A8.016,8.016,0,0,1,35.346,4.669Zm8.008,24.023H27.338A5.338,5.338,0,0,0,22,34.031V55.384l5.338,5.338V79.407a2.669,2.669,0,0,0,2.669,2.669H40.684a2.669,2.669,0,0,0,2.669-2.669V60.723l5.338-5.338V34.031A5.338,5.338,0,0,0,43.354,28.692Z" transform="translate(1091.434 2033.904)" fill="#a70505"/>
      <g id="Group_100" data-name="Group 100" transform="translate(534.016 2085)">
        <g id="Group_97" data-name="Group 97" transform="translate(23.212 0)">
          <rect id="Rectangle_142" data-name="Rectangle 142" width="76" height="42" rx="3" transform="translate(0.788)" fill="#efefef"/>
          <g id="Group_94" data-name="Group 94" transform="translate(0 0.436)">
            <path id="Path_1581" data-name="Path 1581" d="M36.212,22A14.212,14.212,0,1,0,50.425,36.212,14.212,14.212,0,0,0,36.212,22Zm0,25.582a11.37,11.37,0,1,1,11.37-11.37,11.37,11.37,0,0,1-11.37,11.37Z" transform="translate(2.161 -14.894)" fill="#1c77c3"/>
            <path id="Path_1582" data-name="Path 1582" d="M33.264,30.685h2.842a1.421,1.421,0,1,0,0-2.842H34.685V26.421a1.421,1.421,0,0,0-2.842,0V28.1a4.253,4.253,0,0,0,1.421,8.266,1.421,1.421,0,1,1,0,2.842H30.421a1.421,1.421,0,1,0,0,2.842h1.421v1.421a1.421,1.421,0,1,0,2.842,0V41.793a4.253,4.253,0,0,0-1.421-8.266,1.421,1.421,0,1,1,0-2.842Z" transform="translate(5.11 -13.63)" fill="#1c77c3"/>
            <path id="Path_1583" data-name="Path 1583" d="M80.326,17H6.421A1.421,1.421,0,0,0,5,18.421V58.216a1.421,1.421,0,0,0,1.421,1.421h73.9a1.421,1.421,0,0,0,1.421-1.421V18.421A1.421,1.421,0,0,0,80.326,17ZM70.491,56.795H16.256a9.955,9.955,0,0,0-8.414-8.414V28.256a9.955,9.955,0,0,0,8.414-8.414H70.491A9.955,9.955,0,0,0,78.9,28.256V48.381A9.955,9.955,0,0,0,70.491,56.795ZM78.9,19.842v5.542a7.127,7.127,0,0,1-5.542-5.542Zm-71.062,0h5.542a7.127,7.127,0,0,1-5.542,5.542Zm0,36.952V51.253a7.127,7.127,0,0,1,5.542,5.542Zm71.062,0H73.363A7.127,7.127,0,0,1,78.9,51.253Z" transform="translate(-5 -17)" fill="#1c77c3"/>
          </g>
        </g>
        <g id="Group_95" data-name="Group 95" transform="translate(46 8.811)">
          <rect id="Rectangle_142-2" data-name="Rectangle 142" width="77" height="42" rx="3" transform="translate(0 0.189)" fill="#efefef"/>
          <g id="Group_94-2" data-name="Group 94" transform="translate(0.053 0)">
            <path id="Path_1581-2" data-name="Path 1581" d="M36.212,22A14.212,14.212,0,1,0,50.425,36.212,14.212,14.212,0,0,0,36.212,22Zm0,25.582a11.37,11.37,0,1,1,11.37-11.37,11.37,11.37,0,0,1-11.37,11.37Z" transform="translate(2.161 -14.894)" fill="#1c77c3"/>
            <path id="Path_1582-2" data-name="Path 1582" d="M33.264,30.685h2.842a1.421,1.421,0,1,0,0-2.842H34.685V26.421a1.421,1.421,0,0,0-2.842,0V28.1a4.253,4.253,0,0,0,1.421,8.266,1.421,1.421,0,1,1,0,2.842H30.421a1.421,1.421,0,1,0,0,2.842h1.421v1.421a1.421,1.421,0,1,0,2.842,0V41.793a4.253,4.253,0,0,0-1.421-8.266,1.421,1.421,0,1,1,0-2.842Z" transform="translate(5.11 -13.63)" fill="#1c77c3"/>
            <path id="Path_1583-2" data-name="Path 1583" d="M80.326,17H6.421A1.421,1.421,0,0,0,5,18.421V58.216a1.421,1.421,0,0,0,1.421,1.421h73.9a1.421,1.421,0,0,0,1.421-1.421V18.421A1.421,1.421,0,0,0,80.326,17ZM70.491,56.795H16.256a9.955,9.955,0,0,0-8.414-8.414V28.256a9.955,9.955,0,0,0,8.414-8.414H70.491A9.955,9.955,0,0,0,78.9,28.256V48.381A9.955,9.955,0,0,0,70.491,56.795ZM78.9,19.842v5.542a7.127,7.127,0,0,1-5.542-5.542Zm-71.062,0h5.542a7.127,7.127,0,0,1-5.542,5.542Zm0,36.952V51.253a7.127,7.127,0,0,1,5.542,5.542Zm71.062,0H73.363A7.127,7.127,0,0,1,78.9,51.253Z" transform="translate(-5 -17)" fill="#1c77c3"/>
          </g>
        </g>
        <g id="Group_99" data-name="Group 99" transform="translate(0 21.755)">
          <rect id="Rectangle_142-3" data-name="Rectangle 142" width="77" height="42" rx="3" transform="translate(0 0.245)" fill="#efefef"/>
          <g id="Group_94-3" data-name="Group 94" transform="translate(0.37)">
            <path id="Path_1581-3" data-name="Path 1581" d="M36.212,22A14.212,14.212,0,1,0,50.425,36.212,14.212,14.212,0,0,0,36.212,22Zm0,25.582a11.37,11.37,0,1,1,11.37-11.37,11.37,11.37,0,0,1-11.37,11.37Z" transform="translate(2.161 -14.894)" fill="#1c77c3"/>
            <path id="Path_1582-3" data-name="Path 1582" d="M33.264,30.685h2.842a1.421,1.421,0,1,0,0-2.842H34.685V26.421a1.421,1.421,0,0,0-2.842,0V28.1a4.253,4.253,0,0,0,1.421,8.266,1.421,1.421,0,1,1,0,2.842H30.421a1.421,1.421,0,1,0,0,2.842h1.421v1.421a1.421,1.421,0,1,0,2.842,0V41.793a4.253,4.253,0,0,0-1.421-8.266,1.421,1.421,0,1,1,0-2.842Z" transform="translate(5.11 -13.63)" fill="#1c77c3"/>
            <path id="Path_1583-3" data-name="Path 1583" d="M80.326,17H6.421A1.421,1.421,0,0,0,5,18.421V58.216a1.421,1.421,0,0,0,1.421,1.421h73.9a1.421,1.421,0,0,0,1.421-1.421V18.421A1.421,1.421,0,0,0,80.326,17ZM70.491,56.795H16.256a9.955,9.955,0,0,0-8.414-8.414V28.256a9.955,9.955,0,0,0,8.414-8.414H70.491A9.955,9.955,0,0,0,78.9,28.256V48.381A9.955,9.955,0,0,0,70.491,56.795ZM78.9,19.842v5.542a7.127,7.127,0,0,1-5.542-5.542Zm-71.062,0h5.542a7.127,7.127,0,0,1-5.542,5.542Zm0,36.952V51.253a7.127,7.127,0,0,1,5.542,5.542Zm71.062,0H73.363A7.127,7.127,0,0,1,78.9,51.253Z" transform="translate(-5 -17)" fill="#1c77c3"/>
          </g>
        </g>
        <g id="Group_98" data-name="Group 98" transform="translate(38.44 36.982)">
          <rect id="Rectangle_142-4" data-name="Rectangle 142" width="77" height="43" rx="3" transform="translate(0.56 0.018)" fill="#efefef"/>
          <g id="Group_94-4" data-name="Group 94" transform="translate(0)">
            <path id="Path_1581-4" data-name="Path 1581" d="M36.212,22A14.212,14.212,0,1,0,50.425,36.212,14.212,14.212,0,0,0,36.212,22Zm0,25.582a11.37,11.37,0,1,1,11.37-11.37,11.37,11.37,0,0,1-11.37,11.37Z" transform="translate(2.161 -14.894)" fill="#1c77c3"/>
            <path id="Path_1582-4" data-name="Path 1582" d="M33.264,30.685h2.842a1.421,1.421,0,1,0,0-2.842H34.685V26.421a1.421,1.421,0,0,0-2.842,0V28.1a4.253,4.253,0,0,0,1.421,8.266,1.421,1.421,0,1,1,0,2.842H30.421a1.421,1.421,0,1,0,0,2.842h1.421v1.421a1.421,1.421,0,1,0,2.842,0V41.793a4.253,4.253,0,0,0-1.421-8.266,1.421,1.421,0,1,1,0-2.842Z" transform="translate(5.11 -13.63)" fill="#1c77c3"/>
            <path id="Path_1583-4" data-name="Path 1583" d="M80.326,17H6.421A1.421,1.421,0,0,0,5,18.421V58.216a1.421,1.421,0,0,0,1.421,1.421h73.9a1.421,1.421,0,0,0,1.421-1.421V18.421A1.421,1.421,0,0,0,80.326,17ZM70.491,56.795H16.256a9.955,9.955,0,0,0-8.414-8.414V28.256a9.955,9.955,0,0,0,8.414-8.414H70.491A9.955,9.955,0,0,0,78.9,28.256V48.381A9.955,9.955,0,0,0,70.491,56.795ZM78.9,19.842v5.542a7.127,7.127,0,0,1-5.542-5.542Zm-71.062,0h5.542a7.127,7.127,0,0,1-5.542,5.542Zm0,36.952V51.253a7.127,7.127,0,0,1,5.542,5.542Zm71.062,0H73.363A7.127,7.127,0,0,1,78.9,51.253Z" transform="translate(-5 -17)" fill="#1c77c3"/>
          </g>
        </g>
        <g id="Group_96" data-name="Group 96" transform="translate(29 30)">
          <rect id="Rectangle_142-5" data-name="Rectangle 142" width="77" height="43" rx="3" fill="#efefef"/>
          <g id="Group_94-5" data-name="Group 94" transform="translate(0.303 0.13)">
            <path id="Path_1581-5" data-name="Path 1581" d="M36.212,22A14.212,14.212,0,1,0,50.425,36.212,14.212,14.212,0,0,0,36.212,22Zm0,25.582a11.37,11.37,0,1,1,11.37-11.37,11.37,11.37,0,0,1-11.37,11.37Z" transform="translate(2.161 -14.894)" fill="#1c77c3"/>
            <path id="Path_1582-5" data-name="Path 1582" d="M33.264,30.685h2.842a1.421,1.421,0,1,0,0-2.842H34.685V26.421a1.421,1.421,0,0,0-2.842,0V28.1a4.253,4.253,0,0,0,1.421,8.266,1.421,1.421,0,1,1,0,2.842H30.421a1.421,1.421,0,1,0,0,2.842h1.421v1.421a1.421,1.421,0,1,0,2.842,0V41.793a4.253,4.253,0,0,0-1.421-8.266,1.421,1.421,0,1,1,0-2.842Z" transform="translate(5.11 -13.63)" fill="#1c77c3"/>
            <path id="Path_1583-5" data-name="Path 1583" d="M80.326,17H6.421A1.421,1.421,0,0,0,5,18.421V58.216a1.421,1.421,0,0,0,1.421,1.421h73.9a1.421,1.421,0,0,0,1.421-1.421V18.421A1.421,1.421,0,0,0,80.326,17ZM70.491,56.795H16.256a9.955,9.955,0,0,0-8.414-8.414V28.256a9.955,9.955,0,0,0,8.414-8.414H70.491A9.955,9.955,0,0,0,78.9,28.256V48.381A9.955,9.955,0,0,0,70.491,56.795ZM78.9,19.842v5.542a7.127,7.127,0,0,1-5.542-5.542Zm-71.062,0h5.542a7.127,7.127,0,0,1-5.542,5.542Zm0,36.952V51.253a7.127,7.127,0,0,1,5.542,5.542Zm71.062,0H73.363A7.127,7.127,0,0,1,78.9,51.253Z" transform="translate(-5 -17)" fill="#1c77c3"/>
          </g>
        </g>
      </g>
      <path id="Path_1581-6" data-name="Path 1581" d="M107.523,26.111l-4.25.906L81.4,30.353l-1.219-8.188,10.032-1.82C64.1,5.148,28.244,6.969,5.469,27.017L0,20.641C26.432-3.039,67.435-4.547,97.21,14.25L95.077,1.219,103.586,0l3.336,22.165.6,3.945Z" transform="matrix(0.848, -0.53, 0.53, 0.848, 379.395, 2146.864)"/>
      <path id="Path_1588" data-name="Path 1588" d="M107.523,26.111l-4.25.906L81.4,30.353l-1.219-8.188,10.032-1.82C64.1,5.148,28.244,6.969,5.469,27.017L0,20.642C26.432-3.039,67.435-4.547,97.21,14.25L95.077,1.219,103.586,0l3.336,22.165.6,3.945Z" transform="matrix(0.891, 0.454, -0.454, 0.891, 711.219, 2099.712)"/>
      <g id="Group_221" data-name="Group 221">
        <path id="Path_1585" data-name="Path 1585" d="M107.523,4.242l-4.25-.906L81.4,0,80.185,8.188l10.032,1.82C64.1,25.2,28.244,23.384,5.469,3.336L0,9.711C26.432,33.392,67.435,34.9,97.21,16.1L95.077,29.134l8.509,1.219,3.336-22.165.6-3.945Z" transform="translate(994.622 2186.209) rotate(-48)"/>
        <path id="Path_1584" data-name="Path 1584" d="M0,26.111l4.25.906,21.869,3.336,1.219-8.188-10.032-1.82c26.119-15.2,61.973-13.376,84.748,6.672l5.469-6.375C81.092-3.039,40.089-4.547,10.313,14.25L12.446,1.219,3.938,0,.6,22.165,0,26.111Z" transform="matrix(0.755, -0.656, 0.656, 0.755, 934.701, 2126.363)"/>
      </g>
      <path id="Path_1591" data-name="Path 1591" d="M0,4.242l4.25-.906L26.119,0l1.219,8.188-10.032,1.82c26.119,15.2,61.973,13.376,84.748-6.672l5.469,6.375C81.092,33.392,40.089,34.9,10.313,16.1l2.133,13.031L3.938,30.353.6,8.188,0,4.242Z" transform="translate(698.852 2311.148) rotate(-29)"/>
      <path id="Path_1592" data-name="Path 1592" d="M0,4.242l4.25-.906L26.119,0l1.219,8.188-10.032,1.82c26.119,15.2,61.973,13.376,84.748-6.672l5.469,6.375C81.092,33.392,40.089,34.9,10.313,16.1l2.133,13.031L3.938,30.353.6,8.188,0,4.242Z" transform="translate(398.856 2254.335) rotate(30)"/>
      <g id="Group_104" data-name="Group 104" transform="translate(1062.097 2355)">
        <g id="Group_103" data-name="Group 103" transform="translate(0 0)">
          <rect id="Rectangle_142-6" data-name="Rectangle 142" width="27" height="16" rx="3" transform="translate(0.55)" fill="#efefef"/>
          <g id="Group_94-6" data-name="Group 94" transform="translate(0 0.17)">
            <path id="Path_1581-7" data-name="Path 1581" d="M27.108,22a5.108,5.108,0,1,0,5.108,5.108A5.108,5.108,0,0,0,27.108,22Zm0,9.195a4.087,4.087,0,1,1,4.087-4.087,4.087,4.087,0,0,1-4.087,4.087Z" transform="translate(-13.316 -19.446)" fill="#1c77c3"/>
            <path id="Path_1582-6" data-name="Path 1582" d="M30.532,27.043h1.022a.511.511,0,1,0,0-1.022h-.511v-.511a.511.511,0,0,0-1.022,0v.6a1.529,1.529,0,0,0,.511,2.971.511.511,0,1,1,0,1.022H29.511a.511.511,0,1,0,0,1.022h.511v.511a.511.511,0,0,0,1.022,0v-.6a1.529,1.529,0,0,0-.511-2.971.511.511,0,0,1,0-1.022Z" transform="translate(-16.74 -20.913)" fill="#1c77c3"/>
            <path id="Path_1583-6" data-name="Path 1583" d="M32.074,17H5.511A.511.511,0,0,0,5,17.511v14.3a.511.511,0,0,0,.511.511H32.074a.511.511,0,0,0,.511-.511v-14.3A.511.511,0,0,0,32.074,17ZM28.539,31.3H9.046a3.578,3.578,0,0,0-3.024-3.024V21.046a3.578,3.578,0,0,0,3.024-3.024H28.539a3.578,3.578,0,0,0,3.024,3.024v7.233A3.578,3.578,0,0,0,28.539,31.3Zm3.024-13.281v1.992a2.562,2.562,0,0,1-1.992-1.992Zm-25.541,0H8.014a2.562,2.562,0,0,1-1.992,1.992Zm0,13.281V29.311A2.562,2.562,0,0,1,8.014,31.3Zm25.541,0H29.571a2.562,2.562,0,0,1,1.992-1.992Z" transform="translate(-5 -17)" fill="#1c77c3"/>
          </g>
        </g>
        <g id="Group_101" data-name="Group 101" transform="translate(9.55 4.968)">
          <rect id="Rectangle_142-7" data-name="Rectangle 142" width="28" height="15" rx="3" transform="translate(0 0.032)" fill="#efefef"/>
          <g id="Group_94-7" data-name="Group 94" transform="translate(0.045 0)">
            <path id="Path_1581-8" data-name="Path 1581" d="M27.108,22a5.108,5.108,0,1,0,5.108,5.108A5.108,5.108,0,0,0,27.108,22Zm0,9.195a4.087,4.087,0,1,1,4.087-4.087,4.087,4.087,0,0,1-4.087,4.087Z" transform="translate(-13.316 -19.446)" fill="#1c77c3"/>
            <path id="Path_1582-7" data-name="Path 1582" d="M30.532,27.043h1.022a.511.511,0,1,0,0-1.022h-.511v-.511a.511.511,0,0,0-1.022,0v.6a1.529,1.529,0,0,0,.511,2.971.511.511,0,1,1,0,1.022H29.511a.511.511,0,1,0,0,1.022h.511v.511a.511.511,0,0,0,1.022,0v-.6a1.529,1.529,0,0,0-.511-2.971.511.511,0,0,1,0-1.022Z" transform="translate(-16.74 -20.913)" fill="#1c77c3"/>
            <path id="Path_1583-7" data-name="Path 1583" d="M32.074,17H5.511A.511.511,0,0,0,5,17.511v14.3a.511.511,0,0,0,.511.511H32.074a.511.511,0,0,0,.511-.511v-14.3A.511.511,0,0,0,32.074,17ZM28.539,31.3H9.046a3.578,3.578,0,0,0-3.024-3.024V21.046a3.578,3.578,0,0,0,3.024-3.024H28.539a3.578,3.578,0,0,0,3.024,3.024v7.233A3.578,3.578,0,0,0,28.539,31.3Zm3.024-13.281v1.992a2.562,2.562,0,0,1-1.992-1.992Zm-25.541,0H8.014a2.562,2.562,0,0,1-1.992,1.992Zm0,13.281V29.311A2.562,2.562,0,0,1,8.014,31.3Zm25.541,0H29.571a2.562,2.562,0,0,1,1.992-1.992Z" transform="translate(-5 -17)" fill="#1c77c3"/>
          </g>
        </g>
        <g id="Group_102" data-name="Group 102" transform="translate(4.797 9.765)">
          <rect id="Rectangle_142-8" data-name="Rectangle 142" width="27" height="15" rx="3" transform="translate(0.752 0.235)" fill="#efefef"/>
          <g id="Group_94-8" data-name="Group 94" transform="translate(0 0)">
            <path id="Path_1581-9" data-name="Path 1581" d="M27.108,22a5.108,5.108,0,1,0,5.108,5.108A5.108,5.108,0,0,0,27.108,22Zm0,9.195a4.087,4.087,0,1,1,4.087-4.087,4.087,4.087,0,0,1-4.087,4.087Z" transform="translate(-13.316 -19.446)" fill="#1c77c3"/>
            <path id="Path_1582-8" data-name="Path 1582" d="M30.532,27.043h1.022a.511.511,0,1,0,0-1.022h-.511v-.511a.511.511,0,0,0-1.022,0v.6a1.529,1.529,0,0,0,.511,2.971.511.511,0,1,1,0,1.022H29.511a.511.511,0,1,0,0,1.022h.511v.511a.511.511,0,0,0,1.022,0v-.6a1.529,1.529,0,0,0-.511-2.971.511.511,0,0,1,0-1.022Z" transform="translate(-16.74 -20.913)" fill="#1c77c3"/>
            <path id="Path_1583-8" data-name="Path 1583" d="M32.074,17H5.511A.511.511,0,0,0,5,17.511v14.3a.511.511,0,0,0,.511.511H32.074a.511.511,0,0,0,.511-.511v-14.3A.511.511,0,0,0,32.074,17ZM28.539,31.3H9.046a3.578,3.578,0,0,0-3.024-3.024V21.046a3.578,3.578,0,0,0,3.024-3.024H28.539a3.578,3.578,0,0,0,3.024,3.024v7.233A3.578,3.578,0,0,0,28.539,31.3Zm3.024-13.281v1.992a2.562,2.562,0,0,1-1.992-1.992Zm-25.541,0H8.014a2.562,2.562,0,0,1-1.992,1.992Zm0,13.281V29.311A2.562,2.562,0,0,1,8.014,31.3Zm25.541,0H29.571a2.562,2.562,0,0,1,1.992-1.992Z" transform="translate(-5 -17)" fill="#1c77c3"/>
          </g>
        </g>
      </g>
      <g id="Group_105" data-name="Group 105" transform="translate(1058.173 2067)">
        <g id="Group_103-2" data-name="Group 103" transform="translate(0 0)">
          <rect id="Rectangle_142-9" data-name="Rectangle 142" width="27" height="15" rx="3" transform="translate(0.748)" fill="#efefef"/>
          <g id="Group_94-9" data-name="Group 94" transform="translate(0 0.066)">
            <path id="Path_1581-10" data-name="Path 1581" d="M27.108,22a5.108,5.108,0,1,0,5.108,5.108A5.108,5.108,0,0,0,27.108,22Zm0,9.195a4.087,4.087,0,1,1,4.087-4.087,4.087,4.087,0,0,1-4.087,4.087Z" transform="translate(-13.316 -19.446)" fill="#1c77c3"/>
            <path id="Path_1582-9" data-name="Path 1582" d="M30.532,27.043h1.022a.511.511,0,1,0,0-1.022h-.511v-.511a.511.511,0,0,0-1.022,0v.6a1.529,1.529,0,0,0,.511,2.971.511.511,0,1,1,0,1.022H29.511a.511.511,0,1,0,0,1.022h.511v.511a.511.511,0,0,0,1.022,0v-.6a1.529,1.529,0,0,0-.511-2.971.511.511,0,0,1,0-1.022Z" transform="translate(-16.74 -20.913)" fill="#1c77c3"/>
            <path id="Path_1583-9" data-name="Path 1583" d="M32.074,17H5.511A.511.511,0,0,0,5,17.511v14.3a.511.511,0,0,0,.511.511H32.074a.511.511,0,0,0,.511-.511v-14.3A.511.511,0,0,0,32.074,17ZM28.539,31.3H9.046a3.578,3.578,0,0,0-3.024-3.024V21.046a3.578,3.578,0,0,0,3.024-3.024H28.539a3.578,3.578,0,0,0,3.024,3.024v7.233A3.578,3.578,0,0,0,28.539,31.3Zm3.024-13.281v1.992a2.562,2.562,0,0,1-1.992-1.992Zm-25.541,0H8.014a2.562,2.562,0,0,1-1.992,1.992Zm0,13.281V29.311A2.562,2.562,0,0,1,8.014,31.3Zm25.541,0H29.571a2.562,2.562,0,0,1,1.992-1.992Z" transform="translate(-5 -17)" fill="#1c77c3"/>
          </g>
        </g>
        <g id="Group_101-2" data-name="Group 101" transform="translate(9.595 4.864)">
          <rect id="Rectangle_142-10" data-name="Rectangle 142" width="27" height="15" rx="3" transform="translate(0.153 0.136)" fill="#efefef"/>
          <g id="Group_94-10" data-name="Group 94" transform="translate(0 0)">
            <path id="Path_1581-11" data-name="Path 1581" d="M27.108,22a5.108,5.108,0,1,0,5.108,5.108A5.108,5.108,0,0,0,27.108,22Zm0,9.195a4.087,4.087,0,1,1,4.087-4.087,4.087,4.087,0,0,1-4.087,4.087Z" transform="translate(-13.316 -19.446)" fill="#1c77c3"/>
            <path id="Path_1582-10" data-name="Path 1582" d="M30.532,27.043h1.022a.511.511,0,1,0,0-1.022h-.511v-.511a.511.511,0,0,0-1.022,0v.6a1.529,1.529,0,0,0,.511,2.971.511.511,0,1,1,0,1.022H29.511a.511.511,0,1,0,0,1.022h.511v.511a.511.511,0,0,0,1.022,0v-.6a1.529,1.529,0,0,0-.511-2.971.511.511,0,0,1,0-1.022Z" transform="translate(-16.74 -20.913)" fill="#1c77c3"/>
            <path id="Path_1583-10" data-name="Path 1583" d="M32.074,17H5.511A.511.511,0,0,0,5,17.511v14.3a.511.511,0,0,0,.511.511H32.074a.511.511,0,0,0,.511-.511v-14.3A.511.511,0,0,0,32.074,17ZM28.539,31.3H9.046a3.578,3.578,0,0,0-3.024-3.024V21.046a3.578,3.578,0,0,0,3.024-3.024H28.539a3.578,3.578,0,0,0,3.024,3.024v7.233A3.578,3.578,0,0,0,28.539,31.3Zm3.024-13.281v1.992a2.562,2.562,0,0,1-1.992-1.992Zm-25.541,0H8.014a2.562,2.562,0,0,1-1.992,1.992Zm0,13.281V29.311A2.562,2.562,0,0,1,8.014,31.3Zm25.541,0H29.571a2.562,2.562,0,0,1,1.992-1.992Z" transform="translate(-5 -17)" fill="#1c77c3"/>
          </g>
        </g>
        <g id="Group_102-2" data-name="Group 102" transform="translate(4.748 9.661)">
          <rect id="Rectangle_142-11" data-name="Rectangle 142" width="28" height="15" rx="3" transform="translate(0 0.339)" fill="#efefef"/>
          <g id="Group_94-11" data-name="Group 94" transform="translate(0.05 0)">
            <path id="Path_1581-12" data-name="Path 1581" d="M27.108,22a5.108,5.108,0,1,0,5.108,5.108A5.108,5.108,0,0,0,27.108,22Zm0,9.195a4.087,4.087,0,1,1,4.087-4.087,4.087,4.087,0,0,1-4.087,4.087Z" transform="translate(-13.316 -19.446)" fill="#1c77c3"/>
            <path id="Path_1582-11" data-name="Path 1582" d="M30.532,27.043h1.022a.511.511,0,1,0,0-1.022h-.511v-.511a.511.511,0,0,0-1.022,0v.6a1.529,1.529,0,0,0,.511,2.971.511.511,0,1,1,0,1.022H29.511a.511.511,0,1,0,0,1.022h.511v.511a.511.511,0,0,0,1.022,0v-.6a1.529,1.529,0,0,0-.511-2.971.511.511,0,0,1,0-1.022Z" transform="translate(-16.74 -20.913)" fill="#1c77c3"/>
            <path id="Path_1583-11" data-name="Path 1583" d="M32.074,17H5.511A.511.511,0,0,0,5,17.511v14.3a.511.511,0,0,0,.511.511H32.074a.511.511,0,0,0,.511-.511v-14.3A.511.511,0,0,0,32.074,17ZM28.539,31.3H9.046a3.578,3.578,0,0,0-3.024-3.024V21.046a3.578,3.578,0,0,0,3.024-3.024H28.539a3.578,3.578,0,0,0,3.024,3.024v7.233A3.578,3.578,0,0,0,28.539,31.3Zm3.024-13.281v1.992a2.562,2.562,0,0,1-1.992-1.992Zm-25.541,0H8.014a2.562,2.562,0,0,1-1.992,1.992Zm0,13.281V29.311A2.562,2.562,0,0,1,8.014,31.3Zm25.541,0H29.571a2.562,2.562,0,0,1,1.992-1.992Z" transform="translate(-5 -17)" fill="#1c77c3"/>
          </g>
        </g>
      </g>
      <g id="Group_106" data-name="Group 106" transform="translate(556.008 2292.281)">
        <g id="Group_101-3" data-name="Group 101" transform="translate(12.296 0)">
          <rect id="Rectangle_142-12" data-name="Rectangle 142" width="71" height="38" rx="3" transform="translate(0.109 0.719)" fill="#efefef"/>
          <g id="Group_94-12" data-name="Group 94" transform="translate(0)">
            <path id="Path_1581-13" data-name="Path 1581" d="M35.092,22A13.092,13.092,0,1,0,48.185,35.092,13.092,13.092,0,0,0,35.092,22Zm0,23.566A10.474,10.474,0,1,1,45.566,35.092,10.474,10.474,0,0,1,35.092,45.566Z" transform="translate(0.257 -15.454)" fill="#1c77c3"/>
            <path id="Path_1582-12" data-name="Path 1582" d="M32.928,30.237h2.618a1.309,1.309,0,1,0,0-2.618H34.237V26.309a1.309,1.309,0,1,0-2.618,0V27.86a3.918,3.918,0,0,0,1.309,7.614,1.309,1.309,0,1,1,0,2.618H30.309a1.309,1.309,0,1,0,0,2.618h1.309V42.02a1.309,1.309,0,0,0,2.618,0V40.469a3.918,3.918,0,0,0-1.309-7.614,1.309,1.309,0,1,1,0-2.618Z" transform="translate(2.422 -14.526)" fill="#1c77c3"/>
            <path id="Path_1583-12" data-name="Path 1583" d="M74.389,17H6.309A1.309,1.309,0,0,0,5,18.309V54.968a1.309,1.309,0,0,0,1.309,1.309h68.08A1.309,1.309,0,0,0,75.7,54.968V18.309A1.309,1.309,0,0,0,74.389,17Zm-9.06,36.658H15.369a9.171,9.171,0,0,0-7.751-7.751V27.369a9.171,9.171,0,0,0,7.751-7.751h49.96a9.171,9.171,0,0,0,7.751,7.751V45.908A9.171,9.171,0,0,0,65.329,53.658Zm7.751-34.04v5.105a6.565,6.565,0,0,1-5.105-5.105Zm-65.462,0h5.105a6.565,6.565,0,0,1-5.105,5.105Zm0,34.04V48.553a6.565,6.565,0,0,1,5.105,5.105Zm65.462,0H67.975a6.565,6.565,0,0,1,5.105-5.105Z" transform="translate(-5 -17)" fill="#1c77c3"/>
          </g>
        </g>
        <g id="Group_102-3" data-name="Group 102" transform="translate(0 12.296)">
          <rect id="Rectangle_142-13" data-name="Rectangle 142" width="70" height="39" rx="3" transform="translate(0.405 0.423)" fill="#efefef"/>
          <g id="Group_94-13" data-name="Group 94" transform="translate(0 0)">
            <path id="Path_1581-14" data-name="Path 1581" d="M35.092,22A13.092,13.092,0,1,0,48.185,35.092,13.092,13.092,0,0,0,35.092,22Zm0,23.566A10.474,10.474,0,1,1,45.566,35.092,10.474,10.474,0,0,1,35.092,45.566Z" transform="translate(0.257 -15.454)" fill="#1c77c3"/>
            <path id="Path_1582-13" data-name="Path 1582" d="M32.928,30.237h2.618a1.309,1.309,0,1,0,0-2.618H34.237V26.309a1.309,1.309,0,1,0-2.618,0V27.86a3.918,3.918,0,0,0,1.309,7.614,1.309,1.309,0,1,1,0,2.618H30.309a1.309,1.309,0,1,0,0,2.618h1.309V42.02a1.309,1.309,0,0,0,2.618,0V40.469a3.918,3.918,0,0,0-1.309-7.614,1.309,1.309,0,1,1,0-2.618Z" transform="translate(2.422 -14.526)" fill="#1c77c3"/>
            <path id="Path_1583-13" data-name="Path 1583" d="M74.389,17H6.309A1.309,1.309,0,0,0,5,18.309V54.968a1.309,1.309,0,0,0,1.309,1.309h68.08A1.309,1.309,0,0,0,75.7,54.968V18.309A1.309,1.309,0,0,0,74.389,17Zm-9.06,36.658H15.369a9.171,9.171,0,0,0-7.751-7.751V27.369a9.171,9.171,0,0,0,7.751-7.751h49.96a9.171,9.171,0,0,0,7.751,7.751V45.908A9.171,9.171,0,0,0,65.329,53.658Zm7.751-34.04v5.105a6.565,6.565,0,0,1-5.105-5.105Zm-65.462,0h5.105a6.565,6.565,0,0,1-5.105,5.105Zm0,34.04V48.553a6.565,6.565,0,0,1,5.105,5.105Zm65.462,0H67.975a6.565,6.565,0,0,1,5.105-5.105Z" transform="translate(-5 -17)" fill="#1c77c3"/>
          </g>
        </g>
      </g>
      <text id="_1" data-name="1" transform="translate(516 2027)" fill="#1c77c3" font-size="30" font-family="MuseoSans-900, Museo Sans" font-weight="900"><tspan x="0" y="28">1</tspan></text>
      <text id="_2" data-name="2" transform="translate(1058 2208)" fill="#1c77c3" font-size="30" font-family="MuseoSans-900, Museo Sans" font-weight="900"><tspan x="0" y="28">2</tspan></text>
      <text id="_3" data-name="3" transform="translate(851 2401)" fill="#1c77c3" font-size="30" font-family="MuseoSans-900, Museo Sans" font-weight="900"><tspan x="0" y="28">3</tspan></text>
      <text id="_4" data-name="4" transform="translate(492 2388)" fill="#1c77c3" font-size="30" font-family="MuseoSans-900, Museo Sans" font-weight="900"><tspan x="0" y="28">4</tspan></text>
      <g id="Group_222" data-name="Group 222" transform="translate(934.701 2236.821)">
        <path id="Path_1585-2" data-name="Path 1585" d="M107.523,26.111l-4.25.906L81.4,30.353l-1.219-8.188,10.032-1.82C64.1,5.149,28.244,6.969,5.469,27.017L0,20.642C26.432-3.039,67.435-4.547,97.211,14.25L95.077,1.219,103.586,0l3.336,22.165.6,3.945Z" transform="translate(71.947 150.699) rotate(-132)"/>
        <path id="Path_1584-2" data-name="Path 1584" d="M0,4.242l4.25-.906L26.119,0l1.219,8.188-10.032,1.82c26.119,15.2,61.974,13.376,84.748-6.672l5.469,6.375C81.092,33.392,40.089,34.9,10.313,16.1l2.133,13.031L3.938,30.353.6,8.188,0,4.242Z" transform="translate(134.512 93.45) rotate(-139)"/>
      </g>
    </g>
  </g>
</svg>
