<svg xmlns="http://www.w3.org/2000/svg" width="522.609" height="157.087" viewBox="0 0 522.609 157.087">
  <g id="Group_802" data-name="Group 802" transform="translate(-2704 -4129.46)">
    <path id="Path_3156" data-name="Path 3156" d="M.7,11.76a7.321,7.321,0,0,0,7.48,7.48,7.321,7.321,0,0,0,7.48-7.48,7.233,7.233,0,0,0-7.48-7.3A7.233,7.233,0,0,0,.7,11.76Zm3.62,0a3.933,3.933,0,0,1,3.86-4.1,3.933,3.933,0,0,1,3.86,4.1,4.034,4.034,0,0,1-3.86,4.28A4.034,4.034,0,0,1,4.32,11.76ZM17.64,19H21.1V14.44a4.136,4.136,0,0,1,.2-1.36,2.027,2.027,0,0,1,2.04-1.48c.76,0,1.14.4,1.14,1.36V19h3.46V12.32c0-2.9-1.62-3.86-3.7-3.86a3.634,3.634,0,0,0-3.28,1.78h-.04a5.45,5.45,0,0,0,.04-.64V8.7H17.64Zm12.58-3.8c0,3.46,1.96,3.9,3.8,3.9a9.407,9.407,0,0,0,1.04-.06v-3s-.2.02-.42.02c-.78,0-.96-.34-.96-1.32V4.7H30.22Zm5.34,7.28a4.64,4.64,0,0,0,2.4.72,4.437,4.437,0,0,0,4.3-3.1L46.48,8.7H42.7l-1.3,4.8c-.14.56-.34,1.54-.34,1.54h-.04s-.2-1.04-.38-1.6L39.12,8.7H35.2l4.38,10.1-.2.48a1.645,1.645,0,0,1-1.66,1.04,2.3,2.3,0,0,1-1.06-.38ZM52.16,19h9.52V16H58.62V4.7H55.6L51.74,8.32l2.02,2.16.86-.78a2.7,2.7,0,0,0,.56-.76h.04s-.02.56-.02,1.1V16H52.16Zm16.38.24c4.06,0,5.38-3.32,5.38-7.42S72.6,4.46,68.54,4.46s-5.38,3.26-5.38,7.36S64.48,19.24,68.54,19.24Zm0-3.2c-1.38,0-1.78-1.88-1.78-4.22,0-2.32.4-4.16,1.78-4.16s1.78,1.84,1.78,4.16C70.32,14.16,69.92,16.04,68.54,16.04Zm10.6-4.68a3.52,3.52,0,0,0,3.62-3.44,3.624,3.624,0,0,0-7.24,0A3.508,3.508,0,0,0,79.14,11.36ZM76.32,19h3.04L90.4,4.7H87.36ZM79.14,8.96a1.051,1.051,0,1,1,1.1-1.06A1.076,1.076,0,0,1,79.14,8.96Zm4.92,6.84a3.625,3.625,0,0,0,7.24,0,3.624,3.624,0,0,0-7.24,0Zm2.52-.02a1.1,1.1,0,1,1,1.1,1.06A1.086,1.086,0,0,1,86.58,15.78Zm10.5-1.9c0,3.22,2.6,5.36,5.84,5.36s5.84-2.14,5.84-5.36c0-3.24-2.6-5.42-5.86-5.42C99.68,8.46,97.08,10.64,97.08,13.88Zm3.5,0a2.348,2.348,0,1,1,4.68,0,2.344,2.344,0,1,1-4.68,0ZM111.2,19h3.46V11.58h1.9V8.88h-1.9V8.56c0-.88,1.06-1,1.74-1a3.777,3.777,0,0,1,.56.04V4.68a8.128,8.128,0,0,0-1.04-.06c-1.66,0-4.72.46-4.72,3.84v.42h-1.26v2.7h1.26Zm14.98,0h3.5V13.14L134.4,4.7h-3.98l-1.6,3.44c-.46.98-.86,2.06-.86,2.06h-.04s-.4-1.08-.86-2.06L125.44,4.7h-3.98l4.72,8.44Zm7.58-5.12c0,3.22,2.6,5.36,5.84,5.36s5.84-2.14,5.84-5.36c0-3.24-2.6-5.42-5.86-5.42C136.36,8.46,133.76,10.64,133.76,13.88Zm3.5,0a2.348,2.348,0,1,1,4.68,0,2.344,2.344,0,1,1-4.68,0Zm9.84,1.5c0,2.9,1.62,3.86,3.66,3.86a3.57,3.57,0,0,0,3.22-1.78h.04a5.451,5.451,0,0,0-.04.64V19h3.32V8.7h-3.46v4.56c0,1.54-.7,2.84-2.18,2.84-.72,0-1.1-.4-1.1-1.36V8.7H147.1ZM159.86,19h3.46V15.1a4.67,4.67,0,0,1,.18-1.4,2.6,2.6,0,0,1,2.66-1.8,3.682,3.682,0,0,1,.7.06V8.56a2.339,2.339,0,0,0-.4-.04,3.575,3.575,0,0,0-3.28,2.56h-.04a5.449,5.449,0,0,0,.04-.64V8.7h-3.32ZM173,19h3.52l.44-6.44a21.285,21.285,0,0,0,0-2.4H177s.48,1.5.8,2.4l1.5,4.14h3l1.5-4.14c.32-.9.8-2.4.8-2.4h.04a21.285,21.285,0,0,0,0,2.4l.44,6.44h3.5L187.42,4.7h-3.8l-2.08,6.04c-.32.92-.72,2.36-.72,2.36h-.04s-.4-1.44-.72-2.36L177.98,4.7h-3.8Zm17.34-5.12c0,3.22,2.6,5.36,5.84,5.36s5.84-2.14,5.84-5.36c0-3.24-2.6-5.42-5.86-5.42C192.94,8.46,190.34,10.64,190.34,13.88Zm3.5,0a2.348,2.348,0,1,1,4.68,0,2.344,2.344,0,1,1-4.68,0ZM203.82,19h3.46V14.44a4.136,4.136,0,0,1,.2-1.36,2.027,2.027,0,0,1,2.04-1.48c.76,0,1.14.4,1.14,1.36V19h3.46V12.32c0-2.9-1.62-3.86-3.7-3.86a3.634,3.634,0,0,0-3.28,1.78h-.04a5.449,5.449,0,0,0,.04-.64V8.7h-3.32Zm11.98-5.16a5.341,5.341,0,0,0,5.66,5.4,6.955,6.955,0,0,0,4.4-1.5l-1.28-2.42a5.4,5.4,0,0,1-2.84,1.04,2.3,2.3,0,0,1-2.4-1.84h6.5s.08-.74.08-1.08c0-2.86-1.72-4.98-4.76-4.98A5.127,5.127,0,0,0,215.8,13.84Zm3.62-1.3a1.689,1.689,0,0,1,1.66-1.48,1.4,1.4,0,0,1,1.36,1.48Zm7.12,9.94a4.64,4.64,0,0,0,2.4.72,4.437,4.437,0,0,0,4.3-3.1l4.22-11.4h-3.78l-1.3,4.8c-.14.56-.34,1.54-.34,1.54H232s-.2-1.04-.38-1.6L230.1,8.7h-3.92l4.38,10.1-.2.48a1.645,1.645,0,0,1-1.66,1.04,2.3,2.3,0,0,1-1.06-.38ZM243.34,7.4h3.38V4.7h-3.38ZM243.3,19h3.46V8.7H243.3Zm5.22-1.28a6.2,6.2,0,0,0,4.12,1.52c2.66,0,4.22-1.5,4.22-3.26,0-3.32-4.82-3.44-4.82-4.22,0-.36.5-.5,1.02-.5a4.114,4.114,0,0,1,2.44.84l1.18-2.46a5.392,5.392,0,0,0-3.62-1.18c-2.38,0-4.24,1.2-4.24,3.14,0,3.36,4.82,3.46,4.82,4.36,0,.34-.5.48-1.02.48A4.334,4.334,0,0,1,250,15.4ZM263.36,7.4h3.38V4.7h-3.38ZM263.32,19h3.46V8.7h-3.46Zm6.02,0h3.46V14.44a4.136,4.136,0,0,1,.2-1.36,2.027,2.027,0,0,1,2.04-1.48c.76,0,1.14.4,1.14,1.36V19h3.46V12.32c0-2.9-1.62-3.86-3.7-3.86a3.634,3.634,0,0,0-3.28,1.78h-.04a5.449,5.449,0,0,0,.04-.64V8.7h-3.32Zm17.82-3.8c0,3.46,3.18,3.9,4.82,3.9a6.659,6.659,0,0,0,.94-.06v-3s-.18.02-.46.02c-.66,0-1.84-.16-1.84-1.32V11.58h2.16V8.88h-2.16V5.92h-3.36V8.88h-1.42v2.7h1.32Zm7.78,3.8h3.46V14.44a3.98,3.98,0,0,1,.18-1.32,2.078,2.078,0,0,1,2.06-1.52c.76,0,1.14.4,1.14,1.36V19h3.46V12.32c0-2.9-1.62-3.86-3.7-3.86a3.537,3.537,0,0,0-3.14,1.64h-.04s.04-.36.04-.88V4.7h-3.46Zm11.98-5.16a5.341,5.341,0,0,0,5.66,5.4,6.955,6.955,0,0,0,4.4-1.5l-1.28-2.42a5.4,5.4,0,0,1-2.84,1.04,2.3,2.3,0,0,1-2.4-1.84h6.5s.08-.74.08-1.08c0-2.86-1.72-4.98-4.76-4.98A5.127,5.127,0,0,0,306.92,13.84Zm3.62-1.3a1.689,1.689,0,0,1,1.66-1.48,1.4,1.4,0,0,1,1.36,1.48ZM323.9,19h5.26c2.84,0,5.44-1.14,5.44-4.26a3.206,3.206,0,0,0-2.24-3.22v-.04a3.492,3.492,0,0,0,1.66-3.04c0-2.46-2-3.74-4.86-3.74H323.9Zm3.5-8.76V7.7h1.74a1.163,1.163,0,0,1,1.32,1.22,1.209,1.209,0,0,1-1.26,1.32Zm0,5.76V13.04h2.12a1.375,1.375,0,0,1,1.5,1.46A1.421,1.421,0,0,1,329.5,16Zm8.5-.08a3.294,3.294,0,0,0,3.5,3.32,3.205,3.205,0,0,0,2.92-1.5h.04a5.453,5.453,0,0,0-.04.64V19h3.16V12.66c0-2.62-1.74-4.2-4.64-4.2a7.79,7.79,0,0,0-4.32,1.34l1.2,2.44a6.147,6.147,0,0,1,2.78-.98c.86,0,1.52.28,1.52,1.14v.18h-.14C340.28,12.58,335.9,12.92,335.9,15.92Zm3.48-.18c0-.86,1.26-1.18,2.36-1.18h.32v.22a1.91,1.91,0,0,1-1.7,1.82C339.68,16.6,339.38,16.22,339.38,15.74Zm8.5,3.26h3.46V14.44a4.136,4.136,0,0,1,.2-1.36,2.027,2.027,0,0,1,2.04-1.48c.76,0,1.14.4,1.14,1.36V19h3.46V12.32c0-2.9-1.62-3.86-3.7-3.86a3.634,3.634,0,0,0-3.28,1.78h-.04a5.449,5.449,0,0,0,.04-.64V8.7h-3.32Zm12.72,0h3.46V15h1.08l2.18,4h3.94l-3.44-5.58v-.04l3.02-4.68h-3.76l-2.04,3.4h-.98V4.7H360.6Z" transform="translate(2704 4125)" fill="#7d0404"/>
    <g id="Group_656" data-name="Group 656" transform="translate(2704 4163.876)">
      <rect id="Rectangle_142" data-name="Rectangle 142" width="90.252" height="49.927" rx="3" transform="translate(1.497 0.238)" fill="#efefef"/>
      <g id="Group_94" data-name="Group 94" transform="translate(0 0)">
        <path id="Path_1581" data-name="Path 1581" d="M38.833,22A16.833,16.833,0,1,0,55.667,38.833,16.833,16.833,0,0,0,38.833,22Zm0,30.3A13.467,13.467,0,1,1,52.3,38.833,13.467,13.467,0,0,1,38.833,52.3Z" transform="translate(6.617 -13.583)" fill="#1c77c3"/>
        <path id="Path_1582" data-name="Path 1582" d="M34.05,31.733h3.367a1.683,1.683,0,1,0,0-3.367H35.733V26.683a1.683,1.683,0,1,0-3.367,0v1.994a5.038,5.038,0,0,0,1.683,9.79,1.683,1.683,0,1,1,0,3.367H30.683a1.683,1.683,0,0,0,0,3.367h1.683v1.683a1.683,1.683,0,0,0,3.367,0V44.89A5.038,5.038,0,0,0,34.05,35.1a1.683,1.683,0,0,1,0-3.367Z" transform="translate(11.4 -11.533)" fill="#1c77c3"/>
        <path id="Path_1583" data-name="Path 1583" d="M94.217,17H6.683A1.683,1.683,0,0,0,5,18.683V65.817A1.683,1.683,0,0,0,6.683,67.5H94.217A1.683,1.683,0,0,0,95.9,65.817V18.683A1.683,1.683,0,0,0,94.217,17ZM82.569,64.134H18.332a11.791,11.791,0,0,0-9.965-9.965V30.332a11.791,11.791,0,0,0,9.965-9.965H82.569a11.791,11.791,0,0,0,9.965,9.965V54.168A11.791,11.791,0,0,0,82.569,64.134Zm9.965-43.767v6.564a8.441,8.441,0,0,1-6.564-6.564Zm-84.167,0h6.564a8.441,8.441,0,0,1-6.564,6.564Zm0,43.767V57.57a8.441,8.441,0,0,1,6.564,6.564Zm84.167,0H85.97a8.441,8.441,0,0,1,6.564-6.564Z" transform="translate(-5 -17)" fill="#1c77c3"/>
      </g>
    </g>
    <g id="Group_659" data-name="Group 659" transform="translate(3027.145 4163.876)">
      <rect id="Rectangle_142-2" data-name="Rectangle 142" width="90.252" height="49.927" rx="3" transform="translate(1.497 0.238)" fill="#efefef"/>
      <g id="Group_94-2" data-name="Group 94" transform="translate(0 0)">
        <path id="Path_1581-2" data-name="Path 1581" d="M38.833,22A16.833,16.833,0,1,0,55.667,38.833,16.833,16.833,0,0,0,38.833,22Zm0,30.3A13.467,13.467,0,1,1,52.3,38.833,13.467,13.467,0,0,1,38.833,52.3Z" transform="translate(6.617 -13.583)" fill="#908f93"/>
        <path id="Path_1582-2" data-name="Path 1582" d="M34.05,31.733h3.367a1.683,1.683,0,1,0,0-3.367H35.733V26.683a1.683,1.683,0,1,0-3.367,0v1.994a5.038,5.038,0,0,0,1.683,9.79,1.683,1.683,0,1,1,0,3.367H30.683a1.683,1.683,0,0,0,0,3.367h1.683v1.683a1.683,1.683,0,0,0,3.367,0V44.89A5.038,5.038,0,0,0,34.05,35.1a1.683,1.683,0,0,1,0-3.367Z" transform="translate(11.4 -11.533)" fill="#908f93"/>
        <path id="Path_1583-2" data-name="Path 1583" d="M94.217,17H6.683A1.683,1.683,0,0,0,5,18.683V65.817A1.683,1.683,0,0,0,6.683,67.5H94.217A1.683,1.683,0,0,0,95.9,65.817V18.683A1.683,1.683,0,0,0,94.217,17ZM82.569,64.134H18.332a11.791,11.791,0,0,0-9.965-9.965V30.332a11.791,11.791,0,0,0,9.965-9.965H82.569a11.791,11.791,0,0,0,9.965,9.965V54.168A11.791,11.791,0,0,0,82.569,64.134Zm9.965-43.767v6.564a8.441,8.441,0,0,1-6.564-6.564Zm-84.167,0h6.564a8.441,8.441,0,0,1-6.564,6.564Zm0,43.767V57.57a8.441,8.441,0,0,1,6.564,6.564Zm84.167,0H85.97a8.441,8.441,0,0,1,6.564-6.564Z" transform="translate(-5 -17)" fill="#908f93"/>
      </g>
    </g>
    <g id="Group_662" data-name="Group 662" transform="translate(2919.43 4236.047)">
      <rect id="Rectangle_142-3" data-name="Rectangle 142" width="90.252" height="49.927" rx="3" transform="translate(1.497 0.238)" fill="#efefef"/>
      <g id="Group_94-3" data-name="Group 94" transform="translate(0 0)">
        <path id="Path_1581-3" data-name="Path 1581" d="M38.833,22A16.833,16.833,0,1,0,55.667,38.833,16.833,16.833,0,0,0,38.833,22Zm0,30.3A13.467,13.467,0,1,1,52.3,38.833,13.467,13.467,0,0,1,38.833,52.3Z" transform="translate(6.617 -13.583)" fill="#908f93"/>
        <path id="Path_1582-3" data-name="Path 1582" d="M34.05,31.733h3.367a1.683,1.683,0,1,0,0-3.367H35.733V26.683a1.683,1.683,0,1,0-3.367,0v1.994a5.038,5.038,0,0,0,1.683,9.79,1.683,1.683,0,1,1,0,3.367H30.683a1.683,1.683,0,0,0,0,3.367h1.683v1.683a1.683,1.683,0,0,0,3.367,0V44.89A5.038,5.038,0,0,0,34.05,35.1a1.683,1.683,0,0,1,0-3.367Z" transform="translate(11.4 -11.533)" fill="#908f93"/>
        <path id="Path_1583-3" data-name="Path 1583" d="M94.217,17H6.683A1.683,1.683,0,0,0,5,18.683V65.817A1.683,1.683,0,0,0,6.683,67.5H94.217A1.683,1.683,0,0,0,95.9,65.817V18.683A1.683,1.683,0,0,0,94.217,17ZM82.569,64.134H18.332a11.791,11.791,0,0,0-9.965-9.965V30.332a11.791,11.791,0,0,0,9.965-9.965H82.569a11.791,11.791,0,0,0,9.965,9.965V54.168A11.791,11.791,0,0,0,82.569,64.134Zm9.965-43.767v6.564a8.441,8.441,0,0,1-6.564-6.564Zm-84.167,0h6.564a8.441,8.441,0,0,1-6.564,6.564Zm0,43.767V57.57a8.441,8.441,0,0,1,6.564,6.564Zm84.167,0H85.97a8.441,8.441,0,0,1,6.564-6.564Z" transform="translate(-5 -17)" fill="#908f93"/>
      </g>
    </g>
    <g id="Group_657" data-name="Group 657" transform="translate(2811.715 4163.876)">
      <rect id="Rectangle_142-4" data-name="Rectangle 142" width="90.252" height="49.927" rx="3" transform="translate(1.497 0.238)" fill="#efefef"/>
      <g id="Group_94-4" data-name="Group 94" transform="translate(0 0)">
        <path id="Path_1581-4" data-name="Path 1581" d="M38.833,22A16.833,16.833,0,1,0,55.667,38.833,16.833,16.833,0,0,0,38.833,22Zm0,30.3A13.467,13.467,0,1,1,52.3,38.833,13.467,13.467,0,0,1,38.833,52.3Z" transform="translate(6.617 -13.583)" fill="#908f93"/>
        <path id="Path_1582-4" data-name="Path 1582" d="M34.05,31.733h3.367a1.683,1.683,0,1,0,0-3.367H35.733V26.683a1.683,1.683,0,1,0-3.367,0v1.994a5.038,5.038,0,0,0,1.683,9.79,1.683,1.683,0,1,1,0,3.367H30.683a1.683,1.683,0,0,0,0,3.367h1.683v1.683a1.683,1.683,0,0,0,3.367,0V44.89A5.038,5.038,0,0,0,34.05,35.1a1.683,1.683,0,0,1,0-3.367Z" transform="translate(11.4 -11.533)" fill="#908f93"/>
        <path id="Path_1583-4" data-name="Path 1583" d="M94.217,17H6.683A1.683,1.683,0,0,0,5,18.683V65.817A1.683,1.683,0,0,0,6.683,67.5H94.217A1.683,1.683,0,0,0,95.9,65.817V18.683A1.683,1.683,0,0,0,94.217,17ZM82.569,64.134H18.332a11.791,11.791,0,0,0-9.965-9.965V30.332a11.791,11.791,0,0,0,9.965-9.965H82.569a11.791,11.791,0,0,0,9.965,9.965V54.168A11.791,11.791,0,0,0,82.569,64.134Zm9.965-43.767v6.564a8.441,8.441,0,0,1-6.564-6.564Zm-84.167,0h6.564a8.441,8.441,0,0,1-6.564,6.564Zm0,43.767V57.57a8.441,8.441,0,0,1,6.564,6.564Zm84.167,0H85.97a8.441,8.441,0,0,1,6.564-6.564Z" transform="translate(-5 -17)" fill="#908f93"/>
      </g>
    </g>
    <g id="Group_660" data-name="Group 660" transform="translate(3134.86 4163.876)">
      <rect id="Rectangle_142-5" data-name="Rectangle 142" width="90.252" height="49.927" rx="3" transform="translate(1.497 0.238)" fill="#efefef"/>
      <g id="Group_94-5" data-name="Group 94" transform="translate(0 0)">
        <path id="Path_1581-5" data-name="Path 1581" d="M38.833,22A16.833,16.833,0,1,0,55.667,38.833,16.833,16.833,0,0,0,38.833,22Zm0,30.3A13.467,13.467,0,1,1,52.3,38.833,13.467,13.467,0,0,1,38.833,52.3Z" transform="translate(6.617 -13.583)" fill="#908f93"/>
        <path id="Path_1582-5" data-name="Path 1582" d="M34.05,31.733h3.367a1.683,1.683,0,1,0,0-3.367H35.733V26.683a1.683,1.683,0,1,0-3.367,0v1.994a5.038,5.038,0,0,0,1.683,9.79,1.683,1.683,0,1,1,0,3.367H30.683a1.683,1.683,0,0,0,0,3.367h1.683v1.683a1.683,1.683,0,0,0,3.367,0V44.89A5.038,5.038,0,0,0,34.05,35.1a1.683,1.683,0,0,1,0-3.367Z" transform="translate(11.4 -11.533)" fill="#908f93"/>
        <path id="Path_1583-5" data-name="Path 1583" d="M94.217,17H6.683A1.683,1.683,0,0,0,5,18.683V65.817A1.683,1.683,0,0,0,6.683,67.5H94.217A1.683,1.683,0,0,0,95.9,65.817V18.683A1.683,1.683,0,0,0,94.217,17ZM82.569,64.134H18.332a11.791,11.791,0,0,0-9.965-9.965V30.332a11.791,11.791,0,0,0,9.965-9.965H82.569a11.791,11.791,0,0,0,9.965,9.965V54.168A11.791,11.791,0,0,0,82.569,64.134Zm9.965-43.767v6.564a8.441,8.441,0,0,1-6.564-6.564Zm-84.167,0h6.564a8.441,8.441,0,0,1-6.564,6.564Zm0,43.767V57.57a8.441,8.441,0,0,1,6.564,6.564Zm84.167,0H85.97a8.441,8.441,0,0,1,6.564-6.564Z" transform="translate(-5 -17)" fill="#908f93"/>
      </g>
    </g>
    <g id="Group_663" data-name="Group 663" transform="translate(3027.145 4236.047)">
      <rect id="Rectangle_142-6" data-name="Rectangle 142" width="90.252" height="49.927" rx="3" transform="translate(1.497 0.238)" fill="#efefef"/>
      <g id="Group_94-6" data-name="Group 94" transform="translate(0 0)">
        <path id="Path_1581-6" data-name="Path 1581" d="M38.833,22A16.833,16.833,0,1,0,55.667,38.833,16.833,16.833,0,0,0,38.833,22Zm0,30.3A13.467,13.467,0,1,1,52.3,38.833,13.467,13.467,0,0,1,38.833,52.3Z" transform="translate(6.617 -13.583)" fill="#908f93"/>
        <path id="Path_1582-6" data-name="Path 1582" d="M34.05,31.733h3.367a1.683,1.683,0,1,0,0-3.367H35.733V26.683a1.683,1.683,0,1,0-3.367,0v1.994a5.038,5.038,0,0,0,1.683,9.79,1.683,1.683,0,1,1,0,3.367H30.683a1.683,1.683,0,0,0,0,3.367h1.683v1.683a1.683,1.683,0,0,0,3.367,0V44.89A5.038,5.038,0,0,0,34.05,35.1a1.683,1.683,0,0,1,0-3.367Z" transform="translate(11.4 -11.533)" fill="#908f93"/>
        <path id="Path_1583-6" data-name="Path 1583" d="M94.217,17H6.683A1.683,1.683,0,0,0,5,18.683V65.817A1.683,1.683,0,0,0,6.683,67.5H94.217A1.683,1.683,0,0,0,95.9,65.817V18.683A1.683,1.683,0,0,0,94.217,17ZM82.569,64.134H18.332a11.791,11.791,0,0,0-9.965-9.965V30.332a11.791,11.791,0,0,0,9.965-9.965H82.569a11.791,11.791,0,0,0,9.965,9.965V54.168A11.791,11.791,0,0,0,82.569,64.134Zm9.965-43.767v6.564a8.441,8.441,0,0,1-6.564-6.564Zm-84.167,0h6.564a8.441,8.441,0,0,1-6.564,6.564Zm0,43.767V57.57a8.441,8.441,0,0,1,6.564,6.564Zm84.167,0H85.97a8.441,8.441,0,0,1,6.564-6.564Z" transform="translate(-5 -17)" fill="#908f93"/>
      </g>
    </g>
    <g id="Group_658" data-name="Group 658" transform="translate(2919.43 4163.876)">
      <rect id="Rectangle_142-7" data-name="Rectangle 142" width="90.252" height="49.927" rx="3" transform="translate(1.497 0.238)" fill="#efefef"/>
      <g id="Group_94-7" data-name="Group 94" transform="translate(0 0)">
        <path id="Path_1581-7" data-name="Path 1581" d="M38.833,22A16.833,16.833,0,1,0,55.667,38.833,16.833,16.833,0,0,0,38.833,22Zm0,30.3A13.467,13.467,0,1,1,52.3,38.833,13.467,13.467,0,0,1,38.833,52.3Z" transform="translate(6.617 -13.583)" fill="#908f93"/>
        <path id="Path_1582-7" data-name="Path 1582" d="M34.05,31.733h3.367a1.683,1.683,0,1,0,0-3.367H35.733V26.683a1.683,1.683,0,1,0-3.367,0v1.994a5.038,5.038,0,0,0,1.683,9.79,1.683,1.683,0,1,1,0,3.367H30.683a1.683,1.683,0,0,0,0,3.367h1.683v1.683a1.683,1.683,0,0,0,3.367,0V44.89A5.038,5.038,0,0,0,34.05,35.1a1.683,1.683,0,0,1,0-3.367Z" transform="translate(11.4 -11.533)" fill="#908f93"/>
        <path id="Path_1583-7" data-name="Path 1583" d="M94.217,17H6.683A1.683,1.683,0,0,0,5,18.683V65.817A1.683,1.683,0,0,0,6.683,67.5H94.217A1.683,1.683,0,0,0,95.9,65.817V18.683A1.683,1.683,0,0,0,94.217,17ZM82.569,64.134H18.332a11.791,11.791,0,0,0-9.965-9.965V30.332a11.791,11.791,0,0,0,9.965-9.965H82.569a11.791,11.791,0,0,0,9.965,9.965V54.168A11.791,11.791,0,0,0,82.569,64.134Zm9.965-43.767v6.564a8.441,8.441,0,0,1-6.564-6.564Zm-84.167,0h6.564a8.441,8.441,0,0,1-6.564,6.564Zm0,43.767V57.57a8.441,8.441,0,0,1,6.564,6.564Zm84.167,0H85.97a8.441,8.441,0,0,1,6.564-6.564Z" transform="translate(-5 -17)" fill="#908f93"/>
      </g>
    </g>
    <g id="Group_664" data-name="Group 664" transform="translate(2811.715 4236.047)">
      <rect id="Rectangle_142-8" data-name="Rectangle 142" width="90.252" height="49.927" rx="3" transform="translate(1.497 0.238)" fill="#efefef"/>
      <g id="Group_94-8" data-name="Group 94" transform="translate(0 0)">
        <path id="Path_1581-8" data-name="Path 1581" d="M38.833,22A16.833,16.833,0,1,0,55.667,38.833,16.833,16.833,0,0,0,38.833,22Zm0,30.3A13.467,13.467,0,1,1,52.3,38.833,13.467,13.467,0,0,1,38.833,52.3Z" transform="translate(6.617 -13.583)" fill="#908f93"/>
        <path id="Path_1582-8" data-name="Path 1582" d="M34.05,31.733h3.367a1.683,1.683,0,1,0,0-3.367H35.733V26.683a1.683,1.683,0,1,0-3.367,0v1.994a5.038,5.038,0,0,0,1.683,9.79,1.683,1.683,0,1,1,0,3.367H30.683a1.683,1.683,0,0,0,0,3.367h1.683v1.683a1.683,1.683,0,0,0,3.367,0V44.89A5.038,5.038,0,0,0,34.05,35.1a1.683,1.683,0,0,1,0-3.367Z" transform="translate(11.4 -11.533)" fill="#908f93"/>
        <path id="Path_1583-8" data-name="Path 1583" d="M94.217,17H6.683A1.683,1.683,0,0,0,5,18.683V65.817A1.683,1.683,0,0,0,6.683,67.5H94.217A1.683,1.683,0,0,0,95.9,65.817V18.683A1.683,1.683,0,0,0,94.217,17ZM82.569,64.134H18.332a11.791,11.791,0,0,0-9.965-9.965V30.332a11.791,11.791,0,0,0,9.965-9.965H82.569a11.791,11.791,0,0,0,9.965,9.965V54.168A11.791,11.791,0,0,0,82.569,64.134Zm9.965-43.767v6.564a8.441,8.441,0,0,1-6.564-6.564Zm-84.167,0h6.564a8.441,8.441,0,0,1-6.564,6.564Zm0,43.767V57.57a8.441,8.441,0,0,1,6.564,6.564Zm84.167,0H85.97a8.441,8.441,0,0,1,6.564-6.564Z" transform="translate(-5 -17)" fill="#908f93"/>
      </g>
    </g>
    <g id="Group_661" data-name="Group 661" transform="translate(2704 4236.047)">
      <rect id="Rectangle_142-9" data-name="Rectangle 142" width="90.252" height="49.927" rx="3" transform="translate(1.497 0.238)" fill="#efefef"/>
      <g id="Group_94-9" data-name="Group 94" transform="translate(0 0)">
        <path id="Path_1581-9" data-name="Path 1581" d="M38.833,22A16.833,16.833,0,1,0,55.667,38.833,16.833,16.833,0,0,0,38.833,22Zm0,30.3A13.467,13.467,0,1,1,52.3,38.833,13.467,13.467,0,0,1,38.833,52.3Z" transform="translate(6.617 -13.583)" fill="#908f93"/>
        <path id="Path_1582-9" data-name="Path 1582" d="M34.05,31.733h3.367a1.683,1.683,0,1,0,0-3.367H35.733V26.683a1.683,1.683,0,1,0-3.367,0v1.994a5.038,5.038,0,0,0,1.683,9.79,1.683,1.683,0,1,1,0,3.367H30.683a1.683,1.683,0,0,0,0,3.367h1.683v1.683a1.683,1.683,0,0,0,3.367,0V44.89A5.038,5.038,0,0,0,34.05,35.1a1.683,1.683,0,0,1,0-3.367Z" transform="translate(11.4 -11.533)" fill="#908f93"/>
        <path id="Path_1583-9" data-name="Path 1583" d="M94.217,17H6.683A1.683,1.683,0,0,0,5,18.683V65.817A1.683,1.683,0,0,0,6.683,67.5H94.217A1.683,1.683,0,0,0,95.9,65.817V18.683A1.683,1.683,0,0,0,94.217,17ZM82.569,64.134H18.332a11.791,11.791,0,0,0-9.965-9.965V30.332a11.791,11.791,0,0,0,9.965-9.965H82.569a11.791,11.791,0,0,0,9.965,9.965V54.168A11.791,11.791,0,0,0,82.569,64.134Zm9.965-43.767v6.564a8.441,8.441,0,0,1-6.564-6.564Zm-84.167,0h6.564a8.441,8.441,0,0,1-6.564,6.564Zm0,43.767V57.57a8.441,8.441,0,0,1,6.564,6.564Zm84.167,0H85.97a8.441,8.441,0,0,1,6.564-6.564Z" transform="translate(-5 -17)" fill="#908f93"/>
      </g>
    </g>
    <g id="Group_665" data-name="Group 665" transform="translate(3134.86 4236.047)">
      <rect id="Rectangle_142-10" data-name="Rectangle 142" width="90.252" height="49.927" rx="3" transform="translate(1.497 0.238)" fill="#efefef"/>
      <g id="Group_94-10" data-name="Group 94" transform="translate(0 0)">
        <path id="Path_1581-10" data-name="Path 1581" d="M38.833,22A16.833,16.833,0,1,0,55.667,38.833,16.833,16.833,0,0,0,38.833,22Zm0,30.3A13.467,13.467,0,1,1,52.3,38.833,13.467,13.467,0,0,1,38.833,52.3Z" transform="translate(6.617 -13.583)" fill="#908f93"/>
        <path id="Path_1582-10" data-name="Path 1582" d="M34.05,31.733h3.367a1.683,1.683,0,1,0,0-3.367H35.733V26.683a1.683,1.683,0,1,0-3.367,0v1.994a5.038,5.038,0,0,0,1.683,9.79,1.683,1.683,0,1,1,0,3.367H30.683a1.683,1.683,0,0,0,0,3.367h1.683v1.683a1.683,1.683,0,0,0,3.367,0V44.89A5.038,5.038,0,0,0,34.05,35.1a1.683,1.683,0,0,1,0-3.367Z" transform="translate(11.4 -11.533)" fill="#908f93"/>
        <path id="Path_1583-10" data-name="Path 1583" d="M94.217,17H6.683A1.683,1.683,0,0,0,5,18.683V65.817A1.683,1.683,0,0,0,6.683,67.5H94.217A1.683,1.683,0,0,0,95.9,65.817V18.683A1.683,1.683,0,0,0,94.217,17ZM82.569,64.134H18.332a11.791,11.791,0,0,0-9.965-9.965V30.332a11.791,11.791,0,0,0,9.965-9.965H82.569a11.791,11.791,0,0,0,9.965,9.965V54.168A11.791,11.791,0,0,0,82.569,64.134Zm9.965-43.767v6.564a8.441,8.441,0,0,1-6.564-6.564Zm-84.167,0h6.564a8.441,8.441,0,0,1-6.564,6.564Zm0,43.767V57.57a8.441,8.441,0,0,1,6.564,6.564Zm84.167,0H85.97a8.441,8.441,0,0,1,6.564-6.564Z" transform="translate(-5 -17)" fill="#908f93"/>
      </g>
    </g>
  </g>
</svg>
