<svg xmlns="http://www.w3.org/2000/svg" width="522.609" height="161.547" viewBox="0 0 522.609 161.547">
  <g id="Group_754" data-name="Group 754" transform="translate(-109 -3252)">
    <text id="Only_10_of_Your_Money_is_in_the_Bank" data-name="Only 10% of Your Money is in the Bank" transform="translate(109 3252)" fill="#7d0404" font-size="20" font-family="MuseoSans-900, Museo Sans" font-weight="900"><tspan x="0" y="19">Only 10% of Your Money is in the Bank</tspan></text>
    <g id="Group_656" data-name="Group 656" transform="translate(109 3290.876)">
      <rect id="Rectangle_142" data-name="Rectangle 142" width="90.252" height="49.927" rx="3" transform="translate(1.497 0.238)" fill="#efefef"/>
      <g id="Group_94" data-name="Group 94" transform="translate(0 0)">
        <path id="Path_1581" data-name="Path 1581" d="M38.833,22A16.833,16.833,0,1,0,55.667,38.833,16.833,16.833,0,0,0,38.833,22Zm0,30.3A13.467,13.467,0,1,1,52.3,38.833,13.467,13.467,0,0,1,38.833,52.3Z" transform="translate(6.617 -13.583)" fill="#1c77c3"/>
        <path id="Path_1582" data-name="Path 1582" d="M34.05,31.733h3.367a1.683,1.683,0,1,0,0-3.367H35.733V26.683a1.683,1.683,0,1,0-3.367,0v1.994a5.038,5.038,0,0,0,1.683,9.79,1.683,1.683,0,1,1,0,3.367H30.683a1.683,1.683,0,0,0,0,3.367h1.683v1.683a1.683,1.683,0,0,0,3.367,0V44.89A5.038,5.038,0,0,0,34.05,35.1a1.683,1.683,0,0,1,0-3.367Z" transform="translate(11.4 -11.533)" fill="#1c77c3"/>
        <path id="Path_1583" data-name="Path 1583" d="M94.217,17H6.683A1.683,1.683,0,0,0,5,18.683V65.817A1.683,1.683,0,0,0,6.683,67.5H94.217A1.683,1.683,0,0,0,95.9,65.817V18.683A1.683,1.683,0,0,0,94.217,17ZM82.569,64.134H18.332a11.791,11.791,0,0,0-9.965-9.965V30.332a11.791,11.791,0,0,0,9.965-9.965H82.569a11.791,11.791,0,0,0,9.965,9.965V54.168A11.791,11.791,0,0,0,82.569,64.134Zm9.965-43.767v6.564a8.441,8.441,0,0,1-6.564-6.564Zm-84.167,0h6.564a8.441,8.441,0,0,1-6.564,6.564Zm0,43.767V57.57a8.441,8.441,0,0,1,6.564,6.564Zm84.167,0H85.97a8.441,8.441,0,0,1,6.564-6.564Z" transform="translate(-5 -17)" fill="#1c77c3"/>
      </g>
    </g>
    <g id="Group_659" data-name="Group 659" transform="translate(432.145 3290.876)">
      <rect id="Rectangle_142-2" data-name="Rectangle 142" width="90.252" height="49.927" rx="3" transform="translate(1.497 0.238)" fill="#efefef"/>
      <g id="Group_94-2" data-name="Group 94" transform="translate(0 0)">
        <path id="Path_1581-2" data-name="Path 1581" d="M38.833,22A16.833,16.833,0,1,0,55.667,38.833,16.833,16.833,0,0,0,38.833,22Zm0,30.3A13.467,13.467,0,1,1,52.3,38.833,13.467,13.467,0,0,1,38.833,52.3Z" transform="translate(6.617 -13.583)" fill="#908f93"/>
        <path id="Path_1582-2" data-name="Path 1582" d="M34.05,31.733h3.367a1.683,1.683,0,1,0,0-3.367H35.733V26.683a1.683,1.683,0,1,0-3.367,0v1.994a5.038,5.038,0,0,0,1.683,9.79,1.683,1.683,0,1,1,0,3.367H30.683a1.683,1.683,0,0,0,0,3.367h1.683v1.683a1.683,1.683,0,0,0,3.367,0V44.89A5.038,5.038,0,0,0,34.05,35.1a1.683,1.683,0,0,1,0-3.367Z" transform="translate(11.4 -11.533)" fill="#908f93"/>
        <path id="Path_1583-2" data-name="Path 1583" d="M94.217,17H6.683A1.683,1.683,0,0,0,5,18.683V65.817A1.683,1.683,0,0,0,6.683,67.5H94.217A1.683,1.683,0,0,0,95.9,65.817V18.683A1.683,1.683,0,0,0,94.217,17ZM82.569,64.134H18.332a11.791,11.791,0,0,0-9.965-9.965V30.332a11.791,11.791,0,0,0,9.965-9.965H82.569a11.791,11.791,0,0,0,9.965,9.965V54.168A11.791,11.791,0,0,0,82.569,64.134Zm9.965-43.767v6.564a8.441,8.441,0,0,1-6.564-6.564Zm-84.167,0h6.564a8.441,8.441,0,0,1-6.564,6.564Zm0,43.767V57.57a8.441,8.441,0,0,1,6.564,6.564Zm84.167,0H85.97a8.441,8.441,0,0,1,6.564-6.564Z" transform="translate(-5 -17)" fill="#908f93"/>
      </g>
    </g>
    <g id="Group_662" data-name="Group 662" transform="translate(324.43 3363.047)">
      <rect id="Rectangle_142-3" data-name="Rectangle 142" width="90.252" height="49.927" rx="3" transform="translate(1.497 0.238)" fill="#efefef"/>
      <g id="Group_94-3" data-name="Group 94" transform="translate(0 0)">
        <path id="Path_1581-3" data-name="Path 1581" d="M38.833,22A16.833,16.833,0,1,0,55.667,38.833,16.833,16.833,0,0,0,38.833,22Zm0,30.3A13.467,13.467,0,1,1,52.3,38.833,13.467,13.467,0,0,1,38.833,52.3Z" transform="translate(6.617 -13.583)" fill="#908f93"/>
        <path id="Path_1582-3" data-name="Path 1582" d="M34.05,31.733h3.367a1.683,1.683,0,1,0,0-3.367H35.733V26.683a1.683,1.683,0,1,0-3.367,0v1.994a5.038,5.038,0,0,0,1.683,9.79,1.683,1.683,0,1,1,0,3.367H30.683a1.683,1.683,0,0,0,0,3.367h1.683v1.683a1.683,1.683,0,0,0,3.367,0V44.89A5.038,5.038,0,0,0,34.05,35.1a1.683,1.683,0,0,1,0-3.367Z" transform="translate(11.4 -11.533)" fill="#908f93"/>
        <path id="Path_1583-3" data-name="Path 1583" d="M94.217,17H6.683A1.683,1.683,0,0,0,5,18.683V65.817A1.683,1.683,0,0,0,6.683,67.5H94.217A1.683,1.683,0,0,0,95.9,65.817V18.683A1.683,1.683,0,0,0,94.217,17ZM82.569,64.134H18.332a11.791,11.791,0,0,0-9.965-9.965V30.332a11.791,11.791,0,0,0,9.965-9.965H82.569a11.791,11.791,0,0,0,9.965,9.965V54.168A11.791,11.791,0,0,0,82.569,64.134Zm9.965-43.767v6.564a8.441,8.441,0,0,1-6.564-6.564Zm-84.167,0h6.564a8.441,8.441,0,0,1-6.564,6.564Zm0,43.767V57.57a8.441,8.441,0,0,1,6.564,6.564Zm84.167,0H85.97a8.441,8.441,0,0,1,6.564-6.564Z" transform="translate(-5 -17)" fill="#908f93"/>
      </g>
    </g>
    <g id="Group_657" data-name="Group 657" transform="translate(216.715 3290.876)">
      <rect id="Rectangle_142-4" data-name="Rectangle 142" width="90.252" height="49.927" rx="3" transform="translate(1.497 0.238)" fill="#efefef"/>
      <g id="Group_94-4" data-name="Group 94" transform="translate(0 0)">
        <path id="Path_1581-4" data-name="Path 1581" d="M38.833,22A16.833,16.833,0,1,0,55.667,38.833,16.833,16.833,0,0,0,38.833,22Zm0,30.3A13.467,13.467,0,1,1,52.3,38.833,13.467,13.467,0,0,1,38.833,52.3Z" transform="translate(6.617 -13.583)" fill="#908f93"/>
        <path id="Path_1582-4" data-name="Path 1582" d="M34.05,31.733h3.367a1.683,1.683,0,1,0,0-3.367H35.733V26.683a1.683,1.683,0,1,0-3.367,0v1.994a5.038,5.038,0,0,0,1.683,9.79,1.683,1.683,0,1,1,0,3.367H30.683a1.683,1.683,0,0,0,0,3.367h1.683v1.683a1.683,1.683,0,0,0,3.367,0V44.89A5.038,5.038,0,0,0,34.05,35.1a1.683,1.683,0,0,1,0-3.367Z" transform="translate(11.4 -11.533)" fill="#908f93"/>
        <path id="Path_1583-4" data-name="Path 1583" d="M94.217,17H6.683A1.683,1.683,0,0,0,5,18.683V65.817A1.683,1.683,0,0,0,6.683,67.5H94.217A1.683,1.683,0,0,0,95.9,65.817V18.683A1.683,1.683,0,0,0,94.217,17ZM82.569,64.134H18.332a11.791,11.791,0,0,0-9.965-9.965V30.332a11.791,11.791,0,0,0,9.965-9.965H82.569a11.791,11.791,0,0,0,9.965,9.965V54.168A11.791,11.791,0,0,0,82.569,64.134Zm9.965-43.767v6.564a8.441,8.441,0,0,1-6.564-6.564Zm-84.167,0h6.564a8.441,8.441,0,0,1-6.564,6.564Zm0,43.767V57.57a8.441,8.441,0,0,1,6.564,6.564Zm84.167,0H85.97a8.441,8.441,0,0,1,6.564-6.564Z" transform="translate(-5 -17)" fill="#908f93"/>
      </g>
    </g>
    <g id="Group_660" data-name="Group 660" transform="translate(539.86 3290.876)">
      <rect id="Rectangle_142-5" data-name="Rectangle 142" width="90.252" height="49.927" rx="3" transform="translate(1.497 0.238)" fill="#efefef"/>
      <g id="Group_94-5" data-name="Group 94" transform="translate(0 0)">
        <path id="Path_1581-5" data-name="Path 1581" d="M38.833,22A16.833,16.833,0,1,0,55.667,38.833,16.833,16.833,0,0,0,38.833,22Zm0,30.3A13.467,13.467,0,1,1,52.3,38.833,13.467,13.467,0,0,1,38.833,52.3Z" transform="translate(6.617 -13.583)" fill="#908f93"/>
        <path id="Path_1582-5" data-name="Path 1582" d="M34.05,31.733h3.367a1.683,1.683,0,1,0,0-3.367H35.733V26.683a1.683,1.683,0,1,0-3.367,0v1.994a5.038,5.038,0,0,0,1.683,9.79,1.683,1.683,0,1,1,0,3.367H30.683a1.683,1.683,0,0,0,0,3.367h1.683v1.683a1.683,1.683,0,0,0,3.367,0V44.89A5.038,5.038,0,0,0,34.05,35.1a1.683,1.683,0,0,1,0-3.367Z" transform="translate(11.4 -11.533)" fill="#908f93"/>
        <path id="Path_1583-5" data-name="Path 1583" d="M94.217,17H6.683A1.683,1.683,0,0,0,5,18.683V65.817A1.683,1.683,0,0,0,6.683,67.5H94.217A1.683,1.683,0,0,0,95.9,65.817V18.683A1.683,1.683,0,0,0,94.217,17ZM82.569,64.134H18.332a11.791,11.791,0,0,0-9.965-9.965V30.332a11.791,11.791,0,0,0,9.965-9.965H82.569a11.791,11.791,0,0,0,9.965,9.965V54.168A11.791,11.791,0,0,0,82.569,64.134Zm9.965-43.767v6.564a8.441,8.441,0,0,1-6.564-6.564Zm-84.167,0h6.564a8.441,8.441,0,0,1-6.564,6.564Zm0,43.767V57.57a8.441,8.441,0,0,1,6.564,6.564Zm84.167,0H85.97a8.441,8.441,0,0,1,6.564-6.564Z" transform="translate(-5 -17)" fill="#908f93"/>
      </g>
    </g>
    <g id="Group_663" data-name="Group 663" transform="translate(432.145 3363.047)">
      <rect id="Rectangle_142-6" data-name="Rectangle 142" width="90.252" height="49.927" rx="3" transform="translate(1.497 0.238)" fill="#efefef"/>
      <g id="Group_94-6" data-name="Group 94" transform="translate(0 0)">
        <path id="Path_1581-6" data-name="Path 1581" d="M38.833,22A16.833,16.833,0,1,0,55.667,38.833,16.833,16.833,0,0,0,38.833,22Zm0,30.3A13.467,13.467,0,1,1,52.3,38.833,13.467,13.467,0,0,1,38.833,52.3Z" transform="translate(6.617 -13.583)" fill="#908f93"/>
        <path id="Path_1582-6" data-name="Path 1582" d="M34.05,31.733h3.367a1.683,1.683,0,1,0,0-3.367H35.733V26.683a1.683,1.683,0,1,0-3.367,0v1.994a5.038,5.038,0,0,0,1.683,9.79,1.683,1.683,0,1,1,0,3.367H30.683a1.683,1.683,0,0,0,0,3.367h1.683v1.683a1.683,1.683,0,0,0,3.367,0V44.89A5.038,5.038,0,0,0,34.05,35.1a1.683,1.683,0,0,1,0-3.367Z" transform="translate(11.4 -11.533)" fill="#908f93"/>
        <path id="Path_1583-6" data-name="Path 1583" d="M94.217,17H6.683A1.683,1.683,0,0,0,5,18.683V65.817A1.683,1.683,0,0,0,6.683,67.5H94.217A1.683,1.683,0,0,0,95.9,65.817V18.683A1.683,1.683,0,0,0,94.217,17ZM82.569,64.134H18.332a11.791,11.791,0,0,0-9.965-9.965V30.332a11.791,11.791,0,0,0,9.965-9.965H82.569a11.791,11.791,0,0,0,9.965,9.965V54.168A11.791,11.791,0,0,0,82.569,64.134Zm9.965-43.767v6.564a8.441,8.441,0,0,1-6.564-6.564Zm-84.167,0h6.564a8.441,8.441,0,0,1-6.564,6.564Zm0,43.767V57.57a8.441,8.441,0,0,1,6.564,6.564Zm84.167,0H85.97a8.441,8.441,0,0,1,6.564-6.564Z" transform="translate(-5 -17)" fill="#908f93"/>
      </g>
    </g>
    <g id="Group_658" data-name="Group 658" transform="translate(324.43 3290.876)">
      <rect id="Rectangle_142-7" data-name="Rectangle 142" width="90.252" height="49.927" rx="3" transform="translate(1.497 0.238)" fill="#efefef"/>
      <g id="Group_94-7" data-name="Group 94" transform="translate(0 0)">
        <path id="Path_1581-7" data-name="Path 1581" d="M38.833,22A16.833,16.833,0,1,0,55.667,38.833,16.833,16.833,0,0,0,38.833,22Zm0,30.3A13.467,13.467,0,1,1,52.3,38.833,13.467,13.467,0,0,1,38.833,52.3Z" transform="translate(6.617 -13.583)" fill="#908f93"/>
        <path id="Path_1582-7" data-name="Path 1582" d="M34.05,31.733h3.367a1.683,1.683,0,1,0,0-3.367H35.733V26.683a1.683,1.683,0,1,0-3.367,0v1.994a5.038,5.038,0,0,0,1.683,9.79,1.683,1.683,0,1,1,0,3.367H30.683a1.683,1.683,0,0,0,0,3.367h1.683v1.683a1.683,1.683,0,0,0,3.367,0V44.89A5.038,5.038,0,0,0,34.05,35.1a1.683,1.683,0,0,1,0-3.367Z" transform="translate(11.4 -11.533)" fill="#908f93"/>
        <path id="Path_1583-7" data-name="Path 1583" d="M94.217,17H6.683A1.683,1.683,0,0,0,5,18.683V65.817A1.683,1.683,0,0,0,6.683,67.5H94.217A1.683,1.683,0,0,0,95.9,65.817V18.683A1.683,1.683,0,0,0,94.217,17ZM82.569,64.134H18.332a11.791,11.791,0,0,0-9.965-9.965V30.332a11.791,11.791,0,0,0,9.965-9.965H82.569a11.791,11.791,0,0,0,9.965,9.965V54.168A11.791,11.791,0,0,0,82.569,64.134Zm9.965-43.767v6.564a8.441,8.441,0,0,1-6.564-6.564Zm-84.167,0h6.564a8.441,8.441,0,0,1-6.564,6.564Zm0,43.767V57.57a8.441,8.441,0,0,1,6.564,6.564Zm84.167,0H85.97a8.441,8.441,0,0,1,6.564-6.564Z" transform="translate(-5 -17)" fill="#908f93"/>
      </g>
    </g>
    <g id="Group_664" data-name="Group 664" transform="translate(216.715 3363.047)">
      <rect id="Rectangle_142-8" data-name="Rectangle 142" width="90.252" height="49.927" rx="3" transform="translate(1.497 0.238)" fill="#efefef"/>
      <g id="Group_94-8" data-name="Group 94" transform="translate(0 0)">
        <path id="Path_1581-8" data-name="Path 1581" d="M38.833,22A16.833,16.833,0,1,0,55.667,38.833,16.833,16.833,0,0,0,38.833,22Zm0,30.3A13.467,13.467,0,1,1,52.3,38.833,13.467,13.467,0,0,1,38.833,52.3Z" transform="translate(6.617 -13.583)" fill="#908f93"/>
        <path id="Path_1582-8" data-name="Path 1582" d="M34.05,31.733h3.367a1.683,1.683,0,1,0,0-3.367H35.733V26.683a1.683,1.683,0,1,0-3.367,0v1.994a5.038,5.038,0,0,0,1.683,9.79,1.683,1.683,0,1,1,0,3.367H30.683a1.683,1.683,0,0,0,0,3.367h1.683v1.683a1.683,1.683,0,0,0,3.367,0V44.89A5.038,5.038,0,0,0,34.05,35.1a1.683,1.683,0,0,1,0-3.367Z" transform="translate(11.4 -11.533)" fill="#908f93"/>
        <path id="Path_1583-8" data-name="Path 1583" d="M94.217,17H6.683A1.683,1.683,0,0,0,5,18.683V65.817A1.683,1.683,0,0,0,6.683,67.5H94.217A1.683,1.683,0,0,0,95.9,65.817V18.683A1.683,1.683,0,0,0,94.217,17ZM82.569,64.134H18.332a11.791,11.791,0,0,0-9.965-9.965V30.332a11.791,11.791,0,0,0,9.965-9.965H82.569a11.791,11.791,0,0,0,9.965,9.965V54.168A11.791,11.791,0,0,0,82.569,64.134Zm9.965-43.767v6.564a8.441,8.441,0,0,1-6.564-6.564Zm-84.167,0h6.564a8.441,8.441,0,0,1-6.564,6.564Zm0,43.767V57.57a8.441,8.441,0,0,1,6.564,6.564Zm84.167,0H85.97a8.441,8.441,0,0,1,6.564-6.564Z" transform="translate(-5 -17)" fill="#908f93"/>
      </g>
    </g>
    <g id="Group_661" data-name="Group 661" transform="translate(109 3363.047)">
      <rect id="Rectangle_142-9" data-name="Rectangle 142" width="90.252" height="49.927" rx="3" transform="translate(1.497 0.238)" fill="#efefef"/>
      <g id="Group_94-9" data-name="Group 94" transform="translate(0 0)">
        <path id="Path_1581-9" data-name="Path 1581" d="M38.833,22A16.833,16.833,0,1,0,55.667,38.833,16.833,16.833,0,0,0,38.833,22Zm0,30.3A13.467,13.467,0,1,1,52.3,38.833,13.467,13.467,0,0,1,38.833,52.3Z" transform="translate(6.617 -13.583)" fill="#908f93"/>
        <path id="Path_1582-9" data-name="Path 1582" d="M34.05,31.733h3.367a1.683,1.683,0,1,0,0-3.367H35.733V26.683a1.683,1.683,0,1,0-3.367,0v1.994a5.038,5.038,0,0,0,1.683,9.79,1.683,1.683,0,1,1,0,3.367H30.683a1.683,1.683,0,0,0,0,3.367h1.683v1.683a1.683,1.683,0,0,0,3.367,0V44.89A5.038,5.038,0,0,0,34.05,35.1a1.683,1.683,0,0,1,0-3.367Z" transform="translate(11.4 -11.533)" fill="#908f93"/>
        <path id="Path_1583-9" data-name="Path 1583" d="M94.217,17H6.683A1.683,1.683,0,0,0,5,18.683V65.817A1.683,1.683,0,0,0,6.683,67.5H94.217A1.683,1.683,0,0,0,95.9,65.817V18.683A1.683,1.683,0,0,0,94.217,17ZM82.569,64.134H18.332a11.791,11.791,0,0,0-9.965-9.965V30.332a11.791,11.791,0,0,0,9.965-9.965H82.569a11.791,11.791,0,0,0,9.965,9.965V54.168A11.791,11.791,0,0,0,82.569,64.134Zm9.965-43.767v6.564a8.441,8.441,0,0,1-6.564-6.564Zm-84.167,0h6.564a8.441,8.441,0,0,1-6.564,6.564Zm0,43.767V57.57a8.441,8.441,0,0,1,6.564,6.564Zm84.167,0H85.97a8.441,8.441,0,0,1,6.564-6.564Z" transform="translate(-5 -17)" fill="#908f93"/>
      </g>
    </g>
    <g id="Group_665" data-name="Group 665" transform="translate(539.86 3363.047)">
      <rect id="Rectangle_142-10" data-name="Rectangle 142" width="90.252" height="49.927" rx="3" transform="translate(1.497 0.238)" fill="#efefef"/>
      <g id="Group_94-10" data-name="Group 94" transform="translate(0 0)">
        <path id="Path_1581-10" data-name="Path 1581" d="M38.833,22A16.833,16.833,0,1,0,55.667,38.833,16.833,16.833,0,0,0,38.833,22Zm0,30.3A13.467,13.467,0,1,1,52.3,38.833,13.467,13.467,0,0,1,38.833,52.3Z" transform="translate(6.617 -13.583)" fill="#908f93"/>
        <path id="Path_1582-10" data-name="Path 1582" d="M34.05,31.733h3.367a1.683,1.683,0,1,0,0-3.367H35.733V26.683a1.683,1.683,0,1,0-3.367,0v1.994a5.038,5.038,0,0,0,1.683,9.79,1.683,1.683,0,1,1,0,3.367H30.683a1.683,1.683,0,0,0,0,3.367h1.683v1.683a1.683,1.683,0,0,0,3.367,0V44.89A5.038,5.038,0,0,0,34.05,35.1a1.683,1.683,0,0,1,0-3.367Z" transform="translate(11.4 -11.533)" fill="#908f93"/>
        <path id="Path_1583-10" data-name="Path 1583" d="M94.217,17H6.683A1.683,1.683,0,0,0,5,18.683V65.817A1.683,1.683,0,0,0,6.683,67.5H94.217A1.683,1.683,0,0,0,95.9,65.817V18.683A1.683,1.683,0,0,0,94.217,17ZM82.569,64.134H18.332a11.791,11.791,0,0,0-9.965-9.965V30.332a11.791,11.791,0,0,0,9.965-9.965H82.569a11.791,11.791,0,0,0,9.965,9.965V54.168A11.791,11.791,0,0,0,82.569,64.134Zm9.965-43.767v6.564a8.441,8.441,0,0,1-6.564-6.564Zm-84.167,0h6.564a8.441,8.441,0,0,1-6.564,6.564Zm0,43.767V57.57a8.441,8.441,0,0,1,6.564,6.564Zm84.167,0H85.97a8.441,8.441,0,0,1,6.564-6.564Z" transform="translate(-5 -17)" fill="#908f93"/>
      </g>
    </g>
  </g>
</svg>
