<svg xmlns="http://www.w3.org/2000/svg" width="162.611" height="174.453" viewBox="0 0 162.611 174.453">
  <g id="Group_767" data-name="Group 767" transform="translate(-424.39 -5356)">
    <path id="Path_2732" data-name="Path 2732" d="M4265.476,1913.75v-66.47c0-26.936-26.269-48.877-57.927-47.62-29.326,1.164-52.681,21.74-52.681,46.952v67.182c0,9.25-26,10.771-26,10.771v9.021a.141.141,0,0,0,.15.128h162.31a.14.14,0,0,0,.15-.128v-8.942C4280.271,1924.645,4265.476,1921.238,4265.476,1913.75Z" transform="translate(-3704.477 3556.391)" fill="#10416b"/>
    <rect id="Rectangle_815" data-name="Rectangle 815" width="9.483" height="22.148" transform="translate(500.953 5494.52)" fill="#10416b"/>
    <circle id="Ellipse_97" data-name="Ellipse 97" cx="9.565" cy="9.565" r="9.565" transform="translate(496.13 5511.324)" fill="#10416b"/>
  </g>
</svg>
