<svg xmlns="http://www.w3.org/2000/svg" width="860" height="806.626" viewBox="0 0 860 806.626">
  <g id="Group_761" data-name="Group 761" transform="translate(155.791 -34.141)">
    <path id="Path_2522" data-name="Path 2522" d="M406.154,103.744c2.942,1.112,5.867,2.281,8.834,3.327,3.88,1.366,7.779,2.685,11.7,3.919,1.829.576,3.3,1.343,3.567,3.476.716,5.649,1.456,11.3,2.221,17.212a13.227,13.227,0,0,1-2.759.444c-5.354-.359-10.712-.71-16.05-1.231-6.893-.674-10.2-3.645-12.013-10.466-.262-.988-.568-1.96-1.133-3.9-2.029,2.387-1.771,4.322-1.511,6.361.266,2.087.28,4.205.445,6.976a68.976,68.976,0,0,1-21.189-.5c0-6.563.15-12.8-.047-19.021-.161-5.168-.706-10.327-1.131-15.484a5.39,5.39,0,0,0-3.426-5c-12.2-5.121-24.308-10.466-36.6-15.356-3.046-1.212-6.637-1.321-9.991-1.417-6.973-.2-13.961.128-20.932-.115-4.8-.171-9.664-.53-12.648-5.493-.594-.986-2.786-1.383-4.248-1.4-4.436-.047-8.9.576-13.306.292-7.078-.448-13.052-7.8-12.38-14.812a38.577,38.577,0,0,1,1.218-6.86c1.366-4.823,4.234-8.34,9.49-9.019,5.482-.706,11.075-1.922,16.485-1.421,4.409.408,8.618,3.011,12.911,4.653.647.249,1.268.563,2.266,1.008.712-1.514,1.352-2.875,2.12-4.512,1.874.518,4.648.435,5.6,1.711,2.6,3.5,6.154,2.545,9.245,2.506,3.562-.045,7.06-1.186,10.117,1.729.526.5,1.708.273,2.568.468,1.74.394,3.894.346,5.114,1.375,3.3,2.794,7.548,2.7,11.142,4.381a51.743,51.743,0,0,1,10.077,5.81c1.892,1.485,3.526,2.825,5.973,3.106a11.938,11.938,0,0,1,8.482,5.056,14.95,14.95,0,0,0,8.582,6.012c2.105.528,3.845,2.431,5.8,3.632,5.752,3.526,12.3,4.926,18.6,7.024,6.095,2.029,12.028,4.534,18.043,6.8a61.3,61.3,0,0,0,6.554,2.3,153.735,153.735,0,0,1,33.424,12.89c7.58,3.93,15.784,6.679,23.791,9.74a71.59,71.59,0,0,0,11.809,3.54c5.405,1.048,10.913,1.594,16.393,2.2,1.76.195,3.574-.211,5.36-.148a43.446,43.446,0,0,0,17.286-2.767c4.422-1.673,9.424-1.753,14.08-2.895,2.7-.663,6.34.195,7.71-3.9-3.715-2.642-8-.96-11.854-1.8-.024-.309-.176-.815-.05-.9,5.923-3.97,12.044-7.528,18.961-9.568a10.615,10.615,0,0,0,3.911-2.457c2.239-2.055,4.167-4.451,6.456-6.442a17.861,17.861,0,0,1,5.764-3.759c4.6-1.5,9.086-3.008,12.776-7.922a21.672,21.672,0,0,1,.4,3.789c-.352,2.978-1.021,5.77.439,8.876.741,1.576-.128,4.234-.9,6.149a66.651,66.651,0,0,1-25.16,30.737c-9.107,6.082-19.075,11.3-30.051,13.843a50.5,50.5,0,0,1-25.446-.976c-23.916-6.767-47.64-14.232-71.639-20.672-12.1-3.249-24.062-6.791-35.9-10.828-1.637-.56-3.355-.884-5.033-1.319Z" transform="translate(64.063)" fill="#1762a0"/>
    <path id="Path_2523" data-name="Path 2523" d="M468.389,232.65c-4.643-3.564-9.317-7.093-13.921-10.708-1.96-1.535-3.973-3.081-4.3-5.893-.071-.64-.558-1.6-1.055-1.749a5.9,5.9,0,0,0-3.438-.206c-.468.161-.763,1.844-.56,2.709a22.408,22.408,0,0,0,1.718,3.919c.441.974,1.254,1.97,1.223,2.935-.219,6.9,5.374,8.957,10.05,12.394A9.994,9.994,0,0,0,462.031,246c3.64,2.864,3.428,3.134,7.758.065,8.57,6.225,15.332,14.442,22.192,23.048l4.107-4.8-3.945-2.723c-.05-.439-.307-1.038-.133-1.459,1.579-3.8,1.511-7.171-2.015-10a9.735,9.735,0,0,1-2.1-3.072,107.1,107.1,0,0,0-24.942-31.257c-3.175-2.711-6.715-5.287-7.566-9.823.544-.278,1.008-.649,1.131-.558,5.831,4.324,12.054,8.164,16.6,14.047,2.947,3.816,6.137,7.444,9.21,11.162L502.79,255.4a14.55,14.55,0,0,0,1.874,1.419,41.847,41.847,0,0,0-7.64-13.444c-7.824-9.3-15.5-18.73-23.211-28.128a6.137,6.137,0,0,1-1.393-3.208,23.987,23.987,0,0,1,2.326,1.25c8.825,6.054,15.6,14.135,22.133,22.454,8.01,10.193,14.006,21.617,19.713,33.146,3.867,7.817,6.814,16.088,10.108,24.183a18.906,18.906,0,0,1,.734,3.446c-2.015,1.639-3.179.893-3.93-.922-1.295-3.139-2.5-6.315-3.773-9.462-1.39-3.439-2.816-6.863-4.225-10.291l-1.065.38q3.664,10.328,7.347,20.7c-3.428,2.089-6.261.027-9.138-.13a27.646,27.646,0,0,1-13.614-4.407c-9.179-5.888-18.358-11.773-27.484-17.753a7.756,7.756,0,0,1-2.219-2.767c-1.193-2.156-2.19-4.42-3.322-6.615-1.117-2.17-1.946-4.624-3.531-6.382a57.5,57.5,0,0,0-7.608-6.539c-1.8-1.395-3.811-2.506-5.708-3.773a22.212,22.212,0,0,0-3.981-2.7c-7.741-2.929-13.718-8.249-19.459-13.934-2.16-2.143-4.265-4.339-6.465-6.439-1.578-1.509-3.151-2.837-5.686-1.53a4.222,4.222,0,0,1-3.417-.447,72.883,72.883,0,0,1-18.56-15.242c-1.9-2.234-2.913-5.218-4.8-8.724l4.14.231c.784-5.092,4.679-5.833,9-5.764a117.424,117.424,0,0,1,11.758.5,8.08,8.08,0,0,0,6.936-1.892,7.887,7.887,0,0,1,1.6-1.421c3.639-1.782,5.786-4.593,5.89-10.112,2.464,2.683,4.149,4.4,5.692,6.238,1.261,1.5,1.771,3.132-.036,4.7-1.927,1.661-1.45,3.334-.151,5.179,2.243,3.191,4.343,6.48,6.639,9.932,1.144-.551,1.9-.922,2.659-1.281,3.206-1.534,4.381-1.444,6.3,1.438a59.124,59.124,0,0,0,13.037,13.392,50.473,50.473,0,0,1,6.5,6.373,31.844,31.844,0,0,1,2.936,4.726Zm34.985,41.5c-.9-3.555-1.361-7.3-5.206-9.547.521,4.558,1.284,6.022,5.2,9.54Zm-98.44-58.2-.965.88,2.051,1.851.656-.679Z" transform="translate(82.901 22.451)" fill="#1762a0"/>
    <path id="Path_2524" data-name="Path 2524" d="M534.392,293.736l-5.914,3.362a9.907,9.907,0,0,1-1.243-2.132c-3.422-14.277-10-27.118-17.954-39.31-2.7-4.139-4.45-8.26-4.218-13.465.346-7.954-4.286-21.8-8.554-27.891-1.549,2.478-3.081,4.933-4.861,7.779-2.692-2.306-2.824-4.987-2.983-7.839-.154-2.8-1.048-3.089-4.245-2-1.383-3.417-2.839-6.81-4.15-10.26-1.243-3.274-2.336-6.605-3.63-10.3,3.554-1.278,4.94-4.051,3.968-7.508a9.436,9.436,0,0,1,3.513-10.894,8.717,8.717,0,0,0,1.171-1.8,13.624,13.624,0,0,1-1.711-14.817c2.8-.839,4.411.618,5.7,2.739a70.629,70.629,0,0,0,3.941,6.38,23.28,23.28,0,0,0,4.069,3.3l2.134-4.785c2.913-.024,3.533,2.055,4.3,3.78a114.141,114.141,0,0,1,8.449,29.25c2.127,14.012,1.72,28.135,2.93,42.172a49.074,49.074,0,0,0,.873,5.819,49.4,49.4,0,0,1,1.565,12.665,21.562,21.562,0,0,0,3.419,12.2C525.5,277.669,529.654,285.375,534.392,293.736Zm-23.747-59.57c2.767-13.33-1.185-40.7-7.094-54.163-.625-1.421-.8-3.2-3.355-3.245,1.706,6.437,3.5,12.681,5,19,1.487,6.263,3.013,12.55,3.909,18.911.9,6.444,1.056,12.992,1.538,19.5Z" transform="translate(96.628 18.683)" fill="#1762a0"/>
    <path id="Path_2525" data-name="Path 2525" d="M537.359,231.413c1.268,2.492,2.951,4.861,3.735,7.493a63.892,63.892,0,0,1,.991,30.755c-1.153,5.855-6.061,9.326-11,12.754-3.228-4.474-5.649-8.846-6.693-13.771a16.6,16.6,0,0,0-5.555-9.537,8.149,8.149,0,0,1-2.548-9.248,23.069,23.069,0,0,0,.618-11.079,30.648,30.648,0,0,1-.2-4.823c.04-4.761.786-5.351,6.11-4.693-.181-2.947-.359-5.84-.618-10.092,3.3,2.951,5.506,5.092,7.893,7.009,2.362,1.9,4.906,3.567,7.369,5.339Z" transform="translate(102.605 28.271)" fill="#1762a0"/>
    <path id="Path_2526" data-name="Path 2526" d="M539.4,241.38a16.264,16.264,0,0,0-8.247-11.2c-4.087-2.226-6.209-5.855-7.7-10.4-1.345-4.113-4.323-7.7-6.6-11.5-.8-1.337-2.037-2.55-2.39-3.987-3.771-15.419-7.414-30.869-11.059-46.319a24.1,24.1,0,0,1-.32-3.113c3.023-.891,4.118,1.2,5.43,2.745,7.263,8.52,12.356,18.336,16.646,28.57,6.225,14.853,10.462,30.356,14.487,45.914a18.29,18.29,0,0,0,1.119,4.111c1.254,2.326-.049,3.652-1.492,5.056Z" transform="translate(100.668 18.412)" fill="#1762a0"/>
    <path id="Path_2527" data-name="Path 2527" d="M291.075,262.42c-28.052-3.8-52.337-32.084-54.167-64.3,1.268.537,2.536.706,3.2,1.428a59.144,59.144,0,0,1,4.208,5.544c2.181,3.041,4.322,6.11,6.473,9.169,2.331,3.317,4.532,6.729,7.009,9.932,3.742,4.842,7.561,9.5,12.588,13.314,3.027,2.3,6.37,4.693,8.493,8.449,2.157,3.813,5.707,6.82,8.482,10.312A60.63,60.63,0,0,1,291.075,262.42Z" transform="translate(59.999 25.054)" fill="#1762a0"/>
    <path id="Path_2528" data-name="Path 2528" d="M333.859,157.9l2.951-.331c-2.107-6.437-2.125-6.456-8.022-6.924a9.877,9.877,0,0,1-1.6-.056,4.122,4.122,0,0,1-2.951-4.951c.609-2.114,2.262-3.16,4.645-2.15a75.266,75.266,0,0,1,11.845,5.985c2.951,1.923,5.336,4.726,7.924,7.181.634.6,1.7,1.687,1.532,2.04-1.766,3.63,1.594,4.881,3.03,7.032a36.242,36.242,0,0,1,3.619,5.9c1.4,3.343-.772,5.926-4.246,4.866-4.743-1.451-9.588-2.937-12.565-7.558a39.611,39.611,0,0,0-4.182-4.861C333.883,161.908,333.865,161.924,333.859,157.9Z" transform="translate(73.325 16.647)" fill="#1762a0"/>
    <path id="Path_2529" data-name="Path 2529" d="M403.244,67.04,355.239,39.624c.428-.788.566-1.33.753-1.345,5.457-.461,10.916-1,16.167,1.314,4.566,2.01,9.091,4.158,13.789,5.812,6.489,2.286,10.578,7.128,14.147,12.537a82.448,82.448,0,0,1,4.156,8Z" transform="translate(78.079 0.57)" fill="#1762a0"/>
    <path id="Path_2530" data-name="Path 2530" d="M494.873,240.111c5.717,3.139,19.577,30.692,23.121,45.965-3.327,1.912-4.035,1.946-4.726-.625-4.053-15.143-11.919-28.65-18.169-42.848a5.976,5.976,0,0,1-.488-1.521A2.6,2.6,0,0,1,494.873,240.111Z" transform="translate(99.373 31.47)" fill="#1762a0"/>
    <path id="Path_2531" data-name="Path 2531" d="M153,594.3l-17.326-4.106c-1.2-3.973,1-9.172,4.711-10.683,1.991-.807,4.008-.643,5.282,1.169A68.433,68.433,0,0,1,153,594.3Z" transform="translate(44.482 83.254)" fill="#1762a0"/>
    <path id="Path_2532" data-name="Path 2532" d="M375.027,379.3a21.441,21.441,0,0,1-1.78-4.479,44.384,44.384,0,0,1,3.228-25.162,56.126,56.126,0,0,1,.15,29.165Z" transform="translate(80.741 48.207)" fill="#1762a0"/>
    <path id="Path_2533" data-name="Path 2533" d="M377.258,217.552c2.264.335,4.046-.32,3.689-4.028,1.456,1.285,2.623,1.809,2.866,2.613,2.082,6.838,5.275,13.372,5.593,20.847Z" transform="translate(81.443 27.407)" fill="#1762a0"/>
    <path id="Path_2534" data-name="Path 2534" d="M381.084,192.26c-.484,2.414-.786,3.919-1.231,6.131-4.987-4.512-7.1-9.914-8.11-16C376.4,184.434,376.119,190.7,381.084,192.26Z" transform="translate(80.601 22.651)" fill="#1762a0"/>
    <path id="Path_2535" data-name="Path 2535" d="M373.443,209.795c2.376,4.288,2.376,4.288-1.111,6.232C371.205,213.65,371.814,211.786,373.443,209.795Z" transform="translate(80.602 26.838)" fill="#1762a0"/>
    <path id="Path_2536" data-name="Path 2536" d="M104.911,256.063a12.973,12.973,0,0,1-1.4-3.2c-.083-.522.813-1.59,1.4-1.7a2.151,2.151,0,0,1,1.7,1.316,13.125,13.125,0,0,1-.556,3.419Z" transform="translate(39.618 33.157)" fill="#1762a0"/>
    <path id="Path_2537" data-name="Path 2537" d="M366.321,289.542c.929-.827,1.469-1.695,2.053-1.729.68-.038,1.4.656,2.107,1.038-.589.7-1.064,1.63-1.816,1.993C368.29,291.025,367.412,290.179,366.321,289.542Z" transform="translate(79.772 38.758)" fill="#1762a0"/>
    <path id="Path_2538" data-name="Path 2538" d="M509.183,256.039l3.871,8.069-.779.374q-1.942-4.034-3.88-8.064Z" transform="translate(101.479 33.903)" fill="#1762a0"/>
    <path id="Path_2539" data-name="Path 2539" d="M380.03,208.614l-4.966-1.319c1.059-1.008,1.523-1.758,2.179-2.013C379.564,204.38,379.885,205.9,380.03,208.614Z" transform="translate(81.108 26.108)" fill="#1762a0"/>
    <path id="Path_2540" data-name="Path 2540" d="M336.291,129.472c-2.536,1.052-4.726.836-7.042-2.908l7.019,2.98Z" transform="translate(74.108 14.121)" fill="#1762a0"/>
    <path id="Path_2541" data-name="Path 2541" d="M344.219,278.713c.451-1.444.9-2.891,1.565-5.018,1.126,3.383,1.126,3.383-1.708,4.876Z" transform="translate(76.373 36.601)" fill="#1762a0"/>
    <path id="Path_2542" data-name="Path 2542" d="M453.85,200.4l4.532,3.711C455.162,203.812,454.755,201.8,453.85,200.4Z" transform="translate(93.145 25.401)" fill="#1762a0"/>
    <path id="Path_2543" data-name="Path 2543" d="M335.445,129.156c.643,1.3,1.283,2.6,2.024,4.1h-2.835c.3-1.532.556-2.825.82-4.142C335.468,129.088,335.445,129.156,335.445,129.156Z" transform="translate(74.931 14.509)" fill="#1762a0"/>
    <path id="Path_2544" data-name="Path 2544" d="M273.894,138.552l-.907-.346.663-1.138c.244.221.629.414.682.677C274.382,137.975,274.05,138.28,273.894,138.552Z" transform="translate(65.512 15.726)" fill="#1762a0"/>
    <path id="Path_2545" data-name="Path 2545" d="M239.965,341.725h2.585l.115.759-2.62.5Z" transform="translate(60.466 46.995)" fill="#1762a0"/>
    <g id="Group_441" data-name="Group 441" transform="translate(-155.791 134.211)">
      <path id="Path_2583" data-name="Path 2583" d="M703.34,230.661a339.258,339.258,0,0,0-2.347-38.535q-.716-5.853-1.178-11.724c-.378-4.807-.571-9.63-.976-14.435a10.847,10.847,0,0,0-1.233-2.918c-1.761,1.055-3.67,2.991-4.577,2.6-3.433-1.48-4.147,1.018-5.173,2.94a51.511,51.511,0,0,0-3.531,7.81c-5.219,15.587-10.538,31.144-15.363,46.854-3.358,10.93-6.147,22.045-8.851,33.158a104.666,104.666,0,0,0-1.979,14.288,6.639,6.639,0,0,0,.956,4.055c2.015,3,4.351,5.787,7.024,9.264,1.138-2.533,2.19-4.716,3.112-6.952a65.572,65.572,0,0,1,10.155-17.4c-.938,8.411-1.758,16.816-5.166,24.566-2.356,5.356-5.394,10.407-8.086,15.616-2.918,5.65-6.469,10.613-12.394,13.61-3.171,1.6-6.588,3.305-8.894,5.867-2.562,2.854-5.878,3.375-8.95,4.413a29.82,29.82,0,0,1-9.393,1.019c-7.123,0-14.353.414-21.339-.656-6.639-1.019-14.247-1.722-16.759-10.153a3.173,3.173,0,0,0-1.038-1.214c-5.441-4.859-10.671-10.024-17.9-12.3a4.6,4.6,0,0,1-1.9-.963,32.837,32.837,0,0,0-10.345-7.123c-6.6-2.963-12.452-7.635-20.151-7.75a7.163,7.163,0,0,1-2.022-.68c-3.006-1.046-5.962-2.685-9.037-2.949a16.794,16.794,0,0,1-6.463-2.008c-4.192-2.125-8.894-3.949-13.356-2.445-3.255,1.1-5.707.663-8.659-.183-3.73-1.071-7.582-1.9-11.207.763a9.073,9.073,0,0,1-3.124.956c-1.184,1.839-1.844,4.015-3.293,4.892-3.88,2.346-8.1,4.148-12.382,6.265l-.522-3.05-7.061,2.355c.6,4.185-.89,7.094-4.842,8.9-2.021.922-3.65,2.715-5.43,4.15-2.256,1.82-2.708,4.008-1.219,6.952l5-2.233c.428,4.029,1.944,7.9.9,10.858-1.642,4.643-.979,9.2-1.364,13.757-.453,5.358,1.956,6.7,6.786,4.3,3.6-1.782,6.037-.293,5.75,3.73a27.869,27.869,0,0,1-1.337,5.262c1.01,2.519,4.189,3.707,2.794,7.022-6.211.71-5.579-5.028-8.2-9.12-.28,3.291-.473,5.609-.7,8.242l-2.618,1.366a7.809,7.809,0,0,0,.378,1.836c4.3,8.284,5.643,17.3,5.89,26.415.407,15.256-1.519,30.349-4.11,45.361-.868,5.04,1.689,7.233,6.552,5.75,2.167-.661,4.406-1.088,6.894-1.691l.835,5.166c2.438-1.234,4.368-2.754,6.513-3.168,3.5-.677,2.266,3.974,4.526,4.926l9.711-9.019c2.049,4.564-2.52,5.11-3.689,7.116,2.9,7.012,5.667,13.71,8.637,20.891-.261.965-1.514,2.963-.981,4.17,1.265,2.861.528,5.052-.6,7.62a13.45,13.45,0,0,0-.846,5.781c.322,7.4,1.583,14.615,4.973,21.3,5.327-1.625,6.268-.942,6.408,4.611.05,1.965-.095,3.945,0,5.9a37.263,37.263,0,0,0,.77,4.227c3.068-1.319,5.6-2.452,8.172-3.5,1.778-.723,3.683-2.01,5.392-1.816a12.417,12.417,0,0,0,6.169-.75c3.764-1.417,6.394.345,7.4,4.288a5.754,5.754,0,0,0,1.666,3.03c3.377,2.586,6.921,4.957,10.362,7.378.518-.527.9-.738.979-1.028q4.236-15.371,8.442-30.751c.468-1.713.772-3.48,1.371-5.146,1.742-4.868,3.321-9.825,5.477-14.51,2.371-5.146,4.649-10.459,9.1-14.312a62.771,62.771,0,0,1-3.118,6.256c-4.481,6.935-6.505,14.686-7.584,22.7-1.841,13.641-3.914,27.227-7.781,40.471-.613,2.089-1.364,4.138-2.342,7.078-.972-2.505-1.447-4.037-2.138-5.461-2.33-4.792-7.408-7.744-12.172-7.168-3.3.4-4.752,2.356-3.945,5.526.4,1.554,1.072,3.034,1.552,4.568.6,1.914,1.124,3.852,1.635,5.615-2.58.443-4.514.452-6.182,1.122-6.437,2.6-8.891,1.48-11.025-5.3-.059-.176-.556-.214-.576-.221-1.521,2.409-3.006,4.771-4.223,6.7L500,534.959c-1.8,1.1-3.438,2.9-5.213,3.048-5,.412-10.064.141-15.1.148a10.939,10.939,0,0,0-8.218,3.089c-1.586,1.532-4.358,2.076-6.7,2.5-1.667.3-3.51-.331-5.879-.623,1.4-2.156,2.616-3.887,3.68-5.7,1.019-1.745,1.879-3.581,2.839-5.434-4.626-1.861-4.774-2.08-8.446.394-3.831,2.581-7.352,3.191-11.33-.244a37.944,37.944,0,0,0,3.689-14.12c.1-3.759-1.419-5.139-5.188-5.4-3.752-.257-7.485-.282-10.9,1.863a9.743,9.743,0,0,1-3.334.661c-.475-6.63-1.257-12.787-1.25-18.945.007-4.732-.737-10.077,4.65-13-.911-1.7-1.742-3.257-2.709-5.072,3.493-3.453,3.861-7.781,3.484-12.3a5.9,5.9,0,0,1,3.458,5.373c.235,3.424.92,6.814,1.442,10.419,2.283-.723,4.482-2.04,6.571-1.9s4.083,1.729,6.076,2.663c2.327-3.193,4.358-6.223,2.673-10.191h-.01c1.732-3.359,1.366-10.105-1.307-12.666a10.53,10.53,0,0,1-3.291-8.646,17.831,17.831,0,0,0-.452-3.3l-3.529-1.29c8.226-8.841,6.475-18.644,4.924-29.662-4.417,8.41-7.513,10.638-11.731,11.46a19.331,19.331,0,0,0,1.851-2.853c1.9-4.611,6.81-7.4,7.774-12.493.895-4.714,1.268-9.523,2.075-14.259a61.555,61.555,0,0,0-2.457-31.6c-1.642-4.623-4.225-7.131-9.319-8.542.522,5.35,1.011,10.316,1.5,15.28a9.125,9.125,0,0,1-2.759-4c-1.383-3.092-2.6-6.283-4.265-9.222-1.435-2.544-3.281-2.5-4.918-.016-2.492,3.782-6.361,6.679-7.219,11.541-.2,1.137-1.276,2.118-1.941,3.175q-3.055,4.866-6.1,9.706c-2.721-5.73-5.676-11.572-8.269-17.573-1.5-3.481-2.958-6.735-6.18-9.115-2.521-1.865-3.236-5.57-1.333-7.559,3.39-3.546,4.49-9.345,10.26-10.606a2.583,2.583,0,0,0,1.451-1.489c1.921-5.027,7.012-6.288,10.745-9.152a28.99,28.99,0,0,1,3-1.811c-.674-2.152-1.642-3.946-1.74-5.79-.346-6.58-.406-13.178-.576-19.767l.143.138c-1.757-5.86-1.338-7.9,2.318-10.56a63.816,63.816,0,0,0-1.614-7.774c-2.145-6.415-7.644-9.478-13.1-6.727-3.464,1.749-6.252,1.977-8.73.085-6.475,2.609-12.418,5-18.253,7.351,3.089,2.357,3.624,3.422,1.533,5.23-3.269,2.827-2.92,5.71-1.435,9.14a32.764,32.764,0,0,1,1.357,5.349c-2.782,1.405-4.9,1.621-7.2.452a14.822,14.822,0,0,0-4.12-1.129c-9.814-1.725-9.818-1.708-15.842-8.722l-5.853,4.364a56.345,56.345,0,0,1-7.328-1.54,5.17,5.17,0,0,1-2.783-2.781c-.224-.585,1.061-1.91,1.867-2.689,1.4-1.349,2.955-2.53,4.294-3.654-.681-6.147-1.8-7.162-7.123-8.846a111.173,111.173,0,0,1-15.851-6.061c-2.943-1.455-5.612-2.978-8.986-2.87-2.393.074-4.771-.19-5.712-2.949-.915-2.689-1.179-5.257,1.794-7.024.333-.2.361-.918.616-1.637l-3.587-.972c.175-1.482.874-3.054.4-4.082a97.581,97.581,0,0,1-6.769-20.059c-2.749-12.388-6.041-24.656-8.773-37.047a63.293,63.293,0,0,1-1.844-16.454c2.143.39,4.208,1.464,5.546.88,4.613-2.015,8.669-.054,12.944.889a20.4,20.4,0,0,0,5.327.128c4.854-.239,9.243.7,12.638,4.524,1.778,2,3.574,3.992,5.443,5.9.96.978,2.032,2.408,3.177,2.536,2.8.311,4.185,2.423,6.225,3.726,2.882,1.84,4.53,5.955,9.107,5a51.084,51.084,0,0,0,.891,6.547c1.031,3.838,2.409,7.6,6.854,8.773,2.756.725,5.159,1.521,4.993,5.135-.029.634.883,1.639,1.575,1.919a30.844,30.844,0,0,0,7.1,2.262,5.163,5.163,0,0,0,4.23-1.457c.613-.858.1-3.056-.616-4.225-1.554-2.523-1.481-4.687-.651-7.548,1.32-4.555,1.134-9.026-3.458-12.45-2.337-1.742-3.847-4.624-5.658-7.045-1.055-1.4-1.667-3.348-3.015-4.255-1.252-.846-3.216-.633-5.106-.922.275-3.511.85-7.166-2.548-9.678a.635.635,0,0,1-.166-.495c.484-5.1-3.155-8.043-5.867-11.534-1.276-1.648-2.8-3.628-2.915-5.533a11.857,11.857,0,0,0-4.1-8.811,7.647,7.647,0,0,1-2.464-3.458c-1.352-5.393-5.71-8.621-9.068-12.425-2.114-2.392-5.759-4.95-8.608-4.835-5.249.22-10.429,2.316-15.609,3.74a4.377,4.377,0,0,0-2.089,1.6c-1.7,2.274-3.816,4.442-4.767,7.024-1.9,5.168-5.817,7.233-10.945,8.361V163.2c-3.3-13.919-3.326-28.556-10.072-42.255l-3.659,3.9c-.732-1.146-1.283-2.008-2.4-3.759-2.351,3.831-4.346,6.368-5.593,9.229-9.287,21.344-15.141,43.518-15.678,66.919-.347,15.05-.262,30.069,3.046,44.879a10.363,10.363,0,0,1,.115,5.227,87.508,87.508,0,0,1-4.611,10.836c-.667,1.348-2.1,3.315-3.148,3.294-3.645-.076-5.976,2.867-9.252,3.4-.2.026-.3.6-.542,1.153l3.236,2.255c-1.258,1.881-3.46,3.711-3.175,4.994,1.067,4.816-2.049,7.344-4.628,10.184-2.563,2.819-5.185,5.475-2.815,9.481l-8.24,6.007a9.44,9.44,0,0,0-1.975-1.421,3.539,3.539,0,0,0-.774-.3,3.494,3.494,0,0,0-4.266,2.495c-.9,2.6-1.989,5.146-2.6,6.7-4.306.976-7.551,1.733-10.8,2.436-1.338.292-2.983,1.008-3.99.522s-1.4-2.243-1.965-3.26a27.755,27.755,0,0,1-4.942-.047c-4.483-.843-8.113,1.135-11.443,3.538-5.073,3.659-5.862,3.8-10.06-.682-1.933-2.067-3.939-3.046-6.612-1.516a40.755,40.755,0,0,0-4.994,2.882c-3.116,2.43-6.332,3.9-10.394,2.7-2.226-.656-4.542-1-6.821-1.471-2.435-.5-3.338-1.972-2.582-4.313.882-2.718,1.919-5.386,2.842-8.09,1.4-4.1,2.759-8.212,4.218-12.572a20.724,20.724,0,0,0-2.122.168c-5.79,1.174-6.077.981-7.289-5-.55-2.725-1.8-3.355-4.1-1.91-1.048.656-1.881,1.648-2.87,2.409-4.068,3.134-7.454,7.042-12.4,9.21-2.544,1.112-4.687,3.873-6.225,6.373-2.231,3.63-3.609,7.771-5.607,11.559-2.905,5.509-6.192,10.821-9.024,16.37-3,5.88-5.829,11.863-8.392,17.944-1.387,3.283-.157,4.752,3.251,4.823,3.2.067,6.42-.061,9.592.259a11.776,11.776,0,0,1,4.957,1.746c3.59,2.279,3.549,5.882.275,8.656a10.063,10.063,0,0,0-2.882,3.609c-2.054,5.09-6.27,7.644-11.711,6.473a6.975,6.975,0,0,0-6.042,1.086c-3.2,2.281-6.827,4.017-9.814,6.529-4.469,3.764-9.794,6.391-13.563,11.16-2.595,3.285-4.664,7.347-9.288,8.8-1.21.38-2.391,2.329-2.709,3.752-.616,2.747-2.51,4.166-4.413,5.819-2.956,2.568-6.223,4.973-8.516,8.07-6.489,8.766-12.633,17.807-15.651,28.513-4.319,15.3-8.744,30.58-12.85,45.941-1.514,5.665-2.364,11.518-3.32,17.319C1.47,515.559.064,524.91-1.336,534.258c-1.155,7.709-2.225,15.432-3.493,24.324C1.515,552.357,7.317,547.2,14.529,543.25c1.126,3.566,2.171,6.851,3.355,10.6,2.661-1.364,4.6-2.9,6.769-3.359,4.329-.922,6.488-4.074,8.76-7.263,1.76-2.468,3.576-4.9,5.249-7.425a55.83,55.83,0,0,0,4.429-7.318c6.178-13.5,12.135-27.1,18.367-40.578,1.122-2.425,3.171-4.423,4.785-6.619a3.784,3.784,0,0,1-.1,3.383c-1.6,2.994-3.453,5.858-4.915,8.914-6.79,14.18-13.318,28.491-20.278,42.591-4.647,9.414-10.918,18-13.384,28.513-.582,2.488-3.1,4.85-5.291,6.522a15.44,15.44,0,0,0-4.049,4.75c-1.364,2.3-2.024,5.291-5.367,6.905a30.467,30.467,0,0,1-.6-3.952c-.023-4.785,1.708-10.068-4.125-13.066-.451-.231-.346-1.378-.719-1.96-.746-1.145-1.636-2.2-2.59-3.45-3.01,1.8-6.086,2.994-8.276,5.108a45.362,45.362,0,0,0-6.771,8.95A79.884,79.884,0,0,0-20.366,600.27c-.623,2.972-1.147,5.973-1.915,8.905-5.4,20.645-12.473,40.654-22.618,59.116l3.139,11.528c2.378-1.592,4.224-2.913,6.154-4.094a11.521,11.521,0,0,1,4.18-2.029,7.2,7.2,0,0,0,5.665-3.542c2.151-3.462,4.288-6.936,6.363-10.448,2.528-4.279,4.98-8.606,7.465-12.911.984-1.7,1.9-3.457,2.98-5.1,1.073-1.621,2.321-3.128,3.9-5.233-.756,7.2-1.011,7.257-3.638,12.463A33.7,33.7,0,0,0-12.4,659.438a35.209,35.209,0,0,1-3.856,11.588c-3.375,6.676-6.516,13.467-9.946,20.11a18.051,18.051,0,0,1-4.135,5.412c-3.555,3.027-7.074,5.92-7.81,10.938a3.966,3.966,0,0,1-1.162,2.324c-3,2.507-6,5.024-9.2,7.255-2.718,1.891-5.707,3.4-9.051,5.349-3.878-5.867-9.823-8.91-16.986-10.26-7.644-1.438-13.542,3.1-13.394,10.866.07,3.583.691,3.914,4.094,5.1,7.756,2.7,15.416,5.684,23.074,8.656a9.98,9.98,0,0,1,3.011,2.19c2.755,2.619,3.344,5.794.36,7.792a104.3,104.3,0,0,0-12.539,10.419,3.384,3.384,0,0,1-.986.411c-6.868,2.921-12.879,6.836-16.8,13.508a5.363,5.363,0,0,1-3.833,2.434c-3.794-.047-4.992,2.022-5.533,5.2a11.327,11.327,0,0,1-7.513,9.015,20.5,20.5,0,0,0-2.421,1.393l2.286,4.726-5.777,2V780.024c0-.174-.038-.466.052-.52,3.063-1.878,1.376-5,2.075-7.48,1.172-4.172-1.919-6.042-3.63-8.87-2.3-3.8-5.1-4.573-9.022-3.393-.518.157-1.244-.4-2.281-.765l2.552-3.12-3.048-2.823c-3.591,4.959-2.383,4.861-8.352.889-3.155,3.963-6.963,7.644-9.407,12.078a151.452,151.452,0,0,0-9.165,20.461c-3.246,8.768-4.3,18.052-5,27.349a4.334,4.334,0,0,0,3.276,4.852,60.385,60.385,0,0,0,25.246,3.643,10.068,10.068,0,0,0,6.205-3.7c1.534-1.922,1.927-4.767,2.779-7.109l9.619-1.583c2.087,3.24-2.683,7.723,2.274,9.946-2.3,4.8-2.3,4.7-7.161,4.566a48.906,48.906,0,0,0-6.789.886,17.665,17.665,0,0,0,2.58.712c9.265.222,18.5-.271,27.808.945,7.729,1.012,15.723.277,23.585-.069,4.019-.171,8.291-.495,11.916-2.015a19.545,19.545,0,0,1,8.7-1.915c10.231.508,20.332-.712,30.376-2.373,8.421-1.393,9.625-5.212,8.015-11.413-2.823-10.889-5.442-21.829-8.3-32.709-2.039-7.761-2.072-7.628,4.293-12.239,4.192-3.039,8.412-6.249,10.044-11.514,2.061-6.66,4.207-13.314,5.812-20.092C8.55,715.685,14.8,699.538,21.757,683.613c1.093-2.5,2.54-3.662,5.251-3.558,3.4.13,6.8.123,10.2.052,5.473-.116,6.841-1.366,6.7-6.66q-.337-12.073-1.084-24.124a11.527,11.527,0,0,1,2.015-8.114c2.7-3.556,5.289-7.215,8.171-10.618,7.62-8.988,14.691-18.5,24.064-25.856,5.339-4.194,10.827-8.214,15.995-12.609,15.668-13.325,31.3-26.7,45.359-41.778a18.541,18.541,0,0,1,1.927-1.867c2.809-2.246,4.66-2.082,6.813.7.87,1.124,1.411,2.505,2.281,3.629,1.3,1.68,2.45,3.954,4.208,4.711,5.763,2.483,9.98,6.836,14.281,11.034a35.113,35.113,0,0,1,6.335,8.509c2.77,5.2,5.034,10.681,7.437,16.077.833,1.877,1.442,3.851,2.155,5.781l-.948.482-5.256-6.484a204.993,204.993,0,0,0,28.484,82.352,4.878,4.878,0,0,1-2.049-1.442c-3.36-3.657-4.554-3.816-8.571-1.028a12.013,12.013,0,0,0-2.037,1.737c-3.493,3.829-6.979,7.659-10.388,11.563a8.2,8.2,0,0,0-1.487,2.813c-2.79,8.5-5.5,17.015-8.3,25.506a10.189,10.189,0,0,1-1.542,2.306l-1.124-.168q-.109-3.332-.229-6.662-.4-10.878-.817-21.753a6.28,6.28,0,0,0-.212-1.052c-1.137-5.17-4.215-7.454-9.508-7.223a20.923,20.923,0,0,1-6.391-.183c-5.1-1.421-8.132,1.169-10.9,4.792a70.138,70.138,0,0,0-13.278,31.3c-.821,4.752-1.41,9.547-1.925,14.342-.285,2.626.6,4.484,3.766,4.648,2.837.145,5.648.922,8.48,1,6.081.161,12.172.176,18.253,0,3.187-.091,6.013.085,7.263,3.39,4.574-.765,8.777-2.07,12.976-2.051,10.539.044,21.079.7,31.619,1.081a14,14,0,0,0,2.625-.219c3.134-.478,6.256-1.372,9.4-1.428,9.123-.167,18.252.084,27.379-.031a63.243,63.243,0,0,0,8.177-1.133l.536-.988c-3.839-1.157-4.827-3.106-3.009-6.449.673-1.235.272-3.14.115-4.716a79.194,79.194,0,0,0-1.176-8.493c-1.25-5.938-2.483-11.892-4.118-17.73-1.278-4.57-1.384-4.995,2.98-6.9,8.354-3.653,16.758-7.189,25.112-10.836A123.053,123.053,0,0,0,305.845,662.6a65.594,65.594,0,0,1,24.749-12.322c5.4-1.435,10.232-1.432,13.784,3.719a7.364,7.364,0,0,0,1.167,1.108c6.58,6.014,12.537,6.92,20.66,3.208,1.356-.62,2.8-1.046,5.045-1.865,0,3.048-.04,5.155.007,7.263.128,5.717-.013,11.464.6,17.129.224,2.049.074,3.327-1.247,4.733-3.914,4.17-7.733,8.433-11.652,12.6-5.229,5.547-8.637,11.8-8.095,19.713.228,3.357.342,6.722.528,10.5-1.328.744-2.83,1.673-4.407,2.454-7.607,3.771-13.128,9.71-17.6,16.763-3.832,6.035-7.188,12.452-11.626,18-6.522,8.157-7.552,17.929-9.6,27.474a7.486,7.486,0,0,0,.249,2.651c.8,4.807.868,9.38-1.1,14.152-2.423,5.855-.445,8.435,5.6,9.946,4.816,1.2,10.014.387,14.582,2.975a6.089,6.089,0,0,0,3.689.1c5.575-1,10.973.333,16.433,1.01q9.787,1.211,19.6,2.221a12.327,12.327,0,0,0,3.151-.461,84.154,84.154,0,0,1,8.849-1.449c8.369-.5,16.8-.284,25.116-1.231a131.973,131.973,0,0,1,25.005-.1c6.429.484,13.357,1.727,18.314-4.577.665-.852,2.447-.738,3.35-1.5,1.287-1.079,3-2.461,3.179-3.885.485-3.823,1.321-7.743-.522-11.583a21.2,21.2,0,0,1-1.378-5.692c-.692-4.219-1.9-8.482-1.729-12.681.181-4.567-4.716-7.837-2.651-12.658.157-.37-.649-1.2-1.077-1.76-1.4-1.836-2.875-3.616-4.241-5.477-4.764-6.491-4.752-6.5,2.407-10.043.161-.078.32-.166.486-.231,5.517-2.15,8.425-6.382,9.264-12.056.363-2.448,1.033-4.42,4.073-5.187-3.114-.467-3.841-2.205-3.667-4.617.4-5.524.244-11.146,1.268-16.549,1.7-8.978,2.643-17.921,7.578-26.4,9.765-16.772,21.517-31.709,36.272-44.093,9-7.553,16.327-16,20.656-26.895A14.026,14.026,0,0,1,527,609.859c7.577-4.607,13.171-10.9,15.833-19.564a62.068,62.068,0,0,1,2.575-6.075c9.338,19.377,14.041,39.6,18.305,60.112l3.5-2.226-2.9,10.35c6.256-6,3.556-14.088,5.363-21.283a33.913,33.913,0,0,0,4.136,2.7,43.772,43.772,0,0,0,4.94,1.635c1.326,5.2-.715,9.076-4.046,12.286a48.4,48.4,0,0,0-9.984,12.481c-3.364,6.532-4.526,13.244-1.729,20.662,3.925-3.119,7.2-6.13,10.871-8.516,3.59-2.329,7.355-4.848,13-3.925-1.549,1.269-2.4,2.1-3.376,2.742-4.479,2.933-9.093,5.674-13.453,8.775a24.857,24.857,0,0,0-5.181,5.325c-2.149,2.849-4.062,5.891-5.954,8.925a50.813,50.813,0,0,0-8.07,25.233c-.247,6.2.476,12.539-2.211,18.464-.108.24.16.65.276,1.069,2.951.34,5.932.629,8.9,1.048s5.909,1.245,8.887,1.4c5.325.281,10.729-.556,15.838,1.851a8.99,8.99,0,0,0,3.71.309c4.949-.022,9.869-1.488,14.871-.1,1.079.3,2.427-.394,3.657-.625a17.249,17.249,0,0,1,4.187-.692,114.41,114.41,0,0,0,24.051-.195c7.242-.967,14.624-.86,21.933-1.39,5.9-.43,9.659-4.286,9.2-10.1-.516-6.579-2-13.081-2.6-19.66-1.254-13.829-8.748-23.888-18.93-32.419-2.635-2.208-5.544-3.046-8.954-1.447a10.121,10.121,0,0,1-4.693.862c-5.318-.311-8.442,2.125-9.789,7.154-.934,3.5-3.459,5.82-6.237,7.819-2.468,1.775-4.391.934-4.989-2.127-.307-1.565-.085-3.227-.325-4.809a23.234,23.234,0,0,0-1.3-5.649c-1.742-4.049-1.825-3.961,1.583-7.022,1.18-1.062,2.626-2.206,3.077-3.59.412-1.273-.356-2.925-.6-4.4,8.728-4.4,17.035-1.328,26.218,2.322-.522-3.844-.524-6.72-1.355-9.328-1.314-4.125-13.2-13.061-17.488-13.99-4.836-1.048-9.174.824-13.693,1.753-1.439.3-2.952,1.67-4.368-.09-.454-2.317,1.659-2.434,2.8-3.37,2.316-1.894,3.455-4.637,1.791-6.52-3.847-4.353-3.748-9.9-5.313-14.364l4.566-5.154c1.052,3.313,2.158,6.69,3.2,10.085,1.54,5.031,5.1,7.643,10.448,7.3V622.595c1.239.927,2.285,1.7,3.73,2.781a24.278,24.278,0,0,0,.565-2.9c.373-6.073.427-12.177,1.1-18.214,1.636-14.563,3.328-29.126,5.44-43.627,1.214-8.318,3.021-16.529,2.618-25.015-.095-1.946.444-3.911.468-5.871.03-2.658.354-5.45-.316-7.954-2.929-10.977-1.666-21.491,2.4-31.946,4.9-12.609,11.6-24.618,13.047-38.413a11.852,11.852,0,0,1,1.147-2.98c1.62-3.974,3.229-7.951,4.866-11.916.885-2.148,1.373-4.662,2.822-6.33,3.328-3.832,3.281-8.027,2.689-12.593a6.79,6.79,0,0,1,1.038-4.362,13.187,13.187,0,0,0,2.481-9.124c-.936-8.868-1.791-17.76-3.186-26.562a29.08,29.08,0,0,1,1.176-15.292c1.587-4.181,3.594-8.254,4.66-12.56a10.889,10.889,0,0,1,4.859-6.63,71.636,71.636,0,0,0,20.857-22.1c9.152-15.756,13.5-33.166,14.394-51.184C704.668,256.8,703.44,243.713,703.34,230.661ZM474.12,366.079l-.862-2.906.965-.354.717,3.03ZM488.4,394.2l-1.844-1.214.007,0c.806-.318,1.274-.674,1.642-.589.3.07.571.643.669,1.037C488.926,393.638,488.572,393.942,488.4,394.2Zm2.666-8.308c-2.061,1.3-2.495-.887-3.1-2.333-.119-.286-.463-.483-.7-.72-1.518.249-3.043.5-4.875.807-1.375-5.038,3.545-9.136,1.476-13.862,2.035-4.832-.665-9.23-.518-13.89l-1.72.081v6.057c-3.025-1.756-1.331-4.58-2.83-6.814-.184,3.545-.337,6.489-.52,10.036-3.3-4.27-4.8-13.466-3.158-18.341,1.812,1.827,3.212,4.23,5.218,4.957,1.811.658,4.288-.511,6.872-.941,2.065,3.963,1.982,8.668,1.514,13.448-.558,5.7-1.111,11.422,2.947,16.305a1.46,1.46,0,0,1,.4.969C491.818,383.126,491.952,385.333,491.068,385.893Zm27.961-27.651c-4.471,11.227-3.6,23.207-5.156,34.843a91.135,91.135,0,0,1-2.231,10.457c-.628,2.467-2.919,3.155-4.957,1.628a5.4,5.4,0,0,1-1.357-1.635c-3.3-5.771-5.756-11.7-4.142-18.614.885-3.813,1.4-7.712,2.153-11.557.425-2.17.345-4.987,1.682-6.3,1.855-1.819.537-4.427,2.45-5.925.96-.753,1.568-1.924,2.459-2.775,2.024-1.927,4.127-3.775,6.724-6.133v0C519.309,353.358,520.072,355.62,519.029,358.242ZM452.8,468.678c.445,1.177.9,2.352,1.355,3.511C450.983,472.285,451,472.233,452.8,468.678ZM-110.016,807.42l1.245-3.574c-3.751-4.724-3.553-5.564,1.834-6.518.576,2.683,1.076,4.991,1.681,7.763C-106.228,805.569-107.583,806.229-110.016,807.42Zm180.345-332.6-1.038-.4q1.458-3.121,2.919-6.242A7,7,0,0,1,70.329,474.823Zm2.036-7.085c.946-3.086,1.793-6.193,2.982-9.162a28.687,28.687,0,0,1,2.862-4.495C77.646,459.241,76.475,464.125,72.365,467.738Zm5.946-14.156c-.643-3.6,1.314-6.3,3.726-8.83Zm27.017-45.2c-.586,2.91-3.36,3.555-6.473,4.408,1.091-3.5,2-6.429,3.068-9.837C105.393,403.739,105.752,406.277,105.328,408.379ZM216.739,304.935a4.9,4.9,0,0,1-.91-.95c-.078-.138.262-.511.409-.777l1.031.777Zm55.253-13.671-.385.043-.157-2.075.542-.016ZM434.035,465.659l-4.294-7.32C434.523,460.7,434.568,460.73,434.035,465.659Zm-6.422-23.94c2.361,1.753,2.362,1.753,2.492,5.139C427.506,445.342,427.506,445.342,427.613,441.719Zm1.478,91.64c3.674,2.425,3.644,7.215,7.029,9.93-2.138,2.216-3.783,3.393-6.052,1.582C427.145,542.535,426.719,538.581,429.091,533.359Zm-5.212,4.6c.416,2.032-.3,3.627-2.25,3.92-1.779.271-2.945-.965-2.865-3.638Zm-20.833-6.578c.891-1.73,1.352-2.861,2.01-3.86,2.929-4.456,7.363-4.382,10.117.128a3.741,3.741,0,0,1,.5.945c.513,1.972,2.374,4.065.5,5.956-1.918,1.939-3.531-.455-5.237-1.066-1.16-.415-2.21-1.156-3.386-1.492a34.82,34.82,0,0,0-4.5-.606Zm-21.8-141.5c.407,3.786,2.7,7.073,1.892,11.07-1.76,8.663.465,13.4,8.793,18.153-7.356-1.162-12.825-3.9-15.13-9.977C374.152,402.112,376.847,395.677,381.25,389.877Zm-30.439,9.561,1.047.564c-.619,2.36-.62,2.36-3.516,3.7ZM302.166,357.79c1.546.907,2.685,2.195,1.532,3.894-1.307,1.925-2.806.624-4.087-.346-1.052-.8-2.048-1.673-3.07-2.514l2.474-2.944C300.135,356.564,301.144,357.19,302.166,357.79ZM288.2,340.2c2.55,4.389,5.185,8.744,7.452,13.28.746,1.493.587,3.439.783,5.208-2.615-4.729-5.245-9.51-7.8-14.334-1.32-2.492-2.5-5.054-3.758-7.584C287.1,336.776,287.382,338.806,288.2,340.2Zm-10.466-21.418.832-.576,1.678,3.371C279.423,320.626,278.579,319.7,277.732,318.787Zm3.134,7.474-.481-4.34,1.376,4.157Zm3.566,6.079q.152,2.04.308,4.082l-1.379-3.858Zm-.153,44.178.007.006h-.007Zm.086.074c1.378,1.175,2.756,2.356,4.5,3.848C284.684,381.4,285.128,378.387,284.365,376.591Zm28.476,32.222,2.206-1.371q-.664,1.114-1.327,2.231Zm6.864-4.505c-1.5.854-2.94,1.826-4.4,2.749-.473-.858-.8-2.023-1.516-2.348-4.992-2.236-6.189-4.114-5.591-8.992a51.44,51.44,0,0,1-6.429,1.648c-3.379.445-5.287-.727-5.586-3.851-.243-2.551.439-5.193.753-7.791.137-1.111.375-2.21.576-3.386-3.868-.86-4.061,2.507-5.475,4.306-.365-.572-.542-.722-.542-.869.065-7.817.062-7.842-7.151-9.24-.2-.877-.36-1.74-.6-3.006a21.551,21.551,0,0,1,3.637-.428c4.726.25,9.453.77,13.718-2.145a3.738,3.738,0,0,1,2.557-.247c11.7,2.319,23.395,4.7,35.451,7.147a31.118,31.118,0,0,1-4.407,9.281c-2.035,3.287-4.477,6.3-5.114,10.414-.516,3.357-3.3,5.048-6.71,5.381A8.756,8.756,0,0,0,319.7,404.308Zm44.387,385.67,2.449-2.892C366.989,789.044,366.7,789.484,364.092,789.977Zm10.675-20.26a23.493,23.493,0,0,1-1.715,7.767c-.891,2.1-2.7,3.811-4.272,5.925l2.9,1.119c-.361.456-.589,1.048-.986,1.2-1.338.509-2.737.87-4.114,1.283-2.417-.075-3.713-1.591-4.7-3.657-4.459-9.343-3.476-18.714-.173-28.083a3.514,3.514,0,0,1,.178-.557,3.43,3.43,0,0,1,4.484-1.848c1.471.5,3.246,1.153,4.068,2.313A22.668,22.668,0,0,1,374.767,769.717ZM496.557,638.69a45.1,45.1,0,0,1-23.972,3.011,52.361,52.361,0,0,1-22.705-8.792,46.984,46.984,0,0,1-9.091-8.383,39.493,39.493,0,0,1-6.256-10.761l-.07-.186-.036-.161a14.561,14.561,0,0,0-.963-2.767,24.115,24.115,0,0,0-1.48-2.782,37.468,37.468,0,0,0-3.876-5.189,53.745,53.745,0,0,0-4.666-4.67c-.818-.746-1.672-1.458-2.541-2.154l-2.677-2.24a75.2,75.2,0,0,1-9.568-10.23,94.139,94.139,0,0,1-7.642-11.311,180.582,180.582,0,0,1-26.58-17.264A139.453,139.453,0,0,1,351.2,532.643c-1.693-2.087-3.252-4.28-4.884-6.416-.829-1.059-1.523-2.214-2.267-3.334l-2.2-3.376c-.757-1.111-1.428-2.277-2.1-3.442l-2-3.5c-.685-1.155-1.28-2.362-1.874-3.569l-1.8-3.609c-.623-1.19-1.093-2.458-1.624-3.691l-1.556-3.719c-.5-1.247-.9-2.537-1.341-3.806-.408-1.283-.913-2.526-1.24-3.835a62.692,62.692,0,0,1-2.631-15.854l.459-.036c1.963,10.412,6.063,20.161,11.031,29.393l1.9,3.445c.626,1.15,1.252,2.3,1.969,3.4l2.066,3.345c.673,1.123,1.348,2.246,2.108,3.315,1.5,2.15,2.9,4.368,4.472,6.462s3.091,4.233,4.693,6.307a163.3,163.3,0,0,0,21.239,23.268,108.24,108.24,0,0,0,26.466,17.163l.227.1.174.269c.04.061.083.119.122.18,1.375-1.29,2.99-.969,4.518-.516a8.032,8.032,0,0,1,3.251,1.8c4.321,4.225,8.551,8.549,12.762,12.886a4.445,4.445,0,0,1,.9,1.925c.662,2.533,1.31,5.074,1.992,7.777l.013.01a50.507,50.507,0,0,1,5.2,4.86,41.71,41.71,0,0,1,4.48,5.678,28.529,28.529,0,0,1,1.827,3.225,19.172,19.172,0,0,1,1.283,3.373,35.459,35.459,0,0,0,5.737,9.283,42.038,42.038,0,0,0,8.163,7.471,50.885,50.885,0,0,0,20.515,8.608,44.392,44.392,0,0,0,22.265-1.474,38.519,38.519,0,0,0,18.25-13.4l.385.253A37.12,37.12,0,0,1,496.557,638.69Zm45.484-97.751-1.066-2.349.96-.43,1.028,2.363Zm4.218,27.48-1.182-.145.628-5.032C547.229,565.992,547.229,565.992,546.26,568.42Zm1.871-15.513q-1.859-3.221-3.723-6.442l.875-.67h0c1.335,2.137,3.934,3.531,4.032,6.4Zm6.476-160.988c-2.711,3.922-6.746,6.838-8.475,11.559a2.942,2.942,0,0,1-5.649-1.314c-.492-8.535-.741-17.087-1.055-25.633-.033-1.048,0-2.085,0-4.391-1.245,1.753-2.167,2.53-2.4,3.476-.951,3.985-1.64,8.031-2.536,12.03-.417,1.844-1.08,3.625-1.729,5.764-2.844-1.064-4.174-2.938-3.677-5.061.8-3.43-.918-4.951-3.838-6.2.3-1.884.159-3.827.922-5.3a17.959,17.959,0,0,0,1.908-10.309c-.107-1.182.862-2.477,1.409-3.689.271-.6,1.036-1.164,1-1.706-.335-4.992,3.557-6.9,6.876-8.637,3.232-1.7,7.042-2.291,10.593-3.388,2.1-.655,4.2-1.337,6.879-2.19v0c.055.1.584.587.526,1.025-.618,5.177,2.88,7.718,6.463,10.177,1.915,1.313,4,2.374,5.871,3.747,2.9,2.136,5.546,4.533,5.866,8.834C565.706,376.316,560.062,384.037,554.607,391.919Zm17.766,58.973,1.417-4.565,1.231.6Q573.693,448.9,572.373,450.892Zm28.375,6.268L580.431,431l-6.708,6.014c1.148-6.15,2.21-11.833,3.265-17.476-.083-.036.347.026.394.195,2.8,9.968,11.079,15.783,17.205,23.73,3.768-4.416,4.577-9.315,6.11-13.926l-.9-.692-1.614,3.289-1.012-.746a22.448,22.448,0,0,1,4.1-9.31c.475-.613,2.189-.259,3.717-.383a15.639,15.639,0,0,1-.372,3.526c-2.219,5.849-4.375,11.728-6.886,17.452-1.521,3.466-.969,6.116,2.006,8.894,6.626-8.758,7.983-20.41,16.344-28.769C616.453,428.057,606.911,448.708,600.747,457.16Zm41.8-71.737c-1.614,5.691-4.91,9.836-10.836,11.565-6.415,1.872-12.843,3.122-19.465,1.162a27.768,27.768,0,0,1-3.088-1.343c1.442-2.45,3.664-1.514,5.4-1.771,4.364-.642,4.71-1.34,1.944-5.56l3.242-3.458-2.882-1.908c.777-.36,1.552-.725,2.792-1.307l-2.734-2.4c3.173-1.321,7-1.912,9.245-4.129s7.891-2.385,5.325-8.4l8.97-.432c.5,3.715-3.679,2.882-4.165,5.533l4.847.723c-2.367,3.523-6.489,1.182-9.68,4.221,2.607.242,4.264.435,5.937.549C642.371,378.8,643.877,380.742,642.549,385.423Zm12.729,6.275-.506-.009v-5.667l.506.009Z" transform="translate(155.791 -120.948)" fill="#1762a0"/>
      <path id="Path_2584" data-name="Path 2584" d="M527.118,343.868l0,0h0Z" transform="translate(260.131 -86.889)" fill="#1762a0"/>
    </g>
  </g>
</svg>
