<svg xmlns="http://www.w3.org/2000/svg" width="808.8" height="621.93" viewBox="0 0 808.8 621.93">
  <g id="Group_804" data-name="Group 804" transform="translate(-3868.201 -3832.07)">
    <g id="Group_563" data-name="Group 563" transform="translate(-9506.859 6756)">
      <rect id="Rectangle_790" data-name="Rectangle 790" width="34.66" height="436" transform="translate(13493.5 -2865)" fill="#f5f5f5"/>
      <rect id="Rectangle_807" data-name="Rectangle 807" width="34.66" height="436" transform="translate(13769.5 -2865)" fill="#f5f5f5"/>
      <rect id="Rectangle_799" data-name="Rectangle 799" width="34.66" height="436" transform="translate(13631.5 -2865)" fill="#f5f5f5"/>
      <rect id="Rectangle_802" data-name="Rectangle 802" width="34.66" height="436" transform="translate(13907.5 -2865)" fill="#f5f5f5"/>
      <rect id="Rectangle_811" data-name="Rectangle 811" width="34.66" height="436" transform="translate(14114.5 -2865)" fill="#f5f5f5"/>
      <rect id="Rectangle_794" data-name="Rectangle 794" width="34.66" height="436" transform="translate(13562.5 -2865)" fill="#f5f5f5"/>
      <rect id="Rectangle_803" data-name="Rectangle 803" width="34.66" height="436" transform="translate(13838.5 -2865)" fill="#f5f5f5"/>
      <rect id="Rectangle_813" data-name="Rectangle 813" width="34.66" height="436" transform="translate(14045.5 -2865)" fill="#f5f5f5"/>
      <rect id="Rectangle_797" data-name="Rectangle 797" width="34.66" height="436" transform="translate(13700.5 -2865)" fill="#f5f5f5"/>
      <rect id="Rectangle_801" data-name="Rectangle 801" width="34.66" height="436" transform="translate(13976.5 -2865)" fill="#f5f5f5"/>
      <rect id="Rectangle_793" data-name="Rectangle 793" width="34.66" height="436" transform="translate(13528.2 -2865)" fill="#efefef"/>
      <rect id="Rectangle_804" data-name="Rectangle 804" width="34.66" height="436" transform="translate(13804.2 -2865)" fill="#efefef"/>
      <rect id="Rectangle_798" data-name="Rectangle 798" width="34.66" height="436" transform="translate(13666.2 -2865)" fill="#efefef"/>
      <rect id="Rectangle_805" data-name="Rectangle 805" width="34.66" height="436" transform="translate(13942.2 -2865)" fill="#efefef"/>
      <rect id="Rectangle_810" data-name="Rectangle 810" width="34.66" height="436" transform="translate(14149.2 -2865)" fill="#efefef"/>
      <rect id="Rectangle_795" data-name="Rectangle 795" width="34.66" height="436" transform="translate(13597.2 -2865)" fill="#efefef"/>
      <rect id="Rectangle_806" data-name="Rectangle 806" width="34.66" height="436" transform="translate(13873.2 -2865)" fill="#efefef"/>
      <rect id="Rectangle_812" data-name="Rectangle 812" width="34.66" height="436" transform="translate(14080.2 -2865)" fill="#efefef"/>
      <rect id="Rectangle_796" data-name="Rectangle 796" width="34.66" height="436" transform="translate(13735.2 -2865)" fill="#efefef"/>
      <rect id="Rectangle_800" data-name="Rectangle 800" width="34.66" height="436" transform="translate(14011.2 -2865)" fill="#efefef"/>
    </g>
    <g id="Group_546" data-name="Group 546" transform="translate(4004.42 4096.852)">
      <g id="Group_545" data-name="Group 545">
        <line id="Line_344" data-name="Line 344" x1="34.652" y2="8.712" transform="translate(0 115.213)" fill="none" stroke="#bf1d1d" stroke-linecap="round" stroke-miterlimit="10" stroke-width="3"/>
        <line id="Line_345" data-name="Line 345" x1="34.652" y2="5.026" transform="translate(34.652 110.188)" fill="none" stroke="#bf1d1d" stroke-linecap="round" stroke-miterlimit="10" stroke-width="3"/>
        <line id="Line_346" data-name="Line 346" x1="34.652" y2="5.84" transform="translate(69.305 104.348)" fill="none" stroke="#bf1d1d" stroke-linecap="round" stroke-miterlimit="10" stroke-width="3"/>
        <line id="Line_347" data-name="Line 347" x1="34.652" y2="6.097" transform="translate(103.957 98.251)" fill="none" stroke="#bf1d1d" stroke-linecap="round" stroke-miterlimit="10" stroke-width="3"/>
        <line id="Line_348" data-name="Line 348" x1="34.652" y2="7.94" transform="translate(138.609 90.31)" fill="none" stroke="#bf1d1d" stroke-linecap="round" stroke-miterlimit="10" stroke-width="3"/>
        <line id="Line_349" data-name="Line 349" x1="34.652" y2="9.569" transform="translate(173.262 80.742)" fill="none" stroke="#bf1d1d" stroke-linecap="round" stroke-miterlimit="10" stroke-width="3"/>
        <line id="Line_350" data-name="Line 350" x1="34.652" y2="8.261" transform="translate(207.914 72.481)" fill="none" stroke="#bf1d1d" stroke-linecap="round" stroke-miterlimit="10" stroke-width="3"/>
        <line id="Line_351" data-name="Line 351" x1="34.652" y2="8.58" transform="translate(242.567 63.901)" fill="none" stroke="#bf1d1d" stroke-linecap="round" stroke-miterlimit="10" stroke-width="3"/>
        <line id="Line_352" data-name="Line 352" x1="34.652" y2="1.032" transform="translate(277.219 62.869)" fill="none" stroke="#bf1d1d" stroke-linecap="round" stroke-miterlimit="10" stroke-width="3"/>
        <line id="Line_353" data-name="Line 353" x1="34.652" y1="1.034" transform="translate(311.871 62.869)" fill="none" stroke="#bf1d1d" stroke-linecap="round" stroke-miterlimit="10" stroke-width="3"/>
        <line id="Line_354" data-name="Line 354" x1="34.652" y2="3.666" transform="translate(346.524 60.237)" fill="none" stroke="#bf1d1d" stroke-linecap="round" stroke-miterlimit="10" stroke-width="3"/>
        <line id="Line_355" data-name="Line 355" x1="34.652" y2="4.641" transform="translate(381.176 55.596)" fill="none" stroke="#bf1d1d" stroke-linecap="round" stroke-miterlimit="10" stroke-width="3"/>
        <line id="Line_356" data-name="Line 356" x1="34.652" y2="5.961" transform="translate(415.828 49.635)" fill="none" stroke="#bf1d1d" stroke-linecap="round" stroke-miterlimit="10" stroke-width="3"/>
        <line id="Line_357" data-name="Line 357" x1="34.652" y2="7.542" transform="translate(450.481 42.093)" fill="none" stroke="#bf1d1d" stroke-linecap="round" stroke-miterlimit="10" stroke-width="3"/>
        <line id="Line_358" data-name="Line 358" x1="34.652" y2="6.231" transform="translate(485.133 35.862)" fill="none" stroke="#bf1d1d" stroke-linecap="round" stroke-miterlimit="10" stroke-width="3"/>
        <line id="Line_359" data-name="Line 359" x1="34.652" y2="7.605" transform="translate(519.785 28.257)" fill="none" stroke="#bf1d1d" stroke-linecap="round" stroke-miterlimit="10" stroke-width="3"/>
        <line id="Line_360" data-name="Line 360" x1="34.652" y2="9.333" transform="translate(554.438 18.924)" fill="none" stroke="#bf1d1d" stroke-linecap="round" stroke-miterlimit="10" stroke-width="3"/>
        <line id="Line_361" data-name="Line 361" x1="34.652" y2="9.32" transform="translate(589.09 9.604)" fill="none" stroke="#bf1d1d" stroke-linecap="round" stroke-miterlimit="10" stroke-width="3"/>
        <line id="Line_362" data-name="Line 362" x1="34.652" y2="9.604" transform="translate(623.743)" fill="none" stroke="#bf1d1d" stroke-linecap="round" stroke-miterlimit="10" stroke-width="3"/>
      </g>
    </g>
    <g id="Group_548" data-name="Group 548" transform="translate(4004.42 4217.018)">
      <g id="Group_547" data-name="Group 547">
        <line id="Line_363" data-name="Line 363" x1="34.652" y2="0.196" transform="translate(0 3.563)" fill="none" stroke="#7d0407" stroke-linecap="round" stroke-miterlimit="10" stroke-width="3"/>
        <line id="Line_364" data-name="Line 364" x1="34.652" y2="0.196" transform="translate(34.652 3.366)" fill="none" stroke="#7d0407" stroke-linecap="round" stroke-miterlimit="10" stroke-width="3"/>
        <line id="Line_365" data-name="Line 365" x1="34.652" y2="0.196" transform="translate(69.305 3.17)" fill="none" stroke="#7d0407" stroke-linecap="round" stroke-miterlimit="10" stroke-width="3"/>
        <line id="Line_366" data-name="Line 366" x1="34.652" y2="0.197" transform="translate(103.957 2.973)" fill="none" stroke="#7d0407" stroke-linecap="round" stroke-miterlimit="10" stroke-width="3"/>
        <line id="Line_367" data-name="Line 367" x1="34.652" y2="0.197" transform="translate(138.609 2.776)" fill="none" stroke="#7d0407" stroke-linecap="round" stroke-miterlimit="10" stroke-width="3"/>
        <line id="Line_368" data-name="Line 368" x1="34.652" y2="0.197" transform="translate(173.262 2.579)" fill="none" stroke="#7d0407" stroke-linecap="round" stroke-miterlimit="10" stroke-width="3"/>
        <line id="Line_369" data-name="Line 369" x1="34.652" y2="0.197" transform="translate(207.914 2.382)" fill="none" stroke="#7d0407" stroke-linecap="round" stroke-miterlimit="10" stroke-width="3"/>
        <line id="Line_370" data-name="Line 370" x1="34.652" y2="0.198" transform="translate(242.567 2.184)" fill="none" stroke="#7d0407" stroke-linecap="round" stroke-miterlimit="10" stroke-width="3"/>
        <line id="Line_371" data-name="Line 371" x1="34.652" y2="0.198" transform="translate(277.219 1.986)" fill="none" stroke="#7d0407" stroke-linecap="round" stroke-miterlimit="10" stroke-width="3"/>
        <line id="Line_372" data-name="Line 372" x1="34.652" y2="0.198" transform="translate(311.871 1.788)" fill="none" stroke="#7d0407" stroke-linecap="round" stroke-miterlimit="10" stroke-width="3"/>
        <line id="Line_373" data-name="Line 373" x1="34.652" y2="0.198" transform="translate(346.524 1.59)" fill="none" stroke="#7d0407" stroke-linecap="round" stroke-miterlimit="10" stroke-width="3"/>
        <line id="Line_374" data-name="Line 374" x1="34.652" y2="0.198" transform="translate(381.176 1.392)" fill="none" stroke="#7d0407" stroke-linecap="round" stroke-miterlimit="10" stroke-width="3"/>
        <line id="Line_375" data-name="Line 375" x1="34.652" y2="0.198" transform="translate(415.828 1.194)" fill="none" stroke="#7d0407" stroke-linecap="round" stroke-miterlimit="10" stroke-width="3"/>
        <line id="Line_376" data-name="Line 376" x1="34.652" y2="0.199" transform="translate(450.481 0.995)" fill="none" stroke="#7d0407" stroke-linecap="round" stroke-miterlimit="10" stroke-width="3"/>
        <line id="Line_377" data-name="Line 377" x1="34.652" y2="0.199" transform="translate(485.133 0.797)" fill="none" stroke="#7d0407" stroke-linecap="round" stroke-miterlimit="10" stroke-width="3"/>
        <line id="Line_378" data-name="Line 378" x1="34.652" y2="0.199" transform="translate(519.785 0.598)" fill="none" stroke="#7d0407" stroke-linecap="round" stroke-miterlimit="10" stroke-width="3"/>
        <line id="Line_379" data-name="Line 379" x1="34.652" y2="0.199" transform="translate(554.438 0.399)" fill="none" stroke="#7d0407" stroke-linecap="round" stroke-miterlimit="10" stroke-width="3"/>
        <line id="Line_380" data-name="Line 380" x1="34.652" y2="0.199" transform="translate(589.09 0.199)" fill="none" stroke="#7d0407" stroke-linecap="round" stroke-miterlimit="10" stroke-width="3"/>
        <line id="Line_381" data-name="Line 381" x1="34.652" y2="0.199" transform="translate(623.743)" fill="none" stroke="#7d0407" stroke-linecap="round" stroke-miterlimit="10" stroke-width="3"/>
      </g>
    </g>
    <g id="Group_550" data-name="Group 550" transform="translate(4004.42 3993.724)">
      <g id="Group_549" data-name="Group 549">
        <line id="Line_382" data-name="Line 382" x1="34.652" y1="35.85" transform="translate(0 227.052)" fill="none" stroke="#1762a0" stroke-linecap="round" stroke-miterlimit="10" stroke-width="3"/>
        <line id="Line_383" data-name="Line 383" x1="34.652" y1="30.348" transform="translate(34.652 262.902)" fill="none" stroke="#1762a0" stroke-linecap="round" stroke-miterlimit="10" stroke-width="3"/>
        <line id="Line_384" data-name="Line 384" x1="34.652" y1="4.385" transform="translate(69.305 293.25)" fill="none" stroke="#1762a0" stroke-linecap="round" stroke-miterlimit="10" stroke-width="3"/>
        <line id="Line_385" data-name="Line 385" x1="34.652" y2="25.273" transform="translate(103.957 272.362)" fill="none" stroke="#1762a0" stroke-linecap="round" stroke-miterlimit="10" stroke-width="3"/>
        <line id="Line_386" data-name="Line 386" x1="34.652" y2="11.7" transform="translate(138.609 260.663)" fill="none" stroke="#1762a0" stroke-linecap="round" stroke-miterlimit="10" stroke-width="3"/>
        <line id="Line_387" data-name="Line 387" x1="34.652" y2="15.772" transform="translate(173.262 244.891)" fill="none" stroke="#1762a0" stroke-linecap="round" stroke-miterlimit="10" stroke-width="3"/>
        <line id="Line_388" data-name="Line 388" x1="34.652" y2="25.471" transform="translate(207.914 219.42)" fill="none" stroke="#1762a0" stroke-linecap="round" stroke-miterlimit="10" stroke-width="3"/>
        <line id="Line_389" data-name="Line 389" x1="34.652" y1="39.286" transform="translate(242.567 219.42)" fill="none" stroke="#1762a0" stroke-linecap="round" stroke-miterlimit="10" stroke-width="3"/>
        <line id="Line_390" data-name="Line 390" x1="34.652" y1="41.555" transform="translate(277.219 258.705)" fill="none" stroke="#1762a0" stroke-linecap="round" stroke-miterlimit="10" stroke-width="3"/>
        <line id="Line_391" data-name="Line 391" x1="34.652" y2="29.322" transform="translate(311.871 270.938)" fill="none" stroke="#1762a0" stroke-linecap="round" stroke-miterlimit="10" stroke-width="3"/>
        <line id="Line_392" data-name="Line 392" x1="34.652" y2="19.505" transform="translate(346.524 251.433)" fill="none" stroke="#1762a0" stroke-linecap="round" stroke-miterlimit="10" stroke-width="3"/>
        <line id="Line_393" data-name="Line 393" x1="34.652" y2="17.107" transform="translate(381.176 234.326)" fill="none" stroke="#1762a0" stroke-linecap="round" stroke-miterlimit="10" stroke-width="3"/>
        <line id="Line_394" data-name="Line 394" x1="34.652" y2="40.363" transform="translate(415.828 193.963)" fill="none" stroke="#1762a0" stroke-linecap="round" stroke-miterlimit="10" stroke-width="3"/>
        <line id="Line_395" data-name="Line 395" x1="34.652" y2="43.936" transform="translate(450.481 150.027)" fill="none" stroke="#1762a0" stroke-linecap="round" stroke-miterlimit="10" stroke-width="3"/>
        <line id="Line_396" data-name="Line 396" x1="34.652" y2="19.814" transform="translate(485.133 130.213)" fill="none" stroke="#1762a0" stroke-linecap="round" stroke-miterlimit="10" stroke-width="3"/>
        <line id="Line_397" data-name="Line 397" x1="34.652" y2="5.13" transform="translate(519.785 125.083)" fill="none" stroke="#1762a0" stroke-linecap="round" stroke-miterlimit="10" stroke-width="3"/>
        <line id="Line_398" data-name="Line 398" x1="34.652" y2="54.15" transform="translate(554.438 70.933)" fill="none" stroke="#1762a0" stroke-linecap="round" stroke-miterlimit="10" stroke-width="3"/>
        <line id="Line_399" data-name="Line 399" x1="34.652" y2="45.396" transform="translate(589.09 25.537)" fill="none" stroke="#1762a0" stroke-linecap="round" stroke-miterlimit="10" stroke-width="3"/>
        <line id="Line_400" data-name="Line 400" x1="34.652" y2="25.537" transform="translate(623.743)" fill="none" stroke="#1762a0" stroke-linecap="round" stroke-miterlimit="10" stroke-width="3"/>
      </g>
    </g>
    <g id="Group_558" data-name="Group 558" transform="translate(4003.769 3993.073)">
      <g id="Group_553" data-name="Group 553" transform="translate(0 103.127)">
        <g id="Group_552" data-name="Group 552">
          <rect id="Rectangle_669" data-name="Rectangle 669" width="1.302" height="1.302" transform="translate(0 123.925)" fill="gray" stroke="#000" stroke-miterlimit="10" stroke-width="0.5"/>
          <rect id="Rectangle_670" data-name="Rectangle 670" width="1.302" height="1.302" transform="translate(34.652 115.213)" fill="gray" stroke="#000" stroke-miterlimit="10" stroke-width="0.5"/>
          <rect id="Rectangle_671" data-name="Rectangle 671" width="1.302" height="1.302" transform="translate(69.305 110.188)" fill="gray" stroke="#000" stroke-miterlimit="10" stroke-width="0.5"/>
          <rect id="Rectangle_672" data-name="Rectangle 672" width="1.302" height="1.302" transform="translate(103.957 104.348)" fill="gray" stroke="#000" stroke-miterlimit="10" stroke-width="0.5"/>
          <rect id="Rectangle_673" data-name="Rectangle 673" width="1.302" height="1.302" transform="translate(138.609 98.251)" fill="gray" stroke="#000" stroke-miterlimit="10" stroke-width="0.5"/>
          <rect id="Rectangle_674" data-name="Rectangle 674" width="1.302" height="1.302" transform="translate(173.262 90.31)" fill="gray" stroke="#000" stroke-miterlimit="10" stroke-width="0.5"/>
          <rect id="Rectangle_675" data-name="Rectangle 675" width="1.302" height="1.302" transform="translate(207.914 80.742)" fill="gray" stroke="#000" stroke-miterlimit="10" stroke-width="0.5"/>
          <rect id="Rectangle_676" data-name="Rectangle 676" width="1.302" height="1.302" transform="translate(242.567 72.481)" fill="gray" stroke="#000" stroke-miterlimit="10" stroke-width="0.5"/>
          <rect id="Rectangle_677" data-name="Rectangle 677" width="1.302" height="1.302" transform="translate(277.219 63.901)" fill="gray" stroke="#000" stroke-miterlimit="10" stroke-width="0.5"/>
          <rect id="Rectangle_678" data-name="Rectangle 678" width="1.302" height="1.302" transform="translate(311.871 62.869)" fill="gray" stroke="#000" stroke-miterlimit="10" stroke-width="0.5"/>
          <rect id="Rectangle_679" data-name="Rectangle 679" width="1.302" height="1.302" transform="translate(346.524 63.903)" fill="gray" stroke="#000" stroke-miterlimit="10" stroke-width="0.5"/>
          <rect id="Rectangle_680" data-name="Rectangle 680" width="1.302" height="1.302" transform="translate(381.176 60.237)" fill="gray" stroke="#000" stroke-miterlimit="10" stroke-width="0.5"/>
          <rect id="Rectangle_681" data-name="Rectangle 681" width="1.302" height="1.302" transform="translate(415.828 55.596)" fill="gray" stroke="#000" stroke-miterlimit="10" stroke-width="0.5"/>
          <rect id="Rectangle_682" data-name="Rectangle 682" width="1.302" height="1.302" transform="translate(450.481 49.635)" fill="gray" stroke="#000" stroke-miterlimit="10" stroke-width="0.5"/>
          <rect id="Rectangle_683" data-name="Rectangle 683" width="1.302" height="1.302" transform="translate(485.133 42.093)" fill="gray" stroke="#000" stroke-miterlimit="10" stroke-width="0.5"/>
          <rect id="Rectangle_684" data-name="Rectangle 684" width="1.302" height="1.302" transform="translate(519.785 35.862)" fill="gray" stroke="#000" stroke-miterlimit="10" stroke-width="0.5"/>
          <rect id="Rectangle_685" data-name="Rectangle 685" width="1.302" height="1.302" transform="translate(554.438 28.257)" fill="gray" stroke="#000" stroke-miterlimit="10" stroke-width="0.5"/>
          <rect id="Rectangle_686" data-name="Rectangle 686" width="1.302" height="1.302" transform="translate(589.09 18.924)" fill="gray" stroke="#000" stroke-miterlimit="10" stroke-width="0.5"/>
          <rect id="Rectangle_687" data-name="Rectangle 687" width="1.302" height="1.302" transform="translate(623.743 9.604)" fill="gray" stroke="#000" stroke-miterlimit="10" stroke-width="0.5"/>
          <rect id="Rectangle_688" data-name="Rectangle 688" width="1.302" height="1.302" transform="translate(658.395)" fill="gray" stroke="#000" stroke-miterlimit="10" stroke-width="0.5"/>
        </g>
      </g>
      <g id="Group_555" data-name="Group 555" transform="translate(0 223.294)">
        <g id="Group_554" data-name="Group 554">
          <rect id="Rectangle_689" data-name="Rectangle 689" width="1.302" height="1.302" transform="translate(0 3.759)" fill="#dfdfdf" stroke="#000" stroke-miterlimit="10" stroke-width="0.5"/>
          <rect id="Rectangle_690" data-name="Rectangle 690" width="1.302" height="1.302" transform="translate(34.652 3.563)" fill="#dfdfdf" stroke="#000" stroke-miterlimit="10" stroke-width="0.5"/>
          <rect id="Rectangle_691" data-name="Rectangle 691" width="1.302" height="1.302" transform="translate(69.305 3.366)" fill="#dfdfdf" stroke="#000" stroke-miterlimit="10" stroke-width="0.5"/>
          <rect id="Rectangle_692" data-name="Rectangle 692" width="1.302" height="1.302" transform="translate(103.957 3.17)" fill="#dfdfdf" stroke="#000" stroke-miterlimit="10" stroke-width="0.5"/>
          <rect id="Rectangle_693" data-name="Rectangle 693" width="1.302" height="1.302" transform="translate(138.609 2.973)" fill="#dfdfdf" stroke="#000" stroke-miterlimit="10" stroke-width="0.5"/>
          <rect id="Rectangle_694" data-name="Rectangle 694" width="1.302" height="1.302" transform="translate(173.262 2.776)" fill="#dfdfdf" stroke="#000" stroke-miterlimit="10" stroke-width="0.5"/>
          <rect id="Rectangle_695" data-name="Rectangle 695" width="1.302" height="1.302" transform="translate(207.914 2.579)" fill="#dfdfdf" stroke="#000" stroke-miterlimit="10" stroke-width="0.5"/>
          <rect id="Rectangle_696" data-name="Rectangle 696" width="1.302" height="1.302" transform="translate(242.567 2.382)" fill="#dfdfdf" stroke="#000" stroke-miterlimit="10" stroke-width="0.5"/>
          <rect id="Rectangle_697" data-name="Rectangle 697" width="1.302" height="1.302" transform="translate(277.219 2.184)" fill="#dfdfdf" stroke="#000" stroke-miterlimit="10" stroke-width="0.5"/>
          <rect id="Rectangle_698" data-name="Rectangle 698" width="1.302" height="1.302" transform="translate(311.871 1.986)" fill="#dfdfdf" stroke="#000" stroke-miterlimit="10" stroke-width="0.5"/>
          <rect id="Rectangle_699" data-name="Rectangle 699" width="1.302" height="1.302" transform="translate(346.524 1.788)" fill="#dfdfdf" stroke="#000" stroke-miterlimit="10" stroke-width="0.5"/>
          <rect id="Rectangle_700" data-name="Rectangle 700" width="1.302" height="1.302" transform="translate(381.176 1.59)" fill="#dfdfdf" stroke="#000" stroke-miterlimit="10" stroke-width="0.5"/>
          <rect id="Rectangle_701" data-name="Rectangle 701" width="1.302" height="1.302" transform="translate(415.828 1.392)" fill="#dfdfdf" stroke="#000" stroke-miterlimit="10" stroke-width="0.5"/>
          <rect id="Rectangle_702" data-name="Rectangle 702" width="1.302" height="1.302" transform="translate(450.481 1.194)" fill="#dfdfdf" stroke="#000" stroke-miterlimit="10" stroke-width="0.5"/>
          <rect id="Rectangle_703" data-name="Rectangle 703" width="1.302" height="1.302" transform="translate(485.133 0.995)" fill="#dfdfdf" stroke="#000" stroke-miterlimit="10" stroke-width="0.5"/>
          <rect id="Rectangle_704" data-name="Rectangle 704" width="1.302" height="1.302" transform="translate(519.785 0.797)" fill="#dfdfdf" stroke="#000" stroke-miterlimit="10" stroke-width="0.5"/>
          <rect id="Rectangle_705" data-name="Rectangle 705" width="1.302" height="1.302" transform="translate(554.438 0.598)" fill="#dfdfdf" stroke="#000" stroke-miterlimit="10" stroke-width="0.5"/>
          <rect id="Rectangle_706" data-name="Rectangle 706" width="1.302" height="1.302" transform="translate(589.09 0.399)" fill="#dfdfdf" stroke="#000" stroke-miterlimit="10" stroke-width="0.5"/>
          <rect id="Rectangle_707" data-name="Rectangle 707" width="1.302" height="1.302" transform="translate(623.743 0.199)" fill="#dfdfdf" stroke="#000" stroke-miterlimit="10" stroke-width="0.5"/>
          <rect id="Rectangle_708" data-name="Rectangle 708" width="1.302" height="1.302" transform="translate(658.395)" fill="#dfdfdf" stroke="#000" stroke-miterlimit="10" stroke-width="0.5"/>
        </g>
      </g>
      <g id="Group_557" data-name="Group 557" transform="translate(0 0)">
        <g id="Group_556" data-name="Group 556">
          <rect id="Rectangle_709" data-name="Rectangle 709" width="1.302" height="1.302" transform="translate(0 227.052)" stroke="#000" stroke-miterlimit="10" stroke-width="0.5"/>
          <rect id="Rectangle_710" data-name="Rectangle 710" width="1.302" height="1.302" transform="translate(34.652 262.902)" stroke="#000" stroke-miterlimit="10" stroke-width="0.5"/>
          <rect id="Rectangle_711" data-name="Rectangle 711" width="1.302" height="1.302" transform="translate(69.305 293.25)" stroke="#000" stroke-miterlimit="10" stroke-width="0.5"/>
          <rect id="Rectangle_712" data-name="Rectangle 712" width="1.302" height="1.302" transform="translate(103.957 297.635)" stroke="#000" stroke-miterlimit="10" stroke-width="0.5"/>
          <rect id="Rectangle_713" data-name="Rectangle 713" width="1.302" height="1.302" transform="translate(138.609 272.362)" stroke="#000" stroke-miterlimit="10" stroke-width="0.5"/>
          <rect id="Rectangle_714" data-name="Rectangle 714" width="1.302" height="1.302" transform="translate(173.262 260.663)" stroke="#000" stroke-miterlimit="10" stroke-width="0.5"/>
          <rect id="Rectangle_715" data-name="Rectangle 715" width="1.302" height="1.302" transform="translate(207.914 244.891)" stroke="#000" stroke-miterlimit="10" stroke-width="0.5"/>
          <rect id="Rectangle_716" data-name="Rectangle 716" width="1.302" height="1.302" transform="translate(242.567 219.42)" stroke="#000" stroke-miterlimit="10" stroke-width="0.5"/>
          <rect id="Rectangle_717" data-name="Rectangle 717" width="1.302" height="1.302" transform="translate(277.219 258.705)" stroke="#000" stroke-miterlimit="10" stroke-width="0.5"/>
          <rect id="Rectangle_718" data-name="Rectangle 718" width="1.302" height="1.302" transform="translate(311.871 300.26)" stroke="#000" stroke-miterlimit="10" stroke-width="0.5"/>
          <rect id="Rectangle_719" data-name="Rectangle 719" width="1.302" height="1.302" transform="translate(346.524 270.938)" stroke="#000" stroke-miterlimit="10" stroke-width="0.5"/>
          <rect id="Rectangle_720" data-name="Rectangle 720" width="1.302" height="1.302" transform="translate(381.176 251.433)" stroke="#000" stroke-miterlimit="10" stroke-width="0.5"/>
          <rect id="Rectangle_721" data-name="Rectangle 721" width="1.302" height="1.302" transform="translate(415.828 234.326)" stroke="#000" stroke-miterlimit="10" stroke-width="0.5"/>
          <rect id="Rectangle_722" data-name="Rectangle 722" width="1.302" height="1.302" transform="translate(450.481 193.963)" stroke="#000" stroke-miterlimit="10" stroke-width="0.5"/>
          <rect id="Rectangle_723" data-name="Rectangle 723" width="1.302" height="1.302" transform="translate(485.133 150.027)" stroke="#000" stroke-miterlimit="10" stroke-width="0.5"/>
          <rect id="Rectangle_724" data-name="Rectangle 724" width="1.302" height="1.302" transform="translate(519.785 130.213)" stroke="#000" stroke-miterlimit="10" stroke-width="0.5"/>
          <rect id="Rectangle_725" data-name="Rectangle 725" width="1.302" height="1.302" transform="translate(554.438 125.083)" stroke="#000" stroke-miterlimit="10" stroke-width="0.5"/>
          <rect id="Rectangle_726" data-name="Rectangle 726" width="1.302" height="1.302" transform="translate(589.09 70.933)" stroke="#000" stroke-miterlimit="10" stroke-width="0.5"/>
          <rect id="Rectangle_727" data-name="Rectangle 727" width="1.302" height="1.302" transform="translate(623.743 25.537)" stroke="#000" stroke-miterlimit="10" stroke-width="0.5"/>
          <rect id="Rectangle_728" data-name="Rectangle 728" width="1.302" height="1.302" transform="translate(658.395)" stroke="#000" stroke-miterlimit="10" stroke-width="0.5"/>
        </g>
      </g>
    </g>
    <g id="Group_560" data-name="Group 560" transform="translate(-9506.859 6759)">
      <rect id="Rectangle_729" data-name="Rectangle 729" width="6.443" height="6.443" rx="3" transform="translate(13508.246 -2541.918)" fill="#1762a0"/>
      <rect id="Rectangle_730" data-name="Rectangle 730" width="6.443" height="6.443" rx="3" transform="translate(13542.246 -2505.918)" fill="#1762a0"/>
      <rect id="Rectangle_731" data-name="Rectangle 731" width="6.443" height="6.443" rx="3" transform="translate(13577.246 -2475.918)" fill="#1762a0"/>
      <rect id="Rectangle_732" data-name="Rectangle 732" width="6.443" height="6.443" rx="3" transform="translate(13647.246 -2495.918)" fill="#1762a0"/>
      <rect id="Rectangle_733" data-name="Rectangle 733" width="6.443" height="6.443" rx="3" transform="translate(13612.246 -2470.918)" fill="#1762a0"/>
      <rect id="Rectangle_734" data-name="Rectangle 734" width="6.443" height="6.443" rx="3" transform="translate(13681.246 -2507.918)" fill="#1762a0"/>
      <rect id="Rectangle_735" data-name="Rectangle 735" width="6.443" height="6.443" rx="3" transform="translate(13715.246 -2523.918)" fill="#1762a0"/>
      <rect id="Rectangle_736" data-name="Rectangle 736" width="6.443" height="6.443" rx="3" transform="translate(13750.246 -2548.918)" fill="#1762a0"/>
      <rect id="Rectangle_737" data-name="Rectangle 737" width="6.443" height="6.443" rx="3" transform="translate(13785.246 -2509.918)" fill="#1762a0"/>
      <rect id="Rectangle_738" data-name="Rectangle 738" width="6.443" height="6.443" rx="3" transform="translate(13820.246 -2468.918)" fill="#1762a0"/>
      <rect id="Rectangle_739" data-name="Rectangle 739" width="6.443" height="6.443" rx="3" transform="translate(13855.246 -2497.918)" fill="#1762a0"/>
      <rect id="Rectangle_740" data-name="Rectangle 740" width="6.443" height="6.443" rx="3" transform="translate(13889.246 -2517.918)" fill="#1762a0"/>
      <rect id="Rectangle_741" data-name="Rectangle 741" width="6.443" height="6.443" rx="3" transform="translate(13924.246 -2534.918)" fill="#1762a0"/>
      <rect id="Rectangle_742" data-name="Rectangle 742" width="6.443" height="6.443" rx="3" transform="translate(13959.246 -2574.918)" fill="#1762a0"/>
      <rect id="Rectangle_743" data-name="Rectangle 743" width="6.443" height="6.443" rx="3" transform="translate(13993.246 -2617.918)" fill="#1762a0"/>
      <rect id="Rectangle_744" data-name="Rectangle 744" width="6.443" height="6.443" rx="3" transform="translate(14027.246 -2637.918)" fill="#1762a0"/>
      <rect id="Rectangle_745" data-name="Rectangle 745" width="6.443" height="6.443" rx="3" transform="translate(14062.246 -2643.918)" fill="#1762a0"/>
      <rect id="Rectangle_746" data-name="Rectangle 746" width="6.443" height="6.443" rx="3" transform="translate(14097.246 -2697.918)" fill="#1762a0"/>
      <rect id="Rectangle_747" data-name="Rectangle 747" width="6.443" height="6.443" rx="3" transform="translate(14132.246 -2742.918)" fill="#1762a0"/>
      <rect id="Rectangle_748" data-name="Rectangle 748" width="6.443" height="6.443" rx="3" transform="translate(14166.246 -2768.918)" fill="#1762a0"/>
    </g>
    <g id="Group_561" data-name="Group 561" transform="translate(-9506.859 6759)">
      <rect id="Rectangle_749" data-name="Rectangle 749" width="6.443" height="6.443" rx="3" transform="translate(13750.246 -2592.918)" fill="#bf1d1d"/>
      <rect id="Rectangle_757" data-name="Rectangle 757" width="6.443" height="6.443" rx="3" transform="translate(13785.246 -2601.918)" fill="#bf1d1d"/>
      <rect id="Rectangle_758" data-name="Rectangle 758" width="6.443" height="6.443" rx="3" transform="translate(13819.246 -2602.918)" fill="#bf1d1d"/>
      <rect id="Rectangle_759" data-name="Rectangle 759" width="6.443" height="6.443" rx="3" transform="translate(13854.246 -2601.918)" fill="#bf1d1d"/>
      <rect id="Rectangle_760" data-name="Rectangle 760" width="6.443" height="6.443" rx="3" transform="translate(13889.246 -2604.918)" fill="#bf1d1d"/>
      <rect id="Rectangle_761" data-name="Rectangle 761" width="6.443" height="6.443" rx="3" transform="translate(13923.246 -2609.918)" fill="#bf1d1d"/>
      <rect id="Rectangle_762" data-name="Rectangle 762" width="6.443" height="6.443" rx="3" transform="translate(13958.246 -2615.918)" fill="#bf1d1d"/>
      <rect id="Rectangle_763" data-name="Rectangle 763" width="6.443" height="6.443" rx="3" transform="translate(13993.246 -2623.918)" fill="#bf1d1d"/>
      <rect id="Rectangle_764" data-name="Rectangle 764" width="6.443" height="6.443" rx="3" transform="translate(14028.246 -2629.918)" fill="#bf1d1d"/>
      <rect id="Rectangle_765" data-name="Rectangle 765" width="6.443" height="6.443" rx="3" transform="translate(14062.246 -2636.918)" fill="#bf1d1d"/>
      <rect id="Rectangle_766" data-name="Rectangle 766" width="6.443" height="6.443" rx="3" transform="translate(14097.246 -2646.918)" fill="#bf1d1d"/>
      <rect id="Rectangle_767" data-name="Rectangle 767" width="6.443" height="6.443" rx="3" transform="translate(14131.246 -2655.918)" fill="#bf1d1d"/>
      <rect id="Rectangle_768" data-name="Rectangle 768" width="6.443" height="6.443" rx="3" transform="translate(14166.246 -2665.918)" fill="#bf1d1d"/>
      <rect id="Rectangle_750" data-name="Rectangle 750" width="6.443" height="6.443" rx="3" transform="translate(13715.246 -2583.918)" fill="#bf1d1d"/>
      <rect id="Rectangle_751" data-name="Rectangle 751" width="6.443" height="6.443" rx="3" transform="translate(13646.246 -2566.918)" fill="#bf1d1d"/>
      <rect id="Rectangle_753" data-name="Rectangle 753" width="6.443" height="6.443" rx="3" transform="translate(13612.246 -2560.918)" fill="#bf1d1d"/>
      <rect id="Rectangle_754" data-name="Rectangle 754" width="6.443" height="6.443" rx="3" transform="translate(13577.246 -2554.918)" fill="#bf1d1d"/>
      <rect id="Rectangle_755" data-name="Rectangle 755" width="6.443" height="6.443" rx="3" transform="translate(13542.246 -2550.918)" fill="#bf1d1d"/>
      <rect id="Rectangle_756" data-name="Rectangle 756" width="6.443" height="6.443" rx="3" transform="translate(13508.246 -2541.918)" fill="#bf1d1d"/>
      <rect id="Rectangle_752" data-name="Rectangle 752" width="6.443" height="6.443" rx="3" transform="translate(13682.246 -2574.918)" fill="#bf1d1d"/>
    </g>
    <g id="Group_562" data-name="Group 562" transform="translate(-9506.859 6759)">
      <rect id="Rectangle_769" data-name="Rectangle 769" width="6.443" height="6.443" rx="3" transform="translate(13508.246 -2541.918)" fill="#7d0404"/>
      <rect id="Rectangle_770" data-name="Rectangle 770" width="6.443" height="6.443" rx="3" transform="translate(13543.246 -2541.918)" fill="#7d0404"/>
      <rect id="Rectangle_771" data-name="Rectangle 771" width="6.443" height="6.443" rx="3" transform="translate(13577.246 -2541.918)" fill="#7d0404"/>
      <rect id="Rectangle_774" data-name="Rectangle 774" width="6.443" height="6.443" rx="3" transform="translate(13647.246 -2541.918)" fill="#7d0404"/>
      <rect id="Rectangle_772" data-name="Rectangle 772" width="6.443" height="6.443" rx="3" transform="translate(13612.246 -2541.918)" fill="#7d0404"/>
      <rect id="Rectangle_773" data-name="Rectangle 773" width="6.443" height="6.443" rx="3" transform="translate(13682.246 -2541.918)" fill="#7d0404"/>
      <rect id="Rectangle_775" data-name="Rectangle 775" width="6.443" height="6.443" rx="3" transform="translate(13716.246 -2542.918)" fill="#7d0404"/>
      <rect id="Rectangle_776" data-name="Rectangle 776" width="6.443" height="6.443" rx="3" transform="translate(13751.246 -2542.918)" fill="#7d0404"/>
      <rect id="Rectangle_777" data-name="Rectangle 777" width="6.443" height="6.443" rx="3" transform="translate(13785.246 -2542.918)" fill="#7d0404"/>
      <rect id="Rectangle_778" data-name="Rectangle 778" width="6.443" height="6.443" rx="3" transform="translate(13820.246 -2542.918)" fill="#7d0404"/>
      <rect id="Rectangle_780" data-name="Rectangle 780" width="6.443" height="6.443" rx="3" transform="translate(13889.246 -2543.918)" fill="#7d0404"/>
      <rect id="Rectangle_782" data-name="Rectangle 782" width="6.443" height="6.443" rx="3" transform="translate(13923.246 -2543.918)" fill="#7d0404"/>
      <rect id="Rectangle_783" data-name="Rectangle 783" width="6.443" height="6.443" rx="3" transform="translate(13958.246 -2543.918)" fill="#7d0404"/>
      <rect id="Rectangle_784" data-name="Rectangle 784" width="6.443" height="6.443" rx="3" transform="translate(13993.246 -2543.918)" fill="#7d0404"/>
      <rect id="Rectangle_785" data-name="Rectangle 785" width="6.443" height="6.443" rx="3" transform="translate(14028.246 -2544.918)" fill="#7d0404"/>
      <rect id="Rectangle_786" data-name="Rectangle 786" width="6.443" height="6.443" rx="3" transform="translate(14062.246 -2544.918)" fill="#7d0404"/>
      <rect id="Rectangle_787" data-name="Rectangle 787" width="6.443" height="6.443" rx="3" transform="translate(14097.246 -2544.918)" fill="#7d0404"/>
      <rect id="Rectangle_788" data-name="Rectangle 788" width="6.443" height="6.443" rx="3" transform="translate(14131.246 -2544.918)" fill="#7d0404"/>
      <rect id="Rectangle_789" data-name="Rectangle 789" width="6.443" height="6.443" rx="3" transform="translate(14166.246 -2544.918)" fill="#7d0404"/>
      <rect id="Rectangle_781" data-name="Rectangle 781" width="6.443" height="6.443" rx="3" transform="translate(13854.246 -2543.918)" fill="#7d0404"/>
    </g>
    <path id="Path_3121" data-name="Path 3121" d="M4.955,9h4.95V7.5H6.865c.05-.92,2.93-1.35,2.93-3.58a2.231,2.231,0,0,0-2.44-2.19,2.757,2.757,0,0,0-2.52,1.54l1.3.87s.38-.76,1.06-.76a.706.706,0,0,1,.77.71c0,1.03-3.09,1.5-3.09,4.14A4.381,4.381,0,0,0,4.955,9Zm8.65.12c2.03,0,2.69-1.66,2.69-3.71s-.66-3.68-2.69-3.68-2.69,1.63-2.69,3.68S11.575,9.12,13.605,9.12Zm0-1.6c-.69,0-.89-.94-.89-2.11s.2-2.08.89-2.08.89.92.89,2.08S14.3,7.52,13.605,7.52Zm6.4,1.6c2.03,0,2.69-1.66,2.69-3.71s-.66-3.68-2.69-3.68-2.69,1.63-2.69,3.68S17.975,9.12,20.005,9.12Zm0-1.6c-.69,0-.89-.94-.89-2.11s.2-2.08.89-2.08.89.92.89,2.08S20.695,7.52,20.005,7.52Zm6.4,1.6c2.03,0,2.69-1.66,2.69-3.71s-.66-3.68-2.69-3.68-2.69,1.63-2.69,3.68S24.375,9.12,26.4,9.12Zm0-1.6c-.69,0-.89-.94-.89-2.11s.2-2.08.89-2.08.89.92.89,2.08S27.095,7.52,26.4,7.52Z" transform="translate(3986.641 4315)" fill="#908f93"/>
    <path id="Path_3122" data-name="Path 3122" d="M4.935,9h4.95V7.5H6.845c.05-.92,2.93-1.35,2.93-3.58a2.231,2.231,0,0,0-2.44-2.19,2.757,2.757,0,0,0-2.52,1.54l1.3.87s.38-.76,1.06-.76a.706.706,0,0,1,.77.71c0,1.03-3.09,1.5-3.09,4.14A4.381,4.381,0,0,0,4.935,9Zm8.65.12c2.03,0,2.69-1.66,2.69-3.71s-.66-3.68-2.69-3.68S10.9,3.36,10.9,5.41,11.555,9.12,13.585,9.12Zm0-1.6c-.69,0-.89-.94-.89-2.11s.2-2.08.89-2.08.89.92.89,2.08S14.275,7.52,13.585,7.52Zm6.4,1.6c2.03,0,2.69-1.66,2.69-3.71s-.66-3.68-2.69-3.68S17.3,3.36,17.3,5.41,17.955,9.12,19.985,9.12Zm0-1.6c-.69,0-.89-.94-.89-2.11s.2-2.08.89-2.08.89.92.89,2.08S20.675,7.52,19.985,7.52Zm3.46-.25h3.17V9h1.73V7.27h.85V5.82h-.85V1.85H26.2l-2.76,4.36Zm1.78-1.45V5.8l1.08-1.64a3.81,3.81,0,0,0,.35-.74h.02a6.39,6.39,0,0,0-.06.8v1.6Z" transform="translate(4125.641 4315)" fill="#908f93"/>
    <path id="Path_3128" data-name="Path 3128" d="M5.04,9H9.99V7.5H6.95C7,6.58,9.88,6.15,9.88,3.92A2.231,2.231,0,0,0,7.44,1.73,2.757,2.757,0,0,0,4.92,3.27l1.3.87s.38-.76,1.06-.76a.706.706,0,0,1,.77.71c0,1.03-3.09,1.5-3.09,4.14A4.381,4.381,0,0,0,5.04,9Zm8.65.12c2.03,0,2.69-1.66,2.69-3.71s-.66-3.68-2.69-3.68S11,3.36,11,5.41,11.66,9.12,13.69,9.12Zm0-1.6c-.69,0-.89-.94-.89-2.11s.2-2.08.89-2.08.89.92.89,2.08S14.38,7.52,13.69,7.52Zm6.4,1.6c2.03,0,2.69-1.66,2.69-3.71s-.66-3.68-2.69-3.68S17.4,3.36,17.4,5.41,18.06,9.12,20.09,9.12Zm0-1.6c-.69,0-.89-.94-.89-2.11s.2-2.08.89-2.08.89.92.89,2.08S20.78,7.52,20.09,7.52Zm3.64-.62a2.351,2.351,0,0,0,2.65,2.22c1.77,0,2.65-1.09,2.65-2.18a1.745,1.745,0,0,0-.84-1.51,3.023,3.023,0,0,0,.7-1.63,2.153,2.153,0,0,0-2.42-2.07,2.105,2.105,0,0,0-2.4,2.06,1.738,1.738,0,0,0,.65,1.37A2.392,2.392,0,0,0,23.73,6.9Zm3.51-.05c0,.47-.33.73-.86.73a.841.841,0,0,1-.86-.83,1.286,1.286,0,0,1,.38-.87C26.6,6.2,27.24,6.44,27.24,6.85ZM25.78,3.83c0-.31.2-.56.65-.56a.658.658,0,0,1,.75.66,1.8,1.8,0,0,1-.25.88C26.3,4.54,25.78,4.3,25.78,3.83Z" transform="translate(4262.641 4315)" fill="#908f93"/>
    <path id="Path_3133" data-name="Path 3133" d="M5.575,9h4.95V7.5H7.485c.05-.92,2.93-1.35,2.93-3.58a2.231,2.231,0,0,0-2.44-2.19,2.757,2.757,0,0,0-2.52,1.54l1.3.87s.38-.76,1.06-.76a.706.706,0,0,1,.77.71c0,1.03-3.09,1.5-3.09,4.14A4.381,4.381,0,0,0,5.575,9Zm8.65.12c2.03,0,2.69-1.66,2.69-3.71s-.66-3.68-2.69-3.68-2.69,1.63-2.69,3.68S12.2,9.12,14.225,9.12Zm0-1.6c-.69,0-.89-.94-.89-2.11s.2-2.08.89-2.08.89.92.89,2.08S14.915,7.52,14.225,7.52ZM17.985,9h4.76V7.5h-1.53V1.85H19.7l-1.93,1.81,1.01,1.08.43-.39a1.351,1.351,0,0,0,.28-.38h.02s-.01.28-.01.55V7.5h-1.52Zm5.55,0h4.95V7.5h-3.04c.05-.92,2.93-1.35,2.93-3.58a2.231,2.231,0,0,0-2.44-2.19,2.757,2.757,0,0,0-2.52,1.54l1.3.87s.38-.76,1.06-.76a.706.706,0,0,1,.77.71c0,1.03-3.09,1.5-3.09,4.14A4.381,4.381,0,0,0,23.535,9Z" transform="translate(4400.641 4315)" fill="#908f93"/>
    <path id="Path_3137" data-name="Path 3137" d="M5.485,9h4.95V7.5H7.4c.05-.92,2.93-1.35,2.93-3.58a2.231,2.231,0,0,0-2.44-2.19,2.757,2.757,0,0,0-2.52,1.54l1.3.87s.38-.76,1.06-.76a.706.706,0,0,1,.77.71c0,1.03-3.09,1.5-3.09,4.14A4.381,4.381,0,0,0,5.485,9Zm8.65.12c2.03,0,2.69-1.66,2.69-3.71s-.66-3.68-2.69-3.68-2.69,1.63-2.69,3.68S12.105,9.12,14.135,9.12Zm0-1.6c-.69,0-.89-.94-.89-2.11s.2-2.08.89-2.08.89.92.89,2.08S14.825,7.52,14.135,7.52ZM17.895,9h4.76V7.5h-1.53V1.85h-1.51l-1.93,1.81,1.01,1.08.43-.39a1.351,1.351,0,0,0,.28-.38h.02s-.01.28-.01.55V7.5h-1.52Zm8.35.12a2.372,2.372,0,0,0,2.44-2.41,2.345,2.345,0,0,0-2.34-2.45,2.163,2.163,0,0,0-.98.25h-.02a1.56,1.56,0,0,1,1.54-1.18,2.724,2.724,0,0,1,.98.21l.47-1.5a3.606,3.606,0,0,0-1.58-.31c-2.22,0-3.41,2.03-3.41,3.97C23.345,8.03,24.8,9.12,26.245,9.12Zm0-1.6a1.326,1.326,0,0,1-1.1-1.42c0-.33.34-.43.74-.43a1,1,0,0,1,1.08,1.05A.749.749,0,0,1,26.245,7.52Z" transform="translate(4538.641 4315)" fill="#908f93"/>
    <path id="Path_3123" data-name="Path 3123" d="M5.65,9H10.6V7.5H7.56c.05-.92,2.93-1.35,2.93-3.58A2.231,2.231,0,0,0,8.05,1.73,2.757,2.757,0,0,0,5.53,3.27l1.3.87s.38-.76,1.06-.76a.706.706,0,0,1,.77.71c0,1.03-3.09,1.5-3.09,4.14A4.381,4.381,0,0,0,5.65,9Zm8.65.12c2.03,0,2.69-1.66,2.69-3.71s-.66-3.68-2.69-3.68-2.69,1.63-2.69,3.68S12.27,9.12,14.3,9.12Zm0-1.6c-.69,0-.89-.94-.89-2.11s.2-2.08.89-2.08.89.92.89,2.08S14.99,7.52,14.3,7.52Zm6.4,1.6c2.03,0,2.69-1.66,2.69-3.71s-.66-3.68-2.69-3.68-2.69,1.63-2.69,3.68S18.67,9.12,20.7,9.12Zm0-1.6c-.69,0-.89-.94-.89-2.11s.2-2.08.89-2.08.89.92.89,2.08S21.39,7.52,20.7,7.52ZM24.46,9h4.95V7.5H26.37c.05-.92,2.93-1.35,2.93-3.58a2.231,2.231,0,0,0-2.44-2.19,2.757,2.757,0,0,0-2.52,1.54l1.3.87s.38-.76,1.06-.76a.706.706,0,0,1,.77.71c0,1.03-3.09,1.5-3.09,4.14A4.381,4.381,0,0,0,24.46,9Z" transform="translate(4055.641 4315)" fill="#908f93"/>
    <path id="Path_3127" data-name="Path 3127" d="M5.56,9h4.95V7.5H7.47c.05-.92,2.93-1.35,2.93-3.58A2.231,2.231,0,0,0,7.96,1.73,2.757,2.757,0,0,0,5.44,3.27l1.3.87s.38-.76,1.06-.76a.706.706,0,0,1,.77.71c0,1.03-3.09,1.5-3.09,4.14A4.381,4.381,0,0,0,5.56,9Zm8.65.12c2.03,0,2.69-1.66,2.69-3.71s-.66-3.68-2.69-3.68-2.69,1.63-2.69,3.68S12.18,9.12,14.21,9.12Zm0-1.6c-.69,0-.89-.94-.89-2.11s.2-2.08.89-2.08.89.92.89,2.08S14.9,7.52,14.21,7.52Zm6.4,1.6c2.03,0,2.69-1.66,2.69-3.71s-.66-3.68-2.69-3.68-2.69,1.63-2.69,3.68S18.58,9.12,20.61,9.12Zm0-1.6c-.69,0-.89-.94-.89-2.11s.2-2.08.89-2.08.89.92.89,2.08S21.3,7.52,20.61,7.52Zm6.56,1.6a2.372,2.372,0,0,0,2.44-2.41,2.345,2.345,0,0,0-2.34-2.45,2.163,2.163,0,0,0-.98.25h-.02a1.56,1.56,0,0,1,1.54-1.18,2.724,2.724,0,0,1,.98.21l.47-1.5a3.606,3.606,0,0,0-1.58-.31c-2.22,0-3.41,2.03-3.41,3.97C24.27,8.03,25.73,9.12,27.17,9.12Zm0-1.6a1.326,1.326,0,0,1-1.1-1.42c0-.33.34-.43.74-.43a1,1,0,0,1,1.08,1.05A.749.749,0,0,1,27.17,7.52Z" transform="translate(4194.641 4315)" fill="#908f93"/>
    <path id="Path_3130" data-name="Path 3130" d="M5.88,9h4.95V7.5H7.79c.05-.92,2.93-1.35,2.93-3.58A2.231,2.231,0,0,0,8.28,1.73,2.757,2.757,0,0,0,5.76,3.27l1.3.87s.38-.76,1.06-.76a.706.706,0,0,1,.77.71c0,1.03-3.09,1.5-3.09,4.14A4.381,4.381,0,0,0,5.88,9Zm8.65.12c2.03,0,2.69-1.66,2.69-3.71s-.66-3.68-2.69-3.68-2.69,1.63-2.69,3.68S12.5,9.12,14.53,9.12Zm0-1.6c-.69,0-.89-.94-.89-2.11s.2-2.08.89-2.08.89.92.89,2.08S15.22,7.52,14.53,7.52ZM18.29,9h4.76V7.5H21.52V1.85H20.01L18.08,3.66l1.01,1.08.43-.39a1.351,1.351,0,0,0,.28-.38h.02s-.01.28-.01.55V7.5H18.29Zm8.19.12c2.03,0,2.69-1.66,2.69-3.71s-.66-3.68-2.69-3.68-2.69,1.63-2.69,3.68S24.45,9.12,26.48,9.12Zm0-1.6c-.69,0-.89-.94-.89-2.11s.2-2.08.89-2.08.89.92.89,2.08S27.17,7.52,26.48,7.52Z" transform="translate(4331.641 4315)" fill="#908f93"/>
    <path id="Path_3135" data-name="Path 3135" d="M5.86,9h4.95V7.5H7.77c.05-.92,2.93-1.35,2.93-3.58A2.231,2.231,0,0,0,8.26,1.73,2.757,2.757,0,0,0,5.74,3.27l1.3.87s.38-.76,1.06-.76a.706.706,0,0,1,.77.71c0,1.03-3.09,1.5-3.09,4.14A4.381,4.381,0,0,0,5.86,9Zm8.65.12c2.03,0,2.69-1.66,2.69-3.71s-.66-3.68-2.69-3.68-2.69,1.63-2.69,3.68S12.48,9.12,14.51,9.12Zm0-1.6c-.69,0-.89-.94-.89-2.11s.2-2.08.89-2.08.89.92.89,2.08S15.2,7.52,14.51,7.52ZM18.27,9h4.76V7.5H21.5V1.85H19.99L18.06,3.66l1.01,1.08.43-.39a1.351,1.351,0,0,0,.28-.38h.02s-.01.28-.01.55V7.5H18.27Zm5.25-1.73h3.17V9h1.73V7.27h.85V5.82h-.85V1.85H26.28L23.52,6.21ZM25.3,5.82V5.8l1.08-1.64a3.81,3.81,0,0,0,.35-.74h.02a6.39,6.39,0,0,0-.06.8v1.6Z" transform="translate(4469.641 4315)" fill="#908f93"/>
    <path id="Path_3139" data-name="Path 3139" d="M5.965,9h4.95V7.5H7.875c.05-.92,2.93-1.35,2.93-3.58a2.231,2.231,0,0,0-2.44-2.19,2.757,2.757,0,0,0-2.52,1.54l1.3.87s.38-.76,1.06-.76a.706.706,0,0,1,.77.71c0,1.03-3.09,1.5-3.09,4.14A4.381,4.381,0,0,0,5.965,9Zm8.65.12c2.03,0,2.69-1.66,2.69-3.71s-.66-3.68-2.69-3.68-2.69,1.63-2.69,3.68S12.585,9.12,14.615,9.12Zm0-1.6c-.69,0-.89-.94-.89-2.11s.2-2.08.89-2.08.89.92.89,2.08S15.305,7.52,14.615,7.52ZM18.375,9h4.76V7.5H21.6V1.85H20.1l-1.93,1.81,1.01,1.08.43-.39a1.351,1.351,0,0,0,.28-.38h.02s-.01.28-.01.55V7.5h-1.52Zm5.43-2.1a2.351,2.351,0,0,0,2.65,2.22c1.77,0,2.65-1.09,2.65-2.18a1.745,1.745,0,0,0-.84-1.51,3.023,3.023,0,0,0,.7-1.63,2.153,2.153,0,0,0-2.42-2.07,2.105,2.105,0,0,0-2.4,2.06,1.738,1.738,0,0,0,.65,1.37A2.392,2.392,0,0,0,23.805,6.9Zm3.51-.05c0,.47-.33.73-.86.73a.841.841,0,0,1-.86-.83,1.286,1.286,0,0,1,.38-.87C26.675,6.2,27.315,6.44,27.315,6.85Zm-1.46-3.02c0-.31.2-.56.65-.56a.658.658,0,0,1,.75.66,1.8,1.8,0,0,1-.25.88C26.375,4.54,25.855,4.3,25.855,3.83Z" transform="translate(4607.641 4315)" fill="#908f93"/>
    <path id="Path_3124" data-name="Path 3124" d="M5.38,9h4.95V7.5H7.29c.05-.92,2.93-1.35,2.93-3.58A2.231,2.231,0,0,0,7.78,1.73,2.757,2.757,0,0,0,5.26,3.27l1.3.87s.38-.76,1.06-.76a.706.706,0,0,1,.77.71c0,1.03-3.09,1.5-3.09,4.14A4.381,4.381,0,0,0,5.38,9Zm8.65.12c2.03,0,2.69-1.66,2.69-3.71s-.66-3.68-2.69-3.68-2.69,1.63-2.69,3.68S12,9.12,14.03,9.12Zm0-1.6c-.69,0-.89-.94-.89-2.11s.2-2.08.89-2.08.89.92.89,2.08S14.72,7.52,14.03,7.52Zm6.4,1.6c2.03,0,2.69-1.66,2.69-3.71s-.66-3.68-2.69-3.68-2.69,1.63-2.69,3.68S18.4,9.12,20.43,9.12Zm0-1.6c-.69,0-.89-.94-.89-2.11s.2-2.08.89-2.08.89.92.89,2.08S21.12,7.52,20.43,7.52ZM24.19,9h4.76V7.5H27.42V1.85H25.91L23.98,3.66l1.01,1.08.43-.39a1.351,1.351,0,0,0,.28-.38h.02s-.01.28-.01.55V7.5H24.19Z" transform="translate(4021.641 4315)" fill="#908f93"/>
    <path id="Path_3125" data-name="Path 3125" d="M5.235,9h4.95V7.5H7.145c.05-.92,2.93-1.35,2.93-3.58a2.231,2.231,0,0,0-2.44-2.19,2.757,2.757,0,0,0-2.52,1.54l1.3.87s.38-.76,1.06-.76a.706.706,0,0,1,.77.71c0,1.03-3.09,1.5-3.09,4.14A4.381,4.381,0,0,0,5.235,9Zm8.65.12c2.03,0,2.69-1.66,2.69-3.71s-.66-3.68-2.69-3.68S11.2,3.36,11.2,5.41,11.855,9.12,13.885,9.12Zm0-1.6c-.69,0-.89-.94-.89-2.11s.2-2.08.89-2.08.89.92.89,2.08S14.575,7.52,13.885,7.52Zm6.4,1.6c2.03,0,2.69-1.66,2.69-3.71s-.66-3.68-2.69-3.68-2.69,1.63-2.69,3.68S18.255,9.12,20.285,9.12Zm0-1.6c-.69,0-.89-.94-.89-2.11s.2-2.08.89-2.08.89.92.89,2.08S20.975,7.52,20.285,7.52Zm3.58.66a3.446,3.446,0,0,0,2.44.94,2.5,2.5,0,0,0,2.65-2.55A2.3,2.3,0,0,0,26.4,4.22a2.184,2.184,0,0,0-.52.07h-.02a1.17,1.17,0,0,0,.04-.28l.04-.66h2.48V1.85h-4l-.29,3.74.93.35a2.081,2.081,0,0,1,.96-.24c.65,0,1.14.33,1.14.89a.926.926,0,0,1-1,.88,2.358,2.358,0,0,1-1.45-.64Z" transform="translate(4160.641 4315)" fill="#908f93"/>
    <path id="Path_3131" data-name="Path 3131" d="M5.06,9h4.95V7.5H6.97C7.02,6.58,9.9,6.15,9.9,3.92A2.231,2.231,0,0,0,7.46,1.73,2.757,2.757,0,0,0,4.94,3.27l1.3.87s.38-.76,1.06-.76a.706.706,0,0,1,.77.71c0,1.03-3.09,1.5-3.09,4.14A4.381,4.381,0,0,0,5.06,9Zm8.65.12c2.03,0,2.69-1.66,2.69-3.71s-.66-3.68-2.69-3.68-2.69,1.63-2.69,3.68S11.68,9.12,13.71,9.12Zm0-1.6c-.69,0-.89-.94-.89-2.11s.2-2.08.89-2.08.89.92.89,2.08S14.4,7.52,13.71,7.52Zm6.4,1.6c2.03,0,2.69-1.66,2.69-3.71s-.66-3.68-2.69-3.68-2.69,1.63-2.69,3.68S18.08,9.12,20.11,9.12Zm0-1.6c-.69,0-.89-.94-.89-2.11s.2-2.08.89-2.08.89.92.89,2.08S20.8,7.52,20.11,7.52Zm5.52,1.6c2.22,0,3.41-2.03,3.41-3.97,0-2.33-1.46-3.42-2.9-3.42A2.372,2.372,0,0,0,23.7,4.14a2.345,2.345,0,0,0,2.34,2.45,2.011,2.011,0,0,0,.98-.25h.02A1.56,1.56,0,0,1,25.5,7.52a2.724,2.724,0,0,1-.98-.21l-.47,1.5A3.606,3.606,0,0,0,25.63,9.12Zm.87-3.94a1,1,0,0,1-1.08-1.05.749.749,0,0,1,.72-.8,1.326,1.326,0,0,1,1.1,1.42C27.24,5.08,26.9,5.18,26.5,5.18Z" transform="translate(4297.641 4315)" fill="#908f93"/>
    <path id="Path_3134" data-name="Path 3134" d="M5.645,9H10.6V7.5H7.555c.05-.92,2.93-1.35,2.93-3.58a2.231,2.231,0,0,0-2.44-2.19,2.757,2.757,0,0,0-2.52,1.54l1.3.87s.38-.76,1.06-.76a.706.706,0,0,1,.77.71c0,1.03-3.09,1.5-3.09,4.14A4.381,4.381,0,0,0,5.645,9Zm8.65.12c2.03,0,2.69-1.66,2.69-3.71s-.66-3.68-2.69-3.68-2.69,1.63-2.69,3.68S12.265,9.12,14.3,9.12Zm0-1.6c-.69,0-.89-.94-.89-2.11s.2-2.08.89-2.08.89.92.89,2.08S14.985,7.52,14.3,7.52ZM18.055,9h4.76V7.5h-1.53V1.85h-1.51l-1.93,1.81,1.01,1.08.43-.39a1.351,1.351,0,0,0,.28-.38h.02s-.01.28-.01.55V7.5h-1.52Zm5.29-.82a3.39,3.39,0,0,0,2.44.94,2.431,2.431,0,0,0,2.65-2.44A2.1,2.1,0,0,0,26.7,4.61l1.45-1.67V1.85h-4.51v1.5h1.71a3.562,3.562,0,0,0,.68-.05v.02a7.778,7.778,0,0,0-.62.67l-.94,1.13.37.85h.5c.77,0,1.33.23,1.33.79,0,.39-.37.71-1.02.71a2.338,2.338,0,0,1-1.47-.64Z" transform="translate(4435.641 4315)" fill="#908f93"/>
    <path id="Path_3138" data-name="Path 3138" d="M5.745,9H10.7V7.5H7.655c.05-.92,2.93-1.35,2.93-3.58a2.231,2.231,0,0,0-2.44-2.19,2.757,2.757,0,0,0-2.52,1.54l1.3.87s.38-.76,1.06-.76a.706.706,0,0,1,.77.71c0,1.03-3.09,1.5-3.09,4.14A4.381,4.381,0,0,0,5.745,9Zm8.65.12c2.03,0,2.69-1.66,2.69-3.71s-.66-3.68-2.69-3.68-2.69,1.63-2.69,3.68S12.365,9.12,14.4,9.12Zm0-1.6c-.69,0-.89-.94-.89-2.11s.2-2.08.89-2.08.89.92.89,2.08S15.085,7.52,14.4,7.52ZM18.155,9h4.76V7.5h-1.53V1.85h-1.51l-1.93,1.81,1.01,1.08.43-.39a1.351,1.351,0,0,0,.28-.38h.02s-.01.28-.01.55V7.5h-1.52ZM23.8,9h1.82l3-5.93V1.85h-5.13v1.5h2.82a2,2,0,0,0,.46-.03v.02a2,2,0,0,0-.46.65Z" transform="translate(4573.641 4315)" fill="#908f93"/>
    <path id="Path_3126" data-name="Path 3126" d="M5.22,9h4.95V7.5H7.13c.05-.92,2.93-1.35,2.93-3.58A2.231,2.231,0,0,0,7.62,1.73,2.757,2.757,0,0,0,5.1,3.27l1.3.87s.38-.76,1.06-.76a.706.706,0,0,1,.77.71c0,1.03-3.09,1.5-3.09,4.14A4.381,4.381,0,0,0,5.22,9Zm8.65.12c2.03,0,2.69-1.66,2.69-3.71s-.66-3.68-2.69-3.68-2.69,1.63-2.69,3.68S11.84,9.12,13.87,9.12Zm0-1.6c-.69,0-.89-.94-.89-2.11s.2-2.08.89-2.08.89.92.89,2.08S14.56,7.52,13.87,7.52Zm6.4,1.6c2.03,0,2.69-1.66,2.69-3.71s-.66-3.68-2.69-3.68-2.69,1.63-2.69,3.68S18.24,9.12,20.27,9.12Zm0-1.6c-.69,0-.89-.94-.89-2.11s.2-2.08.89-2.08.89.92.89,2.08S20.96,7.52,20.27,7.52Zm3.5.66a3.39,3.39,0,0,0,2.44.94,2.431,2.431,0,0,0,2.65-2.44,2.1,2.1,0,0,0-1.73-2.07l1.45-1.67V1.85H24.07v1.5h1.71a3.562,3.562,0,0,0,.68-.05v.02a7.779,7.779,0,0,0-.62.67L24.9,5.12l.37.85h.5c.77,0,1.33.23,1.33.79,0,.39-.37.71-1.02.71a2.338,2.338,0,0,1-1.47-.64Z" transform="translate(4090.641 4315)" fill="#908f93"/>
    <path id="Path_3129" data-name="Path 3129" d="M5.32,9h4.95V7.5H7.23c.05-.92,2.93-1.35,2.93-3.58A2.231,2.231,0,0,0,7.72,1.73,2.757,2.757,0,0,0,5.2,3.27l1.3.87s.38-.76,1.06-.76a.706.706,0,0,1,.77.71c0,1.03-3.09,1.5-3.09,4.14A4.381,4.381,0,0,0,5.32,9Zm8.65.12c2.03,0,2.69-1.66,2.69-3.71S16,1.73,13.97,1.73s-2.69,1.63-2.69,3.68S11.94,9.12,13.97,9.12Zm0-1.6c-.69,0-.89-.94-.89-2.11s.2-2.08.89-2.08.89.92.89,2.08S14.66,7.52,13.97,7.52Zm6.4,1.6c2.03,0,2.69-1.66,2.69-3.71s-.66-3.68-2.69-3.68-2.69,1.63-2.69,3.68S18.34,9.12,20.37,9.12Zm0-1.6c-.69,0-.89-.94-.89-2.11s.2-2.08.89-2.08.89.92.89,2.08S21.06,7.52,20.37,7.52ZM24.22,9h1.82l3-5.93V1.85H23.91v1.5h2.82a2,2,0,0,0,.46-.03v.02a2,2,0,0,0-.46.65Z" transform="translate(4229.641 4315)" fill="#908f93"/>
    <path id="Path_3132" data-name="Path 3132" d="M5.805,9h4.95V7.5H7.715c.05-.92,2.93-1.35,2.93-3.58a2.231,2.231,0,0,0-2.44-2.19,2.757,2.757,0,0,0-2.52,1.54l1.3.87s.38-.76,1.06-.76a.706.706,0,0,1,.77.71c0,1.03-3.09,1.5-3.09,4.14A4.381,4.381,0,0,0,5.805,9Zm8.65.12c2.03,0,2.69-1.66,2.69-3.71s-.66-3.68-2.69-3.68-2.69,1.63-2.69,3.68S12.425,9.12,14.455,9.12Zm0-1.6c-.69,0-.89-.94-.89-2.11s.2-2.08.89-2.08.89.92.89,2.08S15.145,7.52,14.455,7.52ZM18.215,9h4.76V7.5h-1.53V1.85h-1.51l-1.93,1.81,1.01,1.08.43-.39a1.351,1.351,0,0,0,.28-.38h.02s-.01.28-.01.55V7.5h-1.52Zm5.55,0h4.76V7.5h-1.53V1.85h-1.51l-1.93,1.81,1.01,1.08L25,4.35a1.351,1.351,0,0,0,.28-.38h.02s-.01.28-.01.55V7.5h-1.52Z" transform="translate(4366.641 4315)" fill="#908f93"/>
    <path id="Path_3136" data-name="Path 3136" d="M5.66,9h4.95V7.5H7.57c.05-.92,2.93-1.35,2.93-3.58A2.231,2.231,0,0,0,8.06,1.73,2.757,2.757,0,0,0,5.54,3.27l1.3.87s.38-.76,1.06-.76a.706.706,0,0,1,.77.71c0,1.03-3.09,1.5-3.09,4.14A4.381,4.381,0,0,0,5.66,9Zm8.65.12C16.34,9.12,17,7.46,17,5.41s-.66-3.68-2.69-3.68-2.69,1.63-2.69,3.68S12.28,9.12,14.31,9.12Zm0-1.6c-.69,0-.89-.94-.89-2.11s.2-2.08.89-2.08.89.92.89,2.08S15,7.52,14.31,7.52ZM18.07,9h4.76V7.5H21.3V1.85H19.79L17.86,3.66l1.01,1.08.43-.39a1.351,1.351,0,0,0,.28-.38h.02s-.01.28-.01.55V7.5H18.07Zm5.37-.82a3.446,3.446,0,0,0,2.44.94,2.5,2.5,0,0,0,2.65-2.55,2.3,2.3,0,0,0-2.56-2.35,2.184,2.184,0,0,0-.52.07h-.02a1.17,1.17,0,0,0,.04-.28l.04-.66h2.48V1.85h-4L23.7,5.59l.93.35a2.081,2.081,0,0,1,.96-.24c.65,0,1.14.33,1.14.89a.926.926,0,0,1-1,.88,2.358,2.358,0,0,1-1.45-.64Z" transform="translate(4504.641 4315)" fill="#908f93"/>
    <path id="Path_3140" data-name="Path 3140" d="M5.485,9h4.95V7.5H7.4c.05-.92,2.93-1.35,2.93-3.58a2.231,2.231,0,0,0-2.44-2.19,2.757,2.757,0,0,0-2.52,1.54l1.3.87s.38-.76,1.06-.76a.706.706,0,0,1,.77.71c0,1.03-3.09,1.5-3.09,4.14A4.381,4.381,0,0,0,5.485,9Zm8.65.12c2.03,0,2.69-1.66,2.69-3.71s-.66-3.68-2.69-3.68-2.69,1.63-2.69,3.68S12.105,9.12,14.135,9.12Zm0-1.6c-.69,0-.89-.94-.89-2.11s.2-2.08.89-2.08.89.92.89,2.08S14.825,7.52,14.135,7.52ZM17.895,9h4.76V7.5h-1.53V1.85h-1.51l-1.93,1.81,1.01,1.08.43-.39a1.351,1.351,0,0,0,.28-.38h.02s-.01.28-.01.55V7.5h-1.52Zm7.31.12c2.22,0,3.41-2.03,3.41-3.97,0-2.33-1.46-3.42-2.9-3.42a2.372,2.372,0,0,0-2.44,2.41,2.345,2.345,0,0,0,2.34,2.45,2.011,2.011,0,0,0,.98-.25h.02a1.56,1.56,0,0,1-1.54,1.18,2.724,2.724,0,0,1-.98-.21l-.47,1.5A3.606,3.606,0,0,0,25.2,9.12Zm.87-3.94a1,1,0,0,1-1.08-1.05.749.749,0,0,1,.72-.8,1.326,1.326,0,0,1,1.1,1.42C26.815,5.08,26.475,5.18,26.075,5.18Z" transform="translate(4642.641 4315)" fill="#908f93"/>
    <line id="Line_401" data-name="Line 401" x2="689.5" transform="translate(3987.141 4221.5)" fill="none" stroke="#707070" stroke-width="2"/>
    <line id="Line_402" data-name="Line 402" x2="689.5" transform="translate(3987.141 4111.5)" fill="none" stroke="#707070" stroke-width="2"/>
    <line id="Line_403" data-name="Line 403" x2="689.5" transform="translate(3987.141 4001.5)" fill="none" stroke="#707070" stroke-width="2"/>
    <line id="Line_404" data-name="Line 404" x2="689.5" transform="translate(3987.141 3891.5)" fill="none" stroke="#707070" stroke-width="2"/>
    <path id="Path_3115" data-name="Path 3115" d="M22.96,13.56a5.782,5.782,0,0,0,3.264,1.568v1.456h1.744V15.128a3.511,3.511,0,0,0,3.2-3.488c0-3.536-5.2-3.44-5.2-4.8,0-.64.64-.9,1.216-.9a4.365,4.365,0,0,1,2.528,1.008L30.9,4.664a5,5,0,0,0-2.928-1.248V1.96H26.224v1.5a3.474,3.474,0,0,0-3.056,3.408c0,3.44,5.2,3.552,5.2,4.832,0,.688-.624.912-1.2.912a4.741,4.741,0,0,1-2.736-1.184ZM32.7,15H40.32V12.6H37.872V3.56H35.456l-3.088,2.9,1.616,1.728.688-.624a2.161,2.161,0,0,0,.448-.608h.032s-.016.448-.016.88V12.6H32.7Zm13.1.192c3.248,0,4.3-2.656,4.3-5.936s-1.056-5.888-4.3-5.888-4.3,2.608-4.3,5.888S42.56,15.192,45.808,15.192Zm0-2.56c-1.1,0-1.424-1.5-1.424-3.376,0-1.856.32-3.328,1.424-3.328S47.232,7.4,47.232,9.256C47.232,11.128,46.912,12.632,45.808,12.632Zm5.056,4.144H52.9L54.7,12.344h-2.64ZM60.4,15.192c3.248,0,4.3-2.656,4.3-5.936s-1.056-5.888-4.3-5.888-4.3,2.608-4.3,5.888S57.152,15.192,60.4,15.192Zm0-2.56c-1.1,0-1.424-1.5-1.424-3.376,0-1.856.32-3.328,1.424-3.328S61.824,7.4,61.824,9.256C61.824,11.128,61.5,12.632,60.4,12.632Zm10.24,2.56c3.248,0,4.3-2.656,4.3-5.936s-1.056-5.888-4.3-5.888-4.3,2.608-4.3,5.888S67.392,15.192,70.64,15.192Zm0-2.56c-1.1,0-1.424-1.5-1.424-3.376,0-1.856.32-3.328,1.424-3.328S72.064,7.4,72.064,9.256C72.064,11.128,71.744,12.632,70.64,12.632Zm10.24,2.56c3.248,0,4.3-2.656,4.3-5.936s-1.056-5.888-4.3-5.888-4.3,2.608-4.3,5.888S77.632,15.192,80.88,15.192Zm0-2.56c-1.1,0-1.424-1.5-1.424-3.376,0-1.856.32-3.328,1.424-3.328S82.3,7.4,82.3,9.256C82.3,11.128,81.984,12.632,80.88,12.632Z" transform="translate(3888.641 4211)" fill="#908f93"/>
    <path id="Path_3114" data-name="Path 3114" d="M23.7,13.56a5.782,5.782,0,0,0,3.264,1.568v1.456H28.7V15.128a3.511,3.511,0,0,0,3.2-3.488c0-3.536-5.2-3.44-5.2-4.8,0-.64.64-.9,1.216-.9a4.365,4.365,0,0,1,2.528,1.008l1.184-2.288A5,5,0,0,0,28.7,3.416V1.96H26.96v1.5A3.474,3.474,0,0,0,23.9,6.872c0,3.44,5.2,3.552,5.2,4.832,0,.688-.624.912-1.2.912a4.741,4.741,0,0,1-2.736-1.184ZM33.44,15h7.616V12.6H38.608V3.56H36.192L33.1,6.456,34.72,8.184l.688-.624a2.161,2.161,0,0,0,.448-.608h.032s-.016.448-.016.88V12.6H33.44Zm8.592-1.312a5.514,5.514,0,0,0,3.9,1.5,4,4,0,0,0,4.24-4.08c0-2.064-1.376-3.76-4.1-3.76a3.494,3.494,0,0,0-.832.112h-.032a1.872,1.872,0,0,0,.064-.448l.064-1.056h3.968V3.56h-6.4l-.464,5.984,1.488.56a3.33,3.33,0,0,1,1.536-.384c1.04,0,1.824.528,1.824,1.424a1.482,1.482,0,0,1-1.6,1.408,3.773,3.773,0,0,1-2.32-1.024Zm8.832,3.088H52.9L54.7,12.344h-2.64ZM60.4,15.192c3.248,0,4.3-2.656,4.3-5.936s-1.056-5.888-4.3-5.888-4.3,2.608-4.3,5.888S57.152,15.192,60.4,15.192Zm0-2.56c-1.1,0-1.424-1.5-1.424-3.376,0-1.856.32-3.328,1.424-3.328S61.824,7.4,61.824,9.256C61.824,11.128,61.5,12.632,60.4,12.632Zm10.24,2.56c3.248,0,4.3-2.656,4.3-5.936s-1.056-5.888-4.3-5.888-4.3,2.608-4.3,5.888S67.392,15.192,70.64,15.192Zm0-2.56c-1.1,0-1.424-1.5-1.424-3.376,0-1.856.32-3.328,1.424-3.328S72.064,7.4,72.064,9.256C72.064,11.128,71.744,12.632,70.64,12.632Zm10.24,2.56c3.248,0,4.3-2.656,4.3-5.936s-1.056-5.888-4.3-5.888-4.3,2.608-4.3,5.888S77.632,15.192,80.88,15.192Zm0-2.56c-1.1,0-1.424-1.5-1.424-3.376,0-1.856.32-3.328,1.424-3.328S82.3,7.4,82.3,9.256C82.3,11.128,81.984,12.632,80.88,12.632Z" transform="translate(3888.641 4102)" fill="#908f93"/>
    <path id="Path_3112" data-name="Path 3112" d="M22.224,13.56a5.782,5.782,0,0,0,3.264,1.568v1.456h1.744V15.128a3.511,3.511,0,0,0,3.2-3.488c0-3.536-5.2-3.44-5.2-4.8,0-.64.64-.9,1.216-.9a4.365,4.365,0,0,1,2.528,1.008L30.16,4.664a5,5,0,0,0-2.928-1.248V1.96H25.488v1.5a3.474,3.474,0,0,0-3.056,3.408c0,3.44,5.2,3.552,5.2,4.832,0,.688-.624.912-1.2.912A4.741,4.741,0,0,1,23.7,11.432ZM31.968,15h7.92V12.6H35.024c.08-1.472,4.688-2.16,4.688-5.728,0-2.432-2.032-3.5-3.9-3.5a4.412,4.412,0,0,0-4.032,2.464l2.08,1.392s.608-1.216,1.7-1.216a1.13,1.13,0,0,1,1.232,1.136c0,1.648-4.944,2.4-4.944,6.624A7.01,7.01,0,0,0,31.968,15Zm13.84.192c3.248,0,4.3-2.656,4.3-5.936s-1.056-5.888-4.3-5.888-4.3,2.608-4.3,5.888S42.56,15.192,45.808,15.192Zm0-2.56c-1.1,0-1.424-1.5-1.424-3.376,0-1.856.32-3.328,1.424-3.328S47.232,7.4,47.232,9.256C47.232,11.128,46.912,12.632,45.808,12.632Zm5.056,4.144H52.9L54.7,12.344h-2.64ZM60.4,15.192c3.248,0,4.3-2.656,4.3-5.936s-1.056-5.888-4.3-5.888-4.3,2.608-4.3,5.888S57.152,15.192,60.4,15.192Zm0-2.56c-1.1,0-1.424-1.5-1.424-3.376,0-1.856.32-3.328,1.424-3.328S61.824,7.4,61.824,9.256C61.824,11.128,61.5,12.632,60.4,12.632Zm10.24,2.56c3.248,0,4.3-2.656,4.3-5.936s-1.056-5.888-4.3-5.888-4.3,2.608-4.3,5.888S67.392,15.192,70.64,15.192Zm0-2.56c-1.1,0-1.424-1.5-1.424-3.376,0-1.856.32-3.328,1.424-3.328S72.064,7.4,72.064,9.256C72.064,11.128,71.744,12.632,70.64,12.632Zm10.24,2.56c3.248,0,4.3-2.656,4.3-5.936s-1.056-5.888-4.3-5.888-4.3,2.608-4.3,5.888S77.632,15.192,80.88,15.192Zm0-2.56c-1.1,0-1.424-1.5-1.424-3.376,0-1.856.32-3.328,1.424-3.328S82.3,7.4,82.3,9.256C82.3,11.128,81.984,12.632,80.88,12.632Z" transform="translate(3888.641 3993)" fill="#908f93"/>
    <path id="Path_3113" data-name="Path 3113" d="M22.96,13.56a5.782,5.782,0,0,0,3.264,1.568v1.456h1.744V15.128a3.511,3.511,0,0,0,3.2-3.488c0-3.536-5.2-3.44-5.2-4.8,0-.64.64-.9,1.216-.9a4.365,4.365,0,0,1,2.528,1.008L30.9,4.664a5,5,0,0,0-2.928-1.248V1.96H26.224v1.5a3.474,3.474,0,0,0-3.056,3.408c0,3.44,5.2,3.552,5.2,4.832,0,.688-.624.912-1.2.912a4.741,4.741,0,0,1-2.736-1.184ZM32.7,15h7.92V12.6H35.76c.08-1.472,4.688-2.16,4.688-5.728,0-2.432-2.032-3.5-3.9-3.5a4.412,4.412,0,0,0-4.032,2.464l2.08,1.392s.608-1.216,1.7-1.216A1.13,1.13,0,0,1,37.52,7.144c0,1.648-4.944,2.4-4.944,6.624A7.01,7.01,0,0,0,32.7,15Zm9.328-1.312a5.514,5.514,0,0,0,3.9,1.5,4,4,0,0,0,4.24-4.08c0-2.064-1.376-3.76-4.1-3.76a3.494,3.494,0,0,0-.832.112h-.032a1.872,1.872,0,0,0,.064-.448l.064-1.056h3.968V3.56h-6.4l-.464,5.984,1.488.56a3.33,3.33,0,0,1,1.536-.384c1.04,0,1.824.528,1.824,1.424a1.482,1.482,0,0,1-1.6,1.408,3.773,3.773,0,0,1-2.32-1.024Zm8.832,3.088H52.9L54.7,12.344h-2.64ZM60.4,15.192c3.248,0,4.3-2.656,4.3-5.936s-1.056-5.888-4.3-5.888-4.3,2.608-4.3,5.888S57.152,15.192,60.4,15.192Zm0-2.56c-1.1,0-1.424-1.5-1.424-3.376,0-1.856.32-3.328,1.424-3.328S61.824,7.4,61.824,9.256C61.824,11.128,61.5,12.632,60.4,12.632Zm10.24,2.56c3.248,0,4.3-2.656,4.3-5.936s-1.056-5.888-4.3-5.888-4.3,2.608-4.3,5.888S67.392,15.192,70.64,15.192Zm0-2.56c-1.1,0-1.424-1.5-1.424-3.376,0-1.856.32-3.328,1.424-3.328S72.064,7.4,72.064,9.256C72.064,11.128,71.744,12.632,70.64,12.632Zm10.24,2.56c3.248,0,4.3-2.656,4.3-5.936s-1.056-5.888-4.3-5.888-4.3,2.608-4.3,5.888S77.632,15.192,80.88,15.192Zm0-2.56c-1.1,0-1.424-1.5-1.424-3.376,0-1.856.32-3.328,1.424-3.328S82.3,7.4,82.3,9.256C82.3,11.128,81.984,12.632,80.88,12.632Z" transform="translate(3888.641 3884)" fill="#908f93"/>
    <path id="Path_3111" data-name="Path 3111" d="M199.828,15h2.912l4.032-11.44H203.78l-2.048,6.512c-.224.72-.432,1.84-.432,1.84h-.032s-.208-1.12-.432-1.84L198.82,3.56h-3.04Zm14.224,0h2.88L213.044,3.56H210.1L206.212,15h2.88l.688-2.4h3.568Zm-2.464-8.832s.256,1.248.464,1.968l.64,2.224h-2.256l.656-2.224c.208-.72.464-1.968.464-1.968ZM218.212,15h7.472V12.6h-4.672V3.56h-2.8Zm8.752-4.208c0,2.576,1.888,4.4,4.8,4.4,2.88,0,4.768-1.824,4.768-4.4V3.56h-2.8v7.232a1.99,1.99,0,0,1-3.968,0V3.56h-2.8ZM239.06,15h7.392V12.6H241.86V10.44h3.488V8.04H241.86V5.96h4.368V3.56H239.06Z" transform="translate(3864.641 4327) rotate(-90)" fill="#908f93"/>
    <path id="Path_3119" data-name="Path 3119" d="M204.62,15h2.8V10.312L211.2,3.56h-3.184l-1.28,2.752c-.368.784-.688,1.648-.688,1.648h-.032s-.32-.864-.688-1.648l-1.3-2.752h-3.184l3.776,6.752Zm7.856,0h7.392V12.6h-4.592V10.44h3.488V8.04h-3.488V5.96h4.368V3.56h-7.168Zm15.84,0h2.88L227.308,3.56h-2.944L220.476,15h2.88l.688-2.4h3.568Zm-2.464-8.832s.256,1.248.464,1.968l.64,2.224H224.7l.656-2.224c.208-.72.464-1.968.464-1.968ZM232.476,15h2.8V11.144h1.312L238.62,15h3.12l-2.224-4a6.557,6.557,0,0,0-.432-.688V10.28A3.483,3.483,0,0,0,240.8,7.16a3.326,3.326,0,0,0-2.112-3.328,5.919,5.919,0,0,0-2.224-.272h-3.984Zm2.8-6.256V5.96h.944c1.408,0,1.728.512,1.728,1.376a1.309,1.309,0,0,1-1.456,1.408Z" transform="translate(4110.641 4362)" fill="#908f93"/>
    <path id="Path_3120" data-name="Path 3120" d="M1.848,21H5.7V15.7H7.5L10.3,21h4.29l-3.058-5.5a9.016,9.016,0,0,0-.594-.946V14.51a4.788,4.788,0,0,0,2.354-4.29,4.573,4.573,0,0,0-2.9-4.576A8.139,8.139,0,0,0,7.326,5.27H1.848ZM5.7,12.4V8.57H7c1.936,0,2.376.7,2.376,1.892a1.8,1.8,0,0,1-2,1.936ZM16.852,21H27.016V17.7H20.7V14.73h4.8v-3.3H20.7V8.57h6.006V5.27H16.852ZM32.8,21h3.85V8.57h4.774V5.27h-13.4v3.3H32.8Zm10.34-5.786c0,3.542,2.6,6.05,6.6,6.05,3.96,0,6.556-2.508,6.556-6.05V5.27h-3.85v9.944a2.416,2.416,0,0,1-2.728,2.53,2.416,2.416,0,0,1-2.728-2.53V5.27h-3.85ZM59.774,21h3.85V15.7h1.8L68.222,21h4.29l-3.058-5.5a9.015,9.015,0,0,0-.594-.946V14.51a4.788,4.788,0,0,0,2.354-4.29,4.573,4.573,0,0,0-2.9-4.576,8.139,8.139,0,0,0-3.058-.374H59.774Zm3.85-8.6V8.57h1.3c1.936,0,2.376.7,2.376,1.892a1.8,1.8,0,0,1-2,1.936ZM74.778,21h3.85V13.674c0-.99-.176-2.684-.176-2.684H78.5a28.143,28.143,0,0,0,1.32,2.684L84.194,21h3.872V5.27h-3.85v7.348c0,.99.176,2.684.176,2.684h-.044a28.145,28.145,0,0,0-1.32-2.684L78.672,5.27H74.778Zm20.944-7.964a8.228,8.228,0,0,0,16.456,0,8.23,8.23,0,0,0-16.456,0Zm3.982,0a4.254,4.254,0,1,1,8.492,0,4.269,4.269,0,1,1-8.492,0ZM114.8,21h3.85V13.674c0-.99-.176-2.684-.176-2.684h.044a28.143,28.143,0,0,0,1.32,2.684L124.212,21h3.872V5.27h-3.85v7.348c0,.99.176,2.684.176,2.684h-.044a28.145,28.145,0,0,0-1.32-2.684L118.69,5.27H114.8Zm22.022,0h3.85V5.27h-3.85Zm7.546,0h3.85V13.674c0-.99-.176-2.684-.176-2.684h.044a28.146,28.146,0,0,0,1.32,2.684L153.78,21h3.872V5.27H153.8v7.348c0,.99.176,2.684.176,2.684h-.044a28.144,28.144,0,0,0-1.32-2.684L148.258,5.27h-3.894Zm20.57,0h4l5.544-15.73h-4.114l-2.816,8.954c-.308.99-.594,2.53-.594,2.53h-.044s-.286-1.54-.594-2.53L163.548,5.27h-4.18ZM176.2,21h10.164V17.7h-6.314V14.73h4.8v-3.3h-4.8V8.57h6.006V5.27H176.2Zm11.77-1.98a8.121,8.121,0,0,0,5.742,2.244c3.542,0,5.544-2.266,5.544-4.884,0-4.972-7.084-4.62-7.084-6.6,0-.88.88-1.232,1.672-1.232a6,6,0,0,1,3.476,1.386l1.628-3.146a7.135,7.135,0,0,0-5.06-1.782c-3.124,0-5.566,1.914-5.566,4.818,0,4.84,7.084,4.774,7.084,6.644,0,.946-.858,1.254-1.65,1.254a6.519,6.519,0,0,1-3.762-1.628ZM204.908,21h3.85V8.57h4.774V5.27h-13.4v3.3h4.774Zm10.076,0h3.872l.484-7.084a23.414,23.414,0,0,0,0-2.64h.044s.528,1.65.88,2.64l1.65,4.554h3.3l1.65-4.554c.352-.99.88-2.64.88-2.64h.044a23.414,23.414,0,0,0,0,2.64L228.272,21h3.85L230.846,5.27h-4.18l-2.288,6.644c-.352,1.012-.792,2.6-.792,2.6h-.044s-.44-1.584-.792-2.6L220.462,5.27h-4.18Zm20.35,0H245.5V17.7h-6.314V14.73h4.8v-3.3h-4.8V8.57h6.006V5.27h-9.856Zm12.936,0h3.85V13.674c0-.99-.176-2.684-.176-2.684h.044a28.146,28.146,0,0,0,1.32,2.684L257.686,21h3.872V5.27h-3.85v7.348c0,.99.176,2.684.176,2.684h-.044a28.146,28.146,0,0,0-1.32-2.684L252.164,5.27H248.27Zm20,0h3.85V8.57h4.774V5.27h-13.4v3.3h4.774Zm14.52-7.964a8.228,8.228,0,0,0,16.456,0,8.23,8.23,0,0,0-16.456,0Zm3.982,0a4.254,4.254,0,1,1,8.492,0,4.269,4.269,0,1,1-8.492,0ZM301.862,21h3.85V15.17h4.8v-3.3h-4.8V8.57H311.5V5.27h-9.636Zm16.126-1.98a7.95,7.95,0,0,0,4.488,2.156v2h2.4v-2a4.828,4.828,0,0,0,4.4-4.8c0-4.862-7.15-4.73-7.15-6.6,0-.88.88-1.232,1.672-1.232a6,6,0,0,1,3.476,1.386L328.9,6.788a6.879,6.879,0,0,0-4.026-1.716v-2h-2.4V5.138a4.777,4.777,0,0,0-4.2,4.686c0,4.73,7.15,4.884,7.15,6.644,0,.946-.858,1.254-1.65,1.254a6.519,6.519,0,0,1-3.762-1.628Zm13.4,1.98h10.472V17.7h-3.366V5.27H335.17l-4.246,3.982,2.222,2.376.946-.858a2.972,2.972,0,0,0,.616-.836h.044s-.022.616-.022,1.21V17.7h-3.344Zm18.018.264c4.466,0,5.918-3.652,5.918-8.162s-1.452-8.1-5.918-8.1-5.918,3.586-5.918,8.1S344.938,21.264,349.4,21.264Zm0-3.52c-1.518,0-1.958-2.068-1.958-4.642,0-2.552.44-4.576,1.958-4.576s1.958,2.024,1.958,4.576C351.362,15.676,350.922,17.744,349.4,17.744Zm6.952,5.7h2.794l2.486-6.094h-3.63Zm13.112-2.178c4.466,0,5.918-3.652,5.918-8.162s-1.452-8.1-5.918-8.1-5.918,3.586-5.918,8.1S365,21.264,369.468,21.264Zm0-3.52c-1.518,0-1.958-2.068-1.958-4.642,0-2.552.44-4.576,1.958-4.576s1.958,2.024,1.958,4.576C371.426,15.676,370.986,17.744,369.468,17.744Zm14.08,3.52c4.466,0,5.918-3.652,5.918-8.162s-1.452-8.1-5.918-8.1-5.918,3.586-5.918,8.1S379.082,21.264,383.548,21.264Zm0-3.52c-1.518,0-1.958-2.068-1.958-4.642,0-2.552.44-4.576,1.958-4.576s1.958,2.024,1.958,4.576C385.506,15.676,385.066,17.744,383.548,17.744Zm14.08,3.52c4.466,0,5.918-3.652,5.918-8.162s-1.452-8.1-5.918-8.1-5.918,3.586-5.918,8.1S393.162,21.264,397.628,21.264Zm0-3.52c-1.518,0-1.958-2.068-1.958-4.642,0-2.552.44-4.576,1.958-4.576s1.958,2.024,1.958,4.576C399.586,15.676,399.146,17.744,397.628,17.744Zm12.848-4.708a8.228,8.228,0,0,0,16.456,0,8.23,8.23,0,0,0-16.456,0Zm3.982,0a4.254,4.254,0,1,1,8.492,0,4.269,4.269,0,1,1-8.492,0ZM433.048,21h4L442.6,5.27h-4.114l-2.816,8.954c-.308.99-.594,2.53-.594,2.53h-.044s-.286-1.54-.594-2.53L431.662,5.27h-4.18Zm11.264,0h10.164V17.7h-6.314V14.73h4.8v-3.3h-4.8V8.57h6.006V5.27h-9.856Zm12.936,0h3.85V15.7h1.8L465.7,21h4.29l-3.058-5.5a9.015,9.015,0,0,0-.594-.946V14.51a4.788,4.788,0,0,0,2.354-4.29,4.573,4.573,0,0,0-2.9-4.576,8.139,8.139,0,0,0-3.058-.374h-5.478Zm3.85-8.6V8.57h1.3c1.936,0,2.376.7,2.376,1.892a1.8,1.8,0,0,1-2,1.936ZM476.74,21h10.89V17.7h-6.688c.11-2.024,6.446-2.97,6.446-7.876,0-3.344-2.794-4.818-5.368-4.818a6.066,6.066,0,0,0-5.544,3.388l2.86,1.914s.836-1.672,2.332-1.672a1.554,1.554,0,0,1,1.694,1.562c0,2.266-6.8,3.3-6.8,9.108A9.64,9.64,0,0,0,476.74,21Zm19.03.264c4.466,0,5.918-3.652,5.918-8.162s-1.452-8.1-5.918-8.1-5.918,3.586-5.918,8.1S491.3,21.264,495.77,21.264Zm0-3.52c-1.518,0-1.958-2.068-1.958-4.642,0-2.552.44-4.576,1.958-4.576s1.958,2.024,1.958,4.576C497.728,15.676,497.288,17.744,495.77,17.744ZM512.952,21h3.85V14.554l5.192-9.284h-4.378l-1.76,3.784c-.506,1.078-.946,2.266-.946,2.266h-.044s-.44-1.188-.946-2.266L512.138,5.27H507.76l5.192,9.284Zm10.8,0h10.164V17.7H527.6V14.73h4.8v-3.3h-4.8V8.57h6.006V5.27h-9.856Zm21.78,0h3.96L544.148,5.27H540.1L534.754,21h3.96l.946-3.3h4.906ZM542.146,8.856s.352,1.716.638,2.706l.88,3.058h-3.1l.9-3.058c.286-.99.638-2.706.638-2.706ZM551.254,21h3.85V15.7h1.8L559.7,21h4.29l-3.058-5.5a9.022,9.022,0,0,0-.594-.946V14.51a4.789,4.789,0,0,0,2.354-4.29,4.573,4.573,0,0,0-2.9-4.576,8.138,8.138,0,0,0-3.058-.374h-5.478Zm3.85-8.6V8.57h1.3c1.936,0,2.376.7,2.376,1.892a1.8,1.8,0,0,1-2,1.936Zm10.054,6.622a8.121,8.121,0,0,0,5.742,2.244c3.542,0,5.544-2.266,5.544-4.884,0-4.972-7.084-4.62-7.084-6.6,0-.88.88-1.232,1.672-1.232a6,6,0,0,1,3.476,1.386l1.628-3.146a7.135,7.135,0,0,0-5.06-1.782c-3.124,0-5.566,1.914-5.566,4.818,0,4.84,7.084,4.774,7.084,6.644,0,.946-.858,1.254-1.65,1.254a6.518,6.518,0,0,1-3.762-1.628Z" transform="translate(3987.141 3829)" fill="#10416b"/>
    <rect id="Rectangle_364" data-name="Rectangle 364" width="12" height="12" transform="translate(3876.141 4420)" fill="#7d0407"/>
    <rect id="Rectangle_814" data-name="Rectangle 814" width="12" height="12" transform="translate(3876.141 4442)" fill="#1762a0"/>
    <path id="Path_3117" data-name="Path 3117" d="M.5,10.028a3.963,3.963,0,0,0,2.808,1.116A2.442,2.442,0,0,0,6,8.756c0-2.748-4.1-2.28-4.1-4.032A1.386,1.386,0,0,1,3.432,3.488a2.987,2.987,0,0,1,1.86.732l.54-.984a3.472,3.472,0,0,0-2.4-.852A2.509,2.509,0,0,0,.7,4.748c0,2.6,4.1,2.208,4.1,4.044A1.306,1.306,0,0,1,3.336,10.04a3.344,3.344,0,0,1-2.16-.912ZM6.972,9.3a1.9,1.9,0,0,0,2.064,1.848,2.1,2.1,0,0,0,1.944-1.2H11a4.556,4.556,0,0,0-.024.48V11h1.08V7.16a2.157,2.157,0,0,0-2.4-2.376,3.809,3.809,0,0,0-2.268.72l.48.852a3.079,3.079,0,0,1,1.692-.588A1.18,1.18,0,0,1,10.9,7.1v.108h-.264C9.612,7.208,6.972,7.292,6.972,9.3Zm1.176-.06c0-1.092,1.584-1.152,2.46-1.152h.3v.192a1.84,1.84,0,0,1-1.62,1.932A1.017,1.017,0,0,1,8.148,9.236ZM15.24,11h1.344l2.244-6.072H17.6l-1.476,4.1c-.12.336-.2.828-.216.828h-.024c-.012,0-.084-.492-.2-.828l-1.476-4.1H12.972Zm4.572-7.284h1.176V2.528H19.812ZM19.824,11h1.164V4.928H19.824Zm2.988,0h1.164V8.156a2.874,2.874,0,0,1,.1-.816,1.988,1.988,0,0,1,1.92-1.488c.972,0,1.152.672,1.152,1.524V11h1.164V7.112c0-1.548-.66-2.328-2.088-2.328a2.472,2.472,0,0,0-2.28,1.392h-.024a4.26,4.26,0,0,0,.024-.444v-.8H22.812Zm7.776,1.1-.384.912a4.732,4.732,0,0,0,2.076.5c1.536,0,3.06-.768,3.06-2.772V4.928H34.224v.564a1.509,1.509,0,0,0,.012.192h-.024a2.028,2.028,0,0,0-1.908-.9c-1.68,0-2.652,1.3-2.652,3.036s1.02,3.108,2.712,3.108a1.927,1.927,0,0,0,1.8-.948h.024s-.012.192-.012.384v.444c0,1.236-.864,1.7-1.92,1.7A3.912,3.912,0,0,1,30.588,12.1Zm2-2.184c-1.092,0-1.764-.864-1.764-2.124,0-1.236.6-2,1.656-2,.948,0,1.716.456,1.716,2.04S33.432,9.92,32.592,9.92ZM45.54,11h1.236L43.728,2.528H42.48L39.432,11h1.224l.84-2.436h3.192ZM43.116,3.692s.18.768.324,1.2l.936,2.688H41.808l.948-2.688c.144-.432.336-1.2.336-1.2Zm4.236,4.272a3.108,3.108,0,0,0,3.252,3.18,3.326,3.326,0,0,0,2.424-.972L52.56,9.32a2.751,2.751,0,0,1-1.872.816A2.1,2.1,0,0,1,48.54,7.952a2.068,2.068,0,0,1,2.112-2.16,2.459,2.459,0,0,1,1.68.7l.552-.816a3.075,3.075,0,0,0-2.28-.888A3.122,3.122,0,0,0,47.352,7.964Zm6.564,0a3.108,3.108,0,0,0,3.252,3.18,3.326,3.326,0,0,0,2.424-.972l-.468-.852a2.751,2.751,0,0,1-1.872.816A2.1,2.1,0,0,1,55.1,7.952a2.068,2.068,0,0,1,2.112-2.16,2.459,2.459,0,0,1,1.68.7l.552-.816a3.075,3.075,0,0,0-2.28-.888A3.122,3.122,0,0,0,53.916,7.964Zm6.552-.012a3.278,3.278,0,1,0,3.276-3.168A3.18,3.18,0,0,0,60.468,7.952Zm1.188,0a2.089,2.089,0,1,1,4.176,0,2.09,2.09,0,1,1-4.176,0Zm6.66.864c0,1.608.708,2.328,2.076,2.328a2.449,2.449,0,0,0,2.232-1.392h.024a3.977,3.977,0,0,0-.024.444V11h1.128V4.928H72.588V7.772a2.091,2.091,0,0,1-1.968,2.292c-.972,0-1.14-.672-1.14-1.512V4.928H68.316ZM75.576,11H76.74V8.156a2.874,2.874,0,0,1,.1-.816,1.988,1.988,0,0,1,1.92-1.488c.972,0,1.152.672,1.152,1.524V11h1.164V7.112c0-1.548-.66-2.328-2.088-2.328A2.472,2.472,0,0,0,76.7,6.176H76.68a4.259,4.259,0,0,0,.024-.444v-.8H75.576Zm7.488-2.22a2.094,2.094,0,0,0,2.328,2.268,3.191,3.191,0,0,0,.408-.024V9.992a1.4,1.4,0,0,1-.276.024,1.207,1.207,0,0,1-1.3-1.368v-2.7h1.464V5.012H84.228V3.26H83.1V5.012h-.828v.936h.792Z" transform="translate(3891.141 4419)" fill="#908f93"/>
    <path id="Path_3116" data-name="Path 3116" d="M.5,10.028a3.963,3.963,0,0,0,2.808,1.116A2.442,2.442,0,0,0,6,8.756c0-2.748-4.1-2.28-4.1-4.032A1.386,1.386,0,0,1,3.432,3.488a2.987,2.987,0,0,1,1.86.732l.54-.984a3.472,3.472,0,0,0-2.4-.852A2.509,2.509,0,0,0,.7,4.748c0,2.6,4.1,2.208,4.1,4.044A1.306,1.306,0,0,1,3.336,10.04a3.344,3.344,0,0,1-2.16-.912Zm6.7-1.4a2.648,2.648,0,0,0,2.94,2.52A2.7,2.7,0,0,0,13.068,8.18V7.052H14.2V6.02H13.068V4.868H11.9V6.02H10.332c-1.308,0-1.56-.8-1.56-1.332a1.334,1.334,0,0,1,1.5-1.3,3.749,3.749,0,0,1,.636.072l.3-.948a5.41,5.41,0,0,0-1.032-.132c-1.5,0-2.6.78-2.6,2.184a1.873,1.873,0,0,0,1.116,1.86v.024A2.265,2.265,0,0,0,7.2,8.624Zm1.212-.06c0-.948.672-1.512,1.872-1.512H11.9v1.08c0,1.332-.684,1.92-1.764,1.92A1.564,1.564,0,0,1,8.412,8.564ZM15.912,11H17.1V7.868h1.908A2.558,2.558,0,0,0,21.672,5.18a2.529,2.529,0,0,0-2.664-2.652h-3.1ZM17.1,6.836V3.56h1.728A1.5,1.5,0,0,1,20.46,5.18a1.529,1.529,0,0,1-1.644,1.656Zm8.6,3.132A3.29,3.29,0,0,0,28.3,11.144a2.861,2.861,0,0,0,3-2.856,2.766,2.766,0,0,0-2.952-2.76,2.437,2.437,0,0,0-1.092.264h-.024a2.525,2.525,0,0,0,.06-.444l.2-1.788h3.24V2.528H26.46l-.42,4.2.684.252a2.715,2.715,0,0,1,1.428-.42A1.791,1.791,0,0,1,30.084,8.3a1.758,1.758,0,0,1-1.86,1.716,2.429,2.429,0,0,1-1.86-.912Zm9.924,1.176c2.268,0,3-1.944,3-4.392s-.732-4.368-3-4.368S32.64,4.316,32.64,6.752,33.372,11.144,35.628,11.144Zm0-1.092c-1.38,0-1.776-1.452-1.776-3.3s.4-3.276,1.776-3.276,1.788,1.44,1.788,3.276S37.02,10.052,35.628,10.052Zm7.5,1.092c2.268,0,3-1.944,3-4.392s-.732-4.368-3-4.368S40.14,4.316,40.14,6.752,40.872,11.144,43.128,11.144Zm0-1.092c-1.38,0-1.776-1.452-1.776-3.3s.4-3.276,1.776-3.276,1.788,1.44,1.788,3.276S44.52,10.052,43.128,10.052Zm7.344-.024a3.963,3.963,0,0,0,2.808,1.116,2.442,2.442,0,0,0,2.688-2.388c0-2.748-4.1-2.28-4.1-4.032A1.386,1.386,0,0,1,53.4,3.488a2.987,2.987,0,0,1,1.86.732l.54-.984a3.472,3.472,0,0,0-2.4-.852,2.509,2.509,0,0,0-2.736,2.364c0,2.6,4.1,2.208,4.1,4.044A1.306,1.306,0,0,1,53.3,10.04a3.344,3.344,0,0,1-2.16-.912ZM57.648,8.78a2.094,2.094,0,0,0,2.328,2.268,3.191,3.191,0,0,0,.408-.024V9.992a1.4,1.4,0,0,1-.276.024,1.207,1.207,0,0,1-1.3-1.368v-2.7h1.464V5.012H58.812V3.26H57.684V5.012h-.828v.936h.792Zm3.6-.828a3.278,3.278,0,1,0,3.276-3.168A3.18,3.18,0,0,0,61.248,7.952Zm1.188,0a2.089,2.089,0,1,1,4.176,0,2.09,2.09,0,1,1-4.176,0Zm6.312.012A3.108,3.108,0,0,0,72,11.144a3.326,3.326,0,0,0,2.424-.972l-.468-.852a2.751,2.751,0,0,1-1.872.816,2.1,2.1,0,0,1-2.148-2.184,2.068,2.068,0,0,1,2.112-2.16,2.459,2.459,0,0,1,1.68.7l.552-.816A3.075,3.075,0,0,0,72,4.784,3.122,3.122,0,0,0,68.748,7.964Zm7,3.036h1.164V8.144h.876L79.608,11h1.356L78.72,7.628V7.6l2.016-2.676h-1.32L77.76,7.16h-.852V2.528H75.744Z" transform="translate(3891.141 4441)" fill="#908f93"/>
    <rect id="Rectangle_365" data-name="Rectangle 365" width="12" height="12" transform="translate(3876.141 4398)" fill="#bf1d1d"/>
    <path id="Path_3118" data-name="Path 3118" d="M1.152,11H2.34V7.628H4.152L5.94,11H7.284l-1.8-3.288a2.461,2.461,0,0,0-.252-.384V7.3A2.325,2.325,0,0,0,6.756,5.012,2.32,2.32,0,0,0,5.328,2.72a4.28,4.28,0,0,0-1.584-.192H1.152ZM2.34,6.6V3.56H3.708a2.334,2.334,0,0,1,1.164.192A1.387,1.387,0,0,1,5.544,5.06,1.409,1.409,0,0,1,4.044,6.6ZM8.184,7.964a3.092,3.092,0,0,0,3.216,3.18,3.614,3.614,0,0,0,2.352-.864l-.48-.852a2.9,2.9,0,0,1-1.8.708,1.984,1.984,0,0,1-2.088-2h4.428s.036-.348.036-.5A2.584,2.584,0,0,0,11.22,4.784,2.976,2.976,0,0,0,8.184,7.964ZM9.42,7.256A1.74,1.74,0,0,1,11.2,5.708,1.433,1.433,0,0,1,12.66,7.256ZM14.772,9.3a1.9,1.9,0,0,0,2.064,1.848,2.1,2.1,0,0,0,1.944-1.2H18.8a4.556,4.556,0,0,0-.024.48V11h1.08V7.16a2.157,2.157,0,0,0-2.4-2.376,3.809,3.809,0,0,0-2.268.72l.48.852a3.079,3.079,0,0,1,1.692-.588A1.18,1.18,0,0,1,18.7,7.1v.108h-.264C17.412,7.208,14.772,7.292,14.772,9.3Zm1.176-.06c0-1.092,1.584-1.152,2.46-1.152h.3v.192a1.84,1.84,0,0,1-1.62,1.932A1.017,1.017,0,0,1,15.948,9.236Zm5.58.108c0,1.524.972,1.7,1.632,1.7a3.27,3.27,0,0,0,.384-.024V9.992a1.853,1.853,0,0,1-.2.012c-.36,0-.648-.132-.648-.864V2.528H21.528ZM28.1,11h5.124V9.968H29.292V7.244h3.036V6.212H29.292V3.56h3.732V2.528H28.1Zm6.144-.744a3.264,3.264,0,0,0,2.3.888c1.332,0,2.2-.756,2.2-1.764,0-1.992-3.12-1.752-3.12-2.844,0-.528.492-.744,1-.744a2.222,2.222,0,0,1,1.5.54l.468-.876a2.729,2.729,0,0,0-1.956-.672c-1.212,0-2.2.624-2.2,1.728,0,1.98,3.12,1.752,3.12,2.868,0,.492-.5.756-1.008.756a2.605,2.605,0,0,1-1.74-.708Zm6.12-1.476A2.094,2.094,0,0,0,42.7,11.048a3.191,3.191,0,0,0,.408-.024V9.992a1.4,1.4,0,0,1-.276.024,1.207,1.207,0,0,1-1.3-1.368v-2.7H43V5.012H41.532V3.26H40.4V5.012h-.828v.936h.792ZM43.92,9.3a1.9,1.9,0,0,0,2.064,1.848,2.1,2.1,0,0,0,1.944-1.2h.024a4.556,4.556,0,0,0-.024.48V11h1.08V7.16a2.157,2.157,0,0,0-2.4-2.376,3.809,3.809,0,0,0-2.268.72l.48.852a3.079,3.079,0,0,1,1.692-.588A1.18,1.18,0,0,1,47.844,7.1v.108H47.58C46.56,7.208,43.92,7.292,43.92,9.3Zm1.176-.06c0-1.092,1.584-1.152,2.46-1.152h.3v.192a1.84,1.84,0,0,1-1.62,1.932A1.017,1.017,0,0,1,45.1,9.236Zm5.868-.456a2.094,2.094,0,0,0,2.328,2.268,3.191,3.191,0,0,0,.408-.024V9.992a1.4,1.4,0,0,1-.276.024,1.207,1.207,0,0,1-1.3-1.368v-2.7h1.464V5.012H52.128V3.26H51V5.012h-.828v.936h.792Zm3.624-.816a3.092,3.092,0,0,0,3.216,3.18,3.614,3.614,0,0,0,2.352-.864l-.48-.852a2.9,2.9,0,0,1-1.8.708,1.984,1.984,0,0,1-2.088-2h4.428s.036-.348.036-.5a2.584,2.584,0,0,0-2.628-2.844A2.976,2.976,0,0,0,54.588,7.964Zm1.236-.708A1.74,1.74,0,0,1,57.6,5.708a1.433,1.433,0,0,1,1.464,1.548Z" transform="translate(3891.141 4397)" fill="#908f93"/>
  </g>
</svg>
