<svg xmlns="http://www.w3.org/2000/svg" width="300.605" height="124.299" viewBox="0 0 300.605 124.299">
  <g id="Group_769" data-name="Group 769" transform="translate(-328.395 -5950.973)">
    <g id="Group_420" data-name="Group 420" transform="translate(503.647 5961.222)">
      <rect id="Rectangle_142" data-name="Rectangle 142" width="122.128" height="69.177" rx="3" transform="translate(2.544 0.231)" fill="#efefef"/>
      <g id="Group_94" data-name="Group 94" transform="translate(0 0)">
        <path id="Path_1581" data-name="Path 1581" d="M45.214,22A23.214,23.214,0,1,0,68.427,45.214,23.214,23.214,0,0,0,45.214,22Zm0,41.784A18.571,18.571,0,1,1,63.784,45.214,18.571,18.571,0,0,1,45.214,63.784Z" transform="translate(17.463 -10.393)" fill="#1762a0"/>
        <path id="Path_1582" data-name="Path 1582" d="M35.964,34.285h4.643a2.321,2.321,0,1,0,0-4.643H38.286V27.321a2.321,2.321,0,1,0-4.643,0v2.749a6.947,6.947,0,0,0,2.321,13.5,2.321,2.321,0,1,1,0,4.643H31.321a2.321,2.321,0,1,0,0,4.643h2.321v2.321a2.321,2.321,0,0,0,4.643,0V52.428a6.947,6.947,0,0,0-2.321-13.5,2.321,2.321,0,0,1,0-4.643Z" transform="translate(26.712 -6.429)" fill="#1762a0"/>
        <path id="Path_1583" data-name="Path 1583" d="M128.032,17H7.321A2.321,2.321,0,0,0,5,19.321v65a2.321,2.321,0,0,0,2.321,2.321H128.032a2.321,2.321,0,0,0,2.321-2.321v-65A2.321,2.321,0,0,0,128.032,17ZM111.968,82H23.385A16.26,16.26,0,0,0,9.643,68.256V35.385A16.26,16.26,0,0,0,23.385,21.643h88.583a16.26,16.26,0,0,0,13.742,13.742v32.87A16.26,16.26,0,0,0,111.968,82Zm13.742-60.355v9.052a11.641,11.641,0,0,1-9.052-9.052Zm-116.068,0h9.052a11.641,11.641,0,0,1-9.052,9.052ZM9.643,82V72.946A11.641,11.641,0,0,1,18.695,82Zm116.068,0h-9.052a11.641,11.641,0,0,1,9.052-9.052Z" transform="translate(-5 -17)" fill="#1762a0"/>
      </g>
    </g>
    <g id="Group_419" data-name="Group 419" transform="translate(488.955 6005.632)">
      <rect id="Rectangle_142-2" data-name="Rectangle 142" width="123" height="69" rx="3" transform="translate(2.045 0.368)" fill="#efefef"/>
      <g id="Group_94-2" data-name="Group 94" transform="translate(0 0)">
        <path id="Path_1581-2" data-name="Path 1581" d="M45.214,22A23.214,23.214,0,1,0,68.427,45.214,23.214,23.214,0,0,0,45.214,22Zm0,41.784A18.571,18.571,0,1,1,63.784,45.214,18.571,18.571,0,0,1,45.214,63.784Z" transform="translate(17.463 -10.393)" fill="#1762a0"/>
        <path id="Path_1582-2" data-name="Path 1582" d="M35.964,34.285h4.643a2.321,2.321,0,1,0,0-4.643H38.286V27.321a2.321,2.321,0,1,0-4.643,0v2.749a6.947,6.947,0,0,0,2.321,13.5,2.321,2.321,0,1,1,0,4.643H31.321a2.321,2.321,0,1,0,0,4.643h2.321v2.321a2.321,2.321,0,0,0,4.643,0V52.428a6.947,6.947,0,0,0-2.321-13.5,2.321,2.321,0,0,1,0-4.643Z" transform="translate(26.712 -6.429)" fill="#1762a0"/>
        <path id="Path_1583-2" data-name="Path 1583" d="M128.032,17H7.321A2.321,2.321,0,0,0,5,19.321v65a2.321,2.321,0,0,0,2.321,2.321H128.032a2.321,2.321,0,0,0,2.321-2.321v-65A2.321,2.321,0,0,0,128.032,17ZM111.968,82H23.385A16.26,16.26,0,0,0,9.643,68.256V35.385A16.26,16.26,0,0,0,23.385,21.643h88.583a16.26,16.26,0,0,0,13.742,13.742v32.87A16.26,16.26,0,0,0,111.968,82Zm13.742-60.355v9.052a11.641,11.641,0,0,1-9.052-9.052Zm-116.068,0h9.052a11.641,11.641,0,0,1-9.052,9.052ZM9.643,82V72.946A11.641,11.641,0,0,1,18.695,82Zm116.068,0h-9.052a11.641,11.641,0,0,1,9.052-9.052Z" transform="translate(-5 -17)" fill="#1762a0"/>
      </g>
    </g>
    <g id="Group_417" data-name="Group 417" transform="translate(410.383 5950.973)">
      <rect id="Rectangle_142-3" data-name="Rectangle 142" width="122" height="69" rx="3" transform="translate(2.617 0.027)" fill="#efefef"/>
      <g id="Group_94-3" data-name="Group 94" transform="translate(0 0)">
        <path id="Path_1581-3" data-name="Path 1581" d="M45.214,22A23.214,23.214,0,1,0,68.427,45.214,23.214,23.214,0,0,0,45.214,22Zm0,41.784A18.571,18.571,0,1,1,63.784,45.214,18.571,18.571,0,0,1,45.214,63.784Z" transform="translate(17.463 -10.393)" fill="#1762a0"/>
        <path id="Path_1582-3" data-name="Path 1582" d="M35.964,34.285h4.643a2.321,2.321,0,1,0,0-4.643H38.286V27.321a2.321,2.321,0,1,0-4.643,0v2.749a6.947,6.947,0,0,0,2.321,13.5,2.321,2.321,0,1,1,0,4.643H31.321a2.321,2.321,0,1,0,0,4.643h2.321v2.321a2.321,2.321,0,0,0,4.643,0V52.428a6.947,6.947,0,0,0-2.321-13.5,2.321,2.321,0,0,1,0-4.643Z" transform="translate(26.712 -6.429)" fill="#1762a0"/>
        <path id="Path_1583-3" data-name="Path 1583" d="M128.032,17H7.321A2.321,2.321,0,0,0,5,19.321v65a2.321,2.321,0,0,0,2.321,2.321H128.032a2.321,2.321,0,0,0,2.321-2.321v-65A2.321,2.321,0,0,0,128.032,17ZM111.968,82H23.385A16.26,16.26,0,0,0,9.643,68.256V35.385A16.26,16.26,0,0,0,23.385,21.643h88.583a16.26,16.26,0,0,0,13.742,13.742v32.87A16.26,16.26,0,0,0,111.968,82Zm13.742-60.355v9.052a11.641,11.641,0,0,1-9.052-9.052Zm-116.068,0h9.052a11.641,11.641,0,0,1-9.052,9.052ZM9.643,82V72.946A11.641,11.641,0,0,1,18.695,82Zm116.068,0h-9.052a11.641,11.641,0,0,1,9.052-9.052Z" transform="translate(-5 -17)" fill="#1762a0"/>
      </g>
    </g>
    <g id="Group_414" data-name="Group 414" transform="translate(328.395 5996.237)">
      <rect id="Rectangle_142-4" data-name="Rectangle 142" width="122" height="70" rx="3" transform="translate(2.605 -0.237)" fill="#efefef"/>
      <g id="Group_94-4" data-name="Group 94" transform="translate(0 0)">
        <path id="Path_1581-4" data-name="Path 1581" d="M45.214,22A23.214,23.214,0,1,0,68.427,45.214,23.214,23.214,0,0,0,45.214,22Zm0,41.784A18.571,18.571,0,1,1,63.784,45.214,18.571,18.571,0,0,1,45.214,63.784Z" transform="translate(17.463 -10.393)" fill="#1762a0"/>
        <path id="Path_1582-4" data-name="Path 1582" d="M35.964,34.285h4.643a2.321,2.321,0,1,0,0-4.643H38.286V27.321a2.321,2.321,0,1,0-4.643,0v2.749a6.947,6.947,0,0,0,2.321,13.5,2.321,2.321,0,1,1,0,4.643H31.321a2.321,2.321,0,1,0,0,4.643h2.321v2.321a2.321,2.321,0,0,0,4.643,0V52.428a6.947,6.947,0,0,0-2.321-13.5,2.321,2.321,0,0,1,0-4.643Z" transform="translate(26.712 -6.429)" fill="#1762a0"/>
        <path id="Path_1583-4" data-name="Path 1583" d="M128.032,17H7.321A2.321,2.321,0,0,0,5,19.321v65a2.321,2.321,0,0,0,2.321,2.321H128.032a2.321,2.321,0,0,0,2.321-2.321v-65A2.321,2.321,0,0,0,128.032,17ZM111.968,82H23.385A16.26,16.26,0,0,0,9.643,68.256V35.385A16.26,16.26,0,0,0,23.385,21.643h88.583a16.26,16.26,0,0,0,13.742,13.742v32.87A16.26,16.26,0,0,0,111.968,82Zm13.742-60.355v9.052a11.641,11.641,0,0,1-9.052-9.052Zm-116.068,0h9.052a11.641,11.641,0,0,1-9.052,9.052ZM9.643,82V72.946A11.641,11.641,0,0,1,18.695,82Zm116.068,0h-9.052a11.641,11.641,0,0,1,9.052-9.052Z" transform="translate(-5 -17)" fill="#1762a0"/>
      </g>
    </g>
    <g id="Group_418" data-name="Group 418" transform="translate(460.771 5978.303)">
      <rect id="Rectangle_142-5" data-name="Rectangle 142" width="122" height="69" rx="3" transform="translate(2.228 0.697)" fill="#efefef"/>
      <g id="Group_94-5" data-name="Group 94" transform="translate(0 0)">
        <path id="Path_1581-5" data-name="Path 1581" d="M45.214,22A23.214,23.214,0,1,0,68.427,45.214,23.214,23.214,0,0,0,45.214,22Zm0,41.784A18.571,18.571,0,1,1,63.784,45.214,18.571,18.571,0,0,1,45.214,63.784Z" transform="translate(17.463 -10.393)" fill="#1762a0"/>
        <path id="Path_1582-5" data-name="Path 1582" d="M35.964,34.285h4.643a2.321,2.321,0,1,0,0-4.643H38.286V27.321a2.321,2.321,0,1,0-4.643,0v2.749a6.947,6.947,0,0,0,2.321,13.5,2.321,2.321,0,1,1,0,4.643H31.321a2.321,2.321,0,1,0,0,4.643h2.321v2.321a2.321,2.321,0,0,0,4.643,0V52.428a6.947,6.947,0,0,0-2.321-13.5,2.321,2.321,0,0,1,0-4.643Z" transform="translate(26.712 -6.429)" fill="#1762a0"/>
        <path id="Path_1583-5" data-name="Path 1583" d="M128.032,17H7.321A2.321,2.321,0,0,0,5,19.321v65a2.321,2.321,0,0,0,2.321,2.321H128.032a2.321,2.321,0,0,0,2.321-2.321v-65A2.321,2.321,0,0,0,128.032,17ZM111.968,82H23.385A16.26,16.26,0,0,0,9.643,68.256V35.385A16.26,16.26,0,0,0,23.385,21.643h88.583a16.26,16.26,0,0,0,13.742,13.742v32.87A16.26,16.26,0,0,0,111.968,82Zm13.742-60.355v9.052a11.641,11.641,0,0,1-9.052-9.052Zm-116.068,0h9.052a11.641,11.641,0,0,1-9.052,9.052ZM9.643,82V72.946A11.641,11.641,0,0,1,18.695,82Zm116.068,0h-9.052a11.641,11.641,0,0,1,9.052-9.052Z" transform="translate(-5 -17)" fill="#1762a0"/>
      </g>
    </g>
    <g id="Group_415" data-name="Group 415" transform="translate(363.411 5966.346)">
      <rect id="Rectangle_142-6" data-name="Rectangle 142" width="122" height="69" rx="3" transform="translate(2.589 0.654)" fill="#efefef"/>
      <g id="Group_94-6" data-name="Group 94" transform="translate(0 0)">
        <path id="Path_1581-6" data-name="Path 1581" d="M45.214,22A23.214,23.214,0,1,0,68.427,45.214,23.214,23.214,0,0,0,45.214,22Zm0,41.784A18.571,18.571,0,1,1,63.784,45.214,18.571,18.571,0,0,1,45.214,63.784Z" transform="translate(17.463 -10.393)" fill="#1762a0"/>
        <path id="Path_1582-6" data-name="Path 1582" d="M35.964,34.285h4.643a2.321,2.321,0,1,0,0-4.643H38.286V27.321a2.321,2.321,0,1,0-4.643,0v2.749a6.947,6.947,0,0,0,2.321,13.5,2.321,2.321,0,1,1,0,4.643H31.321a2.321,2.321,0,1,0,0,4.643h2.321v2.321a2.321,2.321,0,0,0,4.643,0V52.428a6.947,6.947,0,0,0-2.321-13.5,2.321,2.321,0,0,1,0-4.643Z" transform="translate(26.712 -6.429)" fill="#1762a0"/>
        <path id="Path_1583-6" data-name="Path 1583" d="M128.032,17H7.321A2.321,2.321,0,0,0,5,19.321v65a2.321,2.321,0,0,0,2.321,2.321H128.032a2.321,2.321,0,0,0,2.321-2.321v-65A2.321,2.321,0,0,0,128.032,17ZM111.968,82H23.385A16.26,16.26,0,0,0,9.643,68.256V35.385A16.26,16.26,0,0,0,23.385,21.643h88.583a16.26,16.26,0,0,0,13.742,13.742v32.87A16.26,16.26,0,0,0,111.968,82Zm13.742-60.355v9.052a11.641,11.641,0,0,1-9.052-9.052Zm-116.068,0h9.052a11.641,11.641,0,0,1-9.052,9.052ZM9.643,82V72.946A11.641,11.641,0,0,1,18.695,82Zm116.068,0h-9.052a11.641,11.641,0,0,1,9.052-9.052Z" transform="translate(-5 -17)" fill="#1762a0"/>
      </g>
    </g>
    <g id="Group_416" data-name="Group 416" transform="translate(398.427 5985.989)">
      <rect id="Rectangle_142-7" data-name="Rectangle 142" width="122" height="69" rx="3" transform="translate(2.573 0.011)" fill="#efefef"/>
      <g id="Group_94-7" data-name="Group 94" transform="translate(0 0)">
        <path id="Path_1581-7" data-name="Path 1581" d="M45.214,22A23.214,23.214,0,1,0,68.427,45.214,23.214,23.214,0,0,0,45.214,22Zm0,41.784A18.571,18.571,0,1,1,63.784,45.214,18.571,18.571,0,0,1,45.214,63.784Z" transform="translate(17.463 -10.393)" fill="#1762a0"/>
        <path id="Path_1582-7" data-name="Path 1582" d="M35.964,34.285h4.643a2.321,2.321,0,1,0,0-4.643H38.286V27.321a2.321,2.321,0,1,0-4.643,0v2.749a6.947,6.947,0,0,0,2.321,13.5,2.321,2.321,0,1,1,0,4.643H31.321a2.321,2.321,0,1,0,0,4.643h2.321v2.321a2.321,2.321,0,0,0,4.643,0V52.428a6.947,6.947,0,0,0-2.321-13.5,2.321,2.321,0,0,1,0-4.643Z" transform="translate(26.712 -6.429)" fill="#1762a0"/>
        <path id="Path_1583-7" data-name="Path 1583" d="M128.032,17H7.321A2.321,2.321,0,0,0,5,19.321v65a2.321,2.321,0,0,0,2.321,2.321H128.032a2.321,2.321,0,0,0,2.321-2.321v-65A2.321,2.321,0,0,0,128.032,17ZM111.968,82H23.385A16.26,16.26,0,0,0,9.643,68.256V35.385A16.26,16.26,0,0,0,23.385,21.643h88.583a16.26,16.26,0,0,0,13.742,13.742v32.87A16.26,16.26,0,0,0,111.968,82Zm13.742-60.355v9.052a11.641,11.641,0,0,1-9.052-9.052Zm-116.068,0h9.052a11.641,11.641,0,0,1-9.052,9.052ZM9.643,82V72.946A11.641,11.641,0,0,1,18.695,82Zm116.068,0h-9.052a11.641,11.641,0,0,1,9.052-9.052Z" transform="translate(-5 -17)" fill="#1762a0"/>
      </g>
    </g>
  </g>
</svg>
