<svg xmlns="http://www.w3.org/2000/svg" width="310.731" height="268.797" viewBox="0 0 310.731 268.797">
  <g id="Group_758" data-name="Group 758" transform="translate(-990.263 -1623.082)">
    <g id="Group_394" data-name="Group 394" transform="translate(96 -158)">
      <g id="Rectangle_281" data-name="Rectangle 281" transform="translate(1039 1851)" fill="#efefef" stroke="#707070" stroke-width="1">
        <rect width="57" height="95" stroke="none"/>
        <rect x="0.5" y="0.5" width="56" height="94" fill="none"/>
      </g>
      <path id="Subtraction_7" data-name="Subtraction 7" d="M90.086,177.8c-7.637,0-15.7-.172-25.37-.538-9.751-.371-19.2-1.143-28.074-2.3a97.443,97.443,0,0,1-17.679-4.249,18.1,18.1,0,0,1-6.751-4.086,47.355,47.355,0,0,1-5.046-5.756,34.282,34.282,0,0,1-3.924-6.295,32.458,32.458,0,0,1-2.32-6.61,35.921,35.921,0,0,1-.9-6.881,44.874,44.874,0,0,1,.339-7.107A60.162,60.162,0,0,1,2.258,124.8a71.551,71.551,0,0,1,3.187-8.78,108.3,108.3,0,0,1,9.31-16.66c2.914-4.375,6.073-8.664,9.387-12.749s6.881-8.082,10.6-11.875,7.687-7.495,11.8-10.994,8.491-6.9,13-10.105A84.466,84.466,0,0,1,70,47.655c1.418-.724,2.884-1.473,4.3-2.237a5.676,5.676,0,0,1,1.668-.451c.384-.068.82-.145,1.318-.258l-3.066,4.708L68.341,58.45l.285.163.207.119,1.4-1.623L71,56.223l.028-.033c1.153-1.334,2.346-2.714,3.517-4.071.563-.653,1.147-1.312,1.712-1.948,1.327-1.5,2.7-3.042,3.908-4.641a3.85,3.85,0,0,1,2.081-1.419,10.538,10.538,0,0,1,2.451-.29c.484-.02.984-.04,1.47-.1a8.366,8.366,0,0,1,.974-.062c1.917,0,3.1.807,4.069,2.784a109.779,109.779,0,0,0,8.268,13.873q-1.152-4.548-2.307-9.115l-1.551-6.129a5.908,5.908,0,0,1,1.437-.182,9.07,9.07,0,0,1,4.033,1.222c.3.146.605.3.906.431a77.071,77.071,0,0,1,12.386,7.109,136.047,136.047,0,0,1,11,8.637A185.182,185.182,0,0,1,142.448,78.95a169.937,169.937,0,0,1,14.4,18.425,118.53,118.53,0,0,1,7.248,12.209,96.659,96.659,0,0,1,5.489,12.907,57.53,57.53,0,0,1,2.945,13.052,41.844,41.844,0,0,1,.124,6.567,37.643,37.643,0,0,1-1,6.588,38.52,38.52,0,0,1-2.37,6.894,31.54,31.54,0,0,1-3.718,6.173,29.616,29.616,0,0,1-5.251,5.248,33.317,33.317,0,0,1-6.97,4.117c-3.744,1.653-8.025,2.413-12.828,3.169-8.029,1.264-16.26,2.16-25.161,2.737C107.458,177.548,99.19,177.8,90.086,177.8ZM71.6,125.3l-8.192,11.848a25.842,25.842,0,0,0,4.675,3.73,33.572,33.572,0,0,0,5.693,2.922,34.309,34.309,0,0,0,7.8,2.078v8.107h9.706v-8.107a21.6,21.6,0,0,0,13.179-6.837,18.389,18.389,0,0,0,3.451-5.816,19.586,19.586,0,0,0,1.18-6.768,16.2,16.2,0,0,0-6.568-13.282c-3.811-3.056-8.639-5-12.9-6.722a48.521,48.521,0,0,1-6.7-3.065c-1.893-1.164-2.775-2.325-2.775-3.656a4.34,4.34,0,0,1,2.182-3.83,8.814,8.814,0,0,1,4.586-1.158,18.192,18.192,0,0,1,5.429.877,24.816,24.816,0,0,1,4.477,1.929,25.758,25.758,0,0,1,4.163,2.806l6.59-12.739a19.81,19.81,0,0,0-4.074-3.006,29.308,29.308,0,0,0-5.092-2.33,33.2,33.2,0,0,0-7.129-1.612V72.565H81.576v8.374a24.238,24.238,0,0,0-6.827,2.351,20.037,20.037,0,0,0-5.383,4.1,18.111,18.111,0,0,0-4.8,12.527c0,5.278,2.172,9.606,6.64,13.233,3.849,3.124,8.7,5.188,12.985,7.009a50.639,50.639,0,0,1,6.593,3.141c1.857,1.162,2.722,2.281,2.722,3.52a4.4,4.4,0,0,1-2.137,3.975,8.8,8.8,0,0,1-4.542,1.1,17.833,17.833,0,0,1-5.76-1.03,26.84,26.84,0,0,1-4.859-2.266A30.318,30.318,0,0,1,71.6,125.3ZM96.874,41.678a1.923,1.923,0,0,1-.824-.223,10.5,10.5,0,0,0-2.8-.832,1.153,1.153,0,0,1-.879-.448c-.128-.235-.088-.558.136-1.081.737-1.721,1.489-3.536,2.3-5.548a11.051,11.051,0,0,0,.365-1.142c.049-.174.1-.351.151-.524l-.367-.179c-.409.59-.831,1.184-1.239,1.758-.952,1.34-1.936,2.726-2.817,4.143a3.775,3.775,0,0,1-3.54,2.178c-.17,0-.35-.007-.537-.022-.513-.039-1.038-.059-1.606-.059-1.58,0-3.2.155-4.761.3-.8.077-1.632.156-2.446.213a3.659,3.659,0,0,0-1.177.372,5.751,5.751,0,0,1-1.936.676c-.595,0-.977-.451-1.9-1.54l-.038-.044c-4.3-5.075-8.84-10.409-13.484-15.852a4.712,4.712,0,0,1-1.2-3.654,7.9,7.9,0,0,1,2.007-4.145,19.108,19.108,0,0,1,6.741-4.784,1.892,1.892,0,0,1,.8-.2c.607,0,1.1.41,1.5,1.254a118.978,118.978,0,0,0,5.793,10.81l-.253-.917c-.184-.672-.375-1.366-.574-2.046-.358-1.219-.724-2.456-1.078-3.652v0c-1.028-3.476-2.092-7.071-3.082-10.622a1.988,1.988,0,0,1,.554-1.633A15.428,15.428,0,0,1,78.558.9,54.951,54.951,0,0,1,88.076,0,40.334,40.334,0,0,1,92.71.261c1.99.231,4.245.492,6.433.948a25.538,25.538,0,0,1,6.177,2.049l.1.05c2.184,1.079,2.184,1.079,1.245,3.3l-.027.064c-1.209,2.86-2.4,5.779-3.561,8.6-.481,1.174-.977,2.387-1.474,3.594l.339.2c.412-.549.83-1.109,1.233-1.65l.011-.015c1.268-1.7,2.58-3.457,3.908-5.154a1.605,1.605,0,0,1,1.034-.491.384.384,0,0,1,.176.035,12.586,12.586,0,0,1,3.749,3.236,8.113,8.113,0,0,1,2,5.032,6.709,6.709,0,0,1-.9,3.12,16.088,16.088,0,0,1-1.884,2.542c-2.547,2.973-5.158,5.976-7.683,8.88l-.006.007c-1.816,2.089-3.694,4.249-5.533,6.38A1.55,1.55,0,0,1,96.874,41.678Z" transform="translate(981.264 1782.082)" fill="#7d0404" stroke="#efefef" stroke-miterlimit="10" stroke-width="2"/>
    </g>
    <g id="Group_393" data-name="Group 393" transform="translate(146 -114)">
      <g id="Rectangle_281-2" data-name="Rectangle 281" transform="translate(1039 1851)" fill="#efefef" stroke="#707070" stroke-width="1">
        <rect width="57" height="95" stroke="none"/>
        <rect x="0.5" y="0.5" width="56" height="94" fill="none"/>
      </g>
      <path id="Subtraction_7-2" data-name="Subtraction 7" d="M90.086,177.8c-7.637,0-15.7-.172-25.37-.538-9.751-.371-19.2-1.143-28.074-2.3a97.443,97.443,0,0,1-17.679-4.249,18.1,18.1,0,0,1-6.751-4.086,47.355,47.355,0,0,1-5.046-5.756,34.282,34.282,0,0,1-3.924-6.295,32.458,32.458,0,0,1-2.32-6.61,35.921,35.921,0,0,1-.9-6.881,44.874,44.874,0,0,1,.339-7.107A60.162,60.162,0,0,1,2.258,124.8a71.551,71.551,0,0,1,3.187-8.78,108.3,108.3,0,0,1,9.31-16.66c2.914-4.375,6.073-8.664,9.387-12.749s6.881-8.082,10.6-11.875,7.687-7.495,11.8-10.994,8.491-6.9,13-10.105A84.466,84.466,0,0,1,70,47.655c1.418-.724,2.884-1.473,4.3-2.237a5.676,5.676,0,0,1,1.668-.451c.384-.068.82-.145,1.318-.258l-3.066,4.708L68.341,58.45l.285.163.207.119,1.4-1.623L71,56.223l.028-.033c1.153-1.334,2.346-2.714,3.517-4.071.563-.653,1.147-1.312,1.712-1.948,1.327-1.5,2.7-3.042,3.908-4.641a3.85,3.85,0,0,1,2.081-1.419,10.538,10.538,0,0,1,2.451-.29c.484-.02.984-.04,1.47-.1a8.366,8.366,0,0,1,.974-.062c1.917,0,3.1.807,4.069,2.784a109.779,109.779,0,0,0,8.268,13.873q-1.152-4.548-2.307-9.115l-1.551-6.129a5.908,5.908,0,0,1,1.437-.182,9.07,9.07,0,0,1,4.033,1.222c.3.146.605.3.906.431a77.071,77.071,0,0,1,12.386,7.109,136.047,136.047,0,0,1,11,8.637A185.182,185.182,0,0,1,142.448,78.95a169.937,169.937,0,0,1,14.4,18.425,118.53,118.53,0,0,1,7.248,12.209,96.659,96.659,0,0,1,5.489,12.907,57.53,57.53,0,0,1,2.945,13.052,41.844,41.844,0,0,1,.124,6.567,37.643,37.643,0,0,1-1,6.588,38.52,38.52,0,0,1-2.37,6.894,31.54,31.54,0,0,1-3.718,6.173,29.616,29.616,0,0,1-5.251,5.248,33.317,33.317,0,0,1-6.97,4.117c-3.744,1.653-8.025,2.413-12.828,3.169-8.029,1.264-16.26,2.16-25.161,2.737C107.458,177.548,99.19,177.8,90.086,177.8ZM71.6,125.3l-8.192,11.848a25.842,25.842,0,0,0,4.675,3.73,33.572,33.572,0,0,0,5.693,2.922,34.309,34.309,0,0,0,7.8,2.078v8.107h9.706v-8.107a21.6,21.6,0,0,0,13.179-6.837,18.389,18.389,0,0,0,3.451-5.816,19.586,19.586,0,0,0,1.18-6.768,16.2,16.2,0,0,0-6.568-13.282c-3.811-3.056-8.639-5-12.9-6.722a48.521,48.521,0,0,1-6.7-3.065c-1.893-1.164-2.775-2.325-2.775-3.656a4.34,4.34,0,0,1,2.182-3.83,8.814,8.814,0,0,1,4.586-1.158,18.192,18.192,0,0,1,5.429.877,24.816,24.816,0,0,1,4.477,1.929,25.758,25.758,0,0,1,4.163,2.806l6.59-12.739a19.81,19.81,0,0,0-4.074-3.006,29.308,29.308,0,0,0-5.092-2.33,33.2,33.2,0,0,0-7.129-1.612V72.565H81.576v8.374a24.238,24.238,0,0,0-6.827,2.351,20.037,20.037,0,0,0-5.383,4.1,18.111,18.111,0,0,0-4.8,12.527c0,5.278,2.172,9.606,6.64,13.233,3.849,3.124,8.7,5.188,12.985,7.009a50.639,50.639,0,0,1,6.593,3.141c1.857,1.162,2.722,2.281,2.722,3.52a4.4,4.4,0,0,1-2.137,3.975,8.8,8.8,0,0,1-4.542,1.1,17.833,17.833,0,0,1-5.76-1.03,26.84,26.84,0,0,1-4.859-2.266A30.318,30.318,0,0,1,71.6,125.3ZM96.874,41.678a1.923,1.923,0,0,1-.824-.223,10.5,10.5,0,0,0-2.8-.832,1.153,1.153,0,0,1-.879-.448c-.128-.235-.088-.558.136-1.081.737-1.721,1.489-3.536,2.3-5.548a11.051,11.051,0,0,0,.365-1.142c.049-.174.1-.351.151-.524l-.367-.179c-.409.59-.831,1.184-1.239,1.758-.952,1.34-1.936,2.726-2.817,4.143a3.775,3.775,0,0,1-3.54,2.178c-.17,0-.35-.007-.537-.022-.513-.039-1.038-.059-1.606-.059-1.58,0-3.2.155-4.761.3-.8.077-1.632.156-2.446.213a3.659,3.659,0,0,0-1.177.372,5.751,5.751,0,0,1-1.936.676c-.595,0-.977-.451-1.9-1.54l-.038-.044c-4.3-5.075-8.84-10.409-13.484-15.852a4.712,4.712,0,0,1-1.2-3.654,7.9,7.9,0,0,1,2.007-4.145,19.108,19.108,0,0,1,6.741-4.784,1.892,1.892,0,0,1,.8-.2c.607,0,1.1.41,1.5,1.254a118.978,118.978,0,0,0,5.793,10.81l-.253-.917c-.184-.672-.375-1.366-.574-2.046-.358-1.219-.724-2.456-1.078-3.652v0c-1.028-3.476-2.092-7.071-3.082-10.622a1.988,1.988,0,0,1,.554-1.633A15.428,15.428,0,0,1,78.558.9,54.951,54.951,0,0,1,88.076,0,40.334,40.334,0,0,1,92.71.261c1.99.231,4.245.492,6.433.948a25.538,25.538,0,0,1,6.177,2.049l.1.05c2.184,1.079,2.184,1.079,1.245,3.3l-.027.064c-1.209,2.86-2.4,5.779-3.561,8.6-.481,1.174-.977,2.387-1.474,3.594l.339.2c.412-.549.83-1.109,1.233-1.65l.011-.015c1.268-1.7,2.58-3.457,3.908-5.154a1.605,1.605,0,0,1,1.034-.491.384.384,0,0,1,.176.035,12.586,12.586,0,0,1,3.749,3.236,8.113,8.113,0,0,1,2,5.032,6.709,6.709,0,0,1-.9,3.12,16.088,16.088,0,0,1-1.884,2.542c-2.547,2.973-5.158,5.976-7.683,8.88l-.006.007c-1.816,2.089-3.694,4.249-5.533,6.38A1.55,1.55,0,0,1,96.874,41.678Z" transform="translate(981.264 1782.082)" fill="#7d0404" stroke="#efefef" stroke-miterlimit="10" stroke-width="2"/>
    </g>
    <g id="Group_391" data-name="Group 391" transform="translate(65 -99)">
      <g id="Rectangle_281-3" data-name="Rectangle 281" transform="translate(1039 1851)" fill="#efefef" stroke="#707070" stroke-width="1">
        <rect width="57" height="95" stroke="none"/>
        <rect x="0.5" y="0.5" width="56" height="94" fill="none"/>
      </g>
      <path id="Subtraction_7-3" data-name="Subtraction 7" d="M90.086,177.8c-7.637,0-15.7-.172-25.37-.538-9.751-.371-19.2-1.143-28.074-2.3a97.443,97.443,0,0,1-17.679-4.249,18.1,18.1,0,0,1-6.751-4.086,47.355,47.355,0,0,1-5.046-5.756,34.282,34.282,0,0,1-3.924-6.295,32.458,32.458,0,0,1-2.32-6.61,35.921,35.921,0,0,1-.9-6.881,44.874,44.874,0,0,1,.339-7.107A60.162,60.162,0,0,1,2.258,124.8a71.551,71.551,0,0,1,3.187-8.78,108.3,108.3,0,0,1,9.31-16.66c2.914-4.375,6.073-8.664,9.387-12.749s6.881-8.082,10.6-11.875,7.687-7.495,11.8-10.994,8.491-6.9,13-10.105A84.466,84.466,0,0,1,70,47.655c1.418-.724,2.884-1.473,4.3-2.237a5.676,5.676,0,0,1,1.668-.451c.384-.068.82-.145,1.318-.258l-3.066,4.708L68.341,58.45l.285.163.207.119,1.4-1.623L71,56.223l.028-.033c1.153-1.334,2.346-2.714,3.517-4.071.563-.653,1.147-1.312,1.712-1.948,1.327-1.5,2.7-3.042,3.908-4.641a3.85,3.85,0,0,1,2.081-1.419,10.538,10.538,0,0,1,2.451-.29c.484-.02.984-.04,1.47-.1a8.366,8.366,0,0,1,.974-.062c1.917,0,3.1.807,4.069,2.784a109.779,109.779,0,0,0,8.268,13.873q-1.152-4.548-2.307-9.115l-1.551-6.129a5.908,5.908,0,0,1,1.437-.182,9.07,9.07,0,0,1,4.033,1.222c.3.146.605.3.906.431a77.071,77.071,0,0,1,12.386,7.109,136.047,136.047,0,0,1,11,8.637A185.182,185.182,0,0,1,142.448,78.95a169.937,169.937,0,0,1,14.4,18.425,118.53,118.53,0,0,1,7.248,12.209,96.659,96.659,0,0,1,5.489,12.907,57.53,57.53,0,0,1,2.945,13.052,41.844,41.844,0,0,1,.124,6.567,37.643,37.643,0,0,1-1,6.588,38.52,38.52,0,0,1-2.37,6.894,31.54,31.54,0,0,1-3.718,6.173,29.616,29.616,0,0,1-5.251,5.248,33.317,33.317,0,0,1-6.97,4.117c-3.744,1.653-8.025,2.413-12.828,3.169-8.029,1.264-16.26,2.16-25.161,2.737C107.458,177.548,99.19,177.8,90.086,177.8ZM71.6,125.3l-8.192,11.848a25.842,25.842,0,0,0,4.675,3.73,33.572,33.572,0,0,0,5.693,2.922,34.309,34.309,0,0,0,7.8,2.078v8.107h9.706v-8.107a21.6,21.6,0,0,0,13.179-6.837,18.389,18.389,0,0,0,3.451-5.816,19.586,19.586,0,0,0,1.18-6.768,16.2,16.2,0,0,0-6.568-13.282c-3.811-3.056-8.639-5-12.9-6.722a48.521,48.521,0,0,1-6.7-3.065c-1.893-1.164-2.775-2.325-2.775-3.656a4.34,4.34,0,0,1,2.182-3.83,8.814,8.814,0,0,1,4.586-1.158,18.192,18.192,0,0,1,5.429.877,24.816,24.816,0,0,1,4.477,1.929,25.758,25.758,0,0,1,4.163,2.806l6.59-12.739a19.81,19.81,0,0,0-4.074-3.006,29.308,29.308,0,0,0-5.092-2.33,33.2,33.2,0,0,0-7.129-1.612V72.565H81.576v8.374a24.238,24.238,0,0,0-6.827,2.351,20.037,20.037,0,0,0-5.383,4.1,18.111,18.111,0,0,0-4.8,12.527c0,5.278,2.172,9.606,6.64,13.233,3.849,3.124,8.7,5.188,12.985,7.009a50.639,50.639,0,0,1,6.593,3.141c1.857,1.162,2.722,2.281,2.722,3.52a4.4,4.4,0,0,1-2.137,3.975,8.8,8.8,0,0,1-4.542,1.1,17.833,17.833,0,0,1-5.76-1.03,26.84,26.84,0,0,1-4.859-2.266A30.318,30.318,0,0,1,71.6,125.3ZM96.874,41.678a1.923,1.923,0,0,1-.824-.223,10.5,10.5,0,0,0-2.8-.832,1.153,1.153,0,0,1-.879-.448c-.128-.235-.088-.558.136-1.081.737-1.721,1.489-3.536,2.3-5.548a11.051,11.051,0,0,0,.365-1.142c.049-.174.1-.351.151-.524l-.367-.179c-.409.59-.831,1.184-1.239,1.758-.952,1.34-1.936,2.726-2.817,4.143a3.775,3.775,0,0,1-3.54,2.178c-.17,0-.35-.007-.537-.022-.513-.039-1.038-.059-1.606-.059-1.58,0-3.2.155-4.761.3-.8.077-1.632.156-2.446.213a3.659,3.659,0,0,0-1.177.372,5.751,5.751,0,0,1-1.936.676c-.595,0-.977-.451-1.9-1.54l-.038-.044c-4.3-5.075-8.84-10.409-13.484-15.852a4.712,4.712,0,0,1-1.2-3.654,7.9,7.9,0,0,1,2.007-4.145,19.108,19.108,0,0,1,6.741-4.784,1.892,1.892,0,0,1,.8-.2c.607,0,1.1.41,1.5,1.254a118.978,118.978,0,0,0,5.793,10.81l-.253-.917c-.184-.672-.375-1.366-.574-2.046-.358-1.219-.724-2.456-1.078-3.652v0c-1.028-3.476-2.092-7.071-3.082-10.622a1.988,1.988,0,0,1,.554-1.633A15.428,15.428,0,0,1,78.558.9,54.951,54.951,0,0,1,88.076,0,40.334,40.334,0,0,1,92.71.261c1.99.231,4.245.492,6.433.948a25.538,25.538,0,0,1,6.177,2.049l.1.05c2.184,1.079,2.184,1.079,1.245,3.3l-.027.064c-1.209,2.86-2.4,5.779-3.561,8.6-.481,1.174-.977,2.387-1.474,3.594l.339.2c.412-.549.83-1.109,1.233-1.65l.011-.015c1.268-1.7,2.58-3.457,3.908-5.154a1.605,1.605,0,0,1,1.034-.491.384.384,0,0,1,.176.035,12.586,12.586,0,0,1,3.749,3.236,8.113,8.113,0,0,1,2,5.032,6.709,6.709,0,0,1-.9,3.12,16.088,16.088,0,0,1-1.884,2.542c-2.547,2.973-5.158,5.976-7.683,8.88l-.006.007c-1.816,2.089-3.694,4.249-5.533,6.38A1.55,1.55,0,0,1,96.874,41.678Z" transform="translate(981.264 1782.082)" fill="#7d0404" stroke="#efefef" stroke-miterlimit="10" stroke-width="2"/>
    </g>
    <g id="Group_390" data-name="Group 390" transform="translate(10 -84)">
      <g id="Rectangle_281-4" data-name="Rectangle 281" transform="translate(1039 1851)" fill="#efefef" stroke="#707070" stroke-width="1">
        <rect width="57" height="95" stroke="none"/>
        <rect x="0.5" y="0.5" width="56" height="94" fill="none"/>
      </g>
      <path id="Subtraction_7-4" data-name="Subtraction 7" d="M90.086,177.8c-7.637,0-15.7-.172-25.37-.538-9.751-.371-19.2-1.143-28.074-2.3a97.443,97.443,0,0,1-17.679-4.249,18.1,18.1,0,0,1-6.751-4.086,47.355,47.355,0,0,1-5.046-5.756,34.282,34.282,0,0,1-3.924-6.295,32.458,32.458,0,0,1-2.32-6.61,35.921,35.921,0,0,1-.9-6.881,44.874,44.874,0,0,1,.339-7.107A60.162,60.162,0,0,1,2.258,124.8a71.551,71.551,0,0,1,3.187-8.78,108.3,108.3,0,0,1,9.31-16.66c2.914-4.375,6.073-8.664,9.387-12.749s6.881-8.082,10.6-11.875,7.687-7.495,11.8-10.994,8.491-6.9,13-10.105A84.466,84.466,0,0,1,70,47.655c1.418-.724,2.884-1.473,4.3-2.237a5.676,5.676,0,0,1,1.668-.451c.384-.068.82-.145,1.318-.258l-3.066,4.708L68.341,58.45l.285.163.207.119,1.4-1.623L71,56.223l.028-.033c1.153-1.334,2.346-2.714,3.517-4.071.563-.653,1.147-1.312,1.712-1.948,1.327-1.5,2.7-3.042,3.908-4.641a3.85,3.85,0,0,1,2.081-1.419,10.538,10.538,0,0,1,2.451-.29c.484-.02.984-.04,1.47-.1a8.366,8.366,0,0,1,.974-.062c1.917,0,3.1.807,4.069,2.784a109.779,109.779,0,0,0,8.268,13.873q-1.152-4.548-2.307-9.115l-1.551-6.129a5.908,5.908,0,0,1,1.437-.182,9.07,9.07,0,0,1,4.033,1.222c.3.146.605.3.906.431a77.071,77.071,0,0,1,12.386,7.109,136.047,136.047,0,0,1,11,8.637A185.182,185.182,0,0,1,142.448,78.95a169.937,169.937,0,0,1,14.4,18.425,118.53,118.53,0,0,1,7.248,12.209,96.659,96.659,0,0,1,5.489,12.907,57.53,57.53,0,0,1,2.945,13.052,41.844,41.844,0,0,1,.124,6.567,37.643,37.643,0,0,1-1,6.588,38.52,38.52,0,0,1-2.37,6.894,31.54,31.54,0,0,1-3.718,6.173,29.616,29.616,0,0,1-5.251,5.248,33.317,33.317,0,0,1-6.97,4.117c-3.744,1.653-8.025,2.413-12.828,3.169-8.029,1.264-16.26,2.16-25.161,2.737C107.458,177.548,99.19,177.8,90.086,177.8ZM71.6,125.3l-8.192,11.848a25.842,25.842,0,0,0,4.675,3.73,33.572,33.572,0,0,0,5.693,2.922,34.309,34.309,0,0,0,7.8,2.078v8.107h9.706v-8.107a21.6,21.6,0,0,0,13.179-6.837,18.389,18.389,0,0,0,3.451-5.816,19.586,19.586,0,0,0,1.18-6.768,16.2,16.2,0,0,0-6.568-13.282c-3.811-3.056-8.639-5-12.9-6.722a48.521,48.521,0,0,1-6.7-3.065c-1.893-1.164-2.775-2.325-2.775-3.656a4.34,4.34,0,0,1,2.182-3.83,8.814,8.814,0,0,1,4.586-1.158,18.192,18.192,0,0,1,5.429.877,24.816,24.816,0,0,1,4.477,1.929,25.758,25.758,0,0,1,4.163,2.806l6.59-12.739a19.81,19.81,0,0,0-4.074-3.006,29.308,29.308,0,0,0-5.092-2.33,33.2,33.2,0,0,0-7.129-1.612V72.565H81.576v8.374a24.238,24.238,0,0,0-6.827,2.351,20.037,20.037,0,0,0-5.383,4.1,18.111,18.111,0,0,0-4.8,12.527c0,5.278,2.172,9.606,6.64,13.233,3.849,3.124,8.7,5.188,12.985,7.009a50.639,50.639,0,0,1,6.593,3.141c1.857,1.162,2.722,2.281,2.722,3.52a4.4,4.4,0,0,1-2.137,3.975,8.8,8.8,0,0,1-4.542,1.1,17.833,17.833,0,0,1-5.76-1.03,26.84,26.84,0,0,1-4.859-2.266A30.318,30.318,0,0,1,71.6,125.3ZM96.874,41.678a1.923,1.923,0,0,1-.824-.223,10.5,10.5,0,0,0-2.8-.832,1.153,1.153,0,0,1-.879-.448c-.128-.235-.088-.558.136-1.081.737-1.721,1.489-3.536,2.3-5.548a11.051,11.051,0,0,0,.365-1.142c.049-.174.1-.351.151-.524l-.367-.179c-.409.59-.831,1.184-1.239,1.758-.952,1.34-1.936,2.726-2.817,4.143a3.775,3.775,0,0,1-3.54,2.178c-.17,0-.35-.007-.537-.022-.513-.039-1.038-.059-1.606-.059-1.58,0-3.2.155-4.761.3-.8.077-1.632.156-2.446.213a3.659,3.659,0,0,0-1.177.372,5.751,5.751,0,0,1-1.936.676c-.595,0-.977-.451-1.9-1.54l-.038-.044c-4.3-5.075-8.84-10.409-13.484-15.852a4.712,4.712,0,0,1-1.2-3.654,7.9,7.9,0,0,1,2.007-4.145,19.108,19.108,0,0,1,6.741-4.784,1.892,1.892,0,0,1,.8-.2c.607,0,1.1.41,1.5,1.254a118.978,118.978,0,0,0,5.793,10.81l-.253-.917c-.184-.672-.375-1.366-.574-2.046-.358-1.219-.724-2.456-1.078-3.652v0c-1.028-3.476-2.092-7.071-3.082-10.622a1.988,1.988,0,0,1,.554-1.633A15.428,15.428,0,0,1,78.558.9,54.951,54.951,0,0,1,88.076,0,40.334,40.334,0,0,1,92.71.261c1.99.231,4.245.492,6.433.948a25.538,25.538,0,0,1,6.177,2.049l.1.05c2.184,1.079,2.184,1.079,1.245,3.3l-.027.064c-1.209,2.86-2.4,5.779-3.561,8.6-.481,1.174-.977,2.387-1.474,3.594l.339.2c.412-.549.83-1.109,1.233-1.65l.011-.015c1.268-1.7,2.58-3.457,3.908-5.154a1.605,1.605,0,0,1,1.034-.491.384.384,0,0,1,.176.035,12.586,12.586,0,0,1,3.749,3.236,8.113,8.113,0,0,1,2,5.032,6.709,6.709,0,0,1-.9,3.12,16.088,16.088,0,0,1-1.884,2.542c-2.547,2.973-5.158,5.976-7.683,8.88l-.006.007c-1.816,2.089-3.694,4.249-5.533,6.38A1.55,1.55,0,0,1,96.874,41.678Z" transform="translate(981.264 1782.082)" fill="#7d0404" stroke="#efefef" stroke-miterlimit="10" stroke-width="2"/>
    </g>
    <g id="Group_392" data-name="Group 392" transform="translate(112 -69)">
      <g id="Rectangle_281-5" data-name="Rectangle 281" transform="translate(1039 1851)" fill="#efefef" stroke="#707070" stroke-width="1">
        <rect width="57" height="95" stroke="none"/>
        <rect x="0.5" y="0.5" width="56" height="94" fill="none"/>
      </g>
      <path id="Subtraction_7-5" data-name="Subtraction 7" d="M90.086,177.8c-7.637,0-15.7-.172-25.37-.538-9.751-.371-19.2-1.143-28.074-2.3a97.443,97.443,0,0,1-17.679-4.249,18.1,18.1,0,0,1-6.751-4.086,47.355,47.355,0,0,1-5.046-5.756,34.282,34.282,0,0,1-3.924-6.295,32.458,32.458,0,0,1-2.32-6.61,35.921,35.921,0,0,1-.9-6.881,44.874,44.874,0,0,1,.339-7.107A60.162,60.162,0,0,1,2.258,124.8a71.551,71.551,0,0,1,3.187-8.78,108.3,108.3,0,0,1,9.31-16.66c2.914-4.375,6.073-8.664,9.387-12.749s6.881-8.082,10.6-11.875,7.687-7.495,11.8-10.994,8.491-6.9,13-10.105A84.466,84.466,0,0,1,70,47.655c1.418-.724,2.884-1.473,4.3-2.237a5.676,5.676,0,0,1,1.668-.451c.384-.068.82-.145,1.318-.258l-3.066,4.708L68.341,58.45l.285.163.207.119,1.4-1.623L71,56.223l.028-.033c1.153-1.334,2.346-2.714,3.517-4.071.563-.653,1.147-1.312,1.712-1.948,1.327-1.5,2.7-3.042,3.908-4.641a3.85,3.85,0,0,1,2.081-1.419,10.538,10.538,0,0,1,2.451-.29c.484-.02.984-.04,1.47-.1a8.366,8.366,0,0,1,.974-.062c1.917,0,3.1.807,4.069,2.784a109.779,109.779,0,0,0,8.268,13.873q-1.152-4.548-2.307-9.115l-1.551-6.129a5.908,5.908,0,0,1,1.437-.182,9.07,9.07,0,0,1,4.033,1.222c.3.146.605.3.906.431a77.071,77.071,0,0,1,12.386,7.109,136.047,136.047,0,0,1,11,8.637A185.182,185.182,0,0,1,142.448,78.95a169.937,169.937,0,0,1,14.4,18.425,118.53,118.53,0,0,1,7.248,12.209,96.659,96.659,0,0,1,5.489,12.907,57.53,57.53,0,0,1,2.945,13.052,41.844,41.844,0,0,1,.124,6.567,37.643,37.643,0,0,1-1,6.588,38.52,38.52,0,0,1-2.37,6.894,31.54,31.54,0,0,1-3.718,6.173,29.616,29.616,0,0,1-5.251,5.248,33.317,33.317,0,0,1-6.97,4.117c-3.744,1.653-8.025,2.413-12.828,3.169-8.029,1.264-16.26,2.16-25.161,2.737C107.458,177.548,99.19,177.8,90.086,177.8ZM71.6,125.3l-8.192,11.848a25.842,25.842,0,0,0,4.675,3.73,33.572,33.572,0,0,0,5.693,2.922,34.309,34.309,0,0,0,7.8,2.078v8.107h9.706v-8.107a21.6,21.6,0,0,0,13.179-6.837,18.389,18.389,0,0,0,3.451-5.816,19.586,19.586,0,0,0,1.18-6.768,16.2,16.2,0,0,0-6.568-13.282c-3.811-3.056-8.639-5-12.9-6.722a48.521,48.521,0,0,1-6.7-3.065c-1.893-1.164-2.775-2.325-2.775-3.656a4.34,4.34,0,0,1,2.182-3.83,8.814,8.814,0,0,1,4.586-1.158,18.192,18.192,0,0,1,5.429.877,24.816,24.816,0,0,1,4.477,1.929,25.758,25.758,0,0,1,4.163,2.806l6.59-12.739a19.81,19.81,0,0,0-4.074-3.006,29.308,29.308,0,0,0-5.092-2.33,33.2,33.2,0,0,0-7.129-1.612V72.565H81.576v8.374a24.238,24.238,0,0,0-6.827,2.351,20.037,20.037,0,0,0-5.383,4.1,18.111,18.111,0,0,0-4.8,12.527c0,5.278,2.172,9.606,6.64,13.233,3.849,3.124,8.7,5.188,12.985,7.009a50.639,50.639,0,0,1,6.593,3.141c1.857,1.162,2.722,2.281,2.722,3.52a4.4,4.4,0,0,1-2.137,3.975,8.8,8.8,0,0,1-4.542,1.1,17.833,17.833,0,0,1-5.76-1.03,26.84,26.84,0,0,1-4.859-2.266A30.318,30.318,0,0,1,71.6,125.3ZM96.874,41.678a1.923,1.923,0,0,1-.824-.223,10.5,10.5,0,0,0-2.8-.832,1.153,1.153,0,0,1-.879-.448c-.128-.235-.088-.558.136-1.081.737-1.721,1.489-3.536,2.3-5.548a11.051,11.051,0,0,0,.365-1.142c.049-.174.1-.351.151-.524l-.367-.179c-.409.59-.831,1.184-1.239,1.758-.952,1.34-1.936,2.726-2.817,4.143a3.775,3.775,0,0,1-3.54,2.178c-.17,0-.35-.007-.537-.022-.513-.039-1.038-.059-1.606-.059-1.58,0-3.2.155-4.761.3-.8.077-1.632.156-2.446.213a3.659,3.659,0,0,0-1.177.372,5.751,5.751,0,0,1-1.936.676c-.595,0-.977-.451-1.9-1.54l-.038-.044c-4.3-5.075-8.84-10.409-13.484-15.852a4.712,4.712,0,0,1-1.2-3.654,7.9,7.9,0,0,1,2.007-4.145,19.108,19.108,0,0,1,6.741-4.784,1.892,1.892,0,0,1,.8-.2c.607,0,1.1.41,1.5,1.254a118.978,118.978,0,0,0,5.793,10.81l-.253-.917c-.184-.672-.375-1.366-.574-2.046-.358-1.219-.724-2.456-1.078-3.652v0c-1.028-3.476-2.092-7.071-3.082-10.622a1.988,1.988,0,0,1,.554-1.633A15.428,15.428,0,0,1,78.558.9,54.951,54.951,0,0,1,88.076,0,40.334,40.334,0,0,1,92.71.261c1.99.231,4.245.492,6.433.948a25.538,25.538,0,0,1,6.177,2.049l.1.05c2.184,1.079,2.184,1.079,1.245,3.3l-.027.064c-1.209,2.86-2.4,5.779-3.561,8.6-.481,1.174-.977,2.387-1.474,3.594l.339.2c.412-.549.83-1.109,1.233-1.65l.011-.015c1.268-1.7,2.58-3.457,3.908-5.154a1.605,1.605,0,0,1,1.034-.491.384.384,0,0,1,.176.035,12.586,12.586,0,0,1,3.749,3.236,8.113,8.113,0,0,1,2,5.032,6.709,6.709,0,0,1-.9,3.12,16.088,16.088,0,0,1-1.884,2.542c-2.547,2.973-5.158,5.976-7.683,8.88l-.006.007c-1.816,2.089-3.694,4.249-5.533,6.38A1.55,1.55,0,0,1,96.874,41.678Z" transform="translate(981.264 1782.082)" fill="#7d0404" stroke="#efefef" stroke-miterlimit="10" stroke-width="2"/>
    </g>
  </g>
</svg>
