<svg xmlns="http://www.w3.org/2000/svg" width="363" height="158" viewBox="0 0 363 158">
  <g id="Group_763" data-name="Group 763" transform="translate(-754 -4265)">
    <g id="Group_400" data-name="Group 400" transform="translate(39.232 3162.371)">
      <path id="Path_1579" data-name="Path 1579" d="M1.23,34.618H116L58.614,1.85ZM41.4,23.962,58.614,14.1l17.21,9.857Z" transform="translate(961.77 1135.15)" fill="#7d0404"/>
      <rect id="Rectangle_135" data-name="Rectangle 135" width="106.562" height="10.656" transform="translate(967.103 1175.096)" fill="#7d0404"/>
      <rect id="Rectangle_136" data-name="Rectangle 136" width="106.562" height="10.656" transform="translate(967.103 1249.517)" fill="#7d0404"/>
      <rect id="Rectangle_137" data-name="Rectangle 137" width="10.656" height="37.297" transform="translate(1015.056 1206.892)" fill="#7d0404"/>
      <rect id="Rectangle_138" data-name="Rectangle 138" width="10.656" height="23.918" transform="translate(993.743 1220.271)" fill="#7d0404"/>
      <rect id="Rectangle_139" data-name="Rectangle 139" width="10.656" height="14.188" transform="translate(972.431 1230.001)" fill="#7d0404"/>
      <rect id="Rectangle_140" data-name="Rectangle 140" width="10.656" height="28.175" transform="translate(1057.681 1216.014)" fill="#7d0404"/>
      <rect id="Rectangle_141" data-name="Rectangle 141" width="10.656" height="14.188" transform="translate(1036.368 1230.001)" fill="#7d0404"/>
      <path id="Path_2520" data-name="Path 2520" d="M1287.137-10644.187l29.135-11.984,22.567-19.412,20.039,30.79,21.067-18.776" transform="translate(-316.756 11867.568)" fill="none" stroke="#e50a17" stroke-width="10"/>
      <rect id="Rectangle_222" data-name="Rectangle 222" width="7.366" height="19.642" transform="translate(965.052 1215.533)" fill="#efefef"/>
      <path id="Polygon_3" data-name="Polygon 3" d="M7.906,0l7.906,13.987H0Z" transform="translate(1065.579 1190.906) rotate(47)" fill="#e50a17"/>
      <path id="Polygon_5" data-name="Polygon 5" d="M21.688,0,43.377,14.732H0Z" transform="translate(1000.244 1145.966)" fill="#7d0407"/>
    </g>
    <rect id="Rectangle_283" data-name="Rectangle 283" width="89" height="158" transform="translate(754 4265)" fill="#10416b"/>
    <g id="Rectangle_284" data-name="Rectangle 284" transform="translate(759 4271)" fill="#efefef" stroke="#070707" stroke-width="1">
      <rect width="80" height="12" stroke="none"/>
      <rect x="0.5" y="0.5" width="79" height="11" fill="none"/>
    </g>
    <g id="Rectangle_305" data-name="Rectangle 305" transform="translate(788 4403)" fill="#c1d9ee" stroke="#070707" stroke-width="1">
      <rect width="11" height="20" stroke="none"/>
      <rect x="0.5" y="0.5" width="10" height="19" fill="none"/>
    </g>
    <g id="Rectangle_306" data-name="Rectangle 306" transform="translate(798 4403)" fill="#c1d9ee" stroke="#070707" stroke-width="1">
      <rect width="11" height="20" stroke="none"/>
      <rect x="0.5" y="0.5" width="10" height="19" fill="none"/>
    </g>
    <rect id="Rectangle_307" data-name="Rectangle 307" width="10" height="10" transform="translate(759 4290)" fill="#fff"/>
    <rect id="Rectangle_318" data-name="Rectangle 318" width="10" height="10" transform="translate(759 4307)" fill="#fff"/>
    <rect id="Rectangle_324" data-name="Rectangle 324" width="10" height="10" transform="translate(759 4324)" fill="#fff"/>
    <rect id="Rectangle_330" data-name="Rectangle 330" width="10" height="10" transform="translate(759 4341)" fill="#fff"/>
    <rect id="Rectangle_336" data-name="Rectangle 336" width="10" height="10" transform="translate(759 4358)" fill="#fff"/>
    <rect id="Rectangle_342" data-name="Rectangle 342" width="10" height="10" transform="translate(759 4375)" fill="#fff"/>
    <rect id="Rectangle_308" data-name="Rectangle 308" width="10" height="10" transform="translate(829 4290)" fill="#fff"/>
    <rect id="Rectangle_313" data-name="Rectangle 313" width="10" height="10" transform="translate(829 4307)" fill="#fff"/>
    <rect id="Rectangle_319" data-name="Rectangle 319" width="10" height="10" transform="translate(829 4324)" fill="#fff"/>
    <rect id="Rectangle_325" data-name="Rectangle 325" width="10" height="10" transform="translate(829 4341)" fill="#fff"/>
    <rect id="Rectangle_331" data-name="Rectangle 331" width="10" height="10" transform="translate(829 4358)" fill="#fff"/>
    <rect id="Rectangle_337" data-name="Rectangle 337" width="10" height="10" transform="translate(829 4375)" fill="#fff"/>
    <rect id="Rectangle_309" data-name="Rectangle 309" width="10" height="10" transform="translate(815 4290)" fill="#fff"/>
    <rect id="Rectangle_314" data-name="Rectangle 314" width="10" height="10" transform="translate(815 4307)" fill="#fff"/>
    <rect id="Rectangle_320" data-name="Rectangle 320" width="10" height="10" transform="translate(815 4324)" fill="#fff"/>
    <rect id="Rectangle_326" data-name="Rectangle 326" width="10" height="10" transform="translate(815 4341)" fill="#fff"/>
    <rect id="Rectangle_332" data-name="Rectangle 332" width="10" height="10" transform="translate(815 4358)" fill="#fff"/>
    <rect id="Rectangle_338" data-name="Rectangle 338" width="10" height="10" transform="translate(815 4375)" fill="#fff"/>
    <rect id="Rectangle_310" data-name="Rectangle 310" width="10" height="10" transform="translate(801 4290)" fill="#fff"/>
    <rect id="Rectangle_315" data-name="Rectangle 315" width="10" height="10" transform="translate(801 4307)" fill="#fff"/>
    <rect id="Rectangle_321" data-name="Rectangle 321" width="10" height="10" transform="translate(801 4324)" fill="#fff"/>
    <rect id="Rectangle_327" data-name="Rectangle 327" width="10" height="10" transform="translate(801 4341)" fill="#fff"/>
    <rect id="Rectangle_333" data-name="Rectangle 333" width="10" height="10" transform="translate(801 4358)" fill="#fff"/>
    <rect id="Rectangle_339" data-name="Rectangle 339" width="10" height="10" transform="translate(801 4375)" fill="#fff"/>
    <rect id="Rectangle_311" data-name="Rectangle 311" width="10" height="10" transform="translate(787 4290)" fill="#fff"/>
    <rect id="Rectangle_316" data-name="Rectangle 316" width="10" height="10" transform="translate(787 4307)" fill="#fff"/>
    <rect id="Rectangle_322" data-name="Rectangle 322" width="10" height="10" transform="translate(787 4324)" fill="#fff"/>
    <rect id="Rectangle_328" data-name="Rectangle 328" width="10" height="10" transform="translate(787 4341)" fill="#fff"/>
    <rect id="Rectangle_334" data-name="Rectangle 334" width="10" height="10" transform="translate(787 4358)" fill="#fff"/>
    <rect id="Rectangle_340" data-name="Rectangle 340" width="10" height="10" transform="translate(787 4375)" fill="#fff"/>
    <rect id="Rectangle_312" data-name="Rectangle 312" width="10" height="10" transform="translate(773 4290)" fill="#fff"/>
    <rect id="Rectangle_317" data-name="Rectangle 317" width="10" height="10" transform="translate(773 4307)" fill="#fff"/>
    <rect id="Rectangle_323" data-name="Rectangle 323" width="10" height="10" transform="translate(773 4324)" fill="#fff"/>
    <rect id="Rectangle_329" data-name="Rectangle 329" width="10" height="10" transform="translate(773 4341)" fill="#fff"/>
    <rect id="Rectangle_335" data-name="Rectangle 335" width="10" height="10" transform="translate(773 4358)" fill="#fff"/>
    <rect id="Rectangle_341" data-name="Rectangle 341" width="10" height="10" transform="translate(773 4375)" fill="#fff"/>
    <g id="Group_413" data-name="Group 413" transform="translate(-7690.23 13160)">
      <g id="Group_411" data-name="Group 411" transform="translate(8553 -8808)">
        <path id="Path_2570" data-name="Path 2570" d="M640.393,859.969c-2.924,2.124-5.807,4.306-8.786,6.35-1.975,1.355-3.347,2.928-2.508,5.44a5.2,5.2,0,0,0,5.229,3.7,11.54,11.54,0,0,0,4.207-.855c3.67-1.439,7.221-3.2,10.932-4.507a4.724,4.724,0,0,1,3.828.526c7.847,5.992,15.557,12.165,23.322,18.265,1.776,1.395,3.26,2.962,1.519,5.2-1.844,2.367-3.771,1.246-5.64-.239q-9.279-7.371-18.618-14.664c-.746-.584-1.589-1.043-2.387-1.56l-.648.769a24.323,24.323,0,0,0,1.942,1.917c5.292,4.2,10.628,8.345,15.907,12.562,2.33,1.861,2.6,3.98.781,5.482-1.708,1.413-3.232.753-4.756-.457q-7.813-6.207-15.69-12.335a24.689,24.689,0,0,0-2.622-1.578l-.568.775c.7.649,1.357,1.344,2.1,1.938,4.139,3.312,8.279,6.623,12.458,9.886,1.8,1.4,2.7,3.07,1.18,5.048-1.562,2.038-3.485,1.512-5.14.007-2.683-2.44-5.478-4.552-7.715-7.722-2.1-2.973-6.7-4.273-10.346-5.988-.825-.388-2.274.552-3.493.9-2.913-3.219-3.855-3.381-7.935-1.287-3.126-3.783-5.169-3.761-8.9.181l-11-6.348c3.646-6.565,7.12-12.917,10.746-19.181a2.586,2.586,0,0,1,2.443-.672c3.662,2.022,7.138,1.247,10.758-.106,2.914-1.089,5.962-1.823,8.95-2.714Z" transform="translate(-586.808 -850.039)" fill="#10416b"/>
        <path id="Path_2572" data-name="Path 2572" d="M571.207,868c-.836-.39-1.316-.583-1.768-.83-4.365-2.382-8.69-4.839-13.1-7.129-1.774-.92-1.767-1.9-.9-3.458,3.423-6.158,6.815-12.335,10.108-18.564.955-1.806,1.906-2.049,3.656-1.043,4.129,2.376,8.332,4.628,12.551,6.842,1.7.894,2.221,1.832,1.186,3.674-3.45,6.143-6.755,12.367-10.157,18.537A14.149,14.149,0,0,1,571.207,868Z" transform="translate(-554.867 -836.384)" fill="#10416b"/>
      </g>
      <g id="Group_412" data-name="Group 412" transform="translate(8585.199 -8807.945)">
        <path id="Path_2569" data-name="Path 2569" d="M830.819,859.311c-4.846,2.6-9.729,5.133-14.519,7.833-1.768,1-2.706.768-3.665-1.05q-4.944-9.378-10.129-18.628c-.938-1.681-.6-2.587,1.055-3.451,4.147-2.158,8.3-4.318,12.307-6.728,2.134-1.285,3.189-.993,4.322,1.211,2.849,5.546,5.9,10.991,8.9,16.457a27.305,27.305,0,0,0,1.731,2.482Z" transform="translate(-738.339 -836.524)" fill="#7d0404"/>
        <path id="Path_2571" data-name="Path 2571" d="M692.995,850.121c.658.278,1.522.6,2.35,1,3.553,1.706,7.164,3.31,10.619,5.2,2.482,1.356,4.793,1.759,7.3.263,1.97-1.176,3.229-.8,4.368,1.425,2.741,5.355,5.692,10.61,8.75,15.793,1.118,1.9.773,2.864-.969,3.979a68.33,68.33,0,0,0-6.788,4.958c-1.59,1.32-2.719,1.181-4.294-.1-7.738-6.286-15.619-12.4-23.343-18.7a4.408,4.408,0,0,0-5.325-.7,103.851,103.851,0,0,1-12.061,4.989,7.535,7.535,0,0,1-5.426-.706c-1.893-1.083-1.959-3.082-.036-4.631,7.081-5.7,14.615-10.548,23.689-12.459C692.134,850.37,692.43,850.274,692.995,850.121Z" transform="translate(-655.54 -844.847)" fill="#7d0404"/>
        <path id="Path_2573" data-name="Path 2573" d="M701,949.905a73.145,73.145,0,0,1-3.455,8.83c-.429.8-2.71,1.345-3.651.919a4.013,4.013,0,0,1-1.819-3.37,24.331,24.331,0,0,1,2.5-7.3,4.2,4.2,0,0,1,3.49-1.672C699.127,947.454,700,948.963,701,949.905Z" transform="translate(-671.043 -904.333)" fill="#7d0404"/>
        <path id="Path_2574" data-name="Path 2574" d="M682.948,939.952a81.423,81.423,0,0,1-3.425,8.791,3.588,3.588,0,0,1-3.378,1.055c-1.031-.454-2.335-2.22-2.151-3.145a31.98,31.98,0,0,1,2.861-8.128c.4-.792,2.382-1.329,3.434-1.087C681.309,937.672,682.063,939.058,682.948,939.952Z" transform="translate(-659.977 -898.261)" fill="#7d0404"/>
        <path id="Path_2575" data-name="Path 2575" d="M663.716,934.8c.122,4.422-2.472,8.714-4.541,8.165a4.845,4.845,0,0,1-3.042-3.112c-.485-3.32,2.328-7.558,4.456-7.124C661.914,933,663.026,934.317,663.716,934.8Z" transform="translate(-649.021 -895.396)" fill="#7d0404"/>
        <path id="Path_2576" data-name="Path 2576" d="M637.883,934.767c.04-3.727,1.743-6.03,3.684-5.48a5.084,5.084,0,0,1,3.062,3.071c.545,2.2-1.658,4.919-3.471,4.523C639.78,936.581,638.621,935.272,637.883,934.767Z" transform="translate(-637.883 -893.258)" fill="#7d0404"/>
        <path id="Path_2577" data-name="Path 2577" d="M712.947,960.476c1.233,1.012,2.726,1.684,3.225,2.8a4.787,4.787,0,0,1-.085,4.06c-.557.762-2.6.93-3.8.622-1.988-.512-1.335-2.145-.8-3.529C711.929,963.278,712.342,962.117,712.947,960.476Z" transform="translate(-682.605 -912.399)" fill="#7d0404"/>
      </g>
    </g>
  </g>
</svg>
