<svg xmlns="http://www.w3.org/2000/svg" width="165.005" height="186.005" viewBox="0 0 165.005 186.005">
  <g id="Group_765" data-name="Group 765" transform="translate(0.49 -0.38)">
    <path id="Subtraction_12" data-name="Subtraction 12" d="M23.741,68.946H15.473V62.081a29.361,29.361,0,0,1-6.642-1.76,28.658,28.658,0,0,1-4.85-2.474A21.768,21.768,0,0,1,0,54.689L6.978,44.656A25.644,25.644,0,0,0,10.9,47.447a22.922,22.922,0,0,0,4.139,1.919,15.271,15.271,0,0,0,4.907.872,7.532,7.532,0,0,0,3.868-.933,3.791,3.791,0,0,0,1.315-1.326,4.031,4.031,0,0,0,.5-2.04c0-1.05-.737-2-2.319-2.981A43.241,43.241,0,0,0,17.7,40.3c-3.648-1.542-7.783-3.29-11.061-5.935a15.71,15.71,0,0,1-4.057-4.706,12.877,12.877,0,0,1-1.176-3,14.258,14.258,0,0,1-.423-3.5A15.285,15.285,0,0,1,5.073,12.55,17.057,17.057,0,0,1,9.658,9.081a20.73,20.73,0,0,1,5.816-1.991V0h8.268V6.864a28.423,28.423,0,0,1,6.073,1.365A25.034,25.034,0,0,1,34.151,10.2a17.055,17.055,0,0,1,3.47,2.546L32.009,23.535a22.05,22.05,0,0,0-3.546-2.376,21.206,21.206,0,0,0-3.814-1.634,15.577,15.577,0,0,0-4.624-.743,7.544,7.544,0,0,0-3.906.981,3.994,3.994,0,0,0-1.342,1.311,3.66,3.66,0,0,0-.517,1.933c0,1.126.751,2.11,2.363,3.1a41.447,41.447,0,0,0,5.707,2.6c3.628,1.455,7.74,3.1,10.987,5.692a15.1,15.1,0,0,1,4.015,4.665,12.939,12.939,0,0,1,1.162,3.018,14.845,14.845,0,0,1,.418,3.564,16.5,16.5,0,0,1-1.005,5.731,15.552,15.552,0,0,1-2.939,4.924,18.433,18.433,0,0,1-11.226,5.789v6.864Z" transform="translate(42.216 27.377)" fill="#070707"/>
    <g id="Ellipse_86" data-name="Ellipse 86" transform="translate(-0.49 0.38)" fill="none" stroke="#83b4de" stroke-width="20">
      <ellipse cx="62" cy="61.5" rx="62" ry="61.5" stroke="none"/>
      <ellipse cx="62" cy="61.5" rx="52" ry="51.5" fill="none"/>
    </g>
    <line id="Line_157" data-name="Line 157" x2="49.408" y2="65.608" transform="translate(97.602 103.272)" fill="none" stroke="#83b4de" stroke-linecap="round" stroke-width="25"/>
  </g>
</svg>
