<svg xmlns="http://www.w3.org/2000/svg" width="794" height="165.424" viewBox="0 0 794 165.424">
  <g id="Group_805" data-name="Group 805" transform="translate(-3831 -4655.006)">
    <path id="Path_3141" data-name="Path 3141" d="M.77,13.036A8.053,8.053,0,0,0,9,21.264a8.053,8.053,0,0,0,8.228-8.228A7.956,7.956,0,0,0,9,5.006,7.956,7.956,0,0,0,.77,13.036Zm3.982,0A4.327,4.327,0,0,1,9,8.526a4.327,4.327,0,0,1,4.246,4.51A4.437,4.437,0,0,1,9,17.744,4.437,4.437,0,0,1,4.752,13.036ZM19.4,21H23.21V15.984a4.55,4.55,0,0,1,.22-1.5,2.23,2.23,0,0,1,2.244-1.628c.836,0,1.254.44,1.254,1.5V21h3.806V13.652c0-3.19-1.782-4.246-4.07-4.246a4,4,0,0,0-3.608,1.958h-.044a6,6,0,0,0,.044-.7V9.67H19.4Zm13.838-4.18c0,3.806,2.156,4.29,4.18,4.29a10.347,10.347,0,0,0,1.144-.066v-3.3s-.22.022-.462.022c-.858,0-1.056-.374-1.056-1.452V5.27H33.242Zm5.874,8.008a5.1,5.1,0,0,0,2.64.792,4.88,4.88,0,0,0,4.73-3.41L51.128,9.67H46.97l-1.43,5.28c-.154.616-.374,1.694-.374,1.694h-.044s-.22-1.144-.418-1.76L43.032,9.67H38.72l4.818,11.11-.22.528a1.81,1.81,0,0,1-1.826,1.144,2.527,2.527,0,0,1-1.166-.418ZM56.98,19.2a7.581,7.581,0,0,0,5.368,2.068,5.5,5.5,0,0,0,5.83-5.61c0-2.838-1.892-5.17-5.632-5.17a4.8,4.8,0,0,0-1.144.154h-.044a2.574,2.574,0,0,0,.088-.616l.088-1.452H66.99V5.27h-8.8L57.552,13.5l2.046.77a4.579,4.579,0,0,1,2.112-.528c1.43,0,2.508.726,2.508,1.958a2.037,2.037,0,0,1-2.2,1.936,5.187,5.187,0,0,1-3.19-1.408ZM74.6,15.368c0,3.542,2.86,5.9,6.424,5.9s6.424-2.354,6.424-5.9c0-3.564-2.86-5.962-6.446-5.962C77.462,9.406,74.6,11.8,74.6,15.368Zm3.85,0a2.583,2.583,0,1,1,5.148,0,2.578,2.578,0,1,1-5.148,0Zm10.824,1.65c0,3.19,1.782,4.246,4.026,4.246a3.927,3.927,0,0,0,3.542-1.958h.044a6,6,0,0,0-.044.7V21H100.5V9.67H96.69v5.016c0,1.694-.77,3.124-2.4,3.124-.792,0-1.21-.44-1.21-1.5V9.67H89.276Zm14.608-.2c0,3.806,3.5,4.29,5.3,4.29a7.325,7.325,0,0,0,1.034-.066v-3.3s-.2.022-.506.022c-.726,0-2.024-.176-2.024-1.452V12.838h2.376V9.868H107.69V6.612h-3.7V9.868h-1.562v2.97h1.452Zm12.76-1.452c0,3.542,2.86,5.9,6.424,5.9s6.424-2.354,6.424-5.9c0-3.564-2.86-5.962-6.446-5.962C119.5,9.406,116.644,11.8,116.644,15.368Zm3.85,0a2.583,2.583,0,1,1,5.148,0,2.578,2.578,0,1,1-5.148,0ZM132.176,21h3.806V12.838h2.09V9.868h-2.09V9.516c0-.968,1.166-1.1,1.914-1.1a4.154,4.154,0,0,1,.616.044V5.248a8.941,8.941,0,0,0-1.144-.066c-1.826,0-5.192.506-5.192,4.224v.462H130.79v2.97h1.386Zm12.606,0h10.472V17.7h-3.366V5.27h-3.322L144.32,9.252l2.222,2.376.946-.858a2.972,2.972,0,0,0,.616-.836h.044s-.022.616-.022,1.21V17.7h-3.344Zm18.018.264c4.466,0,5.918-3.652,5.918-8.162s-1.452-8.1-5.918-8.1-5.918,3.586-5.918,8.1S158.334,21.264,162.8,21.264Zm0-3.52c-1.518,0-1.958-2.068-1.958-4.642,0-2.552.44-4.576,1.958-4.576s1.958,2.024,1.958,4.576C164.758,15.676,164.318,17.744,162.8,17.744ZM185.57,21h3.96L184.184,5.27h-4.048L174.79,21h3.96l.946-3.3H184.6ZM182.182,8.856s.352,1.716.638,2.706l.88,3.058h-3.1l.9-3.058c.286-.99.638-2.706.638-2.706ZM190.85,21h3.806V16.314a7.169,7.169,0,0,1,.11-1.408c.264-1.21.88-2.046,2.068-2.046.726,0,.88.594.88,1.43V21h3.806V16.314a6.338,6.338,0,0,1,.088-1.32c.242-1.254.88-2.134,2.09-2.134.726,0,.88.594.88,1.43V21h3.806V13.652c0-3.124-1.606-4.246-3.674-4.246a4.377,4.377,0,0,0-3.63,1.914h-.044a3.281,3.281,0,0,0-3.168-1.914,4.031,4.031,0,0,0-3.366,1.958h-.044a6,6,0,0,0,.044-.7V9.67H190.85Zm19.382-5.676a5.876,5.876,0,0,0,6.226,5.94,7.651,7.651,0,0,0,4.84-1.65l-1.408-2.662a5.94,5.94,0,0,1-3.124,1.144,2.53,2.53,0,0,1-2.64-2.024h7.15s.088-.814.088-1.188c0-3.146-1.892-5.478-5.236-5.478A5.64,5.64,0,0,0,210.232,15.324Zm3.982-1.43a1.857,1.857,0,0,1,1.826-1.628,1.542,1.542,0,0,1,1.5,1.628ZM223.432,21h3.806V16.71a5.137,5.137,0,0,1,.2-1.54,2.86,2.86,0,0,1,2.926-1.98,4.05,4.05,0,0,1,.77.066V9.516a2.572,2.572,0,0,0-.44-.044,3.932,3.932,0,0,0-3.608,2.816h-.044a6,6,0,0,0,.044-.7V9.67h-3.652Zm9.5-12.76h3.718V5.27h-3.718ZM232.892,21H236.7V9.67h-3.806Zm5.786-5.676c0,3.124,2.266,5.94,6.314,5.94a6.816,6.816,0,0,0,4.862-1.87l-1.386-2.662a5.531,5.531,0,0,1-3.1,1.364,2.738,2.738,0,0,1-2.838-2.816,2.605,2.605,0,0,1,2.706-2.706,4.128,4.128,0,0,1,2.662,1.1l1.606-2.552a5.971,5.971,0,0,0-4.51-1.716A5.911,5.911,0,0,0,238.678,15.324Zm12.1,2.288a3.624,3.624,0,0,0,3.85,3.652,3.526,3.526,0,0,0,3.212-1.65h.044a5.994,5.994,0,0,0-.044.7V21h3.476V14.026c0-2.882-1.914-4.62-5.1-4.62a8.569,8.569,0,0,0-4.752,1.474l1.32,2.684a6.762,6.762,0,0,1,3.058-1.078c.946,0,1.672.308,1.672,1.254v.2h-.154C255.6,13.938,250.778,14.312,250.778,17.612Zm3.828-.2c0-.946,1.386-1.3,2.6-1.3h.352v.242a2.1,2.1,0,0,1-1.87,2C254.936,18.36,254.606,17.942,254.606,17.414ZM263.956,21h3.806V15.984a4.55,4.55,0,0,1,.22-1.5,2.23,2.23,0,0,1,2.244-1.628c.836,0,1.254.44,1.254,1.5V21h3.806V13.652c0-3.19-1.782-4.246-4.07-4.246a4,4,0,0,0-3.608,1.958h-.044a5.994,5.994,0,0,0,.044-.7V9.67h-3.652Zm13.112-1.408a6.823,6.823,0,0,0,4.532,1.672c2.926,0,4.642-1.65,4.642-3.586,0-3.652-5.3-3.784-5.3-4.642,0-.4.55-.55,1.122-.55a4.525,4.525,0,0,1,2.684.924l1.3-2.706a5.931,5.931,0,0,0-3.982-1.3c-2.618,0-4.664,1.32-4.664,3.454,0,3.7,5.3,3.806,5.3,4.8,0,.374-.55.528-1.122.528A4.768,4.768,0,0,1,278.7,17.04Zm15.444-4.224c0,3.542,2.86,5.9,6.424,5.9s6.424-2.354,6.424-5.9c0-3.564-2.86-5.962-6.446-5.962C295.372,9.406,292.512,11.8,292.512,15.368Zm3.85,0a2.583,2.583,0,1,1,5.148,0,2.578,2.578,0,1,1-5.148,0ZM309.386,21h4.29l1.276-5.236a10.384,10.384,0,0,0,.22-1.21h.044a10.392,10.392,0,0,0,.22,1.21L316.712,21h4.246l3.168-11.33h-3.96l-1.408,6.688a7.835,7.835,0,0,0-.154,1.188h-.044a6.557,6.557,0,0,0-.176-1.188L316.822,9.67h-3.256L312,16.358a8.08,8.08,0,0,0-.2,1.188h-.044a6.39,6.39,0,0,0-.132-1.188L310.222,9.67h-4Zm16.434,0h3.806V15.984a4.55,4.55,0,0,1,.22-1.5,2.23,2.23,0,0,1,2.244-1.628c.836,0,1.254.44,1.254,1.5V21h3.806V13.652c0-3.19-1.782-4.246-4.07-4.246a4,4,0,0,0-3.608,1.958h-.044a5.994,5.994,0,0,0,.044-.7V9.67H325.82ZM.528,46.592A6.823,6.823,0,0,0,5.06,48.264c2.926,0,4.642-1.65,4.642-3.586,0-3.652-5.3-3.784-5.3-4.642,0-.4.55-.55,1.122-.55a4.525,4.525,0,0,1,2.684.924L9.5,37.7a5.931,5.931,0,0,0-3.982-1.3C2.9,36.406.858,37.726.858,39.86c0,3.7,5.3,3.806,5.3,4.8,0,.374-.55.528-1.122.528A4.768,4.768,0,0,1,2.156,44.04ZM12.342,43.82c0,3.806,3.5,4.29,5.3,4.29a7.324,7.324,0,0,0,1.034-.066v-3.3s-.2.022-.506.022c-.726,0-2.024-.176-2.024-1.452V39.838h2.376v-2.97H16.148V33.612h-3.7v3.256H10.89v2.97h1.452Zm7.722-1.452c0,3.542,2.86,5.9,6.424,5.9s6.424-2.354,6.424-5.9c0-3.564-2.86-5.962-6.446-5.962C22.924,36.406,20.064,38.8,20.064,42.368Zm3.85,0a2.583,2.583,0,1,1,5.148,0,2.578,2.578,0,1,1-5.148,0Zm10.142-.044c0,3.124,2.266,5.94,6.314,5.94a6.816,6.816,0,0,0,4.862-1.87l-1.386-2.662a5.531,5.531,0,0,1-3.1,1.364,2.738,2.738,0,0,1-2.838-2.816,2.605,2.605,0,0,1,2.706-2.706,4.128,4.128,0,0,1,2.662,1.1l1.606-2.552a5.971,5.971,0,0,0-4.51-1.716A5.911,5.911,0,0,0,34.056,42.324ZM47.014,48H50.82V43.6h1.188l2.4,4.4H58.74l-3.784-6.138v-.044l3.322-5.148H54.142L51.9,40.41H50.82V32.27H47.014Zm17.38-5.632c0,3.542,2.86,5.9,6.424,5.9s6.424-2.354,6.424-5.9c0-3.564-2.86-5.962-6.446-5.962C67.254,36.406,64.394,38.8,64.394,42.368Zm3.85,0a2.583,2.583,0,1,1,5.148,0,2.578,2.578,0,1,1-5.148,0ZM79.222,48h3.806V43.71a5.137,5.137,0,0,1,.2-1.54,2.86,2.86,0,0,1,2.926-1.98,4.05,4.05,0,0,1,.77.066v-3.74a2.573,2.573,0,0,0-.44-.044,3.932,3.932,0,0,0-3.608,2.816H82.83a6,6,0,0,0,.044-.7V36.67H79.222Zm14.5,0h3.806V42.984a4.378,4.378,0,0,1,.2-1.452A2.286,2.286,0,0,1,99.99,39.86c.836,0,1.254.44,1.254,1.5V48h3.806V40.652c0-3.19-1.782-4.246-4.07-4.246a3.891,3.891,0,0,0-3.454,1.8h-.044s.044-.4.044-.968V32.27H93.72Zm13.134-3.388a3.624,3.624,0,0,0,3.85,3.652,3.526,3.526,0,0,0,3.212-1.65h.044a6,6,0,0,0-.044.7V48h3.476V41.026c0-2.882-1.914-4.62-5.1-4.62a8.569,8.569,0,0,0-4.752,1.474l1.32,2.684a6.762,6.762,0,0,1,3.058-1.078c.946,0,1.672.308,1.672,1.254v.2h-.154C111.672,40.938,106.854,41.312,106.854,44.612Zm3.828-.2c0-.946,1.386-1.3,2.6-1.3h.352v.242a2.1,2.1,0,0,1-1.87,2C111.012,45.36,110.682,44.942,110.682,44.414ZM122.408,48h4.642l3.85-11.33h-4.026L125.136,42.7c-.22.748-.418,1.958-.418,1.958h-.044a19.344,19.344,0,0,0-.418-1.958L122.5,36.67h-4Zm9.086-5.676a5.876,5.876,0,0,0,6.226,5.94,7.651,7.651,0,0,0,4.84-1.65l-1.408-2.662a5.94,5.94,0,0,1-3.124,1.144,2.53,2.53,0,0,1-2.64-2.024h7.15s.088-.814.088-1.188c0-3.146-1.892-5.478-5.236-5.478A5.64,5.64,0,0,0,131.494,42.324Zm3.982-1.43a1.857,1.857,0,0,1,1.826-1.628,1.542,1.542,0,0,1,1.5,1.628Zm13.4,3.718a3.624,3.624,0,0,0,3.85,3.652,3.526,3.526,0,0,0,3.212-1.65h.044a5.994,5.994,0,0,0-.044.7V48h3.476V41.026c0-2.882-1.914-4.62-5.1-4.62a8.569,8.569,0,0,0-4.752,1.474l1.32,2.684a6.762,6.762,0,0,1,3.058-1.078c.946,0,1.672.308,1.672,1.254v.2h-.154C153.692,40.938,148.874,41.312,148.874,44.612Zm3.828-.2c0-.946,1.386-1.3,2.6-1.3h.352v.242a2.1,2.1,0,0,1-1.87,2C153.032,45.36,152.7,44.942,152.7,44.414Zm13.552-.22h6.974V48h3.806V44.194h1.87V41h-1.87V32.27h-4.708l-6.072,9.592ZM170.17,41V40.96l2.376-3.608a8.383,8.383,0,0,0,.77-1.628h.044a14.059,14.059,0,0,0-.132,1.76V41Zm16.72,7.26c4.466,0,5.918-3.652,5.918-8.162s-1.452-8.1-5.918-8.1-5.918,3.586-5.918,8.1S182.424,48.264,186.89,48.264Zm0-3.52c-1.518,0-1.958-2.068-1.958-4.642,0-2.552.44-4.576,1.958-4.576s1.958,2.024,1.958,4.576C188.848,42.676,188.408,44.744,186.89,44.744ZM195.162,48h10.472V44.7h-3.366V32.27h-3.322L194.7,36.252l2.222,2.376.946-.858a2.972,2.972,0,0,0,.616-.836h.044s-.022.616-.022,1.21V44.7h-3.344Zm14.982,2.09h3.124a20.947,20.947,0,0,1-2.486-9.724,17.31,17.31,0,0,1,2.486-8.866h-3.124a16.242,16.242,0,0,0-2.728,8.866A18.185,18.185,0,0,0,210.144,50.09Zm4.8-2.09h3.806V43.6h1.188l2.4,4.4h4.334l-3.784-6.138v-.044L226.2,36.67h-4.136l-2.244,3.74h-1.078V32.27H214.94ZM230.1,50.09a18.185,18.185,0,0,0,2.728-9.724A16.242,16.242,0,0,0,230.1,31.5h-3.124a17.31,17.31,0,0,1,2.486,8.866,20.947,20.947,0,0,1-2.486,9.724Z" transform="translate(3831 4650)" fill="#a70505"/>
    <path id="Path_3142" data-name="Path 3142" d="M1.848,21H7.634c3.124,0,5.984-1.254,5.984-4.686a3.527,3.527,0,0,0-2.464-3.542v-.044A3.841,3.841,0,0,0,12.98,9.384c0-2.706-2.2-4.114-5.346-4.114H1.848ZM5.7,11.364V8.57H7.612A1.28,1.28,0,0,1,9.064,9.912a1.33,1.33,0,0,1-1.386,1.452Zm0,6.336V14.444H8.03A1.512,1.512,0,0,1,9.68,16.05,1.563,1.563,0,0,1,8.008,17.7Zm10.054-.682c0,3.19,1.782,4.246,4.026,4.246a3.927,3.927,0,0,0,3.542-1.958h.044a6,6,0,0,0-.044.7V21h3.652V9.67H23.166v5.016c0,1.694-.77,3.124-2.4,3.124-.792,0-1.21-.44-1.21-1.5V9.67H15.752Zm14.608-.2c0,3.806,3.5,4.29,5.3,4.29a7.325,7.325,0,0,0,1.034-.066v-3.3s-.2.022-.506.022c-.726,0-2.024-.176-2.024-1.452V12.838h2.376V9.868H34.166V6.612h-3.7V9.868H28.908v2.97H30.36Zm17.292,4.444c4.884,0,7.5-4.466,7.5-8.734,0-5.126-3.212-7.524-6.38-7.524a5.218,5.218,0,0,0-5.368,5.3,5.16,5.16,0,0,0,5.148,5.39,4.423,4.423,0,0,0,2.156-.55h.044a3.432,3.432,0,0,1-3.388,2.6,5.992,5.992,0,0,1-2.156-.462l-1.034,3.3A7.932,7.932,0,0,0,47.652,21.264ZM49.566,12.6a2.2,2.2,0,0,1-2.376-2.31,1.648,1.648,0,0,1,1.584-1.76c1.1,0,2.42,1.254,2.42,3.124C51.194,12.376,50.446,12.6,49.566,12.6Zm12.21,2.772c0,3.542,2.86,5.9,6.424,5.9s6.424-2.354,6.424-5.9c0-3.564-2.86-5.962-6.446-5.962C64.636,9.406,61.776,11.8,61.776,15.368Zm3.85,0a2.583,2.583,0,1,1,5.148,0,2.578,2.578,0,1,1-5.148,0Zm10.824,1.65c0,3.19,1.782,4.246,4.026,4.246a3.927,3.927,0,0,0,3.542-1.958h.044a6,6,0,0,0-.044.7V21H87.67V9.67H83.864v5.016c0,1.694-.77,3.124-2.4,3.124-.792,0-1.21-.44-1.21-1.5V9.67H76.45Zm14.608-.2c0,3.806,3.5,4.29,5.3,4.29a7.325,7.325,0,0,0,1.034-.066v-3.3s-.2.022-.506.022c-.726,0-2.024-.176-2.024-1.452V12.838H97.24V9.868H94.864V6.612h-3.7V9.868H89.606v2.97h1.452Zm12.76-1.452c0,3.542,2.86,5.9,6.424,5.9s6.424-2.354,6.424-5.9c0-3.564-2.86-5.962-6.446-5.962C106.678,9.406,103.818,11.8,103.818,15.368Zm3.85,0a2.583,2.583,0,1,1,5.148,0,2.578,2.578,0,1,1-5.148,0ZM119.35,21h3.806V12.838h2.09V9.868h-2.09V9.516c0-.968,1.166-1.1,1.914-1.1a4.154,4.154,0,0,1,.616.044V5.248a8.941,8.941,0,0,0-1.144-.066c-1.826,0-5.192.506-5.192,4.224v.462h-1.386v2.97h1.386Zm12.606,0h10.472V17.7h-3.366V5.27H135.74l-4.246,3.982,2.222,2.376.946-.858a2.972,2.972,0,0,0,.616-.836h.044s-.022.616-.022,1.21V17.7h-3.344Zm18.018.264c4.466,0,5.918-3.652,5.918-8.162s-1.452-8.1-5.918-8.1-5.918,3.586-5.918,8.1S145.508,21.264,149.974,21.264Zm0-3.52c-1.518,0-1.958-2.068-1.958-4.642,0-2.552.44-4.576,1.958-4.576s1.958,2.024,1.958,4.576C151.932,15.676,151.492,17.744,149.974,17.744ZM172.744,21h3.96L171.358,5.27H167.31L161.964,21h3.96l.946-3.3h4.906ZM169.356,8.856s.352,1.716.638,2.706l.88,3.058h-3.1l.9-3.058c.286-.99.638-2.706.638-2.706ZM178.024,21h3.806V16.314a7.168,7.168,0,0,1,.11-1.408c.264-1.21.88-2.046,2.068-2.046.726,0,.88.594.88,1.43V21h3.806V16.314a6.338,6.338,0,0,1,.088-1.32c.242-1.254.88-2.134,2.09-2.134.726,0,.88.594.88,1.43V21h3.806V13.652c0-3.124-1.606-4.246-3.674-4.246a4.377,4.377,0,0,0-3.63,1.914h-.044a3.281,3.281,0,0,0-3.168-1.914,4.031,4.031,0,0,0-3.366,1.958h-.044a6,6,0,0,0,.044-.7V9.67h-3.652Zm19.382-5.676a5.876,5.876,0,0,0,6.226,5.94,7.651,7.651,0,0,0,4.84-1.65l-1.408-2.662A5.94,5.94,0,0,1,203.94,18.1a2.53,2.53,0,0,1-2.64-2.024h7.15s.088-.814.088-1.188c0-3.146-1.892-5.478-5.236-5.478A5.64,5.64,0,0,0,197.406,15.324Zm3.982-1.43a1.857,1.857,0,0,1,1.826-1.628,1.542,1.542,0,0,1,1.5,1.628ZM210.606,21h3.806V16.71a5.137,5.137,0,0,1,.2-1.54,2.86,2.86,0,0,1,2.926-1.98,4.05,4.05,0,0,1,.77.066V9.516a2.572,2.572,0,0,0-.44-.044,3.932,3.932,0,0,0-3.608,2.816h-.044a6,6,0,0,0,.044-.7V9.67h-3.652Zm9.5-12.76h3.718V5.27H220.11ZM220.066,21h3.806V9.67h-3.806Zm5.786-5.676c0,3.124,2.266,5.94,6.314,5.94a6.816,6.816,0,0,0,4.862-1.87l-1.386-2.662a5.531,5.531,0,0,1-3.1,1.364A2.738,2.738,0,0,1,229.7,15.28a2.605,2.605,0,0,1,2.706-2.706,4.128,4.128,0,0,1,2.662,1.1l1.606-2.552a5.971,5.971,0,0,0-4.51-1.716A5.911,5.911,0,0,0,225.852,15.324Zm12.1,2.288a3.624,3.624,0,0,0,3.85,3.652,3.526,3.526,0,0,0,3.212-1.65h.044a5.994,5.994,0,0,0-.044.7V21h3.476V14.026c0-2.882-1.914-4.62-5.1-4.62a8.569,8.569,0,0,0-4.752,1.474l1.32,2.684a6.762,6.762,0,0,1,3.058-1.078c.946,0,1.672.308,1.672,1.254v.2h-.154C242.77,13.938,237.952,14.312,237.952,17.612Zm3.828-.2c0-.946,1.386-1.3,2.6-1.3h.352v.242a2.1,2.1,0,0,1-1.87,2C242.11,18.36,241.78,17.942,241.78,17.414ZM251.13,21h3.806V15.984a4.55,4.55,0,0,1,.22-1.5A2.23,2.23,0,0,1,257.4,12.86c.836,0,1.254.44,1.254,1.5V21h3.806V13.652c0-3.19-1.782-4.246-4.07-4.246a4,4,0,0,0-3.608,1.958h-.044a6,6,0,0,0,.044-.7V9.67H251.13Zm13.112-1.408a6.823,6.823,0,0,0,4.532,1.672c2.926,0,4.642-1.65,4.642-3.586,0-3.652-5.3-3.784-5.3-4.642,0-.4.55-.55,1.122-.55a4.525,4.525,0,0,1,2.684.924l1.3-2.706a5.931,5.931,0,0,0-3.982-1.3c-2.618,0-4.664,1.32-4.664,3.454,0,3.7,5.3,3.806,5.3,4.8,0,.374-.55.528-1.122.528a4.768,4.768,0,0,1-2.882-1.144ZM280.566,8.24h3.718V5.27h-3.718ZM280.522,21h3.806V9.67h-3.806Zm6.622,0h3.806V15.984a4.55,4.55,0,0,1,.22-1.5,2.23,2.23,0,0,1,2.244-1.628c.836,0,1.254.44,1.254,1.5V21h3.806V13.652c0-3.19-1.782-4.246-4.07-4.246a4,4,0,0,0-3.608,1.958h-.044a5.994,5.994,0,0,0,.044-.7V9.67h-3.652Zm19.6-4.18c0,3.806,3.5,4.29,5.3,4.29a7.324,7.324,0,0,0,1.034-.066v-3.3s-.2.022-.506.022c-.726,0-2.024-.176-2.024-1.452V12.838h2.376V9.868h-2.376V6.612h-3.7V9.868h-1.562v2.97h1.452ZM315.3,21h3.806V15.984a4.378,4.378,0,0,1,.2-1.452,2.286,2.286,0,0,1,2.266-1.672c.836,0,1.254.44,1.254,1.5V21h3.806V13.652c0-3.19-1.782-4.246-4.07-4.246a3.891,3.891,0,0,0-3.454,1.8h-.044s.044-.4.044-.968V5.27H315.3Zm13.178-5.676a5.876,5.876,0,0,0,6.226,5.94,7.651,7.651,0,0,0,4.84-1.65l-1.408-2.662a5.94,5.94,0,0,1-3.124,1.144,2.53,2.53,0,0,1-2.64-2.024h7.15s.088-.814.088-1.188c0-3.146-1.892-5.478-5.236-5.478A5.64,5.64,0,0,0,328.482,15.324Zm3.982-1.43a1.857,1.857,0,0,1,1.826-1.628,1.542,1.542,0,0,1,1.5,1.628ZM1.98,43.82c0,3.806,3.5,4.29,5.3,4.29a7.324,7.324,0,0,0,1.034-.066v-3.3s-.2.022-.506.022c-.726,0-2.024-.176-2.024-1.452V39.838H8.162v-2.97H5.786V33.612H2.09v3.256H.528v2.97H1.98ZM9.7,42.368c0,3.542,2.86,5.9,6.424,5.9s6.424-2.354,6.424-5.9c0-3.564-2.86-5.962-6.446-5.962C12.562,36.406,9.7,38.8,9.7,42.368Zm3.85,0a2.583,2.583,0,1,1,5.148,0,2.578,2.578,0,1,1-5.148,0ZM24.53,52.4h3.806V48.154c0-.572-.044-.968-.044-.968h.044a4.179,4.179,0,0,0,2.882,1.078c3.014,0,5.28-2.332,5.28-5.918,0-3.52-2.024-5.94-5.1-5.94a4.14,4.14,0,0,0-3.432,1.562h-.044a6.645,6.645,0,0,0,.044-.726V36.67H24.53Zm3.7-9.988c0-1.958,1.078-2.794,2.222-2.794,1.32,0,2.222,1.1,2.222,2.794,0,1.738-1.034,2.706-2.222,2.706C28.952,45.118,28.226,43.776,28.226,42.412ZM43.406,48H53.878V44.7H50.512V32.27H47.19l-4.246,3.982,2.222,2.376.946-.858a2.972,2.972,0,0,0,.616-.836h.044s-.022.616-.022,1.21V44.7H43.406Zm18.018.264c4.466,0,5.918-3.652,5.918-8.162s-1.452-8.1-5.918-8.1-5.918,3.586-5.918,8.1S56.958,48.264,61.424,48.264Zm0-3.52c-1.518,0-1.958-2.068-1.958-4.642,0-2.552.44-4.576,1.958-4.576s1.958,2.024,1.958,4.576C63.382,42.676,62.942,44.744,61.424,44.744ZM73.084,39.6a3.872,3.872,0,0,0,3.982-3.784,3.986,3.986,0,0,0-7.964,0A3.858,3.858,0,0,0,73.084,39.6Zm-3.1,8.4h3.344L85.47,32.27H82.126Zm3.1-11.044a1.156,1.156,0,1,1,1.21-1.166A1.184,1.184,0,0,1,73.084,36.956ZM78.5,44.48a3.987,3.987,0,0,0,7.964,0,3.986,3.986,0,0,0-7.964,0Zm2.772-.022a1.211,1.211,0,1,1,1.21,1.166A1.194,1.194,0,0,1,81.268,44.458Zm11.55-2.09c0,3.542,2.86,5.9,6.424,5.9s6.424-2.354,6.424-5.9c0-3.564-2.86-5.962-6.446-5.962C95.678,36.406,92.818,38.8,92.818,42.368Zm3.85,0a2.583,2.583,0,1,1,5.148,0,2.578,2.578,0,1,1-5.148,0ZM108.35,48h3.806V39.838h2.09v-2.97h-2.09v-.352c0-.968,1.166-1.1,1.914-1.1a4.154,4.154,0,0,1,.616.044V32.248a8.941,8.941,0,0,0-1.144-.066c-1.826,0-5.192.506-5.192,4.224v.462h-1.386v2.97h1.386Zm12.826-12.76h3.718V32.27h-3.718ZM121.132,48h3.806V36.67h-3.806Zm6.622,0h3.806V42.984a4.55,4.55,0,0,1,.22-1.5,2.23,2.23,0,0,1,2.244-1.628c.836,0,1.254.44,1.254,1.5V48h3.806V40.652c0-3.19-1.782-4.246-4.07-4.246a4,4,0,0,0-3.608,1.958h-.044a5.994,5.994,0,0,0,.044-.7v-.99h-3.652Zm13.156-5.676c0,3.124,2.266,5.94,6.314,5.94a6.816,6.816,0,0,0,4.862-1.87L150.7,43.732a5.531,5.531,0,0,1-3.1,1.364,2.738,2.738,0,0,1-2.838-2.816,2.605,2.605,0,0,1,2.706-2.706,4.128,4.128,0,0,1,2.662,1.1l1.606-2.552a5.971,5.971,0,0,0-4.51-1.716A5.911,5.911,0,0,0,140.91,42.324Zm12.122.044c0,3.542,2.86,5.9,6.424,5.9s6.424-2.354,6.424-5.9c0-3.564-2.86-5.962-6.446-5.962C155.892,36.406,153.032,38.8,153.032,42.368Zm3.85,0a2.583,2.583,0,1,1,5.148,0,2.578,2.578,0,1,1-5.148,0ZM167.86,48h3.806V43.314a7.168,7.168,0,0,1,.11-1.408c.264-1.21.88-2.046,2.068-2.046.726,0,.88.594.88,1.43V48h3.806V43.314a6.338,6.338,0,0,1,.088-1.32c.242-1.254.88-2.134,2.09-2.134.726,0,.88.594.88,1.43V48h3.806V40.652c0-3.124-1.606-4.246-3.674-4.246a4.377,4.377,0,0,0-3.63,1.914h-.044a3.281,3.281,0,0,0-3.168-1.914,4.031,4.031,0,0,0-3.366,1.958h-.044a6,6,0,0,0,.044-.7v-.99H167.86Zm19.382-5.676a5.876,5.876,0,0,0,6.226,5.94,7.651,7.651,0,0,0,4.84-1.65L196.9,43.952a5.94,5.94,0,0,1-3.124,1.144,2.53,2.53,0,0,1-2.64-2.024h7.15s.088-.814.088-1.188c0-3.146-1.892-5.478-5.236-5.478A5.64,5.64,0,0,0,187.242,42.324Zm3.982-1.43a1.857,1.857,0,0,1,1.826-1.628,1.542,1.542,0,0,1,1.5,1.628Zm13.42,1.474c0,3.542,2.86,5.9,6.424,5.9s6.424-2.354,6.424-5.9c0-3.564-2.86-5.962-6.446-5.962C207.5,36.406,204.644,38.8,204.644,42.368Zm3.85,0a2.583,2.583,0,1,1,5.148,0,2.578,2.578,0,1,1-5.148,0ZM221.518,48h4.29l1.276-5.236a10.392,10.392,0,0,0,.22-1.21h.044a10.392,10.392,0,0,0,.22,1.21L228.844,48h4.246l3.168-11.33H232.3l-1.408,6.688a7.834,7.834,0,0,0-.154,1.188h-.044a6.556,6.556,0,0,0-.176-1.188l-1.562-6.688H225.7l-1.562,6.688a8.079,8.079,0,0,0-.2,1.188h-.044a6.389,6.389,0,0,0-.132-1.188l-1.408-6.688h-4Zm16.434,0h3.806V42.984a4.55,4.55,0,0,1,.22-1.5,2.23,2.23,0,0,1,2.244-1.628c.836,0,1.254.44,1.254,1.5V48h3.806V40.652c0-3.19-1.782-4.246-4.07-4.246a4,4,0,0,0-3.608,1.958h-.044a6,6,0,0,0,.044-.7v-.99h-3.652Zm18.15-1.408a6.823,6.823,0,0,0,4.532,1.672c2.926,0,4.642-1.65,4.642-3.586,0-3.652-5.3-3.784-5.3-4.642,0-.4.55-.55,1.122-.55a4.525,4.525,0,0,1,2.684.924l1.3-2.706a5.931,5.931,0,0,0-3.982-1.3c-2.618,0-4.664,1.32-4.664,3.454,0,3.7,5.3,3.806,5.3,4.8,0,.374-.55.528-1.122.528a4.768,4.768,0,0,1-2.882-1.144Zm11.814-2.772c0,3.806,3.5,4.29,5.3,4.29a7.324,7.324,0,0,0,1.034-.066v-3.3s-.2.022-.506.022c-.726,0-2.024-.176-2.024-1.452V39.838H274.1v-2.97h-2.376V33.612h-3.7v3.256h-1.562v2.97h1.452Zm7.722-1.452c0,3.542,2.86,5.9,6.424,5.9s6.424-2.354,6.424-5.9c0-3.564-2.86-5.962-6.446-5.962C278.5,36.406,275.638,38.8,275.638,42.368Zm3.85,0a2.583,2.583,0,1,1,5.148,0,2.578,2.578,0,1,1-5.148,0Zm10.142-.044c0,3.124,2.266,5.94,6.314,5.94a6.816,6.816,0,0,0,4.862-1.87l-1.386-2.662a5.531,5.531,0,0,1-3.1,1.364,2.738,2.738,0,0,1-2.838-2.816,2.605,2.605,0,0,1,2.706-2.706,4.128,4.128,0,0,1,2.662,1.1l1.606-2.552a5.971,5.971,0,0,0-4.51-1.716A5.911,5.911,0,0,0,289.63,42.324ZM302.588,48h3.806V43.6h1.188l2.4,4.4h4.334l-3.784-6.138v-.044l3.322-5.148h-4.136l-2.244,3.74h-1.078V32.27h-3.806Z" transform="translate(4254 4650)" fill="#a70505"/>
    <g id="Group_381" data-name="Group 381" transform="translate(3831 4732)">
      <path id="Subtraction_6" data-name="Subtraction 6" d="M20.61,58.886H8.833a2.947,2.947,0,0,1-2.944-2.944V35.331L0,29.444V5.889A5.9,5.9,0,0,1,5.889,0H23.555a5.9,5.9,0,0,1,5.889,5.889V29.444l-5.889,5.888V55.942A2.948,2.948,0,0,1,20.61,58.886Z" transform="translate(0 29.544)" fill="#10416b"/>
      <g id="Ellipse_82" data-name="Ellipse 82" transform="translate(3)" fill="none" stroke="#10416b" stroke-width="6">
        <circle cx="12" cy="12" r="12" stroke="none"/>
        <circle cx="12" cy="12" r="9" fill="none"/>
      </g>
    </g>
    <g id="Group_653" data-name="Group 653" transform="translate(4258 4732)">
      <path id="Subtraction_6-2" data-name="Subtraction 6" d="M20.61,58.886H8.833a2.947,2.947,0,0,1-2.944-2.944V35.331L0,29.444V5.889A5.9,5.9,0,0,1,5.889,0H23.555a5.9,5.9,0,0,1,5.889,5.889V29.444l-5.889,5.888V55.942A2.948,2.948,0,0,1,20.61,58.886Z" transform="translate(0 29.544)" fill="#10416b"/>
      <g id="Ellipse_82-2" data-name="Ellipse 82" transform="translate(3)" fill="none" stroke="#10416b" stroke-width="6">
        <circle cx="12" cy="12" r="12" stroke="none"/>
        <circle cx="12" cy="12" r="9" fill="none"/>
      </g>
    </g>
    <g id="Group_643" data-name="Group 643" transform="translate(4018.531 4732)">
      <path id="Subtraction_6-3" data-name="Subtraction 6" d="M20.61,58.886H8.833a2.947,2.947,0,0,1-2.944-2.944V35.331L0,29.444V5.889A5.9,5.9,0,0,1,5.889,0H23.555a5.9,5.9,0,0,1,5.889,5.889V29.444l-5.889,5.888V55.942A2.948,2.948,0,0,1,20.61,58.886Z" transform="translate(0 29.544)" fill="#908f93"/>
      <g id="Ellipse_82-3" data-name="Ellipse 82" transform="translate(3.468)" fill="none" stroke="#908f93" stroke-width="6">
        <ellipse cx="11.5" cy="12" rx="11.5" ry="12" stroke="none"/>
        <ellipse cx="11.5" cy="12" rx="8.5" ry="9" fill="none"/>
      </g>
    </g>
    <g id="Group_644" data-name="Group 644" transform="translate(4445.532 4732)">
      <path id="Subtraction_6-4" data-name="Subtraction 6" d="M20.61,58.886H8.833a2.947,2.947,0,0,1-2.944-2.944V35.331L0,29.444V5.889A5.9,5.9,0,0,1,5.889,0H23.555a5.9,5.9,0,0,1,5.889,5.889V29.444l-5.889,5.888V55.942A2.948,2.948,0,0,1,20.61,58.886Z" transform="translate(0 29.544)" fill="#10416b"/>
      <g id="Ellipse_82-4" data-name="Ellipse 82" transform="translate(3.468)" fill="none" stroke="#10416b" stroke-width="6">
        <ellipse cx="11.5" cy="12" rx="11.5" ry="12" stroke="none"/>
        <ellipse cx="11.5" cy="12" rx="8.5" ry="9" fill="none"/>
      </g>
    </g>
    <g id="Group_635" data-name="Group 635" transform="translate(3868.506 4732)">
      <path id="Subtraction_6-5" data-name="Subtraction 6" d="M20.61,58.886H8.833a2.947,2.947,0,0,1-2.944-2.944V35.331L0,29.444V5.889A5.9,5.9,0,0,1,5.889,0H23.555a5.9,5.9,0,0,1,5.889,5.889V29.444l-5.889,5.888V55.942A2.948,2.948,0,0,1,20.61,58.886Z" transform="translate(0 29.544)" fill="#10416b"/>
      <g id="Ellipse_82-5" data-name="Ellipse 82" transform="translate(3.494)" fill="none" stroke="#10416b" stroke-width="6">
        <ellipse cx="11.5" cy="12" rx="11.5" ry="12" stroke="none"/>
        <ellipse cx="11.5" cy="12" rx="8.5" ry="9" fill="none"/>
      </g>
    </g>
    <g id="Group_645" data-name="Group 645" transform="translate(4295.506 4732)">
      <path id="Subtraction_6-6" data-name="Subtraction 6" d="M20.61,58.886H8.833a2.947,2.947,0,0,1-2.944-2.944V35.331L0,29.444V5.889A5.9,5.9,0,0,1,5.889,0H23.555a5.9,5.9,0,0,1,5.889,5.889V29.444l-5.889,5.888V55.942A2.948,2.948,0,0,1,20.61,58.886Z" transform="translate(0 29.544)" fill="#10416b"/>
      <g id="Ellipse_82-6" data-name="Ellipse 82" transform="translate(3.494)" fill="none" stroke="#10416b" stroke-width="6">
        <ellipse cx="11.5" cy="12" rx="11.5" ry="12" stroke="none"/>
        <ellipse cx="11.5" cy="12" rx="8.5" ry="9" fill="none"/>
      </g>
    </g>
    <g id="Group_639" data-name="Group 639" transform="translate(4056.038 4732)">
      <path id="Subtraction_6-7" data-name="Subtraction 6" d="M20.61,58.886H8.833a2.947,2.947,0,0,1-2.944-2.944V35.331L0,29.444V5.889A5.9,5.9,0,0,1,5.889,0H23.555a5.9,5.9,0,0,1,5.889,5.889V29.444l-5.889,5.888V55.942A2.948,2.948,0,0,1,20.61,58.886Z" transform="translate(0 29.544)" fill="#908f93"/>
      <g id="Ellipse_82-7" data-name="Ellipse 82" transform="translate(2.962)" fill="none" stroke="#908f93" stroke-width="6">
        <circle cx="12" cy="12" r="12" stroke="none"/>
        <circle cx="12" cy="12" r="9" fill="none"/>
      </g>
    </g>
    <g id="Group_646" data-name="Group 646" transform="translate(4483.038 4732)">
      <path id="Subtraction_6-8" data-name="Subtraction 6" d="M20.61,58.886H8.833a2.947,2.947,0,0,1-2.944-2.944V35.331L0,29.444V5.889A5.9,5.9,0,0,1,5.889,0H23.555a5.9,5.9,0,0,1,5.889,5.889V29.444l-5.889,5.888V55.942A2.948,2.948,0,0,1,20.61,58.886Z" transform="translate(0 29.544)" fill="#10416b"/>
      <g id="Ellipse_82-8" data-name="Ellipse 82" transform="translate(2.962)" fill="none" stroke="#10416b" stroke-width="6">
        <circle cx="12" cy="12" r="12" stroke="none"/>
        <circle cx="12" cy="12" r="9" fill="none"/>
      </g>
    </g>
    <g id="Group_636" data-name="Group 636" transform="translate(3906.013 4732)">
      <path id="Subtraction_6-9" data-name="Subtraction 6" d="M20.61,58.886H8.833a2.947,2.947,0,0,1-2.944-2.944V35.331L0,29.444V5.889A5.9,5.9,0,0,1,5.889,0H23.555a5.9,5.9,0,0,1,5.889,5.889V29.444l-5.889,5.888V55.942A2.948,2.948,0,0,1,20.61,58.886Z" transform="translate(0 29.544)" fill="#10416b"/>
      <g id="Ellipse_82-9" data-name="Ellipse 82" transform="translate(2.987)" fill="none" stroke="#10416b" stroke-width="6">
        <circle cx="12" cy="12" r="12" stroke="none"/>
        <circle cx="12" cy="12" r="9" fill="none"/>
      </g>
    </g>
    <g id="Group_647" data-name="Group 647" transform="translate(4333.013 4732)">
      <path id="Subtraction_6-10" data-name="Subtraction 6" d="M20.61,58.886H8.833a2.947,2.947,0,0,1-2.944-2.944V35.331L0,29.444V5.889A5.9,5.9,0,0,1,5.889,0H23.555a5.9,5.9,0,0,1,5.889,5.889V29.444l-5.889,5.888V55.942A2.948,2.948,0,0,1,20.61,58.886Z" transform="translate(0 29.544)" fill="#10416b"/>
      <g id="Ellipse_82-10" data-name="Ellipse 82" transform="translate(2.987)" fill="none" stroke="#10416b" stroke-width="6">
        <circle cx="12" cy="12" r="12" stroke="none"/>
        <circle cx="12" cy="12" r="9" fill="none"/>
      </g>
    </g>
    <g id="Group_640" data-name="Group 640" transform="translate(4093.544 4732)">
      <path id="Subtraction_6-11" data-name="Subtraction 6" d="M20.61,58.886H8.833a2.947,2.947,0,0,1-2.944-2.944V35.331L0,29.444V5.889A5.9,5.9,0,0,1,5.889,0H23.555a5.9,5.9,0,0,1,5.889,5.889V29.444l-5.889,5.888V55.942A2.948,2.948,0,0,1,20.61,58.886Z" transform="translate(0 29.544)" fill="#908f93"/>
      <g id="Ellipse_82-11" data-name="Ellipse 82" transform="translate(3.456)" fill="none" stroke="#908f93" stroke-width="6">
        <ellipse cx="11.5" cy="12" rx="11.5" ry="12" stroke="none"/>
        <ellipse cx="11.5" cy="12" rx="8.5" ry="9" fill="none"/>
      </g>
    </g>
    <g id="Group_648" data-name="Group 648" transform="translate(4520.544 4732)">
      <path id="Subtraction_6-12" data-name="Subtraction 6" d="M20.61,58.886H8.833a2.947,2.947,0,0,1-2.944-2.944V35.331L0,29.444V5.889A5.9,5.9,0,0,1,5.889,0H23.555a5.9,5.9,0,0,1,5.889,5.889V29.444l-5.889,5.888V55.942A2.948,2.948,0,0,1,20.61,58.886Z" transform="translate(0 29.544)" fill="#10416b"/>
      <g id="Ellipse_82-12" data-name="Ellipse 82" transform="translate(3.456)" fill="none" stroke="#10416b" stroke-width="6">
        <ellipse cx="11.5" cy="12" rx="11.5" ry="12" stroke="none"/>
        <ellipse cx="11.5" cy="12" rx="8.5" ry="9" fill="none"/>
      </g>
    </g>
    <g id="Group_637" data-name="Group 637" transform="translate(3943.519 4732)">
      <path id="Subtraction_6-13" data-name="Subtraction 6" d="M20.61,58.886H8.833a2.947,2.947,0,0,1-2.944-2.944V35.331L0,29.444V5.889A5.9,5.9,0,0,1,5.889,0H23.555a5.9,5.9,0,0,1,5.889,5.889V29.444l-5.889,5.888V55.942A2.948,2.948,0,0,1,20.61,58.886Z" transform="translate(0 29.544)" fill="#10416b"/>
      <g id="Ellipse_82-13" data-name="Ellipse 82" transform="translate(3.481)" fill="none" stroke="#10416b" stroke-width="6">
        <ellipse cx="11.5" cy="12" rx="11.5" ry="12" stroke="none"/>
        <ellipse cx="11.5" cy="12" rx="8.5" ry="9" fill="none"/>
      </g>
    </g>
    <g id="Group_649" data-name="Group 649" transform="translate(4370.519 4732)">
      <path id="Subtraction_6-14" data-name="Subtraction 6" d="M20.61,58.886H8.833a2.947,2.947,0,0,1-2.944-2.944V35.331L0,29.444V5.889A5.9,5.9,0,0,1,5.889,0H23.555a5.9,5.9,0,0,1,5.889,5.889V29.444l-5.889,5.888V55.942A2.948,2.948,0,0,1,20.61,58.886Z" transform="translate(0 29.544)" fill="#10416b"/>
      <g id="Ellipse_82-14" data-name="Ellipse 82" transform="translate(3.481)" fill="none" stroke="#10416b" stroke-width="6">
        <ellipse cx="11.5" cy="12" rx="11.5" ry="12" stroke="none"/>
        <ellipse cx="11.5" cy="12" rx="8.5" ry="9" fill="none"/>
      </g>
    </g>
    <g id="Group_641" data-name="Group 641" transform="translate(4131.05 4732)">
      <path id="Subtraction_6-15" data-name="Subtraction 6" d="M20.61,58.886H8.833a2.947,2.947,0,0,1-2.944-2.944V35.331L0,29.444V5.889A5.9,5.9,0,0,1,5.889,0H23.555a5.9,5.9,0,0,1,5.889,5.889V29.444l-5.889,5.888V55.942A2.948,2.948,0,0,1,20.61,58.886Z" transform="translate(0 29.544)" fill="#908f93"/>
      <g id="Ellipse_82-15" data-name="Ellipse 82" transform="translate(2.95)" fill="none" stroke="#908f93" stroke-width="6">
        <circle cx="12" cy="12" r="12" stroke="none"/>
        <circle cx="12" cy="12" r="9" fill="none"/>
      </g>
    </g>
    <g id="Group_650" data-name="Group 650" transform="translate(4558.05 4732)">
      <path id="Subtraction_6-16" data-name="Subtraction 6" d="M20.61,58.886H8.833a2.947,2.947,0,0,1-2.944-2.944V35.331L0,29.444V5.889A5.9,5.9,0,0,1,5.889,0H23.555a5.9,5.9,0,0,1,5.889,5.889V29.444l-5.889,5.888V55.942A2.948,2.948,0,0,1,20.61,58.886Z" transform="translate(0 29.544)" fill="#10416b"/>
      <g id="Ellipse_82-16" data-name="Ellipse 82" transform="translate(2.95)" fill="none" stroke="#10416b" stroke-width="6">
        <circle cx="12" cy="12" r="12" stroke="none"/>
        <circle cx="12" cy="12" r="9" fill="none"/>
      </g>
    </g>
    <g id="Group_638" data-name="Group 638" transform="translate(3981.025 4732)">
      <path id="Subtraction_6-17" data-name="Subtraction 6" d="M20.61,58.886H8.833a2.947,2.947,0,0,1-2.944-2.944V35.331L0,29.444V5.889A5.9,5.9,0,0,1,5.889,0H23.555a5.9,5.9,0,0,1,5.889,5.889V29.444l-5.889,5.888V55.942A2.948,2.948,0,0,1,20.61,58.886Z" transform="translate(0 29.544)" fill="#10416b"/>
      <g id="Ellipse_82-17" data-name="Ellipse 82" transform="translate(2.975)" fill="none" stroke="#10416b" stroke-width="6">
        <circle cx="12" cy="12" r="12" stroke="none"/>
        <circle cx="12" cy="12" r="9" fill="none"/>
      </g>
    </g>
    <g id="Group_651" data-name="Group 651" transform="translate(4408.025 4732)">
      <path id="Subtraction_6-18" data-name="Subtraction 6" d="M20.61,58.886H8.833a2.947,2.947,0,0,1-2.944-2.944V35.331L0,29.444V5.889A5.9,5.9,0,0,1,5.889,0H23.555a5.9,5.9,0,0,1,5.889,5.889V29.444l-5.889,5.888V55.942A2.948,2.948,0,0,1,20.61,58.886Z" transform="translate(0 29.544)" fill="#10416b"/>
      <g id="Ellipse_82-18" data-name="Ellipse 82" transform="translate(2.975)" fill="none" stroke="#10416b" stroke-width="6">
        <circle cx="12" cy="12" r="12" stroke="none"/>
        <circle cx="12" cy="12" r="9" fill="none"/>
      </g>
    </g>
    <g id="Group_642" data-name="Group 642" transform="translate(4168.557 4732)">
      <path id="Subtraction_6-19" data-name="Subtraction 6" d="M20.61,58.886H8.833a2.947,2.947,0,0,1-2.944-2.944V35.331L0,29.444V5.889A5.9,5.9,0,0,1,5.889,0H23.555a5.9,5.9,0,0,1,5.889,5.889V29.444l-5.889,5.888V55.942A2.948,2.948,0,0,1,20.61,58.886Z" transform="translate(0 29.544)" fill="#908f93"/>
      <g id="Ellipse_82-19" data-name="Ellipse 82" transform="translate(3.443)" fill="none" stroke="#908f93" stroke-width="6">
        <ellipse cx="11.5" cy="12" rx="11.5" ry="12" stroke="none"/>
        <ellipse cx="11.5" cy="12" rx="8.5" ry="9" fill="none"/>
      </g>
    </g>
    <g id="Group_652" data-name="Group 652" transform="translate(4595.557 4732)">
      <path id="Subtraction_6-20" data-name="Subtraction 6" d="M20.61,58.886H8.833a2.947,2.947,0,0,1-2.944-2.944V35.331L0,29.444V5.889A5.9,5.9,0,0,1,5.889,0H23.555a5.9,5.9,0,0,1,5.889,5.889V29.444l-5.889,5.888V55.942A2.948,2.948,0,0,1,20.61,58.886Z" transform="translate(0 29.544)" fill="#908f93"/>
      <g id="Ellipse_82-20" data-name="Ellipse 82" transform="translate(3.443)" fill="none" stroke="#908f93" stroke-width="6">
        <ellipse cx="11.5" cy="12" rx="11.5" ry="12" stroke="none"/>
        <ellipse cx="11.5" cy="12" rx="8.5" ry="9" fill="none"/>
      </g>
    </g>
  </g>
</svg>
