<svg xmlns="http://www.w3.org/2000/svg" width="794" height="170.429" viewBox="0 0 794 170.429">
  <g id="Group_756" data-name="Group 756" transform="translate(-109 -3306)">
    <text id="Only_5_out_of_10_Americans_own_stock_or_have_a_401_k_" data-name="Only 5 out of 10 Americans own stock or have a 401(k)" transform="translate(109 3306)" fill="#a70505" font-size="22" font-family="MuseoSans-900, Museo Sans" font-weight="900"><tspan x="0" y="21">Only 5 out of 10 Americans own </tspan><tspan x="0" y="48">stock or have a 401(k)</tspan></text>
    <text id="But_9_out_of_10_Americans_in_the_top_10_of_income_own_stock" data-name="But 9 out of 10 Americans in the top 10% of income own stock" transform="translate(532 3306)" fill="#a70505" font-size="22" font-family="MuseoSans-900, Museo Sans" font-weight="900"><tspan x="0" y="21">But 9 out of 10 Americans in the </tspan><tspan x="0" y="48">top 10% of income own stock</tspan></text>
    <g id="Group_381" data-name="Group 381" transform="translate(109 3388)">
      <path id="Subtraction_6" data-name="Subtraction 6" d="M20.61,58.886H8.833a2.947,2.947,0,0,1-2.944-2.944V35.331L0,29.444V5.889A5.9,5.9,0,0,1,5.889,0H23.555a5.9,5.9,0,0,1,5.889,5.889V29.444l-5.889,5.888V55.942A2.948,2.948,0,0,1,20.61,58.886Z" transform="translate(0 29.544)" fill="#10416b"/>
      <g id="Ellipse_82" data-name="Ellipse 82" transform="translate(3)" fill="none" stroke="#10416b" stroke-width="6">
        <circle cx="12" cy="12" r="12" stroke="none"/>
        <circle cx="12" cy="12" r="9" fill="none"/>
      </g>
    </g>
    <g id="Group_653" data-name="Group 653" transform="translate(536 3388)">
      <path id="Subtraction_6-2" data-name="Subtraction 6" d="M20.61,58.886H8.833a2.947,2.947,0,0,1-2.944-2.944V35.331L0,29.444V5.889A5.9,5.9,0,0,1,5.889,0H23.555a5.9,5.9,0,0,1,5.889,5.889V29.444l-5.889,5.888V55.942A2.948,2.948,0,0,1,20.61,58.886Z" transform="translate(0 29.544)" fill="#10416b"/>
      <g id="Ellipse_82-2" data-name="Ellipse 82" transform="translate(3)" fill="none" stroke="#10416b" stroke-width="6">
        <circle cx="12" cy="12" r="12" stroke="none"/>
        <circle cx="12" cy="12" r="9" fill="none"/>
      </g>
    </g>
    <g id="Group_643" data-name="Group 643" transform="translate(296.532 3388)">
      <path id="Subtraction_6-3" data-name="Subtraction 6" d="M20.61,58.886H8.833a2.947,2.947,0,0,1-2.944-2.944V35.331L0,29.444V5.889A5.9,5.9,0,0,1,5.889,0H23.555a5.9,5.9,0,0,1,5.889,5.889V29.444l-5.889,5.888V55.942A2.948,2.948,0,0,1,20.61,58.886Z" transform="translate(0 29.544)" fill="#908f93"/>
      <g id="Ellipse_82-3" data-name="Ellipse 82" transform="translate(3.468)" fill="none" stroke="#908f93" stroke-width="6">
        <ellipse cx="11.5" cy="12" rx="11.5" ry="12" stroke="none"/>
        <ellipse cx="11.5" cy="12" rx="8.5" ry="9" fill="none"/>
      </g>
    </g>
    <g id="Group_644" data-name="Group 644" transform="translate(723.532 3388)">
      <path id="Subtraction_6-4" data-name="Subtraction 6" d="M20.61,58.886H8.833a2.947,2.947,0,0,1-2.944-2.944V35.331L0,29.444V5.889A5.9,5.9,0,0,1,5.889,0H23.555a5.9,5.9,0,0,1,5.889,5.889V29.444l-5.889,5.888V55.942A2.948,2.948,0,0,1,20.61,58.886Z" transform="translate(0 29.544)" fill="#10416b"/>
      <g id="Ellipse_82-4" data-name="Ellipse 82" transform="translate(3.468)" fill="none" stroke="#10416b" stroke-width="6">
        <ellipse cx="11.5" cy="12" rx="11.5" ry="12" stroke="none"/>
        <ellipse cx="11.5" cy="12" rx="8.5" ry="9" fill="none"/>
      </g>
    </g>
    <g id="Group_635" data-name="Group 635" transform="translate(146.506 3388)">
      <path id="Subtraction_6-5" data-name="Subtraction 6" d="M20.61,58.886H8.833a2.947,2.947,0,0,1-2.944-2.944V35.331L0,29.444V5.889A5.9,5.9,0,0,1,5.889,0H23.555a5.9,5.9,0,0,1,5.889,5.889V29.444l-5.889,5.888V55.942A2.948,2.948,0,0,1,20.61,58.886Z" transform="translate(0 29.544)" fill="#10416b"/>
      <g id="Ellipse_82-5" data-name="Ellipse 82" transform="translate(3.494)" fill="none" stroke="#10416b" stroke-width="6">
        <ellipse cx="11.5" cy="12" rx="11.5" ry="12" stroke="none"/>
        <ellipse cx="11.5" cy="12" rx="8.5" ry="9" fill="none"/>
      </g>
    </g>
    <g id="Group_645" data-name="Group 645" transform="translate(573.506 3388)">
      <path id="Subtraction_6-6" data-name="Subtraction 6" d="M20.61,58.886H8.833a2.947,2.947,0,0,1-2.944-2.944V35.331L0,29.444V5.889A5.9,5.9,0,0,1,5.889,0H23.555a5.9,5.9,0,0,1,5.889,5.889V29.444l-5.889,5.888V55.942A2.948,2.948,0,0,1,20.61,58.886Z" transform="translate(0 29.544)" fill="#10416b"/>
      <g id="Ellipse_82-6" data-name="Ellipse 82" transform="translate(3.494)" fill="none" stroke="#10416b" stroke-width="6">
        <ellipse cx="11.5" cy="12" rx="11.5" ry="12" stroke="none"/>
        <ellipse cx="11.5" cy="12" rx="8.5" ry="9" fill="none"/>
      </g>
    </g>
    <g id="Group_639" data-name="Group 639" transform="translate(334.038 3388)">
      <path id="Subtraction_6-7" data-name="Subtraction 6" d="M20.61,58.886H8.833a2.947,2.947,0,0,1-2.944-2.944V35.331L0,29.444V5.889A5.9,5.9,0,0,1,5.889,0H23.555a5.9,5.9,0,0,1,5.889,5.889V29.444l-5.889,5.888V55.942A2.948,2.948,0,0,1,20.61,58.886Z" transform="translate(0 29.544)" fill="#908f93"/>
      <g id="Ellipse_82-7" data-name="Ellipse 82" transform="translate(2.962)" fill="none" stroke="#908f93" stroke-width="6">
        <circle cx="12" cy="12" r="12" stroke="none"/>
        <circle cx="12" cy="12" r="9" fill="none"/>
      </g>
    </g>
    <g id="Group_646" data-name="Group 646" transform="translate(761.038 3388)">
      <path id="Subtraction_6-8" data-name="Subtraction 6" d="M20.61,58.886H8.833a2.947,2.947,0,0,1-2.944-2.944V35.331L0,29.444V5.889A5.9,5.9,0,0,1,5.889,0H23.555a5.9,5.9,0,0,1,5.889,5.889V29.444l-5.889,5.888V55.942A2.948,2.948,0,0,1,20.61,58.886Z" transform="translate(0 29.544)" fill="#10416b"/>
      <g id="Ellipse_82-8" data-name="Ellipse 82" transform="translate(2.962)" fill="none" stroke="#10416b" stroke-width="6">
        <circle cx="12" cy="12" r="12" stroke="none"/>
        <circle cx="12" cy="12" r="9" fill="none"/>
      </g>
    </g>
    <g id="Group_636" data-name="Group 636" transform="translate(184.013 3388)">
      <path id="Subtraction_6-9" data-name="Subtraction 6" d="M20.61,58.886H8.833a2.947,2.947,0,0,1-2.944-2.944V35.331L0,29.444V5.889A5.9,5.9,0,0,1,5.889,0H23.555a5.9,5.9,0,0,1,5.889,5.889V29.444l-5.889,5.888V55.942A2.948,2.948,0,0,1,20.61,58.886Z" transform="translate(0 29.544)" fill="#10416b"/>
      <g id="Ellipse_82-9" data-name="Ellipse 82" transform="translate(2.987)" fill="none" stroke="#10416b" stroke-width="6">
        <circle cx="12" cy="12" r="12" stroke="none"/>
        <circle cx="12" cy="12" r="9" fill="none"/>
      </g>
    </g>
    <g id="Group_647" data-name="Group 647" transform="translate(611.013 3388)">
      <path id="Subtraction_6-10" data-name="Subtraction 6" d="M20.61,58.886H8.833a2.947,2.947,0,0,1-2.944-2.944V35.331L0,29.444V5.889A5.9,5.9,0,0,1,5.889,0H23.555a5.9,5.9,0,0,1,5.889,5.889V29.444l-5.889,5.888V55.942A2.948,2.948,0,0,1,20.61,58.886Z" transform="translate(0 29.544)" fill="#10416b"/>
      <g id="Ellipse_82-10" data-name="Ellipse 82" transform="translate(2.987)" fill="none" stroke="#10416b" stroke-width="6">
        <circle cx="12" cy="12" r="12" stroke="none"/>
        <circle cx="12" cy="12" r="9" fill="none"/>
      </g>
    </g>
    <g id="Group_640" data-name="Group 640" transform="translate(371.544 3388)">
      <path id="Subtraction_6-11" data-name="Subtraction 6" d="M20.61,58.886H8.833a2.947,2.947,0,0,1-2.944-2.944V35.331L0,29.444V5.889A5.9,5.9,0,0,1,5.889,0H23.555a5.9,5.9,0,0,1,5.889,5.889V29.444l-5.889,5.888V55.942A2.948,2.948,0,0,1,20.61,58.886Z" transform="translate(0 29.544)" fill="#908f93"/>
      <g id="Ellipse_82-11" data-name="Ellipse 82" transform="translate(3.456)" fill="none" stroke="#908f93" stroke-width="6">
        <ellipse cx="11.5" cy="12" rx="11.5" ry="12" stroke="none"/>
        <ellipse cx="11.5" cy="12" rx="8.5" ry="9" fill="none"/>
      </g>
    </g>
    <g id="Group_648" data-name="Group 648" transform="translate(798.544 3388)">
      <path id="Subtraction_6-12" data-name="Subtraction 6" d="M20.61,58.886H8.833a2.947,2.947,0,0,1-2.944-2.944V35.331L0,29.444V5.889A5.9,5.9,0,0,1,5.889,0H23.555a5.9,5.9,0,0,1,5.889,5.889V29.444l-5.889,5.888V55.942A2.948,2.948,0,0,1,20.61,58.886Z" transform="translate(0 29.544)" fill="#10416b"/>
      <g id="Ellipse_82-12" data-name="Ellipse 82" transform="translate(3.456)" fill="none" stroke="#10416b" stroke-width="6">
        <ellipse cx="11.5" cy="12" rx="11.5" ry="12" stroke="none"/>
        <ellipse cx="11.5" cy="12" rx="8.5" ry="9" fill="none"/>
      </g>
    </g>
    <g id="Group_637" data-name="Group 637" transform="translate(221.519 3388)">
      <path id="Subtraction_6-13" data-name="Subtraction 6" d="M20.61,58.886H8.833a2.947,2.947,0,0,1-2.944-2.944V35.331L0,29.444V5.889A5.9,5.9,0,0,1,5.889,0H23.555a5.9,5.9,0,0,1,5.889,5.889V29.444l-5.889,5.888V55.942A2.948,2.948,0,0,1,20.61,58.886Z" transform="translate(0 29.544)" fill="#10416b"/>
      <g id="Ellipse_82-13" data-name="Ellipse 82" transform="translate(3.481)" fill="none" stroke="#10416b" stroke-width="6">
        <ellipse cx="11.5" cy="12" rx="11.5" ry="12" stroke="none"/>
        <ellipse cx="11.5" cy="12" rx="8.5" ry="9" fill="none"/>
      </g>
    </g>
    <g id="Group_649" data-name="Group 649" transform="translate(648.519 3388)">
      <path id="Subtraction_6-14" data-name="Subtraction 6" d="M20.61,58.886H8.833a2.947,2.947,0,0,1-2.944-2.944V35.331L0,29.444V5.889A5.9,5.9,0,0,1,5.889,0H23.555a5.9,5.9,0,0,1,5.889,5.889V29.444l-5.889,5.888V55.942A2.948,2.948,0,0,1,20.61,58.886Z" transform="translate(0 29.544)" fill="#10416b"/>
      <g id="Ellipse_82-14" data-name="Ellipse 82" transform="translate(3.481)" fill="none" stroke="#10416b" stroke-width="6">
        <ellipse cx="11.5" cy="12" rx="11.5" ry="12" stroke="none"/>
        <ellipse cx="11.5" cy="12" rx="8.5" ry="9" fill="none"/>
      </g>
    </g>
    <g id="Group_641" data-name="Group 641" transform="translate(409.05 3388)">
      <path id="Subtraction_6-15" data-name="Subtraction 6" d="M20.61,58.886H8.833a2.947,2.947,0,0,1-2.944-2.944V35.331L0,29.444V5.889A5.9,5.9,0,0,1,5.889,0H23.555a5.9,5.9,0,0,1,5.889,5.889V29.444l-5.889,5.888V55.942A2.948,2.948,0,0,1,20.61,58.886Z" transform="translate(0 29.544)" fill="#908f93"/>
      <g id="Ellipse_82-15" data-name="Ellipse 82" transform="translate(2.95)" fill="none" stroke="#908f93" stroke-width="6">
        <circle cx="12" cy="12" r="12" stroke="none"/>
        <circle cx="12" cy="12" r="9" fill="none"/>
      </g>
    </g>
    <g id="Group_650" data-name="Group 650" transform="translate(836.05 3388)">
      <path id="Subtraction_6-16" data-name="Subtraction 6" d="M20.61,58.886H8.833a2.947,2.947,0,0,1-2.944-2.944V35.331L0,29.444V5.889A5.9,5.9,0,0,1,5.889,0H23.555a5.9,5.9,0,0,1,5.889,5.889V29.444l-5.889,5.888V55.942A2.948,2.948,0,0,1,20.61,58.886Z" transform="translate(0 29.544)" fill="#10416b"/>
      <g id="Ellipse_82-16" data-name="Ellipse 82" transform="translate(2.95)" fill="none" stroke="#10416b" stroke-width="6">
        <circle cx="12" cy="12" r="12" stroke="none"/>
        <circle cx="12" cy="12" r="9" fill="none"/>
      </g>
    </g>
    <g id="Group_638" data-name="Group 638" transform="translate(259.025 3388)">
      <path id="Subtraction_6-17" data-name="Subtraction 6" d="M20.61,58.886H8.833a2.947,2.947,0,0,1-2.944-2.944V35.331L0,29.444V5.889A5.9,5.9,0,0,1,5.889,0H23.555a5.9,5.9,0,0,1,5.889,5.889V29.444l-5.889,5.888V55.942A2.948,2.948,0,0,1,20.61,58.886Z" transform="translate(0 29.544)" fill="#10416b"/>
      <g id="Ellipse_82-17" data-name="Ellipse 82" transform="translate(2.975)" fill="none" stroke="#10416b" stroke-width="6">
        <circle cx="12" cy="12" r="12" stroke="none"/>
        <circle cx="12" cy="12" r="9" fill="none"/>
      </g>
    </g>
    <g id="Group_651" data-name="Group 651" transform="translate(686.025 3388)">
      <path id="Subtraction_6-18" data-name="Subtraction 6" d="M20.61,58.886H8.833a2.947,2.947,0,0,1-2.944-2.944V35.331L0,29.444V5.889A5.9,5.9,0,0,1,5.889,0H23.555a5.9,5.9,0,0,1,5.889,5.889V29.444l-5.889,5.888V55.942A2.948,2.948,0,0,1,20.61,58.886Z" transform="translate(0 29.544)" fill="#10416b"/>
      <g id="Ellipse_82-18" data-name="Ellipse 82" transform="translate(2.975)" fill="none" stroke="#10416b" stroke-width="6">
        <circle cx="12" cy="12" r="12" stroke="none"/>
        <circle cx="12" cy="12" r="9" fill="none"/>
      </g>
    </g>
    <g id="Group_642" data-name="Group 642" transform="translate(446.557 3388)">
      <path id="Subtraction_6-19" data-name="Subtraction 6" d="M20.61,58.886H8.833a2.947,2.947,0,0,1-2.944-2.944V35.331L0,29.444V5.889A5.9,5.9,0,0,1,5.889,0H23.555a5.9,5.9,0,0,1,5.889,5.889V29.444l-5.889,5.888V55.942A2.948,2.948,0,0,1,20.61,58.886Z" transform="translate(0 29.544)" fill="#908f93"/>
      <g id="Ellipse_82-19" data-name="Ellipse 82" transform="translate(3.443)" fill="none" stroke="#908f93" stroke-width="6">
        <ellipse cx="11.5" cy="12" rx="11.5" ry="12" stroke="none"/>
        <ellipse cx="11.5" cy="12" rx="8.5" ry="9" fill="none"/>
      </g>
    </g>
    <g id="Group_652" data-name="Group 652" transform="translate(873.557 3388)">
      <path id="Subtraction_6-20" data-name="Subtraction 6" d="M20.61,58.886H8.833a2.947,2.947,0,0,1-2.944-2.944V35.331L0,29.444V5.889A5.9,5.9,0,0,1,5.889,0H23.555a5.9,5.9,0,0,1,5.889,5.889V29.444l-5.889,5.888V55.942A2.948,2.948,0,0,1,20.61,58.886Z" transform="translate(0 29.544)" fill="#908f93"/>
      <g id="Ellipse_82-20" data-name="Ellipse 82" transform="translate(3.443)" fill="none" stroke="#908f93" stroke-width="6">
        <ellipse cx="11.5" cy="12" rx="11.5" ry="12" stroke="none"/>
        <ellipse cx="11.5" cy="12" rx="8.5" ry="9" fill="none"/>
      </g>
    </g>
  </g>
</svg>
