<svg xmlns="http://www.w3.org/2000/svg" width="372.159" height="655.564" viewBox="0 0 372.159 655.564">
  <g id="Group_786" data-name="Group 786" transform="translate(1494 -4456.738)">
    <g id="Group_698" data-name="Group 698" transform="translate(-3106.712 2145)">
      <g id="Group_686" data-name="Group 686" transform="translate(1621.337 2521.561)">
        <g id="Rectangle_360" data-name="Rectangle 360" fill="#efefef" stroke="#070707" stroke-width="0.5">
          <rect width="43.65" height="55.554" stroke="none"/>
          <rect x="0.25" y="0.25" width="43.15" height="55.054" fill="none"/>
        </g>
        <g id="Rectangle_361" data-name="Rectangle 361" transform="translate(1.984 1.984)" fill="#efefef" stroke="#070707" stroke-width="0.5">
          <rect width="39.682" height="51.586" stroke="none"/>
          <rect x="0.25" y="0.25" width="39.182" height="51.086" fill="none"/>
        </g>
        <path id="Path_2593" data-name="Path 2593" d="M.858,11.578a4.24,4.24,0,0,0,2.394,1.15V13.8H4.531V12.728a2.575,2.575,0,0,0,2.347-2.558c0-2.593-3.814-2.523-3.814-3.52,0-.469.469-.657.892-.657a3.2,3.2,0,0,1,1.854.739l.868-1.678a3.669,3.669,0,0,0-2.147-.915V3.07H3.252v1.1a2.548,2.548,0,0,0-2.241,2.5c0,2.523,3.814,2.605,3.814,3.544,0,.5-.458.669-.88.669a3.477,3.477,0,0,1-2.007-.868Z" transform="translate(17.188 3.211)" fill="#070707"/>
        <g id="Rectangle_362" data-name="Rectangle 362" transform="translate(5.952 19.841)" fill="#efefef" stroke="#070707" stroke-width="0.5">
          <rect width="30.753" height="7.936" stroke="none"/>
          <rect x="0.25" y="0.25" width="30.253" height="7.436" fill="none"/>
        </g>
        <line id="Line_150" data-name="Line 150" x2="30.403" transform="translate(6.653 29.446)" fill="none" stroke="#070707" stroke-width="0.5"/>
        <line id="Line_151" data-name="Line 151" x2="30.403" transform="translate(6.653 31.58)" fill="none" stroke="#070707" stroke-width="0.5"/>
        <line id="Line_155" data-name="Line 155" x2="30.403" transform="translate(6.653 39.58)" fill="none" stroke="#070707" stroke-width="0.5"/>
        <line id="Line_152" data-name="Line 152" x2="30.403" transform="translate(6.653 33.713)" fill="none" stroke="#070707" stroke-width="0.5"/>
        <line id="Line_154" data-name="Line 154" x2="24.003" transform="translate(6.653 41.714)" fill="none" stroke="#070707" stroke-width="0.5"/>
        <line id="Line_156" data-name="Line 156" x2="6.934" transform="translate(6.653 47.048)" fill="none" stroke="#070707" stroke-width="0.5"/>
        <line id="Line_153" data-name="Line 153" x2="24.003" transform="translate(6.653 35.847)" fill="none" stroke="#070707" stroke-width="0.5"/>
      </g>
      <g id="Group_685" data-name="Group 685" transform="translate(1612.712 2535.619)">
        <g id="Rectangle_360-2" data-name="Rectangle 360" fill="#efefef" stroke="#070707" stroke-width="0.5">
          <rect width="43.65" height="55.554" stroke="none"/>
          <rect x="0.25" y="0.25" width="43.15" height="55.054" fill="none"/>
        </g>
        <g id="Rectangle_361-2" data-name="Rectangle 361" transform="translate(1.984 1.984)" fill="#efefef" stroke="#070707" stroke-width="0.5">
          <rect width="39.682" height="51.586" stroke="none"/>
          <rect x="0.25" y="0.25" width="39.182" height="51.086" fill="none"/>
        </g>
        <path id="Path_2593-2" data-name="Path 2593" d="M.858,11.578a4.24,4.24,0,0,0,2.394,1.15V13.8H4.531V12.728a2.575,2.575,0,0,0,2.347-2.558c0-2.593-3.814-2.523-3.814-3.52,0-.469.469-.657.892-.657a3.2,3.2,0,0,1,1.854.739l.868-1.678a3.669,3.669,0,0,0-2.147-.915V3.07H3.252v1.1a2.548,2.548,0,0,0-2.241,2.5c0,2.523,3.814,2.605,3.814,3.544,0,.5-.458.669-.88.669a3.477,3.477,0,0,1-2.007-.868Z" transform="translate(17.188 3.211)" fill="#070707"/>
        <g id="Rectangle_362-2" data-name="Rectangle 362" transform="translate(5.952 19.841)" fill="#efefef" stroke="#070707" stroke-width="0.5">
          <rect width="30.753" height="7.936" stroke="none"/>
          <rect x="0.25" y="0.25" width="30.253" height="7.436" fill="none"/>
        </g>
        <line id="Line_150-2" data-name="Line 150" x2="30.403" transform="translate(6.653 29.446)" fill="none" stroke="#070707" stroke-width="0.5"/>
        <line id="Line_151-2" data-name="Line 151" x2="30.403" transform="translate(6.653 31.58)" fill="none" stroke="#070707" stroke-width="0.5"/>
        <line id="Line_155-2" data-name="Line 155" x2="30.403" transform="translate(6.653 39.58)" fill="none" stroke="#070707" stroke-width="0.5"/>
        <line id="Line_152-2" data-name="Line 152" x2="30.403" transform="translate(6.653 33.713)" fill="none" stroke="#070707" stroke-width="0.5"/>
        <line id="Line_154-2" data-name="Line 154" x2="24.003" transform="translate(6.653 41.714)" fill="none" stroke="#070707" stroke-width="0.5"/>
        <line id="Line_156-2" data-name="Line 156" x2="6.934" transform="translate(6.653 47.048)" fill="none" stroke="#070707" stroke-width="0.5"/>
        <line id="Line_153-2" data-name="Line 153" x2="24.003" transform="translate(6.653 35.847)" fill="none" stroke="#070707" stroke-width="0.5"/>
      </g>
      <g id="Group_672" data-name="Group 672" transform="translate(1635.142 2530.264)">
        <g id="Rectangle_360-3" data-name="Rectangle 360" fill="#efefef" stroke="#070707" stroke-width="0.5">
          <rect width="43.65" height="55.554" stroke="none"/>
          <rect x="0.25" y="0.25" width="43.15" height="55.054" fill="none"/>
        </g>
        <g id="Rectangle_361-3" data-name="Rectangle 361" transform="translate(1.984 1.984)" fill="#efefef" stroke="#070707" stroke-width="0.5">
          <rect width="39.682" height="51.586" stroke="none"/>
          <rect x="0.25" y="0.25" width="39.182" height="51.086" fill="none"/>
        </g>
        <path id="Path_2593-3" data-name="Path 2593" d="M.858,11.578a4.24,4.24,0,0,0,2.394,1.15V13.8H4.531V12.728a2.575,2.575,0,0,0,2.347-2.558c0-2.593-3.814-2.523-3.814-3.52,0-.469.469-.657.892-.657a3.2,3.2,0,0,1,1.854.739l.868-1.678a3.669,3.669,0,0,0-2.147-.915V3.07H3.252v1.1a2.548,2.548,0,0,0-2.241,2.5c0,2.523,3.814,2.605,3.814,3.544,0,.5-.458.669-.88.669a3.477,3.477,0,0,1-2.007-.868Z" transform="translate(17.188 3.211)" fill="#070707"/>
        <g id="Rectangle_362-3" data-name="Rectangle 362" transform="translate(5.952 19.841)" fill="#efefef" stroke="#070707" stroke-width="0.5">
          <rect width="30.753" height="7.936" stroke="none"/>
          <rect x="0.25" y="0.25" width="30.253" height="7.436" fill="none"/>
        </g>
        <line id="Line_150-3" data-name="Line 150" x2="30.403" transform="translate(6.653 29.446)" fill="none" stroke="#070707" stroke-width="0.5"/>
        <line id="Line_151-3" data-name="Line 151" x2="30.403" transform="translate(6.653 31.58)" fill="none" stroke="#070707" stroke-width="0.5"/>
        <line id="Line_155-3" data-name="Line 155" x2="30.403" transform="translate(6.653 39.58)" fill="none" stroke="#070707" stroke-width="0.5"/>
        <line id="Line_152-3" data-name="Line 152" x2="30.403" transform="translate(6.653 33.713)" fill="none" stroke="#070707" stroke-width="0.5"/>
        <line id="Line_154-3" data-name="Line 154" x2="24.003" transform="translate(6.653 41.714)" fill="none" stroke="#070707" stroke-width="0.5"/>
        <line id="Line_156-3" data-name="Line 156" x2="6.934" transform="translate(6.653 47.048)" fill="none" stroke="#070707" stroke-width="0.5"/>
        <line id="Line_153-3" data-name="Line 153" x2="24.003" transform="translate(6.653 35.847)" fill="none" stroke="#070707" stroke-width="0.5"/>
      </g>
    </g>
    <g id="Group_692" data-name="Group 692" transform="translate(-1269.131 4892.482) rotate(90)">
      <path id="Path_2546" data-name="Path 2546" d="M0,7.19,7.2,5.654,44.268,0l2.066,13.877-17,3.085c-12.95,2.462-13.593,5.652-12.2,14.537l.651,16.4-14.3.708L1.019,13.877,0,7.19Z" transform="translate(91.094 39.409) rotate(140)"/>
      <path id="Path_2585" data-name="Path 2585" d="M68.066,0H0" transform="translate(0 35.488)" fill="none" stroke="#000" stroke-width="19"/>
    </g>
    <path id="Path_3109" data-name="Path 3109" d="M0,38.99l6.347,1.353L39,45.325,40.823,33.1,25.842,30.38c39-22.692,92.542-19.974,126.551,9.963l8.167-9.52C121.091-4.538,59.863-6.79,15.4,21.279L18.585,1.82,5.88,0,.9,33.1,0,38.99Z" transform="matrix(-0.035, 0.999, -0.999, -0.035, -1188.544, 4629.518)"/>
    <path id="Path_3110" data-name="Path 3110" d="M0,38.99l6.347,1.353L39,45.325,40.823,33.1,25.842,30.38c39-22.692,92.542-19.974,126.551,9.963l8.167-9.52C121.091-4.538,59.863-6.79,15.4,21.279L18.585,1.82,5.88,0,.9,33.1,0,38.99Z" transform="translate(-1420.227 4789.843) rotate(-90)"/>
    <g id="Group_693" data-name="Group 693" transform="translate(-1174.078 4679.137)">
      <g id="Group_603" data-name="Group 603" transform="translate(0 0)">
        <rect id="Rectangle_142" data-name="Rectangle 142" width="46" height="26" rx="3" transform="translate(0.366 0.863)" fill="#efefef"/>
        <g id="Group_94" data-name="Group 94">
          <path id="Path_1581" data-name="Path 1581" d="M30.659,22a8.659,8.659,0,1,0,8.659,8.659A8.659,8.659,0,0,0,30.659,22Zm0,15.587a6.927,6.927,0,1,1,6.927-6.927A6.927,6.927,0,0,1,30.659,37.587Z" transform="translate(-7.279 -17.67)" fill="#1762a0"/>
          <path id="Path_1582" data-name="Path 1582" d="M31.6,28.464H33.33a.866.866,0,0,0,0-1.732h-.866v-.866a.866.866,0,1,0-1.732,0v1.026a2.591,2.591,0,0,0,.866,5.036.866.866,0,0,1,0,1.732H29.866a.866.866,0,0,0,0,1.732h.866v.866a.866.866,0,1,0,1.732,0V35.231A2.591,2.591,0,0,0,31.6,30.2a.866.866,0,0,1,0-1.732Z" transform="translate(-8.218 -18.073)" fill="#1762a0"/>
          <path id="Path_1583" data-name="Path 1583" d="M50.894,17H5.866A.866.866,0,0,0,5,17.866V42.112a.866.866,0,0,0,.866.866H50.894a.866.866,0,0,0,.866-.866V17.866A.866.866,0,0,0,50.894,17ZM44.9,41.246H11.858A6.065,6.065,0,0,0,6.732,36.12V23.858a6.065,6.065,0,0,0,5.126-5.126H44.9a6.065,6.065,0,0,0,5.126,5.126V36.12A6.065,6.065,0,0,0,44.9,41.246Zm5.126-22.514v3.377a4.342,4.342,0,0,1-3.377-3.377Zm-43.3,0h3.377a4.342,4.342,0,0,1-3.377,3.377Zm0,22.514V37.869a4.342,4.342,0,0,1,3.377,3.377Zm43.3,0H46.651a4.342,4.342,0,0,1,3.377-3.377Z" transform="translate(-5 -17)" fill="#1762a0"/>
        </g>
      </g>
      <g id="Group_602" data-name="Group 602" transform="translate(5.318 16.881)">
        <rect id="Rectangle_142-2" data-name="Rectangle 142" width="46" height="26" rx="3" transform="translate(0.414 0.982)" fill="#efefef"/>
        <g id="Group_94-2" data-name="Group 94" transform="translate(0 0)">
          <path id="Path_1581-2" data-name="Path 1581" d="M30.659,22a8.659,8.659,0,1,0,8.659,8.659A8.659,8.659,0,0,0,30.659,22Zm0,15.587a6.927,6.927,0,1,1,6.927-6.927A6.927,6.927,0,0,1,30.659,37.587Z" transform="translate(-7.279 -17.67)" fill="#1762a0"/>
          <path id="Path_1582-2" data-name="Path 1582" d="M31.6,28.464H33.33a.866.866,0,0,0,0-1.732h-.866v-.866a.866.866,0,1,0-1.732,0v1.026a2.591,2.591,0,0,0,.866,5.036.866.866,0,0,1,0,1.732H29.866a.866.866,0,0,0,0,1.732h.866v.866a.866.866,0,1,0,1.732,0V35.231A2.591,2.591,0,0,0,31.6,30.2a.866.866,0,0,1,0-1.732Z" transform="translate(-8.218 -18.073)" fill="#1762a0"/>
          <path id="Path_1583-2" data-name="Path 1583" d="M50.894,17H5.866A.866.866,0,0,0,5,17.866V42.112a.866.866,0,0,0,.866.866H50.894a.866.866,0,0,0,.866-.866V17.866A.866.866,0,0,0,50.894,17ZM44.9,41.246H11.858A6.065,6.065,0,0,0,6.732,36.12V23.858a6.065,6.065,0,0,0,5.126-5.126H44.9a6.065,6.065,0,0,0,5.126,5.126V36.12A6.065,6.065,0,0,0,44.9,41.246Zm5.126-22.514v3.377a4.342,4.342,0,0,1-3.377-3.377Zm-43.3,0h3.377a4.342,4.342,0,0,1-3.377,3.377Zm0,22.514V37.869a4.342,4.342,0,0,1,3.377,3.377Zm43.3,0H46.651a4.342,4.342,0,0,1,3.377-3.377Z" transform="translate(-5 -17)" fill="#1762a0"/>
        </g>
      </g>
      <g id="Group_600" data-name="Group 600" transform="translate(-7.167 8.952)">
        <rect id="Rectangle_142-3" data-name="Rectangle 142" width="45" height="24" rx="3" transform="translate(0.533 0.911)" fill="#efefef"/>
        <g id="Group_94-3" data-name="Group 94" transform="translate(0 0)">
          <path id="Path_1581-3" data-name="Path 1581" d="M30.659,22a8.659,8.659,0,1,0,8.659,8.659A8.659,8.659,0,0,0,30.659,22Zm0,15.587a6.927,6.927,0,1,1,6.927-6.927A6.927,6.927,0,0,1,30.659,37.587Z" transform="translate(-7.279 -17.67)" fill="#1762a0"/>
          <path id="Path_1582-3" data-name="Path 1582" d="M31.6,28.464H33.33a.866.866,0,0,0,0-1.732h-.866v-.866a.866.866,0,1,0-1.732,0v1.026a2.591,2.591,0,0,0,.866,5.036.866.866,0,0,1,0,1.732H29.866a.866.866,0,0,0,0,1.732h.866v.866a.866.866,0,1,0,1.732,0V35.231A2.591,2.591,0,0,0,31.6,30.2a.866.866,0,0,1,0-1.732Z" transform="translate(-8.218 -18.073)" fill="#1762a0"/>
          <path id="Path_1583-3" data-name="Path 1583" d="M50.894,17H5.866A.866.866,0,0,0,5,17.866V42.112a.866.866,0,0,0,.866.866H50.894a.866.866,0,0,0,.866-.866V17.866A.866.866,0,0,0,50.894,17ZM44.9,41.246H11.858A6.065,6.065,0,0,0,6.732,36.12V23.858a6.065,6.065,0,0,0,5.126-5.126H44.9a6.065,6.065,0,0,0,5.126,5.126V36.12A6.065,6.065,0,0,0,44.9,41.246Zm5.126-22.514v3.377a4.342,4.342,0,0,1-3.377-3.377Zm-43.3,0h3.377a4.342,4.342,0,0,1-3.377,3.377Zm0,22.514V37.869a4.342,4.342,0,0,1,3.377,3.377Zm43.3,0H46.651a4.342,4.342,0,0,1,3.377-3.377Z" transform="translate(-5 -17)" fill="#1762a0"/>
        </g>
      </g>
    </g>
    <g id="Group_694" data-name="Group 694" transform="translate(-1234.204 5112.303) rotate(180)">
      <g id="Group_597" data-name="Group 597" transform="translate(0)">
        <rect id="Rectangle_855" data-name="Rectangle 855" width="9.92" height="24.801" transform="translate(5.198)" fill="#1762a0"/>
        <path id="Polygon_11" data-name="Polygon 11" d="M9.92,0l9.92,17.48H0Z" transform="translate(19.841 38.193) rotate(180)" fill="#1762a0"/>
      </g>
    </g>
    <g id="Group_695" data-name="Group 695" transform="translate(-1253.553 5021.608)">
      <g id="Group_597-2" data-name="Group 597" transform="translate(0)">
        <rect id="Rectangle_855-2" data-name="Rectangle 855" width="9.92" height="24.801" transform="translate(5.198)" fill="#a7050e"/>
        <path id="Polygon_11-2" data-name="Polygon 11" d="M9.92,0l9.92,17.48H0Z" transform="translate(19.841 38.193) rotate(180)" fill="#a7050e"/>
      </g>
    </g>
    <g id="Group_699" data-name="Group 699" transform="translate(-1387.712 4456.738)">
      <path id="Subtraction_11" data-name="Subtraction 11" d="M60.527,20.245H0c0-.029,0-.057,0-.086v-.034a14.442,14.442,0,0,1,2.378-7.833,21.954,21.954,0,0,1,6.486-6.4,33.891,33.891,0,0,1,9.62-4.313A43.506,43.506,0,0,1,30.263,0a43.508,43.508,0,0,1,11.78,1.582,33.892,33.892,0,0,1,9.62,4.313,21.954,21.954,0,0,1,6.486,6.4,14.442,14.442,0,0,1,2.378,7.833c0,.04,0,.08,0,.12Z" transform="translate(49.99 20.981)" fill="#7d0407"/>
      <rect id="Rectangle_135" data-name="Rectangle 135" width="160.141" height="10.294" transform="translate(0 91.884)" fill="#7d0404"/>
      <rect id="Rectangle_349" data-name="Rectangle 349" width="160.141" height="10.294" transform="translate(0 83.332)" fill="#7d0404"/>
      <rect id="Rectangle_353" data-name="Rectangle 353" width="60.527" height="10.294" transform="translate(50.001 46.488)" fill="#7d0404"/>
      <rect id="Rectangle_136" data-name="Rectangle 136" width="160.141" height="10.294" transform="translate(0 148.499)" fill="#7d0404"/>
      <rect id="Rectangle_137" data-name="Rectangle 137" width="10.294" height="36.028" transform="translate(74.662 107.324)" fill="#7d0404"/>
      <rect id="Rectangle_351" data-name="Rectangle 351" width="10.294" height="16.376" transform="translate(74.611 61.843)" fill="#7d0404"/>
      <rect id="Rectangle_355" data-name="Rectangle 355" width="3.057" height="16.376" transform="translate(78.558 0)" fill="#7d0404"/>
      <rect id="Rectangle_138" data-name="Rectangle 138" width="10.294" height="36.028" transform="translate(39.792 107.324)" fill="#7d0404"/>
      <rect id="Rectangle_356" data-name="Rectangle 356" width="10.294" height="36.028" transform="translate(22.687 107.324)" fill="#7d0404"/>
      <rect id="Rectangle_357" data-name="Rectangle 357" width="10.294" height="36.028" transform="translate(57.556 107.324)" fill="#7d0404"/>
      <rect id="Rectangle_358" data-name="Rectangle 358" width="10.294" height="36.028" transform="translate(92.425 107.324)" fill="#7d0404"/>
      <rect id="Rectangle_359" data-name="Rectangle 359" width="10.294" height="36.028" transform="translate(127.294 107.324)" fill="#7d0404"/>
      <rect id="Rectangle_350" data-name="Rectangle 350" width="10.294" height="16.376" transform="translate(54.024 61.843)" fill="#7d0404"/>
      <rect id="Rectangle_139" data-name="Rectangle 139" width="10.294" height="36.028" transform="translate(4.923 107.324)" fill="#7d0404"/>
      <rect id="Rectangle_140" data-name="Rectangle 140" width="10.294" height="36.028" transform="translate(144.4 107.324)" fill="#7d0404"/>
      <rect id="Rectangle_141" data-name="Rectangle 141" width="10.294" height="36.028" transform="translate(109.531 107.324)" fill="#7d0404"/>
      <rect id="Rectangle_352" data-name="Rectangle 352" width="10.294" height="16.376" transform="translate(95.198 61.843)" fill="#7d0404"/>
    </g>
    <g id="Group_696" data-name="Group 696" transform="translate(-1349.361 4786.709)">
      <path id="Path_1579" data-name="Path 1579" d="M1.23,27.192H89.99L45.61,1.85Z" transform="translate(-1.23 -1.85)" fill="#7d0404"/>
      <rect id="Rectangle_135-2" data-name="Rectangle 135" width="82.414" height="8.241" transform="translate(3.173 29.463)" fill="#7d0404"/>
      <rect id="Rectangle_136-2" data-name="Rectangle 136" width="82.414" height="8.241" transform="translate(3.173 74.791)" fill="#7d0404"/>
      <rect id="Rectangle_137-2" data-name="Rectangle 137" width="8.241" height="28.845" transform="translate(40.259 41.825)" fill="#7d0404"/>
      <rect id="Rectangle_138-2" data-name="Rectangle 138" width="8.241" height="28.845" transform="translate(23.776 41.825)" fill="#7d0404"/>
      <rect id="Rectangle_139-2" data-name="Rectangle 139" width="8.241" height="28.845" transform="translate(7.294 41.825)" fill="#7d0404"/>
      <rect id="Rectangle_140-2" data-name="Rectangle 140" width="8.241" height="28.845" transform="translate(73.225 41.825)" fill="#7d0404"/>
      <rect id="Rectangle_141-2" data-name="Rectangle 141" width="8.241" height="28.845" transform="translate(56.742 41.825)" fill="#7d0404"/>
    </g>
    <path id="Path_3195" data-name="Path 3195" d="M1.344,15h2.8V10.76H7.632V8.36H4.144V5.96H8.352V3.56H1.344Zm8.784,0H17.52V12.6H12.928V10.44h3.488V8.04H12.928V5.96H17.3V3.56H10.128Zm9.408,0H23.6c3.6,0,5.9-2.144,5.9-5.744s-2.3-5.7-5.9-5.7H19.536Zm2.8-2.4V5.96h1.152c1.888,0,3.12,1.12,3.12,3.3,0,2.192-1.184,3.344-3.12,3.344Zm12.8,2.4H39.2c3.6,0,5.9-2.144,5.9-5.744s-2.3-5.7-5.9-5.7H35.136Zm2.8-2.4V5.96h1.152c1.888,0,3.12,1.12,3.12,3.3,0,2.192-1.184,3.344-3.12,3.344Zm8.224-1.728a4.273,4.273,0,0,0,4.528,4.32,5.564,5.564,0,0,0,3.52-1.2l-1.024-1.936a4.32,4.32,0,0,1-2.272.832,1.84,1.84,0,0,1-1.92-1.472h5.2s.064-.592.064-.864a3.658,3.658,0,0,0-3.808-3.984A4.1,4.1,0,0,0,46.16,10.872Zm2.9-1.04a1.351,1.351,0,0,1,1.328-1.184,1.122,1.122,0,0,1,1.088,1.184Zm6.1,1.04a4.285,4.285,0,0,0,4.592,4.32,4.957,4.957,0,0,0,3.536-1.36L62.272,11.9a4.023,4.023,0,0,1-2.256.992,1.991,1.991,0,0,1-2.064-2.048A1.9,1.9,0,0,1,59.92,8.872a3,3,0,0,1,1.936.8l1.168-1.856a4.343,4.343,0,0,0-3.28-1.248A4.3,4.3,0,0,0,55.152,10.872ZM64.576,15h2.768V11.88a3.736,3.736,0,0,1,.144-1.12,2.08,2.08,0,0,1,2.128-1.44,2.945,2.945,0,0,1,.56.048V6.648a1.871,1.871,0,0,0-.32-.032,2.86,2.86,0,0,0-2.624,2.048H67.2a4.36,4.36,0,0,0,.032-.512V6.76H64.576Zm6.288-4.128a4.273,4.273,0,0,0,4.528,4.32,5.564,5.564,0,0,0,3.52-1.2l-1.024-1.936a4.32,4.32,0,0,1-2.272.832,1.84,1.84,0,0,1-1.92-1.472h5.2s.064-.592.064-.864a3.658,3.658,0,0,0-3.808-3.984A4.1,4.1,0,0,0,70.864,10.872Zm2.9-1.04a1.351,1.351,0,0,1,1.328-1.184,1.122,1.122,0,0,1,1.088,1.184Zm6.08,2.7a2.636,2.636,0,0,0,2.8,2.656,2.564,2.564,0,0,0,2.336-1.2h.032a4.361,4.361,0,0,0-.032.512V15H87.5V9.928c0-2.1-1.392-3.36-3.712-3.36A6.232,6.232,0,0,0,80.336,7.64l.96,1.952a4.918,4.918,0,0,1,2.224-.784c.688,0,1.216.224,1.216.912v.144h-.112C83.344,9.864,79.84,10.136,79.84,12.536Zm2.784-.144c0-.688,1.008-.944,1.888-.944h.256v.176a1.528,1.528,0,0,1-1.36,1.456C82.864,13.08,82.624,12.776,82.624,12.392Zm6.16,1.584a4.962,4.962,0,0,0,3.3,1.216c2.128,0,3.376-1.2,3.376-2.608,0-2.656-3.856-2.752-3.856-3.376,0-.288.4-.4.816-.4a3.291,3.291,0,0,1,1.952.672l.944-1.968a4.314,4.314,0,0,0-2.9-.944c-1.9,0-3.392.96-3.392,2.512,0,2.688,3.856,2.768,3.856,3.488,0,.272-.4.384-.816.384a3.467,3.467,0,0,1-2.1-.832Zm7.584-3.1a4.273,4.273,0,0,0,4.528,4.32,5.564,5.564,0,0,0,3.52-1.2l-1.024-1.936a4.32,4.32,0,0,1-2.272.832,1.84,1.84,0,0,1-1.92-1.472h5.2s.064-.592.064-.864a3.658,3.658,0,0,0-3.808-3.984A4.1,4.1,0,0,0,96.368,10.872Zm2.9-1.04a1.351,1.351,0,0,1,1.328-1.184,1.122,1.122,0,0,1,1.088,1.184Zm6.064,4.144a4.962,4.962,0,0,0,3.3,1.216c2.128,0,3.376-1.2,3.376-2.608,0-2.656-3.856-2.752-3.856-3.376,0-.288.4-.4.816-.4a3.291,3.291,0,0,1,1.952.672l.944-1.968a4.314,4.314,0,0,0-2.9-.944c-1.9,0-3.392.96-3.392,2.512,0,2.688,3.856,2.768,3.856,3.488,0,.272-.4.384-.816.384a3.467,3.467,0,0,1-2.1-.832ZM.56,28.256a5.739,5.739,0,0,0,6,5.936,6.277,6.277,0,0,0,4.608-1.92l-1.44-2.048a4.69,4.69,0,0,1-3.04,1.408,3.254,3.254,0,0,1-3.232-3.44,3.092,3.092,0,0,1,3.232-3.264A4.8,4.8,0,0,1,9.552,26.1l1.3-2.112A5.961,5.961,0,0,0,6.56,22.368,5.82,5.82,0,0,0,.56,28.256Zm11.36,3.28a2.636,2.636,0,0,0,2.8,2.656,2.564,2.564,0,0,0,2.336-1.2h.032a4.36,4.36,0,0,0-.032.512V34h2.528V28.928c0-2.1-1.392-3.36-3.712-3.36a6.232,6.232,0,0,0-3.456,1.072l.96,1.952a4.918,4.918,0,0,1,2.224-.784c.688,0,1.216.224,1.216.912v.144H16.7C15.424,28.864,11.92,29.136,11.92,31.536Zm2.784-.144c0-.688,1.008-.944,1.888-.944h.256v.176a1.528,1.528,0,0,1-1.36,1.456C14.944,32.08,14.7,31.776,14.7,31.392Zm6.16,1.584a4.962,4.962,0,0,0,3.3,1.216c2.128,0,3.376-1.2,3.376-2.608,0-2.656-3.856-2.752-3.856-3.376,0-.288.4-.4.816-.4a3.291,3.291,0,0,1,1.952.672l.944-1.968a4.314,4.314,0,0,0-2.9-.944c-1.9,0-3.392.96-3.392,2.512,0,2.688,3.856,2.768,3.856,3.488,0,.272-.4.384-.816.384a3.467,3.467,0,0,1-2.1-.832ZM29.04,34h2.768V30.352a3.184,3.184,0,0,1,.144-1.056A1.663,1.663,0,0,1,33.6,28.08c.608,0,.912.32.912,1.088V34H37.28V28.656c0-2.32-1.3-3.088-2.96-3.088a2.83,2.83,0,0,0-2.512,1.312h-.032s.032-.288.032-.7V22.56H29.04ZM43.2,34H46V30.144h1.312L49.344,34h3.12L50.24,30a6.557,6.557,0,0,0-.432-.688V29.28a3.483,3.483,0,0,0,1.712-3.12,3.326,3.326,0,0,0-2.112-3.328,5.919,5.919,0,0,0-2.224-.272H43.2ZM46,27.744V24.96h.944c1.408,0,1.728.512,1.728,1.376a1.309,1.309,0,0,1-1.456,1.408Zm7.168,2.128a4.273,4.273,0,0,0,4.528,4.32,5.564,5.564,0,0,0,3.52-1.2l-1.024-1.936a4.32,4.32,0,0,1-2.272.832A1.84,1.84,0,0,1,56,30.416h5.2s.064-.592.064-.864a3.658,3.658,0,0,0-3.808-3.984A4.1,4.1,0,0,0,53.168,29.872Zm2.9-1.04a1.351,1.351,0,0,1,1.328-1.184,1.122,1.122,0,0,1,1.088,1.184Zm6.064,4.144a4.962,4.962,0,0,0,3.3,1.216c2.128,0,3.376-1.2,3.376-2.608,0-2.656-3.856-2.752-3.856-3.376,0-.288.4-.4.816-.4a3.291,3.291,0,0,1,1.952.672l.944-1.968a4.314,4.314,0,0,0-2.9-.944c-1.9,0-3.392.96-3.392,2.512,0,2.688,3.856,2.768,3.856,3.488,0,.272-.4.384-.816.384a3.467,3.467,0,0,1-2.1-.832Zm7.584-3.1a4.273,4.273,0,0,0,4.528,4.32,5.564,5.564,0,0,0,3.52-1.2l-1.024-1.936a4.32,4.32,0,0,1-2.272.832,1.84,1.84,0,0,1-1.92-1.472h5.2s.064-.592.064-.864A3.658,3.658,0,0,0,74,25.568,4.1,4.1,0,0,0,69.712,29.872Zm2.9-1.04a1.351,1.351,0,0,1,1.328-1.184,1.122,1.122,0,0,1,1.088,1.184ZM79.312,34H82.08V30.88a3.736,3.736,0,0,1,.144-1.12,2.08,2.08,0,0,1,2.128-1.44,2.945,2.945,0,0,1,.56.048v-2.72a1.871,1.871,0,0,0-.32-.032,2.86,2.86,0,0,0-2.624,2.048h-.032a4.36,4.36,0,0,0,.032-.512V25.76H79.312Zm8.816,0H91.5l2.8-8.24H91.376l-1.264,4.384c-.16.544-.3,1.424-.3,1.424h-.032a14.069,14.069,0,0,0-.3-1.424l-1.28-4.384H85.28Zm6.608-4.128a4.273,4.273,0,0,0,4.528,4.32,5.564,5.564,0,0,0,3.52-1.2l-1.024-1.936a4.32,4.32,0,0,1-2.272.832,1.84,1.84,0,0,1-1.92-1.472h5.2s.064-.592.064-.864a3.658,3.658,0,0,0-3.808-3.984A4.1,4.1,0,0,0,94.736,29.872Zm2.9-1.04a1.351,1.351,0,0,1,1.328-1.184,1.122,1.122,0,0,1,1.088,1.184Zm6.064,4.144a4.962,4.962,0,0,0,3.3,1.216c2.128,0,3.376-1.2,3.376-2.608,0-2.656-3.856-2.752-3.856-3.376,0-.288.4-.4.816-.4a3.291,3.291,0,0,1,1.952.672l.944-1.968a4.314,4.314,0,0,0-2.9-.944c-1.9,0-3.392.96-3.392,2.512,0,2.688,3.856,2.768,3.856,3.488,0,.272-.4.384-.816.384a3.467,3.467,0,0,1-2.1-.832ZM114.928,29.9a4.685,4.685,0,1,0,4.656-4.336A4.356,4.356,0,0,0,114.928,29.9Zm2.8,0a1.878,1.878,0,1,1,3.744,0,1.875,1.875,0,1,1-3.744,0Zm8.5,4.1h2.768V28.064h1.52V25.9h-1.52v-.256c0-.7.848-.8,1.392-.8a3.021,3.021,0,0,1,.448.032V22.544A6.5,6.5,0,0,0,130,22.5c-1.328,0-3.776.368-3.776,3.072V25.9h-1.008v2.16h1.008ZM1.344,53H5.552C7.824,53,9.9,52.088,9.9,49.592a2.565,2.565,0,0,0-1.792-2.576v-.032A2.794,2.794,0,0,0,9.44,44.552c0-1.968-1.6-2.992-3.888-2.992H1.344Zm2.8-7.008V43.96H5.536a.931.931,0,0,1,1.056.976.968.968,0,0,1-1.008,1.056Zm0,4.608V48.232h1.7A1.1,1.1,0,0,1,7.04,49.4a1.137,1.137,0,0,1-1.216,1.2Zm6.8-.064a2.636,2.636,0,0,0,2.8,2.656,2.564,2.564,0,0,0,2.336-1.2h.032a4.36,4.36,0,0,0-.032.512V53h2.528V47.928c0-2.1-1.392-3.36-3.712-3.36A6.232,6.232,0,0,0,11.44,45.64l.96,1.952a4.918,4.918,0,0,1,2.224-.784c.688,0,1.216.224,1.216.912v.144h-.112C14.448,47.864,10.944,48.136,10.944,50.536Zm2.784-.144c0-.688,1.008-.944,1.888-.944h.256v.176a1.528,1.528,0,0,1-1.36,1.456C13.968,51.08,13.728,50.776,13.728,50.392ZM20.528,53H23.3V49.352a3.309,3.309,0,0,1,.16-1.088,1.622,1.622,0,0,1,1.632-1.184c.608,0,.912.32.912,1.088V53h2.768V47.656c0-2.32-1.3-3.088-2.96-3.088a2.907,2.907,0,0,0-2.624,1.424h-.032a4.36,4.36,0,0,0,.032-.512v-.72H20.528ZM30.7,53h2.768V49.8h.864L36.08,53h3.152L36.48,48.536V48.5L38.9,44.76H35.888l-1.632,2.72h-.784V41.56H30.7Zm8.944-1.024a4.962,4.962,0,0,0,3.3,1.216c2.128,0,3.376-1.2,3.376-2.608,0-2.656-3.856-2.752-3.856-3.376,0-.288.4-.4.816-.4a3.291,3.291,0,0,1,1.952.672l.944-1.968a4.314,4.314,0,0,0-2.9-.944c-1.9,0-3.392.96-3.392,2.512,0,2.688,3.856,2.768,3.856,3.488,0,.272-.4.384-.816.384a3.467,3.467,0,0,1-2.1-.832ZM51.488,53H54.08v-.272c0-.256-.016-.464-.016-.464H54.1a2.946,2.946,0,0,0,2.256.928c2.192,0,3.84-1.7,3.84-4.3,0-2.56-1.472-4.32-3.712-4.32a3.061,3.061,0,0,0-2.224.88h-.032s.032-.288.032-.7V41.56H51.488Zm2.688-4.064c0-1.424.784-2.032,1.616-2.032.96,0,1.616.8,1.616,2.032,0,1.264-.752,1.968-1.616,1.968C54.7,50.9,54.176,49.928,54.176,48.936Zm6.5,6.848a3.712,3.712,0,0,0,1.92.576,3.549,3.549,0,0,0,3.44-2.48l3.376-9.12H66.384l-1.04,3.84c-.112.448-.272,1.232-.272,1.232H65.04s-.16-.832-.3-1.28L63.52,44.76H60.384l3.5,8.08-.16.384a1.316,1.316,0,0,1-1.328.832,1.838,1.838,0,0,1-.848-.3Zm12.88-4.224a5.906,5.906,0,0,0,4.176,1.632c2.576,0,4.032-1.648,4.032-3.552,0-3.616-5.152-3.36-5.152-4.8,0-.64.64-.9,1.216-.9a4.365,4.365,0,0,1,2.528,1.008l1.184-2.288a5.189,5.189,0,0,0-3.68-1.3c-2.272,0-4.048,1.392-4.048,3.5,0,3.52,5.152,3.472,5.152,4.832,0,.688-.624.912-1.2.912a4.741,4.741,0,0,1-2.736-1.184Zm9.216-2.688a4.273,4.273,0,0,0,4.528,4.32,5.564,5.564,0,0,0,3.52-1.2l-1.024-1.936a4.32,4.32,0,0,1-2.272.832,1.84,1.84,0,0,1-1.92-1.472h5.2s.064-.592.064-.864a3.658,3.658,0,0,0-3.808-3.984A4.1,4.1,0,0,0,82.768,48.872Zm2.9-1.04a1.351,1.351,0,0,1,1.328-1.184,1.122,1.122,0,0,1,1.088,1.184Zm6.592,2.128c0,2.768,1.568,3.12,3.04,3.12a7.525,7.525,0,0,0,.832-.048v-2.4s-.16.016-.336.016c-.624,0-.768-.272-.768-1.056V41.56H92.256Zm5.168,0c0,2.768,1.568,3.12,3.04,3.12a7.525,7.525,0,0,0,.832-.048v-2.4s-.16.016-.336.016c-.624,0-.768-.272-.768-1.056V41.56H97.424Zm5.312-6.24h2.7V41.56h-2.7ZM102.7,53h2.768V44.76H102.7Zm4.816,0h2.768V49.352a3.309,3.309,0,0,1,.16-1.088,1.622,1.622,0,0,1,1.632-1.184c.608,0,.912.32.912,1.088V53h2.768V47.656c0-2.32-1.3-3.088-2.96-3.088a2.907,2.907,0,0,0-2.624,1.424h-.032a4.361,4.361,0,0,0,.032-.512v-.72H107.52Zm11.2.528-.784,2.1a7.29,7.29,0,0,0,3.12.736c2.256,0,4.656-1.1,4.656-4.112V44.76H123.12v.416a1.339,1.339,0,0,0,.016.192h-.048a3.125,3.125,0,0,0-2.24-.8c-2.5,0-3.7,1.952-3.7,4.048,0,2.112,1.232,4.144,3.712,4.144a2.452,2.452,0,0,0,2.064-.864h.032s-.016.208-.016.3v.272c0,1.216-.912,1.584-1.9,1.584A5.594,5.594,0,0,1,118.72,53.528Zm2.8-3.072c-1.1,0-1.584-.912-1.584-1.936a1.454,1.454,0,0,1,1.472-1.648c.832,0,1.6.32,1.6,1.776C123.008,50.088,122.24,50.456,121.52,50.456ZM3.536,72h2.8V62.96H9.808v-2.4H.064v2.4H3.536Zm6.928,0h2.768V68.88a3.736,3.736,0,0,1,.144-1.12A2.08,2.08,0,0,1,15.5,66.32a2.946,2.946,0,0,1,.56.048v-2.72a1.871,1.871,0,0,0-.32-.032,2.86,2.86,0,0,0-2.624,2.048h-.032a4.36,4.36,0,0,0,.032-.512V63.76H10.464Zm6.288-4.128a4.273,4.273,0,0,0,4.528,4.32,5.564,5.564,0,0,0,3.52-1.2l-1.024-1.936a4.32,4.32,0,0,1-2.272.832,1.84,1.84,0,0,1-1.92-1.472h5.2s.064-.592.064-.864a3.658,3.658,0,0,0-3.808-3.984A4.1,4.1,0,0,0,16.752,67.872Zm2.9-1.04a1.351,1.351,0,0,1,1.328-1.184,1.122,1.122,0,0,1,1.088,1.184Zm6.08,2.7a2.636,2.636,0,0,0,2.8,2.656,2.564,2.564,0,0,0,2.336-1.2H30.9a4.36,4.36,0,0,0-.032.512V72h2.528V66.928c0-2.1-1.392-3.36-3.712-3.36a6.232,6.232,0,0,0-3.456,1.072l.96,1.952a4.918,4.918,0,0,1,2.224-.784c.688,0,1.216.224,1.216.912v.144h-.112C29.232,66.864,25.728,67.136,25.728,69.536Zm2.784-.144c0-.688,1.008-.944,1.888-.944h.256v.176A1.528,1.528,0,0,1,29.3,70.08C28.752,70.08,28.512,69.776,28.512,69.392Zm6.16,1.584a4.962,4.962,0,0,0,3.3,1.216c2.128,0,3.376-1.2,3.376-2.608,0-2.656-3.856-2.752-3.856-3.376,0-.288.4-.4.816-.4a3.291,3.291,0,0,1,1.952.672l.944-1.968a4.314,4.314,0,0,0-2.9-.944c-1.9,0-3.392.96-3.392,2.512,0,2.688,3.856,2.768,3.856,3.488,0,.272-.4.384-.816.384a3.467,3.467,0,0,1-2.1-.832ZM42.736,69.1c0,2.32,1.3,3.088,2.928,3.088a2.856,2.856,0,0,0,2.576-1.424h.032a4.36,4.36,0,0,0-.032.512V72H50.9V63.76H48.128v3.648c0,1.232-.56,2.272-1.744,2.272-.576,0-.88-.32-.88-1.088V63.76H42.736ZM52.944,72h2.768V68.88a3.736,3.736,0,0,1,.144-1.12,2.08,2.08,0,0,1,2.128-1.44,2.946,2.946,0,0,1,.56.048v-2.72a1.871,1.871,0,0,0-.32-.032A2.86,2.86,0,0,0,55.6,65.664h-.032a4.36,4.36,0,0,0,.032-.512V63.76H52.944ZM59.3,74.784a3.712,3.712,0,0,0,1.92.576,3.549,3.549,0,0,0,3.44-2.48l3.376-9.12H65.008l-1.04,3.84c-.112.448-.272,1.232-.272,1.232h-.032s-.16-.832-.3-1.28L62.144,63.76H59.008l3.5,8.08-.16.384a1.316,1.316,0,0,1-1.328.832,1.838,1.838,0,0,1-.848-.3ZM73.024,72h2.8V66.672c0-.72-.128-1.952-.128-1.952h.032a20.468,20.468,0,0,0,.96,1.952L79.872,72h2.816V60.56h-2.8V65.9c0,.72.128,1.952.128,1.952h-.032a20.469,20.469,0,0,0-.96-1.952L75.856,60.56H73.024Zm11.424-4.1A4.685,4.685,0,1,0,89.1,63.568,4.356,4.356,0,0,0,84.448,67.9Zm2.8,0a1.878,1.878,0,1,1,3.744,0,1.875,1.875,0,1,1-3.744,0Zm8.4,1.056c0,2.768,2.544,3.12,3.856,3.12a5.326,5.326,0,0,0,.752-.048v-2.4s-.144.016-.368.016c-.528,0-1.472-.128-1.472-1.056V66.064h1.728V63.9H98.416V61.536H95.728V63.9H94.592v2.16h1.056Zm5.632-1.088a4.273,4.273,0,0,0,4.528,4.32,5.564,5.564,0,0,0,3.52-1.2L108.3,69.056a4.32,4.32,0,0,1-2.272.832,1.84,1.84,0,0,1-1.92-1.472h5.2s.064-.592.064-.864a3.658,3.658,0,0,0-3.808-3.984A4.1,4.1,0,0,0,101.28,67.872Zm2.9-1.04a1.351,1.351,0,0,1,1.328-1.184,1.122,1.122,0,0,1,1.088,1.184Zm6.064,4.144a4.962,4.962,0,0,0,3.3,1.216c2.128,0,3.376-1.2,3.376-2.608,0-2.656-3.856-2.752-3.856-3.376,0-.288.4-.4.816-.4a3.291,3.291,0,0,1,1.952.672l.944-1.968a4.314,4.314,0,0,0-2.9-.944c-1.9,0-3.392.96-3.392,2.512,0,2.688,3.856,2.768,3.856,3.488,0,.272-.4.384-.816.384a3.467,3.467,0,0,1-2.1-.832ZM.4,88.536a2.636,2.636,0,0,0,2.8,2.656,2.564,2.564,0,0,0,2.336-1.2h.032a4.36,4.36,0,0,0-.032.512V91H8.064V85.928c0-2.1-1.392-3.36-3.712-3.36A6.232,6.232,0,0,0,.9,83.64l.96,1.952a4.918,4.918,0,0,1,2.224-.784c.688,0,1.216.224,1.216.912v.144H5.184C3.9,85.864.4,86.136.4,88.536Zm2.784-.144c0-.688,1.008-.944,1.888-.944h.256v.176a1.528,1.528,0,0,1-1.36,1.456C3.424,89.08,3.184,88.776,3.184,88.392ZM9.984,91h2.768V87.352a3.309,3.309,0,0,1,.16-1.088,1.622,1.622,0,0,1,1.632-1.184c.608,0,.912.32.912,1.088V91h2.768V85.656c0-2.32-1.3-3.088-2.96-3.088a2.907,2.907,0,0,0-2.624,1.424h-.032a4.36,4.36,0,0,0,.032-.512v-.72H9.984ZM19.6,86.872c0,2.56,1.472,4.32,3.712,4.32a2.752,2.752,0,0,0,2.384-1.2h.032s-.016.208-.016.464V91H28.3V79.56H25.536v3.3c0,.208.016.368.016.368H25.52s-.5-.656-2.16-.656C21.168,82.568,19.6,84.264,19.6,86.872Zm2.784,0c0-1.264.752-1.968,1.616-1.968,1.088,0,1.616.976,1.616,1.968,0,1.424-.784,2.032-1.616,2.032C23.04,88.9,22.384,88.1,22.384,86.872ZM34.336,91h4.208c2.272,0,4.352-.912,4.352-3.408A2.565,2.565,0,0,0,41.1,85.016v-.032a2.794,2.794,0,0,0,1.328-2.432c0-1.968-1.6-2.992-3.888-2.992H34.336Zm2.8-7.008V81.96h1.392a.931.931,0,0,1,1.056.976.968.968,0,0,1-1.008,1.056Zm0,4.608V86.232h1.7a1.1,1.1,0,0,1,1.2,1.168,1.137,1.137,0,0,1-1.216,1.2Zm6.816-1.7a4.356,4.356,0,0,0,4.672,4.288,4.326,4.326,0,1,0-.016-8.624A4.379,4.379,0,0,0,43.952,86.9Zm2.8,0a1.878,1.878,0,1,1,3.744,0,1.875,1.875,0,1,1-3.744,0ZM54.736,91H57.5V87.352a3.309,3.309,0,0,1,.16-1.088A1.622,1.622,0,0,1,59.3,85.08c.608,0,.912.32.912,1.088V91h2.768V85.656c0-2.32-1.3-3.088-2.96-3.088a2.907,2.907,0,0,0-2.624,1.424H57.36a4.36,4.36,0,0,0,.032-.512v-.72H54.736Zm9.616-4.128c0,2.56,1.472,4.32,3.712,4.32a2.752,2.752,0,0,0,2.384-1.2h.032s-.016.208-.016.464V91h2.592V79.56H70.288v3.3c0,.208.016.368.016.368h-.032s-.5-.656-2.16-.656C65.92,82.568,64.352,84.264,64.352,86.872Zm2.784,0c0-1.264.752-1.968,1.616-1.968,1.088,0,1.616.976,1.616,1.968,0,1.424-.784,2.032-1.616,2.032C67.792,88.9,67.136,88.1,67.136,86.872Zm7.328,3.1a4.962,4.962,0,0,0,3.3,1.216c2.128,0,3.376-1.2,3.376-2.608,0-2.656-3.856-2.752-3.856-3.376,0-.288.4-.4.816-.4a3.291,3.291,0,0,1,1.952.672l.944-1.968a4.314,4.314,0,0,0-2.9-.944c-1.9,0-3.392.96-3.392,2.512,0,2.688,3.856,2.768,3.856,3.488,0,.272-.4.384-.816.384a3.467,3.467,0,0,1-2.1-.832Z" transform="translate(-1371.383 4649.507)" fill="#070707"/>
    <path id="Path_3196" data-name="Path 3196" d="M1.344,15H5.552C7.824,15,9.9,14.088,9.9,11.592A2.565,2.565,0,0,0,8.112,9.016V8.984A2.794,2.794,0,0,0,9.44,6.552c0-1.968-1.6-2.992-3.888-2.992H1.344Zm2.8-7.008V5.96H5.536a.931.931,0,0,1,1.056.976A.968.968,0,0,1,5.584,7.992Zm0,4.608V10.232h1.7A1.1,1.1,0,0,1,7.04,11.4a1.137,1.137,0,0,1-1.216,1.2Zm6.8-.064a2.636,2.636,0,0,0,2.8,2.656,2.564,2.564,0,0,0,2.336-1.2h.032a4.36,4.36,0,0,0-.032.512V15h2.528V9.928c0-2.1-1.392-3.36-3.712-3.36A6.232,6.232,0,0,0,11.44,7.64l.96,1.952a4.918,4.918,0,0,1,2.224-.784c.688,0,1.216.224,1.216.912v.144h-.112C14.448,9.864,10.944,10.136,10.944,12.536Zm2.784-.144c0-.688,1.008-.944,1.888-.944h.256v.176a1.528,1.528,0,0,1-1.36,1.456C13.968,13.08,13.728,12.776,13.728,12.392ZM20.528,15H23.3V11.352a3.309,3.309,0,0,1,.16-1.088A1.622,1.622,0,0,1,25.088,9.08c.608,0,.912.32.912,1.088V15h2.768V9.656c0-2.32-1.3-3.088-2.96-3.088a2.907,2.907,0,0,0-2.624,1.424h-.032a4.36,4.36,0,0,0,.032-.512V6.76H20.528ZM30.7,15h2.768V11.8h.864L36.08,15h3.152L36.48,10.536V10.5L38.9,6.76H35.888L34.256,9.48h-.784V3.56H30.7Zm8.944-1.024a4.962,4.962,0,0,0,3.3,1.216c2.128,0,3.376-1.2,3.376-2.608,0-2.656-3.856-2.752-3.856-3.376,0-.288.4-.4.816-.4a3.291,3.291,0,0,1,1.952.672l.944-1.968a4.314,4.314,0,0,0-2.9-.944c-1.9,0-3.392.96-3.392,2.512,0,2.688,3.856,2.768,3.856,3.488,0,.272-.4.384-.816.384a3.467,3.467,0,0,1-2.1-.832ZM51.808,15h2.8V10.52h4.16V15h2.8V3.56h-2.8V8.136h-4.16V3.56h-2.8Zm11.5-2.464a2.636,2.636,0,0,0,2.8,2.656,2.564,2.564,0,0,0,2.336-1.2h.032a4.361,4.361,0,0,0-.032.512V15h2.528V9.928c0-2.1-1.392-3.36-3.712-3.36A6.232,6.232,0,0,0,63.808,7.64l.96,1.952a4.918,4.918,0,0,1,2.224-.784c.688,0,1.216.224,1.216.912v.144H68.1C66.816,9.864,63.312,10.136,63.312,12.536Zm2.784-.144c0-.688,1.008-.944,1.888-.944h.256v.176a1.528,1.528,0,0,1-1.36,1.456C66.336,13.08,66.1,12.776,66.1,12.392ZM74.624,15H78l2.8-8.24H77.872l-1.264,4.384c-.16.544-.3,1.424-.3,1.424h-.032a14.069,14.069,0,0,0-.3-1.424L74.688,6.76H71.776Zm6.608-4.128a4.273,4.273,0,0,0,4.528,4.32,5.564,5.564,0,0,0,3.52-1.2l-1.024-1.936a4.32,4.32,0,0,1-2.272.832,1.84,1.84,0,0,1-1.92-1.472h5.2s.064-.592.064-.864A3.658,3.658,0,0,0,85.52,6.568,4.1,4.1,0,0,0,81.232,10.872Zm2.9-1.04a1.351,1.351,0,0,1,1.328-1.184,1.122,1.122,0,0,1,1.088,1.184ZM94.816,15h7.472V12.6H97.616V3.56h-2.8Zm8.1-4.128a4.273,4.273,0,0,0,4.528,4.32,5.564,5.564,0,0,0,3.52-1.2l-1.024-1.936a4.32,4.32,0,0,1-2.272.832,1.84,1.84,0,0,1-1.92-1.472h5.2s.064-.592.064-.864A3.658,3.658,0,0,0,107.2,6.568,4.1,4.1,0,0,0,102.912,10.872Zm2.9-1.04a1.351,1.351,0,0,1,1.328-1.184,1.122,1.122,0,0,1,1.088,1.184Zm6.064,4.144a4.962,4.962,0,0,0,3.3,1.216c2.128,0,3.376-1.2,3.376-2.608,0-2.656-3.856-2.752-3.856-3.376,0-.288.4-.4.816-.4a3.291,3.291,0,0,1,1.952.672l.944-1.968a4.314,4.314,0,0,0-2.9-.944c-1.9,0-3.392.96-3.392,2.512,0,2.688,3.856,2.768,3.856,3.488,0,.272-.4.384-.816.384a3.467,3.467,0,0,1-2.1-.832Zm7.536,0a4.962,4.962,0,0,0,3.3,1.216c2.128,0,3.376-1.2,3.376-2.608,0-2.656-3.856-2.752-3.856-3.376,0-.288.4-.4.816-.4a3.291,3.291,0,0,1,1.952.672l.944-1.968a4.314,4.314,0,0,0-2.9-.944c-1.9,0-3.392.96-3.392,2.512,0,2.688,3.856,2.768,3.856,3.488,0,.272-.4.384-.816.384a3.467,3.467,0,0,1-2.1-.832ZM.992,34H3.808l.352-5.152a17.028,17.028,0,0,0,0-1.92h.032s.384,1.2.64,1.92l1.2,3.312h2.4l1.2-3.312c.256-.72.64-1.92.64-1.92H10.3a17.028,17.028,0,0,0,0,1.92L10.656,34h2.8l-.928-11.44H9.488L7.824,27.392c-.256.736-.576,1.888-.576,1.888H7.216s-.32-1.152-.576-1.888L4.976,22.56H1.936Zm13.872-4.1a4.356,4.356,0,0,0,4.672,4.288,4.326,4.326,0,1,0-.016-8.624A4.379,4.379,0,0,0,14.864,29.9Zm2.8,0a1.878,1.878,0,1,1,3.744,0,1.875,1.875,0,1,1-3.744,0ZM25.648,34h2.768V30.352a3.309,3.309,0,0,1,.16-1.088,1.622,1.622,0,0,1,1.632-1.184c.608,0,.912.32.912,1.088V34h2.768V28.656c0-2.32-1.3-3.088-2.96-3.088A2.907,2.907,0,0,0,28.3,26.992h-.032a4.36,4.36,0,0,0,.032-.512v-.72H25.648Zm9.584-4.128a4.273,4.273,0,0,0,4.528,4.32,5.564,5.564,0,0,0,3.52-1.2l-1.024-1.936a4.32,4.32,0,0,1-2.272.832,1.84,1.84,0,0,1-1.92-1.472h5.2s.064-.592.064-.864a3.658,3.658,0,0,0-3.808-3.984A4.1,4.1,0,0,0,35.232,29.872Zm2.9-1.04a1.351,1.351,0,0,1,1.328-1.184,1.122,1.122,0,0,1,1.088,1.184Zm5.7,7.952a3.712,3.712,0,0,0,1.92.576,3.549,3.549,0,0,0,3.44-2.48l3.376-9.12H49.536L48.5,29.6c-.112.448-.272,1.232-.272,1.232h-.032s-.16-.832-.3-1.28L46.672,25.76H43.536l3.5,8.08-.16.384a1.316,1.316,0,0,1-1.328.832,1.838,1.838,0,0,1-.848-.3ZM57.648,30.96c0,2.768,2.544,3.12,3.856,3.12a5.327,5.327,0,0,0,.752-.048v-2.4s-.144.016-.368.016c-.528,0-1.472-.128-1.472-1.056V28.064h1.728V25.9H60.416V23.536H57.728V25.9H56.592v2.16h1.056ZM63.264,29.9a4.685,4.685,0,1,0,4.656-4.336A4.356,4.356,0,0,0,63.264,29.9Zm2.8,0a1.878,1.878,0,1,1,3.744,0,1.875,1.875,0,1,1-3.744,0ZM78.032,34H85.5V31.6H80.832V22.56h-2.8Zm8.08-4.1a4.685,4.685,0,1,0,4.656-4.336A4.356,4.356,0,0,0,86.112,29.9Zm2.8,0a1.878,1.878,0,1,1,3.744,0,1.875,1.875,0,1,1-3.744,0Zm7.36,1.632a2.636,2.636,0,0,0,2.8,2.656,2.564,2.564,0,0,0,2.336-1.2h.032a4.36,4.36,0,0,0-.032.512V34h2.528V28.928c0-2.1-1.392-3.36-3.712-3.36a6.232,6.232,0,0,0-3.456,1.072l.96,1.952a4.918,4.918,0,0,1,2.224-.784c.688,0,1.216.224,1.216.912v.144h-.112C99.776,28.864,96.272,29.136,96.272,31.536Zm2.784-.144c0-.688,1.008-.944,1.888-.944h.256v.176a1.528,1.528,0,0,1-1.36,1.456C99.3,32.08,99.056,31.776,99.056,31.392Zm6.8,2.608h2.768V30.352a3.309,3.309,0,0,1,.16-1.088,1.622,1.622,0,0,1,1.632-1.184c.608,0,.912.32.912,1.088V34H114.1V28.656c0-2.32-1.3-3.088-2.96-3.088a2.907,2.907,0,0,0-2.624,1.424h-.032a4.361,4.361,0,0,0,.032-.512v-.72h-2.656ZM1.344,53H8.816V50.6H4.144V41.56h-2.8Zm8.1-4.128a4.273,4.273,0,0,0,4.528,4.32,5.564,5.564,0,0,0,3.52-1.2l-1.024-1.936a4.32,4.32,0,0,1-2.272.832,1.84,1.84,0,0,1-1.92-1.472h5.2s.064-.592.064-.864a3.658,3.658,0,0,0-3.808-3.984A4.1,4.1,0,0,0,9.44,48.872Zm2.9-1.04a1.351,1.351,0,0,1,1.328-1.184,1.122,1.122,0,0,1,1.088,1.184Zm6.08,2.7a2.636,2.636,0,0,0,2.8,2.656,2.564,2.564,0,0,0,2.336-1.2h.032a4.36,4.36,0,0,0-.032.512V53H26.08V47.928c0-2.1-1.392-3.36-3.712-3.36a6.232,6.232,0,0,0-3.456,1.072l.96,1.952a4.918,4.918,0,0,1,2.224-.784c.688,0,1.216.224,1.216.912v.144H23.2C21.92,47.864,18.416,48.136,18.416,50.536Zm2.784-.144c0-.688,1.008-.944,1.888-.944h.256v.176a1.528,1.528,0,0,1-1.36,1.456C21.44,51.08,21.2,50.776,21.2,50.392Zm6.24-1.52c0,2.56,1.472,4.32,3.712,4.32a2.752,2.752,0,0,0,2.384-1.2h.032s-.016.208-.016.464V53h2.592V41.56H33.376v3.3c0,.208.016.368.016.368H33.36s-.5-.656-2.16-.656C29.008,44.568,27.44,46.264,27.44,48.872Zm2.784,0c0-1.264.752-1.968,1.616-1.968,1.088,0,1.616.976,1.616,1.968,0,1.424-.784,2.032-1.616,2.032C30.88,50.9,30.224,50.1,30.224,48.872Zm8-5.152h2.7V41.56h-2.7ZM38.192,53H40.96V44.76H38.192Zm4.816,0h2.768V49.352a3.309,3.309,0,0,1,.16-1.088,1.622,1.622,0,0,1,1.632-1.184c.608,0,.912.32.912,1.088V53h2.768V47.656c0-2.32-1.3-3.088-2.96-3.088a2.907,2.907,0,0,0-2.624,1.424h-.032a4.36,4.36,0,0,0,.032-.512v-.72H43.008Zm11.2.528-.784,2.1a7.29,7.29,0,0,0,3.12.736c2.256,0,4.656-1.1,4.656-4.112V44.76H58.608v.416a1.339,1.339,0,0,0,.016.192h-.048a3.125,3.125,0,0,0-2.24-.8c-2.5,0-3.7,1.952-3.7,4.048,0,2.112,1.232,4.144,3.712,4.144a2.452,2.452,0,0,0,2.064-.864h.032s-.016.208-.016.3v.272c0,1.216-.912,1.584-1.9,1.584A5.594,5.594,0,0,1,54.208,53.528Zm2.8-3.072c-1.1,0-1.584-.912-1.584-1.936A1.454,1.454,0,0,1,56.9,46.872c.832,0,1.6.32,1.6,1.776C58.5,50.088,57.728,50.456,57.008,50.456Zm10.32-.5c0,2.768,2.544,3.12,3.856,3.12a5.327,5.327,0,0,0,.752-.048v-2.4s-.144.016-.368.016c-.528,0-1.472-.128-1.472-1.056V47.064h1.728V44.9H70.1V42.536H67.408V44.9H66.272v2.16h1.056ZM72.944,48.9A4.685,4.685,0,1,0,77.6,44.568,4.356,4.356,0,0,0,72.944,48.9Zm2.8,0a1.878,1.878,0,1,1,3.744,0,1.875,1.875,0,1,1-3.744,0ZM1.344,72h2.8V67.52H8.3V72h2.8V60.56H8.3v4.576H4.144V60.56h-2.8ZM13.5,62.72h2.7V60.56H13.5ZM13.472,72H16.24V63.76H13.472Zm5.84.528-.784,2.1a7.29,7.29,0,0,0,3.12.736c2.256,0,4.656-1.1,4.656-4.112V63.76H23.712v.416a1.339,1.339,0,0,0,.016.192H23.68a3.125,3.125,0,0,0-2.24-.8c-2.5,0-3.7,1.952-3.7,4.048,0,2.112,1.232,4.144,3.712,4.144A2.452,2.452,0,0,0,23.52,70.9h.032s-.016.208-.016.3v.272c0,1.216-.912,1.584-1.9,1.584A5.594,5.594,0,0,1,19.312,72.528Zm2.8-3.072c-1.1,0-1.584-.912-1.584-1.936A1.454,1.454,0,0,1,22,65.872c.832,0,1.6.32,1.6,1.776C23.6,69.088,22.832,69.456,22.112,69.456ZM28.352,72H31.12V68.352a3.184,3.184,0,0,1,.144-1.056,1.663,1.663,0,0,1,1.648-1.216c.608,0,.912.32.912,1.088V72h2.768V66.656c0-2.32-1.3-3.088-2.96-3.088A2.83,2.83,0,0,0,31.12,64.88h-.032s.032-.288.032-.7V60.56H28.352Zm9.584-4.128a4.273,4.273,0,0,0,4.528,4.32,5.564,5.564,0,0,0,3.52-1.2L44.96,69.056a4.32,4.32,0,0,1-2.272.832,1.84,1.84,0,0,1-1.92-1.472h5.2s.064-.592.064-.864a3.658,3.658,0,0,0-3.808-3.984A4.1,4.1,0,0,0,37.936,67.872Zm2.9-1.04a1.351,1.351,0,0,1,1.328-1.184,1.122,1.122,0,0,1,1.088,1.184ZM47.536,72H50.3V68.88a3.736,3.736,0,0,1,.144-1.12,2.08,2.08,0,0,1,2.128-1.44,2.946,2.946,0,0,1,.56.048v-2.72a1.871,1.871,0,0,0-.32-.032,2.86,2.86,0,0,0-2.624,2.048H50.16a4.36,4.36,0,0,0,.032-.512V63.76H47.536ZM58.4,72h2.8V60.56H58.4Zm5.168,0h2.768V68.352a3.309,3.309,0,0,1,.16-1.088,1.622,1.622,0,0,1,1.632-1.184c.608,0,.912.32.912,1.088V72h2.768V66.656c0-2.32-1.3-3.088-2.96-3.088a2.907,2.907,0,0,0-2.624,1.424h-.032a4.36,4.36,0,0,0,.032-.512v-.72H63.568ZM74.16,68.96c0,2.768,2.544,3.12,3.856,3.12a5.326,5.326,0,0,0,.752-.048v-2.4s-.144.016-.368.016c-.528,0-1.472-.128-1.472-1.056V66.064h1.728V63.9H76.928V61.536H74.24V63.9H73.1v2.16H74.16Zm5.632-1.088a4.273,4.273,0,0,0,4.528,4.32,5.564,5.564,0,0,0,3.52-1.2l-1.024-1.936a4.32,4.32,0,0,1-2.272.832,1.84,1.84,0,0,1-1.92-1.472h5.2s.064-.592.064-.864a3.658,3.658,0,0,0-3.808-3.984A4.1,4.1,0,0,0,79.792,67.872Zm2.9-1.04a1.351,1.351,0,0,1,1.328-1.184A1.122,1.122,0,0,1,85.1,66.832ZM89.392,72H92.16V68.88a3.736,3.736,0,0,1,.144-1.12,2.08,2.08,0,0,1,2.128-1.44,2.946,2.946,0,0,1,.56.048v-2.72a1.871,1.871,0,0,0-.32-.032,2.86,2.86,0,0,0-2.624,2.048h-.032a4.361,4.361,0,0,0,.032-.512V63.76H89.392Zm6.288-4.128a4.273,4.273,0,0,0,4.528,4.32,5.564,5.564,0,0,0,3.52-1.2L102.7,69.056a4.32,4.32,0,0,1-2.272.832,1.84,1.84,0,0,1-1.92-1.472h5.2s.064-.592.064-.864a3.658,3.658,0,0,0-3.808-3.984A4.1,4.1,0,0,0,95.68,67.872Zm2.9-1.04A1.351,1.351,0,0,1,99.9,65.648a1.122,1.122,0,0,1,1.088,1.184Zm6.064,4.144a4.962,4.962,0,0,0,3.3,1.216c2.128,0,3.376-1.2,3.376-2.608,0-2.656-3.856-2.752-3.856-3.376,0-.288.4-.4.816-.4a3.291,3.291,0,0,1,1.952.672l.944-1.968a4.314,4.314,0,0,0-2.9-.944c-1.9,0-3.392.96-3.392,2.512,0,2.688,3.856,2.768,3.856,3.488,0,.272-.4.384-.816.384a3.467,3.467,0,0,1-2.1-.832Zm8.592-2.016c0,2.768,2.544,3.12,3.856,3.12a5.326,5.326,0,0,0,.752-.048v-2.4s-.144.016-.368.016c-.528,0-1.472-.128-1.472-1.056V66.064h1.728V63.9H116V61.536h-2.688V63.9h-1.136v2.16h1.056ZM1.344,91h2.8V87.144H5.456L7.488,91h3.12L8.384,87a6.557,6.557,0,0,0-.432-.688V86.28a3.482,3.482,0,0,0,1.712-3.12,3.326,3.326,0,0,0-2.112-3.328,5.919,5.919,0,0,0-2.224-.272H1.344Zm2.8-6.256V81.96h.944c1.408,0,1.728.512,1.728,1.376A1.309,1.309,0,0,1,5.36,84.744Zm7.216,3.792a2.636,2.636,0,0,0,2.8,2.656,2.564,2.564,0,0,0,2.336-1.2h.032a4.36,4.36,0,0,0-.032.512V91h2.528V85.928c0-2.1-1.392-3.36-3.712-3.36a6.232,6.232,0,0,0-3.456,1.072l.96,1.952a4.918,4.918,0,0,1,2.224-.784c.688,0,1.216.224,1.216.912v.144h-.112C14.864,85.864,11.36,86.136,11.36,88.536Zm2.784-.144c0-.688,1.008-.944,1.888-.944h.256v.176a1.528,1.528,0,0,1-1.36,1.456C14.384,89.08,14.144,88.776,14.144,88.392Zm7.216-.432c0,2.768,2.544,3.12,3.856,3.12a5.326,5.326,0,0,0,.752-.048v-2.4s-.144.016-.368.016c-.528,0-1.472-.128-1.472-1.056V85.064h1.728V82.9H24.128V80.536H21.44V82.9H20.3v2.16H21.36Zm5.632-1.088a4.273,4.273,0,0,0,4.528,4.32,5.564,5.564,0,0,0,3.52-1.2l-1.024-1.936a4.32,4.32,0,0,1-2.272.832,1.84,1.84,0,0,1-1.92-1.472h5.2s.064-.592.064-.864a3.658,3.658,0,0,0-3.808-3.984A4.1,4.1,0,0,0,26.992,86.872Zm2.9-1.04a1.351,1.351,0,0,1,1.328-1.184A1.122,1.122,0,0,1,32.3,85.832Zm6.064,4.144a4.962,4.962,0,0,0,3.3,1.216c2.128,0,3.376-1.2,3.376-2.608,0-2.656-3.856-2.752-3.856-3.376,0-.288.4-.4.816-.4a3.291,3.291,0,0,1,1.952.672l.944-1.968a4.314,4.314,0,0,0-2.9-.944c-1.9,0-3.392.96-3.392,2.512,0,2.688,3.856,2.768,3.856,3.488,0,.272-.4.384-.816.384a3.467,3.467,0,0,1-2.1-.832Zm11.216-1.44a2.636,2.636,0,0,0,2.8,2.656,2.564,2.564,0,0,0,2.336-1.2h.032a4.36,4.36,0,0,0-.032.512V91h2.528V85.928c0-2.1-1.392-3.36-3.712-3.36a6.232,6.232,0,0,0-3.456,1.072l.96,1.952a4.918,4.918,0,0,1,2.224-.784c.688,0,1.216.224,1.216.912v.144h-.112C50.672,85.864,47.168,86.136,47.168,88.536Zm2.784-.144c0-.688,1.008-.944,1.888-.944H52.1v.176a1.528,1.528,0,0,1-1.36,1.456C50.192,89.08,49.952,88.776,49.952,88.392ZM56.752,91H59.52V87.352a3.309,3.309,0,0,1,.16-1.088,1.622,1.622,0,0,1,1.632-1.184c.608,0,.912.32.912,1.088V91h2.768V85.656c0-2.32-1.3-3.088-2.96-3.088a2.907,2.907,0,0,0-2.624,1.424h-.032a4.36,4.36,0,0,0,.032-.512v-.72H56.752Zm9.616-4.128c0,2.56,1.472,4.32,3.712,4.32a2.752,2.752,0,0,0,2.384-1.2H72.5s-.016.208-.016.464V91h2.592V79.56H72.3v3.3c0,.208.016.368.016.368h-.032s-.5-.656-2.16-.656C67.936,82.568,66.368,84.264,66.368,86.872Zm2.784,0c0-1.264.752-1.968,1.616-1.968,1.088,0,1.616.976,1.616,1.968,0,1.424-.784,2.032-1.616,2.032C69.808,88.9,69.152,88.1,69.152,86.872ZM87.536,91h2.88L86.528,79.56H83.584L79.7,91h2.88l.688-2.4h3.568Zm-2.464-8.832s.256,1.248.464,1.968l.64,2.224H83.92l.656-2.224c.208-.72.464-1.968.464-1.968Zm5.744,4.7c0,2.56,1.472,4.32,3.712,4.32a2.752,2.752,0,0,0,2.384-1.2h.032s-.016.208-.016.464V91H99.52V79.56H96.752v3.3c0,.208.016.368.016.368h-.032s-.5-.656-2.16-.656C92.384,82.568,90.816,84.264,90.816,86.872Zm2.784,0c0-1.264.752-1.968,1.616-1.968,1.088,0,1.616.976,1.616,1.968,0,1.424-.784,2.032-1.616,2.032C94.256,88.9,93.6,88.1,93.6,86.872Zm7.408,0c0,2.56,1.472,4.32,3.712,4.32a2.752,2.752,0,0,0,2.384-1.2h.032s-.016.208-.016.464V91h2.592V79.56h-2.768v3.3c0,.208.016.368.016.368h-.032s-.5-.656-2.16-.656C102.576,82.568,101.008,84.264,101.008,86.872Zm2.784,0c0-1.264.752-1.968,1.616-1.968,1.088,0,1.616.976,1.616,1.968,0,1.424-.784,2.032-1.616,2.032C104.448,88.9,103.792,88.1,103.792,86.872ZM1.344,110H8.816v-2.4H4.144V98.56h-2.8Zm8.1-4.128a4.273,4.273,0,0,0,4.528,4.32,5.564,5.564,0,0,0,3.52-1.2l-1.024-1.936a4.32,4.32,0,0,1-2.272.832,1.84,1.84,0,0,1-1.92-1.472h5.2s.064-.592.064-.864a3.658,3.658,0,0,0-3.808-3.984A4.1,4.1,0,0,0,9.44,105.872Zm2.9-1.04a1.351,1.351,0,0,1,1.328-1.184,1.122,1.122,0,0,1,1.088,1.184Zm6.064,4.144a4.962,4.962,0,0,0,3.3,1.216c2.128,0,3.376-1.2,3.376-2.608,0-2.656-3.856-2.752-3.856-3.376,0-.288.4-.4.816-.4a3.291,3.291,0,0,1,1.952.672l.944-1.968a4.314,4.314,0,0,0-2.9-.944c-1.9,0-3.392.96-3.392,2.512,0,2.688,3.856,2.768,3.856,3.488,0,.272-.4.384-.816.384a3.467,3.467,0,0,1-2.1-.832Zm7.536,0a4.962,4.962,0,0,0,3.3,1.216c2.128,0,3.376-1.2,3.376-2.608,0-2.656-3.856-2.752-3.856-3.376,0-.288.4-.4.816-.4a3.291,3.291,0,0,1,1.952.672l.944-1.968a4.314,4.314,0,0,0-2.9-.944c-1.9,0-3.392.96-3.392,2.512,0,2.688,3.856,2.768,3.856,3.488,0,.272-.4.384-.816.384a3.467,3.467,0,0,1-2.1-.832ZM37.744,110H40.56l.352-5.152a17.028,17.028,0,0,0,0-1.92h.032s.384,1.2.64,1.92l1.2,3.312h2.4l1.2-3.312c.256-.72.64-1.92.64-1.92h.032a17.027,17.027,0,0,0,0,1.92L47.408,110h2.8L49.28,98.56H46.24l-1.664,4.832c-.256.736-.576,1.888-.576,1.888h-.032s-.32-1.152-.576-1.888L41.728,98.56h-3.04Zm13.872-4.1a4.356,4.356,0,0,0,4.672,4.288,4.326,4.326,0,1,0-.016-8.624A4.379,4.379,0,0,0,51.616,105.9Zm2.8,0a1.878,1.878,0,1,1,3.744,0,1.875,1.875,0,1,1-3.744,0ZM62.4,110h2.768v-3.648a3.309,3.309,0,0,1,.16-1.088,1.622,1.622,0,0,1,1.632-1.184c.608,0,.912.32.912,1.088V110H70.64v-5.344c0-2.32-1.3-3.088-2.96-3.088a2.907,2.907,0,0,0-2.624,1.424h-.032a4.36,4.36,0,0,0,.032-.512v-.72H62.4Zm9.584-4.128a4.273,4.273,0,0,0,4.528,4.32,5.564,5.564,0,0,0,3.52-1.2l-1.024-1.936a4.32,4.32,0,0,1-2.272.832,1.84,1.84,0,0,1-1.92-1.472h5.2s.064-.592.064-.864a3.658,3.658,0,0,0-3.808-3.984A4.1,4.1,0,0,0,71.984,105.872Zm2.9-1.04a1.351,1.351,0,0,1,1.328-1.184,1.122,1.122,0,0,1,1.088,1.184Zm5.7,7.952a3.712,3.712,0,0,0,1.92.576,3.549,3.549,0,0,0,3.44-2.48l3.376-9.12H86.288l-1.04,3.84c-.112.448-.272,1.232-.272,1.232h-.032s-.16-.832-.3-1.28l-1.216-3.792H80.288l3.5,8.08-.16.384a1.316,1.316,0,0,1-1.328.832,1.838,1.838,0,0,1-.848-.3ZM94.4,106.96c0,2.768,2.544,3.12,3.856,3.12a5.326,5.326,0,0,0,.752-.048v-2.4s-.144.016-.368.016c-.528,0-1.472-.128-1.472-1.056v-2.528H98.9V101.9H97.168V99.536H94.48V101.9H93.344v2.16H94.4Zm5.616-1.056a4.685,4.685,0,1,0,4.656-4.336A4.356,4.356,0,0,0,100.016,105.9Zm2.8,0a1.878,1.878,0,1,1,3.744,0,1.875,1.875,0,1,1-3.744,0ZM1.44,125.96c0,2.768,2.544,3.12,3.856,3.12a5.326,5.326,0,0,0,.752-.048v-2.4s-.144.016-.368.016c-.528,0-1.472-.128-1.472-1.056v-2.528H5.936V120.9H4.208v-2.368H1.52V120.9H.384v2.16H1.44ZM7.664,129h2.768v-3.648a3.184,3.184,0,0,1,.144-1.056,1.663,1.663,0,0,1,1.648-1.216c.608,0,.912.32.912,1.088V129H15.9v-5.344c0-2.32-1.3-3.088-2.96-3.088a2.83,2.83,0,0,0-2.512,1.312H10.4s.032-.288.032-.7V117.56H7.664Zm9.584-4.128a4.273,4.273,0,0,0,4.528,4.32,5.564,5.564,0,0,0,3.52-1.2l-1.024-1.936a4.32,4.32,0,0,1-2.272.832,1.84,1.84,0,0,1-1.92-1.472h5.2s.064-.592.064-.864a3.658,3.658,0,0,0-3.808-3.984A4.1,4.1,0,0,0,17.248,124.872Zm2.9-1.04a1.351,1.351,0,0,1,1.328-1.184,1.122,1.122,0,0,1,1.088,1.184ZM30.832,129h7.392v-2.4H33.632v-2.16H37.12v-2.4H33.632v-2.08H38v-2.4H30.832Zm8.48-4.128a4.285,4.285,0,0,0,4.592,4.32,4.957,4.957,0,0,0,3.536-1.36L46.432,125.9a4.023,4.023,0,0,1-2.256.992,1.991,1.991,0,0,1-2.064-2.048,1.9,1.9,0,0,1,1.968-1.968,3,3,0,0,1,1.936.8l1.168-1.856a4.343,4.343,0,0,0-3.28-1.248A4.3,4.3,0,0,0,39.312,124.872Zm8.816.032a4.356,4.356,0,0,0,4.672,4.288,4.326,4.326,0,1,0-.016-8.624A4.379,4.379,0,0,0,48.128,124.9Zm2.8,0a1.878,1.878,0,1,1,3.744,0,1.875,1.875,0,1,1-3.744,0Zm7.984,4.1H61.68v-3.648a3.309,3.309,0,0,1,.16-1.088,1.622,1.622,0,0,1,1.632-1.184c.608,0,.912.32.912,1.088V129h2.768v-5.344c0-2.32-1.3-3.088-2.96-3.088a2.907,2.907,0,0,0-2.624,1.424h-.032a4.36,4.36,0,0,0,.032-.512v-.72H58.912Zm9.568-4.1a4.685,4.685,0,1,0,4.656-4.336A4.356,4.356,0,0,0,68.48,124.9Zm2.8,0a1.878,1.878,0,1,1,3.744,0,1.875,1.875,0,1,1-3.744,0Zm7.984,4.1h2.768v-3.408a5.214,5.214,0,0,1,.08-1.024c.192-.88.64-1.488,1.5-1.488.528,0,.64.432.64,1.04V129h2.768v-3.408a4.609,4.609,0,0,1,.064-.96c.176-.912.64-1.552,1.52-1.552.528,0,.64.432.64,1.04V129h2.768v-5.344c0-2.272-1.168-3.088-2.672-3.088a3.183,3.183,0,0,0-2.64,1.392h-.032a2.386,2.386,0,0,0-2.3-1.392,2.932,2.932,0,0,0-2.448,1.424h-.032a4.36,4.36,0,0,0,.032-.512v-.72H79.264Zm13.68,2.784a3.712,3.712,0,0,0,1.92.576,3.549,3.549,0,0,0,3.44-2.48l3.376-9.12H98.656l-1.04,3.84c-.112.448-.272,1.232-.272,1.232h-.032s-.16-.832-.3-1.28l-1.216-3.792H92.656l3.5,8.08-.16.384a1.316,1.316,0,0,1-1.328.832,1.838,1.838,0,0,1-.848-.3Z" transform="translate(-1247.921 4870.135)" fill="#070707"/>
    <path id="Path_3200" data-name="Path 3200" d="M20.78,25.54a10.17,10.17,0,0,0,7.32,2.82c5.37,0,7.95-3.66,7.95-7.32a6.3,6.3,0,0,0-5.19-6.21l4.35-5.01V6.55H21.68v4.5h5.13a10.686,10.686,0,0,0,2.04-.15v.06a23.336,23.336,0,0,0-1.86,2.01l-2.82,3.39,1.11,2.55h1.5c2.31,0,3.99.69,3.99,2.37,0,1.17-1.11,2.13-3.06,2.13a7.014,7.014,0,0,1-4.41-1.92ZM39.23,28h4.92V23.08H39.23Zm8.34,0H62.42V23.5H53.3c.15-2.76,8.79-4.05,8.79-10.74,0-4.56-3.81-6.57-7.32-6.57a8.272,8.272,0,0,0-7.56,4.62l3.9,2.61s1.14-2.28,3.18-2.28a2.119,2.119,0,0,1,2.31,2.13c0,3.09-9.27,4.5-9.27,12.42A13.144,13.144,0,0,0,47.57,28Zm17.49-2.46a10.338,10.338,0,0,0,7.32,2.82c4.68,0,7.95-3.21,7.95-7.65,0-3.87-2.58-7.05-7.68-7.05a6.552,6.552,0,0,0-1.56.21h-.06a3.509,3.509,0,0,0,.12-.84l.12-1.98h7.44V6.55h-12l-.87,11.22,2.79,1.05a6.244,6.244,0,0,1,2.88-.72c1.95,0,3.42.99,3.42,2.67a2.778,2.778,0,0,1-3,2.64,7.074,7.074,0,0,1-4.35-1.92Zm22.68-9a5.28,5.28,0,0,0,5.43-5.16,5.436,5.436,0,0,0-10.86,0A5.261,5.261,0,0,0,87.74,16.54ZM83.51,28h4.56L104.63,6.55h-4.56Zm4.23-15.06a1.577,1.577,0,1,1,1.65-1.59A1.614,1.614,0,0,1,87.74,12.94ZM95.12,23.2a5.437,5.437,0,0,0,10.86,0,5.436,5.436,0,0,0-10.86,0Zm3.78-.03a1.651,1.651,0,1,1,1.65,1.59A1.629,1.629,0,0,1,98.9,23.17Z" transform="translate(-1371.712 5074)" fill="#070707"/>
    <g id="Group_700" data-name="Group 700" transform="translate(-1350.485 5007.901)">
      <g id="Group_453" data-name="Group 453" transform="translate(0 17.777)">
        <rect id="Rectangle_142-4" data-name="Rectangle 142" width="48.474" height="27.398" rx="3" transform="translate(0.324 0.909)" fill="#efefef"/>
        <g id="Group_94-4" data-name="Group 94" transform="translate(0 0)">
          <path id="Path_1581-4" data-name="Path 1581" d="M31.2,22a9.2,9.2,0,1,0,9.2,9.2A9.2,9.2,0,0,0,31.2,22Zm0,16.556A7.358,7.358,0,1,1,38.556,31.2,7.358,7.358,0,0,1,31.2,38.556Z" transform="translate(-6.363 -17.401)" fill="#1762a0"/>
          <path id="Path_1582-4" data-name="Path 1582" d="M31.759,28.679H33.6a.92.92,0,0,0,0-1.84h-.92v-.92a.92.92,0,1,0-1.84,0v1.089a2.753,2.753,0,0,0,.92,5.349.92.92,0,0,1,0,1.84H29.92a.92.92,0,0,0,0,1.84h.92v.92a.92.92,0,1,0,1.84,0V35.868a2.753,2.753,0,0,0-.92-5.349.92.92,0,1,1,0-1.84Z" transform="translate(-6.925 -17.642)" fill="#1762a0"/>
          <path id="Path_1583-4" data-name="Path 1583" d="M53.75,17H5.92a.92.92,0,0,0-.92.92V43.674a.92.92,0,0,0,.92.92H53.75a.92.92,0,0,0,.92-.92V17.92A.92.92,0,0,0,53.75,17ZM47.384,42.754h-35.1A6.443,6.443,0,0,0,6.84,37.309V24.285a6.443,6.443,0,0,0,5.445-5.445h35.1a6.443,6.443,0,0,0,5.445,5.445V37.309A6.443,6.443,0,0,0,47.384,42.754ZM52.83,18.84v3.587a4.612,4.612,0,0,1-3.587-3.587Zm-45.99,0h3.587A4.612,4.612,0,0,1,6.84,22.426Zm0,23.915V39.168a4.612,4.612,0,0,1,3.587,3.587Zm45.99,0H49.243a4.612,4.612,0,0,1,3.587-3.587Z" transform="translate(-5 -17)" fill="#1762a0"/>
        </g>
      </g>
      <g id="Group_455" data-name="Group 455" transform="translate(21.136 0)">
        <rect id="Rectangle_142-5" data-name="Rectangle 142" width="48.474" height="27.398" rx="3" transform="translate(0.324 0.909)" fill="#efefef"/>
        <g id="Group_94-5" data-name="Group 94" transform="translate(0 0)">
          <path id="Path_1581-5" data-name="Path 1581" d="M31.2,22a9.2,9.2,0,1,0,9.2,9.2A9.2,9.2,0,0,0,31.2,22Zm0,16.556A7.358,7.358,0,1,1,38.556,31.2,7.358,7.358,0,0,1,31.2,38.556Z" transform="translate(-6.363 -17.401)" fill="#1762a0"/>
          <path id="Path_1582-5" data-name="Path 1582" d="M31.759,28.679H33.6a.92.92,0,0,0,0-1.84h-.92v-.92a.92.92,0,1,0-1.84,0v1.089a2.753,2.753,0,0,0,.92,5.349.92.92,0,0,1,0,1.84H29.92a.92.92,0,0,0,0,1.84h.92v.92a.92.92,0,1,0,1.84,0V35.868a2.753,2.753,0,0,0-.92-5.349.92.92,0,1,1,0-1.84Z" transform="translate(-6.925 -17.642)" fill="#1762a0"/>
          <path id="Path_1583-5" data-name="Path 1583" d="M53.75,17H5.92a.92.92,0,0,0-.92.92V43.674a.92.92,0,0,0,.92.92H53.75a.92.92,0,0,0,.92-.92V17.92A.92.92,0,0,0,53.75,17ZM47.384,42.754h-35.1A6.443,6.443,0,0,0,6.84,37.309V24.285a6.443,6.443,0,0,0,5.445-5.445h35.1a6.443,6.443,0,0,0,5.445,5.445V37.309A6.443,6.443,0,0,0,47.384,42.754ZM52.83,18.84v3.587a4.612,4.612,0,0,1-3.587-3.587Zm-45.99,0h3.587A4.612,4.612,0,0,1,6.84,22.426Zm0,23.915V39.168a4.612,4.612,0,0,1,3.587,3.587Zm45.99,0H49.243a4.612,4.612,0,0,1,3.587-3.587Z" transform="translate(-5 -17)" fill="#1762a0"/>
        </g>
      </g>
      <g id="Group_458" data-name="Group 458" transform="translate(30.619 11.591)">
        <rect id="Rectangle_142-6" data-name="Rectangle 142" width="48.474" height="27.398" rx="3" transform="translate(0.324 0.909)" fill="#efefef"/>
        <g id="Group_94-6" data-name="Group 94" transform="translate(0 0)">
          <path id="Path_1581-6" data-name="Path 1581" d="M31.2,22a9.2,9.2,0,1,0,9.2,9.2A9.2,9.2,0,0,0,31.2,22Zm0,16.556A7.358,7.358,0,1,1,38.556,31.2,7.358,7.358,0,0,1,31.2,38.556Z" transform="translate(-6.363 -17.401)" fill="#1762a0"/>
          <path id="Path_1582-6" data-name="Path 1582" d="M31.759,28.679H33.6a.92.92,0,0,0,0-1.84h-.92v-.92a.92.92,0,1,0-1.84,0v1.089a2.753,2.753,0,0,0,.92,5.349.92.92,0,0,1,0,1.84H29.92a.92.92,0,0,0,0,1.84h.92v.92a.92.92,0,1,0,1.84,0V35.868a2.753,2.753,0,0,0-.92-5.349.92.92,0,1,1,0-1.84Z" transform="translate(-6.925 -17.642)" fill="#1762a0"/>
          <path id="Path_1583-6" data-name="Path 1583" d="M53.75,17H5.92a.92.92,0,0,0-.92.92V43.674a.92.92,0,0,0,.92.92H53.75a.92.92,0,0,0,.92-.92V17.92A.92.92,0,0,0,53.75,17ZM47.384,42.754h-35.1A6.443,6.443,0,0,0,6.84,37.309V24.285a6.443,6.443,0,0,0,5.445-5.445h35.1a6.443,6.443,0,0,0,5.445,5.445V37.309A6.443,6.443,0,0,0,47.384,42.754ZM52.83,18.84v3.587a4.612,4.612,0,0,1-3.587-3.587Zm-45.99,0h3.587A4.612,4.612,0,0,1,6.84,22.426Zm0,23.915V39.168a4.612,4.612,0,0,1,3.587,3.587Zm45.99,0H49.243a4.612,4.612,0,0,1,3.587-3.587Z" transform="translate(-5 -17)" fill="#1762a0"/>
        </g>
      </g>
    </g>
  </g>
</svg>
