<svg xmlns="http://www.w3.org/2000/svg" width="380.079" height="655.564" viewBox="0 0 380.079 655.564">
  <g id="Group_732" data-name="Group 732" transform="translate(-1738.712 -2161.739)">
    <g id="Group_698" data-name="Group 698" transform="translate(126 -150)">
      <g id="Group_686" data-name="Group 686" transform="translate(1621.337 2521.561)">
        <g id="Rectangle_360" data-name="Rectangle 360" fill="#efefef" stroke="#070707" stroke-width="0.5">
          <rect width="43.65" height="55.554" stroke="none"/>
          <rect x="0.25" y="0.25" width="43.15" height="55.054" fill="none"/>
        </g>
        <g id="Rectangle_361" data-name="Rectangle 361" transform="translate(1.984 1.984)" fill="#efefef" stroke="#070707" stroke-width="0.5">
          <rect width="39.682" height="51.586" stroke="none"/>
          <rect x="0.25" y="0.25" width="39.182" height="51.086" fill="none"/>
        </g>
        <path id="Path_2593" data-name="Path 2593" d="M.858,11.578a4.24,4.24,0,0,0,2.394,1.15V13.8H4.531V12.728a2.575,2.575,0,0,0,2.347-2.558c0-2.593-3.814-2.523-3.814-3.52,0-.469.469-.657.892-.657a3.2,3.2,0,0,1,1.854.739l.868-1.678a3.669,3.669,0,0,0-2.147-.915V3.07H3.252v1.1a2.548,2.548,0,0,0-2.241,2.5c0,2.523,3.814,2.605,3.814,3.544,0,.5-.458.669-.88.669a3.477,3.477,0,0,1-2.007-.868Z" transform="translate(17.188 3.211)" fill="#070707"/>
        <g id="Rectangle_362" data-name="Rectangle 362" transform="translate(5.952 19.841)" fill="#efefef" stroke="#070707" stroke-width="0.5">
          <rect width="30.753" height="7.936" stroke="none"/>
          <rect x="0.25" y="0.25" width="30.253" height="7.436" fill="none"/>
        </g>
        <line id="Line_150" data-name="Line 150" x2="30.403" transform="translate(6.653 29.446)" fill="none" stroke="#070707" stroke-width="0.5"/>
        <line id="Line_151" data-name="Line 151" x2="30.403" transform="translate(6.653 31.58)" fill="none" stroke="#070707" stroke-width="0.5"/>
        <line id="Line_155" data-name="Line 155" x2="30.403" transform="translate(6.653 39.58)" fill="none" stroke="#070707" stroke-width="0.5"/>
        <line id="Line_152" data-name="Line 152" x2="30.403" transform="translate(6.653 33.713)" fill="none" stroke="#070707" stroke-width="0.5"/>
        <line id="Line_154" data-name="Line 154" x2="24.003" transform="translate(6.653 41.714)" fill="none" stroke="#070707" stroke-width="0.5"/>
        <line id="Line_156" data-name="Line 156" x2="6.934" transform="translate(6.653 47.048)" fill="none" stroke="#070707" stroke-width="0.5"/>
        <line id="Line_153" data-name="Line 153" x2="24.003" transform="translate(6.653 35.847)" fill="none" stroke="#070707" stroke-width="0.5"/>
      </g>
      <g id="Group_685" data-name="Group 685" transform="translate(1612.712 2535.619)">
        <g id="Rectangle_360-2" data-name="Rectangle 360" fill="#efefef" stroke="#070707" stroke-width="0.5">
          <rect width="43.65" height="55.554" stroke="none"/>
          <rect x="0.25" y="0.25" width="43.15" height="55.054" fill="none"/>
        </g>
        <g id="Rectangle_361-2" data-name="Rectangle 361" transform="translate(1.984 1.984)" fill="#efefef" stroke="#070707" stroke-width="0.5">
          <rect width="39.682" height="51.586" stroke="none"/>
          <rect x="0.25" y="0.25" width="39.182" height="51.086" fill="none"/>
        </g>
        <path id="Path_2593-2" data-name="Path 2593" d="M.858,11.578a4.24,4.24,0,0,0,2.394,1.15V13.8H4.531V12.728a2.575,2.575,0,0,0,2.347-2.558c0-2.593-3.814-2.523-3.814-3.52,0-.469.469-.657.892-.657a3.2,3.2,0,0,1,1.854.739l.868-1.678a3.669,3.669,0,0,0-2.147-.915V3.07H3.252v1.1a2.548,2.548,0,0,0-2.241,2.5c0,2.523,3.814,2.605,3.814,3.544,0,.5-.458.669-.88.669a3.477,3.477,0,0,1-2.007-.868Z" transform="translate(17.188 3.211)" fill="#070707"/>
        <g id="Rectangle_362-2" data-name="Rectangle 362" transform="translate(5.952 19.841)" fill="#efefef" stroke="#070707" stroke-width="0.5">
          <rect width="30.753" height="7.936" stroke="none"/>
          <rect x="0.25" y="0.25" width="30.253" height="7.436" fill="none"/>
        </g>
        <line id="Line_150-2" data-name="Line 150" x2="30.403" transform="translate(6.653 29.446)" fill="none" stroke="#070707" stroke-width="0.5"/>
        <line id="Line_151-2" data-name="Line 151" x2="30.403" transform="translate(6.653 31.58)" fill="none" stroke="#070707" stroke-width="0.5"/>
        <line id="Line_155-2" data-name="Line 155" x2="30.403" transform="translate(6.653 39.58)" fill="none" stroke="#070707" stroke-width="0.5"/>
        <line id="Line_152-2" data-name="Line 152" x2="30.403" transform="translate(6.653 33.713)" fill="none" stroke="#070707" stroke-width="0.5"/>
        <line id="Line_154-2" data-name="Line 154" x2="24.003" transform="translate(6.653 41.714)" fill="none" stroke="#070707" stroke-width="0.5"/>
        <line id="Line_156-2" data-name="Line 156" x2="6.934" transform="translate(6.653 47.048)" fill="none" stroke="#070707" stroke-width="0.5"/>
        <line id="Line_153-2" data-name="Line 153" x2="24.003" transform="translate(6.653 35.847)" fill="none" stroke="#070707" stroke-width="0.5"/>
      </g>
      <g id="Group_672" data-name="Group 672" transform="translate(1635.142 2530.264)">
        <g id="Rectangle_360-3" data-name="Rectangle 360" fill="#efefef" stroke="#070707" stroke-width="0.5">
          <rect width="43.65" height="55.554" stroke="none"/>
          <rect x="0.25" y="0.25" width="43.15" height="55.054" fill="none"/>
        </g>
        <g id="Rectangle_361-3" data-name="Rectangle 361" transform="translate(1.984 1.984)" fill="#efefef" stroke="#070707" stroke-width="0.5">
          <rect width="39.682" height="51.586" stroke="none"/>
          <rect x="0.25" y="0.25" width="39.182" height="51.086" fill="none"/>
        </g>
        <path id="Path_2593-3" data-name="Path 2593" d="M.858,11.578a4.24,4.24,0,0,0,2.394,1.15V13.8H4.531V12.728a2.575,2.575,0,0,0,2.347-2.558c0-2.593-3.814-2.523-3.814-3.52,0-.469.469-.657.892-.657a3.2,3.2,0,0,1,1.854.739l.868-1.678a3.669,3.669,0,0,0-2.147-.915V3.07H3.252v1.1a2.548,2.548,0,0,0-2.241,2.5c0,2.523,3.814,2.605,3.814,3.544,0,.5-.458.669-.88.669a3.477,3.477,0,0,1-2.007-.868Z" transform="translate(17.188 3.211)" fill="#070707"/>
        <g id="Rectangle_362-3" data-name="Rectangle 362" transform="translate(5.952 19.841)" fill="#efefef" stroke="#070707" stroke-width="0.5">
          <rect width="30.753" height="7.936" stroke="none"/>
          <rect x="0.25" y="0.25" width="30.253" height="7.436" fill="none"/>
        </g>
        <line id="Line_150-3" data-name="Line 150" x2="30.403" transform="translate(6.653 29.446)" fill="none" stroke="#070707" stroke-width="0.5"/>
        <line id="Line_151-3" data-name="Line 151" x2="30.403" transform="translate(6.653 31.58)" fill="none" stroke="#070707" stroke-width="0.5"/>
        <line id="Line_155-3" data-name="Line 155" x2="30.403" transform="translate(6.653 39.58)" fill="none" stroke="#070707" stroke-width="0.5"/>
        <line id="Line_152-3" data-name="Line 152" x2="30.403" transform="translate(6.653 33.713)" fill="none" stroke="#070707" stroke-width="0.5"/>
        <line id="Line_154-3" data-name="Line 154" x2="24.003" transform="translate(6.653 41.714)" fill="none" stroke="#070707" stroke-width="0.5"/>
        <line id="Line_156-3" data-name="Line 156" x2="6.934" transform="translate(6.653 47.048)" fill="none" stroke="#070707" stroke-width="0.5"/>
        <line id="Line_153-3" data-name="Line 153" x2="24.003" transform="translate(6.653 35.847)" fill="none" stroke="#070707" stroke-width="0.5"/>
      </g>
    </g>
    <g id="Group_692" data-name="Group 692" transform="translate(1963.581 2597.482) rotate(90)">
      <path id="Path_2546" data-name="Path 2546" d="M0,7.19,7.2,5.654,44.268,0l2.066,13.877-17,3.085c-12.95,2.462-13.593,5.652-12.2,14.537l.651,16.4-14.3.708L1.019,13.877,0,7.19Z" transform="translate(91.094 39.409) rotate(140)"/>
      <path id="Path_2585" data-name="Path 2585" d="M68.066,0H0" transform="translate(0 35.488)" fill="none" stroke="#000" stroke-width="19"/>
    </g>
    <path id="Path_3109" data-name="Path 3109" d="M0,38.99l6.347,1.353L39,45.325,40.823,33.1,25.842,30.38c39-22.692,92.542-19.974,126.551,9.963l8.167-9.52C121.091-4.538,59.863-6.79,15.4,21.279L18.585,1.82,5.88,0,.9,33.1,0,38.99Z" transform="matrix(-0.035, 0.999, -0.999, -0.035, 2044.168, 2334.518)"/>
    <path id="Path_3110" data-name="Path 3110" d="M0,38.99l6.347,1.353L39,45.325,40.823,33.1,25.842,30.38c39-22.692,92.542-19.974,126.551,9.963l8.167-9.52C121.091-4.538,59.863-6.79,15.4,21.279L18.585,1.82,5.88,0,.9,33.1,0,38.99Z" transform="translate(1812.485 2494.843) rotate(-90)"/>
    <g id="Group_693" data-name="Group 693" transform="translate(2058.634 2384.137)">
      <g id="Group_603" data-name="Group 603" transform="translate(0 0)">
        <rect id="Rectangle_142" data-name="Rectangle 142" width="46" height="26" rx="3" transform="translate(0.366 0.863)" fill="#efefef"/>
        <g id="Group_94" data-name="Group 94">
          <path id="Path_1581" data-name="Path 1581" d="M30.659,22a8.659,8.659,0,1,0,8.659,8.659A8.659,8.659,0,0,0,30.659,22Zm0,15.587a6.927,6.927,0,1,1,6.927-6.927A6.927,6.927,0,0,1,30.659,37.587Z" transform="translate(-7.279 -17.67)" fill="#1762a0"/>
          <path id="Path_1582" data-name="Path 1582" d="M31.6,28.464H33.33a.866.866,0,0,0,0-1.732h-.866v-.866a.866.866,0,1,0-1.732,0v1.026a2.591,2.591,0,0,0,.866,5.036.866.866,0,0,1,0,1.732H29.866a.866.866,0,0,0,0,1.732h.866v.866a.866.866,0,1,0,1.732,0V35.231A2.591,2.591,0,0,0,31.6,30.2a.866.866,0,0,1,0-1.732Z" transform="translate(-8.218 -18.073)" fill="#1762a0"/>
          <path id="Path_1583" data-name="Path 1583" d="M50.894,17H5.866A.866.866,0,0,0,5,17.866V42.112a.866.866,0,0,0,.866.866H50.894a.866.866,0,0,0,.866-.866V17.866A.866.866,0,0,0,50.894,17ZM44.9,41.246H11.858A6.065,6.065,0,0,0,6.732,36.12V23.858a6.065,6.065,0,0,0,5.126-5.126H44.9a6.065,6.065,0,0,0,5.126,5.126V36.12A6.065,6.065,0,0,0,44.9,41.246Zm5.126-22.514v3.377a4.342,4.342,0,0,1-3.377-3.377Zm-43.3,0h3.377a4.342,4.342,0,0,1-3.377,3.377Zm0,22.514V37.869a4.342,4.342,0,0,1,3.377,3.377Zm43.3,0H46.651a4.342,4.342,0,0,1,3.377-3.377Z" transform="translate(-5 -17)" fill="#1762a0"/>
        </g>
      </g>
      <g id="Group_602" data-name="Group 602" transform="translate(5.318 16.881)">
        <rect id="Rectangle_142-2" data-name="Rectangle 142" width="46" height="26" rx="3" transform="translate(0.414 0.982)" fill="#efefef"/>
        <g id="Group_94-2" data-name="Group 94" transform="translate(0 0)">
          <path id="Path_1581-2" data-name="Path 1581" d="M30.659,22a8.659,8.659,0,1,0,8.659,8.659A8.659,8.659,0,0,0,30.659,22Zm0,15.587a6.927,6.927,0,1,1,6.927-6.927A6.927,6.927,0,0,1,30.659,37.587Z" transform="translate(-7.279 -17.67)" fill="#1762a0"/>
          <path id="Path_1582-2" data-name="Path 1582" d="M31.6,28.464H33.33a.866.866,0,0,0,0-1.732h-.866v-.866a.866.866,0,1,0-1.732,0v1.026a2.591,2.591,0,0,0,.866,5.036.866.866,0,0,1,0,1.732H29.866a.866.866,0,0,0,0,1.732h.866v.866a.866.866,0,1,0,1.732,0V35.231A2.591,2.591,0,0,0,31.6,30.2a.866.866,0,0,1,0-1.732Z" transform="translate(-8.218 -18.073)" fill="#1762a0"/>
          <path id="Path_1583-2" data-name="Path 1583" d="M50.894,17H5.866A.866.866,0,0,0,5,17.866V42.112a.866.866,0,0,0,.866.866H50.894a.866.866,0,0,0,.866-.866V17.866A.866.866,0,0,0,50.894,17ZM44.9,41.246H11.858A6.065,6.065,0,0,0,6.732,36.12V23.858a6.065,6.065,0,0,0,5.126-5.126H44.9a6.065,6.065,0,0,0,5.126,5.126V36.12A6.065,6.065,0,0,0,44.9,41.246Zm5.126-22.514v3.377a4.342,4.342,0,0,1-3.377-3.377Zm-43.3,0h3.377a4.342,4.342,0,0,1-3.377,3.377Zm0,22.514V37.869a4.342,4.342,0,0,1,3.377,3.377Zm43.3,0H46.651a4.342,4.342,0,0,1,3.377-3.377Z" transform="translate(-5 -17)" fill="#1762a0"/>
        </g>
      </g>
      <g id="Group_600" data-name="Group 600" transform="translate(-7.167 8.952)">
        <rect id="Rectangle_142-3" data-name="Rectangle 142" width="45" height="24" rx="3" transform="translate(0.533 0.911)" fill="#efefef"/>
        <g id="Group_94-3" data-name="Group 94" transform="translate(0 0)">
          <path id="Path_1581-3" data-name="Path 1581" d="M30.659,22a8.659,8.659,0,1,0,8.659,8.659A8.659,8.659,0,0,0,30.659,22Zm0,15.587a6.927,6.927,0,1,1,6.927-6.927A6.927,6.927,0,0,1,30.659,37.587Z" transform="translate(-7.279 -17.67)" fill="#1762a0"/>
          <path id="Path_1582-3" data-name="Path 1582" d="M31.6,28.464H33.33a.866.866,0,0,0,0-1.732h-.866v-.866a.866.866,0,1,0-1.732,0v1.026a2.591,2.591,0,0,0,.866,5.036.866.866,0,0,1,0,1.732H29.866a.866.866,0,0,0,0,1.732h.866v.866a.866.866,0,1,0,1.732,0V35.231A2.591,2.591,0,0,0,31.6,30.2a.866.866,0,0,1,0-1.732Z" transform="translate(-8.218 -18.073)" fill="#1762a0"/>
          <path id="Path_1583-3" data-name="Path 1583" d="M50.894,17H5.866A.866.866,0,0,0,5,17.866V42.112a.866.866,0,0,0,.866.866H50.894a.866.866,0,0,0,.866-.866V17.866A.866.866,0,0,0,50.894,17ZM44.9,41.246H11.858A6.065,6.065,0,0,0,6.732,36.12V23.858a6.065,6.065,0,0,0,5.126-5.126H44.9a6.065,6.065,0,0,0,5.126,5.126V36.12A6.065,6.065,0,0,0,44.9,41.246Zm5.126-22.514v3.377a4.342,4.342,0,0,1-3.377-3.377Zm-43.3,0h3.377a4.342,4.342,0,0,1-3.377,3.377Zm0,22.514V37.869a4.342,4.342,0,0,1,3.377,3.377Zm43.3,0H46.651a4.342,4.342,0,0,1,3.377-3.377Z" transform="translate(-5 -17)" fill="#1762a0"/>
        </g>
      </g>
    </g>
    <g id="Group_694" data-name="Group 694" transform="translate(1998.508 2817.302) rotate(180)">
      <g id="Group_597" data-name="Group 597" transform="translate(0)">
        <rect id="Rectangle_855" data-name="Rectangle 855" width="9.92" height="24.801" transform="translate(5.198)" fill="#1762a0"/>
        <path id="Polygon_11" data-name="Polygon 11" d="M9.92,0l9.92,17.48H0Z" transform="translate(19.841 38.193) rotate(180)" fill="#1762a0"/>
      </g>
    </g>
    <g id="Group_695" data-name="Group 695" transform="translate(1979.159 2726.608)">
      <g id="Group_597-2" data-name="Group 597" transform="translate(0)">
        <rect id="Rectangle_855-2" data-name="Rectangle 855" width="9.92" height="24.801" transform="translate(5.198)" fill="#a7050e"/>
        <path id="Polygon_11-2" data-name="Polygon 11" d="M9.92,0l9.92,17.48H0Z" transform="translate(19.841 38.193) rotate(180)" fill="#a7050e"/>
      </g>
    </g>
    <g id="Group_699" data-name="Group 699" transform="translate(1845 2161.739)">
      <path id="Subtraction_11" data-name="Subtraction 11" d="M60.527,20.245H0c0-.029,0-.057,0-.086v-.034a14.442,14.442,0,0,1,2.378-7.833,21.954,21.954,0,0,1,6.486-6.4,33.891,33.891,0,0,1,9.62-4.313A43.506,43.506,0,0,1,30.263,0a43.508,43.508,0,0,1,11.78,1.582,33.892,33.892,0,0,1,9.62,4.313,21.954,21.954,0,0,1,6.486,6.4,14.442,14.442,0,0,1,2.378,7.833c0,.04,0,.08,0,.12Z" transform="translate(49.99 20.981)" fill="#7d0407"/>
      <rect id="Rectangle_135" data-name="Rectangle 135" width="160.141" height="10.294" transform="translate(0 91.884)" fill="#7d0404"/>
      <rect id="Rectangle_349" data-name="Rectangle 349" width="160.141" height="10.294" transform="translate(0 83.332)" fill="#7d0404"/>
      <rect id="Rectangle_353" data-name="Rectangle 353" width="60.527" height="10.294" transform="translate(50.001 46.488)" fill="#7d0404"/>
      <rect id="Rectangle_136" data-name="Rectangle 136" width="160.141" height="10.294" transform="translate(0 148.499)" fill="#7d0404"/>
      <rect id="Rectangle_137" data-name="Rectangle 137" width="10.294" height="36.028" transform="translate(74.662 107.324)" fill="#7d0404"/>
      <rect id="Rectangle_351" data-name="Rectangle 351" width="10.294" height="16.376" transform="translate(74.611 61.843)" fill="#7d0404"/>
      <rect id="Rectangle_355" data-name="Rectangle 355" width="3.057" height="16.376" transform="translate(78.558 0)" fill="#7d0404"/>
      <rect id="Rectangle_138" data-name="Rectangle 138" width="10.294" height="36.028" transform="translate(39.792 107.324)" fill="#7d0404"/>
      <rect id="Rectangle_356" data-name="Rectangle 356" width="10.294" height="36.028" transform="translate(22.687 107.324)" fill="#7d0404"/>
      <rect id="Rectangle_357" data-name="Rectangle 357" width="10.294" height="36.028" transform="translate(57.556 107.324)" fill="#7d0404"/>
      <rect id="Rectangle_358" data-name="Rectangle 358" width="10.294" height="36.028" transform="translate(92.425 107.324)" fill="#7d0404"/>
      <rect id="Rectangle_359" data-name="Rectangle 359" width="10.294" height="36.028" transform="translate(127.294 107.324)" fill="#7d0404"/>
      <rect id="Rectangle_350" data-name="Rectangle 350" width="10.294" height="16.376" transform="translate(54.024 61.843)" fill="#7d0404"/>
      <rect id="Rectangle_139" data-name="Rectangle 139" width="10.294" height="36.028" transform="translate(4.923 107.324)" fill="#7d0404"/>
      <rect id="Rectangle_140" data-name="Rectangle 140" width="10.294" height="36.028" transform="translate(144.4 107.324)" fill="#7d0404"/>
      <rect id="Rectangle_141" data-name="Rectangle 141" width="10.294" height="36.028" transform="translate(109.531 107.324)" fill="#7d0404"/>
      <rect id="Rectangle_352" data-name="Rectangle 352" width="10.294" height="16.376" transform="translate(95.198 61.843)" fill="#7d0404"/>
    </g>
    <g id="Group_696" data-name="Group 696" transform="translate(1883.351 2491.709)">
      <path id="Path_1579" data-name="Path 1579" d="M1.23,27.192H89.99L45.61,1.85Z" transform="translate(-1.23 -1.85)" fill="#7d0404"/>
      <rect id="Rectangle_135-2" data-name="Rectangle 135" width="82.414" height="8.241" transform="translate(3.173 29.463)" fill="#7d0404"/>
      <rect id="Rectangle_136-2" data-name="Rectangle 136" width="82.414" height="8.241" transform="translate(3.173 74.791)" fill="#7d0404"/>
      <rect id="Rectangle_137-2" data-name="Rectangle 137" width="8.241" height="28.845" transform="translate(40.259 41.825)" fill="#7d0404"/>
      <rect id="Rectangle_138-2" data-name="Rectangle 138" width="8.241" height="28.845" transform="translate(23.776 41.825)" fill="#7d0404"/>
      <rect id="Rectangle_139-2" data-name="Rectangle 139" width="8.241" height="28.845" transform="translate(7.294 41.825)" fill="#7d0404"/>
      <rect id="Rectangle_140-2" data-name="Rectangle 140" width="8.241" height="28.845" transform="translate(73.225 41.825)" fill="#7d0404"/>
      <rect id="Rectangle_141-2" data-name="Rectangle 141" width="8.241" height="28.845" transform="translate(56.742 41.825)" fill="#7d0404"/>
    </g>
    <text id="FED_Decreases_Cash_Reserves_of_Banks_by_Selling_Treasury_Notes_and_Bonds" data-name="FED Decreases Cash Reserves of Banks by Selling Treasury Notes and Bonds" transform="translate(1861.329 2354.507)" fill="#070707" font-size="16" font-family="MuseoSans-900, Museo Sans" font-weight="900"><tspan x="0" y="15">FED Decreases </tspan><tspan x="0" y="34">Cash Reserves of </tspan><tspan x="0" y="53">Banks by Selling </tspan><tspan x="0" y="72">Treasury Notes </tspan><tspan x="0" y="91">and Bonds</tspan></text>
    <text id="Banks_Have_Less_Money_to_Loan_Leading_to_Higher_Interest_Rates_and_Add_Less_Money_to_the_Economy" data-name="Banks Have Less Money to Loan Leading to Higher Interest Rates and Add Less Money to the Economy" transform="translate(1984.791 2575.135)" fill="#070707" font-size="16" font-family="MuseoSans-900, Museo Sans" font-weight="900"><tspan x="0" y="15">Banks Have Less </tspan><tspan x="0" y="34">Money to Loan </tspan><tspan x="0" y="53">Leading to </tspan><tspan x="0" y="72">Higher Interest </tspan><tspan x="0" y="91">Rates and Add </tspan><tspan x="0" y="110">Less Money to </tspan><tspan x="0" y="129">the Economy</tspan></text>
    <text id="_3.25_" data-name="3.25%" transform="translate(1861 2779)" fill="#070707" font-size="30" font-family="MuseoSans-900, Museo Sans" font-weight="900"><tspan x="19.88" y="28">3.25%</tspan></text>
    <g id="Group_700" data-name="Group 700" transform="translate(1882.227 2712.901)">
      <g id="Group_453" data-name="Group 453" transform="translate(0 17.777)">
        <rect id="Rectangle_142-4" data-name="Rectangle 142" width="48.474" height="27.398" rx="3" transform="translate(0.324 0.909)" fill="#efefef"/>
        <g id="Group_94-4" data-name="Group 94" transform="translate(0 0)">
          <path id="Path_1581-4" data-name="Path 1581" d="M31.2,22a9.2,9.2,0,1,0,9.2,9.2A9.2,9.2,0,0,0,31.2,22Zm0,16.556A7.358,7.358,0,1,1,38.556,31.2,7.358,7.358,0,0,1,31.2,38.556Z" transform="translate(-6.363 -17.401)" fill="#1762a0"/>
          <path id="Path_1582-4" data-name="Path 1582" d="M31.759,28.679H33.6a.92.92,0,0,0,0-1.84h-.92v-.92a.92.92,0,1,0-1.84,0v1.089a2.753,2.753,0,0,0,.92,5.349.92.92,0,0,1,0,1.84H29.92a.92.92,0,0,0,0,1.84h.92v.92a.92.92,0,1,0,1.84,0V35.868a2.753,2.753,0,0,0-.92-5.349.92.92,0,1,1,0-1.84Z" transform="translate(-6.925 -17.642)" fill="#1762a0"/>
          <path id="Path_1583-4" data-name="Path 1583" d="M53.75,17H5.92a.92.92,0,0,0-.92.92V43.674a.92.92,0,0,0,.92.92H53.75a.92.92,0,0,0,.92-.92V17.92A.92.92,0,0,0,53.75,17ZM47.384,42.754h-35.1A6.443,6.443,0,0,0,6.84,37.309V24.285a6.443,6.443,0,0,0,5.445-5.445h35.1a6.443,6.443,0,0,0,5.445,5.445V37.309A6.443,6.443,0,0,0,47.384,42.754ZM52.83,18.84v3.587a4.612,4.612,0,0,1-3.587-3.587Zm-45.99,0h3.587A4.612,4.612,0,0,1,6.84,22.426Zm0,23.915V39.168a4.612,4.612,0,0,1,3.587,3.587Zm45.99,0H49.243a4.612,4.612,0,0,1,3.587-3.587Z" transform="translate(-5 -17)" fill="#1762a0"/>
        </g>
      </g>
      <g id="Group_455" data-name="Group 455" transform="translate(21.136 0)">
        <rect id="Rectangle_142-5" data-name="Rectangle 142" width="48.474" height="27.398" rx="3" transform="translate(0.324 0.909)" fill="#efefef"/>
        <g id="Group_94-5" data-name="Group 94" transform="translate(0 0)">
          <path id="Path_1581-5" data-name="Path 1581" d="M31.2,22a9.2,9.2,0,1,0,9.2,9.2A9.2,9.2,0,0,0,31.2,22Zm0,16.556A7.358,7.358,0,1,1,38.556,31.2,7.358,7.358,0,0,1,31.2,38.556Z" transform="translate(-6.363 -17.401)" fill="#1762a0"/>
          <path id="Path_1582-5" data-name="Path 1582" d="M31.759,28.679H33.6a.92.92,0,0,0,0-1.84h-.92v-.92a.92.92,0,1,0-1.84,0v1.089a2.753,2.753,0,0,0,.92,5.349.92.92,0,0,1,0,1.84H29.92a.92.92,0,0,0,0,1.84h.92v.92a.92.92,0,1,0,1.84,0V35.868a2.753,2.753,0,0,0-.92-5.349.92.92,0,1,1,0-1.84Z" transform="translate(-6.925 -17.642)" fill="#1762a0"/>
          <path id="Path_1583-5" data-name="Path 1583" d="M53.75,17H5.92a.92.92,0,0,0-.92.92V43.674a.92.92,0,0,0,.92.92H53.75a.92.92,0,0,0,.92-.92V17.92A.92.92,0,0,0,53.75,17ZM47.384,42.754h-35.1A6.443,6.443,0,0,0,6.84,37.309V24.285a6.443,6.443,0,0,0,5.445-5.445h35.1a6.443,6.443,0,0,0,5.445,5.445V37.309A6.443,6.443,0,0,0,47.384,42.754ZM52.83,18.84v3.587a4.612,4.612,0,0,1-3.587-3.587Zm-45.99,0h3.587A4.612,4.612,0,0,1,6.84,22.426Zm0,23.915V39.168a4.612,4.612,0,0,1,3.587,3.587Zm45.99,0H49.243a4.612,4.612,0,0,1,3.587-3.587Z" transform="translate(-5 -17)" fill="#1762a0"/>
        </g>
      </g>
      <g id="Group_458" data-name="Group 458" transform="translate(30.619 11.591)">
        <rect id="Rectangle_142-6" data-name="Rectangle 142" width="48.474" height="27.398" rx="3" transform="translate(0.324 0.909)" fill="#efefef"/>
        <g id="Group_94-6" data-name="Group 94" transform="translate(0 0)">
          <path id="Path_1581-6" data-name="Path 1581" d="M31.2,22a9.2,9.2,0,1,0,9.2,9.2A9.2,9.2,0,0,0,31.2,22Zm0,16.556A7.358,7.358,0,1,1,38.556,31.2,7.358,7.358,0,0,1,31.2,38.556Z" transform="translate(-6.363 -17.401)" fill="#1762a0"/>
          <path id="Path_1582-6" data-name="Path 1582" d="M31.759,28.679H33.6a.92.92,0,0,0,0-1.84h-.92v-.92a.92.92,0,1,0-1.84,0v1.089a2.753,2.753,0,0,0,.92,5.349.92.92,0,0,1,0,1.84H29.92a.92.92,0,0,0,0,1.84h.92v.92a.92.92,0,1,0,1.84,0V35.868a2.753,2.753,0,0,0-.92-5.349.92.92,0,1,1,0-1.84Z" transform="translate(-6.925 -17.642)" fill="#1762a0"/>
          <path id="Path_1583-6" data-name="Path 1583" d="M53.75,17H5.92a.92.92,0,0,0-.92.92V43.674a.92.92,0,0,0,.92.92H53.75a.92.92,0,0,0,.92-.92V17.92A.92.92,0,0,0,53.75,17ZM47.384,42.754h-35.1A6.443,6.443,0,0,0,6.84,37.309V24.285a6.443,6.443,0,0,0,5.445-5.445h35.1a6.443,6.443,0,0,0,5.445,5.445V37.309A6.443,6.443,0,0,0,47.384,42.754ZM52.83,18.84v3.587a4.612,4.612,0,0,1-3.587-3.587Zm-45.99,0h3.587A4.612,4.612,0,0,1,6.84,22.426Zm0,23.915V39.168a4.612,4.612,0,0,1,3.587,3.587Zm45.99,0H49.243a4.612,4.612,0,0,1,3.587-3.587Z" transform="translate(-5 -17)" fill="#1762a0"/>
        </g>
      </g>
    </g>
  </g>
</svg>
