<svg xmlns="http://www.w3.org/2000/svg" width="386.791" height="653.063" viewBox="0 0 386.791 653.063">
  <g id="Group_731" data-name="Group 731" transform="translate(-1190.712 -2161.739)">
    <g id="Group_691" data-name="Group 691" transform="translate(-426 -146)">
      <g id="Group_686" data-name="Group 686" transform="translate(1621.337 2521.561)">
        <g id="Rectangle_360" data-name="Rectangle 360" fill="#efefef" stroke="#070707" stroke-width="0.5">
          <rect width="43.65" height="55.554" stroke="none"/>
          <rect x="0.25" y="0.25" width="43.15" height="55.054" fill="none"/>
        </g>
        <g id="Rectangle_361" data-name="Rectangle 361" transform="translate(1.984 1.984)" fill="#efefef" stroke="#070707" stroke-width="0.5">
          <rect width="39.682" height="51.586" stroke="none"/>
          <rect x="0.25" y="0.25" width="39.182" height="51.086" fill="none"/>
        </g>
        <path id="Path_2593" data-name="Path 2593" d="M.858,11.578a4.24,4.24,0,0,0,2.394,1.15V13.8H4.531V12.728a2.575,2.575,0,0,0,2.347-2.558c0-2.593-3.814-2.523-3.814-3.52,0-.469.469-.657.892-.657a3.2,3.2,0,0,1,1.854.739l.868-1.678a3.669,3.669,0,0,0-2.147-.915V3.07H3.252v1.1a2.548,2.548,0,0,0-2.241,2.5c0,2.523,3.814,2.605,3.814,3.544,0,.5-.458.669-.88.669a3.477,3.477,0,0,1-2.007-.868Z" transform="translate(17.188 3.211)" fill="#070707"/>
        <g id="Rectangle_362" data-name="Rectangle 362" transform="translate(5.952 19.841)" fill="#efefef" stroke="#070707" stroke-width="0.5">
          <rect width="30.753" height="7.936" stroke="none"/>
          <rect x="0.25" y="0.25" width="30.253" height="7.436" fill="none"/>
        </g>
        <line id="Line_150" data-name="Line 150" x2="30.403" transform="translate(6.653 29.446)" fill="none" stroke="#070707" stroke-width="0.5"/>
        <line id="Line_151" data-name="Line 151" x2="30.403" transform="translate(6.653 31.58)" fill="none" stroke="#070707" stroke-width="0.5"/>
        <line id="Line_155" data-name="Line 155" x2="30.403" transform="translate(6.653 39.58)" fill="none" stroke="#070707" stroke-width="0.5"/>
        <line id="Line_152" data-name="Line 152" x2="30.403" transform="translate(6.653 33.713)" fill="none" stroke="#070707" stroke-width="0.5"/>
        <line id="Line_154" data-name="Line 154" x2="24.003" transform="translate(6.653 41.714)" fill="none" stroke="#070707" stroke-width="0.5"/>
        <line id="Line_156" data-name="Line 156" x2="6.934" transform="translate(6.653 47.048)" fill="none" stroke="#070707" stroke-width="0.5"/>
        <line id="Line_153" data-name="Line 153" x2="24.003" transform="translate(6.653 35.847)" fill="none" stroke="#070707" stroke-width="0.5"/>
      </g>
      <g id="Group_685" data-name="Group 685" transform="translate(1633.712 2532.619)">
        <g id="Rectangle_360-2" data-name="Rectangle 360" fill="#efefef" stroke="#070707" stroke-width="0.5">
          <rect width="43.65" height="55.554" stroke="none"/>
          <rect x="0.25" y="0.25" width="43.15" height="55.054" fill="none"/>
        </g>
        <g id="Rectangle_361-2" data-name="Rectangle 361" transform="translate(1.984 1.984)" fill="#efefef" stroke="#070707" stroke-width="0.5">
          <rect width="39.682" height="51.586" stroke="none"/>
          <rect x="0.25" y="0.25" width="39.182" height="51.086" fill="none"/>
        </g>
        <path id="Path_2593-2" data-name="Path 2593" d="M.858,11.578a4.24,4.24,0,0,0,2.394,1.15V13.8H4.531V12.728a2.575,2.575,0,0,0,2.347-2.558c0-2.593-3.814-2.523-3.814-3.52,0-.469.469-.657.892-.657a3.2,3.2,0,0,1,1.854.739l.868-1.678a3.669,3.669,0,0,0-2.147-.915V3.07H3.252v1.1a2.548,2.548,0,0,0-2.241,2.5c0,2.523,3.814,2.605,3.814,3.544,0,.5-.458.669-.88.669a3.477,3.477,0,0,1-2.007-.868Z" transform="translate(17.188 3.211)" fill="#070707"/>
        <g id="Rectangle_362-2" data-name="Rectangle 362" transform="translate(5.952 19.841)" fill="#efefef" stroke="#070707" stroke-width="0.5">
          <rect width="30.753" height="7.936" stroke="none"/>
          <rect x="0.25" y="0.25" width="30.253" height="7.436" fill="none"/>
        </g>
        <line id="Line_150-2" data-name="Line 150" x2="30.403" transform="translate(6.653 29.446)" fill="none" stroke="#070707" stroke-width="0.5"/>
        <line id="Line_151-2" data-name="Line 151" x2="30.403" transform="translate(6.653 31.58)" fill="none" stroke="#070707" stroke-width="0.5"/>
        <line id="Line_155-2" data-name="Line 155" x2="30.403" transform="translate(6.653 39.58)" fill="none" stroke="#070707" stroke-width="0.5"/>
        <line id="Line_152-2" data-name="Line 152" x2="30.403" transform="translate(6.653 33.713)" fill="none" stroke="#070707" stroke-width="0.5"/>
        <line id="Line_154-2" data-name="Line 154" x2="24.003" transform="translate(6.653 41.714)" fill="none" stroke="#070707" stroke-width="0.5"/>
        <line id="Line_156-2" data-name="Line 156" x2="6.934" transform="translate(6.653 47.048)" fill="none" stroke="#070707" stroke-width="0.5"/>
        <line id="Line_153-2" data-name="Line 153" x2="24.003" transform="translate(6.653 35.847)" fill="none" stroke="#070707" stroke-width="0.5"/>
      </g>
      <g id="Group_672" data-name="Group 672" transform="translate(1616.712 2543.264)">
        <g id="Rectangle_360-3" data-name="Rectangle 360" fill="#efefef" stroke="#070707" stroke-width="0.5">
          <rect width="43.65" height="55.554" stroke="none"/>
          <rect x="0.25" y="0.25" width="43.15" height="55.054" fill="none"/>
        </g>
        <g id="Rectangle_361-3" data-name="Rectangle 361" transform="translate(1.984 1.984)" fill="#efefef" stroke="#070707" stroke-width="0.5">
          <rect width="39.682" height="51.586" stroke="none"/>
          <rect x="0.25" y="0.25" width="39.182" height="51.086" fill="none"/>
        </g>
        <path id="Path_2593-3" data-name="Path 2593" d="M.858,11.578a4.24,4.24,0,0,0,2.394,1.15V13.8H4.531V12.728a2.575,2.575,0,0,0,2.347-2.558c0-2.593-3.814-2.523-3.814-3.52,0-.469.469-.657.892-.657a3.2,3.2,0,0,1,1.854.739l.868-1.678a3.669,3.669,0,0,0-2.147-.915V3.07H3.252v1.1a2.548,2.548,0,0,0-2.241,2.5c0,2.523,3.814,2.605,3.814,3.544,0,.5-.458.669-.88.669a3.477,3.477,0,0,1-2.007-.868Z" transform="translate(17.188 3.211)" fill="#070707"/>
        <g id="Rectangle_362-3" data-name="Rectangle 362" transform="translate(5.952 19.841)" fill="#efefef" stroke="#070707" stroke-width="0.5">
          <rect width="30.753" height="7.936" stroke="none"/>
          <rect x="0.25" y="0.25" width="30.253" height="7.436" fill="none"/>
        </g>
        <line id="Line_150-3" data-name="Line 150" x2="30.403" transform="translate(6.653 29.446)" fill="none" stroke="#070707" stroke-width="0.5"/>
        <line id="Line_151-3" data-name="Line 151" x2="30.403" transform="translate(6.653 31.58)" fill="none" stroke="#070707" stroke-width="0.5"/>
        <line id="Line_155-3" data-name="Line 155" x2="30.403" transform="translate(6.653 39.58)" fill="none" stroke="#070707" stroke-width="0.5"/>
        <line id="Line_152-3" data-name="Line 152" x2="30.403" transform="translate(6.653 33.713)" fill="none" stroke="#070707" stroke-width="0.5"/>
        <line id="Line_154-3" data-name="Line 154" x2="24.003" transform="translate(6.653 41.714)" fill="none" stroke="#070707" stroke-width="0.5"/>
        <line id="Line_156-3" data-name="Line 156" x2="6.934" transform="translate(6.653 47.048)" fill="none" stroke="#070707" stroke-width="0.5"/>
        <line id="Line_153-3" data-name="Line 153" x2="24.003" transform="translate(6.653 35.847)" fill="none" stroke="#070707" stroke-width="0.5"/>
      </g>
    </g>
    <g id="Group_670" data-name="Group 670" transform="translate(1408.581 2598.482) rotate(90)">
      <path id="Path_2546" data-name="Path 2546" d="M0,7.19,7.2,5.654,44.268,0l2.066,13.877-17,3.085c-12.95,2.462-13.593,5.652-12.2,14.537l.651,16.4-14.3.708L1.019,13.877,0,7.19Z" transform="translate(91.094 39.409) rotate(140)"/>
      <path id="Path_2585" data-name="Path 2585" d="M68.066,0H0" transform="translate(0 35.488)" fill="none" stroke="#000" stroke-width="19"/>
    </g>
    <path id="Path_3101" data-name="Path 3101" d="M0,6.335,6.347,4.982,39,0l1.82,12.226L25.842,14.945c39,22.692,92.542,19.974,126.551-9.963l8.167,9.52C121.091,49.863,59.863,52.114,15.4,24.045L18.585,43.5,5.88,45.325.9,12.226,0,6.335Z" transform="translate(1444.056 2490.177) rotate(-90)"/>
    <path id="Path_3105" data-name="Path 3105" d="M0,6.335,6.347,4.982,39,0l1.82,12.226L25.842,14.945c39,22.692,92.542,19.974,126.551-9.963l8.167,9.52C121.091,49.863,59.863,52.114,15.4,24.045L18.585,43.5,5.88,45.325.9,12.226,0,6.335Z" transform="translate(1308.81 2330.012) rotate(90)"/>
    <g id="Group_604" data-name="Group 604" transform="translate(1508.119 2389.137)">
      <g id="Group_603" data-name="Group 603" transform="translate(0 0)">
        <rect id="Rectangle_142" data-name="Rectangle 142" width="46" height="26" rx="3" transform="translate(0.366 0.863)" fill="#efefef"/>
        <g id="Group_94" data-name="Group 94">
          <path id="Path_1581" data-name="Path 1581" d="M30.659,22a8.659,8.659,0,1,0,8.659,8.659A8.659,8.659,0,0,0,30.659,22Zm0,15.587a6.927,6.927,0,1,1,6.927-6.927A6.927,6.927,0,0,1,30.659,37.587Z" transform="translate(-7.279 -17.67)" fill="#1762a0"/>
          <path id="Path_1582" data-name="Path 1582" d="M31.6,28.464H33.33a.866.866,0,0,0,0-1.732h-.866v-.866a.866.866,0,1,0-1.732,0v1.026a2.591,2.591,0,0,0,.866,5.036.866.866,0,0,1,0,1.732H29.866a.866.866,0,0,0,0,1.732h.866v.866a.866.866,0,1,0,1.732,0V35.231A2.591,2.591,0,0,0,31.6,30.2a.866.866,0,0,1,0-1.732Z" transform="translate(-8.218 -18.073)" fill="#1762a0"/>
          <path id="Path_1583" data-name="Path 1583" d="M50.894,17H5.866A.866.866,0,0,0,5,17.866V42.112a.866.866,0,0,0,.866.866H50.894a.866.866,0,0,0,.866-.866V17.866A.866.866,0,0,0,50.894,17ZM44.9,41.246H11.858A6.065,6.065,0,0,0,6.732,36.12V23.858a6.065,6.065,0,0,0,5.126-5.126H44.9a6.065,6.065,0,0,0,5.126,5.126V36.12A6.065,6.065,0,0,0,44.9,41.246Zm5.126-22.514v3.377a4.342,4.342,0,0,1-3.377-3.377Zm-43.3,0h3.377a4.342,4.342,0,0,1-3.377,3.377Zm0,22.514V37.869a4.342,4.342,0,0,1,3.377,3.377Zm43.3,0H46.651a4.342,4.342,0,0,1,3.377-3.377Z" transform="translate(-5 -17)" fill="#1762a0"/>
        </g>
      </g>
      <g id="Group_602" data-name="Group 602" transform="translate(5.952 14.881)">
        <rect id="Rectangle_142-2" data-name="Rectangle 142" width="46" height="26" rx="3" transform="translate(0.414 0.982)" fill="#efefef"/>
        <g id="Group_94-2" data-name="Group 94" transform="translate(0 0)">
          <path id="Path_1581-2" data-name="Path 1581" d="M30.659,22a8.659,8.659,0,1,0,8.659,8.659A8.659,8.659,0,0,0,30.659,22Zm0,15.587a6.927,6.927,0,1,1,6.927-6.927A6.927,6.927,0,0,1,30.659,37.587Z" transform="translate(-7.279 -17.67)" fill="#1762a0"/>
          <path id="Path_1582-2" data-name="Path 1582" d="M31.6,28.464H33.33a.866.866,0,0,0,0-1.732h-.866v-.866a.866.866,0,1,0-1.732,0v1.026a2.591,2.591,0,0,0,.866,5.036.866.866,0,0,1,0,1.732H29.866a.866.866,0,0,0,0,1.732h.866v.866a.866.866,0,1,0,1.732,0V35.231A2.591,2.591,0,0,0,31.6,30.2a.866.866,0,0,1,0-1.732Z" transform="translate(-8.218 -18.073)" fill="#1762a0"/>
          <path id="Path_1583-2" data-name="Path 1583" d="M50.894,17H5.866A.866.866,0,0,0,5,17.866V42.112a.866.866,0,0,0,.866.866H50.894a.866.866,0,0,0,.866-.866V17.866A.866.866,0,0,0,50.894,17ZM44.9,41.246H11.858A6.065,6.065,0,0,0,6.732,36.12V23.858a6.065,6.065,0,0,0,5.126-5.126H44.9a6.065,6.065,0,0,0,5.126,5.126V36.12A6.065,6.065,0,0,0,44.9,41.246Zm5.126-22.514v3.377a4.342,4.342,0,0,1-3.377-3.377Zm-43.3,0h3.377a4.342,4.342,0,0,1-3.377,3.377Zm0,22.514V37.869a4.342,4.342,0,0,1,3.377,3.377Zm43.3,0H46.651a4.342,4.342,0,0,1,3.377-3.377Z" transform="translate(-5 -17)" fill="#1762a0"/>
        </g>
      </g>
      <g id="Group_600" data-name="Group 600" transform="translate(-13.167 8.952)">
        <rect id="Rectangle_142-3" data-name="Rectangle 142" width="45" height="25" rx="3" transform="translate(0.533 0.911)" fill="#efefef"/>
        <g id="Group_94-3" data-name="Group 94" transform="translate(0 0)">
          <path id="Path_1581-3" data-name="Path 1581" d="M30.659,22a8.659,8.659,0,1,0,8.659,8.659A8.659,8.659,0,0,0,30.659,22Zm0,15.587a6.927,6.927,0,1,1,6.927-6.927A6.927,6.927,0,0,1,30.659,37.587Z" transform="translate(-7.279 -17.67)" fill="#1762a0"/>
          <path id="Path_1582-3" data-name="Path 1582" d="M31.6,28.464H33.33a.866.866,0,0,0,0-1.732h-.866v-.866a.866.866,0,1,0-1.732,0v1.026a2.591,2.591,0,0,0,.866,5.036.866.866,0,0,1,0,1.732H29.866a.866.866,0,0,0,0,1.732h.866v.866a.866.866,0,1,0,1.732,0V35.231A2.591,2.591,0,0,0,31.6,30.2a.866.866,0,0,1,0-1.732Z" transform="translate(-8.218 -18.073)" fill="#1762a0"/>
          <path id="Path_1583-3" data-name="Path 1583" d="M50.894,17H5.866A.866.866,0,0,0,5,17.866V42.112a.866.866,0,0,0,.866.866H50.894a.866.866,0,0,0,.866-.866V17.866A.866.866,0,0,0,50.894,17ZM44.9,41.246H11.858A6.065,6.065,0,0,0,6.732,36.12V23.858a6.065,6.065,0,0,0,5.126-5.126H44.9a6.065,6.065,0,0,0,5.126,5.126V36.12A6.065,6.065,0,0,0,44.9,41.246Zm5.126-22.514v3.377a4.342,4.342,0,0,1-3.377-3.377Zm-43.3,0h3.377a4.342,4.342,0,0,1-3.377,3.377Zm0,22.514V37.869a4.342,4.342,0,0,1,3.377,3.377Zm43.3,0H46.651a4.342,4.342,0,0,1,3.377-3.377Z" transform="translate(-5 -17)" fill="#1762a0"/>
        </g>
      </g>
    </g>
    <g id="Group_608" data-name="Group 608" transform="translate(1439.508 2756.302) rotate(180)">
      <g id="Group_597" data-name="Group 597" transform="translate(0)">
        <rect id="Rectangle_855" data-name="Rectangle 855" width="9.92" height="24.801" transform="translate(5.198)" fill="#1762a0"/>
        <path id="Polygon_11" data-name="Polygon 11" d="M9.92,0l9.92,17.48H0Z" transform="translate(19.841 38.193) rotate(180)" fill="#1762a0"/>
      </g>
    </g>
    <g id="Group_609" data-name="Group 609" transform="translate(1420.159 2776.608)">
      <g id="Group_597-2" data-name="Group 597" transform="translate(0)">
        <rect id="Rectangle_855-2" data-name="Rectangle 855" width="9.92" height="24.801" transform="translate(5.198)" fill="#a7050e"/>
        <path id="Polygon_11-2" data-name="Polygon 11" d="M9.92,0l9.92,17.48H0Z" transform="translate(19.841 38.193) rotate(180)" fill="#a7050e"/>
      </g>
    </g>
    <g id="Group_444" data-name="Group 444" transform="translate(1296 2161.739)">
      <path id="Subtraction_11" data-name="Subtraction 11" d="M60.527,20.245H0c0-.029,0-.057,0-.086v-.034a14.442,14.442,0,0,1,2.378-7.833,21.954,21.954,0,0,1,6.486-6.4,33.891,33.891,0,0,1,9.62-4.313A43.506,43.506,0,0,1,30.263,0a43.508,43.508,0,0,1,11.78,1.582,33.892,33.892,0,0,1,9.62,4.313,21.954,21.954,0,0,1,6.486,6.4,14.442,14.442,0,0,1,2.378,7.833c0,.04,0,.08,0,.12Z" transform="translate(49.99 20.981)" fill="#7d0407"/>
      <rect id="Rectangle_135" data-name="Rectangle 135" width="160.141" height="10.294" transform="translate(0 91.884)" fill="#7d0404"/>
      <rect id="Rectangle_349" data-name="Rectangle 349" width="160.141" height="10.294" transform="translate(0 83.332)" fill="#7d0404"/>
      <rect id="Rectangle_353" data-name="Rectangle 353" width="60.527" height="10.294" transform="translate(50.001 46.488)" fill="#7d0404"/>
      <rect id="Rectangle_136" data-name="Rectangle 136" width="160.141" height="10.294" transform="translate(0 148.499)" fill="#7d0404"/>
      <rect id="Rectangle_137" data-name="Rectangle 137" width="10.294" height="36.028" transform="translate(74.662 107.324)" fill="#7d0404"/>
      <rect id="Rectangle_351" data-name="Rectangle 351" width="10.294" height="16.376" transform="translate(74.611 61.843)" fill="#7d0404"/>
      <rect id="Rectangle_355" data-name="Rectangle 355" width="3.057" height="16.376" transform="translate(78.558 0)" fill="#7d0404"/>
      <rect id="Rectangle_138" data-name="Rectangle 138" width="10.294" height="36.028" transform="translate(39.792 107.324)" fill="#7d0404"/>
      <rect id="Rectangle_356" data-name="Rectangle 356" width="10.294" height="36.028" transform="translate(22.687 107.324)" fill="#7d0404"/>
      <rect id="Rectangle_357" data-name="Rectangle 357" width="10.294" height="36.028" transform="translate(57.556 107.324)" fill="#7d0404"/>
      <rect id="Rectangle_358" data-name="Rectangle 358" width="10.294" height="36.028" transform="translate(92.425 107.324)" fill="#7d0404"/>
      <rect id="Rectangle_359" data-name="Rectangle 359" width="10.294" height="36.028" transform="translate(127.294 107.324)" fill="#7d0404"/>
      <rect id="Rectangle_350" data-name="Rectangle 350" width="10.294" height="16.376" transform="translate(54.024 61.843)" fill="#7d0404"/>
      <rect id="Rectangle_139" data-name="Rectangle 139" width="10.294" height="36.028" transform="translate(4.923 107.324)" fill="#7d0404"/>
      <rect id="Rectangle_140" data-name="Rectangle 140" width="10.294" height="36.028" transform="translate(144.4 107.324)" fill="#7d0404"/>
      <rect id="Rectangle_141" data-name="Rectangle 141" width="10.294" height="36.028" transform="translate(109.531 107.324)" fill="#7d0404"/>
      <rect id="Rectangle_352" data-name="Rectangle 352" width="10.294" height="16.376" transform="translate(95.198 61.843)" fill="#7d0404"/>
    </g>
    <g id="Group_450" data-name="Group 450" transform="translate(1328.351 2494.709)">
      <path id="Path_1579" data-name="Path 1579" d="M1.23,27.192H89.99L45.61,1.85Z" transform="translate(-1.23 -1.85)" fill="#7d0404"/>
      <rect id="Rectangle_135-2" data-name="Rectangle 135" width="82.414" height="8.241" transform="translate(3.173 29.463)" fill="#7d0404"/>
      <rect id="Rectangle_136-2" data-name="Rectangle 136" width="82.414" height="8.241" transform="translate(3.173 74.791)" fill="#7d0404"/>
      <rect id="Rectangle_137-2" data-name="Rectangle 137" width="8.241" height="28.845" transform="translate(40.259 41.825)" fill="#7d0404"/>
      <rect id="Rectangle_138-2" data-name="Rectangle 138" width="8.241" height="28.845" transform="translate(23.776 41.825)" fill="#7d0404"/>
      <rect id="Rectangle_139-2" data-name="Rectangle 139" width="8.241" height="28.845" transform="translate(7.294 41.825)" fill="#7d0404"/>
      <rect id="Rectangle_140-2" data-name="Rectangle 140" width="8.241" height="28.845" transform="translate(73.225 41.825)" fill="#7d0404"/>
      <rect id="Rectangle_141-2" data-name="Rectangle 141" width="8.241" height="28.845" transform="translate(56.742 41.825)" fill="#7d0404"/>
    </g>
    <g id="Group_461" data-name="Group 461" transform="translate(1310.208 2710.31)">
      <g id="Group_261" data-name="Group 261" transform="translate(15.873 0)">
        <rect id="Rectangle_142-4" data-name="Rectangle 142" width="45.634" height="25.793" rx="3" transform="translate(0.305 0.856)" fill="#efefef"/>
        <g id="Group_94-4" data-name="Group 94" transform="translate(0)">
          <path id="Path_1581-4" data-name="Path 1581" d="M30.659,22a8.659,8.659,0,1,0,8.659,8.659A8.659,8.659,0,0,0,30.659,22Zm0,15.587a6.927,6.927,0,1,1,6.927-6.927A6.927,6.927,0,0,1,30.659,37.587Z" transform="translate(-7.279 -17.67)" fill="#1762a0"/>
          <path id="Path_1582-4" data-name="Path 1582" d="M31.6,28.464H33.33a.866.866,0,0,0,0-1.732h-.866v-.866a.866.866,0,1,0-1.732,0v1.026a2.591,2.591,0,0,0,.866,5.036.866.866,0,0,1,0,1.732H29.866a.866.866,0,0,0,0,1.732h.866v.866a.866.866,0,1,0,1.732,0V35.231A2.591,2.591,0,0,0,31.6,30.2a.866.866,0,0,1,0-1.732Z" transform="translate(-8.218 -18.073)" fill="#1762a0"/>
          <path id="Path_1583-4" data-name="Path 1583" d="M50.894,17H5.866A.866.866,0,0,0,5,17.866V42.112a.866.866,0,0,0,.866.866H50.894a.866.866,0,0,0,.866-.866V17.866A.866.866,0,0,0,50.894,17ZM44.9,41.246H11.858A6.065,6.065,0,0,0,6.732,36.12V23.858a6.065,6.065,0,0,0,5.126-5.126H44.9a6.065,6.065,0,0,0,5.126,5.126V36.12A6.065,6.065,0,0,0,44.9,41.246Zm5.126-22.514v3.377a4.342,4.342,0,0,1-3.377-3.377Zm-43.3,0h3.377a4.342,4.342,0,0,1-3.377,3.377Zm0,22.514V37.869a4.342,4.342,0,0,1,3.377,3.377Zm43.3,0H46.651a4.342,4.342,0,0,1,3.377-3.377Z" transform="translate(-5 -17)" fill="#1762a0"/>
        </g>
      </g>
      <g id="Group_456" data-name="Group 456" transform="translate(46.626 2.976)">
        <rect id="Rectangle_142-5" data-name="Rectangle 142" width="45.634" height="25.793" rx="3" transform="translate(0.305 0.856)" fill="#efefef"/>
        <g id="Group_94-5" data-name="Group 94" transform="translate(0 0)">
          <path id="Path_1581-5" data-name="Path 1581" d="M30.659,22a8.659,8.659,0,1,0,8.659,8.659A8.659,8.659,0,0,0,30.659,22Zm0,15.587a6.927,6.927,0,1,1,6.927-6.927A6.927,6.927,0,0,1,30.659,37.587Z" transform="translate(-7.279 -17.67)" fill="#1762a0"/>
          <path id="Path_1582-5" data-name="Path 1582" d="M31.6,28.464H33.33a.866.866,0,0,0,0-1.732h-.866v-.866a.866.866,0,1,0-1.732,0v1.026a2.591,2.591,0,0,0,.866,5.036.866.866,0,0,1,0,1.732H29.866a.866.866,0,0,0,0,1.732h.866v.866a.866.866,0,1,0,1.732,0V35.231A2.591,2.591,0,0,0,31.6,30.2a.866.866,0,0,1,0-1.732Z" transform="translate(-8.218 -18.073)" fill="#1762a0"/>
          <path id="Path_1583-5" data-name="Path 1583" d="M50.894,17H5.866A.866.866,0,0,0,5,17.866V42.112a.866.866,0,0,0,.866.866H50.894a.866.866,0,0,0,.866-.866V17.866A.866.866,0,0,0,50.894,17ZM44.9,41.246H11.858A6.065,6.065,0,0,0,6.732,36.12V23.858a6.065,6.065,0,0,0,5.126-5.126H44.9a6.065,6.065,0,0,0,5.126,5.126V36.12A6.065,6.065,0,0,0,44.9,41.246Zm5.126-22.514v3.377a4.342,4.342,0,0,1-3.377-3.377Zm-43.3,0h3.377a4.342,4.342,0,0,1-3.377,3.377Zm0,22.514V37.869a4.342,4.342,0,0,1,3.377,3.377Zm43.3,0H46.651a4.342,4.342,0,0,1,3.377-3.377Z" transform="translate(-5 -17)" fill="#1762a0"/>
        </g>
      </g>
      <g id="Group_457" data-name="Group 457" transform="translate(23.809 10.912)">
        <rect id="Rectangle_142-6" data-name="Rectangle 142" width="45.634" height="25.793" rx="3" transform="translate(0.305 0.856)" fill="#efefef"/>
        <g id="Group_94-6" data-name="Group 94" transform="translate(0 0)">
          <path id="Path_1581-6" data-name="Path 1581" d="M30.659,22a8.659,8.659,0,1,0,8.659,8.659A8.659,8.659,0,0,0,30.659,22Zm0,15.587a6.927,6.927,0,1,1,6.927-6.927A6.927,6.927,0,0,1,30.659,37.587Z" transform="translate(-7.279 -17.67)" fill="#1762a0"/>
          <path id="Path_1582-6" data-name="Path 1582" d="M31.6,28.464H33.33a.866.866,0,0,0,0-1.732h-.866v-.866a.866.866,0,1,0-1.732,0v1.026a2.591,2.591,0,0,0,.866,5.036.866.866,0,0,1,0,1.732H29.866a.866.866,0,0,0,0,1.732h.866v.866a.866.866,0,1,0,1.732,0V35.231A2.591,2.591,0,0,0,31.6,30.2a.866.866,0,0,1,0-1.732Z" transform="translate(-8.218 -18.073)" fill="#1762a0"/>
          <path id="Path_1583-6" data-name="Path 1583" d="M50.894,17H5.866A.866.866,0,0,0,5,17.866V42.112a.866.866,0,0,0,.866.866H50.894a.866.866,0,0,0,.866-.866V17.866A.866.866,0,0,0,50.894,17ZM44.9,41.246H11.858A6.065,6.065,0,0,0,6.732,36.12V23.858a6.065,6.065,0,0,0,5.126-5.126H44.9a6.065,6.065,0,0,0,5.126,5.126V36.12A6.065,6.065,0,0,0,44.9,41.246Zm5.126-22.514v3.377a4.342,4.342,0,0,1-3.377-3.377Zm-43.3,0h3.377a4.342,4.342,0,0,1-3.377,3.377Zm0,22.514V37.869a4.342,4.342,0,0,1,3.377,3.377Zm43.3,0H46.651a4.342,4.342,0,0,1,3.377-3.377Z" transform="translate(-5 -17)" fill="#1762a0"/>
        </g>
      </g>
      <g id="Group_453" data-name="Group 453" transform="translate(0 15.873)">
        <rect id="Rectangle_142-7" data-name="Rectangle 142" width="45.634" height="25.793" rx="3" transform="translate(0.305 0.856)" fill="#efefef"/>
        <g id="Group_94-7" data-name="Group 94" transform="translate(0 0)">
          <path id="Path_1581-7" data-name="Path 1581" d="M30.659,22a8.659,8.659,0,1,0,8.659,8.659A8.659,8.659,0,0,0,30.659,22Zm0,15.587a6.927,6.927,0,1,1,6.927-6.927A6.927,6.927,0,0,1,30.659,37.587Z" transform="translate(-7.279 -17.67)" fill="#1762a0"/>
          <path id="Path_1582-7" data-name="Path 1582" d="M31.6,28.464H33.33a.866.866,0,0,0,0-1.732h-.866v-.866a.866.866,0,1,0-1.732,0v1.026a2.591,2.591,0,0,0,.866,5.036.866.866,0,0,1,0,1.732H29.866a.866.866,0,0,0,0,1.732h.866v.866a.866.866,0,1,0,1.732,0V35.231A2.591,2.591,0,0,0,31.6,30.2a.866.866,0,0,1,0-1.732Z" transform="translate(-8.218 -18.073)" fill="#1762a0"/>
          <path id="Path_1583-7" data-name="Path 1583" d="M50.894,17H5.866A.866.866,0,0,0,5,17.866V42.112a.866.866,0,0,0,.866.866H50.894a.866.866,0,0,0,.866-.866V17.866A.866.866,0,0,0,50.894,17ZM44.9,41.246H11.858A6.065,6.065,0,0,0,6.732,36.12V23.858a6.065,6.065,0,0,0,5.126-5.126H44.9a6.065,6.065,0,0,0,5.126,5.126V36.12A6.065,6.065,0,0,0,44.9,41.246Zm5.126-22.514v3.377a4.342,4.342,0,0,1-3.377-3.377Zm-43.3,0h3.377a4.342,4.342,0,0,1-3.377,3.377Zm0,22.514V37.869a4.342,4.342,0,0,1,3.377,3.377Zm43.3,0H46.651a4.342,4.342,0,0,1,3.377-3.377Z" transform="translate(-5 -17)" fill="#1762a0"/>
        </g>
      </g>
      <g id="Group_454" data-name="Group 454" transform="translate(15.873 23.809)">
        <rect id="Rectangle_142-8" data-name="Rectangle 142" width="45.634" height="25.793" rx="3" transform="translate(0.305 0.856)" fill="#efefef"/>
        <g id="Group_94-8" data-name="Group 94" transform="translate(0 0)">
          <path id="Path_1581-8" data-name="Path 1581" d="M30.659,22a8.659,8.659,0,1,0,8.659,8.659A8.659,8.659,0,0,0,30.659,22Zm0,15.587a6.927,6.927,0,1,1,6.927-6.927A6.927,6.927,0,0,1,30.659,37.587Z" transform="translate(-7.279 -17.67)" fill="#1762a0"/>
          <path id="Path_1582-8" data-name="Path 1582" d="M31.6,28.464H33.33a.866.866,0,0,0,0-1.732h-.866v-.866a.866.866,0,1,0-1.732,0v1.026a2.591,2.591,0,0,0,.866,5.036.866.866,0,0,1,0,1.732H29.866a.866.866,0,0,0,0,1.732h.866v.866a.866.866,0,1,0,1.732,0V35.231A2.591,2.591,0,0,0,31.6,30.2a.866.866,0,0,1,0-1.732Z" transform="translate(-8.218 -18.073)" fill="#1762a0"/>
          <path id="Path_1583-8" data-name="Path 1583" d="M50.894,17H5.866A.866.866,0,0,0,5,17.866V42.112a.866.866,0,0,0,.866.866H50.894a.866.866,0,0,0,.866-.866V17.866A.866.866,0,0,0,50.894,17ZM44.9,41.246H11.858A6.065,6.065,0,0,0,6.732,36.12V23.858a6.065,6.065,0,0,0,5.126-5.126H44.9a6.065,6.065,0,0,0,5.126,5.126V36.12A6.065,6.065,0,0,0,44.9,41.246Zm5.126-22.514v3.377a4.342,4.342,0,0,1-3.377-3.377Zm-43.3,0h3.377a4.342,4.342,0,0,1-3.377,3.377Zm0,22.514V37.869a4.342,4.342,0,0,1,3.377,3.377Zm43.3,0H46.651a4.342,4.342,0,0,1,3.377-3.377Z" transform="translate(-5 -17)" fill="#1762a0"/>
        </g>
      </g>
      <g id="Group_455" data-name="Group 455" transform="translate(42.658 15.873)">
        <rect id="Rectangle_142-9" data-name="Rectangle 142" width="45.634" height="25.793" rx="3" transform="translate(0.305 0.856)" fill="#efefef"/>
        <g id="Group_94-9" data-name="Group 94" transform="translate(0 0)">
          <path id="Path_1581-9" data-name="Path 1581" d="M30.659,22a8.659,8.659,0,1,0,8.659,8.659A8.659,8.659,0,0,0,30.659,22Zm0,15.587a6.927,6.927,0,1,1,6.927-6.927A6.927,6.927,0,0,1,30.659,37.587Z" transform="translate(-7.279 -17.67)" fill="#1762a0"/>
          <path id="Path_1582-9" data-name="Path 1582" d="M31.6,28.464H33.33a.866.866,0,0,0,0-1.732h-.866v-.866a.866.866,0,1,0-1.732,0v1.026a2.591,2.591,0,0,0,.866,5.036.866.866,0,0,1,0,1.732H29.866a.866.866,0,0,0,0,1.732h.866v.866a.866.866,0,1,0,1.732,0V35.231A2.591,2.591,0,0,0,31.6,30.2a.866.866,0,0,1,0-1.732Z" transform="translate(-8.218 -18.073)" fill="#1762a0"/>
          <path id="Path_1583-9" data-name="Path 1583" d="M50.894,17H5.866A.866.866,0,0,0,5,17.866V42.112a.866.866,0,0,0,.866.866H50.894a.866.866,0,0,0,.866-.866V17.866A.866.866,0,0,0,50.894,17ZM44.9,41.246H11.858A6.065,6.065,0,0,0,6.732,36.12V23.858a6.065,6.065,0,0,0,5.126-5.126H44.9a6.065,6.065,0,0,0,5.126,5.126V36.12A6.065,6.065,0,0,0,44.9,41.246Zm5.126-22.514v3.377a4.342,4.342,0,0,1-3.377-3.377Zm-43.3,0h3.377a4.342,4.342,0,0,1-3.377,3.377Zm0,22.514V37.869a4.342,4.342,0,0,1,3.377,3.377Zm43.3,0H46.651a4.342,4.342,0,0,1,3.377-3.377Z" transform="translate(-5 -17)" fill="#1762a0"/>
        </g>
      </g>
      <g id="Group_458" data-name="Group 458" transform="translate(51.586 26.785)">
        <rect id="Rectangle_142-10" data-name="Rectangle 142" width="45.634" height="25.793" rx="3" transform="translate(0.305 0.856)" fill="#efefef"/>
        <g id="Group_94-10" data-name="Group 94" transform="translate(0 0)">
          <path id="Path_1581-10" data-name="Path 1581" d="M30.659,22a8.659,8.659,0,1,0,8.659,8.659A8.659,8.659,0,0,0,30.659,22Zm0,15.587a6.927,6.927,0,1,1,6.927-6.927A6.927,6.927,0,0,1,30.659,37.587Z" transform="translate(-7.279 -17.67)" fill="#1762a0"/>
          <path id="Path_1582-10" data-name="Path 1582" d="M31.6,28.464H33.33a.866.866,0,0,0,0-1.732h-.866v-.866a.866.866,0,1,0-1.732,0v1.026a2.591,2.591,0,0,0,.866,5.036.866.866,0,0,1,0,1.732H29.866a.866.866,0,0,0,0,1.732h.866v.866a.866.866,0,1,0,1.732,0V35.231A2.591,2.591,0,0,0,31.6,30.2a.866.866,0,0,1,0-1.732Z" transform="translate(-8.218 -18.073)" fill="#1762a0"/>
          <path id="Path_1583-10" data-name="Path 1583" d="M50.894,17H5.866A.866.866,0,0,0,5,17.866V42.112a.866.866,0,0,0,.866.866H50.894a.866.866,0,0,0,.866-.866V17.866A.866.866,0,0,0,50.894,17ZM44.9,41.246H11.858A6.065,6.065,0,0,0,6.732,36.12V23.858a6.065,6.065,0,0,0,5.126-5.126H44.9a6.065,6.065,0,0,0,5.126,5.126V36.12A6.065,6.065,0,0,0,44.9,41.246Zm5.126-22.514v3.377a4.342,4.342,0,0,1-3.377-3.377Zm-43.3,0h3.377a4.342,4.342,0,0,1-3.377,3.377Zm0,22.514V37.869a4.342,4.342,0,0,1,3.377,3.377Zm43.3,0H46.651a4.342,4.342,0,0,1,3.377-3.377Z" transform="translate(-5 -17)" fill="#1762a0"/>
        </g>
      </g>
    </g>
    <text id="FED_Increases_Cash_Reserves_of_Banks_by_Buying_Treasury_Notes_and_Bonds" data-name="FED Increases Cash Reserves of Banks by Buying Treasury Notes and Bonds" transform="translate(1321.329 2357.507)" fill="#070707" font-size="16" font-family="MuseoSans-900, Museo Sans" font-weight="900"><tspan x="0" y="15">FED Increases </tspan><tspan x="0" y="34">Cash Reserves of </tspan><tspan x="0" y="53">Banks by Buying </tspan><tspan x="0" y="72">Treasury Notes </tspan><tspan x="0" y="91">and Bonds</tspan></text>
    <text id="Banks_Have_More_Money_to_Loan_Leading_to_Lower_Interest_Rates_and_Adding_More_Money_to_the_Economy" data-name="Banks Have More Money to Loan Leading to Lower Interest Rates and Adding More Money to the Economy" transform="translate(1439.502 2559.135)" fill="#070707" font-size="16" font-family="MuseoSans-900, Museo Sans" font-weight="900"><tspan x="0" y="15">Banks Have More </tspan><tspan x="0" y="34">Money to Loan </tspan><tspan x="0" y="53">Leading to Lower </tspan><tspan x="0" y="72">Interest Rates </tspan><tspan x="0" y="91">and Adding More </tspan><tspan x="0" y="110">Money to the </tspan><tspan x="0" y="129">Economy</tspan></text>
    <text id="_1.25_" data-name="1.25%" transform="translate(1317 2777)" fill="#070707" font-size="30" font-family="MuseoSans-900, Museo Sans" font-weight="900"><tspan x="5.84" y="28">1.25%</tspan></text>
  </g>
</svg>
