<svg xmlns="http://www.w3.org/2000/svg" width="870.68" height="870.609" viewBox="0 0 870.68 870.609">
  <g id="Group_729" data-name="Group 729" transform="translate(-3165.089 6346.774)">
    <path id="Path_1768" data-name="Path 1768" d="M3165.089-5910.957c.062-245.292,201.879-438.344,439.662-435.792,237.567,2.551,431.331,197.25,431.017,435.879-.318,240.139-197.832,438.436-441.9,434.652C3354.644-5479.923,3165.284-5675.939,3165.089-5910.957ZM3600.227-6327.3c-226.359-.292-413.27,182.031-415.661,411.426-2.434,233.459,186.768,420.266,415.785,420.344,230.5.075,415.726-188.169,416-415.553C4016.631-6137.27,3832.931-6327.66,3600.227-6327.3Z" transform="translate(0)" fill="#1762a0"/>
    <path id="Path_1769" data-name="Path 1769" d="M3179.717-5926.995c0-223.788,182.042-405.26,406.517-405.169,222.6.09,406.8,183.213,404.519,410.558-2.225,221.578-185.917,403.364-410.98,400.37C3358.567-5524.18,3179.487-5704.675,3179.717-5926.995Zm406.2-393.032c-214.74-.4-392.261,172.433-394.214,389.4-1.986,220.438,176.638,397.479,393.83,397.456,215.132-.024,390.358-174.687,393.082-388.347C3981.441-6142.908,3800.738-6320.76,3585.92-6320.026Z" transform="translate(15.388 15.367)" fill="#1762a0"/>
    <path id="Path_1770" data-name="Path 1770" d="M3825.188-5983.394c-.195,162.795-132.009,296.053-296.206,296.065-164.244.015-297.841-134.808-296.148-298.919,1.675-162.461,134.984-294.237,297.285-293.338C3692.673-6278.686,3825.042-6147.225,3825.188-5983.394Zm-9.53-.187c.1-155.291-125.387-285.3-284.225-286.454-158.759-1.158-286.471,125.579-288.946,282.214-2.536,160.335,127.025,290.137,284.43,290.962C3690.278-5696,3815.913-5828.632,3815.658-5983.581Z" transform="translate(71.246 70.667)" fill="#1762a0"/>
    <path id="Path_1771" data-name="Path 1771" d="M3604.248-6126.176c.511,4.068.956,7.626,1.443,11.5-24.223,3.281-48.3,6.541-72.7,9.844-.646-4.511-1.323-8.851-1.879-13.208-.638-5.021-.6-5.042,4.153-6.62q23.312-7.74,46.628-15.473c.788-.263,1.555-.584,2.333-.879l-.1-.672c-1.891-.163-3.781-.385-5.677-.478q-23.331-1.143-46.659-2.238c-3.786-.182-4.309-.633-4.8-4.382-.595-4.54-1.174-9.085-1.793-13.9,24.173-3.27,48.253-6.528,72.706-9.838.54,3.854,1.053,7.525,1.609,11.509-18.735,2.557-37.214,5.078-55.692,7.6l.02.889c1.072.126,2.138.322,3.214.37q24.19,1.091,48.388,2.134c5.366.222,5.947.672,6.466,6.045.022.247.045.491.073.734.582,4.974.013,5.987-4.795,7.57-9.412,3.1-18.853,6.1-28.282,9.142-5.844,1.888-11.691,3.759-17.523,5.684-1.207.4-2.348,1-3.52,1.5l.167.629Z" transform="translate(378.807 183.3)" fill="#1762a0"/>
    <path id="Path_1772" data-name="Path 1772" d="M3264.851-6237.929c11.278,12.165,22.555,24.333,34.025,36.706-2.843,2.708-5.6,5.333-8.54,8.133-16.731-18.019-33.325-35.891-50.159-54.023,2.776-2.481,5.267-5.295,8.329-7.186,1.44-.891,4.187-.551,5.979.151,14.243,5.6,28.4,11.421,42.586,17.159,1.233.5,2.514.891,3.771,1.33l.39-.614c-11.1-11.995-22.2-23.993-33.461-36.161l8.5-8.072,50.112,54.054c-2.742,2.417-5.192,5.121-8.177,6.949-1.307.8-3.876.245-5.585-.424-14.476-5.688-28.881-11.556-43.318-17.338-1.319-.527-2.721-.847-4.084-1.262Z" transform="translate(78.987 69.709)" fill="#1762a0"/>
    <path id="Path_1773" data-name="Path 1773" d="M3218.994-6021.5c-2.105-3.568-4.09-6.931-6.257-10.606,21.279-12.176,42.422-24.277,63.71-36.462a16.627,16.627,0,0,1,1.018,1.415c4.857,8.544,9.539,17.195,14.6,25.617,5.214,8.686,1.551,16.694-3.032,21.614-6.314,6.778-14.21,8.263-22.98,6.487-.714-.145-1.416-.351-2.267-.564a9.346,9.346,0,0,0-.466,1.652c-.387,4.262-2.722,7.345-6.092,9.646-6.48,4.427-13.052,8.713-19.9,13.268-2-3.429-4.192-7.194-6.542-11.226,4.472-2.944,8.764-5.766,13.053-8.593,1.912-1.261,3.913-2.417,5.706-3.831,3.1-2.447,3.821-5.057,2.048-8.7-2.244-4.625-4.846-9.081-7.447-13.892C3235.655-6030.895,3227.427-6026.26,3218.994-6021.5Zm52.877-30.462-17.629,10.142c3.3,5.4,6.274,10.668,9.658,15.651,2.013,2.966,5.8,3.417,9.582,1.838,4.875-2.036,8.011-5.746,7.725-9.195a5.625,5.625,0,0,0-.47-2.146C3277.851-6041.062,3274.9-6046.418,3271.871-6051.966Z" transform="translate(50.124 292.646)" fill="#1762a0"/>
    <path id="Path_1774" data-name="Path 1774" d="M3339.966-5952.545c4.055,6.131,2.154,11.792-.4,17.64-2.444,5.6-4.307,11.456-6.593,17.652-3.323-1.626-6.9-3.182-10.206-5.17-.615-.371-.566-2.62-.162-3.771,1.593-4.557,3.452-9.021,5.2-13.523.417-1.069.845-2.133,1.182-3.227,1.354-4.406.464-7.089-3.61-9.289-4.381-2.365-8.955-4.374-13.764-6.7-4.083,8.778-8.074,17.355-12.17,26.162-3.718-1.694-7.328-3.341-11.186-5.1l30.6-66.572a8.284,8.284,0,0,1,1.2.331c8.713,3.988,17.44,7.943,26.121,12,6.622,3.1,11.07,7.988,11.486,15.577.508,9.257-4.6,19.854-15.2,23.084C3341.714-5953.221,3340.978-5952.915,3339.966-5952.545Zm-23.6-17.235c5.727,2.437,11.076,4.88,16.555,6.989,4.014,1.542,7.409-.266,9.78-4.7,2.782-5.212,2.532-9.726-.69-12.362a1.019,1.019,0,0,0-.2-.144c-5.545-2.735-11.089-5.468-16.867-8.315C3322.026-5982,3319.292-5976.1,3316.369-5969.781Z" transform="translate(129.571 360.109)" fill="#1762a0"/>
    <path id="Path_1775" data-name="Path 1775" d="M3427.765-5942.039c2.795,9.455,5.453,18.443,8.173,27.643-3.979,1.2-7.711,2.316-11.765,3.534-6.983-23.537-13.9-46.871-20.9-70.479,2.561-.757,4.969-1.478,7.382-2.187,7.223-2.12,14.406-4.38,21.679-6.317,11.427-3.046,19.333,1.2,24.012,13.216a20.446,20.446,0,0,1-.842,16.479c-.613,1.323-1.3,2.618-2.033,4.1,6.571,1.775,9.092,6.759,10.964,12.571,1.645,5.12,3.884,10.049,5.9,15.049.421,1.046.991,2.031,1.642,3.353-4.143,1.229-8.019,2.453-11.955,3.447-.466.12-1.572-.892-1.836-1.588-1.989-5.2-3.825-10.448-5.746-15.67a31.7,31.7,0,0,0-1.67-3.82c-1.7-3.231-3.716-4.374-7.245-3.55C3438.354-5945.05,3433.265-5943.528,3427.765-5942.039Zm-3.623-11.934c.431.066.694.189.9.124,5.516-1.764,11.054-3.467,16.527-5.358a6.181,6.181,0,0,0,4.148-5.614,14.994,14.994,0,0,0-2.374-9.589c-1.525-2.444-3.768-3.9-6.605-3.271-6.1,1.344-12.131,3-18.365,4.573C3420.4-5966.382,3422.279-5960.151,3424.142-5953.972Z" transform="translate(250.546 374.462)" fill="#1762a0"/>
    <path id="Path_1776" data-name="Path 1776" d="M3193.263-6103.61c23.831-5.359,47.53-10.685,71.535-16.083,1.091,4.977,2.181,9.739,3.172,14.522,1.028,4.969,2.042,9.944,2.922,14.938a17.018,17.018,0,0,1-6.792,17.377c-15.285,11.714-32.376,15.267-51.015,10.154-7.916-2.172-12.878-7.5-14.628-15.641q-2.581-12-5.185-24A7.654,7.654,0,0,1,3193.263-6103.61Zm61.946-1.4-47.361,10.561c1.022,4.548,1.882,8.787,2.939,12.974a9.248,9.248,0,0,0,7.278,7.208,44.451,44.451,0,0,0,35.784-6.849c3.248-2.187,4.959-5.3,4.3-9.248C3257.342-6095.169,3256.242-6099.93,3255.209-6105.006Z" transform="translate(29.613 238.869)" fill="#1762a0"/>
    <path id="Path_1777" data-name="Path 1777" d="M3346-6243.109c-3.9-24.191-7.774-48.241-11.688-72.512,6.281-.935,12.25-1.853,18.231-2.7,3.486-.493,7-.807,10.484-1.329,7.773-1.163,13.963,1.49,18.267,7.958,10.912,16.4,13.048,33.995,6.33,52.5-2.527,6.961-7.846,10.924-15.17,12.11q-11.887,1.919-23.78,3.779C3347.89-6243.181,3347.08-6243.185,3346-6243.109Zm2.6-62.241a6.626,6.626,0,0,0-.165,1.26c2.417,15.072,4.864,30.139,7.24,45.218.236,1.493.949,1.666,2.186,1.463,3.141-.511,6.288-.983,9.437-1.447,5.733-.848,9.092-3.909,10.217-9.681a59.729,59.729,0,0,0,1.048-8.74,46.2,46.2,0,0,0-5.346-23.625c-1.893-3.658-4.8-6.342-9.018-6.179C3358.946-6306.873,3353.724-6305.948,3348.6-6305.35Z" transform="translate(178.015 28.249)" fill="#1762a0"/>
    <path id="Path_1778" data-name="Path 1778" d="M3224.689-6102.079c-.5-8.854-1.04-17.435-1.424-26.022-.076-1.725-.593-2.242-2.282-2.209-4.916.091-9.837.083-14.755,0-1.655-.027-2.082.55-2,2.162.524,10.059.955,20.124,1.406,30.187a14.267,14.267,0,0,1-.117,1.479l-12.8.782-2.261-45.957,73.5-3.425c.714,14.86,1.411,29.383,2.12,44.149-4.335.271-8.388.524-12.706.8-.178-2.273-.384-4.361-.5-6.453-.4-7.443-.84-14.886-1.112-22.333-.068-1.854-.483-2.632-2.5-2.564-4.315.139-8.636.042-13.177.042.449,9.956.885,19.569,1.328,29.363Z" transform="translate(26.684 212.168)" fill="#1762a0"/>
    <path id="Path_1779" data-name="Path 1779" d="M3489.535-6017.833c2.538,3.687,4.856,7.055,7.344,10.665-8.815,6.005-17.575,11.972-26.526,18.071,2.98,4.337,5.791,8.433,8.787,12.8,8.128-5.506,16.1-10.91,24.317-16.477,2.457,3.548,4.847,7,7.363,10.638-8.14,5.586-16.091,11.04-24.318,16.683,3.548,5.253,7.007,10.375,10.584,15.673,9.328-6.291,18.476-12.461,27.841-18.779,2.468,3.611,4.81,7.037,7.321,10.708-12.614,8.577-25.116,17.075-37.942,25.795-13.834-20.257-27.57-40.377-41.455-60.712C3465.112-6001.148,3477.2-6009.4,3489.535-6017.833Z" transform="translate(302.703 346.021)" fill="#1762a0"/>
    <path id="Path_1780" data-name="Path 1780" d="M3555.163-6209.254c-2.17-2.869-4.222-5.514-6.174-8.232a2.1,2.1,0,0,1-.084-1.713,30.2,30.2,0,0,1,1.535-2.793c3.2-6.047,3.021-11.152-4.6-16.672-3-2.172-6.553-1.923-9.644.244-2.877,2.015-3.911,4.586-2.715,8.419,1.9,6.089,4.193,12.057,6.188,18.119,3.113,9.45,1.25,15.429-6.644,21.575-4.188,3.261-8.66,5.948-14.189,6.105-11.047.314-22.339-8.868-25.177-20.452-2.548-10.4.973-19.408,9.993-25.031l6.638,8.957c-1.147,1.993-2.358,3.838-3.312,5.808-1.861,3.849-1.765,7.729.917,11.122a31.417,31.417,0,0,0,6.1,5.971c3.065,2.219,6.558,1.828,9.584-.464a7.344,7.344,0,0,0,2.793-8.726c-1.805-5.692-3.924-11.285-5.828-16.946-3.147-9.363-.915-16.606,6.981-22.541,6.79-5.1,14.251-7.855,22.473-4.1,8.991,4.1,14.472,11.215,15.166,21.294C3565.735-6220.964,3562.051-6214.457,3555.163-6209.254Z" transform="translate(344.784 99.329)" fill="#1762a0"/>
    <path id="Path_1781" data-name="Path 1781" d="M3398.353-5921.128c11.078-1.465,21.927-2.9,33.179-4.384.581,4.278,1.145,8.426,1.738,12.79-15.256,2.117-30.143,4.184-45.36,6.3-3.373-24.355-6.714-48.47-10.1-72.871l44.005-5.991c.593,4.263,1.153,8.284,1.748,12.548-10.533,1.52-20.942,3.023-31.647,4.572.644,4.948,1.208,9.639,1.952,14.3.057.364,1.4.826,2.078.742,8.937-1.1,17.865-2.3,27.233-3.525.542,4.089,1.081,8.16,1.673,12.619l-28.94,4.077C3396.727-5933.679,3397.519-5927.563,3398.353-5921.128Z" transform="translate(223.771 380.258)" fill="#1762a0"/>
    <path id="Path_1782" data-name="Path 1782" d="M3545.049-6135.461c-1.457,10.6-2.877,20.963-4.352,31.714,5.066.759,10.021,1.5,15.231,2.283,1.463-9.8,2.883-19.321,4.353-29.182,4.175.583,8.253,1.153,12.588,1.76-1.332,9.829-2.624,19.37-3.966,29.261l18.8,2.688c1.613-11.074,3.2-21.954,4.825-33.125l12.791,1.815c-2.149,15.114-4.285,30.119-6.456,45.381l-72.707-10.441c.538-3.959,1.043-7.817,1.589-11.666,1.416-9.973,2.889-19.937,4.237-29.918.219-1.622.554-2.31,2.4-1.988C3537.824-6136.278,3541.314-6135.942,3545.049-6135.461Z" transform="translate(379.819 220.711)" fill="#1762a0"/>
    <path id="Path_1783" data-name="Path 1783" d="M3217.717-6059.512c3.115,8.3,6.154,16.329,9.129,24.379.839,2.271,2.581,5.025,1.908,6.8-.583,1.527-4,1.993-6.181,2.885-1.586.648-3.2,1.229-5.195,1.988-5.444-14.254-10.855-28.417-16.358-42.828l68.866-26.215c5.234,13.832,10.434,27.567,15.7,41.485-4.09,1.576-7.9,3.043-11.991,4.624-3.806-9.954-7.567-19.792-11.442-29.919-4.855,1.834-9.554,3.611-14.515,5.485,3.447,9.215,6.816,18.226,10.3,27.535-4.02,1.578-7.848,3.082-11.919,4.682-3.577-9.261-7.044-18.245-10.611-27.484Z" transform="translate(37.798 267.47)" fill="#1762a0"/>
    <path id="Path_1784" data-name="Path 1784" d="M3399.726-5958.95c-3.377-.492-6.391-.835-9.356-1.435a3.5,3.5,0,0,1-1.931-1.742,20.4,20.4,0,0,1-1.207-3.471c-2.13-6.5-7.171-9.212-15.191-7.427a8.167,8.167,0,0,0-6.248,7.121c-.421,3.669,1.266,6.232,4.375,7.8,4.75,2.4,9.6,4.59,14.413,6.876.887.42,1.773.842,2.645,1.3,8.571,4.46,11.973,11.474,10.3,20.987a28.091,28.091,0,0,1-4.945,12.435,17.155,17.155,0,0,1-11.382,7.093,38.007,38.007,0,0,1-20.045-2.134c-8.306-3.321-12.552-10.074-12.572-19.514-.012-6.185-.045-5.906,5.887-5.249,3.909.433,5.84,1.649,6.972,5.8,2.776,10.192,12.068,10.834,19.122,8.083,3.357-1.306,4.765-4.224,4.845-7.633a7.454,7.454,0,0,0-4.523-7.061c-4.9-2.468-9.867-4.8-14.776-7.253-11.24-5.61-14.682-13.637-11.273-25.736,4.094-14.534,16.29-18.26,28.569-15.174,11.1,2.791,17.786,12.651,16.81,24A20.689,20.689,0,0,1,3399.726-5958.95Z" transform="translate(193.021 379.211)" fill="#1762a0"/>
    <path id="Path_1785" data-name="Path 1785" d="M3524.3-6033.151c-2.577,2.915-4.7,5.4-6.937,7.775a2.464,2.464,0,0,1-1.861.393,18.978,18.978,0,0,1-2.573-.8c-7.527-2.17-13.336.928-15.761,8.4a8.081,8.081,0,0,0,2.691,9.049c2.757,2.362,5.435,2.722,8.833.726,4.731-2.773,9.345-5.754,13.978-8.693,4.01-2.544,8.2-4.539,13.1-4.189a18.849,18.849,0,0,1,5.259,1.042c14.233,5.378,19.978,21.573,12.006,34.439-5.087,8.207-12.121,13.759-22.411,13.589a13.338,13.338,0,0,1-4.558-.835c-3.951-1.544-7.817-3.3-12.024-5.111,2.688-3.107,5.1-5.978,7.642-8.725.356-.384,1.428-.294,2.111-.151,2.388.5,4.732,1.511,7.129,1.631,7.013.352,13.944-6.943,13.577-13.976a8.28,8.28,0,0,0-12.655-6.584c-5.173,3-10.206,6.229-15.353,9.273-3.219,1.9-6.709,3.239-10.5,2.894a18.613,18.613,0,0,1-7.071-1.669c-15.572-8.473-21.061-25.748-4.613-39.615,8.691-7.326,20.026-7.189,28.342-.031C3523.086-6033.946,3523.588-6033.653,3524.3-6033.151Z" transform="translate(335.805 322.987)" fill="#1762a0"/>
    <path id="Path_1786" data-name="Path 1786" d="M3324.735-6277.619c9.344-3.232,18.379-6.355,27.725-9.585,1.43,3.918,2.815,7.72,4.345,11.917l-27.7,9.99,6.172,17.99,31.629-11.045c1.49,4.046,2.918,7.925,4.447,12.075-14.437,5.131-28.741,10.219-43.329,15.4-8.182-23.171-16.294-46.137-24.495-69.354l41.748-14.841c1.47,4.01,2.914,7.957,4.426,12.09-10.062,3.624-19.969,7.19-30.11,10.84C3321.32-6287.259,3322.974-6282.587,3324.735-6277.619Z" transform="translate(145.627 33.353)" fill="#1762a0"/>
    <path id="Path_1787" data-name="Path 1787" d="M3522.447-6277.758c10.742,10.255,21.33,20.361,32.035,30.582-2.988,3.151-5.848,6.17-8.9,9.39l-22.68-21.62c-3.6,3.27-7.041,6.392-10.686,9.7,6.794,7.619,13.259,14.866,19.963,22.379l-8.965,7.57-20.511-19.552c-4.416,4.638-8.638,9.069-13.132,13.789,8.033,7.733,15.972,15.374,24.108,23.2l-8.878,9.362c-11.105-10.576-22.067-21.016-33.243-31.661C3488.558-6242.369,3505.423-6259.981,3522.447-6277.758Z" transform="translate(322.383 72.6)" fill="#1762a0"/>
    <path id="Path_1788" data-name="Path 1788" d="M3545.867-6083.392c-1.321,3.252-2.392,6.181-3.728,8.984a3.521,3.521,0,0,1-2.333,1.5c-1.672.3-3.463-.006-5.111.366a12.265,12.265,0,0,0-8.816,15.27,8.155,8.155,0,0,0,6.442,5.784c3.232.739,5.745-.579,7.756-3.083,4.055-5.049,8.015-10.184,12.228-15.1a16.982,16.982,0,0,1,14.054-6.326c10.284.374,21,8.68,22.94,18.127a14.567,14.567,0,0,1,.1,6.56,72.777,72.777,0,0,1-4.882,13.824c-5.619,10.936-18.069,14.483-29.3,8.559l4.063-9.886c2.664-.274,5.142-.321,7.531-.811,7.721-1.582,12.428-10.426,9.6-17.819a8.133,8.133,0,0,0-13.491-2.693c-3.409,3.648-6.392,7.689-9.634,11.5a61.266,61.266,0,0,1-5.2,5.557c-4.74,4.324-10.426,5.736-16.443,3.759a40.654,40.654,0,0,1-11.294-5.719c-6.48-4.779-8.474-11.635-7.021-19.44,1.424-7.658,5.011-14.066,11.837-18.176C3531.785-6086.637,3538.655-6086.5,3545.867-6083.392Z" transform="translate(365.862 274.647)" fill="#1762a0"/>
    <path id="Path_1789" data-name="Path 1789" d="M3378.312-6271.423c3.587.307,6.921.548,10.24.926.465.051,1.011.692,1.249,1.186.384.8.5,1.729.8,2.575,3.405,9.475,10.7,11.427,19.138,8.39,3.55-1.278,5.216-4.154,5.3-7.832a7.35,7.35,0,0,0-4.815-7.326c-5.191-2.226-10.452-4.286-15.648-6.5-6.022-2.566-11.171-6.145-12.615-13.037-2.052-9.782,1.12-24.771,14.881-28.4,9.976-2.636,21.207.762,26.808,8.367a22.1,22.1,0,0,1,4.071,14.372c-.053,1.508-.569,2.33-2.24,2.01a9.38,9.38,0,0,0-1.964-.112c-4.529.1-7.533-1.018-9.218-6.2-2.2-6.762-11.162-8.891-17.153-4.919a8.452,8.452,0,0,0-3.846,8.021c.178,3.231,2.323,5.011,4.974,6.137,4.67,1.985,9.427,3.767,14.156,5.609,13.094,5.1,17.117,12.725,13.959,26.474-2.364,10.284-9.451,16.358-19.976,16.626a49.607,49.607,0,0,1-11.689-1.1c-10.8-2.349-16.756-10.146-16.625-21.2C3378.117-6268.577,3378.226-6269.8,3378.312-6271.423Z" transform="translate(224.073 25.711)" fill="#1762a0"/>
    <path id="Path_1790" data-name="Path 1790" d="M3371.436-5954.437c-1.146,4.118-2.235,8.035-3.426,12.307l-28.444-7.934c-1.75,6.205-3.424,12.149-5.162,18.315,10.822,3.1,21.408,6.123,32.121,9.187-1.179,4.3-2.278,8.293-3.447,12.554L3319-5922.568c6.683-23.654,13.3-47.087,20-70.779,14.322,4.081,28.378,8.089,42.608,12.145-1.149,4.141-2.234,8.052-3.389,12.218-10.309-2.857-20.44-5.661-30.845-8.544-1.422,5.012-2.794,9.852-4.248,14.977C3352.629-5959.831,3361.953-5957.154,3371.436-5954.437Z" transform="translate(161.903 371.777)" fill="#1762a0"/>
    <path id="Path_1791" data-name="Path 1791" d="M3218.868-6217.156l7.616-10.251c4.156,3.054,8.168,5.99,12.17,8.941,8.638,6.371,17.254,12.775,25.924,19.106a32.2,32.2,0,0,0,5.439,3.309,10.74,10.74,0,0,0,14.134-4.124,10.828,10.828,0,0,0-2.2-14.619c-6.475-5.143-13.2-9.978-19.838-14.919-7.164-5.333-14.347-10.635-21.816-16.168l7.414-10.125c1.047.613,2.056,1.094,2.942,1.743,12.221,8.97,24.478,17.894,36.594,27a42.916,42.916,0,0,1,7.939,7.62c6,7.646,5.653,17.988-.48,27.3-6.1,9.266-20.664,15.981-33.53,6.419-13.746-10.214-27.589-20.3-41.387-30.443C3219.526-6216.559,3219.293-6216.789,3218.868-6217.156Z" transform="translate(56.573 95.483)" fill="#1762a0"/>
    <path id="Path_1792" data-name="Path 1792" d="M3476.882-6225.542c-3.854-1.734-7.581-3.352-11.232-5.129-.445-.218-.73-1.345-.638-1.984.451-3.159,1.1-6.29,1.592-9.442s-.181-4.483-3.076-5.85c-4.959-2.34-9.97-4.572-14.924-6.928-1.284-.61-2-.34-2.868.745-2.819,3.509-5.762,6.917-8.77,10.5-3.985-1.791-7.91-3.555-12.042-5.414,6.238-7.264,12.315-14.337,18.386-21.418q14.325-16.7,28.643-33.417c2.559-2.985,3.706-3.194,7.2-1.445,2.491,1.244,5,2.459,7.547,3.571a1.848,1.848,0,0,1,1.323,2.386q-5.392,36.076-10.658,72.168A13.458,13.458,0,0,1,3476.882-6225.542Zm-21.627-40.019,14.324,6.389c1.675-9.614,3.275-18.8,4.9-28.126C3472.364-6287,3460.906-6273.812,3455.255-6265.561Z" transform="translate(273.327 42.44)" fill="#1762a0"/>
    <path id="Path_1793" data-name="Path 1793" d="M3266.235-5964.114l-8.879-10.283c2.953-4.221,5.891-8.422,8.914-12.745-4.59-5.365-9.084-10.678-13.692-15.888a2.606,2.606,0,0,0-2.3-.2c-3.033,1.227-6,2.634-8.99,3.959-2.359,1.044-4.438.786-6.18-1.289-1.9-2.257-3.847-4.465-5.975-6.925.786-.426,1.369-.793,1.992-1.073q32.838-14.734,65.67-29.476c1.486-.669,2.512-.686,3.607.663,1.077,1.332,2.407,2.46,3.618,3.684,4.067,4.114,4.281,6.462,1.073,11.214-4.4,6.521-8.821,13.029-13.165,19.587q-12.225,18.447-24.377,36.941C3267.193-5965.4,3266.795-5964.887,3266.235-5964.114Zm24.169-57.292c-1.995-.563-20.471,7.74-26.79,11.778l10.235,11.772C3279.463-6005.844,3284.854-6013.513,3290.4-6021.407Z" transform="translate(67.369 324.309)" fill="#1762a0"/>
    <path id="Path_1794" data-name="Path 1794" d="M3262.045-6119.926c-4.4-.645-8.422-1.234-12.681-1.86,1.391-10.07,2.756-19.934,4.166-30.122-5.409-.8-10.632-1.563-16.17-2.375l-4.1,26.17-12.629-1.828,3.614-26.251c-10.325-1.557-20.331-3.064-30.514-4.6l1.808-12.317c24.3,3.563,48.325,7.085,72.668,10.656C3266.149-6148.254,3264.122-6134.265,3262.045-6119.926Z" transform="translate(30.128 182.681)" fill="#1762a0"/>
    <path id="Path_1795" data-name="Path 1795" d="M3427.893-5982.012c3.98-1.925,7.8-3.775,11.893-5.75q17.227,21.81,34.467,43.634l.675-.281c-.227-1.291-.423-2.586-.689-3.867q-4.885-23.438-9.8-46.873c-.532-2.53.238-4.329,2.585-5.424,2.664-1.241,5.331-2.47,8.319-3.854.667,3.817,1.3,7.338,1.9,10.866q5.125,30.275,10.241,60.555c.585,3.444.1,4.339-3.094,5.653-1.89.781-3.686,1.809-5.61,2.476a2.764,2.764,0,0,1-2.436-.439q-24.11-27.926-48.081-55.968A4.977,4.977,0,0,1,3427.893-5982.012Z" transform="translate(276.45 360.121)" fill="#1762a0"/>
    <path id="Path_1796" data-name="Path 1796" d="M3576.944-6011.188c-2.188,3.584-4.273,7-6.518,10.671-4.132-2.5-8.457-4.58-12.155-7.468-7.886-6.151-16.967-8.038-26.589-8.949-11.478-1.089-22.909-2.655-35.006-4.092,2.571-4.021,4.719-7.753,7.3-11.154.618-.813,2.741-.882,4.082-.681,5.991.9,11.948,2.031,17.923,3.052a75.617,75.617,0,0,0,11.623,1.3c-.505-.695-.985-1.409-1.514-2.085-5.8-7.434-11.575-14.9-17.456-22.264a2.585,2.585,0,0,1-.2-3.626c2.168-3.25,4.147-6.624,6.357-10.2,5.686,8.135,11.166,16,16.672,23.842,2.92,4.16,5.673,8.466,8.9,12.376a42.059,42.059,0,0,0,8.157,7.693c5.163,3.613,10.682,6.714,16.048,10.034C3575.327-6012.269,3576.057-6011.768,3576.944-6011.188Z" transform="translate(348.806 294.637)" fill="#1762a0"/>
    <path id="Path_1797" data-name="Path 1797" d="M3524.387-6268.829l-7.238,10.621c-5.024-3.347-9.956-6.631-15.1-10.06l-34.087,50.034c-3.518-2.4-6.879-4.694-10.45-7.127,11.368-16.675,22.656-33.234,34.12-50.055-5-3.459-9.88-6.839-14.977-10.365,2.388-3.529,4.708-6.954,7.2-10.64C3497.38-6287.215,3510.8-6278.078,3524.387-6268.829Z" transform="translate(307.611 52.968)" fill="#1762a0"/>
    <path id="Path_1798" data-name="Path 1798" d="M3317.943-6304.58l6.225,11.173-15.779,8.953c9.775,17.687,19.488,35.27,29.282,52.994l-11.024,6.152c-9.8-17.7-19.5-35.244-29.3-52.96-5.392,2.91-10.569,5.7-16.015,8.644l-6.25-11.217Z" transform="translate(115.702 44.387)" fill="#1762a0"/>
    <path id="Path_1799" data-name="Path 1799" d="M3426.826-6301.763l-17.536-4.877c1.079-4.14,2.117-8.128,3.215-12.341l47.358,12.274c-1.1,4.235-2.14,8.237-3.244,12.488l-17.489-4.374c-5.116,19.54-10.168,38.836-15.293,58.411l-12.142-3.084C3416.74-6262.767,3421.733-6282.065,3426.826-6301.763Z" transform="translate(256.881 29.235)" fill="#1762a0"/>
    <path id="Path_1800" data-name="Path 1800" d="M3532.066-6113.223l12.32,3.171c-1.432,5.882-2.819,11.573-4.29,17.607l58.478,15.3c-1.024,4.007-2.006,7.843-3.041,11.89-19.538-4.97-38.87-9.891-58.545-14.9-1.642,5.817-3.248,11.511-4.894,17.342-4.159-1.1-8.09-2.153-12.366-3.29C3523.85-6081.839,3527.923-6097.4,3532.066-6113.223Z" transform="translate(373.051 245.678)" fill="#1762a0"/>
    <path id="Path_1801" data-name="Path 1801" d="M3253.506-5967.292c15.5-19.114,30.816-38,46.332-57.14,3.255,2.588,6.429,5.11,9.893,7.863-12.65,15.65-25.231,31.218-37.959,46.968,7.836,6.379,15.5,12.616,23.312,18.978-2.778,3.422-5.444,6.708-8.29,10.214C3275.688-5949.378,3264.748-5958.215,3253.506-5967.292Z" transform="translate(93.009 339.08)" fill="#1762a0"/>
    <path id="Path_1802" data-name="Path 1802" d="M3264.994-6281.877c3.482-2.487,6.729-4.807,10.26-7.331,14.224,19.958,28.4,39.851,42.672,59.875l-10.27,7.314C3293.426-6241.982,3279.327-6261.764,3264.994-6281.877Z" transform="translate(105.093 60.554)" fill="#1762a0"/>
    <path id="Path_1803" data-name="Path 1803" d="M3524.932-6191.989a16.3,16.3,0,0,1,16.313-16.167,16.251,16.251,0,0,1,16.06,16.174,16.1,16.1,0,0,1-16.188,16.27A16.158,16.158,0,0,1,3524.932-6191.989Z" transform="translate(378.528 145.814)" fill="#1762a0"/>
    <path id="Path_1804" data-name="Path 1804" d="M3212.344-6191.926a16.268,16.268,0,0,1,16.28-16.231,16.306,16.306,0,0,1,16.157,16.114,16.2,16.2,0,0,1-16.166,16.33A16.156,16.156,0,0,1,3212.344-6191.926Z" transform="translate(49.709 145.814)" fill="#1762a0"/>
    <path id="Path_1805" data-name="Path 1805" d="M3420.1-5911.965c-6.776-2.365-13.3-4.485-19.659-7.029-1-.4-1.681-2.713-1.717-4.164-.155-5.981.026-11.972.028-17.958q.015-64.352-.02-128.705a37.159,37.159,0,0,0-.647-8.052c-1.182-5.267-5.066-8.106-10.315-8.016-5.5.095-9.481,3.211-10.5,8.531a40.109,40.109,0,0,0-.574,7.333q-.163,39-.24,78-.083,31.5-.156,63c0,.8,0,1.606,0,2.827-6.057-1.915-11.866-3.595-17.523-5.686-1-.369-1.823-2.414-1.935-3.753-.3-3.506-.172-7.047-.187-10.573-.019-4.182,0-8.366-.006-12.55q-.1-56.966-.254-113.928a35.153,35.153,0,0,0-.938-8.268c-1.276-5.132-4.68-7.841-9.322-7.941a11.065,11.065,0,0,0-11,7.479,26.175,26.175,0,0,0-1.054,7.5q-.123,64.228-.1,128.459v2.978c-.852-.442-1.5-.729-2.1-1.095-4.834-2.937-9.573-6.041-14.518-8.771-2.854-1.579-3.788-3.752-3.768-6.8.041-6.148-.088-12.3-.09-18.452-.011-29.2-.434-58.409.146-87.6.391-19.772-2.131-39.073-6.394-58.23-1.133-5.094-.339-9.1,3.078-13.131,7-8.253,13.666-16.791,20.361-25.3,2.054-2.612,4.215-3.764,7.748-3.3,13.069,1.713,26.182,3.076,39.557,4.6-.289,2.647-.561,5.128-.864,7.91,3.786.437,7.411.889,11.045,1.271,21.841,2.3,43.7,4.427,65.518,6.94,15.406,1.774,30.2-.808,44.849-5.124,14.058-4.143,28.029-8.588,42.171-12.416,6.515-1.764,13.332-2.456,20.035-3.48,2.825-.43,5.727-.366,8.572-.711a4.654,4.654,0,0,1,4.707,1.982c7.437,10.406,14.906,20.789,22.167,31.316a7.038,7.038,0,0,1,.8,5.121c-1.473,5.867-3.509,11.591-5.04,17.444-3.736,14.306-4.592,28.917-4.449,43.645q.3,30.139.3,60.278c0,15.744-.26,31.488-.238,47.234a7.947,7.947,0,0,1-4.931,7.945c-5.341,2.636-10.551,5.534-16.21,8.53,0-1.181,0-2.035,0-2.891q-.049-34.207-.107-68.411-.1-31.614-.343-63.227a26.333,26.333,0,0,0-.393-4.4c-1.055-5.937-4.886-9.259-10.4-9.109a11.245,11.245,0,0,0-11.029,9.685,31,31,0,0,0-.336,4.405q-.028,49.463,0,98.929c.018,12.628.229,25.255.312,37.882.04,6.215-.953,7.408-6.907,9.178-3.757,1.114-7.462,2.4-11.193,3.6-.066.023-.158-.038-.774-.209v-12.792q-.058-66.565-.133-133.135a26.08,26.08,0,0,0-.369-4.888c-1.02-5.261-3.955-7.984-8.834-8.394-5.708-.48-9.472,1.559-11.216,6.658a28.211,28.211,0,0,0-1.68,8.858q-.166,55.245-.061,110.493c.008,11.892.147,23.782.2,35.673.023,4.969-.983,6.056-5.808,7.211-4.04.967-8.024,2.175-12.255,3.34-.076-.829-.174-1.527-.193-2.229-.03-1.147-.008-2.3-.008-3.446q-.059-73.208-.14-146.419a67.942,67.942,0,0,0-.531-10.287c-.841-5.414-4.635-8.689-9.613-8.87-6.078-.224-10.041,2.5-11.409,8.229a33.657,33.657,0,0,0-.852,7.786q.059,53.767.25,107.533c.055,16.4.214,32.8.325,49.2.006.892,0,1.785,0,2.944-1,.063-1.865.16-2.729.164-4.512.015-9.022.006-13.534.006-4.861,0-4.863,0-4.863-4.737q0-43.56,0-87.115c0-22.885.027-45.772-.038-68.659a29.6,29.6,0,0,0-.886-7.53c-1.422-5.314-5.232-7.762-10.919-7.434-5.178.294-8.79,3.369-9.745,8.45a29.174,29.174,0,0,0-.515,5.373q0,42.45.084,84.9c.063,23.7.216,47.4.327,71.1C3420.1-5914.284,3420.1-5913.323,3420.1-5911.965Z" transform="translate(149.03 189.932)" fill="#1762a0"/>
    <path id="Path_1806" data-name="Path 1806" d="M3651.046-6095.911c-2.821-1.25-5.32-1.91-7.273-3.32-3.642-2.628-6.989-5.668-10.416-8.588-3.119-2.653-6.277-5.216-11.068-6.7.833,2.647,1.161,4.946,2.22,6.837,4,7.148,8.2,14.186,12.4,21.219,3.712,6.216,7.4,12.513,8.271,19.8a53.266,53.266,0,0,1-.405,12.435c-.19,1.606-1.71,3.052-2.926,5.071a60.628,60.628,0,0,1-4.356-4.8c-2.938-4.042-5.63-8.267-8.614-12.279a60.432,60.432,0,0,0-4.978-5.307l-.727.3q.219,2.947.439,5.892c.068.9.472,1.928.162,2.661-.639,1.511-1.38,3.275-2.631,4.11-.654.436-2.617-.677-3.728-1.46a9.8,9.8,0,0,1-2.281-2.853q-53.863-84.625-107.73-169.249a38.554,38.554,0,0,0-6.765-8.6c-5.312-4.6-13.124-4.8-19.073-1.061a11.4,11.4,0,0,0-4.9,7.4c-5.724,24.427-19.969,42.919-39.94,57.427-1.059.77-2.212,1.4-3.318,2.107-3.169,2.01-4.448,4.836-2.934,8.2a84.969,84.969,0,0,0,7.021,13.141,16.176,16.176,0,0,0,12.044,7.263,10.842,10.842,0,0,1,9.051,6.261,105.919,105.919,0,0,0,6.948,11.573c2.2,3.167,5.138,5.769,9.373,5.3a13.287,13.287,0,0,0,5.907-2.091q23.15-16.03,46.107-32.335a70.344,70.344,0,0,0,6.149-5.29c3.835-3.44,6.976-3.294,9.823,1.043,4.043,6.162,7.724,12.562,11.593,18.838q9.865,16.011,19.771,32c3.8,6.163,2.388,8.984-4.973,9.315a48.823,48.823,0,0,1-8.517-.892c-19.988-2.684-39.717-.62-59.351,3.208q-5.666,1.1-11.314,2.3a8.984,8.984,0,0,1-9.759-3.64c-3.045-4.164-5.831-8.516-8.768-12.761-7.841-11.341-16.711-21.7-28.38-29.332a38.221,38.221,0,0,0-19.025-6.649c-13.869-.762-22.3,6.635-23.1,20.537-.306,5.313-.1,10.657-.211,15.986a10.019,10.019,0,0,1-1.182,4.447c-.8-1.068-1.633-2.11-2.392-3.205q-15.283-22.022-30.547-44.055a20.82,20.82,0,0,0-1.792-2.339c-8.354-8.951-10.112-19.358-5.9-30.54a103.385,103.385,0,0,1,8.546-16.533c2.67-4.435,6.8-5.038,11.269-2.365a5.8,5.8,0,0,1,1.6,1.134c2.872,3.566,6.365,3.082,9.949,1.495a63.3,63.3,0,0,0,6.314-3.268c4.342-2.542,5.014-2.548,9,.459.457.348.906.7,1.377,1.032,4.933,3.46,10.142,3.956,14.854.28,7.822-6.1,16.469-7.11,25.817-5.679a10.637,10.637,0,0,0,3.876-.172c3.316-.752,5.342-3.622,4.305-6.816a31.86,31.86,0,0,0-3.985-7.473c-1.393-2.1-3.375-3.815-4.79-5.91-3.441-5.1-2.121-9.82,3.327-12.569,3.728-1.881,7.465-3.746,11.185-5.646,9.729-4.967,20.017-6.523,30.544-3.73a317.663,317.663,0,0,1,31.145,9.71c12.865,4.874,23.065,13.906,32.9,23.288a384.981,384.981,0,0,1,48.609,56.973c13.52,19.153,27.721,37.824,41.516,56.782a48.767,48.767,0,0,1,4.206,7.963C3650.991-6098.8,3650.852-6097.735,3651.046-6095.911Z" transform="translate(201.713 95.792)" fill="#1762a0"/>
    <path id="Path_1807" data-name="Path 1807" d="M3250.7-6091.779c.572-.994.987-1.754,1.44-2.495,4.083-6.626,8.226-13.219,12.231-19.9a30.209,30.209,0,0,0,2.877-6.213c1.2-3.714-.615-6.12-4.543-6.2-1.865-.033-3.734.252-6.049.425,1.734-3.559,3.3-6.9,4.982-10.192a55.677,55.677,0,0,0,5.9-16.576,15.2,15.2,0,0,1,7.516-11.025c6.852-4.042,12.665-9.337,18.221-14.907,3.267-3.276,6.544-4.618,11.211-3.114,4.615,1.486,8.625-.683,11.684-4.04,4.248-4.66,8.159-9.625,12.215-14.462q.789-.943,1.593-1.873c3.188-3.672,5.706-4.257,9.931-1.88,30.17,16.995,62.99,26.446,96.489,33.962,3.952.885,4.272,1.189,5.054,5.146,1.032,5.219,2.177,10.415,3.275,15.62,1.085,5.13-.552,7.119-5.8,6.815-6.216-.361-12.428-.8-18.638-1.272-11.764-.9-23.523-1.876-35.289-2.751-12.338-.92-24.688-1.689-37.021-2.679a7.925,7.925,0,0,0-6.774,2.633c-3.788,3.862-7.592,7.713-11.52,11.433-5.328,5.049-11.413,7.5-18.867,5.231-2.6-.791-4.5.347-5.715,3.356-2.622,6.488-7.541,10.63-13.632,13.488a32.713,32.713,0,0,1-7.49,2.222c-3.118.626-4.573,1.837-5.232,4.968-.439,2.079-.854,4.169-1.424,6.216a9.81,9.81,0,0,1-7.582,7.253C3263.553-6091.021,3257.31-6091.21,3250.7-6091.779Z" transform="translate(90.051 148.453)" fill="#1762a0"/>
    <path id="Path_1808" data-name="Path 1808" d="M3503.637-6129.047c-53.969,1.063-107.648,2.123-161.329,3.178l-.26-.691c.545-.519,1.063-1.074,1.639-1.556,10.4-8.684,13.849-19.736,11.065-32.83a72.214,72.214,0,0,1-1.681-22.45c.576-5.683,3.023-8.4,8.631-9.33,2.983-.492,5.946-1.134,8.938-1.564a16,16,0,0,1,12.212,3.294c8,5.888,13.339,13.9,18.352,22.223a169.838,169.838,0,0,1,15.87,33.729,25,25,0,0,0,1.52,3.354c.469.927,1.036,1.806,1.707,2.959a14.074,14.074,0,0,0,3.673-9.13c-.02-7.7-.4-15.4-.441-23.1-.035-6.472-.459-13.049.54-19.384.823-5.216,3.2-10.27,5.422-15.156,1.506-3.314,4.8-4.211,8.372-3.773,6.055.742,11.123,3.723,16.061,7.016,15.822,10.549,27.555,24.419,33.951,42.448,2.725,7.683,7.012,14.015,13.7,18.692.535.375,1.03.813,1.528,1.239A5.3,5.3,0,0,1,3503.637-6129.047Z" transform="translate(186.148 155.047)" fill="#1762a0"/>
    <path id="Path_1809" data-name="Path 1809" d="M3459.053-6205.609c-1.388,5.261-2.594,10.1-3.958,14.9-1.159,4.065-3.9,5.584-8.03,4.4a12.926,12.926,0,0,1-4.066-2.18q-17.239-13.077-34.4-26.261c-3.041-2.327-3.421-5-1.11-8.074a16.672,16.672,0,0,1,2.156-2.353c3.454-3.119,4.008-7.306,3.794-11.5-.279-5.481-5.636-9.331-11.714-8.2a20.429,20.429,0,0,0-8.9,3.73c-18.164,14.719-35.878,29.944-50.707,48.194a269.475,269.475,0,0,0-29.567,45.179,44.757,44.757,0,0,1-4.292,6.854c-3.548,4.535-7.42,5.268-12.584,2.681a12.069,12.069,0,0,1-2.333-1.353c-1.369-1.142-2.259-.907-3.42.447-3.412,3.979-6.788,8.023-10.553,11.651-5.694,5.486-12.6,7.264-20.665,5.537a19.817,19.817,0,0,1,1.147-1.658c27.91-32,55.7-64.127,86.021-93.91,9.574-9.4,19.825-18.131,29.976-26.927,12.862-11.144,27.833-13.4,44.038-9.7,1.835.418,3.67.859,5.477,1.38,7.491,2.168,11.006,9.805,7.426,16.757a45.948,45.948,0,0,1-5.9,8.417c-4.825,5.71-5.436,7.249.017,12.454,1.3,1.241,2.466,2.631,3.679,3.964,6.375,7,14.236,8.9,23.267,6.789C3455.421-6204.769,3457-6205.133,3459.053-6205.609Z" transform="translate(98.474 95.689)" fill="#1762a0"/>
    <path id="Path_1810" data-name="Path 1810" d="M3406.713-6003.024c-2.239-3.662-5.14-4.6-8.452-5.058-8.924-1.231-17.876-2.353-26.72-4.026-10.224-1.936-19.245-6.424-26.2-14.437-1.221-1.4-2.227-2.995-3.475-4.7a27.724,27.724,0,0,1,16.242-2.545c14.145,1.661,26.372,7.947,37.969,15.768q7.237,4.877,14.579,9.6a11.606,11.606,0,0,0,12.614.551,156.187,156.187,0,0,0,15.666-10.092c5.522-4.093,10.757-8.593,15.9-13.159,3.413-3.028,6.919-3.541,10.809-1.456,3.733,2,7.6,2.985,11.5.994a14.67,14.67,0,0,0,5.53-4.513c3.9-5.9,8.651-6.485,13.327-1.1,1.956,2.254,3.763,4.726,6.929,5.1a11.22,11.22,0,0,0,5.481-.467c9.006-3.837,13.93-1.45,17.033,8.628.116.381.275.748.513,1.389,3.95-.746,7.856-1.486,12.22-2.31a17.005,17.005,0,0,1-1.129,1.609c-4.771,5.079-9.484,10.216-14.394,15.156a7.239,7.239,0,0,1-4.216,1.874c-3.387.3-4.959,1.521-5.263,4.888-.066.734.006,1.482-.084,2.212-.347,2.8-2.388,4.182-4.886,2.895a40.346,40.346,0,0,1-6.618-4.606c-3.477-2.8-5.5-2.553-8.168.985a26.476,26.476,0,0,1-4.481,4.838c-3.466,2.756-7.449,2.514-10.708-.516-1.307-1.215-2.257-2.8-3.494-4.1a19.784,19.784,0,0,0-3.96-3.574c-2.707-1.606-4.748-.877-6.373,1.857-1.945,3.272-3.027,3.266-6.623,1.955-7.057-2.566-14.269-4.7-21.422-7a3.591,3.591,0,0,0-.973-.124c-1.892-.06-3.95-.314-4.953,1.787-.95,1.991.437,3.427,1.606,4.8,3.986,4.685,8.052,9.3,11.969,14.039a57.942,57.942,0,0,1,3.609,5.537l-5.353,2.529c-1.671-3.084-3.4-5.946-4.816-8.953-3.382-7.186-9.205-11.584-16.3-14.534a6.109,6.109,0,0,0-4-.467c-9.047,3.364-17.854,7.358-24.144,15-3.184,3.869-5.488,8.464-8.4,13.067l-4.1-1.271C3386.01-5987.511,3395.765-5995.869,3406.713-6003.024Z" transform="translate(185.953 321.752)" fill="#1762a0"/>
    <path id="Path_1811" data-name="Path 1811" d="M3496.719-6029.322c-3.564-2.244-6.981-4.458-10.459-6.571-6.489-3.944-12.65-8.461-20.23-10.386-3.581-.911-4.486-3.391-2.61-6.649,1.371-2.377,3.374-4.385,5.091-6.563,2.138-2.715,2.011-3.56-1.053-5.294a18.783,18.783,0,0,0-4.042-1.7c-6.334-1.8-8.706-6.231-6.893-12.622a46.434,46.434,0,0,0,1.679-8.582c.246-2.805-1.227-4.967-3.656-6.5-4.933-3.122-5.392-6.06-1.584-10.314,4.875-5.448,7.721-11.9,9.609-18.863.671-2.479,1.3-5.166,4.174-5.889,3.123-.785,5.269,1.218,7.173,3.345,1.2,1.342,2.2,2.861,3.422,4.183,2.758,2.992,6.06,4.41,10.166,3.182.312-.1.638-.144.957-.221,7.531-1.851,12.354,3.232,10.132,10.74a30.3,30.3,0,0,1-1.765,4.042c-.449.962-1.022,1.872-1.428,2.851-2.268,5.445-1.1,7.707,4.6,9.02a39.309,39.309,0,0,1,4.03,1.06c4.508,1.555,5.24,3.859,2.626,7.795-1.4,2.108-2.806,4.23-3.993,6.462a12.349,12.349,0,0,0-1.311,4.183c-.462,3.752,1.872,6.413,6,8.232a22.029,22.029,0,0,1,7,4.736c3.414,3.592,2.626,8.378-1.414,11.244a25.6,25.6,0,0,1-3.174,1.862,22.817,22.817,0,0,0-12.453,15.6C3497.19-6030.481,3496.979-6030.038,3496.719-6029.322Z" transform="translate(300.158 228.62)" fill="#1762a0"/>
    <path id="Path_1812" data-name="Path 1812" d="M3294.133-6191.975l26.764-34.364c3.465,2.639,6.835,5.187,10.188,7.758,16,12.27,32.841,23.1,51.8,30.3,12.01,4.56,24.342,7.746,37.265,8.157a7.886,7.886,0,0,1,6.993,4.242c.946,1.619,1.989,3.18,3.247,5.176-3.44-.869-6.485-1.664-9.54-2.41-3.842-.938-7.678-1.575-11.661-.694a16.4,16.4,0,0,0-12.9,17.993c.038.313.005.63.005,1.438-2.695-.52-5.253-.876-7.74-1.516-20.9-5.366-41.133-12.737-61.139-20.712-9.652-3.85-19.069-8.292-28.557-12.537A46.389,46.389,0,0,1,3294.133-6191.975Z" transform="translate(135.746 126.688)" fill="#1762a0"/>
    <path id="Path_1813" data-name="Path 1813" d="M3460.5-5993.76c-4.773-6.1-10-12.622-15.053-19.28-2.721-3.589-2.126-7.622,1.4-10.414,4.617-3.652,6.659-8.116,5.2-14.024-.778-3.158.837-5.427,3.425-6.973,2.03-1.212,4.26-2.091,6.324-3.251,2.832-1.593,3.361-3,2.407-6.117-.454-1.486-1.092-2.912-1.609-4.379-1.561-4.417-.166-7.353,4.209-8.9,5.711-2.018,6.227-2.98,6.706-9.038a9.463,9.463,0,0,1,2.431-5.336c2.9-3.062,4.248-2.721,6.443.755,2.1,3.325,4.191,6.662,6.453,9.876a16.829,16.829,0,0,0,10.8,7.1c6.115,1.246,8.448,7.023,5.426,13.061a44.889,44.889,0,0,1-2.754,4.36c-1.765,2.693-1.68,5.266.027,8.038a40.588,40.588,0,0,1,3.677,7.446c1.106,3.068-.28,5.392-3.462,6.1-2.222.495-4.566.43-6.8.892-4.662.962-6.271,3.5-5.4,8.189.164.885.4,1.758.6,2.635,1.853,8.058-1.82,12.877-10.129,13.388-2.854.175-5.838.062-8.513.891C3468.411-5997.528,3464.726-5995.583,3460.5-5993.76Z" transform="translate(293.129 276.875)" fill="#1762a0"/>
    <path id="Path_1814" data-name="Path 1814" d="M3379.83-6209.23c2.378-5.08,4.636-9.42,6.4-13.956a6.211,6.211,0,0,0-.753-4.746,12.25,12.25,0,0,0-11.1-6.1c-2.947.026-5.975-.179-8.811.439-3.281.714-6.39,2.216-9.642,3.4-2.939-5.869-1.558-16.7,7.748-20.8a29.805,29.805,0,0,1,9.015-2.043c4.28-.418,5.283-.877,6.623-4.853,1.281-3.794,4.048-5.895,7.877-5.977q14.743-.312,29.494-.083c5.647.094,10.976,5.684,11.173,12.123.361,11.709.23,23.434.287,35.15.009,1.721-.025,3.442-.115,5.162-.21,4.041-2.333,7.114-5.231,9.667-2,1.764-4.3,1.469-6.371.074-1.9-1.28-3.632-2.8-5.435-4.213-4.845-3.807-8.466-4.347-13.151-.312-3.792,3.268-8.273,3.39-12.615.938A53.291,53.291,0,0,1,3379.83-6209.23Z" transform="translate(199.292 87.016)" fill="#1762a0"/>
    <path id="Path_1815" data-name="Path 1815" d="M3500.758-6049.348c-5.042-4.7-9.944-9.062-14.6-13.672-3.08-3.045-3.139-6.243-.55-9.7,1.97-2.627,2.409-5.391.872-8.271a49.744,49.744,0,0,0-3.812-5.983c-4.944-6.745-4.706-11.986,1.1-17.947a8,8,0,0,0,2.4-7.979c-1.375-6.271,1.021-9.454,7.344-10.542a55.129,55.129,0,0,0,6.224-1.347,5.263,5.263,0,0,0,3.951-5.3,11.1,11.1,0,0,1,4.232-8.528c3.034-2.466,6.519-2.2,8.817.961a26.168,26.168,0,0,1,3.5,6.693,24.591,24.591,0,0,0,5.863,9.525c4.7,4.689,4.713,8.349.151,13.131-3.19,3.348-3.39,5-1.338,9.229a72.511,72.511,0,0,1,3.465,7.847c1.473,4.25.153,6.474-4.187,7.672-8.715,2.408-10.083,5.326-6.452,13.763,2.264,5.26,1.266,8.343-3.539,11.475C3509.46-6055.244,3504.8-6052.058,3500.758-6049.348Z" transform="translate(330.388 217.221)" fill="#1762a0"/>
    <path id="Path_1816" data-name="Path 1816" d="M3347.8-6239.4c-.536,1.438-.972,2.924-1.628,4.306-1.053,2.217-2.315,4.332-3.376,6.545-1.867,3.9-1.606,5.638,1.879,8.291,6.386,4.864,12.9,9.554,19.424,14.241,3.525,2.534,7.18,4.883,10.748,7.359,4.389,3.049,8.911,5.739,14.214,7.016a13.8,13.8,0,0,1,10.509,9.339c1.174,3.4,2.783,6.641,4.072,10a2.7,2.7,0,0,1-.135,2.333,3.337,3.337,0,0,1-2.547.609c-25.14-4.608-47.855-14.98-68.921-29.2-6.178-4.17-12.287-8.446-18.363-12.767-4.2-2.987-4.333-5.118-.71-8.717,7.036-6.99,13.915-14.155,21.266-20.8,2.173-1.962,5.632-2.83,8.653-3.434C3345.58-6244.811,3347.554-6242.376,3347.8-6239.4Z" transform="translate(152.836 107.746)" fill="#1762a0"/>
    <path id="Path_1817" data-name="Path 1817" d="M3422.675-6158.662c-1.644-.99-3.062-1.456-3.907-2.42a131.442,131.442,0,0,1-9.014-11c-3.145-4.484-2.64-6.93,1.449-10.681q21.928-20.111,43.845-40.229a27.933,27.933,0,0,0,4.176-5.1c1.925-2.9,3.6-3.193,5.289-.266,4.492,7.8,8.781,15.71,13.072,23.618a2.568,2.568,0,0,1-.066,2.228c-1.364,2-2.643,4.221-4.475,5.723q-20.344,16.69-40.958,33.046C3429.341-6161.583,3425.861-6160.349,3422.675-6158.662Z" transform="translate(255.225 122.392)" fill="#1762a0"/>
    <path id="Path_1818" data-name="Path 1818" d="M3495.49-6094.282c-6.981-1.405-14.294-2.017-20.987-5.067-3.983-1.814-4.853-5-2.99-9,.172-.372.372-.73.562-1.092,3.019-5.756,2.161-8.343-3.58-11.512a49.531,49.531,0,0,1-7.009-4.5c-2.593-2.069-2.319-4.568.386-6.458,6.285-4.392,7.164-7.569,6.058-15.1-.562-3.824.28-7.948,1.025-11.834a3.13,3.13,0,0,1,5.109-1.762,75.041,75.041,0,0,1,9.8,8.412c3.161,3.374,4.376,4.009,8.737,2.318a39.135,39.135,0,0,1,5.3-1.912c3.406-.778,5.85.845,6.453,4.3a22.509,22.509,0,0,1,.16,5.363c-.38,5.523,1.688,8.484,7.025,9.916a25.1,25.1,0,0,1,4.408,1.468c2.706,1.308,3.751,3.647,2.056,6.054-2.422,3.435-4.964,7.23-8.383,9.419a28.568,28.568,0,0,0-13.286,18.918c-.1.479-.244.951-.394,1.419A4,4,0,0,1,3495.49-6094.282Z" transform="translate(309.892 195.059)" fill="#1762a0"/>
    <path id="Path_1819" data-name="Path 1819" d="M3396.531-6176.926c7.637-8.193,15.072-16.05,22.366-24.033,5.856-6.409,12.18-12.551,15.927-20.513a124.542,124.542,0,0,0,6.108-16.525c1.125-3.654,2.419-6.912,6.4-7.973a8.881,8.881,0,0,1,9.828,3.544,157.02,157.02,0,0,1,10.159,15.6c2.042,3.615.809,7.67-2.407,10.706q-21.72,20.517-43.47,41.006c-3.281,3.092-6.521,6.229-9.847,9.273-2.417,2.212-4.443,2.143-6.535-.359C3402.17-6169.649,3399.449-6173.238,3396.531-6176.926Z" transform="translate(243.46 105.676)" fill="#1762a0"/>
    <path id="Path_1820" data-name="Path 1820" d="M3259.151-6084.764a6.96,6.96,0,0,1,1.512.477c4.489,3.451,9.8,4.7,15.188,5.892,16.069,3.553,29.611,11.225,39.36,24.8a30.476,30.476,0,0,1,5.388,14.335,30.639,30.639,0,0,1,.019,3.422c-10.435-2.289-20.962-3.421-30.742-7.556a34.55,34.55,0,0,1-15.227-13.2c-5.188-7.834-9.741-16.088-14.475-24.218C3259.586-6081.824,3259.547-6083.161,3259.151-6084.764Z" transform="translate(98.946 275.617)" fill="#1762a0"/>
    <path id="Path_1821" data-name="Path 1821" d="M3312.977-6142.252c3.294,12.551,4.5,24.413-1.118,36.066a24.5,24.5,0,0,1-8.729,10.079,86.115,86.115,0,0,0-20.669,19.446c-.747.962-1.406,1.991-2.325,3.3-.324-.607-.79-1.089-.82-1.6a77.506,77.506,0,0,1-.4-9.779c.443-6.931.915-13.885,1.951-20.745a18.446,18.446,0,0,1,8.417-12.785C3298.667-6124.487,3307.055-6131.681,3312.977-6142.252Z" transform="translate(119.677 215.141)" fill="#1762a0"/>
    <path id="Path_1822" data-name="Path 1822" d="M3300.842-6155.56c-.432,4.6-.944,8.884-1.214,13.186-.287,4.575-.025,9.205-.616,13.729a38.291,38.291,0,0,1-2.905,10.051c-4.988,11.549-12.554,21.44-20.575,31-.089.1-.267.132-.064.039-.426-4.717-.728-9.567-1.368-14.37a12.435,12.435,0,0,0-2-4.948c-3.54-5.392-3.663-10.881-.885-16.549,2.3-4.7,4.528-9.44,7.03-14.03A35.655,35.655,0,0,1,3300.842-6155.56Z" transform="translate(109.598 201.141)" fill="#1762a0"/>
    <path id="Path_1823" data-name="Path 1823" d="M3266.433-6141.285c2.788,4.993,5.109,9.79,8.016,14.2a36.859,36.859,0,0,1,6.012,23.192c-.524,9.793,1.571,19.378,4.738,28.684a7.676,7.676,0,0,1,.078,2.226,7.683,7.683,0,0,1-2.043-.887c-6.039-5.152-12.3-10.089-17.973-15.62a36.705,36.705,0,0,1-10.666-20.357,11.86,11.86,0,0,1,.827-7.4C3259.112-6125.083,3262.648-6132.993,3266.433-6141.285Z" transform="translate(93.903 216.159)" fill="#1762a0"/>
    <path id="Path_1824" data-name="Path 1824" d="M3301.92-6057.583c-3.812-2.019-7.112-3.817-10.462-5.509a15.783,15.783,0,0,0-4.32-1.7c-10.22-1.72-17.431-7.974-23.5-15.74-6.971-8.917-10.346-19.231-10.931-30.491-.033-.638,0-1.275,0-2.219,2.162,1.9,3.9,3.914,6.059,5.227a156.87,156.87,0,0,0,14.185,7.775c11.328,5.372,19.239,13.572,22.9,25.771C3297.511-6068.93,3299.75-6063.565,3301.92-6057.583Z" transform="translate(92.149 245.659)" fill="#1762a0"/>
    <path id="Path_1825" data-name="Path 1825" d="M3283.673-6056.973c-.185-8.382-.781-16.781-.429-25.14.32-7.59,3.956-14.059,9.849-18.847,7.169-5.822,14.671-11.239,22.336-17.065,0,4.175.349,8.219-.085,12.181-.623,5.674-1.76,11.3-2.815,16.919a7.389,7.389,0,0,1-1.621,3.488c-8.7,9.562-17.489,19.041-26.252,28.543Z" transform="translate(124.177 240.626)" fill="#1762a0"/>
    <path id="Path_1826" data-name="Path 1826" d="M3366.661-6007.749c-5.315-1.262-10.475-2.454-15.617-3.726-2.779-.685-5.5-1.611-8.29-2.229a13.751,13.751,0,0,1-8.491-5.848c-6.433-9.192-12.794-18.436-19.173-27.666a3.858,3.858,0,0,1-.279-.882,20.444,20.444,0,0,1,11.854.077c19.711,6.1,33.091,18.9,39.963,38.408a4.525,4.525,0,0,1,.208.951A4.6,4.6,0,0,1,3366.661-6007.749Z" transform="translate(157.496 313.299)" fill="#1762a0"/>
    <path id="Path_1827" data-name="Path 1827" d="M3297.111-6029.633a9.811,9.811,0,0,1-.375-2.151,41.068,41.068,0,0,0-4.607-20.866,19.036,19.036,0,0,1-1.911-12.269c1.026-6.5,2.409-12.84,5.4-18.765a30.842,30.842,0,0,1,10-11.64,64.146,64.146,0,0,1,6.18,14.2c2.719,8.851.917,17.311-2.066,25.69-1.783,5.007-3.288,10.132-5.389,15-1.662,3.847-4.042,7.382-6.1,11.058Z" transform="translate(131.329 264.506)" fill="#1762a0"/>
    <path id="Path_1828" data-name="Path 1828" d="M3369.1-6017.122c-10.7,2.575-21.17,6.316-32.289,6.86-8.487.417-16.385-1.743-22.7-7.592-4.406-4.076-8.189-8.828-12.5-13.551,4.654-.395,9.037-.293,13.194-1.213,9.556-2.115,18.087.238,26.454,4.654a113.964,113.964,0,0,0,25.312,9.239c.9.229,1.767.582,2.65.875Z" transform="translate(143.606 329.641)" fill="#1762a0"/>
    <path id="Path_1829" data-name="Path 1829" d="M3277.018-6055.417c5.482,1.226,10.315,2.364,15.176,3.372,3.361.694,6.753,1.25,10.144,1.787,3.667.577,7.174,1.77,9.479,4.694,6.268,7.958,12.281,16.118,18.079,24.746-1.3-.179-2.613-.316-3.907-.544-14.862-2.63-28.756-7.64-40.876-16.886a8.8,8.8,0,0,1-2.813-3.294C3280.469-6045.9,3278.91-6050.375,3277.018-6055.417Z" transform="translate(117.741 306.486)" fill="#1762a0"/>
    <path id="Path_1830" data-name="Path 1830" d="M3327.247-6006.787a38.828,38.828,0,0,1,13.836-11.736c9.474-5.13,19.484-6.187,30.028-4.872,5.593.7,11.283.621,16.928.9.7.035,1.393.134,2.548.247-3.9,4.07-7.461,7.886-11.168,11.547a5.339,5.339,0,0,1-2.947.957c-11.624,1.453-23.238,3.031-34.893,4.177-4.19.413-8.485-.225-12.728-.447C3328.351-6006.037,3327.875-6006.472,3327.247-6006.787Z" transform="translate(170.578 339.628)" fill="#1762a0"/>
    <path id="Path_1831" data-name="Path 1831" d="M3303.332-6069.146c1.319,2.326,2.3,4.1,3.322,5.85,3.02,5.156,5.936,10.383,9.123,15.436,3.734,5.923,5.987,12.119,5.263,19.266-.549,5.444-.775,10.922-1.167,16.713-.789-.4-1.346-.628-1.841-.951a29.91,29.91,0,0,0-3.25-2.206c-10.135-4.837-12.782-13.916-13.874-24a91.8,91.8,0,0,1,1.055-25.937A33.5,33.5,0,0,1,3303.332-6069.146Z" transform="translate(142.364 292.04)" fill="#1762a0"/>
    <path id="Path_1832" data-name="Path 1832" d="M3505.051-6076.205c-1.03,4.159-2.4,9.7-3.783,15.243-.158.635-.365,1.257-.562,1.88-1.884,5.971-4.256,7.494-10.041,5.286a55.88,55.88,0,0,1-11.039-6.166c-3.022-2.038-3.4-5.435-3.06-8.833.177-1.76,1.353-2.409,3.07-2.5,4.644-.261,4.6-.317,5.828-4.7a39.73,39.73,0,0,1,2.06-6.021c1.667-3.609,4.826-5.058,8.7-4.184a27.483,27.483,0,0,1,3.755,1.114C3503.84-6083.617,3505.094-6081.737,3505.051-6076.205Z" transform="translate(327.542 273.833)" fill="#1762a0"/>
    <path id="Path_1833" data-name="Path 1833" d="M3441.456-6023.474l1.588-1.732a26.754,26.754,0,0,0-3.1-3.987c-4-3.544-4.289-5.583-.808-9.6a22.655,22.655,0,0,1,4.011-3.579c2.571-1.823,4.738-1.419,6.111,1.347,1.582,3.18,3.722,4.838,7.44,4.96,1.219.042,3.039,1.86,3.435,3.2a14.131,14.131,0,0,1-3.763,14.677c-2.75,2.768-9.093,2.043-12.024-1.261A46.709,46.709,0,0,1,3441.456-6023.474Z" transform="translate(285.738 319.035)" fill="#1762a0"/>
  </g>
</svg>
