<svg xmlns="http://www.w3.org/2000/svg" width="426" height="292" viewBox="0 0 426 292">
  <g id="Group_730" data-name="Group 730" transform="translate(90.5 -3569)">
    <path id="Path_2562" data-name="Path 2562" d="M-87.094,2545.005l3.064-6.682,3.58,9.739,6.876-87.632,1.885,25.093,2.65-25.093,2.978,21.253,2.533-37.289,3.1,166.981,7.749-81.207,4.1,17.893,4.583-19.744,4.243,32.912,9.576-21.021,5.117,46.555,4.576,5.126,5.426-77.33,2.317,25.649,1.879-13.97,3,21.823L-3,2523.2l3.465,38.03,5.85-22.907,1.936,12.754,4.522-65.556,6.881,59.483,2.19-8.976,4.994,2.294L30.5,2461.9l2.909,54.627,3.522-15.457,2.032,52.722,5.789-52.722,3.181,34.964,3.2,6.44H55.39l2.817,5.592,7.943-17.893h3.111l3.363,10.04,3.948-1.885,3.1,1.885H92.329l6.847-11.891,2.64,7.711,8.646-15.687L118,2532.665l9.923-39.07,6.32,29.606,3.424-6.678h2.781l7.337-36.315,10.959,52.457,2.838-6.425,6.082,6.425,2.118,5.659,3.476-12.084,10.388-9.717,3.084,13.646h5.516l3.367,5.861,8.93-3.365,5.643,5.659,8.272-8.155,4.717,8.155,3.5-5.659,2.161,3.365,10.189-7.711,2.082,7.711h3.111v-7.711l1.879-7.976,3.591,33.446,1.831-21.124,2.346,7.545,3.475-11.891,3.045,10.005,4.232,1.885,3.157-4.179,2.961,8.976,5.992-6.682" transform="translate(48.094 1178.585)" fill="none" stroke="#efefef" stroke-width="2"/>
    <g id="Group_326" data-name="Group 326">
      <line id="Line_112" data-name="Line 112" y2="209" transform="translate(-39.5 3607.5)" fill="none" stroke="#efefef" stroke-width="2"/>
      <line id="Line_113" data-name="Line 113" x1="375" transform="translate(-39.5 3816.5)" fill="none" stroke="#efefef" stroke-width="2"/>
    </g>
    <text id="Currency_inflation" data-name="Currency inflation" transform="translate(-90.5 3816.5) rotate(-90)" fill="#efefef" font-size="12" font-family="MuseoSans-500, Museo Sans" font-weight="500"><tspan x="39.796" y="11">CURRENCY INFLATION</tspan></text>
    <text id="_0_" data-name="0%" transform="translate(-71 3717)" fill="#efefef" font-size="10" font-family="MuseoSans-500, Museo Sans" font-weight="500"><tspan x="12.14" y="9">0%</tspan></text>
    <text id="_-15_" data-name="-15%" transform="translate(-79 3790)" fill="#efefef" font-size="10" font-family="MuseoSans-500, Museo Sans" font-weight="500"><tspan x="11.15" y="9">-15%</tspan></text>
    <text id="_25_" data-name="25%" transform="translate(-79 3609)" fill="#efefef" font-size="10" font-family="MuseoSans-500, Museo Sans" font-weight="500"><tspan x="15.04" y="9">25%</tspan></text>
    <text id="Year" transform="translate(-47 3847)" fill="#efefef" font-size="12" font-family="MuseoSans-500, Museo Sans" font-weight="500"><tspan x="172.92" y="11">YEAR</tspan></text>
    <text id="_1920" data-name="1920" transform="translate(-31 3822)" fill="#efefef" font-size="10" font-family="MuseoSans-500, Museo Sans" font-weight="500"><tspan x="3.15" y="9">1920</tspan></text>
    <text id="_1940" data-name="1940" transform="translate(42 3822)" fill="#efefef" font-size="10" font-family="MuseoSans-500, Museo Sans" font-weight="500"><tspan x="2.81" y="9">1940</tspan></text>
    <text id="_1960" data-name="1960" transform="translate(114 3822)" fill="#efefef" font-size="10" font-family="MuseoSans-500, Museo Sans" font-weight="500"><tspan x="2.88" y="9">1960</tspan></text>
    <text id="_2000" data-name="2000" transform="translate(259 3822)" fill="#efefef" font-size="10" font-family="MuseoSans-500, Museo Sans" font-weight="500"><tspan x="1.53" y="9">2000</tspan></text>
    <text id="_1980" data-name="1980" transform="translate(187 3822)" fill="#efefef" font-size="10" font-family="MuseoSans-500, Museo Sans" font-weight="500"><tspan x="2.8" y="9">1980</tspan></text>
    <text id="United_States_Inflation_1910_2010" data-name="United States Inflation 1910 – 2010" transform="translate(-39 3569)" fill="#efefef" font-size="12" font-family="MuseoSans-900, Museo Sans" font-weight="900"><tspan x="0" y="11">UNITED STATES INFLATION 1910 – 2010</tspan></text>
    <g id="Group_327" data-name="Group 327" transform="translate(8 -4)">
      <line id="Line_114" data-name="Line 114" y2="28" transform="translate(181 3633)" fill="none" stroke="#efefef" stroke-width="2"/>
      <path id="Polygon_8" data-name="Polygon 8" d="M6,0l6,10H0Z" transform="translate(187 3665) rotate(180)" fill="#efefef"/>
      <text id="_1977_Introduction_of_the_Fed_s_Dual_Mandate" data-name="1977 Introduction of the Fed’s Dual Mandate" transform="translate(175 3600)" fill="#efefef" font-size="12" font-family="MuseoSans-500, Museo Sans" font-weight="500"><tspan x="0" y="11">1977 Introduction of the </tspan><tspan x="0" y="25">Fed’s </tspan><tspan y="25" font-family="MuseoSans-900, Museo Sans" font-weight="900">Dual Mandate</tspan></text>
    </g>
  </g>
</svg>
