<svg id="Component_2_1" data-name="Component 2 – 1" xmlns="http://www.w3.org/2000/svg" width="52.143" height="53.645" viewBox="0 0 52.143 53.645">
  <path id="Subtraction_3" data-name="Subtraction 3" d="M18.321,32.158H13.833V27.467A12.031,12.031,0,0,1,9.539,25.79L6.294,29.035,3.121,25.862l3.146-3.147a11.274,11.274,0,0,1-1.933-4.393H0V13.836H4.335a11.309,11.309,0,0,1,1.93-4.4L3.121,6.3,6.294,3.123,9.539,6.368a12.056,12.056,0,0,1,4.294-1.676V0h4.487V4.69a12.138,12.138,0,0,1,4.294,1.678l3.242-3.245L29.032,6.3,25.887,9.441a11.284,11.284,0,0,1,1.933,4.4h4.337v4.487H27.819a11.283,11.283,0,0,1-1.933,4.4l3.146,3.144-3.175,3.172L22.612,25.79a12.026,12.026,0,0,1-4.292,1.677v4.69ZM13.745,18.02l-1.514,2.186a6.012,6.012,0,0,0,3.357,1.613v1.5h1.793v-1.5a3.978,3.978,0,0,0,2.434-1.263,3.461,3.461,0,0,0,.855-2.323,2.99,2.99,0,0,0-1.214-2.453,9.383,9.383,0,0,0-2.377-1.239l-.006,0c-.978-.394-1.751-.706-1.751-1.243,0-.637.629-.922,1.252-.922a4.5,4.5,0,0,1,2.6,1.036l1.218-2.35a5.223,5.223,0,0,0-3.011-1.283v-1.5H15.588V9.825a3.571,3.571,0,0,0-3.144,3.506,3.01,3.01,0,0,0,1.227,2.443,9.946,9.946,0,0,0,2.4,1.293c.965.41,1.725.733,1.725,1.232,0,.869-.944.937-1.234.937a4.9,4.9,0,0,1-2.813-1.216Z" fill="#492889"/>
  <path id="Subtraction_4" data-name="Subtraction 4" d="M19.266,31.752h0l-1.522-4.179a11.546,11.546,0,0,1-2.159.2,11.256,11.256,0,0,1-2.637-.313l-1.832,3.93L7.048,29.5l1.833-3.928A11.33,11.33,0,0,1,5.713,21.96L1.536,23.482,0,19.267,4.312,17.7a12.062,12.062,0,0,1,.295-4.6L.355,11.113l1.9-4.067L6.5,9.029A12.071,12.071,0,0,1,9.837,5.846L8.269,1.533,12.485,0l1.52,4.178a11.475,11.475,0,0,1,2.161-.207,11.249,11.249,0,0,1,2.639.314L20.638.353l4.067,1.9-1.832,3.93A11.274,11.274,0,0,1,26.038,9.79l4.18-1.522,1.534,4.217-4.313,1.569a12.063,12.063,0,0,1-.294,4.6L31.4,20.636,29.5,24.7l-4.252-1.981A12.069,12.069,0,0,1,21.912,25.9l1.569,4.312-4.215,1.536ZM18.4,15.212a.5.5,0,0,1,.209.045c.787.367.45,1.254.328,1.516a4.876,4.876,0,0,1-2.291,2.035l1.343,2.3a6.041,6.041,0,0,0,2.88-2.358l1.356.632.758-1.626-1.355-.634a3.992,3.992,0,0,0-.115-2.739A3.468,3.468,0,0,0,19.77,12.62a3.063,3.063,0,0,0-1.293-.3,4.894,4.894,0,0,0-3.1,1.555c-.161.146-.317.291-.467.431l-.015.014c-.639.6-1.19,1.112-1.636,1.112a.536.536,0,0,1-.227-.05.783.783,0,0,1-.422-.454,1.457,1.457,0,0,1,.116-1.068,4.518,4.518,0,0,1,2.037-1.919l-1.616-2.1a5.168,5.168,0,0,0-2.435,2.187L9.358,11.4,8.6,13.02l1.4.654A3.567,3.567,0,0,0,11.849,18a2.971,2.971,0,0,0,1.258.289,5.111,5.111,0,0,0,3.149-1.54c.171-.148.336-.3.5-.44l.015-.014C17.415,15.716,17.974,15.212,18.4,15.212Z" transform="translate(20.392 21.893)" fill="#492889"/>
</svg>
